{
  "rsong_version": "1.0",
  "generated_by": "cadence",
  "generated_at": "2026-05-29T05:16:38.251237+00:00",
  "header": {
    "id": "bffc72de-c998-41c0-a18f-2c169d35c92a",
    "title": "cadence_game_energetic",
    "bpm": 120,
    "time_signature": [
      4,
      4
    ],
    "key": "C minor",
    "duration_ms": 164571,
    "genre_tags": [
      "techno"
    ],
    "total_bars": 96
  },
  "game_meta": {
    "use_case": "game",
    "loop_point_ms": 32000,
    "intensity_curve": [
      0.67,
      0.717,
      0.832,
      0.67
    ],
    "cue_points": [
      {
        "label": "intro",
        "t": 0
      },
      {
        "label": "verse",
        "t": 32000
      },
      {
        "label": "chorus",
        "t": 96000
      },
      {
        "label": "outro",
        "t": 160000
      }
    ],
    "energy_level": 3,
    "hit_objects_hint": true,
    "sections": [
      "intro",
      "verse",
      "chorus",
      "outro"
    ]
  },
  "validation": {
    "score": 1.0,
    "retry_count": 0
  },
  "tracks": [
    {
      "id": "drums",
      "instrument": "Drum Kit",
      "midi_channel": 9,
      "role": "rhythm",
      "event_count": 1344,
      "events": [
        {
          "t": 0,
          "type": "drum_hit",
          "pitch": 36,
          "duration_ms": 112,
          "velocity": 70,
          "beat_index": 0,
          "section": "intro"
        },
        {
          "t": 0,
          "type": "drum_hit",
          "pitch": 42,
          "duration_ms": 112,
          "velocity": 50,
          "beat_index": 0,
          "section": "intro"
        },
        {
          "t": 250,
          "type": "drum_hit",
          "pitch": 42,
          "duration_ms": 112,
          "velocity": 50,
          "beat_index": 2,
          "section": "intro"
        },
        {
          "t": 500,
          "type": "drum_hit",
          "pitch": 36,
          "duration_ms": 112,
          "velocity": 70,
          "beat_index": 4,
          "section": "intro"
        },
        {
          "t": 500,
          "type": "drum_hit",
          "pitch": 38,
          "duration_ms": 112,
          "velocity": 60,
          "beat_index": 4,
          "section": "intro"
        },
        {
          "t": 500,
          "type": "drum_hit",
          "pitch": 42,
          "duration_ms": 112,
          "velocity": 50,
          "beat_index": 4,
          "section": "intro"
        },
        {
          "t": 750,
          "type": "drum_hit",
          "pitch": 42,
          "duration_ms": 112,
          "velocity": 50,
          "beat_index": 6,
          "section": "intro"
        },
        {
          "t": 1000,
          "type": "drum_hit",
          "pitch": 36,
          "duration_ms": 112,
          "velocity": 70,
          "beat_index": 8,
          "section": "intro"
        },
        {
          "t": 1000,
          "type": "drum_hit",
          "pitch": 42,
          "duration_ms": 112,
          "velocity": 50,
          "beat_index": 8,
          "section": "intro"
        },
        {
          "t": 1250,
          "type": "drum_hit",
          "pitch": 42,
          "duration_ms": 112,
          "velocity": 50,
          "beat_index": 10,
          "section": "intro"
        },
        {
          "t": 1500,
          "type": "drum_hit",
          "pitch": 36,
          "duration_ms": 112,
          "velocity": 70,
          "beat_index": 12,
          "section": "intro"
        },
        {
          "t": 1500,
          "type": "drum_hit",
          "pitch": 38,
          "duration_ms": 112,
          "velocity": 60,
          "beat_index": 12,
          "section": "intro"
        },
        {
          "t": 1500,
          "type": "drum_hit",
          "pitch": 42,
          "duration_ms": 112,
          "velocity": 50,
          "beat_index": 12,
          "section": "intro"
        },
        {
          "t": 1750,
          "type": "drum_hit",
          "pitch": 42,
          "duration_ms": 112,
          "velocity": 50,
          "beat_index": 14,
          "section": "intro"
        },
        {
          "t": 2000,
          "type": "drum_hit",
          "pitch": 36,
          "duration_ms": 112,
          "velocity": 70,
          "beat_index": 16,
          "section": "intro"
        },
        {
          "t": 2000,
          "type": "drum_hit",
          "pitch": 42,
          "duration_ms": 112,
          "velocity": 50,
          "beat_index": 16,
          "section": "intro"
        },
        {
          "t": 2250,
          "type": "drum_hit",
          "pitch": 42,
          "duration_ms": 112,
          "velocity": 50,
          "beat_index": 18,
          "section": "intro"
        },
        {
          "t": 2500,
          "type": "drum_hit",
          "pitch": 36,
          "duration_ms": 112,
          "velocity": 70,
          "beat_index": 20,
          "section": "intro"
        },
        {
          "t": 2500,
          "type": "drum_hit",
          "pitch": 38,
          "duration_ms": 112,
          "velocity": 60,
          "beat_index": 20,
          "section": "intro"
        },
        {
          "t": 2500,
          "type": "drum_hit",
          "pitch": 42,
          "duration_ms": 112,
          "velocity": 50,
          "beat_index": 20,
          "section": "intro"
        },
        {
          "t": 2750,
          "type": "drum_hit",
          "pitch": 42,
          "duration_ms": 112,
          "velocity": 50,
          "beat_index": 22,
          "section": "intro"
        },
        {
          "t": 3000,
          "type": "drum_hit",
          "pitch": 36,
          "duration_ms": 112,
          "velocity": 70,
          "beat_index": 24,
          "section": "intro"
        },
        {
          "t": 3000,
          "type": "drum_hit",
          "pitch": 42,
          "duration_ms": 112,
          "velocity": 50,
          "beat_index": 24,
          "section": "intro"
        },
        {
          "t": 3250,
          "type": "drum_hit",
          "pitch": 42,
          "duration_ms": 112,
          "velocity": 50,
          "beat_index": 26,
          "section": "intro"
        },
        {
          "t": 3500,
          "type": "drum_hit",
          "pitch": 36,
          "duration_ms": 112,
          "velocity": 70,
          "beat_index": 28,
          "section": "intro"
        },
        {
          "t": 3500,
          "type": "drum_hit",
          "pitch": 38,
          "duration_ms": 112,
          "velocity": 60,
          "beat_index": 28,
          "section": "intro"
        },
        {
          "t": 3500,
          "type": "drum_hit",
          "pitch": 42,
          "duration_ms": 112,
          "velocity": 50,
          "beat_index": 28,
          "section": "intro"
        },
        {
          "t": 3750,
          "type": "drum_hit",
          "pitch": 42,
          "duration_ms": 112,
          "velocity": 50,
          "beat_index": 30,
          "section": "intro"
        },
        {
          "t": 4000,
          "type": "drum_hit",
          "pitch": 36,
          "duration_ms": 112,
          "velocity": 70,
          "beat_index": 32,
          "section": "intro"
        },
        {
          "t": 4000,
          "type": "drum_hit",
          "pitch": 42,
          "duration_ms": 112,
          "velocity": 50,
          "beat_index": 32,
          "section": "intro"
        },
        {
          "t": 4250,
          "type": "drum_hit",
          "pitch": 42,
          "duration_ms": 112,
          "velocity": 50,
          "beat_index": 34,
          "section": "intro"
        },
        {
          "t": 4500,
          "type": "drum_hit",
          "pitch": 36,
          "duration_ms": 112,
          "velocity": 70,
          "beat_index": 36,
          "section": "intro"
        },
        {
          "t": 4500,
          "type": "drum_hit",
          "pitch": 38,
          "duration_ms": 112,
          "velocity": 60,
          "beat_index": 36,
          "section": "intro"
        },
        {
          "t": 4500,
          "type": "drum_hit",
          "pitch": 42,
          "duration_ms": 112,
          "velocity": 50,
          "beat_index": 36,
          "section": "intro"
        },
        {
          "t": 4750,
          "type": "drum_hit",
          "pitch": 42,
          "duration_ms": 112,
          "velocity": 50,
          "beat_index": 38,
          "section": "intro"
        },
        {
          "t": 5000,
          "type": "drum_hit",
          "pitch": 36,
          "duration_ms": 112,
          "velocity": 70,
          "beat_index": 40,
          "section": "intro"
        },
        {
          "t": 5000,
          "type": "drum_hit",
          "pitch": 42,
          "duration_ms": 112,
          "velocity": 50,
          "beat_index": 40,
          "section": "intro"
        },
        {
          "t": 5250,
          "type": "drum_hit",
          "pitch": 42,
          "duration_ms": 112,
          "velocity": 50,
          "beat_index": 42,
          "section": "intro"
        },
        {
          "t": 5500,
          "type": "drum_hit",
          "pitch": 36,
          "duration_ms": 112,
          "velocity": 70,
          "beat_index": 44,
          "section": "intro"
        },
        {
          "t": 5500,
          "type": "drum_hit",
          "pitch": 38,
          "duration_ms": 112,
          "velocity": 60,
          "beat_index": 44,
          "section": "intro"
        },
        {
          "t": 5500,
          "type": "drum_hit",
          "pitch": 42,
          "duration_ms": 112,
          "velocity": 50,
          "beat_index": 44,
          "section": "intro"
        },
        {
          "t": 5750,
          "type": "drum_hit",
          "pitch": 42,
          "duration_ms": 112,
          "velocity": 50,
          "beat_index": 46,
          "section": "intro"
        },
        {
          "t": 6000,
          "type": "drum_hit",
          "pitch": 36,
          "duration_ms": 112,
          "velocity": 70,
          "beat_index": 48,
          "section": "intro"
        },
        {
          "t": 6000,
          "type": "drum_hit",
          "pitch": 42,
          "duration_ms": 112,
          "velocity": 50,
          "beat_index": 48,
          "section": "intro"
        },
        {
          "t": 6250,
          "type": "drum_hit",
          "pitch": 42,
          "duration_ms": 112,
          "velocity": 50,
          "beat_index": 50,
          "section": "intro"
        },
        {
          "t": 6500,
          "type": "drum_hit",
          "pitch": 36,
          "duration_ms": 112,
          "velocity": 70,
          "beat_index": 52,
          "section": "intro"
        },
        {
          "t": 6500,
          "type": "drum_hit",
          "pitch": 38,
          "duration_ms": 112,
          "velocity": 60,
          "beat_index": 52,
          "section": "intro"
        },
        {
          "t": 6500,
          "type": "drum_hit",
          "pitch": 42,
          "duration_ms": 112,
          "velocity": 50,
          "beat_index": 52,
          "section": "intro"
        },
        {
          "t": 6750,
          "type": "drum_hit",
          "pitch": 42,
          "duration_ms": 112,
          "velocity": 50,
          "beat_index": 54,
          "section": "intro"
        },
        {
          "t": 7000,
          "type": "drum_hit",
          "pitch": 36,
          "duration_ms": 112,
          "velocity": 70,
          "beat_index": 56,
          "section": "intro"
        },
        {
          "t": 7000,
          "type": "drum_hit",
          "pitch": 42,
          "duration_ms": 112,
          "velocity": 50,
          "beat_index": 56,
          "section": "intro"
        },
        {
          "t": 7250,
          "type": "drum_hit",
          "pitch": 42,
          "duration_ms": 112,
          "velocity": 50,
          "beat_index": 58,
          "section": "intro"
        },
        {
          "t": 7500,
          "type": "drum_hit",
          "pitch": 36,
          "duration_ms": 112,
          "velocity": 70,
          "beat_index": 60,
          "section": "intro"
        },
        {
          "t": 7500,
          "type": "drum_hit",
          "pitch": 38,
          "duration_ms": 112,
          "velocity": 60,
          "beat_index": 60,
          "section": "intro"
        },
        {
          "t": 7500,
          "type": "drum_hit",
          "pitch": 42,
          "duration_ms": 112,
          "velocity": 50,
          "beat_index": 60,
          "section": "intro"
        },
        {
          "t": 7750,
          "type": "drum_hit",
          "pitch": 42,
          "duration_ms": 112,
          "velocity": 50,
          "beat_index": 62,
          "section": "intro"
        },
        {
          "t": 8000,
          "type": "drum_hit",
          "pitch": 36,
          "duration_ms": 112,
          "velocity": 70,
          "beat_index": 64,
          "section": "intro"
        },
        {
          "t": 8000,
          "type": "drum_hit",
          "pitch": 42,
          "duration_ms": 112,
          "velocity": 50,
          "beat_index": 64,
          "section": "intro"
        },
        {
          "t": 8250,
          "type": "drum_hit",
          "pitch": 42,
          "duration_ms": 112,
          "velocity": 50,
          "beat_index": 66,
          "section": "intro"
        },
        {
          "t": 8500,
          "type": "drum_hit",
          "pitch": 36,
          "duration_ms": 112,
          "velocity": 70,
          "beat_index": 68,
          "section": "intro"
        },
        {
          "t": 8500,
          "type": "drum_hit",
          "pitch": 38,
          "duration_ms": 112,
          "velocity": 60,
          "beat_index": 68,
          "section": "intro"
        },
        {
          "t": 8500,
          "type": "drum_hit",
          "pitch": 42,
          "duration_ms": 112,
          "velocity": 50,
          "beat_index": 68,
          "section": "intro"
        },
        {
          "t": 8750,
          "type": "drum_hit",
          "pitch": 42,
          "duration_ms": 112,
          "velocity": 50,
          "beat_index": 70,
          "section": "intro"
        },
        {
          "t": 9000,
          "type": "drum_hit",
          "pitch": 36,
          "duration_ms": 112,
          "velocity": 70,
          "beat_index": 72,
          "section": "intro"
        },
        {
          "t": 9000,
          "type": "drum_hit",
          "pitch": 42,
          "duration_ms": 112,
          "velocity": 50,
          "beat_index": 72,
          "section": "intro"
        },
        {
          "t": 9250,
          "type": "drum_hit",
          "pitch": 42,
          "duration_ms": 112,
          "velocity": 50,
          "beat_index": 74,
          "section": "intro"
        },
        {
          "t": 9500,
          "type": "drum_hit",
          "pitch": 36,
          "duration_ms": 112,
          "velocity": 70,
          "beat_index": 76,
          "section": "intro"
        },
        {
          "t": 9500,
          "type": "drum_hit",
          "pitch": 38,
          "duration_ms": 112,
          "velocity": 60,
          "beat_index": 76,
          "section": "intro"
        },
        {
          "t": 9500,
          "type": "drum_hit",
          "pitch": 42,
          "duration_ms": 112,
          "velocity": 50,
          "beat_index": 76,
          "section": "intro"
        },
        {
          "t": 9750,
          "type": "drum_hit",
          "pitch": 42,
          "duration_ms": 112,
          "velocity": 50,
          "beat_index": 78,
          "section": "intro"
        },
        {
          "t": 10000,
          "type": "drum_hit",
          "pitch": 36,
          "duration_ms": 112,
          "velocity": 70,
          "beat_index": 80,
          "section": "intro"
        },
        {
          "t": 10000,
          "type": "drum_hit",
          "pitch": 42,
          "duration_ms": 112,
          "velocity": 50,
          "beat_index": 80,
          "section": "intro"
        },
        {
          "t": 10250,
          "type": "drum_hit",
          "pitch": 42,
          "duration_ms": 112,
          "velocity": 50,
          "beat_index": 82,
          "section": "intro"
        },
        {
          "t": 10500,
          "type": "drum_hit",
          "pitch": 36,
          "duration_ms": 112,
          "velocity": 70,
          "beat_index": 84,
          "section": "intro"
        },
        {
          "t": 10500,
          "type": "drum_hit",
          "pitch": 38,
          "duration_ms": 112,
          "velocity": 60,
          "beat_index": 84,
          "section": "intro"
        },
        {
          "t": 10500,
          "type": "drum_hit",
          "pitch": 42,
          "duration_ms": 112,
          "velocity": 50,
          "beat_index": 84,
          "section": "intro"
        },
        {
          "t": 10750,
          "type": "drum_hit",
          "pitch": 42,
          "duration_ms": 112,
          "velocity": 50,
          "beat_index": 86,
          "section": "intro"
        },
        {
          "t": 11000,
          "type": "drum_hit",
          "pitch": 36,
          "duration_ms": 112,
          "velocity": 70,
          "beat_index": 88,
          "section": "intro"
        },
        {
          "t": 11000,
          "type": "drum_hit",
          "pitch": 42,
          "duration_ms": 112,
          "velocity": 50,
          "beat_index": 88,
          "section": "intro"
        },
        {
          "t": 11250,
          "type": "drum_hit",
          "pitch": 42,
          "duration_ms": 112,
          "velocity": 50,
          "beat_index": 90,
          "section": "intro"
        },
        {
          "t": 11500,
          "type": "drum_hit",
          "pitch": 36,
          "duration_ms": 112,
          "velocity": 70,
          "beat_index": 92,
          "section": "intro"
        },
        {
          "t": 11500,
          "type": "drum_hit",
          "pitch": 38,
          "duration_ms": 112,
          "velocity": 60,
          "beat_index": 92,
          "section": "intro"
        },
        {
          "t": 11500,
          "type": "drum_hit",
          "pitch": 42,
          "duration_ms": 112,
          "velocity": 50,
          "beat_index": 92,
          "section": "intro"
        },
        {
          "t": 11750,
          "type": "drum_hit",
          "pitch": 42,
          "duration_ms": 112,
          "velocity": 50,
          "beat_index": 94,
          "section": "intro"
        },
        {
          "t": 12000,
          "type": "drum_hit",
          "pitch": 36,
          "duration_ms": 112,
          "velocity": 70,
          "beat_index": 96,
          "section": "intro"
        },
        {
          "t": 12000,
          "type": "drum_hit",
          "pitch": 42,
          "duration_ms": 112,
          "velocity": 50,
          "beat_index": 96,
          "section": "intro"
        },
        {
          "t": 12250,
          "type": "drum_hit",
          "pitch": 42,
          "duration_ms": 112,
          "velocity": 50,
          "beat_index": 98,
          "section": "intro"
        },
        {
          "t": 12500,
          "type": "drum_hit",
          "pitch": 36,
          "duration_ms": 112,
          "velocity": 70,
          "beat_index": 100,
          "section": "intro"
        },
        {
          "t": 12500,
          "type": "drum_hit",
          "pitch": 38,
          "duration_ms": 112,
          "velocity": 60,
          "beat_index": 100,
          "section": "intro"
        },
        {
          "t": 12500,
          "type": "drum_hit",
          "pitch": 42,
          "duration_ms": 112,
          "velocity": 50,
          "beat_index": 100,
          "section": "intro"
        },
        {
          "t": 12750,
          "type": "drum_hit",
          "pitch": 42,
          "duration_ms": 112,
          "velocity": 50,
          "beat_index": 102,
          "section": "intro"
        },
        {
          "t": 13000,
          "type": "drum_hit",
          "pitch": 36,
          "duration_ms": 112,
          "velocity": 70,
          "beat_index": 104,
          "section": "intro"
        },
        {
          "t": 13000,
          "type": "drum_hit",
          "pitch": 42,
          "duration_ms": 112,
          "velocity": 50,
          "beat_index": 104,
          "section": "intro"
        },
        {
          "t": 13250,
          "type": "drum_hit",
          "pitch": 42,
          "duration_ms": 112,
          "velocity": 50,
          "beat_index": 106,
          "section": "intro"
        },
        {
          "t": 13500,
          "type": "drum_hit",
          "pitch": 36,
          "duration_ms": 112,
          "velocity": 70,
          "beat_index": 108,
          "section": "intro"
        },
        {
          "t": 13500,
          "type": "drum_hit",
          "pitch": 38,
          "duration_ms": 112,
          "velocity": 60,
          "beat_index": 108,
          "section": "intro"
        },
        {
          "t": 13500,
          "type": "drum_hit",
          "pitch": 42,
          "duration_ms": 112,
          "velocity": 50,
          "beat_index": 108,
          "section": "intro"
        },
        {
          "t": 13750,
          "type": "drum_hit",
          "pitch": 42,
          "duration_ms": 112,
          "velocity": 50,
          "beat_index": 110,
          "section": "intro"
        },
        {
          "t": 14000,
          "type": "drum_hit",
          "pitch": 36,
          "duration_ms": 112,
          "velocity": 70,
          "beat_index": 112,
          "section": "intro"
        },
        {
          "t": 14000,
          "type": "drum_hit",
          "pitch": 42,
          "duration_ms": 112,
          "velocity": 50,
          "beat_index": 112,
          "section": "intro"
        },
        {
          "t": 14250,
          "type": "drum_hit",
          "pitch": 42,
          "duration_ms": 112,
          "velocity": 50,
          "beat_index": 114,
          "section": "intro"
        },
        {
          "t": 14500,
          "type": "drum_hit",
          "pitch": 36,
          "duration_ms": 112,
          "velocity": 70,
          "beat_index": 116,
          "section": "intro"
        },
        {
          "t": 14500,
          "type": "drum_hit",
          "pitch": 38,
          "duration_ms": 112,
          "velocity": 60,
          "beat_index": 116,
          "section": "intro"
        },
        {
          "t": 14500,
          "type": "drum_hit",
          "pitch": 42,
          "duration_ms": 112,
          "velocity": 50,
          "beat_index": 116,
          "section": "intro"
        },
        {
          "t": 14750,
          "type": "drum_hit",
          "pitch": 42,
          "duration_ms": 112,
          "velocity": 50,
          "beat_index": 118,
          "section": "intro"
        },
        {
          "t": 15000,
          "type": "drum_hit",
          "pitch": 36,
          "duration_ms": 112,
          "velocity": 70,
          "beat_index": 120,
          "section": "intro"
        },
        {
          "t": 15000,
          "type": "drum_hit",
          "pitch": 42,
          "duration_ms": 112,
          "velocity": 50,
          "beat_index": 120,
          "section": "intro"
        },
        {
          "t": 15250,
          "type": "drum_hit",
          "pitch": 42,
          "duration_ms": 112,
          "velocity": 50,
          "beat_index": 122,
          "section": "intro"
        },
        {
          "t": 15500,
          "type": "drum_hit",
          "pitch": 36,
          "duration_ms": 112,
          "velocity": 70,
          "beat_index": 124,
          "section": "intro"
        },
        {
          "t": 15500,
          "type": "drum_hit",
          "pitch": 38,
          "duration_ms": 112,
          "velocity": 60,
          "beat_index": 124,
          "section": "intro"
        },
        {
          "t": 15500,
          "type": "drum_hit",
          "pitch": 42,
          "duration_ms": 112,
          "velocity": 50,
          "beat_index": 124,
          "section": "intro"
        },
        {
          "t": 15750,
          "type": "drum_hit",
          "pitch": 42,
          "duration_ms": 112,
          "velocity": 50,
          "beat_index": 126,
          "section": "intro"
        },
        {
          "t": 16000,
          "type": "drum_hit",
          "pitch": 36,
          "duration_ms": 112,
          "velocity": 70,
          "beat_index": 128,
          "section": "intro"
        },
        {
          "t": 16000,
          "type": "drum_hit",
          "pitch": 42,
          "duration_ms": 112,
          "velocity": 50,
          "beat_index": 128,
          "section": "intro"
        },
        {
          "t": 16250,
          "type": "drum_hit",
          "pitch": 42,
          "duration_ms": 112,
          "velocity": 50,
          "beat_index": 130,
          "section": "intro"
        },
        {
          "t": 16500,
          "type": "drum_hit",
          "pitch": 36,
          "duration_ms": 112,
          "velocity": 70,
          "beat_index": 132,
          "section": "intro"
        },
        {
          "t": 16500,
          "type": "drum_hit",
          "pitch": 38,
          "duration_ms": 112,
          "velocity": 60,
          "beat_index": 132,
          "section": "intro"
        },
        {
          "t": 16500,
          "type": "drum_hit",
          "pitch": 42,
          "duration_ms": 112,
          "velocity": 50,
          "beat_index": 132,
          "section": "intro"
        },
        {
          "t": 16750,
          "type": "drum_hit",
          "pitch": 42,
          "duration_ms": 112,
          "velocity": 50,
          "beat_index": 134,
          "section": "intro"
        },
        {
          "t": 17000,
          "type": "drum_hit",
          "pitch": 36,
          "duration_ms": 112,
          "velocity": 70,
          "beat_index": 136,
          "section": "intro"
        },
        {
          "t": 17000,
          "type": "drum_hit",
          "pitch": 42,
          "duration_ms": 112,
          "velocity": 50,
          "beat_index": 136,
          "section": "intro"
        },
        {
          "t": 17250,
          "type": "drum_hit",
          "pitch": 42,
          "duration_ms": 112,
          "velocity": 50,
          "beat_index": 138,
          "section": "intro"
        },
        {
          "t": 17500,
          "type": "drum_hit",
          "pitch": 36,
          "duration_ms": 112,
          "velocity": 70,
          "beat_index": 140,
          "section": "intro"
        },
        {
          "t": 17500,
          "type": "drum_hit",
          "pitch": 38,
          "duration_ms": 112,
          "velocity": 60,
          "beat_index": 140,
          "section": "intro"
        },
        {
          "t": 17500,
          "type": "drum_hit",
          "pitch": 42,
          "duration_ms": 112,
          "velocity": 50,
          "beat_index": 140,
          "section": "intro"
        },
        {
          "t": 17750,
          "type": "drum_hit",
          "pitch": 42,
          "duration_ms": 112,
          "velocity": 50,
          "beat_index": 142,
          "section": "intro"
        },
        {
          "t": 18000,
          "type": "drum_hit",
          "pitch": 36,
          "duration_ms": 112,
          "velocity": 70,
          "beat_index": 144,
          "section": "intro"
        },
        {
          "t": 18000,
          "type": "drum_hit",
          "pitch": 42,
          "duration_ms": 112,
          "velocity": 50,
          "beat_index": 144,
          "section": "intro"
        },
        {
          "t": 18250,
          "type": "drum_hit",
          "pitch": 42,
          "duration_ms": 112,
          "velocity": 50,
          "beat_index": 146,
          "section": "intro"
        },
        {
          "t": 18500,
          "type": "drum_hit",
          "pitch": 36,
          "duration_ms": 112,
          "velocity": 70,
          "beat_index": 148,
          "section": "intro"
        },
        {
          "t": 18500,
          "type": "drum_hit",
          "pitch": 38,
          "duration_ms": 112,
          "velocity": 60,
          "beat_index": 148,
          "section": "intro"
        },
        {
          "t": 18500,
          "type": "drum_hit",
          "pitch": 42,
          "duration_ms": 112,
          "velocity": 50,
          "beat_index": 148,
          "section": "intro"
        },
        {
          "t": 18750,
          "type": "drum_hit",
          "pitch": 42,
          "duration_ms": 112,
          "velocity": 50,
          "beat_index": 150,
          "section": "intro"
        },
        {
          "t": 19000,
          "type": "drum_hit",
          "pitch": 36,
          "duration_ms": 112,
          "velocity": 70,
          "beat_index": 152,
          "section": "intro"
        },
        {
          "t": 19000,
          "type": "drum_hit",
          "pitch": 42,
          "duration_ms": 112,
          "velocity": 50,
          "beat_index": 152,
          "section": "intro"
        },
        {
          "t": 19250,
          "type": "drum_hit",
          "pitch": 42,
          "duration_ms": 112,
          "velocity": 50,
          "beat_index": 154,
          "section": "intro"
        },
        {
          "t": 19500,
          "type": "drum_hit",
          "pitch": 36,
          "duration_ms": 112,
          "velocity": 70,
          "beat_index": 156,
          "section": "intro"
        },
        {
          "t": 19500,
          "type": "drum_hit",
          "pitch": 38,
          "duration_ms": 112,
          "velocity": 60,
          "beat_index": 156,
          "section": "intro"
        },
        {
          "t": 19500,
          "type": "drum_hit",
          "pitch": 42,
          "duration_ms": 112,
          "velocity": 50,
          "beat_index": 156,
          "section": "intro"
        },
        {
          "t": 19750,
          "type": "drum_hit",
          "pitch": 42,
          "duration_ms": 112,
          "velocity": 50,
          "beat_index": 158,
          "section": "intro"
        },
        {
          "t": 20000,
          "type": "drum_hit",
          "pitch": 36,
          "duration_ms": 112,
          "velocity": 70,
          "beat_index": 160,
          "section": "intro"
        },
        {
          "t": 20000,
          "type": "drum_hit",
          "pitch": 42,
          "duration_ms": 112,
          "velocity": 50,
          "beat_index": 160,
          "section": "intro"
        },
        {
          "t": 20250,
          "type": "drum_hit",
          "pitch": 42,
          "duration_ms": 112,
          "velocity": 50,
          "beat_index": 162,
          "section": "intro"
        },
        {
          "t": 20500,
          "type": "drum_hit",
          "pitch": 36,
          "duration_ms": 112,
          "velocity": 70,
          "beat_index": 164,
          "section": "intro"
        },
        {
          "t": 20500,
          "type": "drum_hit",
          "pitch": 38,
          "duration_ms": 112,
          "velocity": 60,
          "beat_index": 164,
          "section": "intro"
        },
        {
          "t": 20500,
          "type": "drum_hit",
          "pitch": 42,
          "duration_ms": 112,
          "velocity": 50,
          "beat_index": 164,
          "section": "intro"
        },
        {
          "t": 20750,
          "type": "drum_hit",
          "pitch": 42,
          "duration_ms": 112,
          "velocity": 50,
          "beat_index": 166,
          "section": "intro"
        },
        {
          "t": 21000,
          "type": "drum_hit",
          "pitch": 36,
          "duration_ms": 112,
          "velocity": 70,
          "beat_index": 168,
          "section": "intro"
        },
        {
          "t": 21000,
          "type": "drum_hit",
          "pitch": 42,
          "duration_ms": 112,
          "velocity": 50,
          "beat_index": 168,
          "section": "intro"
        },
        {
          "t": 21250,
          "type": "drum_hit",
          "pitch": 42,
          "duration_ms": 112,
          "velocity": 50,
          "beat_index": 170,
          "section": "intro"
        },
        {
          "t": 21500,
          "type": "drum_hit",
          "pitch": 36,
          "duration_ms": 112,
          "velocity": 70,
          "beat_index": 172,
          "section": "intro"
        },
        {
          "t": 21500,
          "type": "drum_hit",
          "pitch": 38,
          "duration_ms": 112,
          "velocity": 60,
          "beat_index": 172,
          "section": "intro"
        },
        {
          "t": 21500,
          "type": "drum_hit",
          "pitch": 42,
          "duration_ms": 112,
          "velocity": 50,
          "beat_index": 172,
          "section": "intro"
        },
        {
          "t": 21750,
          "type": "drum_hit",
          "pitch": 42,
          "duration_ms": 112,
          "velocity": 50,
          "beat_index": 174,
          "section": "intro"
        },
        {
          "t": 22000,
          "type": "drum_hit",
          "pitch": 36,
          "duration_ms": 112,
          "velocity": 70,
          "beat_index": 176,
          "section": "intro"
        },
        {
          "t": 22000,
          "type": "drum_hit",
          "pitch": 42,
          "duration_ms": 112,
          "velocity": 50,
          "beat_index": 176,
          "section": "intro"
        },
        {
          "t": 22250,
          "type": "drum_hit",
          "pitch": 42,
          "duration_ms": 112,
          "velocity": 50,
          "beat_index": 178,
          "section": "intro"
        },
        {
          "t": 22500,
          "type": "drum_hit",
          "pitch": 36,
          "duration_ms": 112,
          "velocity": 70,
          "beat_index": 180,
          "section": "intro"
        },
        {
          "t": 22500,
          "type": "drum_hit",
          "pitch": 38,
          "duration_ms": 112,
          "velocity": 60,
          "beat_index": 180,
          "section": "intro"
        },
        {
          "t": 22500,
          "type": "drum_hit",
          "pitch": 42,
          "duration_ms": 112,
          "velocity": 50,
          "beat_index": 180,
          "section": "intro"
        },
        {
          "t": 22750,
          "type": "drum_hit",
          "pitch": 42,
          "duration_ms": 112,
          "velocity": 50,
          "beat_index": 182,
          "section": "intro"
        },
        {
          "t": 23000,
          "type": "drum_hit",
          "pitch": 36,
          "duration_ms": 112,
          "velocity": 70,
          "beat_index": 184,
          "section": "intro"
        },
        {
          "t": 23000,
          "type": "drum_hit",
          "pitch": 42,
          "duration_ms": 112,
          "velocity": 50,
          "beat_index": 184,
          "section": "intro"
        },
        {
          "t": 23250,
          "type": "drum_hit",
          "pitch": 42,
          "duration_ms": 112,
          "velocity": 50,
          "beat_index": 186,
          "section": "intro"
        },
        {
          "t": 23500,
          "type": "drum_hit",
          "pitch": 36,
          "duration_ms": 112,
          "velocity": 70,
          "beat_index": 188,
          "section": "intro"
        },
        {
          "t": 23500,
          "type": "drum_hit",
          "pitch": 38,
          "duration_ms": 112,
          "velocity": 60,
          "beat_index": 188,
          "section": "intro"
        },
        {
          "t": 23500,
          "type": "drum_hit",
          "pitch": 42,
          "duration_ms": 112,
          "velocity": 50,
          "beat_index": 188,
          "section": "intro"
        },
        {
          "t": 23750,
          "type": "drum_hit",
          "pitch": 42,
          "duration_ms": 112,
          "velocity": 50,
          "beat_index": 190,
          "section": "intro"
        },
        {
          "t": 24000,
          "type": "drum_hit",
          "pitch": 36,
          "duration_ms": 112,
          "velocity": 70,
          "beat_index": 192,
          "section": "intro"
        },
        {
          "t": 24000,
          "type": "drum_hit",
          "pitch": 42,
          "duration_ms": 112,
          "velocity": 50,
          "beat_index": 192,
          "section": "intro"
        },
        {
          "t": 24250,
          "type": "drum_hit",
          "pitch": 42,
          "duration_ms": 112,
          "velocity": 50,
          "beat_index": 194,
          "section": "intro"
        },
        {
          "t": 24500,
          "type": "drum_hit",
          "pitch": 36,
          "duration_ms": 112,
          "velocity": 70,
          "beat_index": 196,
          "section": "intro"
        },
        {
          "t": 24500,
          "type": "drum_hit",
          "pitch": 38,
          "duration_ms": 112,
          "velocity": 60,
          "beat_index": 196,
          "section": "intro"
        },
        {
          "t": 24500,
          "type": "drum_hit",
          "pitch": 42,
          "duration_ms": 112,
          "velocity": 50,
          "beat_index": 196,
          "section": "intro"
        },
        {
          "t": 24750,
          "type": "drum_hit",
          "pitch": 42,
          "duration_ms": 112,
          "velocity": 50,
          "beat_index": 198,
          "section": "intro"
        },
        {
          "t": 25000,
          "type": "drum_hit",
          "pitch": 36,
          "duration_ms": 112,
          "velocity": 70,
          "beat_index": 200,
          "section": "intro"
        },
        {
          "t": 25000,
          "type": "drum_hit",
          "pitch": 42,
          "duration_ms": 112,
          "velocity": 50,
          "beat_index": 200,
          "section": "intro"
        },
        {
          "t": 25250,
          "type": "drum_hit",
          "pitch": 42,
          "duration_ms": 112,
          "velocity": 50,
          "beat_index": 202,
          "section": "intro"
        },
        {
          "t": 25500,
          "type": "drum_hit",
          "pitch": 36,
          "duration_ms": 112,
          "velocity": 70,
          "beat_index": 204,
          "section": "intro"
        },
        {
          "t": 25500,
          "type": "drum_hit",
          "pitch": 38,
          "duration_ms": 112,
          "velocity": 60,
          "beat_index": 204,
          "section": "intro"
        },
        {
          "t": 25500,
          "type": "drum_hit",
          "pitch": 42,
          "duration_ms": 112,
          "velocity": 50,
          "beat_index": 204,
          "section": "intro"
        },
        {
          "t": 25750,
          "type": "drum_hit",
          "pitch": 42,
          "duration_ms": 112,
          "velocity": 50,
          "beat_index": 206,
          "section": "intro"
        },
        {
          "t": 26000,
          "type": "drum_hit",
          "pitch": 36,
          "duration_ms": 112,
          "velocity": 70,
          "beat_index": 208,
          "section": "intro"
        },
        {
          "t": 26000,
          "type": "drum_hit",
          "pitch": 42,
          "duration_ms": 112,
          "velocity": 50,
          "beat_index": 208,
          "section": "intro"
        },
        {
          "t": 26250,
          "type": "drum_hit",
          "pitch": 42,
          "duration_ms": 112,
          "velocity": 50,
          "beat_index": 210,
          "section": "intro"
        },
        {
          "t": 26500,
          "type": "drum_hit",
          "pitch": 36,
          "duration_ms": 112,
          "velocity": 70,
          "beat_index": 212,
          "section": "intro"
        },
        {
          "t": 26500,
          "type": "drum_hit",
          "pitch": 38,
          "duration_ms": 112,
          "velocity": 60,
          "beat_index": 212,
          "section": "intro"
        },
        {
          "t": 26500,
          "type": "drum_hit",
          "pitch": 42,
          "duration_ms": 112,
          "velocity": 50,
          "beat_index": 212,
          "section": "intro"
        },
        {
          "t": 26750,
          "type": "drum_hit",
          "pitch": 42,
          "duration_ms": 112,
          "velocity": 50,
          "beat_index": 214,
          "section": "intro"
        },
        {
          "t": 27000,
          "type": "drum_hit",
          "pitch": 36,
          "duration_ms": 112,
          "velocity": 70,
          "beat_index": 216,
          "section": "intro"
        },
        {
          "t": 27000,
          "type": "drum_hit",
          "pitch": 42,
          "duration_ms": 112,
          "velocity": 50,
          "beat_index": 216,
          "section": "intro"
        },
        {
          "t": 27250,
          "type": "drum_hit",
          "pitch": 42,
          "duration_ms": 112,
          "velocity": 50,
          "beat_index": 218,
          "section": "intro"
        },
        {
          "t": 27500,
          "type": "drum_hit",
          "pitch": 36,
          "duration_ms": 112,
          "velocity": 70,
          "beat_index": 220,
          "section": "intro"
        },
        {
          "t": 27500,
          "type": "drum_hit",
          "pitch": 38,
          "duration_ms": 112,
          "velocity": 60,
          "beat_index": 220,
          "section": "intro"
        },
        {
          "t": 27500,
          "type": "drum_hit",
          "pitch": 42,
          "duration_ms": 112,
          "velocity": 50,
          "beat_index": 220,
          "section": "intro"
        },
        {
          "t": 27750,
          "type": "drum_hit",
          "pitch": 42,
          "duration_ms": 112,
          "velocity": 50,
          "beat_index": 222,
          "section": "intro"
        },
        {
          "t": 28000,
          "type": "drum_hit",
          "pitch": 36,
          "duration_ms": 112,
          "velocity": 70,
          "beat_index": 224,
          "section": "intro"
        },
        {
          "t": 28000,
          "type": "drum_hit",
          "pitch": 42,
          "duration_ms": 112,
          "velocity": 50,
          "beat_index": 224,
          "section": "intro"
        },
        {
          "t": 28250,
          "type": "drum_hit",
          "pitch": 42,
          "duration_ms": 112,
          "velocity": 50,
          "beat_index": 226,
          "section": "intro"
        },
        {
          "t": 28500,
          "type": "drum_hit",
          "pitch": 36,
          "duration_ms": 112,
          "velocity": 70,
          "beat_index": 228,
          "section": "intro"
        },
        {
          "t": 28500,
          "type": "drum_hit",
          "pitch": 38,
          "duration_ms": 112,
          "velocity": 60,
          "beat_index": 228,
          "section": "intro"
        },
        {
          "t": 28500,
          "type": "drum_hit",
          "pitch": 42,
          "duration_ms": 112,
          "velocity": 50,
          "beat_index": 228,
          "section": "intro"
        },
        {
          "t": 28750,
          "type": "drum_hit",
          "pitch": 42,
          "duration_ms": 112,
          "velocity": 50,
          "beat_index": 230,
          "section": "intro"
        },
        {
          "t": 29000,
          "type": "drum_hit",
          "pitch": 36,
          "duration_ms": 112,
          "velocity": 70,
          "beat_index": 232,
          "section": "intro"
        },
        {
          "t": 29000,
          "type": "drum_hit",
          "pitch": 42,
          "duration_ms": 112,
          "velocity": 50,
          "beat_index": 232,
          "section": "intro"
        },
        {
          "t": 29250,
          "type": "drum_hit",
          "pitch": 42,
          "duration_ms": 112,
          "velocity": 50,
          "beat_index": 234,
          "section": "intro"
        },
        {
          "t": 29500,
          "type": "drum_hit",
          "pitch": 36,
          "duration_ms": 112,
          "velocity": 70,
          "beat_index": 236,
          "section": "intro"
        },
        {
          "t": 29500,
          "type": "drum_hit",
          "pitch": 38,
          "duration_ms": 112,
          "velocity": 60,
          "beat_index": 236,
          "section": "intro"
        },
        {
          "t": 29500,
          "type": "drum_hit",
          "pitch": 42,
          "duration_ms": 112,
          "velocity": 50,
          "beat_index": 236,
          "section": "intro"
        },
        {
          "t": 29750,
          "type": "drum_hit",
          "pitch": 42,
          "duration_ms": 112,
          "velocity": 50,
          "beat_index": 238,
          "section": "intro"
        },
        {
          "t": 30000,
          "type": "drum_hit",
          "pitch": 36,
          "duration_ms": 112,
          "velocity": 70,
          "beat_index": 240,
          "section": "intro"
        },
        {
          "t": 30000,
          "type": "drum_hit",
          "pitch": 42,
          "duration_ms": 112,
          "velocity": 50,
          "beat_index": 240,
          "section": "intro"
        },
        {
          "t": 30250,
          "type": "drum_hit",
          "pitch": 42,
          "duration_ms": 112,
          "velocity": 50,
          "beat_index": 242,
          "section": "intro"
        },
        {
          "t": 30500,
          "type": "drum_hit",
          "pitch": 36,
          "duration_ms": 112,
          "velocity": 70,
          "beat_index": 244,
          "section": "intro"
        },
        {
          "t": 30500,
          "type": "drum_hit",
          "pitch": 38,
          "duration_ms": 112,
          "velocity": 60,
          "beat_index": 244,
          "section": "intro"
        },
        {
          "t": 30500,
          "type": "drum_hit",
          "pitch": 42,
          "duration_ms": 112,
          "velocity": 50,
          "beat_index": 244,
          "section": "intro"
        },
        {
          "t": 30750,
          "type": "drum_hit",
          "pitch": 42,
          "duration_ms": 112,
          "velocity": 50,
          "beat_index": 246,
          "section": "intro"
        },
        {
          "t": 31000,
          "type": "drum_hit",
          "pitch": 36,
          "duration_ms": 112,
          "velocity": 70,
          "beat_index": 248,
          "section": "intro"
        },
        {
          "t": 31000,
          "type": "drum_hit",
          "pitch": 42,
          "duration_ms": 112,
          "velocity": 50,
          "beat_index": 248,
          "section": "intro"
        },
        {
          "t": 31250,
          "type": "drum_hit",
          "pitch": 42,
          "duration_ms": 112,
          "velocity": 50,
          "beat_index": 250,
          "section": "intro"
        },
        {
          "t": 31500,
          "type": "drum_hit",
          "pitch": 36,
          "duration_ms": 112,
          "velocity": 70,
          "beat_index": 252,
          "section": "intro"
        },
        {
          "t": 31500,
          "type": "drum_hit",
          "pitch": 38,
          "duration_ms": 112,
          "velocity": 60,
          "beat_index": 252,
          "section": "intro"
        },
        {
          "t": 31500,
          "type": "drum_hit",
          "pitch": 42,
          "duration_ms": 112,
          "velocity": 50,
          "beat_index": 252,
          "section": "intro"
        },
        {
          "t": 31750,
          "type": "drum_hit",
          "pitch": 42,
          "duration_ms": 112,
          "velocity": 50,
          "beat_index": 254,
          "section": "intro"
        },
        {
          "t": 32000,
          "type": "drum_hit",
          "pitch": 36,
          "duration_ms": 112,
          "velocity": 80,
          "beat_index": 256,
          "section": "verse"
        },
        {
          "t": 32000,
          "type": "drum_hit",
          "pitch": 42,
          "duration_ms": 112,
          "velocity": 60,
          "beat_index": 256,
          "section": "verse"
        },
        {
          "t": 32250,
          "type": "drum_hit",
          "pitch": 42,
          "duration_ms": 112,
          "velocity": 60,
          "beat_index": 258,
          "section": "verse"
        },
        {
          "t": 32500,
          "type": "drum_hit",
          "pitch": 36,
          "duration_ms": 112,
          "velocity": 80,
          "beat_index": 260,
          "section": "verse"
        },
        {
          "t": 32500,
          "type": "drum_hit",
          "pitch": 38,
          "duration_ms": 112,
          "velocity": 70,
          "beat_index": 260,
          "section": "verse"
        },
        {
          "t": 32500,
          "type": "drum_hit",
          "pitch": 42,
          "duration_ms": 112,
          "velocity": 60,
          "beat_index": 260,
          "section": "verse"
        },
        {
          "t": 32750,
          "type": "drum_hit",
          "pitch": 42,
          "duration_ms": 112,
          "velocity": 60,
          "beat_index": 262,
          "section": "verse"
        },
        {
          "t": 33000,
          "type": "drum_hit",
          "pitch": 36,
          "duration_ms": 112,
          "velocity": 80,
          "beat_index": 264,
          "section": "verse"
        },
        {
          "t": 33000,
          "type": "drum_hit",
          "pitch": 42,
          "duration_ms": 112,
          "velocity": 60,
          "beat_index": 264,
          "section": "verse"
        },
        {
          "t": 33250,
          "type": "drum_hit",
          "pitch": 42,
          "duration_ms": 112,
          "velocity": 60,
          "beat_index": 266,
          "section": "verse"
        },
        {
          "t": 33500,
          "type": "drum_hit",
          "pitch": 36,
          "duration_ms": 112,
          "velocity": 80,
          "beat_index": 268,
          "section": "verse"
        },
        {
          "t": 33500,
          "type": "drum_hit",
          "pitch": 38,
          "duration_ms": 112,
          "velocity": 70,
          "beat_index": 268,
          "section": "verse"
        },
        {
          "t": 33500,
          "type": "drum_hit",
          "pitch": 42,
          "duration_ms": 112,
          "velocity": 60,
          "beat_index": 268,
          "section": "verse"
        },
        {
          "t": 33750,
          "type": "drum_hit",
          "pitch": 42,
          "duration_ms": 112,
          "velocity": 60,
          "beat_index": 270,
          "section": "verse"
        },
        {
          "t": 34000,
          "type": "drum_hit",
          "pitch": 36,
          "duration_ms": 112,
          "velocity": 80,
          "beat_index": 272,
          "section": "verse"
        },
        {
          "t": 34000,
          "type": "drum_hit",
          "pitch": 42,
          "duration_ms": 112,
          "velocity": 60,
          "beat_index": 272,
          "section": "verse"
        },
        {
          "t": 34250,
          "type": "drum_hit",
          "pitch": 42,
          "duration_ms": 112,
          "velocity": 60,
          "beat_index": 274,
          "section": "verse"
        },
        {
          "t": 34500,
          "type": "drum_hit",
          "pitch": 36,
          "duration_ms": 112,
          "velocity": 80,
          "beat_index": 276,
          "section": "verse"
        },
        {
          "t": 34500,
          "type": "drum_hit",
          "pitch": 38,
          "duration_ms": 112,
          "velocity": 70,
          "beat_index": 276,
          "section": "verse"
        },
        {
          "t": 34500,
          "type": "drum_hit",
          "pitch": 42,
          "duration_ms": 112,
          "velocity": 60,
          "beat_index": 276,
          "section": "verse"
        },
        {
          "t": 34750,
          "type": "drum_hit",
          "pitch": 42,
          "duration_ms": 112,
          "velocity": 60,
          "beat_index": 278,
          "section": "verse"
        },
        {
          "t": 35000,
          "type": "drum_hit",
          "pitch": 36,
          "duration_ms": 112,
          "velocity": 80,
          "beat_index": 280,
          "section": "verse"
        },
        {
          "t": 35000,
          "type": "drum_hit",
          "pitch": 42,
          "duration_ms": 112,
          "velocity": 60,
          "beat_index": 280,
          "section": "verse"
        },
        {
          "t": 35250,
          "type": "drum_hit",
          "pitch": 42,
          "duration_ms": 112,
          "velocity": 60,
          "beat_index": 282,
          "section": "verse"
        },
        {
          "t": 35500,
          "type": "drum_hit",
          "pitch": 36,
          "duration_ms": 112,
          "velocity": 80,
          "beat_index": 284,
          "section": "verse"
        },
        {
          "t": 35500,
          "type": "drum_hit",
          "pitch": 38,
          "duration_ms": 112,
          "velocity": 70,
          "beat_index": 284,
          "section": "verse"
        },
        {
          "t": 35500,
          "type": "drum_hit",
          "pitch": 42,
          "duration_ms": 112,
          "velocity": 60,
          "beat_index": 284,
          "section": "verse"
        },
        {
          "t": 35750,
          "type": "drum_hit",
          "pitch": 42,
          "duration_ms": 112,
          "velocity": 60,
          "beat_index": 286,
          "section": "verse"
        },
        {
          "t": 36000,
          "type": "drum_hit",
          "pitch": 36,
          "duration_ms": 112,
          "velocity": 80,
          "beat_index": 288,
          "section": "verse"
        },
        {
          "t": 36000,
          "type": "drum_hit",
          "pitch": 42,
          "duration_ms": 112,
          "velocity": 60,
          "beat_index": 288,
          "section": "verse"
        },
        {
          "t": 36250,
          "type": "drum_hit",
          "pitch": 42,
          "duration_ms": 112,
          "velocity": 60,
          "beat_index": 290,
          "section": "verse"
        },
        {
          "t": 36500,
          "type": "drum_hit",
          "pitch": 36,
          "duration_ms": 112,
          "velocity": 80,
          "beat_index": 292,
          "section": "verse"
        },
        {
          "t": 36500,
          "type": "drum_hit",
          "pitch": 38,
          "duration_ms": 112,
          "velocity": 70,
          "beat_index": 292,
          "section": "verse"
        },
        {
          "t": 36500,
          "type": "drum_hit",
          "pitch": 42,
          "duration_ms": 112,
          "velocity": 60,
          "beat_index": 292,
          "section": "verse"
        },
        {
          "t": 36750,
          "type": "drum_hit",
          "pitch": 42,
          "duration_ms": 112,
          "velocity": 60,
          "beat_index": 294,
          "section": "verse"
        },
        {
          "t": 37000,
          "type": "drum_hit",
          "pitch": 36,
          "duration_ms": 112,
          "velocity": 80,
          "beat_index": 296,
          "section": "verse"
        },
        {
          "t": 37000,
          "type": "drum_hit",
          "pitch": 42,
          "duration_ms": 112,
          "velocity": 60,
          "beat_index": 296,
          "section": "verse"
        },
        {
          "t": 37250,
          "type": "drum_hit",
          "pitch": 42,
          "duration_ms": 112,
          "velocity": 60,
          "beat_index": 298,
          "section": "verse"
        },
        {
          "t": 37500,
          "type": "drum_hit",
          "pitch": 36,
          "duration_ms": 112,
          "velocity": 80,
          "beat_index": 300,
          "section": "verse"
        },
        {
          "t": 37500,
          "type": "drum_hit",
          "pitch": 38,
          "duration_ms": 112,
          "velocity": 70,
          "beat_index": 300,
          "section": "verse"
        },
        {
          "t": 37500,
          "type": "drum_hit",
          "pitch": 42,
          "duration_ms": 112,
          "velocity": 60,
          "beat_index": 300,
          "section": "verse"
        },
        {
          "t": 37750,
          "type": "drum_hit",
          "pitch": 42,
          "duration_ms": 112,
          "velocity": 60,
          "beat_index": 302,
          "section": "verse"
        },
        {
          "t": 38000,
          "type": "drum_hit",
          "pitch": 36,
          "duration_ms": 112,
          "velocity": 80,
          "beat_index": 304,
          "section": "verse"
        },
        {
          "t": 38000,
          "type": "drum_hit",
          "pitch": 42,
          "duration_ms": 112,
          "velocity": 60,
          "beat_index": 304,
          "section": "verse"
        },
        {
          "t": 38250,
          "type": "drum_hit",
          "pitch": 42,
          "duration_ms": 112,
          "velocity": 60,
          "beat_index": 306,
          "section": "verse"
        },
        {
          "t": 38500,
          "type": "drum_hit",
          "pitch": 36,
          "duration_ms": 112,
          "velocity": 80,
          "beat_index": 308,
          "section": "verse"
        },
        {
          "t": 38500,
          "type": "drum_hit",
          "pitch": 38,
          "duration_ms": 112,
          "velocity": 70,
          "beat_index": 308,
          "section": "verse"
        },
        {
          "t": 38500,
          "type": "drum_hit",
          "pitch": 42,
          "duration_ms": 112,
          "velocity": 60,
          "beat_index": 308,
          "section": "verse"
        },
        {
          "t": 38750,
          "type": "drum_hit",
          "pitch": 42,
          "duration_ms": 112,
          "velocity": 60,
          "beat_index": 310,
          "section": "verse"
        },
        {
          "t": 39000,
          "type": "drum_hit",
          "pitch": 36,
          "duration_ms": 112,
          "velocity": 80,
          "beat_index": 312,
          "section": "verse"
        },
        {
          "t": 39000,
          "type": "drum_hit",
          "pitch": 42,
          "duration_ms": 112,
          "velocity": 60,
          "beat_index": 312,
          "section": "verse"
        },
        {
          "t": 39250,
          "type": "drum_hit",
          "pitch": 42,
          "duration_ms": 112,
          "velocity": 60,
          "beat_index": 314,
          "section": "verse"
        },
        {
          "t": 39500,
          "type": "drum_hit",
          "pitch": 36,
          "duration_ms": 112,
          "velocity": 80,
          "beat_index": 316,
          "section": "verse"
        },
        {
          "t": 39500,
          "type": "drum_hit",
          "pitch": 38,
          "duration_ms": 112,
          "velocity": 70,
          "beat_index": 316,
          "section": "verse"
        },
        {
          "t": 39500,
          "type": "drum_hit",
          "pitch": 42,
          "duration_ms": 112,
          "velocity": 60,
          "beat_index": 316,
          "section": "verse"
        },
        {
          "t": 39750,
          "type": "drum_hit",
          "pitch": 42,
          "duration_ms": 112,
          "velocity": 60,
          "beat_index": 318,
          "section": "verse"
        },
        {
          "t": 40000,
          "type": "drum_hit",
          "pitch": 36,
          "duration_ms": 112,
          "velocity": 80,
          "beat_index": 320,
          "section": "verse"
        },
        {
          "t": 40000,
          "type": "drum_hit",
          "pitch": 42,
          "duration_ms": 112,
          "velocity": 60,
          "beat_index": 320,
          "section": "verse"
        },
        {
          "t": 40250,
          "type": "drum_hit",
          "pitch": 42,
          "duration_ms": 112,
          "velocity": 60,
          "beat_index": 322,
          "section": "verse"
        },
        {
          "t": 40500,
          "type": "drum_hit",
          "pitch": 36,
          "duration_ms": 112,
          "velocity": 80,
          "beat_index": 324,
          "section": "verse"
        },
        {
          "t": 40500,
          "type": "drum_hit",
          "pitch": 38,
          "duration_ms": 112,
          "velocity": 70,
          "beat_index": 324,
          "section": "verse"
        },
        {
          "t": 40500,
          "type": "drum_hit",
          "pitch": 42,
          "duration_ms": 112,
          "velocity": 60,
          "beat_index": 324,
          "section": "verse"
        },
        {
          "t": 40750,
          "type": "drum_hit",
          "pitch": 42,
          "duration_ms": 112,
          "velocity": 60,
          "beat_index": 326,
          "section": "verse"
        },
        {
          "t": 41000,
          "type": "drum_hit",
          "pitch": 36,
          "duration_ms": 112,
          "velocity": 80,
          "beat_index": 328,
          "section": "verse"
        },
        {
          "t": 41000,
          "type": "drum_hit",
          "pitch": 42,
          "duration_ms": 112,
          "velocity": 60,
          "beat_index": 328,
          "section": "verse"
        },
        {
          "t": 41250,
          "type": "drum_hit",
          "pitch": 42,
          "duration_ms": 112,
          "velocity": 60,
          "beat_index": 330,
          "section": "verse"
        },
        {
          "t": 41500,
          "type": "drum_hit",
          "pitch": 36,
          "duration_ms": 112,
          "velocity": 80,
          "beat_index": 332,
          "section": "verse"
        },
        {
          "t": 41500,
          "type": "drum_hit",
          "pitch": 38,
          "duration_ms": 112,
          "velocity": 70,
          "beat_index": 332,
          "section": "verse"
        },
        {
          "t": 41500,
          "type": "drum_hit",
          "pitch": 42,
          "duration_ms": 112,
          "velocity": 60,
          "beat_index": 332,
          "section": "verse"
        },
        {
          "t": 41750,
          "type": "drum_hit",
          "pitch": 42,
          "duration_ms": 112,
          "velocity": 60,
          "beat_index": 334,
          "section": "verse"
        },
        {
          "t": 42000,
          "type": "drum_hit",
          "pitch": 36,
          "duration_ms": 112,
          "velocity": 80,
          "beat_index": 336,
          "section": "verse"
        },
        {
          "t": 42000,
          "type": "drum_hit",
          "pitch": 42,
          "duration_ms": 112,
          "velocity": 60,
          "beat_index": 336,
          "section": "verse"
        },
        {
          "t": 42250,
          "type": "drum_hit",
          "pitch": 42,
          "duration_ms": 112,
          "velocity": 60,
          "beat_index": 338,
          "section": "verse"
        },
        {
          "t": 42500,
          "type": "drum_hit",
          "pitch": 36,
          "duration_ms": 112,
          "velocity": 80,
          "beat_index": 340,
          "section": "verse"
        },
        {
          "t": 42500,
          "type": "drum_hit",
          "pitch": 38,
          "duration_ms": 112,
          "velocity": 70,
          "beat_index": 340,
          "section": "verse"
        },
        {
          "t": 42500,
          "type": "drum_hit",
          "pitch": 42,
          "duration_ms": 112,
          "velocity": 60,
          "beat_index": 340,
          "section": "verse"
        },
        {
          "t": 42750,
          "type": "drum_hit",
          "pitch": 42,
          "duration_ms": 112,
          "velocity": 60,
          "beat_index": 342,
          "section": "verse"
        },
        {
          "t": 43000,
          "type": "drum_hit",
          "pitch": 36,
          "duration_ms": 112,
          "velocity": 80,
          "beat_index": 344,
          "section": "verse"
        },
        {
          "t": 43000,
          "type": "drum_hit",
          "pitch": 42,
          "duration_ms": 112,
          "velocity": 60,
          "beat_index": 344,
          "section": "verse"
        },
        {
          "t": 43250,
          "type": "drum_hit",
          "pitch": 42,
          "duration_ms": 112,
          "velocity": 60,
          "beat_index": 346,
          "section": "verse"
        },
        {
          "t": 43500,
          "type": "drum_hit",
          "pitch": 36,
          "duration_ms": 112,
          "velocity": 80,
          "beat_index": 348,
          "section": "verse"
        },
        {
          "t": 43500,
          "type": "drum_hit",
          "pitch": 38,
          "duration_ms": 112,
          "velocity": 70,
          "beat_index": 348,
          "section": "verse"
        },
        {
          "t": 43500,
          "type": "drum_hit",
          "pitch": 42,
          "duration_ms": 112,
          "velocity": 60,
          "beat_index": 348,
          "section": "verse"
        },
        {
          "t": 43750,
          "type": "drum_hit",
          "pitch": 42,
          "duration_ms": 112,
          "velocity": 60,
          "beat_index": 350,
          "section": "verse"
        },
        {
          "t": 44000,
          "type": "drum_hit",
          "pitch": 36,
          "duration_ms": 112,
          "velocity": 80,
          "beat_index": 352,
          "section": "verse"
        },
        {
          "t": 44000,
          "type": "drum_hit",
          "pitch": 42,
          "duration_ms": 112,
          "velocity": 60,
          "beat_index": 352,
          "section": "verse"
        },
        {
          "t": 44250,
          "type": "drum_hit",
          "pitch": 42,
          "duration_ms": 112,
          "velocity": 60,
          "beat_index": 354,
          "section": "verse"
        },
        {
          "t": 44500,
          "type": "drum_hit",
          "pitch": 36,
          "duration_ms": 112,
          "velocity": 80,
          "beat_index": 356,
          "section": "verse"
        },
        {
          "t": 44500,
          "type": "drum_hit",
          "pitch": 38,
          "duration_ms": 112,
          "velocity": 70,
          "beat_index": 356,
          "section": "verse"
        },
        {
          "t": 44500,
          "type": "drum_hit",
          "pitch": 42,
          "duration_ms": 112,
          "velocity": 60,
          "beat_index": 356,
          "section": "verse"
        },
        {
          "t": 44750,
          "type": "drum_hit",
          "pitch": 42,
          "duration_ms": 112,
          "velocity": 60,
          "beat_index": 358,
          "section": "verse"
        },
        {
          "t": 45000,
          "type": "drum_hit",
          "pitch": 36,
          "duration_ms": 112,
          "velocity": 80,
          "beat_index": 360,
          "section": "verse"
        },
        {
          "t": 45000,
          "type": "drum_hit",
          "pitch": 42,
          "duration_ms": 112,
          "velocity": 60,
          "beat_index": 360,
          "section": "verse"
        },
        {
          "t": 45250,
          "type": "drum_hit",
          "pitch": 42,
          "duration_ms": 112,
          "velocity": 60,
          "beat_index": 362,
          "section": "verse"
        },
        {
          "t": 45500,
          "type": "drum_hit",
          "pitch": 36,
          "duration_ms": 112,
          "velocity": 80,
          "beat_index": 364,
          "section": "verse"
        },
        {
          "t": 45500,
          "type": "drum_hit",
          "pitch": 38,
          "duration_ms": 112,
          "velocity": 70,
          "beat_index": 364,
          "section": "verse"
        },
        {
          "t": 45500,
          "type": "drum_hit",
          "pitch": 42,
          "duration_ms": 112,
          "velocity": 60,
          "beat_index": 364,
          "section": "verse"
        },
        {
          "t": 45750,
          "type": "drum_hit",
          "pitch": 42,
          "duration_ms": 112,
          "velocity": 60,
          "beat_index": 366,
          "section": "verse"
        },
        {
          "t": 46000,
          "type": "drum_hit",
          "pitch": 36,
          "duration_ms": 112,
          "velocity": 80,
          "beat_index": 368,
          "section": "verse"
        },
        {
          "t": 46000,
          "type": "drum_hit",
          "pitch": 42,
          "duration_ms": 112,
          "velocity": 60,
          "beat_index": 368,
          "section": "verse"
        },
        {
          "t": 46250,
          "type": "drum_hit",
          "pitch": 42,
          "duration_ms": 112,
          "velocity": 60,
          "beat_index": 370,
          "section": "verse"
        },
        {
          "t": 46500,
          "type": "drum_hit",
          "pitch": 36,
          "duration_ms": 112,
          "velocity": 80,
          "beat_index": 372,
          "section": "verse"
        },
        {
          "t": 46500,
          "type": "drum_hit",
          "pitch": 38,
          "duration_ms": 112,
          "velocity": 70,
          "beat_index": 372,
          "section": "verse"
        },
        {
          "t": 46500,
          "type": "drum_hit",
          "pitch": 42,
          "duration_ms": 112,
          "velocity": 60,
          "beat_index": 372,
          "section": "verse"
        },
        {
          "t": 46750,
          "type": "drum_hit",
          "pitch": 42,
          "duration_ms": 112,
          "velocity": 60,
          "beat_index": 374,
          "section": "verse"
        },
        {
          "t": 47000,
          "type": "drum_hit",
          "pitch": 36,
          "duration_ms": 112,
          "velocity": 80,
          "beat_index": 376,
          "section": "verse"
        },
        {
          "t": 47000,
          "type": "drum_hit",
          "pitch": 42,
          "duration_ms": 112,
          "velocity": 60,
          "beat_index": 376,
          "section": "verse"
        },
        {
          "t": 47250,
          "type": "drum_hit",
          "pitch": 42,
          "duration_ms": 112,
          "velocity": 60,
          "beat_index": 378,
          "section": "verse"
        },
        {
          "t": 47500,
          "type": "drum_hit",
          "pitch": 36,
          "duration_ms": 112,
          "velocity": 80,
          "beat_index": 380,
          "section": "verse"
        },
        {
          "t": 47500,
          "type": "drum_hit",
          "pitch": 38,
          "duration_ms": 112,
          "velocity": 70,
          "beat_index": 380,
          "section": "verse"
        },
        {
          "t": 47500,
          "type": "drum_hit",
          "pitch": 42,
          "duration_ms": 112,
          "velocity": 60,
          "beat_index": 380,
          "section": "verse"
        },
        {
          "t": 47750,
          "type": "drum_hit",
          "pitch": 42,
          "duration_ms": 112,
          "velocity": 60,
          "beat_index": 382,
          "section": "verse"
        },
        {
          "t": 48000,
          "type": "drum_hit",
          "pitch": 36,
          "duration_ms": 112,
          "velocity": 80,
          "beat_index": 384,
          "section": "verse"
        },
        {
          "t": 48000,
          "type": "drum_hit",
          "pitch": 42,
          "duration_ms": 112,
          "velocity": 60,
          "beat_index": 384,
          "section": "verse"
        },
        {
          "t": 48250,
          "type": "drum_hit",
          "pitch": 42,
          "duration_ms": 112,
          "velocity": 60,
          "beat_index": 386,
          "section": "verse"
        },
        {
          "t": 48500,
          "type": "drum_hit",
          "pitch": 36,
          "duration_ms": 112,
          "velocity": 80,
          "beat_index": 388,
          "section": "verse"
        },
        {
          "t": 48500,
          "type": "drum_hit",
          "pitch": 38,
          "duration_ms": 112,
          "velocity": 70,
          "beat_index": 388,
          "section": "verse"
        },
        {
          "t": 48500,
          "type": "drum_hit",
          "pitch": 42,
          "duration_ms": 112,
          "velocity": 60,
          "beat_index": 388,
          "section": "verse"
        },
        {
          "t": 48750,
          "type": "drum_hit",
          "pitch": 42,
          "duration_ms": 112,
          "velocity": 60,
          "beat_index": 390,
          "section": "verse"
        },
        {
          "t": 49000,
          "type": "drum_hit",
          "pitch": 36,
          "duration_ms": 112,
          "velocity": 80,
          "beat_index": 392,
          "section": "verse"
        },
        {
          "t": 49000,
          "type": "drum_hit",
          "pitch": 42,
          "duration_ms": 112,
          "velocity": 60,
          "beat_index": 392,
          "section": "verse"
        },
        {
          "t": 49250,
          "type": "drum_hit",
          "pitch": 42,
          "duration_ms": 112,
          "velocity": 60,
          "beat_index": 394,
          "section": "verse"
        },
        {
          "t": 49500,
          "type": "drum_hit",
          "pitch": 36,
          "duration_ms": 112,
          "velocity": 80,
          "beat_index": 396,
          "section": "verse"
        },
        {
          "t": 49500,
          "type": "drum_hit",
          "pitch": 38,
          "duration_ms": 112,
          "velocity": 70,
          "beat_index": 396,
          "section": "verse"
        },
        {
          "t": 49500,
          "type": "drum_hit",
          "pitch": 42,
          "duration_ms": 112,
          "velocity": 60,
          "beat_index": 396,
          "section": "verse"
        },
        {
          "t": 49750,
          "type": "drum_hit",
          "pitch": 42,
          "duration_ms": 112,
          "velocity": 60,
          "beat_index": 398,
          "section": "verse"
        },
        {
          "t": 50000,
          "type": "drum_hit",
          "pitch": 36,
          "duration_ms": 112,
          "velocity": 80,
          "beat_index": 400,
          "section": "verse"
        },
        {
          "t": 50000,
          "type": "drum_hit",
          "pitch": 42,
          "duration_ms": 112,
          "velocity": 60,
          "beat_index": 400,
          "section": "verse"
        },
        {
          "t": 50250,
          "type": "drum_hit",
          "pitch": 42,
          "duration_ms": 112,
          "velocity": 60,
          "beat_index": 402,
          "section": "verse"
        },
        {
          "t": 50500,
          "type": "drum_hit",
          "pitch": 36,
          "duration_ms": 112,
          "velocity": 80,
          "beat_index": 404,
          "section": "verse"
        },
        {
          "t": 50500,
          "type": "drum_hit",
          "pitch": 38,
          "duration_ms": 112,
          "velocity": 70,
          "beat_index": 404,
          "section": "verse"
        },
        {
          "t": 50500,
          "type": "drum_hit",
          "pitch": 42,
          "duration_ms": 112,
          "velocity": 60,
          "beat_index": 404,
          "section": "verse"
        },
        {
          "t": 50750,
          "type": "drum_hit",
          "pitch": 42,
          "duration_ms": 112,
          "velocity": 60,
          "beat_index": 406,
          "section": "verse"
        },
        {
          "t": 51000,
          "type": "drum_hit",
          "pitch": 36,
          "duration_ms": 112,
          "velocity": 80,
          "beat_index": 408,
          "section": "verse"
        },
        {
          "t": 51000,
          "type": "drum_hit",
          "pitch": 42,
          "duration_ms": 112,
          "velocity": 60,
          "beat_index": 408,
          "section": "verse"
        },
        {
          "t": 51250,
          "type": "drum_hit",
          "pitch": 42,
          "duration_ms": 112,
          "velocity": 60,
          "beat_index": 410,
          "section": "verse"
        },
        {
          "t": 51500,
          "type": "drum_hit",
          "pitch": 36,
          "duration_ms": 112,
          "velocity": 80,
          "beat_index": 412,
          "section": "verse"
        },
        {
          "t": 51500,
          "type": "drum_hit",
          "pitch": 38,
          "duration_ms": 112,
          "velocity": 70,
          "beat_index": 412,
          "section": "verse"
        },
        {
          "t": 51500,
          "type": "drum_hit",
          "pitch": 42,
          "duration_ms": 112,
          "velocity": 60,
          "beat_index": 412,
          "section": "verse"
        },
        {
          "t": 51750,
          "type": "drum_hit",
          "pitch": 42,
          "duration_ms": 112,
          "velocity": 60,
          "beat_index": 414,
          "section": "verse"
        },
        {
          "t": 52000,
          "type": "drum_hit",
          "pitch": 36,
          "duration_ms": 112,
          "velocity": 80,
          "beat_index": 416,
          "section": "verse"
        },
        {
          "t": 52000,
          "type": "drum_hit",
          "pitch": 42,
          "duration_ms": 112,
          "velocity": 60,
          "beat_index": 416,
          "section": "verse"
        },
        {
          "t": 52250,
          "type": "drum_hit",
          "pitch": 42,
          "duration_ms": 112,
          "velocity": 60,
          "beat_index": 418,
          "section": "verse"
        },
        {
          "t": 52500,
          "type": "drum_hit",
          "pitch": 36,
          "duration_ms": 112,
          "velocity": 80,
          "beat_index": 420,
          "section": "verse"
        },
        {
          "t": 52500,
          "type": "drum_hit",
          "pitch": 38,
          "duration_ms": 112,
          "velocity": 70,
          "beat_index": 420,
          "section": "verse"
        },
        {
          "t": 52500,
          "type": "drum_hit",
          "pitch": 42,
          "duration_ms": 112,
          "velocity": 60,
          "beat_index": 420,
          "section": "verse"
        },
        {
          "t": 52750,
          "type": "drum_hit",
          "pitch": 42,
          "duration_ms": 112,
          "velocity": 60,
          "beat_index": 422,
          "section": "verse"
        },
        {
          "t": 53000,
          "type": "drum_hit",
          "pitch": 36,
          "duration_ms": 112,
          "velocity": 80,
          "beat_index": 424,
          "section": "verse"
        },
        {
          "t": 53000,
          "type": "drum_hit",
          "pitch": 42,
          "duration_ms": 112,
          "velocity": 60,
          "beat_index": 424,
          "section": "verse"
        },
        {
          "t": 53250,
          "type": "drum_hit",
          "pitch": 42,
          "duration_ms": 112,
          "velocity": 60,
          "beat_index": 426,
          "section": "verse"
        },
        {
          "t": 53500,
          "type": "drum_hit",
          "pitch": 36,
          "duration_ms": 112,
          "velocity": 80,
          "beat_index": 428,
          "section": "verse"
        },
        {
          "t": 53500,
          "type": "drum_hit",
          "pitch": 38,
          "duration_ms": 112,
          "velocity": 70,
          "beat_index": 428,
          "section": "verse"
        },
        {
          "t": 53500,
          "type": "drum_hit",
          "pitch": 42,
          "duration_ms": 112,
          "velocity": 60,
          "beat_index": 428,
          "section": "verse"
        },
        {
          "t": 53750,
          "type": "drum_hit",
          "pitch": 42,
          "duration_ms": 112,
          "velocity": 60,
          "beat_index": 430,
          "section": "verse"
        },
        {
          "t": 54000,
          "type": "drum_hit",
          "pitch": 36,
          "duration_ms": 112,
          "velocity": 80,
          "beat_index": 432,
          "section": "verse"
        },
        {
          "t": 54000,
          "type": "drum_hit",
          "pitch": 42,
          "duration_ms": 112,
          "velocity": 60,
          "beat_index": 432,
          "section": "verse"
        },
        {
          "t": 54250,
          "type": "drum_hit",
          "pitch": 42,
          "duration_ms": 112,
          "velocity": 60,
          "beat_index": 434,
          "section": "verse"
        },
        {
          "t": 54500,
          "type": "drum_hit",
          "pitch": 36,
          "duration_ms": 112,
          "velocity": 80,
          "beat_index": 436,
          "section": "verse"
        },
        {
          "t": 54500,
          "type": "drum_hit",
          "pitch": 38,
          "duration_ms": 112,
          "velocity": 70,
          "beat_index": 436,
          "section": "verse"
        },
        {
          "t": 54500,
          "type": "drum_hit",
          "pitch": 42,
          "duration_ms": 112,
          "velocity": 60,
          "beat_index": 436,
          "section": "verse"
        },
        {
          "t": 54750,
          "type": "drum_hit",
          "pitch": 42,
          "duration_ms": 112,
          "velocity": 60,
          "beat_index": 438,
          "section": "verse"
        },
        {
          "t": 55000,
          "type": "drum_hit",
          "pitch": 36,
          "duration_ms": 112,
          "velocity": 80,
          "beat_index": 440,
          "section": "verse"
        },
        {
          "t": 55000,
          "type": "drum_hit",
          "pitch": 42,
          "duration_ms": 112,
          "velocity": 60,
          "beat_index": 440,
          "section": "verse"
        },
        {
          "t": 55250,
          "type": "drum_hit",
          "pitch": 42,
          "duration_ms": 112,
          "velocity": 60,
          "beat_index": 442,
          "section": "verse"
        },
        {
          "t": 55500,
          "type": "drum_hit",
          "pitch": 36,
          "duration_ms": 112,
          "velocity": 80,
          "beat_index": 444,
          "section": "verse"
        },
        {
          "t": 55500,
          "type": "drum_hit",
          "pitch": 38,
          "duration_ms": 112,
          "velocity": 70,
          "beat_index": 444,
          "section": "verse"
        },
        {
          "t": 55500,
          "type": "drum_hit",
          "pitch": 42,
          "duration_ms": 112,
          "velocity": 60,
          "beat_index": 444,
          "section": "verse"
        },
        {
          "t": 55750,
          "type": "drum_hit",
          "pitch": 42,
          "duration_ms": 112,
          "velocity": 60,
          "beat_index": 446,
          "section": "verse"
        },
        {
          "t": 56000,
          "type": "drum_hit",
          "pitch": 36,
          "duration_ms": 112,
          "velocity": 80,
          "beat_index": 448,
          "section": "verse"
        },
        {
          "t": 56000,
          "type": "drum_hit",
          "pitch": 42,
          "duration_ms": 112,
          "velocity": 60,
          "beat_index": 448,
          "section": "verse"
        },
        {
          "t": 56250,
          "type": "drum_hit",
          "pitch": 42,
          "duration_ms": 112,
          "velocity": 60,
          "beat_index": 450,
          "section": "verse"
        },
        {
          "t": 56500,
          "type": "drum_hit",
          "pitch": 36,
          "duration_ms": 112,
          "velocity": 80,
          "beat_index": 452,
          "section": "verse"
        },
        {
          "t": 56500,
          "type": "drum_hit",
          "pitch": 38,
          "duration_ms": 112,
          "velocity": 70,
          "beat_index": 452,
          "section": "verse"
        },
        {
          "t": 56500,
          "type": "drum_hit",
          "pitch": 42,
          "duration_ms": 112,
          "velocity": 60,
          "beat_index": 452,
          "section": "verse"
        },
        {
          "t": 56750,
          "type": "drum_hit",
          "pitch": 42,
          "duration_ms": 112,
          "velocity": 60,
          "beat_index": 454,
          "section": "verse"
        },
        {
          "t": 57000,
          "type": "drum_hit",
          "pitch": 36,
          "duration_ms": 112,
          "velocity": 80,
          "beat_index": 456,
          "section": "verse"
        },
        {
          "t": 57000,
          "type": "drum_hit",
          "pitch": 42,
          "duration_ms": 112,
          "velocity": 60,
          "beat_index": 456,
          "section": "verse"
        },
        {
          "t": 57250,
          "type": "drum_hit",
          "pitch": 42,
          "duration_ms": 112,
          "velocity": 60,
          "beat_index": 458,
          "section": "verse"
        },
        {
          "t": 57500,
          "type": "drum_hit",
          "pitch": 36,
          "duration_ms": 112,
          "velocity": 80,
          "beat_index": 460,
          "section": "verse"
        },
        {
          "t": 57500,
          "type": "drum_hit",
          "pitch": 38,
          "duration_ms": 112,
          "velocity": 70,
          "beat_index": 460,
          "section": "verse"
        },
        {
          "t": 57500,
          "type": "drum_hit",
          "pitch": 42,
          "duration_ms": 112,
          "velocity": 60,
          "beat_index": 460,
          "section": "verse"
        },
        {
          "t": 57750,
          "type": "drum_hit",
          "pitch": 42,
          "duration_ms": 112,
          "velocity": 60,
          "beat_index": 462,
          "section": "verse"
        },
        {
          "t": 58000,
          "type": "drum_hit",
          "pitch": 36,
          "duration_ms": 112,
          "velocity": 80,
          "beat_index": 464,
          "section": "verse"
        },
        {
          "t": 58000,
          "type": "drum_hit",
          "pitch": 42,
          "duration_ms": 112,
          "velocity": 60,
          "beat_index": 464,
          "section": "verse"
        },
        {
          "t": 58250,
          "type": "drum_hit",
          "pitch": 42,
          "duration_ms": 112,
          "velocity": 60,
          "beat_index": 466,
          "section": "verse"
        },
        {
          "t": 58500,
          "type": "drum_hit",
          "pitch": 36,
          "duration_ms": 112,
          "velocity": 80,
          "beat_index": 468,
          "section": "verse"
        },
        {
          "t": 58500,
          "type": "drum_hit",
          "pitch": 38,
          "duration_ms": 112,
          "velocity": 70,
          "beat_index": 468,
          "section": "verse"
        },
        {
          "t": 58500,
          "type": "drum_hit",
          "pitch": 42,
          "duration_ms": 112,
          "velocity": 60,
          "beat_index": 468,
          "section": "verse"
        },
        {
          "t": 58750,
          "type": "drum_hit",
          "pitch": 42,
          "duration_ms": 112,
          "velocity": 60,
          "beat_index": 470,
          "section": "verse"
        },
        {
          "t": 59000,
          "type": "drum_hit",
          "pitch": 36,
          "duration_ms": 112,
          "velocity": 80,
          "beat_index": 472,
          "section": "verse"
        },
        {
          "t": 59000,
          "type": "drum_hit",
          "pitch": 42,
          "duration_ms": 112,
          "velocity": 60,
          "beat_index": 472,
          "section": "verse"
        },
        {
          "t": 59250,
          "type": "drum_hit",
          "pitch": 42,
          "duration_ms": 112,
          "velocity": 60,
          "beat_index": 474,
          "section": "verse"
        },
        {
          "t": 59500,
          "type": "drum_hit",
          "pitch": 36,
          "duration_ms": 112,
          "velocity": 80,
          "beat_index": 476,
          "section": "verse"
        },
        {
          "t": 59500,
          "type": "drum_hit",
          "pitch": 38,
          "duration_ms": 112,
          "velocity": 70,
          "beat_index": 476,
          "section": "verse"
        },
        {
          "t": 59500,
          "type": "drum_hit",
          "pitch": 42,
          "duration_ms": 112,
          "velocity": 60,
          "beat_index": 476,
          "section": "verse"
        },
        {
          "t": 59750,
          "type": "drum_hit",
          "pitch": 42,
          "duration_ms": 112,
          "velocity": 60,
          "beat_index": 478,
          "section": "verse"
        },
        {
          "t": 60000,
          "type": "drum_hit",
          "pitch": 36,
          "duration_ms": 112,
          "velocity": 80,
          "beat_index": 480,
          "section": "verse"
        },
        {
          "t": 60000,
          "type": "drum_hit",
          "pitch": 42,
          "duration_ms": 112,
          "velocity": 60,
          "beat_index": 480,
          "section": "verse"
        },
        {
          "t": 60250,
          "type": "drum_hit",
          "pitch": 42,
          "duration_ms": 112,
          "velocity": 60,
          "beat_index": 482,
          "section": "verse"
        },
        {
          "t": 60500,
          "type": "drum_hit",
          "pitch": 36,
          "duration_ms": 112,
          "velocity": 80,
          "beat_index": 484,
          "section": "verse"
        },
        {
          "t": 60500,
          "type": "drum_hit",
          "pitch": 38,
          "duration_ms": 112,
          "velocity": 70,
          "beat_index": 484,
          "section": "verse"
        },
        {
          "t": 60500,
          "type": "drum_hit",
          "pitch": 42,
          "duration_ms": 112,
          "velocity": 60,
          "beat_index": 484,
          "section": "verse"
        },
        {
          "t": 60750,
          "type": "drum_hit",
          "pitch": 42,
          "duration_ms": 112,
          "velocity": 60,
          "beat_index": 486,
          "section": "verse"
        },
        {
          "t": 61000,
          "type": "drum_hit",
          "pitch": 36,
          "duration_ms": 112,
          "velocity": 80,
          "beat_index": 488,
          "section": "verse"
        },
        {
          "t": 61000,
          "type": "drum_hit",
          "pitch": 42,
          "duration_ms": 112,
          "velocity": 60,
          "beat_index": 488,
          "section": "verse"
        },
        {
          "t": 61250,
          "type": "drum_hit",
          "pitch": 42,
          "duration_ms": 112,
          "velocity": 60,
          "beat_index": 490,
          "section": "verse"
        },
        {
          "t": 61500,
          "type": "drum_hit",
          "pitch": 36,
          "duration_ms": 112,
          "velocity": 80,
          "beat_index": 492,
          "section": "verse"
        },
        {
          "t": 61500,
          "type": "drum_hit",
          "pitch": 38,
          "duration_ms": 112,
          "velocity": 70,
          "beat_index": 492,
          "section": "verse"
        },
        {
          "t": 61500,
          "type": "drum_hit",
          "pitch": 42,
          "duration_ms": 112,
          "velocity": 60,
          "beat_index": 492,
          "section": "verse"
        },
        {
          "t": 61750,
          "type": "drum_hit",
          "pitch": 42,
          "duration_ms": 112,
          "velocity": 60,
          "beat_index": 494,
          "section": "verse"
        },
        {
          "t": 62000,
          "type": "drum_hit",
          "pitch": 36,
          "duration_ms": 112,
          "velocity": 80,
          "beat_index": 496,
          "section": "verse"
        },
        {
          "t": 62000,
          "type": "drum_hit",
          "pitch": 42,
          "duration_ms": 112,
          "velocity": 60,
          "beat_index": 496,
          "section": "verse"
        },
        {
          "t": 62250,
          "type": "drum_hit",
          "pitch": 42,
          "duration_ms": 112,
          "velocity": 60,
          "beat_index": 498,
          "section": "verse"
        },
        {
          "t": 62500,
          "type": "drum_hit",
          "pitch": 36,
          "duration_ms": 112,
          "velocity": 80,
          "beat_index": 500,
          "section": "verse"
        },
        {
          "t": 62500,
          "type": "drum_hit",
          "pitch": 38,
          "duration_ms": 112,
          "velocity": 70,
          "beat_index": 500,
          "section": "verse"
        },
        {
          "t": 62500,
          "type": "drum_hit",
          "pitch": 42,
          "duration_ms": 112,
          "velocity": 60,
          "beat_index": 500,
          "section": "verse"
        },
        {
          "t": 62750,
          "type": "drum_hit",
          "pitch": 42,
          "duration_ms": 112,
          "velocity": 60,
          "beat_index": 502,
          "section": "verse"
        },
        {
          "t": 63000,
          "type": "drum_hit",
          "pitch": 36,
          "duration_ms": 112,
          "velocity": 80,
          "beat_index": 504,
          "section": "verse"
        },
        {
          "t": 63000,
          "type": "drum_hit",
          "pitch": 42,
          "duration_ms": 112,
          "velocity": 60,
          "beat_index": 504,
          "section": "verse"
        },
        {
          "t": 63250,
          "type": "drum_hit",
          "pitch": 42,
          "duration_ms": 112,
          "velocity": 60,
          "beat_index": 506,
          "section": "verse"
        },
        {
          "t": 63500,
          "type": "drum_hit",
          "pitch": 36,
          "duration_ms": 112,
          "velocity": 80,
          "beat_index": 508,
          "section": "verse"
        },
        {
          "t": 63500,
          "type": "drum_hit",
          "pitch": 38,
          "duration_ms": 112,
          "velocity": 70,
          "beat_index": 508,
          "section": "verse"
        },
        {
          "t": 63500,
          "type": "drum_hit",
          "pitch": 42,
          "duration_ms": 112,
          "velocity": 60,
          "beat_index": 508,
          "section": "verse"
        },
        {
          "t": 63750,
          "type": "drum_hit",
          "pitch": 42,
          "duration_ms": 112,
          "velocity": 60,
          "beat_index": 510,
          "section": "verse"
        },
        {
          "t": 64000,
          "type": "drum_hit",
          "pitch": 36,
          "duration_ms": 112,
          "velocity": 80,
          "beat_index": 512,
          "section": "verse"
        },
        {
          "t": 64000,
          "type": "drum_hit",
          "pitch": 42,
          "duration_ms": 112,
          "velocity": 60,
          "beat_index": 512,
          "section": "verse"
        },
        {
          "t": 64250,
          "type": "drum_hit",
          "pitch": 42,
          "duration_ms": 112,
          "velocity": 60,
          "beat_index": 514,
          "section": "verse"
        },
        {
          "t": 64500,
          "type": "drum_hit",
          "pitch": 36,
          "duration_ms": 112,
          "velocity": 80,
          "beat_index": 516,
          "section": "verse"
        },
        {
          "t": 64500,
          "type": "drum_hit",
          "pitch": 38,
          "duration_ms": 112,
          "velocity": 70,
          "beat_index": 516,
          "section": "verse"
        },
        {
          "t": 64500,
          "type": "drum_hit",
          "pitch": 42,
          "duration_ms": 112,
          "velocity": 60,
          "beat_index": 516,
          "section": "verse"
        },
        {
          "t": 64750,
          "type": "drum_hit",
          "pitch": 42,
          "duration_ms": 112,
          "velocity": 60,
          "beat_index": 518,
          "section": "verse"
        },
        {
          "t": 65000,
          "type": "drum_hit",
          "pitch": 36,
          "duration_ms": 112,
          "velocity": 80,
          "beat_index": 520,
          "section": "verse"
        },
        {
          "t": 65000,
          "type": "drum_hit",
          "pitch": 42,
          "duration_ms": 112,
          "velocity": 60,
          "beat_index": 520,
          "section": "verse"
        },
        {
          "t": 65250,
          "type": "drum_hit",
          "pitch": 42,
          "duration_ms": 112,
          "velocity": 60,
          "beat_index": 522,
          "section": "verse"
        },
        {
          "t": 65500,
          "type": "drum_hit",
          "pitch": 36,
          "duration_ms": 112,
          "velocity": 80,
          "beat_index": 524,
          "section": "verse"
        },
        {
          "t": 65500,
          "type": "drum_hit",
          "pitch": 38,
          "duration_ms": 112,
          "velocity": 70,
          "beat_index": 524,
          "section": "verse"
        },
        {
          "t": 65500,
          "type": "drum_hit",
          "pitch": 42,
          "duration_ms": 112,
          "velocity": 60,
          "beat_index": 524,
          "section": "verse"
        },
        {
          "t": 65750,
          "type": "drum_hit",
          "pitch": 42,
          "duration_ms": 112,
          "velocity": 60,
          "beat_index": 526,
          "section": "verse"
        },
        {
          "t": 66000,
          "type": "drum_hit",
          "pitch": 36,
          "duration_ms": 112,
          "velocity": 80,
          "beat_index": 528,
          "section": "verse"
        },
        {
          "t": 66000,
          "type": "drum_hit",
          "pitch": 42,
          "duration_ms": 112,
          "velocity": 60,
          "beat_index": 528,
          "section": "verse"
        },
        {
          "t": 66250,
          "type": "drum_hit",
          "pitch": 42,
          "duration_ms": 112,
          "velocity": 60,
          "beat_index": 530,
          "section": "verse"
        },
        {
          "t": 66500,
          "type": "drum_hit",
          "pitch": 36,
          "duration_ms": 112,
          "velocity": 80,
          "beat_index": 532,
          "section": "verse"
        },
        {
          "t": 66500,
          "type": "drum_hit",
          "pitch": 38,
          "duration_ms": 112,
          "velocity": 70,
          "beat_index": 532,
          "section": "verse"
        },
        {
          "t": 66500,
          "type": "drum_hit",
          "pitch": 42,
          "duration_ms": 112,
          "velocity": 60,
          "beat_index": 532,
          "section": "verse"
        },
        {
          "t": 66750,
          "type": "drum_hit",
          "pitch": 42,
          "duration_ms": 112,
          "velocity": 60,
          "beat_index": 534,
          "section": "verse"
        },
        {
          "t": 67000,
          "type": "drum_hit",
          "pitch": 36,
          "duration_ms": 112,
          "velocity": 80,
          "beat_index": 536,
          "section": "verse"
        },
        {
          "t": 67000,
          "type": "drum_hit",
          "pitch": 42,
          "duration_ms": 112,
          "velocity": 60,
          "beat_index": 536,
          "section": "verse"
        },
        {
          "t": 67250,
          "type": "drum_hit",
          "pitch": 42,
          "duration_ms": 112,
          "velocity": 60,
          "beat_index": 538,
          "section": "verse"
        },
        {
          "t": 67500,
          "type": "drum_hit",
          "pitch": 36,
          "duration_ms": 112,
          "velocity": 80,
          "beat_index": 540,
          "section": "verse"
        },
        {
          "t": 67500,
          "type": "drum_hit",
          "pitch": 38,
          "duration_ms": 112,
          "velocity": 70,
          "beat_index": 540,
          "section": "verse"
        },
        {
          "t": 67500,
          "type": "drum_hit",
          "pitch": 42,
          "duration_ms": 112,
          "velocity": 60,
          "beat_index": 540,
          "section": "verse"
        },
        {
          "t": 67750,
          "type": "drum_hit",
          "pitch": 42,
          "duration_ms": 112,
          "velocity": 60,
          "beat_index": 542,
          "section": "verse"
        },
        {
          "t": 68000,
          "type": "drum_hit",
          "pitch": 36,
          "duration_ms": 112,
          "velocity": 80,
          "beat_index": 544,
          "section": "verse"
        },
        {
          "t": 68000,
          "type": "drum_hit",
          "pitch": 42,
          "duration_ms": 112,
          "velocity": 60,
          "beat_index": 544,
          "section": "verse"
        },
        {
          "t": 68250,
          "type": "drum_hit",
          "pitch": 42,
          "duration_ms": 112,
          "velocity": 60,
          "beat_index": 546,
          "section": "verse"
        },
        {
          "t": 68500,
          "type": "drum_hit",
          "pitch": 36,
          "duration_ms": 112,
          "velocity": 80,
          "beat_index": 548,
          "section": "verse"
        },
        {
          "t": 68500,
          "type": "drum_hit",
          "pitch": 38,
          "duration_ms": 112,
          "velocity": 70,
          "beat_index": 548,
          "section": "verse"
        },
        {
          "t": 68500,
          "type": "drum_hit",
          "pitch": 42,
          "duration_ms": 112,
          "velocity": 60,
          "beat_index": 548,
          "section": "verse"
        },
        {
          "t": 68750,
          "type": "drum_hit",
          "pitch": 42,
          "duration_ms": 112,
          "velocity": 60,
          "beat_index": 550,
          "section": "verse"
        },
        {
          "t": 69000,
          "type": "drum_hit",
          "pitch": 36,
          "duration_ms": 112,
          "velocity": 80,
          "beat_index": 552,
          "section": "verse"
        },
        {
          "t": 69000,
          "type": "drum_hit",
          "pitch": 42,
          "duration_ms": 112,
          "velocity": 60,
          "beat_index": 552,
          "section": "verse"
        },
        {
          "t": 69250,
          "type": "drum_hit",
          "pitch": 42,
          "duration_ms": 112,
          "velocity": 60,
          "beat_index": 554,
          "section": "verse"
        },
        {
          "t": 69500,
          "type": "drum_hit",
          "pitch": 36,
          "duration_ms": 112,
          "velocity": 80,
          "beat_index": 556,
          "section": "verse"
        },
        {
          "t": 69500,
          "type": "drum_hit",
          "pitch": 38,
          "duration_ms": 112,
          "velocity": 70,
          "beat_index": 556,
          "section": "verse"
        },
        {
          "t": 69500,
          "type": "drum_hit",
          "pitch": 42,
          "duration_ms": 112,
          "velocity": 60,
          "beat_index": 556,
          "section": "verse"
        },
        {
          "t": 69750,
          "type": "drum_hit",
          "pitch": 42,
          "duration_ms": 112,
          "velocity": 60,
          "beat_index": 558,
          "section": "verse"
        },
        {
          "t": 70000,
          "type": "drum_hit",
          "pitch": 36,
          "duration_ms": 112,
          "velocity": 80,
          "beat_index": 560,
          "section": "verse"
        },
        {
          "t": 70000,
          "type": "drum_hit",
          "pitch": 42,
          "duration_ms": 112,
          "velocity": 60,
          "beat_index": 560,
          "section": "verse"
        },
        {
          "t": 70250,
          "type": "drum_hit",
          "pitch": 42,
          "duration_ms": 112,
          "velocity": 60,
          "beat_index": 562,
          "section": "verse"
        },
        {
          "t": 70500,
          "type": "drum_hit",
          "pitch": 36,
          "duration_ms": 112,
          "velocity": 80,
          "beat_index": 564,
          "section": "verse"
        },
        {
          "t": 70500,
          "type": "drum_hit",
          "pitch": 38,
          "duration_ms": 112,
          "velocity": 70,
          "beat_index": 564,
          "section": "verse"
        },
        {
          "t": 70500,
          "type": "drum_hit",
          "pitch": 42,
          "duration_ms": 112,
          "velocity": 60,
          "beat_index": 564,
          "section": "verse"
        },
        {
          "t": 70750,
          "type": "drum_hit",
          "pitch": 42,
          "duration_ms": 112,
          "velocity": 60,
          "beat_index": 566,
          "section": "verse"
        },
        {
          "t": 71000,
          "type": "drum_hit",
          "pitch": 36,
          "duration_ms": 112,
          "velocity": 80,
          "beat_index": 568,
          "section": "verse"
        },
        {
          "t": 71000,
          "type": "drum_hit",
          "pitch": 42,
          "duration_ms": 112,
          "velocity": 60,
          "beat_index": 568,
          "section": "verse"
        },
        {
          "t": 71250,
          "type": "drum_hit",
          "pitch": 42,
          "duration_ms": 112,
          "velocity": 60,
          "beat_index": 570,
          "section": "verse"
        },
        {
          "t": 71500,
          "type": "drum_hit",
          "pitch": 36,
          "duration_ms": 112,
          "velocity": 80,
          "beat_index": 572,
          "section": "verse"
        },
        {
          "t": 71500,
          "type": "drum_hit",
          "pitch": 38,
          "duration_ms": 112,
          "velocity": 70,
          "beat_index": 572,
          "section": "verse"
        },
        {
          "t": 71500,
          "type": "drum_hit",
          "pitch": 42,
          "duration_ms": 112,
          "velocity": 60,
          "beat_index": 572,
          "section": "verse"
        },
        {
          "t": 71750,
          "type": "drum_hit",
          "pitch": 42,
          "duration_ms": 112,
          "velocity": 60,
          "beat_index": 574,
          "section": "verse"
        },
        {
          "t": 72000,
          "type": "drum_hit",
          "pitch": 36,
          "duration_ms": 112,
          "velocity": 80,
          "beat_index": 576,
          "section": "verse"
        },
        {
          "t": 72000,
          "type": "drum_hit",
          "pitch": 42,
          "duration_ms": 112,
          "velocity": 60,
          "beat_index": 576,
          "section": "verse"
        },
        {
          "t": 72250,
          "type": "drum_hit",
          "pitch": 42,
          "duration_ms": 112,
          "velocity": 60,
          "beat_index": 578,
          "section": "verse"
        },
        {
          "t": 72500,
          "type": "drum_hit",
          "pitch": 36,
          "duration_ms": 112,
          "velocity": 80,
          "beat_index": 580,
          "section": "verse"
        },
        {
          "t": 72500,
          "type": "drum_hit",
          "pitch": 38,
          "duration_ms": 112,
          "velocity": 70,
          "beat_index": 580,
          "section": "verse"
        },
        {
          "t": 72500,
          "type": "drum_hit",
          "pitch": 42,
          "duration_ms": 112,
          "velocity": 60,
          "beat_index": 580,
          "section": "verse"
        },
        {
          "t": 72750,
          "type": "drum_hit",
          "pitch": 42,
          "duration_ms": 112,
          "velocity": 60,
          "beat_index": 582,
          "section": "verse"
        },
        {
          "t": 73000,
          "type": "drum_hit",
          "pitch": 36,
          "duration_ms": 112,
          "velocity": 80,
          "beat_index": 584,
          "section": "verse"
        },
        {
          "t": 73000,
          "type": "drum_hit",
          "pitch": 42,
          "duration_ms": 112,
          "velocity": 60,
          "beat_index": 584,
          "section": "verse"
        },
        {
          "t": 73250,
          "type": "drum_hit",
          "pitch": 42,
          "duration_ms": 112,
          "velocity": 60,
          "beat_index": 586,
          "section": "verse"
        },
        {
          "t": 73500,
          "type": "drum_hit",
          "pitch": 36,
          "duration_ms": 112,
          "velocity": 80,
          "beat_index": 588,
          "section": "verse"
        },
        {
          "t": 73500,
          "type": "drum_hit",
          "pitch": 38,
          "duration_ms": 112,
          "velocity": 70,
          "beat_index": 588,
          "section": "verse"
        },
        {
          "t": 73500,
          "type": "drum_hit",
          "pitch": 42,
          "duration_ms": 112,
          "velocity": 60,
          "beat_index": 588,
          "section": "verse"
        },
        {
          "t": 73750,
          "type": "drum_hit",
          "pitch": 42,
          "duration_ms": 112,
          "velocity": 60,
          "beat_index": 590,
          "section": "verse"
        },
        {
          "t": 74000,
          "type": "drum_hit",
          "pitch": 36,
          "duration_ms": 112,
          "velocity": 80,
          "beat_index": 592,
          "section": "verse"
        },
        {
          "t": 74000,
          "type": "drum_hit",
          "pitch": 42,
          "duration_ms": 112,
          "velocity": 60,
          "beat_index": 592,
          "section": "verse"
        },
        {
          "t": 74250,
          "type": "drum_hit",
          "pitch": 42,
          "duration_ms": 112,
          "velocity": 60,
          "beat_index": 594,
          "section": "verse"
        },
        {
          "t": 74500,
          "type": "drum_hit",
          "pitch": 36,
          "duration_ms": 112,
          "velocity": 80,
          "beat_index": 596,
          "section": "verse"
        },
        {
          "t": 74500,
          "type": "drum_hit",
          "pitch": 38,
          "duration_ms": 112,
          "velocity": 70,
          "beat_index": 596,
          "section": "verse"
        },
        {
          "t": 74500,
          "type": "drum_hit",
          "pitch": 42,
          "duration_ms": 112,
          "velocity": 60,
          "beat_index": 596,
          "section": "verse"
        },
        {
          "t": 74750,
          "type": "drum_hit",
          "pitch": 42,
          "duration_ms": 112,
          "velocity": 60,
          "beat_index": 598,
          "section": "verse"
        },
        {
          "t": 75000,
          "type": "drum_hit",
          "pitch": 36,
          "duration_ms": 112,
          "velocity": 80,
          "beat_index": 600,
          "section": "verse"
        },
        {
          "t": 75000,
          "type": "drum_hit",
          "pitch": 42,
          "duration_ms": 112,
          "velocity": 60,
          "beat_index": 600,
          "section": "verse"
        },
        {
          "t": 75250,
          "type": "drum_hit",
          "pitch": 42,
          "duration_ms": 112,
          "velocity": 60,
          "beat_index": 602,
          "section": "verse"
        },
        {
          "t": 75500,
          "type": "drum_hit",
          "pitch": 36,
          "duration_ms": 112,
          "velocity": 80,
          "beat_index": 604,
          "section": "verse"
        },
        {
          "t": 75500,
          "type": "drum_hit",
          "pitch": 38,
          "duration_ms": 112,
          "velocity": 70,
          "beat_index": 604,
          "section": "verse"
        },
        {
          "t": 75500,
          "type": "drum_hit",
          "pitch": 42,
          "duration_ms": 112,
          "velocity": 60,
          "beat_index": 604,
          "section": "verse"
        },
        {
          "t": 75750,
          "type": "drum_hit",
          "pitch": 42,
          "duration_ms": 112,
          "velocity": 60,
          "beat_index": 606,
          "section": "verse"
        },
        {
          "t": 76000,
          "type": "drum_hit",
          "pitch": 36,
          "duration_ms": 112,
          "velocity": 80,
          "beat_index": 608,
          "section": "verse"
        },
        {
          "t": 76000,
          "type": "drum_hit",
          "pitch": 42,
          "duration_ms": 112,
          "velocity": 60,
          "beat_index": 608,
          "section": "verse"
        },
        {
          "t": 76250,
          "type": "drum_hit",
          "pitch": 42,
          "duration_ms": 112,
          "velocity": 60,
          "beat_index": 610,
          "section": "verse"
        },
        {
          "t": 76500,
          "type": "drum_hit",
          "pitch": 36,
          "duration_ms": 112,
          "velocity": 80,
          "beat_index": 612,
          "section": "verse"
        },
        {
          "t": 76500,
          "type": "drum_hit",
          "pitch": 38,
          "duration_ms": 112,
          "velocity": 70,
          "beat_index": 612,
          "section": "verse"
        },
        {
          "t": 76500,
          "type": "drum_hit",
          "pitch": 42,
          "duration_ms": 112,
          "velocity": 60,
          "beat_index": 612,
          "section": "verse"
        },
        {
          "t": 76750,
          "type": "drum_hit",
          "pitch": 42,
          "duration_ms": 112,
          "velocity": 60,
          "beat_index": 614,
          "section": "verse"
        },
        {
          "t": 77000,
          "type": "drum_hit",
          "pitch": 36,
          "duration_ms": 112,
          "velocity": 80,
          "beat_index": 616,
          "section": "verse"
        },
        {
          "t": 77000,
          "type": "drum_hit",
          "pitch": 42,
          "duration_ms": 112,
          "velocity": 60,
          "beat_index": 616,
          "section": "verse"
        },
        {
          "t": 77250,
          "type": "drum_hit",
          "pitch": 42,
          "duration_ms": 112,
          "velocity": 60,
          "beat_index": 618,
          "section": "verse"
        },
        {
          "t": 77500,
          "type": "drum_hit",
          "pitch": 36,
          "duration_ms": 112,
          "velocity": 80,
          "beat_index": 620,
          "section": "verse"
        },
        {
          "t": 77500,
          "type": "drum_hit",
          "pitch": 38,
          "duration_ms": 112,
          "velocity": 70,
          "beat_index": 620,
          "section": "verse"
        },
        {
          "t": 77500,
          "type": "drum_hit",
          "pitch": 42,
          "duration_ms": 112,
          "velocity": 60,
          "beat_index": 620,
          "section": "verse"
        },
        {
          "t": 77750,
          "type": "drum_hit",
          "pitch": 42,
          "duration_ms": 112,
          "velocity": 60,
          "beat_index": 622,
          "section": "verse"
        },
        {
          "t": 78000,
          "type": "drum_hit",
          "pitch": 36,
          "duration_ms": 112,
          "velocity": 80,
          "beat_index": 624,
          "section": "verse"
        },
        {
          "t": 78000,
          "type": "drum_hit",
          "pitch": 42,
          "duration_ms": 112,
          "velocity": 60,
          "beat_index": 624,
          "section": "verse"
        },
        {
          "t": 78250,
          "type": "drum_hit",
          "pitch": 42,
          "duration_ms": 112,
          "velocity": 60,
          "beat_index": 626,
          "section": "verse"
        },
        {
          "t": 78500,
          "type": "drum_hit",
          "pitch": 36,
          "duration_ms": 112,
          "velocity": 80,
          "beat_index": 628,
          "section": "verse"
        },
        {
          "t": 78500,
          "type": "drum_hit",
          "pitch": 38,
          "duration_ms": 112,
          "velocity": 70,
          "beat_index": 628,
          "section": "verse"
        },
        {
          "t": 78500,
          "type": "drum_hit",
          "pitch": 42,
          "duration_ms": 112,
          "velocity": 60,
          "beat_index": 628,
          "section": "verse"
        },
        {
          "t": 78750,
          "type": "drum_hit",
          "pitch": 42,
          "duration_ms": 112,
          "velocity": 60,
          "beat_index": 630,
          "section": "verse"
        },
        {
          "t": 79000,
          "type": "drum_hit",
          "pitch": 36,
          "duration_ms": 112,
          "velocity": 80,
          "beat_index": 632,
          "section": "verse"
        },
        {
          "t": 79000,
          "type": "drum_hit",
          "pitch": 42,
          "duration_ms": 112,
          "velocity": 60,
          "beat_index": 632,
          "section": "verse"
        },
        {
          "t": 79250,
          "type": "drum_hit",
          "pitch": 42,
          "duration_ms": 112,
          "velocity": 60,
          "beat_index": 634,
          "section": "verse"
        },
        {
          "t": 79500,
          "type": "drum_hit",
          "pitch": 36,
          "duration_ms": 112,
          "velocity": 80,
          "beat_index": 636,
          "section": "verse"
        },
        {
          "t": 79500,
          "type": "drum_hit",
          "pitch": 38,
          "duration_ms": 112,
          "velocity": 70,
          "beat_index": 636,
          "section": "verse"
        },
        {
          "t": 79500,
          "type": "drum_hit",
          "pitch": 42,
          "duration_ms": 112,
          "velocity": 60,
          "beat_index": 636,
          "section": "verse"
        },
        {
          "t": 79750,
          "type": "drum_hit",
          "pitch": 42,
          "duration_ms": 112,
          "velocity": 60,
          "beat_index": 638,
          "section": "verse"
        },
        {
          "t": 80000,
          "type": "drum_hit",
          "pitch": 36,
          "duration_ms": 112,
          "velocity": 80,
          "beat_index": 640,
          "section": "verse"
        },
        {
          "t": 80000,
          "type": "drum_hit",
          "pitch": 42,
          "duration_ms": 112,
          "velocity": 60,
          "beat_index": 640,
          "section": "verse"
        },
        {
          "t": 80250,
          "type": "drum_hit",
          "pitch": 42,
          "duration_ms": 112,
          "velocity": 60,
          "beat_index": 642,
          "section": "verse"
        },
        {
          "t": 80500,
          "type": "drum_hit",
          "pitch": 36,
          "duration_ms": 112,
          "velocity": 80,
          "beat_index": 644,
          "section": "verse"
        },
        {
          "t": 80500,
          "type": "drum_hit",
          "pitch": 38,
          "duration_ms": 112,
          "velocity": 70,
          "beat_index": 644,
          "section": "verse"
        },
        {
          "t": 80500,
          "type": "drum_hit",
          "pitch": 42,
          "duration_ms": 112,
          "velocity": 60,
          "beat_index": 644,
          "section": "verse"
        },
        {
          "t": 80750,
          "type": "drum_hit",
          "pitch": 42,
          "duration_ms": 112,
          "velocity": 60,
          "beat_index": 646,
          "section": "verse"
        },
        {
          "t": 81000,
          "type": "drum_hit",
          "pitch": 36,
          "duration_ms": 112,
          "velocity": 80,
          "beat_index": 648,
          "section": "verse"
        },
        {
          "t": 81000,
          "type": "drum_hit",
          "pitch": 42,
          "duration_ms": 112,
          "velocity": 60,
          "beat_index": 648,
          "section": "verse"
        },
        {
          "t": 81250,
          "type": "drum_hit",
          "pitch": 42,
          "duration_ms": 112,
          "velocity": 60,
          "beat_index": 650,
          "section": "verse"
        },
        {
          "t": 81500,
          "type": "drum_hit",
          "pitch": 36,
          "duration_ms": 112,
          "velocity": 80,
          "beat_index": 652,
          "section": "verse"
        },
        {
          "t": 81500,
          "type": "drum_hit",
          "pitch": 38,
          "duration_ms": 112,
          "velocity": 70,
          "beat_index": 652,
          "section": "verse"
        },
        {
          "t": 81500,
          "type": "drum_hit",
          "pitch": 42,
          "duration_ms": 112,
          "velocity": 60,
          "beat_index": 652,
          "section": "verse"
        },
        {
          "t": 81750,
          "type": "drum_hit",
          "pitch": 42,
          "duration_ms": 112,
          "velocity": 60,
          "beat_index": 654,
          "section": "verse"
        },
        {
          "t": 82000,
          "type": "drum_hit",
          "pitch": 36,
          "duration_ms": 112,
          "velocity": 80,
          "beat_index": 656,
          "section": "verse"
        },
        {
          "t": 82000,
          "type": "drum_hit",
          "pitch": 42,
          "duration_ms": 112,
          "velocity": 60,
          "beat_index": 656,
          "section": "verse"
        },
        {
          "t": 82250,
          "type": "drum_hit",
          "pitch": 42,
          "duration_ms": 112,
          "velocity": 60,
          "beat_index": 658,
          "section": "verse"
        },
        {
          "t": 82500,
          "type": "drum_hit",
          "pitch": 36,
          "duration_ms": 112,
          "velocity": 80,
          "beat_index": 660,
          "section": "verse"
        },
        {
          "t": 82500,
          "type": "drum_hit",
          "pitch": 38,
          "duration_ms": 112,
          "velocity": 70,
          "beat_index": 660,
          "section": "verse"
        },
        {
          "t": 82500,
          "type": "drum_hit",
          "pitch": 42,
          "duration_ms": 112,
          "velocity": 60,
          "beat_index": 660,
          "section": "verse"
        },
        {
          "t": 82750,
          "type": "drum_hit",
          "pitch": 42,
          "duration_ms": 112,
          "velocity": 60,
          "beat_index": 662,
          "section": "verse"
        },
        {
          "t": 83000,
          "type": "drum_hit",
          "pitch": 36,
          "duration_ms": 112,
          "velocity": 80,
          "beat_index": 664,
          "section": "verse"
        },
        {
          "t": 83000,
          "type": "drum_hit",
          "pitch": 42,
          "duration_ms": 112,
          "velocity": 60,
          "beat_index": 664,
          "section": "verse"
        },
        {
          "t": 83250,
          "type": "drum_hit",
          "pitch": 42,
          "duration_ms": 112,
          "velocity": 60,
          "beat_index": 666,
          "section": "verse"
        },
        {
          "t": 83500,
          "type": "drum_hit",
          "pitch": 36,
          "duration_ms": 112,
          "velocity": 80,
          "beat_index": 668,
          "section": "verse"
        },
        {
          "t": 83500,
          "type": "drum_hit",
          "pitch": 38,
          "duration_ms": 112,
          "velocity": 70,
          "beat_index": 668,
          "section": "verse"
        },
        {
          "t": 83500,
          "type": "drum_hit",
          "pitch": 42,
          "duration_ms": 112,
          "velocity": 60,
          "beat_index": 668,
          "section": "verse"
        },
        {
          "t": 83750,
          "type": "drum_hit",
          "pitch": 42,
          "duration_ms": 112,
          "velocity": 60,
          "beat_index": 670,
          "section": "verse"
        },
        {
          "t": 84000,
          "type": "drum_hit",
          "pitch": 36,
          "duration_ms": 112,
          "velocity": 80,
          "beat_index": 672,
          "section": "verse"
        },
        {
          "t": 84000,
          "type": "drum_hit",
          "pitch": 42,
          "duration_ms": 112,
          "velocity": 60,
          "beat_index": 672,
          "section": "verse"
        },
        {
          "t": 84250,
          "type": "drum_hit",
          "pitch": 42,
          "duration_ms": 112,
          "velocity": 60,
          "beat_index": 674,
          "section": "verse"
        },
        {
          "t": 84500,
          "type": "drum_hit",
          "pitch": 36,
          "duration_ms": 112,
          "velocity": 80,
          "beat_index": 676,
          "section": "verse"
        },
        {
          "t": 84500,
          "type": "drum_hit",
          "pitch": 38,
          "duration_ms": 112,
          "velocity": 70,
          "beat_index": 676,
          "section": "verse"
        },
        {
          "t": 84500,
          "type": "drum_hit",
          "pitch": 42,
          "duration_ms": 112,
          "velocity": 60,
          "beat_index": 676,
          "section": "verse"
        },
        {
          "t": 84750,
          "type": "drum_hit",
          "pitch": 42,
          "duration_ms": 112,
          "velocity": 60,
          "beat_index": 678,
          "section": "verse"
        },
        {
          "t": 85000,
          "type": "drum_hit",
          "pitch": 36,
          "duration_ms": 112,
          "velocity": 80,
          "beat_index": 680,
          "section": "verse"
        },
        {
          "t": 85000,
          "type": "drum_hit",
          "pitch": 42,
          "duration_ms": 112,
          "velocity": 60,
          "beat_index": 680,
          "section": "verse"
        },
        {
          "t": 85250,
          "type": "drum_hit",
          "pitch": 42,
          "duration_ms": 112,
          "velocity": 60,
          "beat_index": 682,
          "section": "verse"
        },
        {
          "t": 85500,
          "type": "drum_hit",
          "pitch": 36,
          "duration_ms": 112,
          "velocity": 80,
          "beat_index": 684,
          "section": "verse"
        },
        {
          "t": 85500,
          "type": "drum_hit",
          "pitch": 38,
          "duration_ms": 112,
          "velocity": 70,
          "beat_index": 684,
          "section": "verse"
        },
        {
          "t": 85500,
          "type": "drum_hit",
          "pitch": 42,
          "duration_ms": 112,
          "velocity": 60,
          "beat_index": 684,
          "section": "verse"
        },
        {
          "t": 85750,
          "type": "drum_hit",
          "pitch": 42,
          "duration_ms": 112,
          "velocity": 60,
          "beat_index": 686,
          "section": "verse"
        },
        {
          "t": 86000,
          "type": "drum_hit",
          "pitch": 36,
          "duration_ms": 112,
          "velocity": 80,
          "beat_index": 688,
          "section": "verse"
        },
        {
          "t": 86000,
          "type": "drum_hit",
          "pitch": 42,
          "duration_ms": 112,
          "velocity": 60,
          "beat_index": 688,
          "section": "verse"
        },
        {
          "t": 86250,
          "type": "drum_hit",
          "pitch": 42,
          "duration_ms": 112,
          "velocity": 60,
          "beat_index": 690,
          "section": "verse"
        },
        {
          "t": 86500,
          "type": "drum_hit",
          "pitch": 36,
          "duration_ms": 112,
          "velocity": 80,
          "beat_index": 692,
          "section": "verse"
        },
        {
          "t": 86500,
          "type": "drum_hit",
          "pitch": 38,
          "duration_ms": 112,
          "velocity": 70,
          "beat_index": 692,
          "section": "verse"
        },
        {
          "t": 86500,
          "type": "drum_hit",
          "pitch": 42,
          "duration_ms": 112,
          "velocity": 60,
          "beat_index": 692,
          "section": "verse"
        },
        {
          "t": 86750,
          "type": "drum_hit",
          "pitch": 42,
          "duration_ms": 112,
          "velocity": 60,
          "beat_index": 694,
          "section": "verse"
        },
        {
          "t": 87000,
          "type": "drum_hit",
          "pitch": 36,
          "duration_ms": 112,
          "velocity": 80,
          "beat_index": 696,
          "section": "verse"
        },
        {
          "t": 87000,
          "type": "drum_hit",
          "pitch": 42,
          "duration_ms": 112,
          "velocity": 60,
          "beat_index": 696,
          "section": "verse"
        },
        {
          "t": 87250,
          "type": "drum_hit",
          "pitch": 42,
          "duration_ms": 112,
          "velocity": 60,
          "beat_index": 698,
          "section": "verse"
        },
        {
          "t": 87500,
          "type": "drum_hit",
          "pitch": 36,
          "duration_ms": 112,
          "velocity": 80,
          "beat_index": 700,
          "section": "verse"
        },
        {
          "t": 87500,
          "type": "drum_hit",
          "pitch": 38,
          "duration_ms": 112,
          "velocity": 70,
          "beat_index": 700,
          "section": "verse"
        },
        {
          "t": 87500,
          "type": "drum_hit",
          "pitch": 42,
          "duration_ms": 112,
          "velocity": 60,
          "beat_index": 700,
          "section": "verse"
        },
        {
          "t": 87750,
          "type": "drum_hit",
          "pitch": 42,
          "duration_ms": 112,
          "velocity": 60,
          "beat_index": 702,
          "section": "verse"
        },
        {
          "t": 88000,
          "type": "drum_hit",
          "pitch": 36,
          "duration_ms": 112,
          "velocity": 80,
          "beat_index": 704,
          "section": "verse"
        },
        {
          "t": 88000,
          "type": "drum_hit",
          "pitch": 42,
          "duration_ms": 112,
          "velocity": 60,
          "beat_index": 704,
          "section": "verse"
        },
        {
          "t": 88250,
          "type": "drum_hit",
          "pitch": 42,
          "duration_ms": 112,
          "velocity": 60,
          "beat_index": 706,
          "section": "verse"
        },
        {
          "t": 88500,
          "type": "drum_hit",
          "pitch": 36,
          "duration_ms": 112,
          "velocity": 80,
          "beat_index": 708,
          "section": "verse"
        },
        {
          "t": 88500,
          "type": "drum_hit",
          "pitch": 38,
          "duration_ms": 112,
          "velocity": 70,
          "beat_index": 708,
          "section": "verse"
        },
        {
          "t": 88500,
          "type": "drum_hit",
          "pitch": 42,
          "duration_ms": 112,
          "velocity": 60,
          "beat_index": 708,
          "section": "verse"
        },
        {
          "t": 88750,
          "type": "drum_hit",
          "pitch": 42,
          "duration_ms": 112,
          "velocity": 60,
          "beat_index": 710,
          "section": "verse"
        },
        {
          "t": 89000,
          "type": "drum_hit",
          "pitch": 36,
          "duration_ms": 112,
          "velocity": 80,
          "beat_index": 712,
          "section": "verse"
        },
        {
          "t": 89000,
          "type": "drum_hit",
          "pitch": 42,
          "duration_ms": 112,
          "velocity": 60,
          "beat_index": 712,
          "section": "verse"
        },
        {
          "t": 89250,
          "type": "drum_hit",
          "pitch": 42,
          "duration_ms": 112,
          "velocity": 60,
          "beat_index": 714,
          "section": "verse"
        },
        {
          "t": 89500,
          "type": "drum_hit",
          "pitch": 36,
          "duration_ms": 112,
          "velocity": 80,
          "beat_index": 716,
          "section": "verse"
        },
        {
          "t": 89500,
          "type": "drum_hit",
          "pitch": 38,
          "duration_ms": 112,
          "velocity": 70,
          "beat_index": 716,
          "section": "verse"
        },
        {
          "t": 89500,
          "type": "drum_hit",
          "pitch": 42,
          "duration_ms": 112,
          "velocity": 60,
          "beat_index": 716,
          "section": "verse"
        },
        {
          "t": 89750,
          "type": "drum_hit",
          "pitch": 42,
          "duration_ms": 112,
          "velocity": 60,
          "beat_index": 718,
          "section": "verse"
        },
        {
          "t": 90000,
          "type": "drum_hit",
          "pitch": 36,
          "duration_ms": 112,
          "velocity": 80,
          "beat_index": 720,
          "section": "verse"
        },
        {
          "t": 90000,
          "type": "drum_hit",
          "pitch": 42,
          "duration_ms": 112,
          "velocity": 60,
          "beat_index": 720,
          "section": "verse"
        },
        {
          "t": 90250,
          "type": "drum_hit",
          "pitch": 42,
          "duration_ms": 112,
          "velocity": 60,
          "beat_index": 722,
          "section": "verse"
        },
        {
          "t": 90500,
          "type": "drum_hit",
          "pitch": 36,
          "duration_ms": 112,
          "velocity": 80,
          "beat_index": 724,
          "section": "verse"
        },
        {
          "t": 90500,
          "type": "drum_hit",
          "pitch": 38,
          "duration_ms": 112,
          "velocity": 70,
          "beat_index": 724,
          "section": "verse"
        },
        {
          "t": 90500,
          "type": "drum_hit",
          "pitch": 42,
          "duration_ms": 112,
          "velocity": 60,
          "beat_index": 724,
          "section": "verse"
        },
        {
          "t": 90750,
          "type": "drum_hit",
          "pitch": 42,
          "duration_ms": 112,
          "velocity": 60,
          "beat_index": 726,
          "section": "verse"
        },
        {
          "t": 91000,
          "type": "drum_hit",
          "pitch": 36,
          "duration_ms": 112,
          "velocity": 80,
          "beat_index": 728,
          "section": "verse"
        },
        {
          "t": 91000,
          "type": "drum_hit",
          "pitch": 42,
          "duration_ms": 112,
          "velocity": 60,
          "beat_index": 728,
          "section": "verse"
        },
        {
          "t": 91250,
          "type": "drum_hit",
          "pitch": 42,
          "duration_ms": 112,
          "velocity": 60,
          "beat_index": 730,
          "section": "verse"
        },
        {
          "t": 91500,
          "type": "drum_hit",
          "pitch": 36,
          "duration_ms": 112,
          "velocity": 80,
          "beat_index": 732,
          "section": "verse"
        },
        {
          "t": 91500,
          "type": "drum_hit",
          "pitch": 38,
          "duration_ms": 112,
          "velocity": 70,
          "beat_index": 732,
          "section": "verse"
        },
        {
          "t": 91500,
          "type": "drum_hit",
          "pitch": 42,
          "duration_ms": 112,
          "velocity": 60,
          "beat_index": 732,
          "section": "verse"
        },
        {
          "t": 91750,
          "type": "drum_hit",
          "pitch": 42,
          "duration_ms": 112,
          "velocity": 60,
          "beat_index": 734,
          "section": "verse"
        },
        {
          "t": 92000,
          "type": "drum_hit",
          "pitch": 36,
          "duration_ms": 112,
          "velocity": 80,
          "beat_index": 736,
          "section": "verse"
        },
        {
          "t": 92000,
          "type": "drum_hit",
          "pitch": 42,
          "duration_ms": 112,
          "velocity": 60,
          "beat_index": 736,
          "section": "verse"
        },
        {
          "t": 92250,
          "type": "drum_hit",
          "pitch": 42,
          "duration_ms": 112,
          "velocity": 60,
          "beat_index": 738,
          "section": "verse"
        },
        {
          "t": 92500,
          "type": "drum_hit",
          "pitch": 36,
          "duration_ms": 112,
          "velocity": 80,
          "beat_index": 740,
          "section": "verse"
        },
        {
          "t": 92500,
          "type": "drum_hit",
          "pitch": 38,
          "duration_ms": 112,
          "velocity": 70,
          "beat_index": 740,
          "section": "verse"
        },
        {
          "t": 92500,
          "type": "drum_hit",
          "pitch": 42,
          "duration_ms": 112,
          "velocity": 60,
          "beat_index": 740,
          "section": "verse"
        },
        {
          "t": 92750,
          "type": "drum_hit",
          "pitch": 42,
          "duration_ms": 112,
          "velocity": 60,
          "beat_index": 742,
          "section": "verse"
        },
        {
          "t": 93000,
          "type": "drum_hit",
          "pitch": 36,
          "duration_ms": 112,
          "velocity": 80,
          "beat_index": 744,
          "section": "verse"
        },
        {
          "t": 93000,
          "type": "drum_hit",
          "pitch": 42,
          "duration_ms": 112,
          "velocity": 60,
          "beat_index": 744,
          "section": "verse"
        },
        {
          "t": 93250,
          "type": "drum_hit",
          "pitch": 42,
          "duration_ms": 112,
          "velocity": 60,
          "beat_index": 746,
          "section": "verse"
        },
        {
          "t": 93500,
          "type": "drum_hit",
          "pitch": 36,
          "duration_ms": 112,
          "velocity": 80,
          "beat_index": 748,
          "section": "verse"
        },
        {
          "t": 93500,
          "type": "drum_hit",
          "pitch": 38,
          "duration_ms": 112,
          "velocity": 70,
          "beat_index": 748,
          "section": "verse"
        },
        {
          "t": 93500,
          "type": "drum_hit",
          "pitch": 42,
          "duration_ms": 112,
          "velocity": 60,
          "beat_index": 748,
          "section": "verse"
        },
        {
          "t": 93750,
          "type": "drum_hit",
          "pitch": 42,
          "duration_ms": 112,
          "velocity": 60,
          "beat_index": 750,
          "section": "verse"
        },
        {
          "t": 94000,
          "type": "drum_hit",
          "pitch": 36,
          "duration_ms": 112,
          "velocity": 80,
          "beat_index": 752,
          "section": "verse"
        },
        {
          "t": 94000,
          "type": "drum_hit",
          "pitch": 42,
          "duration_ms": 112,
          "velocity": 60,
          "beat_index": 752,
          "section": "verse"
        },
        {
          "t": 94250,
          "type": "drum_hit",
          "pitch": 42,
          "duration_ms": 112,
          "velocity": 60,
          "beat_index": 754,
          "section": "verse"
        },
        {
          "t": 94500,
          "type": "drum_hit",
          "pitch": 36,
          "duration_ms": 112,
          "velocity": 80,
          "beat_index": 756,
          "section": "verse"
        },
        {
          "t": 94500,
          "type": "drum_hit",
          "pitch": 38,
          "duration_ms": 112,
          "velocity": 70,
          "beat_index": 756,
          "section": "verse"
        },
        {
          "t": 94500,
          "type": "drum_hit",
          "pitch": 42,
          "duration_ms": 112,
          "velocity": 60,
          "beat_index": 756,
          "section": "verse"
        },
        {
          "t": 94750,
          "type": "drum_hit",
          "pitch": 42,
          "duration_ms": 112,
          "velocity": 60,
          "beat_index": 758,
          "section": "verse"
        },
        {
          "t": 95000,
          "type": "drum_hit",
          "pitch": 36,
          "duration_ms": 112,
          "velocity": 80,
          "beat_index": 760,
          "section": "verse"
        },
        {
          "t": 95000,
          "type": "drum_hit",
          "pitch": 42,
          "duration_ms": 112,
          "velocity": 60,
          "beat_index": 760,
          "section": "verse"
        },
        {
          "t": 95250,
          "type": "drum_hit",
          "pitch": 42,
          "duration_ms": 112,
          "velocity": 60,
          "beat_index": 762,
          "section": "verse"
        },
        {
          "t": 95500,
          "type": "drum_hit",
          "pitch": 36,
          "duration_ms": 112,
          "velocity": 80,
          "beat_index": 764,
          "section": "verse"
        },
        {
          "t": 95500,
          "type": "drum_hit",
          "pitch": 38,
          "duration_ms": 112,
          "velocity": 70,
          "beat_index": 764,
          "section": "verse"
        },
        {
          "t": 95500,
          "type": "drum_hit",
          "pitch": 42,
          "duration_ms": 112,
          "velocity": 60,
          "beat_index": 764,
          "section": "verse"
        },
        {
          "t": 95750,
          "type": "drum_hit",
          "pitch": 42,
          "duration_ms": 112,
          "velocity": 60,
          "beat_index": 766,
          "section": "verse"
        },
        {
          "t": 96000,
          "type": "drum_hit",
          "pitch": 36,
          "duration_ms": 112,
          "velocity": 110,
          "beat_index": 768,
          "section": "chorus"
        },
        {
          "t": 96000,
          "type": "drum_hit",
          "pitch": 42,
          "duration_ms": 112,
          "velocity": 80,
          "beat_index": 768,
          "section": "chorus"
        },
        {
          "t": 96250,
          "type": "drum_hit",
          "pitch": 42,
          "duration_ms": 112,
          "velocity": 80,
          "beat_index": 770,
          "section": "chorus"
        },
        {
          "t": 96500,
          "type": "drum_hit",
          "pitch": 36,
          "duration_ms": 112,
          "velocity": 110,
          "beat_index": 772,
          "section": "chorus"
        },
        {
          "t": 96500,
          "type": "drum_hit",
          "pitch": 38,
          "duration_ms": 112,
          "velocity": 100,
          "beat_index": 772,
          "section": "chorus"
        },
        {
          "t": 96500,
          "type": "drum_hit",
          "pitch": 42,
          "duration_ms": 112,
          "velocity": 80,
          "beat_index": 772,
          "section": "chorus"
        },
        {
          "t": 96750,
          "type": "drum_hit",
          "pitch": 42,
          "duration_ms": 112,
          "velocity": 80,
          "beat_index": 774,
          "section": "chorus"
        },
        {
          "t": 97000,
          "type": "drum_hit",
          "pitch": 36,
          "duration_ms": 112,
          "velocity": 110,
          "beat_index": 776,
          "section": "chorus"
        },
        {
          "t": 97000,
          "type": "drum_hit",
          "pitch": 42,
          "duration_ms": 112,
          "velocity": 80,
          "beat_index": 776,
          "section": "chorus"
        },
        {
          "t": 97250,
          "type": "drum_hit",
          "pitch": 42,
          "duration_ms": 112,
          "velocity": 80,
          "beat_index": 778,
          "section": "chorus"
        },
        {
          "t": 97500,
          "type": "drum_hit",
          "pitch": 36,
          "duration_ms": 112,
          "velocity": 110,
          "beat_index": 780,
          "section": "chorus"
        },
        {
          "t": 97500,
          "type": "drum_hit",
          "pitch": 38,
          "duration_ms": 112,
          "velocity": 100,
          "beat_index": 780,
          "section": "chorus"
        },
        {
          "t": 97500,
          "type": "drum_hit",
          "pitch": 42,
          "duration_ms": 112,
          "velocity": 80,
          "beat_index": 780,
          "section": "chorus"
        },
        {
          "t": 97750,
          "type": "drum_hit",
          "pitch": 42,
          "duration_ms": 112,
          "velocity": 80,
          "beat_index": 782,
          "section": "chorus"
        },
        {
          "t": 98000,
          "type": "drum_hit",
          "pitch": 36,
          "duration_ms": 112,
          "velocity": 110,
          "beat_index": 784,
          "section": "chorus"
        },
        {
          "t": 98000,
          "type": "drum_hit",
          "pitch": 42,
          "duration_ms": 112,
          "velocity": 80,
          "beat_index": 784,
          "section": "chorus"
        },
        {
          "t": 98250,
          "type": "drum_hit",
          "pitch": 42,
          "duration_ms": 112,
          "velocity": 80,
          "beat_index": 786,
          "section": "chorus"
        },
        {
          "t": 98500,
          "type": "drum_hit",
          "pitch": 36,
          "duration_ms": 112,
          "velocity": 110,
          "beat_index": 788,
          "section": "chorus"
        },
        {
          "t": 98500,
          "type": "drum_hit",
          "pitch": 38,
          "duration_ms": 112,
          "velocity": 100,
          "beat_index": 788,
          "section": "chorus"
        },
        {
          "t": 98500,
          "type": "drum_hit",
          "pitch": 42,
          "duration_ms": 112,
          "velocity": 80,
          "beat_index": 788,
          "section": "chorus"
        },
        {
          "t": 98750,
          "type": "drum_hit",
          "pitch": 42,
          "duration_ms": 112,
          "velocity": 80,
          "beat_index": 790,
          "section": "chorus"
        },
        {
          "t": 99000,
          "type": "drum_hit",
          "pitch": 36,
          "duration_ms": 112,
          "velocity": 110,
          "beat_index": 792,
          "section": "chorus"
        },
        {
          "t": 99000,
          "type": "drum_hit",
          "pitch": 42,
          "duration_ms": 112,
          "velocity": 80,
          "beat_index": 792,
          "section": "chorus"
        },
        {
          "t": 99250,
          "type": "drum_hit",
          "pitch": 42,
          "duration_ms": 112,
          "velocity": 80,
          "beat_index": 794,
          "section": "chorus"
        },
        {
          "t": 99500,
          "type": "drum_hit",
          "pitch": 36,
          "duration_ms": 112,
          "velocity": 110,
          "beat_index": 796,
          "section": "chorus"
        },
        {
          "t": 99500,
          "type": "drum_hit",
          "pitch": 38,
          "duration_ms": 112,
          "velocity": 100,
          "beat_index": 796,
          "section": "chorus"
        },
        {
          "t": 99500,
          "type": "drum_hit",
          "pitch": 42,
          "duration_ms": 112,
          "velocity": 80,
          "beat_index": 796,
          "section": "chorus"
        },
        {
          "t": 99750,
          "type": "drum_hit",
          "pitch": 42,
          "duration_ms": 112,
          "velocity": 80,
          "beat_index": 798,
          "section": "chorus"
        },
        {
          "t": 100000,
          "type": "drum_hit",
          "pitch": 36,
          "duration_ms": 112,
          "velocity": 110,
          "beat_index": 800,
          "section": "chorus"
        },
        {
          "t": 100000,
          "type": "drum_hit",
          "pitch": 42,
          "duration_ms": 112,
          "velocity": 80,
          "beat_index": 800,
          "section": "chorus"
        },
        {
          "t": 100250,
          "type": "drum_hit",
          "pitch": 42,
          "duration_ms": 112,
          "velocity": 80,
          "beat_index": 802,
          "section": "chorus"
        },
        {
          "t": 100500,
          "type": "drum_hit",
          "pitch": 36,
          "duration_ms": 112,
          "velocity": 110,
          "beat_index": 804,
          "section": "chorus"
        },
        {
          "t": 100500,
          "type": "drum_hit",
          "pitch": 38,
          "duration_ms": 112,
          "velocity": 100,
          "beat_index": 804,
          "section": "chorus"
        },
        {
          "t": 100500,
          "type": "drum_hit",
          "pitch": 42,
          "duration_ms": 112,
          "velocity": 80,
          "beat_index": 804,
          "section": "chorus"
        },
        {
          "t": 100750,
          "type": "drum_hit",
          "pitch": 42,
          "duration_ms": 112,
          "velocity": 80,
          "beat_index": 806,
          "section": "chorus"
        },
        {
          "t": 101000,
          "type": "drum_hit",
          "pitch": 36,
          "duration_ms": 112,
          "velocity": 110,
          "beat_index": 808,
          "section": "chorus"
        },
        {
          "t": 101000,
          "type": "drum_hit",
          "pitch": 42,
          "duration_ms": 112,
          "velocity": 80,
          "beat_index": 808,
          "section": "chorus"
        },
        {
          "t": 101250,
          "type": "drum_hit",
          "pitch": 42,
          "duration_ms": 112,
          "velocity": 80,
          "beat_index": 810,
          "section": "chorus"
        },
        {
          "t": 101500,
          "type": "drum_hit",
          "pitch": 36,
          "duration_ms": 112,
          "velocity": 110,
          "beat_index": 812,
          "section": "chorus"
        },
        {
          "t": 101500,
          "type": "drum_hit",
          "pitch": 38,
          "duration_ms": 112,
          "velocity": 100,
          "beat_index": 812,
          "section": "chorus"
        },
        {
          "t": 101500,
          "type": "drum_hit",
          "pitch": 42,
          "duration_ms": 112,
          "velocity": 80,
          "beat_index": 812,
          "section": "chorus"
        },
        {
          "t": 101750,
          "type": "drum_hit",
          "pitch": 42,
          "duration_ms": 112,
          "velocity": 80,
          "beat_index": 814,
          "section": "chorus"
        },
        {
          "t": 102000,
          "type": "drum_hit",
          "pitch": 36,
          "duration_ms": 112,
          "velocity": 110,
          "beat_index": 816,
          "section": "chorus"
        },
        {
          "t": 102000,
          "type": "drum_hit",
          "pitch": 42,
          "duration_ms": 112,
          "velocity": 80,
          "beat_index": 816,
          "section": "chorus"
        },
        {
          "t": 102250,
          "type": "drum_hit",
          "pitch": 42,
          "duration_ms": 112,
          "velocity": 80,
          "beat_index": 818,
          "section": "chorus"
        },
        {
          "t": 102500,
          "type": "drum_hit",
          "pitch": 36,
          "duration_ms": 112,
          "velocity": 110,
          "beat_index": 820,
          "section": "chorus"
        },
        {
          "t": 102500,
          "type": "drum_hit",
          "pitch": 38,
          "duration_ms": 112,
          "velocity": 100,
          "beat_index": 820,
          "section": "chorus"
        },
        {
          "t": 102500,
          "type": "drum_hit",
          "pitch": 42,
          "duration_ms": 112,
          "velocity": 80,
          "beat_index": 820,
          "section": "chorus"
        },
        {
          "t": 102750,
          "type": "drum_hit",
          "pitch": 42,
          "duration_ms": 112,
          "velocity": 80,
          "beat_index": 822,
          "section": "chorus"
        },
        {
          "t": 103000,
          "type": "drum_hit",
          "pitch": 36,
          "duration_ms": 112,
          "velocity": 110,
          "beat_index": 824,
          "section": "chorus"
        },
        {
          "t": 103000,
          "type": "drum_hit",
          "pitch": 42,
          "duration_ms": 112,
          "velocity": 80,
          "beat_index": 824,
          "section": "chorus"
        },
        {
          "t": 103250,
          "type": "drum_hit",
          "pitch": 42,
          "duration_ms": 112,
          "velocity": 80,
          "beat_index": 826,
          "section": "chorus"
        },
        {
          "t": 103500,
          "type": "drum_hit",
          "pitch": 36,
          "duration_ms": 112,
          "velocity": 110,
          "beat_index": 828,
          "section": "chorus"
        },
        {
          "t": 103500,
          "type": "drum_hit",
          "pitch": 38,
          "duration_ms": 112,
          "velocity": 100,
          "beat_index": 828,
          "section": "chorus"
        },
        {
          "t": 103500,
          "type": "drum_hit",
          "pitch": 42,
          "duration_ms": 112,
          "velocity": 80,
          "beat_index": 828,
          "section": "chorus"
        },
        {
          "t": 103750,
          "type": "drum_hit",
          "pitch": 42,
          "duration_ms": 112,
          "velocity": 80,
          "beat_index": 830,
          "section": "chorus"
        },
        {
          "t": 104000,
          "type": "drum_hit",
          "pitch": 36,
          "duration_ms": 112,
          "velocity": 110,
          "beat_index": 832,
          "section": "chorus"
        },
        {
          "t": 104000,
          "type": "drum_hit",
          "pitch": 42,
          "duration_ms": 112,
          "velocity": 80,
          "beat_index": 832,
          "section": "chorus"
        },
        {
          "t": 104250,
          "type": "drum_hit",
          "pitch": 42,
          "duration_ms": 112,
          "velocity": 80,
          "beat_index": 834,
          "section": "chorus"
        },
        {
          "t": 104500,
          "type": "drum_hit",
          "pitch": 36,
          "duration_ms": 112,
          "velocity": 110,
          "beat_index": 836,
          "section": "chorus"
        },
        {
          "t": 104500,
          "type": "drum_hit",
          "pitch": 38,
          "duration_ms": 112,
          "velocity": 100,
          "beat_index": 836,
          "section": "chorus"
        },
        {
          "t": 104500,
          "type": "drum_hit",
          "pitch": 42,
          "duration_ms": 112,
          "velocity": 80,
          "beat_index": 836,
          "section": "chorus"
        },
        {
          "t": 104750,
          "type": "drum_hit",
          "pitch": 42,
          "duration_ms": 112,
          "velocity": 80,
          "beat_index": 838,
          "section": "chorus"
        },
        {
          "t": 105000,
          "type": "drum_hit",
          "pitch": 36,
          "duration_ms": 112,
          "velocity": 110,
          "beat_index": 840,
          "section": "chorus"
        },
        {
          "t": 105000,
          "type": "drum_hit",
          "pitch": 42,
          "duration_ms": 112,
          "velocity": 80,
          "beat_index": 840,
          "section": "chorus"
        },
        {
          "t": 105250,
          "type": "drum_hit",
          "pitch": 42,
          "duration_ms": 112,
          "velocity": 80,
          "beat_index": 842,
          "section": "chorus"
        },
        {
          "t": 105500,
          "type": "drum_hit",
          "pitch": 36,
          "duration_ms": 112,
          "velocity": 110,
          "beat_index": 844,
          "section": "chorus"
        },
        {
          "t": 105500,
          "type": "drum_hit",
          "pitch": 38,
          "duration_ms": 112,
          "velocity": 100,
          "beat_index": 844,
          "section": "chorus"
        },
        {
          "t": 105500,
          "type": "drum_hit",
          "pitch": 42,
          "duration_ms": 112,
          "velocity": 80,
          "beat_index": 844,
          "section": "chorus"
        },
        {
          "t": 105750,
          "type": "drum_hit",
          "pitch": 42,
          "duration_ms": 112,
          "velocity": 80,
          "beat_index": 846,
          "section": "chorus"
        },
        {
          "t": 106000,
          "type": "drum_hit",
          "pitch": 36,
          "duration_ms": 112,
          "velocity": 110,
          "beat_index": 848,
          "section": "chorus"
        },
        {
          "t": 106000,
          "type": "drum_hit",
          "pitch": 42,
          "duration_ms": 112,
          "velocity": 80,
          "beat_index": 848,
          "section": "chorus"
        },
        {
          "t": 106250,
          "type": "drum_hit",
          "pitch": 42,
          "duration_ms": 112,
          "velocity": 80,
          "beat_index": 850,
          "section": "chorus"
        },
        {
          "t": 106500,
          "type": "drum_hit",
          "pitch": 36,
          "duration_ms": 112,
          "velocity": 110,
          "beat_index": 852,
          "section": "chorus"
        },
        {
          "t": 106500,
          "type": "drum_hit",
          "pitch": 38,
          "duration_ms": 112,
          "velocity": 100,
          "beat_index": 852,
          "section": "chorus"
        },
        {
          "t": 106500,
          "type": "drum_hit",
          "pitch": 42,
          "duration_ms": 112,
          "velocity": 80,
          "beat_index": 852,
          "section": "chorus"
        },
        {
          "t": 106750,
          "type": "drum_hit",
          "pitch": 42,
          "duration_ms": 112,
          "velocity": 80,
          "beat_index": 854,
          "section": "chorus"
        },
        {
          "t": 107000,
          "type": "drum_hit",
          "pitch": 36,
          "duration_ms": 112,
          "velocity": 110,
          "beat_index": 856,
          "section": "chorus"
        },
        {
          "t": 107000,
          "type": "drum_hit",
          "pitch": 42,
          "duration_ms": 112,
          "velocity": 80,
          "beat_index": 856,
          "section": "chorus"
        },
        {
          "t": 107250,
          "type": "drum_hit",
          "pitch": 42,
          "duration_ms": 112,
          "velocity": 80,
          "beat_index": 858,
          "section": "chorus"
        },
        {
          "t": 107500,
          "type": "drum_hit",
          "pitch": 36,
          "duration_ms": 112,
          "velocity": 110,
          "beat_index": 860,
          "section": "chorus"
        },
        {
          "t": 107500,
          "type": "drum_hit",
          "pitch": 38,
          "duration_ms": 112,
          "velocity": 100,
          "beat_index": 860,
          "section": "chorus"
        },
        {
          "t": 107500,
          "type": "drum_hit",
          "pitch": 42,
          "duration_ms": 112,
          "velocity": 80,
          "beat_index": 860,
          "section": "chorus"
        },
        {
          "t": 107750,
          "type": "drum_hit",
          "pitch": 42,
          "duration_ms": 112,
          "velocity": 80,
          "beat_index": 862,
          "section": "chorus"
        },
        {
          "t": 108000,
          "type": "drum_hit",
          "pitch": 36,
          "duration_ms": 112,
          "velocity": 110,
          "beat_index": 864,
          "section": "chorus"
        },
        {
          "t": 108000,
          "type": "drum_hit",
          "pitch": 42,
          "duration_ms": 112,
          "velocity": 80,
          "beat_index": 864,
          "section": "chorus"
        },
        {
          "t": 108250,
          "type": "drum_hit",
          "pitch": 42,
          "duration_ms": 112,
          "velocity": 80,
          "beat_index": 866,
          "section": "chorus"
        },
        {
          "t": 108500,
          "type": "drum_hit",
          "pitch": 36,
          "duration_ms": 112,
          "velocity": 110,
          "beat_index": 868,
          "section": "chorus"
        },
        {
          "t": 108500,
          "type": "drum_hit",
          "pitch": 38,
          "duration_ms": 112,
          "velocity": 100,
          "beat_index": 868,
          "section": "chorus"
        },
        {
          "t": 108500,
          "type": "drum_hit",
          "pitch": 42,
          "duration_ms": 112,
          "velocity": 80,
          "beat_index": 868,
          "section": "chorus"
        },
        {
          "t": 108750,
          "type": "drum_hit",
          "pitch": 42,
          "duration_ms": 112,
          "velocity": 80,
          "beat_index": 870,
          "section": "chorus"
        },
        {
          "t": 109000,
          "type": "drum_hit",
          "pitch": 36,
          "duration_ms": 112,
          "velocity": 110,
          "beat_index": 872,
          "section": "chorus"
        },
        {
          "t": 109000,
          "type": "drum_hit",
          "pitch": 42,
          "duration_ms": 112,
          "velocity": 80,
          "beat_index": 872,
          "section": "chorus"
        },
        {
          "t": 109250,
          "type": "drum_hit",
          "pitch": 42,
          "duration_ms": 112,
          "velocity": 80,
          "beat_index": 874,
          "section": "chorus"
        },
        {
          "t": 109500,
          "type": "drum_hit",
          "pitch": 36,
          "duration_ms": 112,
          "velocity": 110,
          "beat_index": 876,
          "section": "chorus"
        },
        {
          "t": 109500,
          "type": "drum_hit",
          "pitch": 38,
          "duration_ms": 112,
          "velocity": 100,
          "beat_index": 876,
          "section": "chorus"
        },
        {
          "t": 109500,
          "type": "drum_hit",
          "pitch": 42,
          "duration_ms": 112,
          "velocity": 80,
          "beat_index": 876,
          "section": "chorus"
        },
        {
          "t": 109750,
          "type": "drum_hit",
          "pitch": 42,
          "duration_ms": 112,
          "velocity": 80,
          "beat_index": 878,
          "section": "chorus"
        },
        {
          "t": 110000,
          "type": "drum_hit",
          "pitch": 36,
          "duration_ms": 112,
          "velocity": 110,
          "beat_index": 880,
          "section": "chorus"
        },
        {
          "t": 110000,
          "type": "drum_hit",
          "pitch": 42,
          "duration_ms": 112,
          "velocity": 80,
          "beat_index": 880,
          "section": "chorus"
        },
        {
          "t": 110250,
          "type": "drum_hit",
          "pitch": 42,
          "duration_ms": 112,
          "velocity": 80,
          "beat_index": 882,
          "section": "chorus"
        },
        {
          "t": 110500,
          "type": "drum_hit",
          "pitch": 36,
          "duration_ms": 112,
          "velocity": 110,
          "beat_index": 884,
          "section": "chorus"
        },
        {
          "t": 110500,
          "type": "drum_hit",
          "pitch": 38,
          "duration_ms": 112,
          "velocity": 100,
          "beat_index": 884,
          "section": "chorus"
        },
        {
          "t": 110500,
          "type": "drum_hit",
          "pitch": 42,
          "duration_ms": 112,
          "velocity": 80,
          "beat_index": 884,
          "section": "chorus"
        },
        {
          "t": 110750,
          "type": "drum_hit",
          "pitch": 42,
          "duration_ms": 112,
          "velocity": 80,
          "beat_index": 886,
          "section": "chorus"
        },
        {
          "t": 111000,
          "type": "drum_hit",
          "pitch": 36,
          "duration_ms": 112,
          "velocity": 110,
          "beat_index": 888,
          "section": "chorus"
        },
        {
          "t": 111000,
          "type": "drum_hit",
          "pitch": 42,
          "duration_ms": 112,
          "velocity": 80,
          "beat_index": 888,
          "section": "chorus"
        },
        {
          "t": 111250,
          "type": "drum_hit",
          "pitch": 42,
          "duration_ms": 112,
          "velocity": 80,
          "beat_index": 890,
          "section": "chorus"
        },
        {
          "t": 111500,
          "type": "drum_hit",
          "pitch": 36,
          "duration_ms": 112,
          "velocity": 110,
          "beat_index": 892,
          "section": "chorus"
        },
        {
          "t": 111500,
          "type": "drum_hit",
          "pitch": 38,
          "duration_ms": 112,
          "velocity": 100,
          "beat_index": 892,
          "section": "chorus"
        },
        {
          "t": 111500,
          "type": "drum_hit",
          "pitch": 42,
          "duration_ms": 112,
          "velocity": 80,
          "beat_index": 892,
          "section": "chorus"
        },
        {
          "t": 111750,
          "type": "drum_hit",
          "pitch": 42,
          "duration_ms": 112,
          "velocity": 80,
          "beat_index": 894,
          "section": "chorus"
        },
        {
          "t": 112000,
          "type": "drum_hit",
          "pitch": 36,
          "duration_ms": 112,
          "velocity": 110,
          "beat_index": 896,
          "section": "chorus"
        },
        {
          "t": 112000,
          "type": "drum_hit",
          "pitch": 42,
          "duration_ms": 112,
          "velocity": 80,
          "beat_index": 896,
          "section": "chorus"
        },
        {
          "t": 112250,
          "type": "drum_hit",
          "pitch": 42,
          "duration_ms": 112,
          "velocity": 80,
          "beat_index": 898,
          "section": "chorus"
        },
        {
          "t": 112500,
          "type": "drum_hit",
          "pitch": 36,
          "duration_ms": 112,
          "velocity": 110,
          "beat_index": 900,
          "section": "chorus"
        },
        {
          "t": 112500,
          "type": "drum_hit",
          "pitch": 38,
          "duration_ms": 112,
          "velocity": 100,
          "beat_index": 900,
          "section": "chorus"
        },
        {
          "t": 112500,
          "type": "drum_hit",
          "pitch": 42,
          "duration_ms": 112,
          "velocity": 80,
          "beat_index": 900,
          "section": "chorus"
        },
        {
          "t": 112750,
          "type": "drum_hit",
          "pitch": 42,
          "duration_ms": 112,
          "velocity": 80,
          "beat_index": 902,
          "section": "chorus"
        },
        {
          "t": 113000,
          "type": "drum_hit",
          "pitch": 36,
          "duration_ms": 112,
          "velocity": 110,
          "beat_index": 904,
          "section": "chorus"
        },
        {
          "t": 113000,
          "type": "drum_hit",
          "pitch": 42,
          "duration_ms": 112,
          "velocity": 80,
          "beat_index": 904,
          "section": "chorus"
        },
        {
          "t": 113250,
          "type": "drum_hit",
          "pitch": 42,
          "duration_ms": 112,
          "velocity": 80,
          "beat_index": 906,
          "section": "chorus"
        },
        {
          "t": 113500,
          "type": "drum_hit",
          "pitch": 36,
          "duration_ms": 112,
          "velocity": 110,
          "beat_index": 908,
          "section": "chorus"
        },
        {
          "t": 113500,
          "type": "drum_hit",
          "pitch": 38,
          "duration_ms": 112,
          "velocity": 100,
          "beat_index": 908,
          "section": "chorus"
        },
        {
          "t": 113500,
          "type": "drum_hit",
          "pitch": 42,
          "duration_ms": 112,
          "velocity": 80,
          "beat_index": 908,
          "section": "chorus"
        },
        {
          "t": 113750,
          "type": "drum_hit",
          "pitch": 42,
          "duration_ms": 112,
          "velocity": 80,
          "beat_index": 910,
          "section": "chorus"
        },
        {
          "t": 114000,
          "type": "drum_hit",
          "pitch": 36,
          "duration_ms": 112,
          "velocity": 110,
          "beat_index": 912,
          "section": "chorus"
        },
        {
          "t": 114000,
          "type": "drum_hit",
          "pitch": 42,
          "duration_ms": 112,
          "velocity": 80,
          "beat_index": 912,
          "section": "chorus"
        },
        {
          "t": 114250,
          "type": "drum_hit",
          "pitch": 42,
          "duration_ms": 112,
          "velocity": 80,
          "beat_index": 914,
          "section": "chorus"
        },
        {
          "t": 114500,
          "type": "drum_hit",
          "pitch": 36,
          "duration_ms": 112,
          "velocity": 110,
          "beat_index": 916,
          "section": "chorus"
        },
        {
          "t": 114500,
          "type": "drum_hit",
          "pitch": 38,
          "duration_ms": 112,
          "velocity": 100,
          "beat_index": 916,
          "section": "chorus"
        },
        {
          "t": 114500,
          "type": "drum_hit",
          "pitch": 42,
          "duration_ms": 112,
          "velocity": 80,
          "beat_index": 916,
          "section": "chorus"
        },
        {
          "t": 114750,
          "type": "drum_hit",
          "pitch": 42,
          "duration_ms": 112,
          "velocity": 80,
          "beat_index": 918,
          "section": "chorus"
        },
        {
          "t": 115000,
          "type": "drum_hit",
          "pitch": 36,
          "duration_ms": 112,
          "velocity": 110,
          "beat_index": 920,
          "section": "chorus"
        },
        {
          "t": 115000,
          "type": "drum_hit",
          "pitch": 42,
          "duration_ms": 112,
          "velocity": 80,
          "beat_index": 920,
          "section": "chorus"
        },
        {
          "t": 115250,
          "type": "drum_hit",
          "pitch": 42,
          "duration_ms": 112,
          "velocity": 80,
          "beat_index": 922,
          "section": "chorus"
        },
        {
          "t": 115500,
          "type": "drum_hit",
          "pitch": 36,
          "duration_ms": 112,
          "velocity": 110,
          "beat_index": 924,
          "section": "chorus"
        },
        {
          "t": 115500,
          "type": "drum_hit",
          "pitch": 38,
          "duration_ms": 112,
          "velocity": 100,
          "beat_index": 924,
          "section": "chorus"
        },
        {
          "t": 115500,
          "type": "drum_hit",
          "pitch": 42,
          "duration_ms": 112,
          "velocity": 80,
          "beat_index": 924,
          "section": "chorus"
        },
        {
          "t": 115750,
          "type": "drum_hit",
          "pitch": 42,
          "duration_ms": 112,
          "velocity": 80,
          "beat_index": 926,
          "section": "chorus"
        },
        {
          "t": 116000,
          "type": "drum_hit",
          "pitch": 36,
          "duration_ms": 112,
          "velocity": 110,
          "beat_index": 928,
          "section": "chorus"
        },
        {
          "t": 116000,
          "type": "drum_hit",
          "pitch": 42,
          "duration_ms": 112,
          "velocity": 80,
          "beat_index": 928,
          "section": "chorus"
        },
        {
          "t": 116250,
          "type": "drum_hit",
          "pitch": 42,
          "duration_ms": 112,
          "velocity": 80,
          "beat_index": 930,
          "section": "chorus"
        },
        {
          "t": 116500,
          "type": "drum_hit",
          "pitch": 36,
          "duration_ms": 112,
          "velocity": 110,
          "beat_index": 932,
          "section": "chorus"
        },
        {
          "t": 116500,
          "type": "drum_hit",
          "pitch": 38,
          "duration_ms": 112,
          "velocity": 100,
          "beat_index": 932,
          "section": "chorus"
        },
        {
          "t": 116500,
          "type": "drum_hit",
          "pitch": 42,
          "duration_ms": 112,
          "velocity": 80,
          "beat_index": 932,
          "section": "chorus"
        },
        {
          "t": 116750,
          "type": "drum_hit",
          "pitch": 42,
          "duration_ms": 112,
          "velocity": 80,
          "beat_index": 934,
          "section": "chorus"
        },
        {
          "t": 117000,
          "type": "drum_hit",
          "pitch": 36,
          "duration_ms": 112,
          "velocity": 110,
          "beat_index": 936,
          "section": "chorus"
        },
        {
          "t": 117000,
          "type": "drum_hit",
          "pitch": 42,
          "duration_ms": 112,
          "velocity": 80,
          "beat_index": 936,
          "section": "chorus"
        },
        {
          "t": 117250,
          "type": "drum_hit",
          "pitch": 42,
          "duration_ms": 112,
          "velocity": 80,
          "beat_index": 938,
          "section": "chorus"
        },
        {
          "t": 117500,
          "type": "drum_hit",
          "pitch": 36,
          "duration_ms": 112,
          "velocity": 110,
          "beat_index": 940,
          "section": "chorus"
        },
        {
          "t": 117500,
          "type": "drum_hit",
          "pitch": 38,
          "duration_ms": 112,
          "velocity": 100,
          "beat_index": 940,
          "section": "chorus"
        },
        {
          "t": 117500,
          "type": "drum_hit",
          "pitch": 42,
          "duration_ms": 112,
          "velocity": 80,
          "beat_index": 940,
          "section": "chorus"
        },
        {
          "t": 117750,
          "type": "drum_hit",
          "pitch": 42,
          "duration_ms": 112,
          "velocity": 80,
          "beat_index": 942,
          "section": "chorus"
        },
        {
          "t": 118000,
          "type": "drum_hit",
          "pitch": 36,
          "duration_ms": 112,
          "velocity": 110,
          "beat_index": 944,
          "section": "chorus"
        },
        {
          "t": 118000,
          "type": "drum_hit",
          "pitch": 42,
          "duration_ms": 112,
          "velocity": 80,
          "beat_index": 944,
          "section": "chorus"
        },
        {
          "t": 118250,
          "type": "drum_hit",
          "pitch": 42,
          "duration_ms": 112,
          "velocity": 80,
          "beat_index": 946,
          "section": "chorus"
        },
        {
          "t": 118500,
          "type": "drum_hit",
          "pitch": 36,
          "duration_ms": 112,
          "velocity": 110,
          "beat_index": 948,
          "section": "chorus"
        },
        {
          "t": 118500,
          "type": "drum_hit",
          "pitch": 38,
          "duration_ms": 112,
          "velocity": 100,
          "beat_index": 948,
          "section": "chorus"
        },
        {
          "t": 118500,
          "type": "drum_hit",
          "pitch": 42,
          "duration_ms": 112,
          "velocity": 80,
          "beat_index": 948,
          "section": "chorus"
        },
        {
          "t": 118750,
          "type": "drum_hit",
          "pitch": 42,
          "duration_ms": 112,
          "velocity": 80,
          "beat_index": 950,
          "section": "chorus"
        },
        {
          "t": 119000,
          "type": "drum_hit",
          "pitch": 36,
          "duration_ms": 112,
          "velocity": 110,
          "beat_index": 952,
          "section": "chorus"
        },
        {
          "t": 119000,
          "type": "drum_hit",
          "pitch": 42,
          "duration_ms": 112,
          "velocity": 80,
          "beat_index": 952,
          "section": "chorus"
        },
        {
          "t": 119250,
          "type": "drum_hit",
          "pitch": 42,
          "duration_ms": 112,
          "velocity": 80,
          "beat_index": 954,
          "section": "chorus"
        },
        {
          "t": 119500,
          "type": "drum_hit",
          "pitch": 36,
          "duration_ms": 112,
          "velocity": 110,
          "beat_index": 956,
          "section": "chorus"
        },
        {
          "t": 119500,
          "type": "drum_hit",
          "pitch": 38,
          "duration_ms": 112,
          "velocity": 100,
          "beat_index": 956,
          "section": "chorus"
        },
        {
          "t": 119500,
          "type": "drum_hit",
          "pitch": 42,
          "duration_ms": 112,
          "velocity": 80,
          "beat_index": 956,
          "section": "chorus"
        },
        {
          "t": 119750,
          "type": "drum_hit",
          "pitch": 42,
          "duration_ms": 112,
          "velocity": 80,
          "beat_index": 958,
          "section": "chorus"
        },
        {
          "t": 120000,
          "type": "drum_hit",
          "pitch": 36,
          "duration_ms": 112,
          "velocity": 110,
          "beat_index": 960,
          "section": "chorus"
        },
        {
          "t": 120000,
          "type": "drum_hit",
          "pitch": 42,
          "duration_ms": 112,
          "velocity": 80,
          "beat_index": 960,
          "section": "chorus"
        },
        {
          "t": 120250,
          "type": "drum_hit",
          "pitch": 42,
          "duration_ms": 112,
          "velocity": 80,
          "beat_index": 962,
          "section": "chorus"
        },
        {
          "t": 120500,
          "type": "drum_hit",
          "pitch": 36,
          "duration_ms": 112,
          "velocity": 110,
          "beat_index": 964,
          "section": "chorus"
        },
        {
          "t": 120500,
          "type": "drum_hit",
          "pitch": 38,
          "duration_ms": 112,
          "velocity": 100,
          "beat_index": 964,
          "section": "chorus"
        },
        {
          "t": 120500,
          "type": "drum_hit",
          "pitch": 42,
          "duration_ms": 112,
          "velocity": 80,
          "beat_index": 964,
          "section": "chorus"
        },
        {
          "t": 120750,
          "type": "drum_hit",
          "pitch": 42,
          "duration_ms": 112,
          "velocity": 80,
          "beat_index": 966,
          "section": "chorus"
        },
        {
          "t": 121000,
          "type": "drum_hit",
          "pitch": 36,
          "duration_ms": 112,
          "velocity": 110,
          "beat_index": 968,
          "section": "chorus"
        },
        {
          "t": 121000,
          "type": "drum_hit",
          "pitch": 42,
          "duration_ms": 112,
          "velocity": 80,
          "beat_index": 968,
          "section": "chorus"
        },
        {
          "t": 121250,
          "type": "drum_hit",
          "pitch": 42,
          "duration_ms": 112,
          "velocity": 80,
          "beat_index": 970,
          "section": "chorus"
        },
        {
          "t": 121500,
          "type": "drum_hit",
          "pitch": 36,
          "duration_ms": 112,
          "velocity": 110,
          "beat_index": 972,
          "section": "chorus"
        },
        {
          "t": 121500,
          "type": "drum_hit",
          "pitch": 38,
          "duration_ms": 112,
          "velocity": 100,
          "beat_index": 972,
          "section": "chorus"
        },
        {
          "t": 121500,
          "type": "drum_hit",
          "pitch": 42,
          "duration_ms": 112,
          "velocity": 80,
          "beat_index": 972,
          "section": "chorus"
        },
        {
          "t": 121750,
          "type": "drum_hit",
          "pitch": 42,
          "duration_ms": 112,
          "velocity": 80,
          "beat_index": 974,
          "section": "chorus"
        },
        {
          "t": 122000,
          "type": "drum_hit",
          "pitch": 36,
          "duration_ms": 112,
          "velocity": 110,
          "beat_index": 976,
          "section": "chorus"
        },
        {
          "t": 122000,
          "type": "drum_hit",
          "pitch": 42,
          "duration_ms": 112,
          "velocity": 80,
          "beat_index": 976,
          "section": "chorus"
        },
        {
          "t": 122250,
          "type": "drum_hit",
          "pitch": 42,
          "duration_ms": 112,
          "velocity": 80,
          "beat_index": 978,
          "section": "chorus"
        },
        {
          "t": 122500,
          "type": "drum_hit",
          "pitch": 36,
          "duration_ms": 112,
          "velocity": 110,
          "beat_index": 980,
          "section": "chorus"
        },
        {
          "t": 122500,
          "type": "drum_hit",
          "pitch": 38,
          "duration_ms": 112,
          "velocity": 100,
          "beat_index": 980,
          "section": "chorus"
        },
        {
          "t": 122500,
          "type": "drum_hit",
          "pitch": 42,
          "duration_ms": 112,
          "velocity": 80,
          "beat_index": 980,
          "section": "chorus"
        },
        {
          "t": 122750,
          "type": "drum_hit",
          "pitch": 42,
          "duration_ms": 112,
          "velocity": 80,
          "beat_index": 982,
          "section": "chorus"
        },
        {
          "t": 123000,
          "type": "drum_hit",
          "pitch": 36,
          "duration_ms": 112,
          "velocity": 110,
          "beat_index": 984,
          "section": "chorus"
        },
        {
          "t": 123000,
          "type": "drum_hit",
          "pitch": 42,
          "duration_ms": 112,
          "velocity": 80,
          "beat_index": 984,
          "section": "chorus"
        },
        {
          "t": 123250,
          "type": "drum_hit",
          "pitch": 42,
          "duration_ms": 112,
          "velocity": 80,
          "beat_index": 986,
          "section": "chorus"
        },
        {
          "t": 123500,
          "type": "drum_hit",
          "pitch": 36,
          "duration_ms": 112,
          "velocity": 110,
          "beat_index": 988,
          "section": "chorus"
        },
        {
          "t": 123500,
          "type": "drum_hit",
          "pitch": 38,
          "duration_ms": 112,
          "velocity": 100,
          "beat_index": 988,
          "section": "chorus"
        },
        {
          "t": 123500,
          "type": "drum_hit",
          "pitch": 42,
          "duration_ms": 112,
          "velocity": 80,
          "beat_index": 988,
          "section": "chorus"
        },
        {
          "t": 123750,
          "type": "drum_hit",
          "pitch": 42,
          "duration_ms": 112,
          "velocity": 80,
          "beat_index": 990,
          "section": "chorus"
        },
        {
          "t": 124000,
          "type": "drum_hit",
          "pitch": 36,
          "duration_ms": 112,
          "velocity": 110,
          "beat_index": 992,
          "section": "chorus"
        },
        {
          "t": 124000,
          "type": "drum_hit",
          "pitch": 42,
          "duration_ms": 112,
          "velocity": 80,
          "beat_index": 992,
          "section": "chorus"
        },
        {
          "t": 124250,
          "type": "drum_hit",
          "pitch": 42,
          "duration_ms": 112,
          "velocity": 80,
          "beat_index": 994,
          "section": "chorus"
        },
        {
          "t": 124500,
          "type": "drum_hit",
          "pitch": 36,
          "duration_ms": 112,
          "velocity": 110,
          "beat_index": 996,
          "section": "chorus"
        },
        {
          "t": 124500,
          "type": "drum_hit",
          "pitch": 38,
          "duration_ms": 112,
          "velocity": 100,
          "beat_index": 996,
          "section": "chorus"
        },
        {
          "t": 124500,
          "type": "drum_hit",
          "pitch": 42,
          "duration_ms": 112,
          "velocity": 80,
          "beat_index": 996,
          "section": "chorus"
        },
        {
          "t": 124750,
          "type": "drum_hit",
          "pitch": 42,
          "duration_ms": 112,
          "velocity": 80,
          "beat_index": 998,
          "section": "chorus"
        },
        {
          "t": 125000,
          "type": "drum_hit",
          "pitch": 36,
          "duration_ms": 112,
          "velocity": 110,
          "beat_index": 1000,
          "section": "chorus"
        },
        {
          "t": 125000,
          "type": "drum_hit",
          "pitch": 42,
          "duration_ms": 112,
          "velocity": 80,
          "beat_index": 1000,
          "section": "chorus"
        },
        {
          "t": 125250,
          "type": "drum_hit",
          "pitch": 42,
          "duration_ms": 112,
          "velocity": 80,
          "beat_index": 1002,
          "section": "chorus"
        },
        {
          "t": 125500,
          "type": "drum_hit",
          "pitch": 36,
          "duration_ms": 112,
          "velocity": 110,
          "beat_index": 1004,
          "section": "chorus"
        },
        {
          "t": 125500,
          "type": "drum_hit",
          "pitch": 38,
          "duration_ms": 112,
          "velocity": 100,
          "beat_index": 1004,
          "section": "chorus"
        },
        {
          "t": 125500,
          "type": "drum_hit",
          "pitch": 42,
          "duration_ms": 112,
          "velocity": 80,
          "beat_index": 1004,
          "section": "chorus"
        },
        {
          "t": 125750,
          "type": "drum_hit",
          "pitch": 42,
          "duration_ms": 112,
          "velocity": 80,
          "beat_index": 1006,
          "section": "chorus"
        },
        {
          "t": 126000,
          "type": "drum_hit",
          "pitch": 36,
          "duration_ms": 112,
          "velocity": 110,
          "beat_index": 1008,
          "section": "chorus"
        },
        {
          "t": 126000,
          "type": "drum_hit",
          "pitch": 42,
          "duration_ms": 112,
          "velocity": 80,
          "beat_index": 1008,
          "section": "chorus"
        },
        {
          "t": 126250,
          "type": "drum_hit",
          "pitch": 42,
          "duration_ms": 112,
          "velocity": 80,
          "beat_index": 1010,
          "section": "chorus"
        },
        {
          "t": 126500,
          "type": "drum_hit",
          "pitch": 36,
          "duration_ms": 112,
          "velocity": 110,
          "beat_index": 1012,
          "section": "chorus"
        },
        {
          "t": 126500,
          "type": "drum_hit",
          "pitch": 38,
          "duration_ms": 112,
          "velocity": 100,
          "beat_index": 1012,
          "section": "chorus"
        },
        {
          "t": 126500,
          "type": "drum_hit",
          "pitch": 42,
          "duration_ms": 112,
          "velocity": 80,
          "beat_index": 1012,
          "section": "chorus"
        },
        {
          "t": 126750,
          "type": "drum_hit",
          "pitch": 42,
          "duration_ms": 112,
          "velocity": 80,
          "beat_index": 1014,
          "section": "chorus"
        },
        {
          "t": 127000,
          "type": "drum_hit",
          "pitch": 36,
          "duration_ms": 112,
          "velocity": 110,
          "beat_index": 1016,
          "section": "chorus"
        },
        {
          "t": 127000,
          "type": "drum_hit",
          "pitch": 42,
          "duration_ms": 112,
          "velocity": 80,
          "beat_index": 1016,
          "section": "chorus"
        },
        {
          "t": 127250,
          "type": "drum_hit",
          "pitch": 42,
          "duration_ms": 112,
          "velocity": 80,
          "beat_index": 1018,
          "section": "chorus"
        },
        {
          "t": 127500,
          "type": "drum_hit",
          "pitch": 36,
          "duration_ms": 112,
          "velocity": 110,
          "beat_index": 1020,
          "section": "chorus"
        },
        {
          "t": 127500,
          "type": "drum_hit",
          "pitch": 38,
          "duration_ms": 112,
          "velocity": 100,
          "beat_index": 1020,
          "section": "chorus"
        },
        {
          "t": 127500,
          "type": "drum_hit",
          "pitch": 42,
          "duration_ms": 112,
          "velocity": 80,
          "beat_index": 1020,
          "section": "chorus"
        },
        {
          "t": 127750,
          "type": "drum_hit",
          "pitch": 42,
          "duration_ms": 112,
          "velocity": 80,
          "beat_index": 1022,
          "section": "chorus"
        },
        {
          "t": 128000,
          "type": "drum_hit",
          "pitch": 36,
          "duration_ms": 112,
          "velocity": 110,
          "beat_index": 1024,
          "section": "chorus"
        },
        {
          "t": 128000,
          "type": "drum_hit",
          "pitch": 42,
          "duration_ms": 112,
          "velocity": 80,
          "beat_index": 1024,
          "section": "chorus"
        },
        {
          "t": 128250,
          "type": "drum_hit",
          "pitch": 42,
          "duration_ms": 112,
          "velocity": 80,
          "beat_index": 1026,
          "section": "chorus"
        },
        {
          "t": 128500,
          "type": "drum_hit",
          "pitch": 36,
          "duration_ms": 112,
          "velocity": 110,
          "beat_index": 1028,
          "section": "chorus"
        },
        {
          "t": 128500,
          "type": "drum_hit",
          "pitch": 38,
          "duration_ms": 112,
          "velocity": 100,
          "beat_index": 1028,
          "section": "chorus"
        },
        {
          "t": 128500,
          "type": "drum_hit",
          "pitch": 42,
          "duration_ms": 112,
          "velocity": 80,
          "beat_index": 1028,
          "section": "chorus"
        },
        {
          "t": 128750,
          "type": "drum_hit",
          "pitch": 42,
          "duration_ms": 112,
          "velocity": 80,
          "beat_index": 1030,
          "section": "chorus"
        },
        {
          "t": 129000,
          "type": "drum_hit",
          "pitch": 36,
          "duration_ms": 112,
          "velocity": 110,
          "beat_index": 1032,
          "section": "chorus"
        },
        {
          "t": 129000,
          "type": "drum_hit",
          "pitch": 42,
          "duration_ms": 112,
          "velocity": 80,
          "beat_index": 1032,
          "section": "chorus"
        },
        {
          "t": 129250,
          "type": "drum_hit",
          "pitch": 42,
          "duration_ms": 112,
          "velocity": 80,
          "beat_index": 1034,
          "section": "chorus"
        },
        {
          "t": 129500,
          "type": "drum_hit",
          "pitch": 36,
          "duration_ms": 112,
          "velocity": 110,
          "beat_index": 1036,
          "section": "chorus"
        },
        {
          "t": 129500,
          "type": "drum_hit",
          "pitch": 38,
          "duration_ms": 112,
          "velocity": 100,
          "beat_index": 1036,
          "section": "chorus"
        },
        {
          "t": 129500,
          "type": "drum_hit",
          "pitch": 42,
          "duration_ms": 112,
          "velocity": 80,
          "beat_index": 1036,
          "section": "chorus"
        },
        {
          "t": 129750,
          "type": "drum_hit",
          "pitch": 42,
          "duration_ms": 112,
          "velocity": 80,
          "beat_index": 1038,
          "section": "chorus"
        },
        {
          "t": 130000,
          "type": "drum_hit",
          "pitch": 36,
          "duration_ms": 112,
          "velocity": 110,
          "beat_index": 1040,
          "section": "chorus"
        },
        {
          "t": 130000,
          "type": "drum_hit",
          "pitch": 42,
          "duration_ms": 112,
          "velocity": 80,
          "beat_index": 1040,
          "section": "chorus"
        },
        {
          "t": 130250,
          "type": "drum_hit",
          "pitch": 42,
          "duration_ms": 112,
          "velocity": 80,
          "beat_index": 1042,
          "section": "chorus"
        },
        {
          "t": 130500,
          "type": "drum_hit",
          "pitch": 36,
          "duration_ms": 112,
          "velocity": 110,
          "beat_index": 1044,
          "section": "chorus"
        },
        {
          "t": 130500,
          "type": "drum_hit",
          "pitch": 38,
          "duration_ms": 112,
          "velocity": 100,
          "beat_index": 1044,
          "section": "chorus"
        },
        {
          "t": 130500,
          "type": "drum_hit",
          "pitch": 42,
          "duration_ms": 112,
          "velocity": 80,
          "beat_index": 1044,
          "section": "chorus"
        },
        {
          "t": 130750,
          "type": "drum_hit",
          "pitch": 42,
          "duration_ms": 112,
          "velocity": 80,
          "beat_index": 1046,
          "section": "chorus"
        },
        {
          "t": 131000,
          "type": "drum_hit",
          "pitch": 36,
          "duration_ms": 112,
          "velocity": 110,
          "beat_index": 1048,
          "section": "chorus"
        },
        {
          "t": 131000,
          "type": "drum_hit",
          "pitch": 42,
          "duration_ms": 112,
          "velocity": 80,
          "beat_index": 1048,
          "section": "chorus"
        },
        {
          "t": 131250,
          "type": "drum_hit",
          "pitch": 42,
          "duration_ms": 112,
          "velocity": 80,
          "beat_index": 1050,
          "section": "chorus"
        },
        {
          "t": 131500,
          "type": "drum_hit",
          "pitch": 36,
          "duration_ms": 112,
          "velocity": 110,
          "beat_index": 1052,
          "section": "chorus"
        },
        {
          "t": 131500,
          "type": "drum_hit",
          "pitch": 38,
          "duration_ms": 112,
          "velocity": 100,
          "beat_index": 1052,
          "section": "chorus"
        },
        {
          "t": 131500,
          "type": "drum_hit",
          "pitch": 42,
          "duration_ms": 112,
          "velocity": 80,
          "beat_index": 1052,
          "section": "chorus"
        },
        {
          "t": 131750,
          "type": "drum_hit",
          "pitch": 42,
          "duration_ms": 112,
          "velocity": 80,
          "beat_index": 1054,
          "section": "chorus"
        },
        {
          "t": 132000,
          "type": "drum_hit",
          "pitch": 36,
          "duration_ms": 112,
          "velocity": 110,
          "beat_index": 1056,
          "section": "chorus"
        },
        {
          "t": 132000,
          "type": "drum_hit",
          "pitch": 42,
          "duration_ms": 112,
          "velocity": 80,
          "beat_index": 1056,
          "section": "chorus"
        },
        {
          "t": 132250,
          "type": "drum_hit",
          "pitch": 42,
          "duration_ms": 112,
          "velocity": 80,
          "beat_index": 1058,
          "section": "chorus"
        },
        {
          "t": 132500,
          "type": "drum_hit",
          "pitch": 36,
          "duration_ms": 112,
          "velocity": 110,
          "beat_index": 1060,
          "section": "chorus"
        },
        {
          "t": 132500,
          "type": "drum_hit",
          "pitch": 38,
          "duration_ms": 112,
          "velocity": 100,
          "beat_index": 1060,
          "section": "chorus"
        },
        {
          "t": 132500,
          "type": "drum_hit",
          "pitch": 42,
          "duration_ms": 112,
          "velocity": 80,
          "beat_index": 1060,
          "section": "chorus"
        },
        {
          "t": 132750,
          "type": "drum_hit",
          "pitch": 42,
          "duration_ms": 112,
          "velocity": 80,
          "beat_index": 1062,
          "section": "chorus"
        },
        {
          "t": 133000,
          "type": "drum_hit",
          "pitch": 36,
          "duration_ms": 112,
          "velocity": 110,
          "beat_index": 1064,
          "section": "chorus"
        },
        {
          "t": 133000,
          "type": "drum_hit",
          "pitch": 42,
          "duration_ms": 112,
          "velocity": 80,
          "beat_index": 1064,
          "section": "chorus"
        },
        {
          "t": 133250,
          "type": "drum_hit",
          "pitch": 42,
          "duration_ms": 112,
          "velocity": 80,
          "beat_index": 1066,
          "section": "chorus"
        },
        {
          "t": 133500,
          "type": "drum_hit",
          "pitch": 36,
          "duration_ms": 112,
          "velocity": 110,
          "beat_index": 1068,
          "section": "chorus"
        },
        {
          "t": 133500,
          "type": "drum_hit",
          "pitch": 38,
          "duration_ms": 112,
          "velocity": 100,
          "beat_index": 1068,
          "section": "chorus"
        },
        {
          "t": 133500,
          "type": "drum_hit",
          "pitch": 42,
          "duration_ms": 112,
          "velocity": 80,
          "beat_index": 1068,
          "section": "chorus"
        },
        {
          "t": 133750,
          "type": "drum_hit",
          "pitch": 42,
          "duration_ms": 112,
          "velocity": 80,
          "beat_index": 1070,
          "section": "chorus"
        },
        {
          "t": 134000,
          "type": "drum_hit",
          "pitch": 36,
          "duration_ms": 112,
          "velocity": 110,
          "beat_index": 1072,
          "section": "chorus"
        },
        {
          "t": 134000,
          "type": "drum_hit",
          "pitch": 42,
          "duration_ms": 112,
          "velocity": 80,
          "beat_index": 1072,
          "section": "chorus"
        },
        {
          "t": 134250,
          "type": "drum_hit",
          "pitch": 42,
          "duration_ms": 112,
          "velocity": 80,
          "beat_index": 1074,
          "section": "chorus"
        },
        {
          "t": 134500,
          "type": "drum_hit",
          "pitch": 36,
          "duration_ms": 112,
          "velocity": 110,
          "beat_index": 1076,
          "section": "chorus"
        },
        {
          "t": 134500,
          "type": "drum_hit",
          "pitch": 38,
          "duration_ms": 112,
          "velocity": 100,
          "beat_index": 1076,
          "section": "chorus"
        },
        {
          "t": 134500,
          "type": "drum_hit",
          "pitch": 42,
          "duration_ms": 112,
          "velocity": 80,
          "beat_index": 1076,
          "section": "chorus"
        },
        {
          "t": 134750,
          "type": "drum_hit",
          "pitch": 42,
          "duration_ms": 112,
          "velocity": 80,
          "beat_index": 1078,
          "section": "chorus"
        },
        {
          "t": 135000,
          "type": "drum_hit",
          "pitch": 36,
          "duration_ms": 112,
          "velocity": 110,
          "beat_index": 1080,
          "section": "chorus"
        },
        {
          "t": 135000,
          "type": "drum_hit",
          "pitch": 42,
          "duration_ms": 112,
          "velocity": 80,
          "beat_index": 1080,
          "section": "chorus"
        },
        {
          "t": 135250,
          "type": "drum_hit",
          "pitch": 42,
          "duration_ms": 112,
          "velocity": 80,
          "beat_index": 1082,
          "section": "chorus"
        },
        {
          "t": 135500,
          "type": "drum_hit",
          "pitch": 36,
          "duration_ms": 112,
          "velocity": 110,
          "beat_index": 1084,
          "section": "chorus"
        },
        {
          "t": 135500,
          "type": "drum_hit",
          "pitch": 38,
          "duration_ms": 112,
          "velocity": 100,
          "beat_index": 1084,
          "section": "chorus"
        },
        {
          "t": 135500,
          "type": "drum_hit",
          "pitch": 42,
          "duration_ms": 112,
          "velocity": 80,
          "beat_index": 1084,
          "section": "chorus"
        },
        {
          "t": 135750,
          "type": "drum_hit",
          "pitch": 42,
          "duration_ms": 112,
          "velocity": 80,
          "beat_index": 1086,
          "section": "chorus"
        },
        {
          "t": 136000,
          "type": "drum_hit",
          "pitch": 36,
          "duration_ms": 112,
          "velocity": 110,
          "beat_index": 1088,
          "section": "chorus"
        },
        {
          "t": 136000,
          "type": "drum_hit",
          "pitch": 42,
          "duration_ms": 112,
          "velocity": 80,
          "beat_index": 1088,
          "section": "chorus"
        },
        {
          "t": 136250,
          "type": "drum_hit",
          "pitch": 42,
          "duration_ms": 112,
          "velocity": 80,
          "beat_index": 1090,
          "section": "chorus"
        },
        {
          "t": 136500,
          "type": "drum_hit",
          "pitch": 36,
          "duration_ms": 112,
          "velocity": 110,
          "beat_index": 1092,
          "section": "chorus"
        },
        {
          "t": 136500,
          "type": "drum_hit",
          "pitch": 38,
          "duration_ms": 112,
          "velocity": 100,
          "beat_index": 1092,
          "section": "chorus"
        },
        {
          "t": 136500,
          "type": "drum_hit",
          "pitch": 42,
          "duration_ms": 112,
          "velocity": 80,
          "beat_index": 1092,
          "section": "chorus"
        },
        {
          "t": 136750,
          "type": "drum_hit",
          "pitch": 42,
          "duration_ms": 112,
          "velocity": 80,
          "beat_index": 1094,
          "section": "chorus"
        },
        {
          "t": 137000,
          "type": "drum_hit",
          "pitch": 36,
          "duration_ms": 112,
          "velocity": 110,
          "beat_index": 1096,
          "section": "chorus"
        },
        {
          "t": 137000,
          "type": "drum_hit",
          "pitch": 42,
          "duration_ms": 112,
          "velocity": 80,
          "beat_index": 1096,
          "section": "chorus"
        },
        {
          "t": 137250,
          "type": "drum_hit",
          "pitch": 42,
          "duration_ms": 112,
          "velocity": 80,
          "beat_index": 1098,
          "section": "chorus"
        },
        {
          "t": 137500,
          "type": "drum_hit",
          "pitch": 36,
          "duration_ms": 112,
          "velocity": 110,
          "beat_index": 1100,
          "section": "chorus"
        },
        {
          "t": 137500,
          "type": "drum_hit",
          "pitch": 38,
          "duration_ms": 112,
          "velocity": 100,
          "beat_index": 1100,
          "section": "chorus"
        },
        {
          "t": 137500,
          "type": "drum_hit",
          "pitch": 42,
          "duration_ms": 112,
          "velocity": 80,
          "beat_index": 1100,
          "section": "chorus"
        },
        {
          "t": 137750,
          "type": "drum_hit",
          "pitch": 42,
          "duration_ms": 112,
          "velocity": 80,
          "beat_index": 1102,
          "section": "chorus"
        },
        {
          "t": 138000,
          "type": "drum_hit",
          "pitch": 36,
          "duration_ms": 112,
          "velocity": 110,
          "beat_index": 1104,
          "section": "chorus"
        },
        {
          "t": 138000,
          "type": "drum_hit",
          "pitch": 42,
          "duration_ms": 112,
          "velocity": 80,
          "beat_index": 1104,
          "section": "chorus"
        },
        {
          "t": 138250,
          "type": "drum_hit",
          "pitch": 42,
          "duration_ms": 112,
          "velocity": 80,
          "beat_index": 1106,
          "section": "chorus"
        },
        {
          "t": 138500,
          "type": "drum_hit",
          "pitch": 36,
          "duration_ms": 112,
          "velocity": 110,
          "beat_index": 1108,
          "section": "chorus"
        },
        {
          "t": 138500,
          "type": "drum_hit",
          "pitch": 38,
          "duration_ms": 112,
          "velocity": 100,
          "beat_index": 1108,
          "section": "chorus"
        },
        {
          "t": 138500,
          "type": "drum_hit",
          "pitch": 42,
          "duration_ms": 112,
          "velocity": 80,
          "beat_index": 1108,
          "section": "chorus"
        },
        {
          "t": 138750,
          "type": "drum_hit",
          "pitch": 42,
          "duration_ms": 112,
          "velocity": 80,
          "beat_index": 1110,
          "section": "chorus"
        },
        {
          "t": 139000,
          "type": "drum_hit",
          "pitch": 36,
          "duration_ms": 112,
          "velocity": 110,
          "beat_index": 1112,
          "section": "chorus"
        },
        {
          "t": 139000,
          "type": "drum_hit",
          "pitch": 42,
          "duration_ms": 112,
          "velocity": 80,
          "beat_index": 1112,
          "section": "chorus"
        },
        {
          "t": 139250,
          "type": "drum_hit",
          "pitch": 42,
          "duration_ms": 112,
          "velocity": 80,
          "beat_index": 1114,
          "section": "chorus"
        },
        {
          "t": 139500,
          "type": "drum_hit",
          "pitch": 36,
          "duration_ms": 112,
          "velocity": 110,
          "beat_index": 1116,
          "section": "chorus"
        },
        {
          "t": 139500,
          "type": "drum_hit",
          "pitch": 38,
          "duration_ms": 112,
          "velocity": 100,
          "beat_index": 1116,
          "section": "chorus"
        },
        {
          "t": 139500,
          "type": "drum_hit",
          "pitch": 42,
          "duration_ms": 112,
          "velocity": 80,
          "beat_index": 1116,
          "section": "chorus"
        },
        {
          "t": 139750,
          "type": "drum_hit",
          "pitch": 42,
          "duration_ms": 112,
          "velocity": 80,
          "beat_index": 1118,
          "section": "chorus"
        },
        {
          "t": 140000,
          "type": "drum_hit",
          "pitch": 36,
          "duration_ms": 112,
          "velocity": 110,
          "beat_index": 1120,
          "section": "chorus"
        },
        {
          "t": 140000,
          "type": "drum_hit",
          "pitch": 42,
          "duration_ms": 112,
          "velocity": 80,
          "beat_index": 1120,
          "section": "chorus"
        },
        {
          "t": 140250,
          "type": "drum_hit",
          "pitch": 42,
          "duration_ms": 112,
          "velocity": 80,
          "beat_index": 1122,
          "section": "chorus"
        },
        {
          "t": 140500,
          "type": "drum_hit",
          "pitch": 36,
          "duration_ms": 112,
          "velocity": 110,
          "beat_index": 1124,
          "section": "chorus"
        },
        {
          "t": 140500,
          "type": "drum_hit",
          "pitch": 38,
          "duration_ms": 112,
          "velocity": 100,
          "beat_index": 1124,
          "section": "chorus"
        },
        {
          "t": 140500,
          "type": "drum_hit",
          "pitch": 42,
          "duration_ms": 112,
          "velocity": 80,
          "beat_index": 1124,
          "section": "chorus"
        },
        {
          "t": 140750,
          "type": "drum_hit",
          "pitch": 42,
          "duration_ms": 112,
          "velocity": 80,
          "beat_index": 1126,
          "section": "chorus"
        },
        {
          "t": 141000,
          "type": "drum_hit",
          "pitch": 36,
          "duration_ms": 112,
          "velocity": 110,
          "beat_index": 1128,
          "section": "chorus"
        },
        {
          "t": 141000,
          "type": "drum_hit",
          "pitch": 42,
          "duration_ms": 112,
          "velocity": 80,
          "beat_index": 1128,
          "section": "chorus"
        },
        {
          "t": 141250,
          "type": "drum_hit",
          "pitch": 42,
          "duration_ms": 112,
          "velocity": 80,
          "beat_index": 1130,
          "section": "chorus"
        },
        {
          "t": 141500,
          "type": "drum_hit",
          "pitch": 36,
          "duration_ms": 112,
          "velocity": 110,
          "beat_index": 1132,
          "section": "chorus"
        },
        {
          "t": 141500,
          "type": "drum_hit",
          "pitch": 38,
          "duration_ms": 112,
          "velocity": 100,
          "beat_index": 1132,
          "section": "chorus"
        },
        {
          "t": 141500,
          "type": "drum_hit",
          "pitch": 42,
          "duration_ms": 112,
          "velocity": 80,
          "beat_index": 1132,
          "section": "chorus"
        },
        {
          "t": 141750,
          "type": "drum_hit",
          "pitch": 42,
          "duration_ms": 112,
          "velocity": 80,
          "beat_index": 1134,
          "section": "chorus"
        },
        {
          "t": 142000,
          "type": "drum_hit",
          "pitch": 36,
          "duration_ms": 112,
          "velocity": 110,
          "beat_index": 1136,
          "section": "chorus"
        },
        {
          "t": 142000,
          "type": "drum_hit",
          "pitch": 42,
          "duration_ms": 112,
          "velocity": 80,
          "beat_index": 1136,
          "section": "chorus"
        },
        {
          "t": 142250,
          "type": "drum_hit",
          "pitch": 42,
          "duration_ms": 112,
          "velocity": 80,
          "beat_index": 1138,
          "section": "chorus"
        },
        {
          "t": 142500,
          "type": "drum_hit",
          "pitch": 36,
          "duration_ms": 112,
          "velocity": 110,
          "beat_index": 1140,
          "section": "chorus"
        },
        {
          "t": 142500,
          "type": "drum_hit",
          "pitch": 38,
          "duration_ms": 112,
          "velocity": 100,
          "beat_index": 1140,
          "section": "chorus"
        },
        {
          "t": 142500,
          "type": "drum_hit",
          "pitch": 42,
          "duration_ms": 112,
          "velocity": 80,
          "beat_index": 1140,
          "section": "chorus"
        },
        {
          "t": 142750,
          "type": "drum_hit",
          "pitch": 42,
          "duration_ms": 112,
          "velocity": 80,
          "beat_index": 1142,
          "section": "chorus"
        },
        {
          "t": 143000,
          "type": "drum_hit",
          "pitch": 36,
          "duration_ms": 112,
          "velocity": 110,
          "beat_index": 1144,
          "section": "chorus"
        },
        {
          "t": 143000,
          "type": "drum_hit",
          "pitch": 42,
          "duration_ms": 112,
          "velocity": 80,
          "beat_index": 1144,
          "section": "chorus"
        },
        {
          "t": 143250,
          "type": "drum_hit",
          "pitch": 42,
          "duration_ms": 112,
          "velocity": 80,
          "beat_index": 1146,
          "section": "chorus"
        },
        {
          "t": 143500,
          "type": "drum_hit",
          "pitch": 36,
          "duration_ms": 112,
          "velocity": 110,
          "beat_index": 1148,
          "section": "chorus"
        },
        {
          "t": 143500,
          "type": "drum_hit",
          "pitch": 38,
          "duration_ms": 112,
          "velocity": 100,
          "beat_index": 1148,
          "section": "chorus"
        },
        {
          "t": 143500,
          "type": "drum_hit",
          "pitch": 42,
          "duration_ms": 112,
          "velocity": 80,
          "beat_index": 1148,
          "section": "chorus"
        },
        {
          "t": 143750,
          "type": "drum_hit",
          "pitch": 42,
          "duration_ms": 112,
          "velocity": 80,
          "beat_index": 1150,
          "section": "chorus"
        },
        {
          "t": 144000,
          "type": "drum_hit",
          "pitch": 36,
          "duration_ms": 112,
          "velocity": 110,
          "beat_index": 1152,
          "section": "chorus"
        },
        {
          "t": 144000,
          "type": "drum_hit",
          "pitch": 42,
          "duration_ms": 112,
          "velocity": 80,
          "beat_index": 1152,
          "section": "chorus"
        },
        {
          "t": 144250,
          "type": "drum_hit",
          "pitch": 42,
          "duration_ms": 112,
          "velocity": 80,
          "beat_index": 1154,
          "section": "chorus"
        },
        {
          "t": 144500,
          "type": "drum_hit",
          "pitch": 36,
          "duration_ms": 112,
          "velocity": 110,
          "beat_index": 1156,
          "section": "chorus"
        },
        {
          "t": 144500,
          "type": "drum_hit",
          "pitch": 38,
          "duration_ms": 112,
          "velocity": 100,
          "beat_index": 1156,
          "section": "chorus"
        },
        {
          "t": 144500,
          "type": "drum_hit",
          "pitch": 42,
          "duration_ms": 112,
          "velocity": 80,
          "beat_index": 1156,
          "section": "chorus"
        },
        {
          "t": 144750,
          "type": "drum_hit",
          "pitch": 42,
          "duration_ms": 112,
          "velocity": 80,
          "beat_index": 1158,
          "section": "chorus"
        },
        {
          "t": 145000,
          "type": "drum_hit",
          "pitch": 36,
          "duration_ms": 112,
          "velocity": 110,
          "beat_index": 1160,
          "section": "chorus"
        },
        {
          "t": 145000,
          "type": "drum_hit",
          "pitch": 42,
          "duration_ms": 112,
          "velocity": 80,
          "beat_index": 1160,
          "section": "chorus"
        },
        {
          "t": 145250,
          "type": "drum_hit",
          "pitch": 42,
          "duration_ms": 112,
          "velocity": 80,
          "beat_index": 1162,
          "section": "chorus"
        },
        {
          "t": 145500,
          "type": "drum_hit",
          "pitch": 36,
          "duration_ms": 112,
          "velocity": 110,
          "beat_index": 1164,
          "section": "chorus"
        },
        {
          "t": 145500,
          "type": "drum_hit",
          "pitch": 38,
          "duration_ms": 112,
          "velocity": 100,
          "beat_index": 1164,
          "section": "chorus"
        },
        {
          "t": 145500,
          "type": "drum_hit",
          "pitch": 42,
          "duration_ms": 112,
          "velocity": 80,
          "beat_index": 1164,
          "section": "chorus"
        },
        {
          "t": 145750,
          "type": "drum_hit",
          "pitch": 42,
          "duration_ms": 112,
          "velocity": 80,
          "beat_index": 1166,
          "section": "chorus"
        },
        {
          "t": 146000,
          "type": "drum_hit",
          "pitch": 36,
          "duration_ms": 112,
          "velocity": 110,
          "beat_index": 1168,
          "section": "chorus"
        },
        {
          "t": 146000,
          "type": "drum_hit",
          "pitch": 42,
          "duration_ms": 112,
          "velocity": 80,
          "beat_index": 1168,
          "section": "chorus"
        },
        {
          "t": 146250,
          "type": "drum_hit",
          "pitch": 42,
          "duration_ms": 112,
          "velocity": 80,
          "beat_index": 1170,
          "section": "chorus"
        },
        {
          "t": 146500,
          "type": "drum_hit",
          "pitch": 36,
          "duration_ms": 112,
          "velocity": 110,
          "beat_index": 1172,
          "section": "chorus"
        },
        {
          "t": 146500,
          "type": "drum_hit",
          "pitch": 38,
          "duration_ms": 112,
          "velocity": 100,
          "beat_index": 1172,
          "section": "chorus"
        },
        {
          "t": 146500,
          "type": "drum_hit",
          "pitch": 42,
          "duration_ms": 112,
          "velocity": 80,
          "beat_index": 1172,
          "section": "chorus"
        },
        {
          "t": 146750,
          "type": "drum_hit",
          "pitch": 42,
          "duration_ms": 112,
          "velocity": 80,
          "beat_index": 1174,
          "section": "chorus"
        },
        {
          "t": 147000,
          "type": "drum_hit",
          "pitch": 36,
          "duration_ms": 112,
          "velocity": 110,
          "beat_index": 1176,
          "section": "chorus"
        },
        {
          "t": 147000,
          "type": "drum_hit",
          "pitch": 42,
          "duration_ms": 112,
          "velocity": 80,
          "beat_index": 1176,
          "section": "chorus"
        },
        {
          "t": 147250,
          "type": "drum_hit",
          "pitch": 42,
          "duration_ms": 112,
          "velocity": 80,
          "beat_index": 1178,
          "section": "chorus"
        },
        {
          "t": 147500,
          "type": "drum_hit",
          "pitch": 36,
          "duration_ms": 112,
          "velocity": 110,
          "beat_index": 1180,
          "section": "chorus"
        },
        {
          "t": 147500,
          "type": "drum_hit",
          "pitch": 38,
          "duration_ms": 112,
          "velocity": 100,
          "beat_index": 1180,
          "section": "chorus"
        },
        {
          "t": 147500,
          "type": "drum_hit",
          "pitch": 42,
          "duration_ms": 112,
          "velocity": 80,
          "beat_index": 1180,
          "section": "chorus"
        },
        {
          "t": 147750,
          "type": "drum_hit",
          "pitch": 42,
          "duration_ms": 112,
          "velocity": 80,
          "beat_index": 1182,
          "section": "chorus"
        },
        {
          "t": 148000,
          "type": "drum_hit",
          "pitch": 36,
          "duration_ms": 112,
          "velocity": 110,
          "beat_index": 1184,
          "section": "chorus"
        },
        {
          "t": 148000,
          "type": "drum_hit",
          "pitch": 42,
          "duration_ms": 112,
          "velocity": 80,
          "beat_index": 1184,
          "section": "chorus"
        },
        {
          "t": 148250,
          "type": "drum_hit",
          "pitch": 42,
          "duration_ms": 112,
          "velocity": 80,
          "beat_index": 1186,
          "section": "chorus"
        },
        {
          "t": 148500,
          "type": "drum_hit",
          "pitch": 36,
          "duration_ms": 112,
          "velocity": 110,
          "beat_index": 1188,
          "section": "chorus"
        },
        {
          "t": 148500,
          "type": "drum_hit",
          "pitch": 38,
          "duration_ms": 112,
          "velocity": 100,
          "beat_index": 1188,
          "section": "chorus"
        },
        {
          "t": 148500,
          "type": "drum_hit",
          "pitch": 42,
          "duration_ms": 112,
          "velocity": 80,
          "beat_index": 1188,
          "section": "chorus"
        },
        {
          "t": 148750,
          "type": "drum_hit",
          "pitch": 42,
          "duration_ms": 112,
          "velocity": 80,
          "beat_index": 1190,
          "section": "chorus"
        },
        {
          "t": 149000,
          "type": "drum_hit",
          "pitch": 36,
          "duration_ms": 112,
          "velocity": 110,
          "beat_index": 1192,
          "section": "chorus"
        },
        {
          "t": 149000,
          "type": "drum_hit",
          "pitch": 42,
          "duration_ms": 112,
          "velocity": 80,
          "beat_index": 1192,
          "section": "chorus"
        },
        {
          "t": 149250,
          "type": "drum_hit",
          "pitch": 42,
          "duration_ms": 112,
          "velocity": 80,
          "beat_index": 1194,
          "section": "chorus"
        },
        {
          "t": 149500,
          "type": "drum_hit",
          "pitch": 36,
          "duration_ms": 112,
          "velocity": 110,
          "beat_index": 1196,
          "section": "chorus"
        },
        {
          "t": 149500,
          "type": "drum_hit",
          "pitch": 38,
          "duration_ms": 112,
          "velocity": 100,
          "beat_index": 1196,
          "section": "chorus"
        },
        {
          "t": 149500,
          "type": "drum_hit",
          "pitch": 42,
          "duration_ms": 112,
          "velocity": 80,
          "beat_index": 1196,
          "section": "chorus"
        },
        {
          "t": 149750,
          "type": "drum_hit",
          "pitch": 42,
          "duration_ms": 112,
          "velocity": 80,
          "beat_index": 1198,
          "section": "chorus"
        },
        {
          "t": 150000,
          "type": "drum_hit",
          "pitch": 36,
          "duration_ms": 112,
          "velocity": 110,
          "beat_index": 1200,
          "section": "chorus"
        },
        {
          "t": 150000,
          "type": "drum_hit",
          "pitch": 42,
          "duration_ms": 112,
          "velocity": 80,
          "beat_index": 1200,
          "section": "chorus"
        },
        {
          "t": 150250,
          "type": "drum_hit",
          "pitch": 42,
          "duration_ms": 112,
          "velocity": 80,
          "beat_index": 1202,
          "section": "chorus"
        },
        {
          "t": 150500,
          "type": "drum_hit",
          "pitch": 36,
          "duration_ms": 112,
          "velocity": 110,
          "beat_index": 1204,
          "section": "chorus"
        },
        {
          "t": 150500,
          "type": "drum_hit",
          "pitch": 38,
          "duration_ms": 112,
          "velocity": 100,
          "beat_index": 1204,
          "section": "chorus"
        },
        {
          "t": 150500,
          "type": "drum_hit",
          "pitch": 42,
          "duration_ms": 112,
          "velocity": 80,
          "beat_index": 1204,
          "section": "chorus"
        },
        {
          "t": 150750,
          "type": "drum_hit",
          "pitch": 42,
          "duration_ms": 112,
          "velocity": 80,
          "beat_index": 1206,
          "section": "chorus"
        },
        {
          "t": 151000,
          "type": "drum_hit",
          "pitch": 36,
          "duration_ms": 112,
          "velocity": 110,
          "beat_index": 1208,
          "section": "chorus"
        },
        {
          "t": 151000,
          "type": "drum_hit",
          "pitch": 42,
          "duration_ms": 112,
          "velocity": 80,
          "beat_index": 1208,
          "section": "chorus"
        },
        {
          "t": 151250,
          "type": "drum_hit",
          "pitch": 42,
          "duration_ms": 112,
          "velocity": 80,
          "beat_index": 1210,
          "section": "chorus"
        },
        {
          "t": 151500,
          "type": "drum_hit",
          "pitch": 36,
          "duration_ms": 112,
          "velocity": 110,
          "beat_index": 1212,
          "section": "chorus"
        },
        {
          "t": 151500,
          "type": "drum_hit",
          "pitch": 38,
          "duration_ms": 112,
          "velocity": 100,
          "beat_index": 1212,
          "section": "chorus"
        },
        {
          "t": 151500,
          "type": "drum_hit",
          "pitch": 42,
          "duration_ms": 112,
          "velocity": 80,
          "beat_index": 1212,
          "section": "chorus"
        },
        {
          "t": 151750,
          "type": "drum_hit",
          "pitch": 42,
          "duration_ms": 112,
          "velocity": 80,
          "beat_index": 1214,
          "section": "chorus"
        },
        {
          "t": 152000,
          "type": "drum_hit",
          "pitch": 36,
          "duration_ms": 112,
          "velocity": 110,
          "beat_index": 1216,
          "section": "chorus"
        },
        {
          "t": 152000,
          "type": "drum_hit",
          "pitch": 42,
          "duration_ms": 112,
          "velocity": 80,
          "beat_index": 1216,
          "section": "chorus"
        },
        {
          "t": 152250,
          "type": "drum_hit",
          "pitch": 42,
          "duration_ms": 112,
          "velocity": 80,
          "beat_index": 1218,
          "section": "chorus"
        },
        {
          "t": 152500,
          "type": "drum_hit",
          "pitch": 36,
          "duration_ms": 112,
          "velocity": 110,
          "beat_index": 1220,
          "section": "chorus"
        },
        {
          "t": 152500,
          "type": "drum_hit",
          "pitch": 38,
          "duration_ms": 112,
          "velocity": 100,
          "beat_index": 1220,
          "section": "chorus"
        },
        {
          "t": 152500,
          "type": "drum_hit",
          "pitch": 42,
          "duration_ms": 112,
          "velocity": 80,
          "beat_index": 1220,
          "section": "chorus"
        },
        {
          "t": 152750,
          "type": "drum_hit",
          "pitch": 42,
          "duration_ms": 112,
          "velocity": 80,
          "beat_index": 1222,
          "section": "chorus"
        },
        {
          "t": 153000,
          "type": "drum_hit",
          "pitch": 36,
          "duration_ms": 112,
          "velocity": 110,
          "beat_index": 1224,
          "section": "chorus"
        },
        {
          "t": 153000,
          "type": "drum_hit",
          "pitch": 42,
          "duration_ms": 112,
          "velocity": 80,
          "beat_index": 1224,
          "section": "chorus"
        },
        {
          "t": 153250,
          "type": "drum_hit",
          "pitch": 42,
          "duration_ms": 112,
          "velocity": 80,
          "beat_index": 1226,
          "section": "chorus"
        },
        {
          "t": 153500,
          "type": "drum_hit",
          "pitch": 36,
          "duration_ms": 112,
          "velocity": 110,
          "beat_index": 1228,
          "section": "chorus"
        },
        {
          "t": 153500,
          "type": "drum_hit",
          "pitch": 38,
          "duration_ms": 112,
          "velocity": 100,
          "beat_index": 1228,
          "section": "chorus"
        },
        {
          "t": 153500,
          "type": "drum_hit",
          "pitch": 42,
          "duration_ms": 112,
          "velocity": 80,
          "beat_index": 1228,
          "section": "chorus"
        },
        {
          "t": 153750,
          "type": "drum_hit",
          "pitch": 42,
          "duration_ms": 112,
          "velocity": 80,
          "beat_index": 1230,
          "section": "chorus"
        },
        {
          "t": 154000,
          "type": "drum_hit",
          "pitch": 36,
          "duration_ms": 112,
          "velocity": 110,
          "beat_index": 1232,
          "section": "chorus"
        },
        {
          "t": 154000,
          "type": "drum_hit",
          "pitch": 42,
          "duration_ms": 112,
          "velocity": 80,
          "beat_index": 1232,
          "section": "chorus"
        },
        {
          "t": 154250,
          "type": "drum_hit",
          "pitch": 42,
          "duration_ms": 112,
          "velocity": 80,
          "beat_index": 1234,
          "section": "chorus"
        },
        {
          "t": 154500,
          "type": "drum_hit",
          "pitch": 36,
          "duration_ms": 112,
          "velocity": 110,
          "beat_index": 1236,
          "section": "chorus"
        },
        {
          "t": 154500,
          "type": "drum_hit",
          "pitch": 38,
          "duration_ms": 112,
          "velocity": 100,
          "beat_index": 1236,
          "section": "chorus"
        },
        {
          "t": 154500,
          "type": "drum_hit",
          "pitch": 42,
          "duration_ms": 112,
          "velocity": 80,
          "beat_index": 1236,
          "section": "chorus"
        },
        {
          "t": 154750,
          "type": "drum_hit",
          "pitch": 42,
          "duration_ms": 112,
          "velocity": 80,
          "beat_index": 1238,
          "section": "chorus"
        },
        {
          "t": 155000,
          "type": "drum_hit",
          "pitch": 36,
          "duration_ms": 112,
          "velocity": 110,
          "beat_index": 1240,
          "section": "chorus"
        },
        {
          "t": 155000,
          "type": "drum_hit",
          "pitch": 42,
          "duration_ms": 112,
          "velocity": 80,
          "beat_index": 1240,
          "section": "chorus"
        },
        {
          "t": 155250,
          "type": "drum_hit",
          "pitch": 42,
          "duration_ms": 112,
          "velocity": 80,
          "beat_index": 1242,
          "section": "chorus"
        },
        {
          "t": 155500,
          "type": "drum_hit",
          "pitch": 36,
          "duration_ms": 112,
          "velocity": 110,
          "beat_index": 1244,
          "section": "chorus"
        },
        {
          "t": 155500,
          "type": "drum_hit",
          "pitch": 38,
          "duration_ms": 112,
          "velocity": 100,
          "beat_index": 1244,
          "section": "chorus"
        },
        {
          "t": 155500,
          "type": "drum_hit",
          "pitch": 42,
          "duration_ms": 112,
          "velocity": 80,
          "beat_index": 1244,
          "section": "chorus"
        },
        {
          "t": 155750,
          "type": "drum_hit",
          "pitch": 42,
          "duration_ms": 112,
          "velocity": 80,
          "beat_index": 1246,
          "section": "chorus"
        },
        {
          "t": 156000,
          "type": "drum_hit",
          "pitch": 36,
          "duration_ms": 112,
          "velocity": 110,
          "beat_index": 1248,
          "section": "chorus"
        },
        {
          "t": 156000,
          "type": "drum_hit",
          "pitch": 42,
          "duration_ms": 112,
          "velocity": 80,
          "beat_index": 1248,
          "section": "chorus"
        },
        {
          "t": 156250,
          "type": "drum_hit",
          "pitch": 42,
          "duration_ms": 112,
          "velocity": 80,
          "beat_index": 1250,
          "section": "chorus"
        },
        {
          "t": 156500,
          "type": "drum_hit",
          "pitch": 36,
          "duration_ms": 112,
          "velocity": 110,
          "beat_index": 1252,
          "section": "chorus"
        },
        {
          "t": 156500,
          "type": "drum_hit",
          "pitch": 38,
          "duration_ms": 112,
          "velocity": 100,
          "beat_index": 1252,
          "section": "chorus"
        },
        {
          "t": 156500,
          "type": "drum_hit",
          "pitch": 42,
          "duration_ms": 112,
          "velocity": 80,
          "beat_index": 1252,
          "section": "chorus"
        },
        {
          "t": 156750,
          "type": "drum_hit",
          "pitch": 42,
          "duration_ms": 112,
          "velocity": 80,
          "beat_index": 1254,
          "section": "chorus"
        },
        {
          "t": 157000,
          "type": "drum_hit",
          "pitch": 36,
          "duration_ms": 112,
          "velocity": 110,
          "beat_index": 1256,
          "section": "chorus"
        },
        {
          "t": 157000,
          "type": "drum_hit",
          "pitch": 42,
          "duration_ms": 112,
          "velocity": 80,
          "beat_index": 1256,
          "section": "chorus"
        },
        {
          "t": 157250,
          "type": "drum_hit",
          "pitch": 42,
          "duration_ms": 112,
          "velocity": 80,
          "beat_index": 1258,
          "section": "chorus"
        },
        {
          "t": 157500,
          "type": "drum_hit",
          "pitch": 36,
          "duration_ms": 112,
          "velocity": 110,
          "beat_index": 1260,
          "section": "chorus"
        },
        {
          "t": 157500,
          "type": "drum_hit",
          "pitch": 38,
          "duration_ms": 112,
          "velocity": 100,
          "beat_index": 1260,
          "section": "chorus"
        },
        {
          "t": 157500,
          "type": "drum_hit",
          "pitch": 42,
          "duration_ms": 112,
          "velocity": 80,
          "beat_index": 1260,
          "section": "chorus"
        },
        {
          "t": 157750,
          "type": "drum_hit",
          "pitch": 42,
          "duration_ms": 112,
          "velocity": 80,
          "beat_index": 1262,
          "section": "chorus"
        },
        {
          "t": 158000,
          "type": "drum_hit",
          "pitch": 36,
          "duration_ms": 112,
          "velocity": 110,
          "beat_index": 1264,
          "section": "chorus"
        },
        {
          "t": 158000,
          "type": "drum_hit",
          "pitch": 42,
          "duration_ms": 112,
          "velocity": 80,
          "beat_index": 1264,
          "section": "chorus"
        },
        {
          "t": 158250,
          "type": "drum_hit",
          "pitch": 42,
          "duration_ms": 112,
          "velocity": 80,
          "beat_index": 1266,
          "section": "chorus"
        },
        {
          "t": 158500,
          "type": "drum_hit",
          "pitch": 36,
          "duration_ms": 112,
          "velocity": 110,
          "beat_index": 1268,
          "section": "chorus"
        },
        {
          "t": 158500,
          "type": "drum_hit",
          "pitch": 38,
          "duration_ms": 112,
          "velocity": 100,
          "beat_index": 1268,
          "section": "chorus"
        },
        {
          "t": 158500,
          "type": "drum_hit",
          "pitch": 42,
          "duration_ms": 112,
          "velocity": 80,
          "beat_index": 1268,
          "section": "chorus"
        },
        {
          "t": 158750,
          "type": "drum_hit",
          "pitch": 42,
          "duration_ms": 112,
          "velocity": 80,
          "beat_index": 1270,
          "section": "chorus"
        },
        {
          "t": 159000,
          "type": "drum_hit",
          "pitch": 36,
          "duration_ms": 112,
          "velocity": 110,
          "beat_index": 1272,
          "section": "chorus"
        },
        {
          "t": 159000,
          "type": "drum_hit",
          "pitch": 42,
          "duration_ms": 112,
          "velocity": 80,
          "beat_index": 1272,
          "section": "chorus"
        },
        {
          "t": 159250,
          "type": "drum_hit",
          "pitch": 42,
          "duration_ms": 112,
          "velocity": 80,
          "beat_index": 1274,
          "section": "chorus"
        },
        {
          "t": 159500,
          "type": "drum_hit",
          "pitch": 36,
          "duration_ms": 112,
          "velocity": 110,
          "beat_index": 1276,
          "section": "chorus"
        },
        {
          "t": 159500,
          "type": "drum_hit",
          "pitch": 38,
          "duration_ms": 112,
          "velocity": 100,
          "beat_index": 1276,
          "section": "chorus"
        },
        {
          "t": 159500,
          "type": "drum_hit",
          "pitch": 42,
          "duration_ms": 112,
          "velocity": 80,
          "beat_index": 1276,
          "section": "chorus"
        },
        {
          "t": 159750,
          "type": "drum_hit",
          "pitch": 42,
          "duration_ms": 112,
          "velocity": 80,
          "beat_index": 1278,
          "section": "chorus"
        },
        {
          "t": 160000,
          "type": "drum_hit",
          "pitch": 36,
          "duration_ms": 112,
          "velocity": 70,
          "beat_index": 1280,
          "section": "outro"
        },
        {
          "t": 160000,
          "type": "drum_hit",
          "pitch": 42,
          "duration_ms": 112,
          "velocity": 50,
          "beat_index": 1280,
          "section": "outro"
        },
        {
          "t": 160250,
          "type": "drum_hit",
          "pitch": 42,
          "duration_ms": 112,
          "velocity": 50,
          "beat_index": 1282,
          "section": "outro"
        },
        {
          "t": 160500,
          "type": "drum_hit",
          "pitch": 36,
          "duration_ms": 112,
          "velocity": 70,
          "beat_index": 1284,
          "section": "outro"
        },
        {
          "t": 160500,
          "type": "drum_hit",
          "pitch": 38,
          "duration_ms": 112,
          "velocity": 60,
          "beat_index": 1284,
          "section": "outro"
        },
        {
          "t": 160500,
          "type": "drum_hit",
          "pitch": 42,
          "duration_ms": 112,
          "velocity": 50,
          "beat_index": 1284,
          "section": "outro"
        },
        {
          "t": 160750,
          "type": "drum_hit",
          "pitch": 42,
          "duration_ms": 112,
          "velocity": 50,
          "beat_index": 1286,
          "section": "outro"
        },
        {
          "t": 161000,
          "type": "drum_hit",
          "pitch": 36,
          "duration_ms": 112,
          "velocity": 70,
          "beat_index": 1288,
          "section": "outro"
        },
        {
          "t": 161000,
          "type": "drum_hit",
          "pitch": 42,
          "duration_ms": 112,
          "velocity": 50,
          "beat_index": 1288,
          "section": "outro"
        },
        {
          "t": 161250,
          "type": "drum_hit",
          "pitch": 42,
          "duration_ms": 112,
          "velocity": 50,
          "beat_index": 1290,
          "section": "outro"
        },
        {
          "t": 161500,
          "type": "drum_hit",
          "pitch": 36,
          "duration_ms": 112,
          "velocity": 70,
          "beat_index": 1292,
          "section": "outro"
        },
        {
          "t": 161500,
          "type": "drum_hit",
          "pitch": 38,
          "duration_ms": 112,
          "velocity": 60,
          "beat_index": 1292,
          "section": "outro"
        },
        {
          "t": 161500,
          "type": "drum_hit",
          "pitch": 42,
          "duration_ms": 112,
          "velocity": 50,
          "beat_index": 1292,
          "section": "outro"
        },
        {
          "t": 161750,
          "type": "drum_hit",
          "pitch": 42,
          "duration_ms": 112,
          "velocity": 50,
          "beat_index": 1294,
          "section": "outro"
        },
        {
          "t": 162000,
          "type": "drum_hit",
          "pitch": 36,
          "duration_ms": 112,
          "velocity": 70,
          "beat_index": 1296,
          "section": "outro"
        },
        {
          "t": 162000,
          "type": "drum_hit",
          "pitch": 42,
          "duration_ms": 112,
          "velocity": 50,
          "beat_index": 1296,
          "section": "outro"
        },
        {
          "t": 162250,
          "type": "drum_hit",
          "pitch": 42,
          "duration_ms": 112,
          "velocity": 50,
          "beat_index": 1298,
          "section": "outro"
        },
        {
          "t": 162500,
          "type": "drum_hit",
          "pitch": 36,
          "duration_ms": 112,
          "velocity": 70,
          "beat_index": 1300,
          "section": "outro"
        },
        {
          "t": 162500,
          "type": "drum_hit",
          "pitch": 38,
          "duration_ms": 112,
          "velocity": 60,
          "beat_index": 1300,
          "section": "outro"
        },
        {
          "t": 162500,
          "type": "drum_hit",
          "pitch": 42,
          "duration_ms": 112,
          "velocity": 50,
          "beat_index": 1300,
          "section": "outro"
        },
        {
          "t": 162750,
          "type": "drum_hit",
          "pitch": 42,
          "duration_ms": 112,
          "velocity": 50,
          "beat_index": 1302,
          "section": "outro"
        },
        {
          "t": 163000,
          "type": "drum_hit",
          "pitch": 36,
          "duration_ms": 112,
          "velocity": 70,
          "beat_index": 1304,
          "section": "outro"
        },
        {
          "t": 163000,
          "type": "drum_hit",
          "pitch": 42,
          "duration_ms": 112,
          "velocity": 50,
          "beat_index": 1304,
          "section": "outro"
        },
        {
          "t": 163250,
          "type": "drum_hit",
          "pitch": 42,
          "duration_ms": 112,
          "velocity": 50,
          "beat_index": 1306,
          "section": "outro"
        },
        {
          "t": 163500,
          "type": "drum_hit",
          "pitch": 36,
          "duration_ms": 112,
          "velocity": 70,
          "beat_index": 1308,
          "section": "outro"
        },
        {
          "t": 163500,
          "type": "drum_hit",
          "pitch": 38,
          "duration_ms": 112,
          "velocity": 60,
          "beat_index": 1308,
          "section": "outro"
        },
        {
          "t": 163500,
          "type": "drum_hit",
          "pitch": 42,
          "duration_ms": 112,
          "velocity": 50,
          "beat_index": 1308,
          "section": "outro"
        },
        {
          "t": 163750,
          "type": "drum_hit",
          "pitch": 42,
          "duration_ms": 112,
          "velocity": 50,
          "beat_index": 1310,
          "section": "outro"
        },
        {
          "t": 164000,
          "type": "drum_hit",
          "pitch": 36,
          "duration_ms": 112,
          "velocity": 70,
          "beat_index": 1312,
          "section": "outro"
        },
        {
          "t": 164000,
          "type": "drum_hit",
          "pitch": 42,
          "duration_ms": 112,
          "velocity": 50,
          "beat_index": 1312,
          "section": "outro"
        },
        {
          "t": 164250,
          "type": "drum_hit",
          "pitch": 42,
          "duration_ms": 112,
          "velocity": 50,
          "beat_index": 1314,
          "section": "outro"
        },
        {
          "t": 164500,
          "type": "drum_hit",
          "pitch": 36,
          "duration_ms": 112,
          "velocity": 70,
          "beat_index": 1316,
          "section": "outro"
        },
        {
          "t": 164500,
          "type": "drum_hit",
          "pitch": 38,
          "duration_ms": 112,
          "velocity": 60,
          "beat_index": 1316,
          "section": "outro"
        },
        {
          "t": 164500,
          "type": "drum_hit",
          "pitch": 42,
          "duration_ms": 112,
          "velocity": 50,
          "beat_index": 1316,
          "section": "outro"
        },
        {
          "t": 164750,
          "type": "drum_hit",
          "pitch": 42,
          "duration_ms": 112,
          "velocity": 50,
          "beat_index": 1318,
          "section": "outro"
        },
        {
          "t": 165000,
          "type": "drum_hit",
          "pitch": 36,
          "duration_ms": 112,
          "velocity": 70,
          "beat_index": 1320,
          "section": "outro"
        },
        {
          "t": 165000,
          "type": "drum_hit",
          "pitch": 42,
          "duration_ms": 112,
          "velocity": 50,
          "beat_index": 1320,
          "section": "outro"
        },
        {
          "t": 165250,
          "type": "drum_hit",
          "pitch": 42,
          "duration_ms": 112,
          "velocity": 50,
          "beat_index": 1322,
          "section": "outro"
        },
        {
          "t": 165500,
          "type": "drum_hit",
          "pitch": 36,
          "duration_ms": 112,
          "velocity": 70,
          "beat_index": 1324,
          "section": "outro"
        },
        {
          "t": 165500,
          "type": "drum_hit",
          "pitch": 38,
          "duration_ms": 112,
          "velocity": 60,
          "beat_index": 1324,
          "section": "outro"
        },
        {
          "t": 165500,
          "type": "drum_hit",
          "pitch": 42,
          "duration_ms": 112,
          "velocity": 50,
          "beat_index": 1324,
          "section": "outro"
        },
        {
          "t": 165750,
          "type": "drum_hit",
          "pitch": 42,
          "duration_ms": 112,
          "velocity": 50,
          "beat_index": 1326,
          "section": "outro"
        },
        {
          "t": 166000,
          "type": "drum_hit",
          "pitch": 36,
          "duration_ms": 112,
          "velocity": 70,
          "beat_index": 1328,
          "section": "outro"
        },
        {
          "t": 166000,
          "type": "drum_hit",
          "pitch": 42,
          "duration_ms": 112,
          "velocity": 50,
          "beat_index": 1328,
          "section": "outro"
        },
        {
          "t": 166250,
          "type": "drum_hit",
          "pitch": 42,
          "duration_ms": 112,
          "velocity": 50,
          "beat_index": 1330,
          "section": "outro"
        },
        {
          "t": 166500,
          "type": "drum_hit",
          "pitch": 36,
          "duration_ms": 112,
          "velocity": 70,
          "beat_index": 1332,
          "section": "outro"
        },
        {
          "t": 166500,
          "type": "drum_hit",
          "pitch": 38,
          "duration_ms": 112,
          "velocity": 60,
          "beat_index": 1332,
          "section": "outro"
        },
        {
          "t": 166500,
          "type": "drum_hit",
          "pitch": 42,
          "duration_ms": 112,
          "velocity": 50,
          "beat_index": 1332,
          "section": "outro"
        },
        {
          "t": 166750,
          "type": "drum_hit",
          "pitch": 42,
          "duration_ms": 112,
          "velocity": 50,
          "beat_index": 1334,
          "section": "outro"
        },
        {
          "t": 167000,
          "type": "drum_hit",
          "pitch": 36,
          "duration_ms": 112,
          "velocity": 70,
          "beat_index": 1336,
          "section": "outro"
        },
        {
          "t": 167000,
          "type": "drum_hit",
          "pitch": 42,
          "duration_ms": 112,
          "velocity": 50,
          "beat_index": 1336,
          "section": "outro"
        },
        {
          "t": 167250,
          "type": "drum_hit",
          "pitch": 42,
          "duration_ms": 112,
          "velocity": 50,
          "beat_index": 1338,
          "section": "outro"
        },
        {
          "t": 167500,
          "type": "drum_hit",
          "pitch": 36,
          "duration_ms": 112,
          "velocity": 70,
          "beat_index": 1340,
          "section": "outro"
        },
        {
          "t": 167500,
          "type": "drum_hit",
          "pitch": 38,
          "duration_ms": 112,
          "velocity": 60,
          "beat_index": 1340,
          "section": "outro"
        },
        {
          "t": 167500,
          "type": "drum_hit",
          "pitch": 42,
          "duration_ms": 112,
          "velocity": 50,
          "beat_index": 1340,
          "section": "outro"
        },
        {
          "t": 167750,
          "type": "drum_hit",
          "pitch": 42,
          "duration_ms": 112,
          "velocity": 50,
          "beat_index": 1342,
          "section": "outro"
        },
        {
          "t": 168000,
          "type": "drum_hit",
          "pitch": 36,
          "duration_ms": 112,
          "velocity": 70,
          "beat_index": 1344,
          "section": "outro"
        },
        {
          "t": 168000,
          "type": "drum_hit",
          "pitch": 42,
          "duration_ms": 112,
          "velocity": 50,
          "beat_index": 1344,
          "section": "outro"
        },
        {
          "t": 168250,
          "type": "drum_hit",
          "pitch": 42,
          "duration_ms": 112,
          "velocity": 50,
          "beat_index": 1346,
          "section": "outro"
        },
        {
          "t": 168500,
          "type": "drum_hit",
          "pitch": 36,
          "duration_ms": 112,
          "velocity": 70,
          "beat_index": 1348,
          "section": "outro"
        },
        {
          "t": 168500,
          "type": "drum_hit",
          "pitch": 38,
          "duration_ms": 112,
          "velocity": 60,
          "beat_index": 1348,
          "section": "outro"
        },
        {
          "t": 168500,
          "type": "drum_hit",
          "pitch": 42,
          "duration_ms": 112,
          "velocity": 50,
          "beat_index": 1348,
          "section": "outro"
        },
        {
          "t": 168750,
          "type": "drum_hit",
          "pitch": 42,
          "duration_ms": 112,
          "velocity": 50,
          "beat_index": 1350,
          "section": "outro"
        },
        {
          "t": 169000,
          "type": "drum_hit",
          "pitch": 36,
          "duration_ms": 112,
          "velocity": 70,
          "beat_index": 1352,
          "section": "outro"
        },
        {
          "t": 169000,
          "type": "drum_hit",
          "pitch": 42,
          "duration_ms": 112,
          "velocity": 50,
          "beat_index": 1352,
          "section": "outro"
        },
        {
          "t": 169250,
          "type": "drum_hit",
          "pitch": 42,
          "duration_ms": 112,
          "velocity": 50,
          "beat_index": 1354,
          "section": "outro"
        },
        {
          "t": 169500,
          "type": "drum_hit",
          "pitch": 36,
          "duration_ms": 112,
          "velocity": 70,
          "beat_index": 1356,
          "section": "outro"
        },
        {
          "t": 169500,
          "type": "drum_hit",
          "pitch": 38,
          "duration_ms": 112,
          "velocity": 60,
          "beat_index": 1356,
          "section": "outro"
        },
        {
          "t": 169500,
          "type": "drum_hit",
          "pitch": 42,
          "duration_ms": 112,
          "velocity": 50,
          "beat_index": 1356,
          "section": "outro"
        },
        {
          "t": 169750,
          "type": "drum_hit",
          "pitch": 42,
          "duration_ms": 112,
          "velocity": 50,
          "beat_index": 1358,
          "section": "outro"
        },
        {
          "t": 170000,
          "type": "drum_hit",
          "pitch": 36,
          "duration_ms": 112,
          "velocity": 70,
          "beat_index": 1360,
          "section": "outro"
        },
        {
          "t": 170000,
          "type": "drum_hit",
          "pitch": 42,
          "duration_ms": 112,
          "velocity": 50,
          "beat_index": 1360,
          "section": "outro"
        },
        {
          "t": 170250,
          "type": "drum_hit",
          "pitch": 42,
          "duration_ms": 112,
          "velocity": 50,
          "beat_index": 1362,
          "section": "outro"
        },
        {
          "t": 170500,
          "type": "drum_hit",
          "pitch": 36,
          "duration_ms": 112,
          "velocity": 70,
          "beat_index": 1364,
          "section": "outro"
        },
        {
          "t": 170500,
          "type": "drum_hit",
          "pitch": 38,
          "duration_ms": 112,
          "velocity": 60,
          "beat_index": 1364,
          "section": "outro"
        },
        {
          "t": 170500,
          "type": "drum_hit",
          "pitch": 42,
          "duration_ms": 112,
          "velocity": 50,
          "beat_index": 1364,
          "section": "outro"
        },
        {
          "t": 170750,
          "type": "drum_hit",
          "pitch": 42,
          "duration_ms": 112,
          "velocity": 50,
          "beat_index": 1366,
          "section": "outro"
        },
        {
          "t": 171000,
          "type": "drum_hit",
          "pitch": 36,
          "duration_ms": 112,
          "velocity": 70,
          "beat_index": 1368,
          "section": "outro"
        },
        {
          "t": 171000,
          "type": "drum_hit",
          "pitch": 42,
          "duration_ms": 112,
          "velocity": 50,
          "beat_index": 1368,
          "section": "outro"
        },
        {
          "t": 171250,
          "type": "drum_hit",
          "pitch": 42,
          "duration_ms": 112,
          "velocity": 50,
          "beat_index": 1370,
          "section": "outro"
        },
        {
          "t": 171500,
          "type": "drum_hit",
          "pitch": 36,
          "duration_ms": 112,
          "velocity": 70,
          "beat_index": 1372,
          "section": "outro"
        },
        {
          "t": 171500,
          "type": "drum_hit",
          "pitch": 38,
          "duration_ms": 112,
          "velocity": 60,
          "beat_index": 1372,
          "section": "outro"
        },
        {
          "t": 171500,
          "type": "drum_hit",
          "pitch": 42,
          "duration_ms": 112,
          "velocity": 50,
          "beat_index": 1372,
          "section": "outro"
        },
        {
          "t": 171750,
          "type": "drum_hit",
          "pitch": 42,
          "duration_ms": 112,
          "velocity": 50,
          "beat_index": 1374,
          "section": "outro"
        },
        {
          "t": 172000,
          "type": "drum_hit",
          "pitch": 36,
          "duration_ms": 112,
          "velocity": 70,
          "beat_index": 1376,
          "section": "outro"
        },
        {
          "t": 172000,
          "type": "drum_hit",
          "pitch": 42,
          "duration_ms": 112,
          "velocity": 50,
          "beat_index": 1376,
          "section": "outro"
        },
        {
          "t": 172250,
          "type": "drum_hit",
          "pitch": 42,
          "duration_ms": 112,
          "velocity": 50,
          "beat_index": 1378,
          "section": "outro"
        },
        {
          "t": 172500,
          "type": "drum_hit",
          "pitch": 36,
          "duration_ms": 112,
          "velocity": 70,
          "beat_index": 1380,
          "section": "outro"
        },
        {
          "t": 172500,
          "type": "drum_hit",
          "pitch": 38,
          "duration_ms": 112,
          "velocity": 60,
          "beat_index": 1380,
          "section": "outro"
        },
        {
          "t": 172500,
          "type": "drum_hit",
          "pitch": 42,
          "duration_ms": 112,
          "velocity": 50,
          "beat_index": 1380,
          "section": "outro"
        },
        {
          "t": 172750,
          "type": "drum_hit",
          "pitch": 42,
          "duration_ms": 112,
          "velocity": 50,
          "beat_index": 1382,
          "section": "outro"
        },
        {
          "t": 173000,
          "type": "drum_hit",
          "pitch": 36,
          "duration_ms": 112,
          "velocity": 70,
          "beat_index": 1384,
          "section": "outro"
        },
        {
          "t": 173000,
          "type": "drum_hit",
          "pitch": 42,
          "duration_ms": 112,
          "velocity": 50,
          "beat_index": 1384,
          "section": "outro"
        },
        {
          "t": 173250,
          "type": "drum_hit",
          "pitch": 42,
          "duration_ms": 112,
          "velocity": 50,
          "beat_index": 1386,
          "section": "outro"
        },
        {
          "t": 173500,
          "type": "drum_hit",
          "pitch": 36,
          "duration_ms": 112,
          "velocity": 70,
          "beat_index": 1388,
          "section": "outro"
        },
        {
          "t": 173500,
          "type": "drum_hit",
          "pitch": 38,
          "duration_ms": 112,
          "velocity": 60,
          "beat_index": 1388,
          "section": "outro"
        },
        {
          "t": 173500,
          "type": "drum_hit",
          "pitch": 42,
          "duration_ms": 112,
          "velocity": 50,
          "beat_index": 1388,
          "section": "outro"
        },
        {
          "t": 173750,
          "type": "drum_hit",
          "pitch": 42,
          "duration_ms": 112,
          "velocity": 50,
          "beat_index": 1390,
          "section": "outro"
        },
        {
          "t": 174000,
          "type": "drum_hit",
          "pitch": 36,
          "duration_ms": 112,
          "velocity": 70,
          "beat_index": 1392,
          "section": "outro"
        },
        {
          "t": 174000,
          "type": "drum_hit",
          "pitch": 42,
          "duration_ms": 112,
          "velocity": 50,
          "beat_index": 1392,
          "section": "outro"
        },
        {
          "t": 174250,
          "type": "drum_hit",
          "pitch": 42,
          "duration_ms": 112,
          "velocity": 50,
          "beat_index": 1394,
          "section": "outro"
        },
        {
          "t": 174500,
          "type": "drum_hit",
          "pitch": 36,
          "duration_ms": 112,
          "velocity": 70,
          "beat_index": 1396,
          "section": "outro"
        },
        {
          "t": 174500,
          "type": "drum_hit",
          "pitch": 38,
          "duration_ms": 112,
          "velocity": 60,
          "beat_index": 1396,
          "section": "outro"
        },
        {
          "t": 174500,
          "type": "drum_hit",
          "pitch": 42,
          "duration_ms": 112,
          "velocity": 50,
          "beat_index": 1396,
          "section": "outro"
        },
        {
          "t": 174750,
          "type": "drum_hit",
          "pitch": 42,
          "duration_ms": 112,
          "velocity": 50,
          "beat_index": 1398,
          "section": "outro"
        },
        {
          "t": 175000,
          "type": "drum_hit",
          "pitch": 36,
          "duration_ms": 112,
          "velocity": 70,
          "beat_index": 1400,
          "section": "outro"
        },
        {
          "t": 175000,
          "type": "drum_hit",
          "pitch": 42,
          "duration_ms": 112,
          "velocity": 50,
          "beat_index": 1400,
          "section": "outro"
        },
        {
          "t": 175250,
          "type": "drum_hit",
          "pitch": 42,
          "duration_ms": 112,
          "velocity": 50,
          "beat_index": 1402,
          "section": "outro"
        },
        {
          "t": 175500,
          "type": "drum_hit",
          "pitch": 36,
          "duration_ms": 112,
          "velocity": 70,
          "beat_index": 1404,
          "section": "outro"
        },
        {
          "t": 175500,
          "type": "drum_hit",
          "pitch": 38,
          "duration_ms": 112,
          "velocity": 60,
          "beat_index": 1404,
          "section": "outro"
        },
        {
          "t": 175500,
          "type": "drum_hit",
          "pitch": 42,
          "duration_ms": 112,
          "velocity": 50,
          "beat_index": 1404,
          "section": "outro"
        },
        {
          "t": 175750,
          "type": "drum_hit",
          "pitch": 42,
          "duration_ms": 112,
          "velocity": 50,
          "beat_index": 1406,
          "section": "outro"
        },
        {
          "t": 176000,
          "type": "drum_hit",
          "pitch": 36,
          "duration_ms": 112,
          "velocity": 70,
          "beat_index": 1408,
          "section": "outro"
        },
        {
          "t": 176000,
          "type": "drum_hit",
          "pitch": 42,
          "duration_ms": 112,
          "velocity": 50,
          "beat_index": 1408,
          "section": "outro"
        },
        {
          "t": 176250,
          "type": "drum_hit",
          "pitch": 42,
          "duration_ms": 112,
          "velocity": 50,
          "beat_index": 1410,
          "section": "outro"
        },
        {
          "t": 176500,
          "type": "drum_hit",
          "pitch": 36,
          "duration_ms": 112,
          "velocity": 70,
          "beat_index": 1412,
          "section": "outro"
        },
        {
          "t": 176500,
          "type": "drum_hit",
          "pitch": 38,
          "duration_ms": 112,
          "velocity": 60,
          "beat_index": 1412,
          "section": "outro"
        },
        {
          "t": 176500,
          "type": "drum_hit",
          "pitch": 42,
          "duration_ms": 112,
          "velocity": 50,
          "beat_index": 1412,
          "section": "outro"
        },
        {
          "t": 176750,
          "type": "drum_hit",
          "pitch": 42,
          "duration_ms": 112,
          "velocity": 50,
          "beat_index": 1414,
          "section": "outro"
        },
        {
          "t": 177000,
          "type": "drum_hit",
          "pitch": 36,
          "duration_ms": 112,
          "velocity": 70,
          "beat_index": 1416,
          "section": "outro"
        },
        {
          "t": 177000,
          "type": "drum_hit",
          "pitch": 42,
          "duration_ms": 112,
          "velocity": 50,
          "beat_index": 1416,
          "section": "outro"
        },
        {
          "t": 177250,
          "type": "drum_hit",
          "pitch": 42,
          "duration_ms": 112,
          "velocity": 50,
          "beat_index": 1418,
          "section": "outro"
        },
        {
          "t": 177500,
          "type": "drum_hit",
          "pitch": 36,
          "duration_ms": 112,
          "velocity": 70,
          "beat_index": 1420,
          "section": "outro"
        },
        {
          "t": 177500,
          "type": "drum_hit",
          "pitch": 38,
          "duration_ms": 112,
          "velocity": 60,
          "beat_index": 1420,
          "section": "outro"
        },
        {
          "t": 177500,
          "type": "drum_hit",
          "pitch": 42,
          "duration_ms": 112,
          "velocity": 50,
          "beat_index": 1420,
          "section": "outro"
        },
        {
          "t": 177750,
          "type": "drum_hit",
          "pitch": 42,
          "duration_ms": 112,
          "velocity": 50,
          "beat_index": 1422,
          "section": "outro"
        },
        {
          "t": 178000,
          "type": "drum_hit",
          "pitch": 36,
          "duration_ms": 112,
          "velocity": 70,
          "beat_index": 1424,
          "section": "outro"
        },
        {
          "t": 178000,
          "type": "drum_hit",
          "pitch": 42,
          "duration_ms": 112,
          "velocity": 50,
          "beat_index": 1424,
          "section": "outro"
        },
        {
          "t": 178250,
          "type": "drum_hit",
          "pitch": 42,
          "duration_ms": 112,
          "velocity": 50,
          "beat_index": 1426,
          "section": "outro"
        },
        {
          "t": 178500,
          "type": "drum_hit",
          "pitch": 36,
          "duration_ms": 112,
          "velocity": 70,
          "beat_index": 1428,
          "section": "outro"
        },
        {
          "t": 178500,
          "type": "drum_hit",
          "pitch": 38,
          "duration_ms": 112,
          "velocity": 60,
          "beat_index": 1428,
          "section": "outro"
        },
        {
          "t": 178500,
          "type": "drum_hit",
          "pitch": 42,
          "duration_ms": 112,
          "velocity": 50,
          "beat_index": 1428,
          "section": "outro"
        },
        {
          "t": 178750,
          "type": "drum_hit",
          "pitch": 42,
          "duration_ms": 112,
          "velocity": 50,
          "beat_index": 1430,
          "section": "outro"
        },
        {
          "t": 179000,
          "type": "drum_hit",
          "pitch": 36,
          "duration_ms": 112,
          "velocity": 70,
          "beat_index": 1432,
          "section": "outro"
        },
        {
          "t": 179000,
          "type": "drum_hit",
          "pitch": 42,
          "duration_ms": 112,
          "velocity": 50,
          "beat_index": 1432,
          "section": "outro"
        },
        {
          "t": 179250,
          "type": "drum_hit",
          "pitch": 42,
          "duration_ms": 112,
          "velocity": 50,
          "beat_index": 1434,
          "section": "outro"
        },
        {
          "t": 179500,
          "type": "drum_hit",
          "pitch": 36,
          "duration_ms": 112,
          "velocity": 70,
          "beat_index": 1436,
          "section": "outro"
        },
        {
          "t": 179500,
          "type": "drum_hit",
          "pitch": 38,
          "duration_ms": 112,
          "velocity": 60,
          "beat_index": 1436,
          "section": "outro"
        },
        {
          "t": 179500,
          "type": "drum_hit",
          "pitch": 42,
          "duration_ms": 112,
          "velocity": 50,
          "beat_index": 1436,
          "section": "outro"
        },
        {
          "t": 179750,
          "type": "drum_hit",
          "pitch": 42,
          "duration_ms": 112,
          "velocity": 50,
          "beat_index": 1438,
          "section": "outro"
        },
        {
          "t": 180000,
          "type": "drum_hit",
          "pitch": 36,
          "duration_ms": 112,
          "velocity": 70,
          "beat_index": 1440,
          "section": "outro"
        },
        {
          "t": 180000,
          "type": "drum_hit",
          "pitch": 42,
          "duration_ms": 112,
          "velocity": 50,
          "beat_index": 1440,
          "section": "outro"
        },
        {
          "t": 180250,
          "type": "drum_hit",
          "pitch": 42,
          "duration_ms": 112,
          "velocity": 50,
          "beat_index": 1442,
          "section": "outro"
        },
        {
          "t": 180500,
          "type": "drum_hit",
          "pitch": 36,
          "duration_ms": 112,
          "velocity": 70,
          "beat_index": 1444,
          "section": "outro"
        },
        {
          "t": 180500,
          "type": "drum_hit",
          "pitch": 38,
          "duration_ms": 112,
          "velocity": 60,
          "beat_index": 1444,
          "section": "outro"
        },
        {
          "t": 180500,
          "type": "drum_hit",
          "pitch": 42,
          "duration_ms": 112,
          "velocity": 50,
          "beat_index": 1444,
          "section": "outro"
        },
        {
          "t": 180750,
          "type": "drum_hit",
          "pitch": 42,
          "duration_ms": 112,
          "velocity": 50,
          "beat_index": 1446,
          "section": "outro"
        },
        {
          "t": 181000,
          "type": "drum_hit",
          "pitch": 36,
          "duration_ms": 112,
          "velocity": 70,
          "beat_index": 1448,
          "section": "outro"
        },
        {
          "t": 181000,
          "type": "drum_hit",
          "pitch": 42,
          "duration_ms": 112,
          "velocity": 50,
          "beat_index": 1448,
          "section": "outro"
        },
        {
          "t": 181250,
          "type": "drum_hit",
          "pitch": 42,
          "duration_ms": 112,
          "velocity": 50,
          "beat_index": 1450,
          "section": "outro"
        },
        {
          "t": 181500,
          "type": "drum_hit",
          "pitch": 36,
          "duration_ms": 112,
          "velocity": 70,
          "beat_index": 1452,
          "section": "outro"
        },
        {
          "t": 181500,
          "type": "drum_hit",
          "pitch": 38,
          "duration_ms": 112,
          "velocity": 60,
          "beat_index": 1452,
          "section": "outro"
        },
        {
          "t": 181500,
          "type": "drum_hit",
          "pitch": 42,
          "duration_ms": 112,
          "velocity": 50,
          "beat_index": 1452,
          "section": "outro"
        },
        {
          "t": 181750,
          "type": "drum_hit",
          "pitch": 42,
          "duration_ms": 112,
          "velocity": 50,
          "beat_index": 1454,
          "section": "outro"
        },
        {
          "t": 182000,
          "type": "drum_hit",
          "pitch": 36,
          "duration_ms": 112,
          "velocity": 70,
          "beat_index": 1456,
          "section": "outro"
        },
        {
          "t": 182000,
          "type": "drum_hit",
          "pitch": 42,
          "duration_ms": 112,
          "velocity": 50,
          "beat_index": 1456,
          "section": "outro"
        },
        {
          "t": 182250,
          "type": "drum_hit",
          "pitch": 42,
          "duration_ms": 112,
          "velocity": 50,
          "beat_index": 1458,
          "section": "outro"
        },
        {
          "t": 182500,
          "type": "drum_hit",
          "pitch": 36,
          "duration_ms": 112,
          "velocity": 70,
          "beat_index": 1460,
          "section": "outro"
        },
        {
          "t": 182500,
          "type": "drum_hit",
          "pitch": 38,
          "duration_ms": 112,
          "velocity": 60,
          "beat_index": 1460,
          "section": "outro"
        },
        {
          "t": 182500,
          "type": "drum_hit",
          "pitch": 42,
          "duration_ms": 112,
          "velocity": 50,
          "beat_index": 1460,
          "section": "outro"
        },
        {
          "t": 182750,
          "type": "drum_hit",
          "pitch": 42,
          "duration_ms": 112,
          "velocity": 50,
          "beat_index": 1462,
          "section": "outro"
        },
        {
          "t": 183000,
          "type": "drum_hit",
          "pitch": 36,
          "duration_ms": 112,
          "velocity": 70,
          "beat_index": 1464,
          "section": "outro"
        },
        {
          "t": 183000,
          "type": "drum_hit",
          "pitch": 42,
          "duration_ms": 112,
          "velocity": 50,
          "beat_index": 1464,
          "section": "outro"
        },
        {
          "t": 183250,
          "type": "drum_hit",
          "pitch": 42,
          "duration_ms": 112,
          "velocity": 50,
          "beat_index": 1466,
          "section": "outro"
        },
        {
          "t": 183500,
          "type": "drum_hit",
          "pitch": 36,
          "duration_ms": 112,
          "velocity": 70,
          "beat_index": 1468,
          "section": "outro"
        },
        {
          "t": 183500,
          "type": "drum_hit",
          "pitch": 38,
          "duration_ms": 112,
          "velocity": 60,
          "beat_index": 1468,
          "section": "outro"
        },
        {
          "t": 183500,
          "type": "drum_hit",
          "pitch": 42,
          "duration_ms": 112,
          "velocity": 50,
          "beat_index": 1468,
          "section": "outro"
        },
        {
          "t": 183750,
          "type": "drum_hit",
          "pitch": 42,
          "duration_ms": 112,
          "velocity": 50,
          "beat_index": 1470,
          "section": "outro"
        },
        {
          "t": 184000,
          "type": "drum_hit",
          "pitch": 36,
          "duration_ms": 112,
          "velocity": 70,
          "beat_index": 1472,
          "section": "outro"
        },
        {
          "t": 184000,
          "type": "drum_hit",
          "pitch": 42,
          "duration_ms": 112,
          "velocity": 50,
          "beat_index": 1472,
          "section": "outro"
        },
        {
          "t": 184250,
          "type": "drum_hit",
          "pitch": 42,
          "duration_ms": 112,
          "velocity": 50,
          "beat_index": 1474,
          "section": "outro"
        },
        {
          "t": 184500,
          "type": "drum_hit",
          "pitch": 36,
          "duration_ms": 112,
          "velocity": 70,
          "beat_index": 1476,
          "section": "outro"
        },
        {
          "t": 184500,
          "type": "drum_hit",
          "pitch": 38,
          "duration_ms": 112,
          "velocity": 60,
          "beat_index": 1476,
          "section": "outro"
        },
        {
          "t": 184500,
          "type": "drum_hit",
          "pitch": 42,
          "duration_ms": 112,
          "velocity": 50,
          "beat_index": 1476,
          "section": "outro"
        },
        {
          "t": 184750,
          "type": "drum_hit",
          "pitch": 42,
          "duration_ms": 112,
          "velocity": 50,
          "beat_index": 1478,
          "section": "outro"
        },
        {
          "t": 185000,
          "type": "drum_hit",
          "pitch": 36,
          "duration_ms": 112,
          "velocity": 70,
          "beat_index": 1480,
          "section": "outro"
        },
        {
          "t": 185000,
          "type": "drum_hit",
          "pitch": 42,
          "duration_ms": 112,
          "velocity": 50,
          "beat_index": 1480,
          "section": "outro"
        },
        {
          "t": 185250,
          "type": "drum_hit",
          "pitch": 42,
          "duration_ms": 112,
          "velocity": 50,
          "beat_index": 1482,
          "section": "outro"
        },
        {
          "t": 185500,
          "type": "drum_hit",
          "pitch": 36,
          "duration_ms": 112,
          "velocity": 70,
          "beat_index": 1484,
          "section": "outro"
        },
        {
          "t": 185500,
          "type": "drum_hit",
          "pitch": 38,
          "duration_ms": 112,
          "velocity": 60,
          "beat_index": 1484,
          "section": "outro"
        },
        {
          "t": 185500,
          "type": "drum_hit",
          "pitch": 42,
          "duration_ms": 112,
          "velocity": 50,
          "beat_index": 1484,
          "section": "outro"
        },
        {
          "t": 185750,
          "type": "drum_hit",
          "pitch": 42,
          "duration_ms": 112,
          "velocity": 50,
          "beat_index": 1486,
          "section": "outro"
        },
        {
          "t": 186000,
          "type": "drum_hit",
          "pitch": 36,
          "duration_ms": 112,
          "velocity": 70,
          "beat_index": 1488,
          "section": "outro"
        },
        {
          "t": 186000,
          "type": "drum_hit",
          "pitch": 42,
          "duration_ms": 112,
          "velocity": 50,
          "beat_index": 1488,
          "section": "outro"
        },
        {
          "t": 186250,
          "type": "drum_hit",
          "pitch": 42,
          "duration_ms": 112,
          "velocity": 50,
          "beat_index": 1490,
          "section": "outro"
        },
        {
          "t": 186500,
          "type": "drum_hit",
          "pitch": 36,
          "duration_ms": 112,
          "velocity": 70,
          "beat_index": 1492,
          "section": "outro"
        },
        {
          "t": 186500,
          "type": "drum_hit",
          "pitch": 38,
          "duration_ms": 112,
          "velocity": 60,
          "beat_index": 1492,
          "section": "outro"
        },
        {
          "t": 186500,
          "type": "drum_hit",
          "pitch": 42,
          "duration_ms": 112,
          "velocity": 50,
          "beat_index": 1492,
          "section": "outro"
        },
        {
          "t": 186750,
          "type": "drum_hit",
          "pitch": 42,
          "duration_ms": 112,
          "velocity": 50,
          "beat_index": 1494,
          "section": "outro"
        },
        {
          "t": 187000,
          "type": "drum_hit",
          "pitch": 36,
          "duration_ms": 112,
          "velocity": 70,
          "beat_index": 1496,
          "section": "outro"
        },
        {
          "t": 187000,
          "type": "drum_hit",
          "pitch": 42,
          "duration_ms": 112,
          "velocity": 50,
          "beat_index": 1496,
          "section": "outro"
        },
        {
          "t": 187250,
          "type": "drum_hit",
          "pitch": 42,
          "duration_ms": 112,
          "velocity": 50,
          "beat_index": 1498,
          "section": "outro"
        },
        {
          "t": 187500,
          "type": "drum_hit",
          "pitch": 36,
          "duration_ms": 112,
          "velocity": 70,
          "beat_index": 1500,
          "section": "outro"
        },
        {
          "t": 187500,
          "type": "drum_hit",
          "pitch": 38,
          "duration_ms": 112,
          "velocity": 60,
          "beat_index": 1500,
          "section": "outro"
        },
        {
          "t": 187500,
          "type": "drum_hit",
          "pitch": 42,
          "duration_ms": 112,
          "velocity": 50,
          "beat_index": 1500,
          "section": "outro"
        },
        {
          "t": 187750,
          "type": "drum_hit",
          "pitch": 42,
          "duration_ms": 112,
          "velocity": 50,
          "beat_index": 1502,
          "section": "outro"
        },
        {
          "t": 188000,
          "type": "drum_hit",
          "pitch": 36,
          "duration_ms": 112,
          "velocity": 70,
          "beat_index": 1504,
          "section": "outro"
        },
        {
          "t": 188000,
          "type": "drum_hit",
          "pitch": 42,
          "duration_ms": 112,
          "velocity": 50,
          "beat_index": 1504,
          "section": "outro"
        },
        {
          "t": 188250,
          "type": "drum_hit",
          "pitch": 42,
          "duration_ms": 112,
          "velocity": 50,
          "beat_index": 1506,
          "section": "outro"
        },
        {
          "t": 188500,
          "type": "drum_hit",
          "pitch": 36,
          "duration_ms": 112,
          "velocity": 70,
          "beat_index": 1508,
          "section": "outro"
        },
        {
          "t": 188500,
          "type": "drum_hit",
          "pitch": 38,
          "duration_ms": 112,
          "velocity": 60,
          "beat_index": 1508,
          "section": "outro"
        },
        {
          "t": 188500,
          "type": "drum_hit",
          "pitch": 42,
          "duration_ms": 112,
          "velocity": 50,
          "beat_index": 1508,
          "section": "outro"
        },
        {
          "t": 188750,
          "type": "drum_hit",
          "pitch": 42,
          "duration_ms": 112,
          "velocity": 50,
          "beat_index": 1510,
          "section": "outro"
        },
        {
          "t": 189000,
          "type": "drum_hit",
          "pitch": 36,
          "duration_ms": 112,
          "velocity": 70,
          "beat_index": 1512,
          "section": "outro"
        },
        {
          "t": 189000,
          "type": "drum_hit",
          "pitch": 42,
          "duration_ms": 112,
          "velocity": 50,
          "beat_index": 1512,
          "section": "outro"
        },
        {
          "t": 189250,
          "type": "drum_hit",
          "pitch": 42,
          "duration_ms": 112,
          "velocity": 50,
          "beat_index": 1514,
          "section": "outro"
        },
        {
          "t": 189500,
          "type": "drum_hit",
          "pitch": 36,
          "duration_ms": 112,
          "velocity": 70,
          "beat_index": 1516,
          "section": "outro"
        },
        {
          "t": 189500,
          "type": "drum_hit",
          "pitch": 38,
          "duration_ms": 112,
          "velocity": 60,
          "beat_index": 1516,
          "section": "outro"
        },
        {
          "t": 189500,
          "type": "drum_hit",
          "pitch": 42,
          "duration_ms": 112,
          "velocity": 50,
          "beat_index": 1516,
          "section": "outro"
        },
        {
          "t": 189750,
          "type": "drum_hit",
          "pitch": 42,
          "duration_ms": 112,
          "velocity": 50,
          "beat_index": 1518,
          "section": "outro"
        },
        {
          "t": 190000,
          "type": "drum_hit",
          "pitch": 36,
          "duration_ms": 112,
          "velocity": 70,
          "beat_index": 1520,
          "section": "outro"
        },
        {
          "t": 190000,
          "type": "drum_hit",
          "pitch": 42,
          "duration_ms": 112,
          "velocity": 50,
          "beat_index": 1520,
          "section": "outro"
        },
        {
          "t": 190250,
          "type": "drum_hit",
          "pitch": 42,
          "duration_ms": 112,
          "velocity": 50,
          "beat_index": 1522,
          "section": "outro"
        },
        {
          "t": 190500,
          "type": "drum_hit",
          "pitch": 36,
          "duration_ms": 112,
          "velocity": 70,
          "beat_index": 1524,
          "section": "outro"
        },
        {
          "t": 190500,
          "type": "drum_hit",
          "pitch": 38,
          "duration_ms": 112,
          "velocity": 60,
          "beat_index": 1524,
          "section": "outro"
        },
        {
          "t": 190500,
          "type": "drum_hit",
          "pitch": 42,
          "duration_ms": 112,
          "velocity": 50,
          "beat_index": 1524,
          "section": "outro"
        },
        {
          "t": 190750,
          "type": "drum_hit",
          "pitch": 42,
          "duration_ms": 112,
          "velocity": 50,
          "beat_index": 1526,
          "section": "outro"
        },
        {
          "t": 191000,
          "type": "drum_hit",
          "pitch": 36,
          "duration_ms": 112,
          "velocity": 70,
          "beat_index": 1528,
          "section": "outro"
        },
        {
          "t": 191000,
          "type": "drum_hit",
          "pitch": 42,
          "duration_ms": 112,
          "velocity": 50,
          "beat_index": 1528,
          "section": "outro"
        },
        {
          "t": 191250,
          "type": "drum_hit",
          "pitch": 42,
          "duration_ms": 112,
          "velocity": 50,
          "beat_index": 1530,
          "section": "outro"
        },
        {
          "t": 191500,
          "type": "drum_hit",
          "pitch": 36,
          "duration_ms": 112,
          "velocity": 70,
          "beat_index": 1532,
          "section": "outro"
        },
        {
          "t": 191500,
          "type": "drum_hit",
          "pitch": 38,
          "duration_ms": 112,
          "velocity": 60,
          "beat_index": 1532,
          "section": "outro"
        },
        {
          "t": 191500,
          "type": "drum_hit",
          "pitch": 42,
          "duration_ms": 112,
          "velocity": 50,
          "beat_index": 1532,
          "section": "outro"
        },
        {
          "t": 191750,
          "type": "drum_hit",
          "pitch": 42,
          "duration_ms": 112,
          "velocity": 50,
          "beat_index": 1534,
          "section": "outro"
        }
      ]
    },
    {
      "id": "bass",
      "instrument": "Bass Synth",
      "midi_channel": 1,
      "role": "bass",
      "event_count": 768,
      "events": [
        {
          "t": 0,
          "type": "note",
          "pitch": 36,
          "duration_ms": 225,
          "velocity": 90,
          "beat_index": 0,
          "section": "intro"
        },
        {
          "t": 250,
          "type": "note",
          "pitch": 39,
          "duration_ms": 225,
          "velocity": 70,
          "beat_index": 2,
          "section": "intro"
        },
        {
          "t": 500,
          "type": "note",
          "pitch": 41,
          "duration_ms": 225,
          "velocity": 90,
          "beat_index": 4,
          "section": "intro"
        },
        {
          "t": 750,
          "type": "note",
          "pitch": 43,
          "duration_ms": 225,
          "velocity": 70,
          "beat_index": 6,
          "section": "intro"
        },
        {
          "t": 1000,
          "type": "note",
          "pitch": 36,
          "duration_ms": 225,
          "velocity": 90,
          "beat_index": 8,
          "section": "intro"
        },
        {
          "t": 1250,
          "type": "note",
          "pitch": 39,
          "duration_ms": 225,
          "velocity": 70,
          "beat_index": 10,
          "section": "intro"
        },
        {
          "t": 1500,
          "type": "note",
          "pitch": 43,
          "duration_ms": 225,
          "velocity": 90,
          "beat_index": 12,
          "section": "intro"
        },
        {
          "t": 1750,
          "type": "note",
          "pitch": 41,
          "duration_ms": 225,
          "velocity": 70,
          "beat_index": 14,
          "section": "intro"
        },
        {
          "t": 2000,
          "type": "note",
          "pitch": 36,
          "duration_ms": 225,
          "velocity": 90,
          "beat_index": 16,
          "section": "intro"
        },
        {
          "t": 2250,
          "type": "note",
          "pitch": 39,
          "duration_ms": 225,
          "velocity": 70,
          "beat_index": 18,
          "section": "intro"
        },
        {
          "t": 2500,
          "type": "note",
          "pitch": 41,
          "duration_ms": 225,
          "velocity": 90,
          "beat_index": 20,
          "section": "intro"
        },
        {
          "t": 2750,
          "type": "note",
          "pitch": 43,
          "duration_ms": 225,
          "velocity": 70,
          "beat_index": 22,
          "section": "intro"
        },
        {
          "t": 3000,
          "type": "note",
          "pitch": 36,
          "duration_ms": 225,
          "velocity": 90,
          "beat_index": 24,
          "section": "intro"
        },
        {
          "t": 3250,
          "type": "note",
          "pitch": 39,
          "duration_ms": 225,
          "velocity": 70,
          "beat_index": 26,
          "section": "intro"
        },
        {
          "t": 3500,
          "type": "note",
          "pitch": 43,
          "duration_ms": 225,
          "velocity": 90,
          "beat_index": 28,
          "section": "intro"
        },
        {
          "t": 3750,
          "type": "note",
          "pitch": 41,
          "duration_ms": 225,
          "velocity": 70,
          "beat_index": 30,
          "section": "intro"
        },
        {
          "t": 4000,
          "type": "note",
          "pitch": 36,
          "duration_ms": 225,
          "velocity": 90,
          "beat_index": 32,
          "section": "intro"
        },
        {
          "t": 4250,
          "type": "note",
          "pitch": 39,
          "duration_ms": 225,
          "velocity": 70,
          "beat_index": 34,
          "section": "intro"
        },
        {
          "t": 4500,
          "type": "note",
          "pitch": 41,
          "duration_ms": 225,
          "velocity": 90,
          "beat_index": 36,
          "section": "intro"
        },
        {
          "t": 4750,
          "type": "note",
          "pitch": 43,
          "duration_ms": 225,
          "velocity": 70,
          "beat_index": 38,
          "section": "intro"
        },
        {
          "t": 5000,
          "type": "note",
          "pitch": 36,
          "duration_ms": 225,
          "velocity": 90,
          "beat_index": 40,
          "section": "intro"
        },
        {
          "t": 5250,
          "type": "note",
          "pitch": 39,
          "duration_ms": 225,
          "velocity": 70,
          "beat_index": 42,
          "section": "intro"
        },
        {
          "t": 5500,
          "type": "note",
          "pitch": 43,
          "duration_ms": 225,
          "velocity": 90,
          "beat_index": 44,
          "section": "intro"
        },
        {
          "t": 5750,
          "type": "note",
          "pitch": 41,
          "duration_ms": 225,
          "velocity": 70,
          "beat_index": 46,
          "section": "intro"
        },
        {
          "t": 6000,
          "type": "note",
          "pitch": 36,
          "duration_ms": 225,
          "velocity": 90,
          "beat_index": 48,
          "section": "intro"
        },
        {
          "t": 6250,
          "type": "note",
          "pitch": 39,
          "duration_ms": 225,
          "velocity": 70,
          "beat_index": 50,
          "section": "intro"
        },
        {
          "t": 6500,
          "type": "note",
          "pitch": 41,
          "duration_ms": 225,
          "velocity": 90,
          "beat_index": 52,
          "section": "intro"
        },
        {
          "t": 6750,
          "type": "note",
          "pitch": 43,
          "duration_ms": 225,
          "velocity": 70,
          "beat_index": 54,
          "section": "intro"
        },
        {
          "t": 7000,
          "type": "note",
          "pitch": 36,
          "duration_ms": 225,
          "velocity": 90,
          "beat_index": 56,
          "section": "intro"
        },
        {
          "t": 7250,
          "type": "note",
          "pitch": 39,
          "duration_ms": 225,
          "velocity": 70,
          "beat_index": 58,
          "section": "intro"
        },
        {
          "t": 7500,
          "type": "note",
          "pitch": 43,
          "duration_ms": 225,
          "velocity": 90,
          "beat_index": 60,
          "section": "intro"
        },
        {
          "t": 7750,
          "type": "note",
          "pitch": 41,
          "duration_ms": 225,
          "velocity": 70,
          "beat_index": 62,
          "section": "intro"
        },
        {
          "t": 8000,
          "type": "note",
          "pitch": 36,
          "duration_ms": 225,
          "velocity": 90,
          "beat_index": 64,
          "section": "intro"
        },
        {
          "t": 8250,
          "type": "note",
          "pitch": 39,
          "duration_ms": 225,
          "velocity": 70,
          "beat_index": 66,
          "section": "intro"
        },
        {
          "t": 8500,
          "type": "note",
          "pitch": 41,
          "duration_ms": 225,
          "velocity": 90,
          "beat_index": 68,
          "section": "intro"
        },
        {
          "t": 8750,
          "type": "note",
          "pitch": 43,
          "duration_ms": 225,
          "velocity": 70,
          "beat_index": 70,
          "section": "intro"
        },
        {
          "t": 9000,
          "type": "note",
          "pitch": 36,
          "duration_ms": 225,
          "velocity": 90,
          "beat_index": 72,
          "section": "intro"
        },
        {
          "t": 9250,
          "type": "note",
          "pitch": 39,
          "duration_ms": 225,
          "velocity": 70,
          "beat_index": 74,
          "section": "intro"
        },
        {
          "t": 9500,
          "type": "note",
          "pitch": 43,
          "duration_ms": 225,
          "velocity": 90,
          "beat_index": 76,
          "section": "intro"
        },
        {
          "t": 9750,
          "type": "note",
          "pitch": 41,
          "duration_ms": 225,
          "velocity": 70,
          "beat_index": 78,
          "section": "intro"
        },
        {
          "t": 10000,
          "type": "note",
          "pitch": 36,
          "duration_ms": 225,
          "velocity": 90,
          "beat_index": 80,
          "section": "intro"
        },
        {
          "t": 10250,
          "type": "note",
          "pitch": 39,
          "duration_ms": 225,
          "velocity": 70,
          "beat_index": 82,
          "section": "intro"
        },
        {
          "t": 10500,
          "type": "note",
          "pitch": 41,
          "duration_ms": 225,
          "velocity": 90,
          "beat_index": 84,
          "section": "intro"
        },
        {
          "t": 10750,
          "type": "note",
          "pitch": 43,
          "duration_ms": 225,
          "velocity": 70,
          "beat_index": 86,
          "section": "intro"
        },
        {
          "t": 11000,
          "type": "note",
          "pitch": 36,
          "duration_ms": 225,
          "velocity": 90,
          "beat_index": 88,
          "section": "intro"
        },
        {
          "t": 11250,
          "type": "note",
          "pitch": 39,
          "duration_ms": 225,
          "velocity": 70,
          "beat_index": 90,
          "section": "intro"
        },
        {
          "t": 11500,
          "type": "note",
          "pitch": 43,
          "duration_ms": 225,
          "velocity": 90,
          "beat_index": 92,
          "section": "intro"
        },
        {
          "t": 11750,
          "type": "note",
          "pitch": 41,
          "duration_ms": 225,
          "velocity": 70,
          "beat_index": 94,
          "section": "intro"
        },
        {
          "t": 12000,
          "type": "note",
          "pitch": 36,
          "duration_ms": 225,
          "velocity": 90,
          "beat_index": 96,
          "section": "intro"
        },
        {
          "t": 12250,
          "type": "note",
          "pitch": 39,
          "duration_ms": 225,
          "velocity": 70,
          "beat_index": 98,
          "section": "intro"
        },
        {
          "t": 12500,
          "type": "note",
          "pitch": 41,
          "duration_ms": 225,
          "velocity": 90,
          "beat_index": 100,
          "section": "intro"
        },
        {
          "t": 12750,
          "type": "note",
          "pitch": 43,
          "duration_ms": 225,
          "velocity": 70,
          "beat_index": 102,
          "section": "intro"
        },
        {
          "t": 13000,
          "type": "note",
          "pitch": 36,
          "duration_ms": 225,
          "velocity": 90,
          "beat_index": 104,
          "section": "intro"
        },
        {
          "t": 13250,
          "type": "note",
          "pitch": 39,
          "duration_ms": 225,
          "velocity": 70,
          "beat_index": 106,
          "section": "intro"
        },
        {
          "t": 13500,
          "type": "note",
          "pitch": 43,
          "duration_ms": 225,
          "velocity": 90,
          "beat_index": 108,
          "section": "intro"
        },
        {
          "t": 13750,
          "type": "note",
          "pitch": 41,
          "duration_ms": 225,
          "velocity": 70,
          "beat_index": 110,
          "section": "intro"
        },
        {
          "t": 14000,
          "type": "note",
          "pitch": 36,
          "duration_ms": 225,
          "velocity": 90,
          "beat_index": 112,
          "section": "intro"
        },
        {
          "t": 14250,
          "type": "note",
          "pitch": 39,
          "duration_ms": 225,
          "velocity": 70,
          "beat_index": 114,
          "section": "intro"
        },
        {
          "t": 14500,
          "type": "note",
          "pitch": 41,
          "duration_ms": 225,
          "velocity": 90,
          "beat_index": 116,
          "section": "intro"
        },
        {
          "t": 14750,
          "type": "note",
          "pitch": 43,
          "duration_ms": 225,
          "velocity": 70,
          "beat_index": 118,
          "section": "intro"
        },
        {
          "t": 15000,
          "type": "note",
          "pitch": 36,
          "duration_ms": 225,
          "velocity": 90,
          "beat_index": 120,
          "section": "intro"
        },
        {
          "t": 15250,
          "type": "note",
          "pitch": 39,
          "duration_ms": 225,
          "velocity": 70,
          "beat_index": 122,
          "section": "intro"
        },
        {
          "t": 15500,
          "type": "note",
          "pitch": 43,
          "duration_ms": 225,
          "velocity": 90,
          "beat_index": 124,
          "section": "intro"
        },
        {
          "t": 15750,
          "type": "note",
          "pitch": 41,
          "duration_ms": 225,
          "velocity": 70,
          "beat_index": 126,
          "section": "intro"
        },
        {
          "t": 16000,
          "type": "note",
          "pitch": 36,
          "duration_ms": 225,
          "velocity": 90,
          "beat_index": 128,
          "section": "intro"
        },
        {
          "t": 16250,
          "type": "note",
          "pitch": 39,
          "duration_ms": 225,
          "velocity": 70,
          "beat_index": 130,
          "section": "intro"
        },
        {
          "t": 16500,
          "type": "note",
          "pitch": 41,
          "duration_ms": 225,
          "velocity": 90,
          "beat_index": 132,
          "section": "intro"
        },
        {
          "t": 16750,
          "type": "note",
          "pitch": 43,
          "duration_ms": 225,
          "velocity": 70,
          "beat_index": 134,
          "section": "intro"
        },
        {
          "t": 17000,
          "type": "note",
          "pitch": 36,
          "duration_ms": 225,
          "velocity": 90,
          "beat_index": 136,
          "section": "intro"
        },
        {
          "t": 17250,
          "type": "note",
          "pitch": 39,
          "duration_ms": 225,
          "velocity": 70,
          "beat_index": 138,
          "section": "intro"
        },
        {
          "t": 17500,
          "type": "note",
          "pitch": 43,
          "duration_ms": 225,
          "velocity": 90,
          "beat_index": 140,
          "section": "intro"
        },
        {
          "t": 17750,
          "type": "note",
          "pitch": 41,
          "duration_ms": 225,
          "velocity": 70,
          "beat_index": 142,
          "section": "intro"
        },
        {
          "t": 18000,
          "type": "note",
          "pitch": 36,
          "duration_ms": 225,
          "velocity": 90,
          "beat_index": 144,
          "section": "intro"
        },
        {
          "t": 18250,
          "type": "note",
          "pitch": 39,
          "duration_ms": 225,
          "velocity": 70,
          "beat_index": 146,
          "section": "intro"
        },
        {
          "t": 18500,
          "type": "note",
          "pitch": 41,
          "duration_ms": 225,
          "velocity": 90,
          "beat_index": 148,
          "section": "intro"
        },
        {
          "t": 18750,
          "type": "note",
          "pitch": 43,
          "duration_ms": 225,
          "velocity": 70,
          "beat_index": 150,
          "section": "intro"
        },
        {
          "t": 19000,
          "type": "note",
          "pitch": 36,
          "duration_ms": 225,
          "velocity": 90,
          "beat_index": 152,
          "section": "intro"
        },
        {
          "t": 19250,
          "type": "note",
          "pitch": 39,
          "duration_ms": 225,
          "velocity": 70,
          "beat_index": 154,
          "section": "intro"
        },
        {
          "t": 19500,
          "type": "note",
          "pitch": 43,
          "duration_ms": 225,
          "velocity": 90,
          "beat_index": 156,
          "section": "intro"
        },
        {
          "t": 19750,
          "type": "note",
          "pitch": 41,
          "duration_ms": 225,
          "velocity": 70,
          "beat_index": 158,
          "section": "intro"
        },
        {
          "t": 20000,
          "type": "note",
          "pitch": 36,
          "duration_ms": 225,
          "velocity": 90,
          "beat_index": 160,
          "section": "intro"
        },
        {
          "t": 20250,
          "type": "note",
          "pitch": 39,
          "duration_ms": 225,
          "velocity": 70,
          "beat_index": 162,
          "section": "intro"
        },
        {
          "t": 20500,
          "type": "note",
          "pitch": 41,
          "duration_ms": 225,
          "velocity": 90,
          "beat_index": 164,
          "section": "intro"
        },
        {
          "t": 20750,
          "type": "note",
          "pitch": 43,
          "duration_ms": 225,
          "velocity": 70,
          "beat_index": 166,
          "section": "intro"
        },
        {
          "t": 21000,
          "type": "note",
          "pitch": 36,
          "duration_ms": 225,
          "velocity": 90,
          "beat_index": 168,
          "section": "intro"
        },
        {
          "t": 21250,
          "type": "note",
          "pitch": 39,
          "duration_ms": 225,
          "velocity": 70,
          "beat_index": 170,
          "section": "intro"
        },
        {
          "t": 21500,
          "type": "note",
          "pitch": 43,
          "duration_ms": 225,
          "velocity": 90,
          "beat_index": 172,
          "section": "intro"
        },
        {
          "t": 21750,
          "type": "note",
          "pitch": 41,
          "duration_ms": 225,
          "velocity": 70,
          "beat_index": 174,
          "section": "intro"
        },
        {
          "t": 22000,
          "type": "note",
          "pitch": 36,
          "duration_ms": 225,
          "velocity": 90,
          "beat_index": 176,
          "section": "intro"
        },
        {
          "t": 22250,
          "type": "note",
          "pitch": 39,
          "duration_ms": 225,
          "velocity": 70,
          "beat_index": 178,
          "section": "intro"
        },
        {
          "t": 22500,
          "type": "note",
          "pitch": 41,
          "duration_ms": 225,
          "velocity": 90,
          "beat_index": 180,
          "section": "intro"
        },
        {
          "t": 22750,
          "type": "note",
          "pitch": 43,
          "duration_ms": 225,
          "velocity": 70,
          "beat_index": 182,
          "section": "intro"
        },
        {
          "t": 23000,
          "type": "note",
          "pitch": 36,
          "duration_ms": 225,
          "velocity": 90,
          "beat_index": 184,
          "section": "intro"
        },
        {
          "t": 23250,
          "type": "note",
          "pitch": 39,
          "duration_ms": 225,
          "velocity": 70,
          "beat_index": 186,
          "section": "intro"
        },
        {
          "t": 23500,
          "type": "note",
          "pitch": 43,
          "duration_ms": 225,
          "velocity": 90,
          "beat_index": 188,
          "section": "intro"
        },
        {
          "t": 23750,
          "type": "note",
          "pitch": 41,
          "duration_ms": 225,
          "velocity": 70,
          "beat_index": 190,
          "section": "intro"
        },
        {
          "t": 24000,
          "type": "note",
          "pitch": 36,
          "duration_ms": 225,
          "velocity": 90,
          "beat_index": 192,
          "section": "intro"
        },
        {
          "t": 24250,
          "type": "note",
          "pitch": 39,
          "duration_ms": 225,
          "velocity": 70,
          "beat_index": 194,
          "section": "intro"
        },
        {
          "t": 24500,
          "type": "note",
          "pitch": 41,
          "duration_ms": 225,
          "velocity": 90,
          "beat_index": 196,
          "section": "intro"
        },
        {
          "t": 24750,
          "type": "note",
          "pitch": 43,
          "duration_ms": 225,
          "velocity": 70,
          "beat_index": 198,
          "section": "intro"
        },
        {
          "t": 25000,
          "type": "note",
          "pitch": 36,
          "duration_ms": 225,
          "velocity": 90,
          "beat_index": 200,
          "section": "intro"
        },
        {
          "t": 25250,
          "type": "note",
          "pitch": 39,
          "duration_ms": 225,
          "velocity": 70,
          "beat_index": 202,
          "section": "intro"
        },
        {
          "t": 25500,
          "type": "note",
          "pitch": 43,
          "duration_ms": 225,
          "velocity": 90,
          "beat_index": 204,
          "section": "intro"
        },
        {
          "t": 25750,
          "type": "note",
          "pitch": 41,
          "duration_ms": 225,
          "velocity": 70,
          "beat_index": 206,
          "section": "intro"
        },
        {
          "t": 26000,
          "type": "note",
          "pitch": 36,
          "duration_ms": 225,
          "velocity": 90,
          "beat_index": 208,
          "section": "intro"
        },
        {
          "t": 26250,
          "type": "note",
          "pitch": 39,
          "duration_ms": 225,
          "velocity": 70,
          "beat_index": 210,
          "section": "intro"
        },
        {
          "t": 26500,
          "type": "note",
          "pitch": 41,
          "duration_ms": 225,
          "velocity": 90,
          "beat_index": 212,
          "section": "intro"
        },
        {
          "t": 26750,
          "type": "note",
          "pitch": 43,
          "duration_ms": 225,
          "velocity": 70,
          "beat_index": 214,
          "section": "intro"
        },
        {
          "t": 27000,
          "type": "note",
          "pitch": 36,
          "duration_ms": 225,
          "velocity": 90,
          "beat_index": 216,
          "section": "intro"
        },
        {
          "t": 27250,
          "type": "note",
          "pitch": 39,
          "duration_ms": 225,
          "velocity": 70,
          "beat_index": 218,
          "section": "intro"
        },
        {
          "t": 27500,
          "type": "note",
          "pitch": 43,
          "duration_ms": 225,
          "velocity": 90,
          "beat_index": 220,
          "section": "intro"
        },
        {
          "t": 27750,
          "type": "note",
          "pitch": 41,
          "duration_ms": 225,
          "velocity": 70,
          "beat_index": 222,
          "section": "intro"
        },
        {
          "t": 28000,
          "type": "note",
          "pitch": 36,
          "duration_ms": 225,
          "velocity": 90,
          "beat_index": 224,
          "section": "intro"
        },
        {
          "t": 28250,
          "type": "note",
          "pitch": 39,
          "duration_ms": 225,
          "velocity": 70,
          "beat_index": 226,
          "section": "intro"
        },
        {
          "t": 28500,
          "type": "note",
          "pitch": 41,
          "duration_ms": 225,
          "velocity": 90,
          "beat_index": 228,
          "section": "intro"
        },
        {
          "t": 28750,
          "type": "note",
          "pitch": 43,
          "duration_ms": 225,
          "velocity": 70,
          "beat_index": 230,
          "section": "intro"
        },
        {
          "t": 29000,
          "type": "note",
          "pitch": 36,
          "duration_ms": 225,
          "velocity": 90,
          "beat_index": 232,
          "section": "intro"
        },
        {
          "t": 29250,
          "type": "note",
          "pitch": 39,
          "duration_ms": 225,
          "velocity": 70,
          "beat_index": 234,
          "section": "intro"
        },
        {
          "t": 29500,
          "type": "note",
          "pitch": 43,
          "duration_ms": 225,
          "velocity": 90,
          "beat_index": 236,
          "section": "intro"
        },
        {
          "t": 29750,
          "type": "note",
          "pitch": 41,
          "duration_ms": 225,
          "velocity": 70,
          "beat_index": 238,
          "section": "intro"
        },
        {
          "t": 30000,
          "type": "note",
          "pitch": 36,
          "duration_ms": 225,
          "velocity": 90,
          "beat_index": 240,
          "section": "intro"
        },
        {
          "t": 30250,
          "type": "note",
          "pitch": 39,
          "duration_ms": 225,
          "velocity": 70,
          "beat_index": 242,
          "section": "intro"
        },
        {
          "t": 30500,
          "type": "note",
          "pitch": 41,
          "duration_ms": 225,
          "velocity": 90,
          "beat_index": 244,
          "section": "intro"
        },
        {
          "t": 30750,
          "type": "note",
          "pitch": 43,
          "duration_ms": 225,
          "velocity": 70,
          "beat_index": 246,
          "section": "intro"
        },
        {
          "t": 31000,
          "type": "note",
          "pitch": 36,
          "duration_ms": 225,
          "velocity": 90,
          "beat_index": 248,
          "section": "intro"
        },
        {
          "t": 31250,
          "type": "note",
          "pitch": 39,
          "duration_ms": 225,
          "velocity": 70,
          "beat_index": 250,
          "section": "intro"
        },
        {
          "t": 31500,
          "type": "note",
          "pitch": 43,
          "duration_ms": 225,
          "velocity": 90,
          "beat_index": 252,
          "section": "intro"
        },
        {
          "t": 31750,
          "type": "note",
          "pitch": 41,
          "duration_ms": 225,
          "velocity": 70,
          "beat_index": 254,
          "section": "intro"
        },
        {
          "t": 32000,
          "type": "note",
          "pitch": 36,
          "duration_ms": 225,
          "velocity": 90,
          "beat_index": 256,
          "section": "verse"
        },
        {
          "t": 32250,
          "type": "note",
          "pitch": 39,
          "duration_ms": 225,
          "velocity": 70,
          "beat_index": 258,
          "section": "verse"
        },
        {
          "t": 32500,
          "type": "note",
          "pitch": 41,
          "duration_ms": 225,
          "velocity": 90,
          "beat_index": 260,
          "section": "verse"
        },
        {
          "t": 32750,
          "type": "note",
          "pitch": 43,
          "duration_ms": 225,
          "velocity": 70,
          "beat_index": 262,
          "section": "verse"
        },
        {
          "t": 33000,
          "type": "note",
          "pitch": 36,
          "duration_ms": 225,
          "velocity": 90,
          "beat_index": 264,
          "section": "verse"
        },
        {
          "t": 33250,
          "type": "note",
          "pitch": 39,
          "duration_ms": 225,
          "velocity": 70,
          "beat_index": 266,
          "section": "verse"
        },
        {
          "t": 33500,
          "type": "note",
          "pitch": 43,
          "duration_ms": 225,
          "velocity": 90,
          "beat_index": 268,
          "section": "verse"
        },
        {
          "t": 33750,
          "type": "note",
          "pitch": 41,
          "duration_ms": 225,
          "velocity": 70,
          "beat_index": 270,
          "section": "verse"
        },
        {
          "t": 34000,
          "type": "note",
          "pitch": 36,
          "duration_ms": 225,
          "velocity": 90,
          "beat_index": 272,
          "section": "verse"
        },
        {
          "t": 34250,
          "type": "note",
          "pitch": 39,
          "duration_ms": 225,
          "velocity": 70,
          "beat_index": 274,
          "section": "verse"
        },
        {
          "t": 34500,
          "type": "note",
          "pitch": 41,
          "duration_ms": 225,
          "velocity": 90,
          "beat_index": 276,
          "section": "verse"
        },
        {
          "t": 34750,
          "type": "note",
          "pitch": 43,
          "duration_ms": 225,
          "velocity": 70,
          "beat_index": 278,
          "section": "verse"
        },
        {
          "t": 35000,
          "type": "note",
          "pitch": 36,
          "duration_ms": 225,
          "velocity": 90,
          "beat_index": 280,
          "section": "verse"
        },
        {
          "t": 35250,
          "type": "note",
          "pitch": 39,
          "duration_ms": 225,
          "velocity": 70,
          "beat_index": 282,
          "section": "verse"
        },
        {
          "t": 35500,
          "type": "note",
          "pitch": 43,
          "duration_ms": 225,
          "velocity": 90,
          "beat_index": 284,
          "section": "verse"
        },
        {
          "t": 35750,
          "type": "note",
          "pitch": 41,
          "duration_ms": 225,
          "velocity": 70,
          "beat_index": 286,
          "section": "verse"
        },
        {
          "t": 36000,
          "type": "note",
          "pitch": 36,
          "duration_ms": 225,
          "velocity": 90,
          "beat_index": 288,
          "section": "verse"
        },
        {
          "t": 36250,
          "type": "note",
          "pitch": 39,
          "duration_ms": 225,
          "velocity": 70,
          "beat_index": 290,
          "section": "verse"
        },
        {
          "t": 36500,
          "type": "note",
          "pitch": 41,
          "duration_ms": 225,
          "velocity": 90,
          "beat_index": 292,
          "section": "verse"
        },
        {
          "t": 36750,
          "type": "note",
          "pitch": 43,
          "duration_ms": 225,
          "velocity": 70,
          "beat_index": 294,
          "section": "verse"
        },
        {
          "t": 37000,
          "type": "note",
          "pitch": 36,
          "duration_ms": 225,
          "velocity": 90,
          "beat_index": 296,
          "section": "verse"
        },
        {
          "t": 37250,
          "type": "note",
          "pitch": 39,
          "duration_ms": 225,
          "velocity": 70,
          "beat_index": 298,
          "section": "verse"
        },
        {
          "t": 37500,
          "type": "note",
          "pitch": 43,
          "duration_ms": 225,
          "velocity": 90,
          "beat_index": 300,
          "section": "verse"
        },
        {
          "t": 37750,
          "type": "note",
          "pitch": 41,
          "duration_ms": 225,
          "velocity": 70,
          "beat_index": 302,
          "section": "verse"
        },
        {
          "t": 38000,
          "type": "note",
          "pitch": 36,
          "duration_ms": 225,
          "velocity": 90,
          "beat_index": 304,
          "section": "verse"
        },
        {
          "t": 38250,
          "type": "note",
          "pitch": 39,
          "duration_ms": 225,
          "velocity": 70,
          "beat_index": 306,
          "section": "verse"
        },
        {
          "t": 38500,
          "type": "note",
          "pitch": 41,
          "duration_ms": 225,
          "velocity": 90,
          "beat_index": 308,
          "section": "verse"
        },
        {
          "t": 38750,
          "type": "note",
          "pitch": 43,
          "duration_ms": 225,
          "velocity": 70,
          "beat_index": 310,
          "section": "verse"
        },
        {
          "t": 39000,
          "type": "note",
          "pitch": 36,
          "duration_ms": 225,
          "velocity": 90,
          "beat_index": 312,
          "section": "verse"
        },
        {
          "t": 39250,
          "type": "note",
          "pitch": 39,
          "duration_ms": 225,
          "velocity": 70,
          "beat_index": 314,
          "section": "verse"
        },
        {
          "t": 39500,
          "type": "note",
          "pitch": 43,
          "duration_ms": 225,
          "velocity": 90,
          "beat_index": 316,
          "section": "verse"
        },
        {
          "t": 39750,
          "type": "note",
          "pitch": 41,
          "duration_ms": 225,
          "velocity": 70,
          "beat_index": 318,
          "section": "verse"
        },
        {
          "t": 40000,
          "type": "note",
          "pitch": 36,
          "duration_ms": 225,
          "velocity": 90,
          "beat_index": 320,
          "section": "verse"
        },
        {
          "t": 40250,
          "type": "note",
          "pitch": 39,
          "duration_ms": 225,
          "velocity": 70,
          "beat_index": 322,
          "section": "verse"
        },
        {
          "t": 40500,
          "type": "note",
          "pitch": 41,
          "duration_ms": 225,
          "velocity": 90,
          "beat_index": 324,
          "section": "verse"
        },
        {
          "t": 40750,
          "type": "note",
          "pitch": 43,
          "duration_ms": 225,
          "velocity": 70,
          "beat_index": 326,
          "section": "verse"
        },
        {
          "t": 41000,
          "type": "note",
          "pitch": 36,
          "duration_ms": 225,
          "velocity": 90,
          "beat_index": 328,
          "section": "verse"
        },
        {
          "t": 41250,
          "type": "note",
          "pitch": 39,
          "duration_ms": 225,
          "velocity": 70,
          "beat_index": 330,
          "section": "verse"
        },
        {
          "t": 41500,
          "type": "note",
          "pitch": 43,
          "duration_ms": 225,
          "velocity": 90,
          "beat_index": 332,
          "section": "verse"
        },
        {
          "t": 41750,
          "type": "note",
          "pitch": 41,
          "duration_ms": 225,
          "velocity": 70,
          "beat_index": 334,
          "section": "verse"
        },
        {
          "t": 42000,
          "type": "note",
          "pitch": 36,
          "duration_ms": 225,
          "velocity": 90,
          "beat_index": 336,
          "section": "verse"
        },
        {
          "t": 42250,
          "type": "note",
          "pitch": 39,
          "duration_ms": 225,
          "velocity": 70,
          "beat_index": 338,
          "section": "verse"
        },
        {
          "t": 42500,
          "type": "note",
          "pitch": 41,
          "duration_ms": 225,
          "velocity": 90,
          "beat_index": 340,
          "section": "verse"
        },
        {
          "t": 42750,
          "type": "note",
          "pitch": 43,
          "duration_ms": 225,
          "velocity": 70,
          "beat_index": 342,
          "section": "verse"
        },
        {
          "t": 43000,
          "type": "note",
          "pitch": 36,
          "duration_ms": 225,
          "velocity": 90,
          "beat_index": 344,
          "section": "verse"
        },
        {
          "t": 43250,
          "type": "note",
          "pitch": 39,
          "duration_ms": 225,
          "velocity": 70,
          "beat_index": 346,
          "section": "verse"
        },
        {
          "t": 43500,
          "type": "note",
          "pitch": 43,
          "duration_ms": 225,
          "velocity": 90,
          "beat_index": 348,
          "section": "verse"
        },
        {
          "t": 43750,
          "type": "note",
          "pitch": 41,
          "duration_ms": 225,
          "velocity": 70,
          "beat_index": 350,
          "section": "verse"
        },
        {
          "t": 44000,
          "type": "note",
          "pitch": 36,
          "duration_ms": 225,
          "velocity": 90,
          "beat_index": 352,
          "section": "verse"
        },
        {
          "t": 44250,
          "type": "note",
          "pitch": 39,
          "duration_ms": 225,
          "velocity": 70,
          "beat_index": 354,
          "section": "verse"
        },
        {
          "t": 44500,
          "type": "note",
          "pitch": 41,
          "duration_ms": 225,
          "velocity": 90,
          "beat_index": 356,
          "section": "verse"
        },
        {
          "t": 44750,
          "type": "note",
          "pitch": 43,
          "duration_ms": 225,
          "velocity": 70,
          "beat_index": 358,
          "section": "verse"
        },
        {
          "t": 45000,
          "type": "note",
          "pitch": 36,
          "duration_ms": 225,
          "velocity": 90,
          "beat_index": 360,
          "section": "verse"
        },
        {
          "t": 45250,
          "type": "note",
          "pitch": 39,
          "duration_ms": 225,
          "velocity": 70,
          "beat_index": 362,
          "section": "verse"
        },
        {
          "t": 45500,
          "type": "note",
          "pitch": 43,
          "duration_ms": 225,
          "velocity": 90,
          "beat_index": 364,
          "section": "verse"
        },
        {
          "t": 45750,
          "type": "note",
          "pitch": 41,
          "duration_ms": 225,
          "velocity": 70,
          "beat_index": 366,
          "section": "verse"
        },
        {
          "t": 46000,
          "type": "note",
          "pitch": 36,
          "duration_ms": 225,
          "velocity": 90,
          "beat_index": 368,
          "section": "verse"
        },
        {
          "t": 46250,
          "type": "note",
          "pitch": 39,
          "duration_ms": 225,
          "velocity": 70,
          "beat_index": 370,
          "section": "verse"
        },
        {
          "t": 46500,
          "type": "note",
          "pitch": 41,
          "duration_ms": 225,
          "velocity": 90,
          "beat_index": 372,
          "section": "verse"
        },
        {
          "t": 46750,
          "type": "note",
          "pitch": 43,
          "duration_ms": 225,
          "velocity": 70,
          "beat_index": 374,
          "section": "verse"
        },
        {
          "t": 47000,
          "type": "note",
          "pitch": 36,
          "duration_ms": 225,
          "velocity": 90,
          "beat_index": 376,
          "section": "verse"
        },
        {
          "t": 47250,
          "type": "note",
          "pitch": 39,
          "duration_ms": 225,
          "velocity": 70,
          "beat_index": 378,
          "section": "verse"
        },
        {
          "t": 47500,
          "type": "note",
          "pitch": 43,
          "duration_ms": 225,
          "velocity": 90,
          "beat_index": 380,
          "section": "verse"
        },
        {
          "t": 47750,
          "type": "note",
          "pitch": 41,
          "duration_ms": 225,
          "velocity": 70,
          "beat_index": 382,
          "section": "verse"
        },
        {
          "t": 48000,
          "type": "note",
          "pitch": 36,
          "duration_ms": 225,
          "velocity": 90,
          "beat_index": 384,
          "section": "verse"
        },
        {
          "t": 48250,
          "type": "note",
          "pitch": 39,
          "duration_ms": 225,
          "velocity": 70,
          "beat_index": 386,
          "section": "verse"
        },
        {
          "t": 48500,
          "type": "note",
          "pitch": 41,
          "duration_ms": 225,
          "velocity": 90,
          "beat_index": 388,
          "section": "verse"
        },
        {
          "t": 48750,
          "type": "note",
          "pitch": 43,
          "duration_ms": 225,
          "velocity": 70,
          "beat_index": 390,
          "section": "verse"
        },
        {
          "t": 49000,
          "type": "note",
          "pitch": 36,
          "duration_ms": 225,
          "velocity": 90,
          "beat_index": 392,
          "section": "verse"
        },
        {
          "t": 49250,
          "type": "note",
          "pitch": 39,
          "duration_ms": 225,
          "velocity": 70,
          "beat_index": 394,
          "section": "verse"
        },
        {
          "t": 49500,
          "type": "note",
          "pitch": 43,
          "duration_ms": 225,
          "velocity": 90,
          "beat_index": 396,
          "section": "verse"
        },
        {
          "t": 49750,
          "type": "note",
          "pitch": 41,
          "duration_ms": 225,
          "velocity": 70,
          "beat_index": 398,
          "section": "verse"
        },
        {
          "t": 50000,
          "type": "note",
          "pitch": 36,
          "duration_ms": 225,
          "velocity": 90,
          "beat_index": 400,
          "section": "verse"
        },
        {
          "t": 50250,
          "type": "note",
          "pitch": 39,
          "duration_ms": 225,
          "velocity": 70,
          "beat_index": 402,
          "section": "verse"
        },
        {
          "t": 50500,
          "type": "note",
          "pitch": 41,
          "duration_ms": 225,
          "velocity": 90,
          "beat_index": 404,
          "section": "verse"
        },
        {
          "t": 50750,
          "type": "note",
          "pitch": 43,
          "duration_ms": 225,
          "velocity": 70,
          "beat_index": 406,
          "section": "verse"
        },
        {
          "t": 51000,
          "type": "note",
          "pitch": 36,
          "duration_ms": 225,
          "velocity": 90,
          "beat_index": 408,
          "section": "verse"
        },
        {
          "t": 51250,
          "type": "note",
          "pitch": 39,
          "duration_ms": 225,
          "velocity": 70,
          "beat_index": 410,
          "section": "verse"
        },
        {
          "t": 51500,
          "type": "note",
          "pitch": 43,
          "duration_ms": 225,
          "velocity": 90,
          "beat_index": 412,
          "section": "verse"
        },
        {
          "t": 51750,
          "type": "note",
          "pitch": 41,
          "duration_ms": 225,
          "velocity": 70,
          "beat_index": 414,
          "section": "verse"
        },
        {
          "t": 52000,
          "type": "note",
          "pitch": 36,
          "duration_ms": 225,
          "velocity": 90,
          "beat_index": 416,
          "section": "verse"
        },
        {
          "t": 52250,
          "type": "note",
          "pitch": 39,
          "duration_ms": 225,
          "velocity": 70,
          "beat_index": 418,
          "section": "verse"
        },
        {
          "t": 52500,
          "type": "note",
          "pitch": 41,
          "duration_ms": 225,
          "velocity": 90,
          "beat_index": 420,
          "section": "verse"
        },
        {
          "t": 52750,
          "type": "note",
          "pitch": 43,
          "duration_ms": 225,
          "velocity": 70,
          "beat_index": 422,
          "section": "verse"
        },
        {
          "t": 53000,
          "type": "note",
          "pitch": 36,
          "duration_ms": 225,
          "velocity": 90,
          "beat_index": 424,
          "section": "verse"
        },
        {
          "t": 53250,
          "type": "note",
          "pitch": 39,
          "duration_ms": 225,
          "velocity": 70,
          "beat_index": 426,
          "section": "verse"
        },
        {
          "t": 53500,
          "type": "note",
          "pitch": 43,
          "duration_ms": 225,
          "velocity": 90,
          "beat_index": 428,
          "section": "verse"
        },
        {
          "t": 53750,
          "type": "note",
          "pitch": 41,
          "duration_ms": 225,
          "velocity": 70,
          "beat_index": 430,
          "section": "verse"
        },
        {
          "t": 54000,
          "type": "note",
          "pitch": 36,
          "duration_ms": 225,
          "velocity": 90,
          "beat_index": 432,
          "section": "verse"
        },
        {
          "t": 54250,
          "type": "note",
          "pitch": 39,
          "duration_ms": 225,
          "velocity": 70,
          "beat_index": 434,
          "section": "verse"
        },
        {
          "t": 54500,
          "type": "note",
          "pitch": 41,
          "duration_ms": 225,
          "velocity": 90,
          "beat_index": 436,
          "section": "verse"
        },
        {
          "t": 54750,
          "type": "note",
          "pitch": 43,
          "duration_ms": 225,
          "velocity": 70,
          "beat_index": 438,
          "section": "verse"
        },
        {
          "t": 55000,
          "type": "note",
          "pitch": 36,
          "duration_ms": 225,
          "velocity": 90,
          "beat_index": 440,
          "section": "verse"
        },
        {
          "t": 55250,
          "type": "note",
          "pitch": 39,
          "duration_ms": 225,
          "velocity": 70,
          "beat_index": 442,
          "section": "verse"
        },
        {
          "t": 55500,
          "type": "note",
          "pitch": 43,
          "duration_ms": 225,
          "velocity": 90,
          "beat_index": 444,
          "section": "verse"
        },
        {
          "t": 55750,
          "type": "note",
          "pitch": 41,
          "duration_ms": 225,
          "velocity": 70,
          "beat_index": 446,
          "section": "verse"
        },
        {
          "t": 56000,
          "type": "note",
          "pitch": 36,
          "duration_ms": 225,
          "velocity": 90,
          "beat_index": 448,
          "section": "verse"
        },
        {
          "t": 56250,
          "type": "note",
          "pitch": 39,
          "duration_ms": 225,
          "velocity": 70,
          "beat_index": 450,
          "section": "verse"
        },
        {
          "t": 56500,
          "type": "note",
          "pitch": 41,
          "duration_ms": 225,
          "velocity": 90,
          "beat_index": 452,
          "section": "verse"
        },
        {
          "t": 56750,
          "type": "note",
          "pitch": 43,
          "duration_ms": 225,
          "velocity": 70,
          "beat_index": 454,
          "section": "verse"
        },
        {
          "t": 57000,
          "type": "note",
          "pitch": 36,
          "duration_ms": 225,
          "velocity": 90,
          "beat_index": 456,
          "section": "verse"
        },
        {
          "t": 57250,
          "type": "note",
          "pitch": 39,
          "duration_ms": 225,
          "velocity": 70,
          "beat_index": 458,
          "section": "verse"
        },
        {
          "t": 57500,
          "type": "note",
          "pitch": 43,
          "duration_ms": 225,
          "velocity": 90,
          "beat_index": 460,
          "section": "verse"
        },
        {
          "t": 57750,
          "type": "note",
          "pitch": 41,
          "duration_ms": 225,
          "velocity": 70,
          "beat_index": 462,
          "section": "verse"
        },
        {
          "t": 58000,
          "type": "note",
          "pitch": 36,
          "duration_ms": 225,
          "velocity": 90,
          "beat_index": 464,
          "section": "verse"
        },
        {
          "t": 58250,
          "type": "note",
          "pitch": 39,
          "duration_ms": 225,
          "velocity": 70,
          "beat_index": 466,
          "section": "verse"
        },
        {
          "t": 58500,
          "type": "note",
          "pitch": 41,
          "duration_ms": 225,
          "velocity": 90,
          "beat_index": 468,
          "section": "verse"
        },
        {
          "t": 58750,
          "type": "note",
          "pitch": 43,
          "duration_ms": 225,
          "velocity": 70,
          "beat_index": 470,
          "section": "verse"
        },
        {
          "t": 59000,
          "type": "note",
          "pitch": 36,
          "duration_ms": 225,
          "velocity": 90,
          "beat_index": 472,
          "section": "verse"
        },
        {
          "t": 59250,
          "type": "note",
          "pitch": 39,
          "duration_ms": 225,
          "velocity": 70,
          "beat_index": 474,
          "section": "verse"
        },
        {
          "t": 59500,
          "type": "note",
          "pitch": 43,
          "duration_ms": 225,
          "velocity": 90,
          "beat_index": 476,
          "section": "verse"
        },
        {
          "t": 59750,
          "type": "note",
          "pitch": 41,
          "duration_ms": 225,
          "velocity": 70,
          "beat_index": 478,
          "section": "verse"
        },
        {
          "t": 60000,
          "type": "note",
          "pitch": 36,
          "duration_ms": 225,
          "velocity": 90,
          "beat_index": 480,
          "section": "verse"
        },
        {
          "t": 60250,
          "type": "note",
          "pitch": 39,
          "duration_ms": 225,
          "velocity": 70,
          "beat_index": 482,
          "section": "verse"
        },
        {
          "t": 60500,
          "type": "note",
          "pitch": 41,
          "duration_ms": 225,
          "velocity": 90,
          "beat_index": 484,
          "section": "verse"
        },
        {
          "t": 60750,
          "type": "note",
          "pitch": 43,
          "duration_ms": 225,
          "velocity": 70,
          "beat_index": 486,
          "section": "verse"
        },
        {
          "t": 61000,
          "type": "note",
          "pitch": 36,
          "duration_ms": 225,
          "velocity": 90,
          "beat_index": 488,
          "section": "verse"
        },
        {
          "t": 61250,
          "type": "note",
          "pitch": 39,
          "duration_ms": 225,
          "velocity": 70,
          "beat_index": 490,
          "section": "verse"
        },
        {
          "t": 61500,
          "type": "note",
          "pitch": 43,
          "duration_ms": 225,
          "velocity": 90,
          "beat_index": 492,
          "section": "verse"
        },
        {
          "t": 61750,
          "type": "note",
          "pitch": 41,
          "duration_ms": 225,
          "velocity": 70,
          "beat_index": 494,
          "section": "verse"
        },
        {
          "t": 62000,
          "type": "note",
          "pitch": 36,
          "duration_ms": 225,
          "velocity": 90,
          "beat_index": 496,
          "section": "verse"
        },
        {
          "t": 62250,
          "type": "note",
          "pitch": 39,
          "duration_ms": 225,
          "velocity": 70,
          "beat_index": 498,
          "section": "verse"
        },
        {
          "t": 62500,
          "type": "note",
          "pitch": 41,
          "duration_ms": 225,
          "velocity": 90,
          "beat_index": 500,
          "section": "verse"
        },
        {
          "t": 62750,
          "type": "note",
          "pitch": 43,
          "duration_ms": 225,
          "velocity": 70,
          "beat_index": 502,
          "section": "verse"
        },
        {
          "t": 63000,
          "type": "note",
          "pitch": 36,
          "duration_ms": 225,
          "velocity": 90,
          "beat_index": 504,
          "section": "verse"
        },
        {
          "t": 63250,
          "type": "note",
          "pitch": 39,
          "duration_ms": 225,
          "velocity": 70,
          "beat_index": 506,
          "section": "verse"
        },
        {
          "t": 63500,
          "type": "note",
          "pitch": 43,
          "duration_ms": 225,
          "velocity": 90,
          "beat_index": 508,
          "section": "verse"
        },
        {
          "t": 63750,
          "type": "note",
          "pitch": 41,
          "duration_ms": 225,
          "velocity": 70,
          "beat_index": 510,
          "section": "verse"
        },
        {
          "t": 64000,
          "type": "note",
          "pitch": 36,
          "duration_ms": 225,
          "velocity": 90,
          "beat_index": 512,
          "section": "verse"
        },
        {
          "t": 64250,
          "type": "note",
          "pitch": 39,
          "duration_ms": 225,
          "velocity": 70,
          "beat_index": 514,
          "section": "verse"
        },
        {
          "t": 64500,
          "type": "note",
          "pitch": 41,
          "duration_ms": 225,
          "velocity": 90,
          "beat_index": 516,
          "section": "verse"
        },
        {
          "t": 64750,
          "type": "note",
          "pitch": 43,
          "duration_ms": 225,
          "velocity": 70,
          "beat_index": 518,
          "section": "verse"
        },
        {
          "t": 65000,
          "type": "note",
          "pitch": 36,
          "duration_ms": 225,
          "velocity": 90,
          "beat_index": 520,
          "section": "verse"
        },
        {
          "t": 65250,
          "type": "note",
          "pitch": 39,
          "duration_ms": 225,
          "velocity": 70,
          "beat_index": 522,
          "section": "verse"
        },
        {
          "t": 65500,
          "type": "note",
          "pitch": 43,
          "duration_ms": 225,
          "velocity": 90,
          "beat_index": 524,
          "section": "verse"
        },
        {
          "t": 65750,
          "type": "note",
          "pitch": 41,
          "duration_ms": 225,
          "velocity": 70,
          "beat_index": 526,
          "section": "verse"
        },
        {
          "t": 66000,
          "type": "note",
          "pitch": 36,
          "duration_ms": 225,
          "velocity": 90,
          "beat_index": 528,
          "section": "verse"
        },
        {
          "t": 66250,
          "type": "note",
          "pitch": 39,
          "duration_ms": 225,
          "velocity": 70,
          "beat_index": 530,
          "section": "verse"
        },
        {
          "t": 66500,
          "type": "note",
          "pitch": 41,
          "duration_ms": 225,
          "velocity": 90,
          "beat_index": 532,
          "section": "verse"
        },
        {
          "t": 66750,
          "type": "note",
          "pitch": 43,
          "duration_ms": 225,
          "velocity": 70,
          "beat_index": 534,
          "section": "verse"
        },
        {
          "t": 67000,
          "type": "note",
          "pitch": 36,
          "duration_ms": 225,
          "velocity": 90,
          "beat_index": 536,
          "section": "verse"
        },
        {
          "t": 67250,
          "type": "note",
          "pitch": 39,
          "duration_ms": 225,
          "velocity": 70,
          "beat_index": 538,
          "section": "verse"
        },
        {
          "t": 67500,
          "type": "note",
          "pitch": 43,
          "duration_ms": 225,
          "velocity": 90,
          "beat_index": 540,
          "section": "verse"
        },
        {
          "t": 67750,
          "type": "note",
          "pitch": 41,
          "duration_ms": 225,
          "velocity": 70,
          "beat_index": 542,
          "section": "verse"
        },
        {
          "t": 68000,
          "type": "note",
          "pitch": 36,
          "duration_ms": 225,
          "velocity": 90,
          "beat_index": 544,
          "section": "verse"
        },
        {
          "t": 68250,
          "type": "note",
          "pitch": 39,
          "duration_ms": 225,
          "velocity": 70,
          "beat_index": 546,
          "section": "verse"
        },
        {
          "t": 68500,
          "type": "note",
          "pitch": 41,
          "duration_ms": 225,
          "velocity": 90,
          "beat_index": 548,
          "section": "verse"
        },
        {
          "t": 68750,
          "type": "note",
          "pitch": 43,
          "duration_ms": 225,
          "velocity": 70,
          "beat_index": 550,
          "section": "verse"
        },
        {
          "t": 69000,
          "type": "note",
          "pitch": 36,
          "duration_ms": 225,
          "velocity": 90,
          "beat_index": 552,
          "section": "verse"
        },
        {
          "t": 69250,
          "type": "note",
          "pitch": 39,
          "duration_ms": 225,
          "velocity": 70,
          "beat_index": 554,
          "section": "verse"
        },
        {
          "t": 69500,
          "type": "note",
          "pitch": 43,
          "duration_ms": 225,
          "velocity": 90,
          "beat_index": 556,
          "section": "verse"
        },
        {
          "t": 69750,
          "type": "note",
          "pitch": 41,
          "duration_ms": 225,
          "velocity": 70,
          "beat_index": 558,
          "section": "verse"
        },
        {
          "t": 70000,
          "type": "note",
          "pitch": 36,
          "duration_ms": 225,
          "velocity": 90,
          "beat_index": 560,
          "section": "verse"
        },
        {
          "t": 70250,
          "type": "note",
          "pitch": 39,
          "duration_ms": 225,
          "velocity": 70,
          "beat_index": 562,
          "section": "verse"
        },
        {
          "t": 70500,
          "type": "note",
          "pitch": 41,
          "duration_ms": 225,
          "velocity": 90,
          "beat_index": 564,
          "section": "verse"
        },
        {
          "t": 70750,
          "type": "note",
          "pitch": 43,
          "duration_ms": 225,
          "velocity": 70,
          "beat_index": 566,
          "section": "verse"
        },
        {
          "t": 71000,
          "type": "note",
          "pitch": 36,
          "duration_ms": 225,
          "velocity": 90,
          "beat_index": 568,
          "section": "verse"
        },
        {
          "t": 71250,
          "type": "note",
          "pitch": 39,
          "duration_ms": 225,
          "velocity": 70,
          "beat_index": 570,
          "section": "verse"
        },
        {
          "t": 71500,
          "type": "note",
          "pitch": 43,
          "duration_ms": 225,
          "velocity": 90,
          "beat_index": 572,
          "section": "verse"
        },
        {
          "t": 71750,
          "type": "note",
          "pitch": 41,
          "duration_ms": 225,
          "velocity": 70,
          "beat_index": 574,
          "section": "verse"
        },
        {
          "t": 72000,
          "type": "note",
          "pitch": 36,
          "duration_ms": 225,
          "velocity": 90,
          "beat_index": 576,
          "section": "verse"
        },
        {
          "t": 72250,
          "type": "note",
          "pitch": 39,
          "duration_ms": 225,
          "velocity": 70,
          "beat_index": 578,
          "section": "verse"
        },
        {
          "t": 72500,
          "type": "note",
          "pitch": 41,
          "duration_ms": 225,
          "velocity": 90,
          "beat_index": 580,
          "section": "verse"
        },
        {
          "t": 72750,
          "type": "note",
          "pitch": 43,
          "duration_ms": 225,
          "velocity": 70,
          "beat_index": 582,
          "section": "verse"
        },
        {
          "t": 73000,
          "type": "note",
          "pitch": 36,
          "duration_ms": 225,
          "velocity": 90,
          "beat_index": 584,
          "section": "verse"
        },
        {
          "t": 73250,
          "type": "note",
          "pitch": 39,
          "duration_ms": 225,
          "velocity": 70,
          "beat_index": 586,
          "section": "verse"
        },
        {
          "t": 73500,
          "type": "note",
          "pitch": 43,
          "duration_ms": 225,
          "velocity": 90,
          "beat_index": 588,
          "section": "verse"
        },
        {
          "t": 73750,
          "type": "note",
          "pitch": 41,
          "duration_ms": 225,
          "velocity": 70,
          "beat_index": 590,
          "section": "verse"
        },
        {
          "t": 74000,
          "type": "note",
          "pitch": 36,
          "duration_ms": 225,
          "velocity": 90,
          "beat_index": 592,
          "section": "verse"
        },
        {
          "t": 74250,
          "type": "note",
          "pitch": 39,
          "duration_ms": 225,
          "velocity": 70,
          "beat_index": 594,
          "section": "verse"
        },
        {
          "t": 74500,
          "type": "note",
          "pitch": 41,
          "duration_ms": 225,
          "velocity": 90,
          "beat_index": 596,
          "section": "verse"
        },
        {
          "t": 74750,
          "type": "note",
          "pitch": 43,
          "duration_ms": 225,
          "velocity": 70,
          "beat_index": 598,
          "section": "verse"
        },
        {
          "t": 75000,
          "type": "note",
          "pitch": 36,
          "duration_ms": 225,
          "velocity": 90,
          "beat_index": 600,
          "section": "verse"
        },
        {
          "t": 75250,
          "type": "note",
          "pitch": 39,
          "duration_ms": 225,
          "velocity": 70,
          "beat_index": 602,
          "section": "verse"
        },
        {
          "t": 75500,
          "type": "note",
          "pitch": 43,
          "duration_ms": 225,
          "velocity": 90,
          "beat_index": 604,
          "section": "verse"
        },
        {
          "t": 75750,
          "type": "note",
          "pitch": 41,
          "duration_ms": 225,
          "velocity": 70,
          "beat_index": 606,
          "section": "verse"
        },
        {
          "t": 76000,
          "type": "note",
          "pitch": 36,
          "duration_ms": 225,
          "velocity": 90,
          "beat_index": 608,
          "section": "verse"
        },
        {
          "t": 76250,
          "type": "note",
          "pitch": 39,
          "duration_ms": 225,
          "velocity": 70,
          "beat_index": 610,
          "section": "verse"
        },
        {
          "t": 76500,
          "type": "note",
          "pitch": 41,
          "duration_ms": 225,
          "velocity": 90,
          "beat_index": 612,
          "section": "verse"
        },
        {
          "t": 76750,
          "type": "note",
          "pitch": 43,
          "duration_ms": 225,
          "velocity": 70,
          "beat_index": 614,
          "section": "verse"
        },
        {
          "t": 77000,
          "type": "note",
          "pitch": 36,
          "duration_ms": 225,
          "velocity": 90,
          "beat_index": 616,
          "section": "verse"
        },
        {
          "t": 77250,
          "type": "note",
          "pitch": 39,
          "duration_ms": 225,
          "velocity": 70,
          "beat_index": 618,
          "section": "verse"
        },
        {
          "t": 77500,
          "type": "note",
          "pitch": 43,
          "duration_ms": 225,
          "velocity": 90,
          "beat_index": 620,
          "section": "verse"
        },
        {
          "t": 77750,
          "type": "note",
          "pitch": 41,
          "duration_ms": 225,
          "velocity": 70,
          "beat_index": 622,
          "section": "verse"
        },
        {
          "t": 78000,
          "type": "note",
          "pitch": 36,
          "duration_ms": 225,
          "velocity": 90,
          "beat_index": 624,
          "section": "verse"
        },
        {
          "t": 78250,
          "type": "note",
          "pitch": 39,
          "duration_ms": 225,
          "velocity": 70,
          "beat_index": 626,
          "section": "verse"
        },
        {
          "t": 78500,
          "type": "note",
          "pitch": 41,
          "duration_ms": 225,
          "velocity": 90,
          "beat_index": 628,
          "section": "verse"
        },
        {
          "t": 78750,
          "type": "note",
          "pitch": 43,
          "duration_ms": 225,
          "velocity": 70,
          "beat_index": 630,
          "section": "verse"
        },
        {
          "t": 79000,
          "type": "note",
          "pitch": 36,
          "duration_ms": 225,
          "velocity": 90,
          "beat_index": 632,
          "section": "verse"
        },
        {
          "t": 79250,
          "type": "note",
          "pitch": 39,
          "duration_ms": 225,
          "velocity": 70,
          "beat_index": 634,
          "section": "verse"
        },
        {
          "t": 79500,
          "type": "note",
          "pitch": 43,
          "duration_ms": 225,
          "velocity": 90,
          "beat_index": 636,
          "section": "verse"
        },
        {
          "t": 79750,
          "type": "note",
          "pitch": 41,
          "duration_ms": 225,
          "velocity": 70,
          "beat_index": 638,
          "section": "verse"
        },
        {
          "t": 80000,
          "type": "note",
          "pitch": 36,
          "duration_ms": 225,
          "velocity": 90,
          "beat_index": 640,
          "section": "verse"
        },
        {
          "t": 80250,
          "type": "note",
          "pitch": 39,
          "duration_ms": 225,
          "velocity": 70,
          "beat_index": 642,
          "section": "verse"
        },
        {
          "t": 80500,
          "type": "note",
          "pitch": 41,
          "duration_ms": 225,
          "velocity": 90,
          "beat_index": 644,
          "section": "verse"
        },
        {
          "t": 80750,
          "type": "note",
          "pitch": 43,
          "duration_ms": 225,
          "velocity": 70,
          "beat_index": 646,
          "section": "verse"
        },
        {
          "t": 81000,
          "type": "note",
          "pitch": 36,
          "duration_ms": 225,
          "velocity": 90,
          "beat_index": 648,
          "section": "verse"
        },
        {
          "t": 81250,
          "type": "note",
          "pitch": 39,
          "duration_ms": 225,
          "velocity": 70,
          "beat_index": 650,
          "section": "verse"
        },
        {
          "t": 81500,
          "type": "note",
          "pitch": 43,
          "duration_ms": 225,
          "velocity": 90,
          "beat_index": 652,
          "section": "verse"
        },
        {
          "t": 81750,
          "type": "note",
          "pitch": 41,
          "duration_ms": 225,
          "velocity": 70,
          "beat_index": 654,
          "section": "verse"
        },
        {
          "t": 82000,
          "type": "note",
          "pitch": 36,
          "duration_ms": 225,
          "velocity": 90,
          "beat_index": 656,
          "section": "verse"
        },
        {
          "t": 82250,
          "type": "note",
          "pitch": 39,
          "duration_ms": 225,
          "velocity": 70,
          "beat_index": 658,
          "section": "verse"
        },
        {
          "t": 82500,
          "type": "note",
          "pitch": 41,
          "duration_ms": 225,
          "velocity": 90,
          "beat_index": 660,
          "section": "verse"
        },
        {
          "t": 82750,
          "type": "note",
          "pitch": 43,
          "duration_ms": 225,
          "velocity": 70,
          "beat_index": 662,
          "section": "verse"
        },
        {
          "t": 83000,
          "type": "note",
          "pitch": 36,
          "duration_ms": 225,
          "velocity": 90,
          "beat_index": 664,
          "section": "verse"
        },
        {
          "t": 83250,
          "type": "note",
          "pitch": 39,
          "duration_ms": 225,
          "velocity": 70,
          "beat_index": 666,
          "section": "verse"
        },
        {
          "t": 83500,
          "type": "note",
          "pitch": 43,
          "duration_ms": 225,
          "velocity": 90,
          "beat_index": 668,
          "section": "verse"
        },
        {
          "t": 83750,
          "type": "note",
          "pitch": 41,
          "duration_ms": 225,
          "velocity": 70,
          "beat_index": 670,
          "section": "verse"
        },
        {
          "t": 84000,
          "type": "note",
          "pitch": 36,
          "duration_ms": 225,
          "velocity": 90,
          "beat_index": 672,
          "section": "verse"
        },
        {
          "t": 84250,
          "type": "note",
          "pitch": 39,
          "duration_ms": 225,
          "velocity": 70,
          "beat_index": 674,
          "section": "verse"
        },
        {
          "t": 84500,
          "type": "note",
          "pitch": 41,
          "duration_ms": 225,
          "velocity": 90,
          "beat_index": 676,
          "section": "verse"
        },
        {
          "t": 84750,
          "type": "note",
          "pitch": 43,
          "duration_ms": 225,
          "velocity": 70,
          "beat_index": 678,
          "section": "verse"
        },
        {
          "t": 85000,
          "type": "note",
          "pitch": 36,
          "duration_ms": 225,
          "velocity": 90,
          "beat_index": 680,
          "section": "verse"
        },
        {
          "t": 85250,
          "type": "note",
          "pitch": 39,
          "duration_ms": 225,
          "velocity": 70,
          "beat_index": 682,
          "section": "verse"
        },
        {
          "t": 85500,
          "type": "note",
          "pitch": 43,
          "duration_ms": 225,
          "velocity": 90,
          "beat_index": 684,
          "section": "verse"
        },
        {
          "t": 85750,
          "type": "note",
          "pitch": 41,
          "duration_ms": 225,
          "velocity": 70,
          "beat_index": 686,
          "section": "verse"
        },
        {
          "t": 86000,
          "type": "note",
          "pitch": 36,
          "duration_ms": 225,
          "velocity": 90,
          "beat_index": 688,
          "section": "verse"
        },
        {
          "t": 86250,
          "type": "note",
          "pitch": 39,
          "duration_ms": 225,
          "velocity": 70,
          "beat_index": 690,
          "section": "verse"
        },
        {
          "t": 86500,
          "type": "note",
          "pitch": 41,
          "duration_ms": 225,
          "velocity": 90,
          "beat_index": 692,
          "section": "verse"
        },
        {
          "t": 86750,
          "type": "note",
          "pitch": 43,
          "duration_ms": 225,
          "velocity": 70,
          "beat_index": 694,
          "section": "verse"
        },
        {
          "t": 87000,
          "type": "note",
          "pitch": 36,
          "duration_ms": 225,
          "velocity": 90,
          "beat_index": 696,
          "section": "verse"
        },
        {
          "t": 87250,
          "type": "note",
          "pitch": 39,
          "duration_ms": 225,
          "velocity": 70,
          "beat_index": 698,
          "section": "verse"
        },
        {
          "t": 87500,
          "type": "note",
          "pitch": 43,
          "duration_ms": 225,
          "velocity": 90,
          "beat_index": 700,
          "section": "verse"
        },
        {
          "t": 87750,
          "type": "note",
          "pitch": 41,
          "duration_ms": 225,
          "velocity": 70,
          "beat_index": 702,
          "section": "verse"
        },
        {
          "t": 88000,
          "type": "note",
          "pitch": 36,
          "duration_ms": 225,
          "velocity": 90,
          "beat_index": 704,
          "section": "verse"
        },
        {
          "t": 88250,
          "type": "note",
          "pitch": 39,
          "duration_ms": 225,
          "velocity": 70,
          "beat_index": 706,
          "section": "verse"
        },
        {
          "t": 88500,
          "type": "note",
          "pitch": 41,
          "duration_ms": 225,
          "velocity": 90,
          "beat_index": 708,
          "section": "verse"
        },
        {
          "t": 88750,
          "type": "note",
          "pitch": 43,
          "duration_ms": 225,
          "velocity": 70,
          "beat_index": 710,
          "section": "verse"
        },
        {
          "t": 89000,
          "type": "note",
          "pitch": 36,
          "duration_ms": 225,
          "velocity": 90,
          "beat_index": 712,
          "section": "verse"
        },
        {
          "t": 89250,
          "type": "note",
          "pitch": 39,
          "duration_ms": 225,
          "velocity": 70,
          "beat_index": 714,
          "section": "verse"
        },
        {
          "t": 89500,
          "type": "note",
          "pitch": 43,
          "duration_ms": 225,
          "velocity": 90,
          "beat_index": 716,
          "section": "verse"
        },
        {
          "t": 89750,
          "type": "note",
          "pitch": 41,
          "duration_ms": 225,
          "velocity": 70,
          "beat_index": 718,
          "section": "verse"
        },
        {
          "t": 90000,
          "type": "note",
          "pitch": 36,
          "duration_ms": 225,
          "velocity": 90,
          "beat_index": 720,
          "section": "verse"
        },
        {
          "t": 90250,
          "type": "note",
          "pitch": 39,
          "duration_ms": 225,
          "velocity": 70,
          "beat_index": 722,
          "section": "verse"
        },
        {
          "t": 90500,
          "type": "note",
          "pitch": 41,
          "duration_ms": 225,
          "velocity": 90,
          "beat_index": 724,
          "section": "verse"
        },
        {
          "t": 90750,
          "type": "note",
          "pitch": 43,
          "duration_ms": 225,
          "velocity": 70,
          "beat_index": 726,
          "section": "verse"
        },
        {
          "t": 91000,
          "type": "note",
          "pitch": 36,
          "duration_ms": 225,
          "velocity": 90,
          "beat_index": 728,
          "section": "verse"
        },
        {
          "t": 91250,
          "type": "note",
          "pitch": 39,
          "duration_ms": 225,
          "velocity": 70,
          "beat_index": 730,
          "section": "verse"
        },
        {
          "t": 91500,
          "type": "note",
          "pitch": 43,
          "duration_ms": 225,
          "velocity": 90,
          "beat_index": 732,
          "section": "verse"
        },
        {
          "t": 91750,
          "type": "note",
          "pitch": 41,
          "duration_ms": 225,
          "velocity": 70,
          "beat_index": 734,
          "section": "verse"
        },
        {
          "t": 92000,
          "type": "note",
          "pitch": 36,
          "duration_ms": 225,
          "velocity": 90,
          "beat_index": 736,
          "section": "verse"
        },
        {
          "t": 92250,
          "type": "note",
          "pitch": 39,
          "duration_ms": 225,
          "velocity": 70,
          "beat_index": 738,
          "section": "verse"
        },
        {
          "t": 92500,
          "type": "note",
          "pitch": 41,
          "duration_ms": 225,
          "velocity": 90,
          "beat_index": 740,
          "section": "verse"
        },
        {
          "t": 92750,
          "type": "note",
          "pitch": 43,
          "duration_ms": 225,
          "velocity": 70,
          "beat_index": 742,
          "section": "verse"
        },
        {
          "t": 93000,
          "type": "note",
          "pitch": 36,
          "duration_ms": 225,
          "velocity": 90,
          "beat_index": 744,
          "section": "verse"
        },
        {
          "t": 93250,
          "type": "note",
          "pitch": 39,
          "duration_ms": 225,
          "velocity": 70,
          "beat_index": 746,
          "section": "verse"
        },
        {
          "t": 93500,
          "type": "note",
          "pitch": 43,
          "duration_ms": 225,
          "velocity": 90,
          "beat_index": 748,
          "section": "verse"
        },
        {
          "t": 93750,
          "type": "note",
          "pitch": 41,
          "duration_ms": 225,
          "velocity": 70,
          "beat_index": 750,
          "section": "verse"
        },
        {
          "t": 94000,
          "type": "note",
          "pitch": 36,
          "duration_ms": 225,
          "velocity": 90,
          "beat_index": 752,
          "section": "verse"
        },
        {
          "t": 94250,
          "type": "note",
          "pitch": 39,
          "duration_ms": 225,
          "velocity": 70,
          "beat_index": 754,
          "section": "verse"
        },
        {
          "t": 94500,
          "type": "note",
          "pitch": 41,
          "duration_ms": 225,
          "velocity": 90,
          "beat_index": 756,
          "section": "verse"
        },
        {
          "t": 94750,
          "type": "note",
          "pitch": 43,
          "duration_ms": 225,
          "velocity": 70,
          "beat_index": 758,
          "section": "verse"
        },
        {
          "t": 95000,
          "type": "note",
          "pitch": 36,
          "duration_ms": 225,
          "velocity": 90,
          "beat_index": 760,
          "section": "verse"
        },
        {
          "t": 95250,
          "type": "note",
          "pitch": 39,
          "duration_ms": 225,
          "velocity": 70,
          "beat_index": 762,
          "section": "verse"
        },
        {
          "t": 95500,
          "type": "note",
          "pitch": 43,
          "duration_ms": 225,
          "velocity": 90,
          "beat_index": 764,
          "section": "verse"
        },
        {
          "t": 95750,
          "type": "note",
          "pitch": 41,
          "duration_ms": 225,
          "velocity": 70,
          "beat_index": 766,
          "section": "verse"
        },
        {
          "t": 96000,
          "type": "note",
          "pitch": 36,
          "duration_ms": 225,
          "velocity": 90,
          "beat_index": 768,
          "section": "chorus"
        },
        {
          "t": 96250,
          "type": "note",
          "pitch": 39,
          "duration_ms": 225,
          "velocity": 70,
          "beat_index": 770,
          "section": "chorus"
        },
        {
          "t": 96500,
          "type": "note",
          "pitch": 41,
          "duration_ms": 225,
          "velocity": 90,
          "beat_index": 772,
          "section": "chorus"
        },
        {
          "t": 96750,
          "type": "note",
          "pitch": 43,
          "duration_ms": 225,
          "velocity": 70,
          "beat_index": 774,
          "section": "chorus"
        },
        {
          "t": 97000,
          "type": "note",
          "pitch": 36,
          "duration_ms": 225,
          "velocity": 90,
          "beat_index": 776,
          "section": "chorus"
        },
        {
          "t": 97250,
          "type": "note",
          "pitch": 39,
          "duration_ms": 225,
          "velocity": 70,
          "beat_index": 778,
          "section": "chorus"
        },
        {
          "t": 97500,
          "type": "note",
          "pitch": 43,
          "duration_ms": 225,
          "velocity": 90,
          "beat_index": 780,
          "section": "chorus"
        },
        {
          "t": 97750,
          "type": "note",
          "pitch": 41,
          "duration_ms": 225,
          "velocity": 70,
          "beat_index": 782,
          "section": "chorus"
        },
        {
          "t": 98000,
          "type": "note",
          "pitch": 36,
          "duration_ms": 225,
          "velocity": 90,
          "beat_index": 784,
          "section": "chorus"
        },
        {
          "t": 98250,
          "type": "note",
          "pitch": 39,
          "duration_ms": 225,
          "velocity": 70,
          "beat_index": 786,
          "section": "chorus"
        },
        {
          "t": 98500,
          "type": "note",
          "pitch": 41,
          "duration_ms": 225,
          "velocity": 90,
          "beat_index": 788,
          "section": "chorus"
        },
        {
          "t": 98750,
          "type": "note",
          "pitch": 43,
          "duration_ms": 225,
          "velocity": 70,
          "beat_index": 790,
          "section": "chorus"
        },
        {
          "t": 99000,
          "type": "note",
          "pitch": 36,
          "duration_ms": 225,
          "velocity": 90,
          "beat_index": 792,
          "section": "chorus"
        },
        {
          "t": 99250,
          "type": "note",
          "pitch": 39,
          "duration_ms": 225,
          "velocity": 70,
          "beat_index": 794,
          "section": "chorus"
        },
        {
          "t": 99500,
          "type": "note",
          "pitch": 43,
          "duration_ms": 225,
          "velocity": 90,
          "beat_index": 796,
          "section": "chorus"
        },
        {
          "t": 99750,
          "type": "note",
          "pitch": 41,
          "duration_ms": 225,
          "velocity": 70,
          "beat_index": 798,
          "section": "chorus"
        },
        {
          "t": 100000,
          "type": "note",
          "pitch": 36,
          "duration_ms": 225,
          "velocity": 90,
          "beat_index": 800,
          "section": "chorus"
        },
        {
          "t": 100250,
          "type": "note",
          "pitch": 39,
          "duration_ms": 225,
          "velocity": 70,
          "beat_index": 802,
          "section": "chorus"
        },
        {
          "t": 100500,
          "type": "note",
          "pitch": 41,
          "duration_ms": 225,
          "velocity": 90,
          "beat_index": 804,
          "section": "chorus"
        },
        {
          "t": 100750,
          "type": "note",
          "pitch": 43,
          "duration_ms": 225,
          "velocity": 70,
          "beat_index": 806,
          "section": "chorus"
        },
        {
          "t": 101000,
          "type": "note",
          "pitch": 36,
          "duration_ms": 225,
          "velocity": 90,
          "beat_index": 808,
          "section": "chorus"
        },
        {
          "t": 101250,
          "type": "note",
          "pitch": 39,
          "duration_ms": 225,
          "velocity": 70,
          "beat_index": 810,
          "section": "chorus"
        },
        {
          "t": 101500,
          "type": "note",
          "pitch": 43,
          "duration_ms": 225,
          "velocity": 90,
          "beat_index": 812,
          "section": "chorus"
        },
        {
          "t": 101750,
          "type": "note",
          "pitch": 41,
          "duration_ms": 225,
          "velocity": 70,
          "beat_index": 814,
          "section": "chorus"
        },
        {
          "t": 102000,
          "type": "note",
          "pitch": 36,
          "duration_ms": 225,
          "velocity": 90,
          "beat_index": 816,
          "section": "chorus"
        },
        {
          "t": 102250,
          "type": "note",
          "pitch": 39,
          "duration_ms": 225,
          "velocity": 70,
          "beat_index": 818,
          "section": "chorus"
        },
        {
          "t": 102500,
          "type": "note",
          "pitch": 41,
          "duration_ms": 225,
          "velocity": 90,
          "beat_index": 820,
          "section": "chorus"
        },
        {
          "t": 102750,
          "type": "note",
          "pitch": 43,
          "duration_ms": 225,
          "velocity": 70,
          "beat_index": 822,
          "section": "chorus"
        },
        {
          "t": 103000,
          "type": "note",
          "pitch": 36,
          "duration_ms": 225,
          "velocity": 90,
          "beat_index": 824,
          "section": "chorus"
        },
        {
          "t": 103250,
          "type": "note",
          "pitch": 39,
          "duration_ms": 225,
          "velocity": 70,
          "beat_index": 826,
          "section": "chorus"
        },
        {
          "t": 103500,
          "type": "note",
          "pitch": 43,
          "duration_ms": 225,
          "velocity": 90,
          "beat_index": 828,
          "section": "chorus"
        },
        {
          "t": 103750,
          "type": "note",
          "pitch": 41,
          "duration_ms": 225,
          "velocity": 70,
          "beat_index": 830,
          "section": "chorus"
        },
        {
          "t": 104000,
          "type": "note",
          "pitch": 36,
          "duration_ms": 225,
          "velocity": 90,
          "beat_index": 832,
          "section": "chorus"
        },
        {
          "t": 104250,
          "type": "note",
          "pitch": 39,
          "duration_ms": 225,
          "velocity": 70,
          "beat_index": 834,
          "section": "chorus"
        },
        {
          "t": 104500,
          "type": "note",
          "pitch": 41,
          "duration_ms": 225,
          "velocity": 90,
          "beat_index": 836,
          "section": "chorus"
        },
        {
          "t": 104750,
          "type": "note",
          "pitch": 43,
          "duration_ms": 225,
          "velocity": 70,
          "beat_index": 838,
          "section": "chorus"
        },
        {
          "t": 105000,
          "type": "note",
          "pitch": 36,
          "duration_ms": 225,
          "velocity": 90,
          "beat_index": 840,
          "section": "chorus"
        },
        {
          "t": 105250,
          "type": "note",
          "pitch": 39,
          "duration_ms": 225,
          "velocity": 70,
          "beat_index": 842,
          "section": "chorus"
        },
        {
          "t": 105500,
          "type": "note",
          "pitch": 43,
          "duration_ms": 225,
          "velocity": 90,
          "beat_index": 844,
          "section": "chorus"
        },
        {
          "t": 105750,
          "type": "note",
          "pitch": 41,
          "duration_ms": 225,
          "velocity": 70,
          "beat_index": 846,
          "section": "chorus"
        },
        {
          "t": 106000,
          "type": "note",
          "pitch": 36,
          "duration_ms": 225,
          "velocity": 90,
          "beat_index": 848,
          "section": "chorus"
        },
        {
          "t": 106250,
          "type": "note",
          "pitch": 39,
          "duration_ms": 225,
          "velocity": 70,
          "beat_index": 850,
          "section": "chorus"
        },
        {
          "t": 106500,
          "type": "note",
          "pitch": 41,
          "duration_ms": 225,
          "velocity": 90,
          "beat_index": 852,
          "section": "chorus"
        },
        {
          "t": 106750,
          "type": "note",
          "pitch": 43,
          "duration_ms": 225,
          "velocity": 70,
          "beat_index": 854,
          "section": "chorus"
        },
        {
          "t": 107000,
          "type": "note",
          "pitch": 36,
          "duration_ms": 225,
          "velocity": 90,
          "beat_index": 856,
          "section": "chorus"
        },
        {
          "t": 107250,
          "type": "note",
          "pitch": 39,
          "duration_ms": 225,
          "velocity": 70,
          "beat_index": 858,
          "section": "chorus"
        },
        {
          "t": 107500,
          "type": "note",
          "pitch": 43,
          "duration_ms": 225,
          "velocity": 90,
          "beat_index": 860,
          "section": "chorus"
        },
        {
          "t": 107750,
          "type": "note",
          "pitch": 41,
          "duration_ms": 225,
          "velocity": 70,
          "beat_index": 862,
          "section": "chorus"
        },
        {
          "t": 108000,
          "type": "note",
          "pitch": 36,
          "duration_ms": 225,
          "velocity": 90,
          "beat_index": 864,
          "section": "chorus"
        },
        {
          "t": 108250,
          "type": "note",
          "pitch": 39,
          "duration_ms": 225,
          "velocity": 70,
          "beat_index": 866,
          "section": "chorus"
        },
        {
          "t": 108500,
          "type": "note",
          "pitch": 41,
          "duration_ms": 225,
          "velocity": 90,
          "beat_index": 868,
          "section": "chorus"
        },
        {
          "t": 108750,
          "type": "note",
          "pitch": 43,
          "duration_ms": 225,
          "velocity": 70,
          "beat_index": 870,
          "section": "chorus"
        },
        {
          "t": 109000,
          "type": "note",
          "pitch": 36,
          "duration_ms": 225,
          "velocity": 90,
          "beat_index": 872,
          "section": "chorus"
        },
        {
          "t": 109250,
          "type": "note",
          "pitch": 39,
          "duration_ms": 225,
          "velocity": 70,
          "beat_index": 874,
          "section": "chorus"
        },
        {
          "t": 109500,
          "type": "note",
          "pitch": 43,
          "duration_ms": 225,
          "velocity": 90,
          "beat_index": 876,
          "section": "chorus"
        },
        {
          "t": 109750,
          "type": "note",
          "pitch": 41,
          "duration_ms": 225,
          "velocity": 70,
          "beat_index": 878,
          "section": "chorus"
        },
        {
          "t": 110000,
          "type": "note",
          "pitch": 36,
          "duration_ms": 225,
          "velocity": 90,
          "beat_index": 880,
          "section": "chorus"
        },
        {
          "t": 110250,
          "type": "note",
          "pitch": 39,
          "duration_ms": 225,
          "velocity": 70,
          "beat_index": 882,
          "section": "chorus"
        },
        {
          "t": 110500,
          "type": "note",
          "pitch": 41,
          "duration_ms": 225,
          "velocity": 90,
          "beat_index": 884,
          "section": "chorus"
        },
        {
          "t": 110750,
          "type": "note",
          "pitch": 43,
          "duration_ms": 225,
          "velocity": 70,
          "beat_index": 886,
          "section": "chorus"
        },
        {
          "t": 111000,
          "type": "note",
          "pitch": 36,
          "duration_ms": 225,
          "velocity": 90,
          "beat_index": 888,
          "section": "chorus"
        },
        {
          "t": 111250,
          "type": "note",
          "pitch": 39,
          "duration_ms": 225,
          "velocity": 70,
          "beat_index": 890,
          "section": "chorus"
        },
        {
          "t": 111500,
          "type": "note",
          "pitch": 43,
          "duration_ms": 225,
          "velocity": 90,
          "beat_index": 892,
          "section": "chorus"
        },
        {
          "t": 111750,
          "type": "note",
          "pitch": 41,
          "duration_ms": 225,
          "velocity": 70,
          "beat_index": 894,
          "section": "chorus"
        },
        {
          "t": 112000,
          "type": "note",
          "pitch": 36,
          "duration_ms": 225,
          "velocity": 90,
          "beat_index": 896,
          "section": "chorus"
        },
        {
          "t": 112250,
          "type": "note",
          "pitch": 39,
          "duration_ms": 225,
          "velocity": 70,
          "beat_index": 898,
          "section": "chorus"
        },
        {
          "t": 112500,
          "type": "note",
          "pitch": 41,
          "duration_ms": 225,
          "velocity": 90,
          "beat_index": 900,
          "section": "chorus"
        },
        {
          "t": 112750,
          "type": "note",
          "pitch": 43,
          "duration_ms": 225,
          "velocity": 70,
          "beat_index": 902,
          "section": "chorus"
        },
        {
          "t": 113000,
          "type": "note",
          "pitch": 36,
          "duration_ms": 225,
          "velocity": 90,
          "beat_index": 904,
          "section": "chorus"
        },
        {
          "t": 113250,
          "type": "note",
          "pitch": 39,
          "duration_ms": 225,
          "velocity": 70,
          "beat_index": 906,
          "section": "chorus"
        },
        {
          "t": 113500,
          "type": "note",
          "pitch": 43,
          "duration_ms": 225,
          "velocity": 90,
          "beat_index": 908,
          "section": "chorus"
        },
        {
          "t": 113750,
          "type": "note",
          "pitch": 41,
          "duration_ms": 225,
          "velocity": 70,
          "beat_index": 910,
          "section": "chorus"
        },
        {
          "t": 114000,
          "type": "note",
          "pitch": 36,
          "duration_ms": 225,
          "velocity": 90,
          "beat_index": 912,
          "section": "chorus"
        },
        {
          "t": 114250,
          "type": "note",
          "pitch": 39,
          "duration_ms": 225,
          "velocity": 70,
          "beat_index": 914,
          "section": "chorus"
        },
        {
          "t": 114500,
          "type": "note",
          "pitch": 41,
          "duration_ms": 225,
          "velocity": 90,
          "beat_index": 916,
          "section": "chorus"
        },
        {
          "t": 114750,
          "type": "note",
          "pitch": 43,
          "duration_ms": 225,
          "velocity": 70,
          "beat_index": 918,
          "section": "chorus"
        },
        {
          "t": 115000,
          "type": "note",
          "pitch": 36,
          "duration_ms": 225,
          "velocity": 90,
          "beat_index": 920,
          "section": "chorus"
        },
        {
          "t": 115250,
          "type": "note",
          "pitch": 39,
          "duration_ms": 225,
          "velocity": 70,
          "beat_index": 922,
          "section": "chorus"
        },
        {
          "t": 115500,
          "type": "note",
          "pitch": 43,
          "duration_ms": 225,
          "velocity": 90,
          "beat_index": 924,
          "section": "chorus"
        },
        {
          "t": 115750,
          "type": "note",
          "pitch": 41,
          "duration_ms": 225,
          "velocity": 70,
          "beat_index": 926,
          "section": "chorus"
        },
        {
          "t": 116000,
          "type": "note",
          "pitch": 36,
          "duration_ms": 225,
          "velocity": 90,
          "beat_index": 928,
          "section": "chorus"
        },
        {
          "t": 116250,
          "type": "note",
          "pitch": 39,
          "duration_ms": 225,
          "velocity": 70,
          "beat_index": 930,
          "section": "chorus"
        },
        {
          "t": 116500,
          "type": "note",
          "pitch": 41,
          "duration_ms": 225,
          "velocity": 90,
          "beat_index": 932,
          "section": "chorus"
        },
        {
          "t": 116750,
          "type": "note",
          "pitch": 43,
          "duration_ms": 225,
          "velocity": 70,
          "beat_index": 934,
          "section": "chorus"
        },
        {
          "t": 117000,
          "type": "note",
          "pitch": 36,
          "duration_ms": 225,
          "velocity": 90,
          "beat_index": 936,
          "section": "chorus"
        },
        {
          "t": 117250,
          "type": "note",
          "pitch": 39,
          "duration_ms": 225,
          "velocity": 70,
          "beat_index": 938,
          "section": "chorus"
        },
        {
          "t": 117500,
          "type": "note",
          "pitch": 43,
          "duration_ms": 225,
          "velocity": 90,
          "beat_index": 940,
          "section": "chorus"
        },
        {
          "t": 117750,
          "type": "note",
          "pitch": 41,
          "duration_ms": 225,
          "velocity": 70,
          "beat_index": 942,
          "section": "chorus"
        },
        {
          "t": 118000,
          "type": "note",
          "pitch": 36,
          "duration_ms": 225,
          "velocity": 90,
          "beat_index": 944,
          "section": "chorus"
        },
        {
          "t": 118250,
          "type": "note",
          "pitch": 39,
          "duration_ms": 225,
          "velocity": 70,
          "beat_index": 946,
          "section": "chorus"
        },
        {
          "t": 118500,
          "type": "note",
          "pitch": 41,
          "duration_ms": 225,
          "velocity": 90,
          "beat_index": 948,
          "section": "chorus"
        },
        {
          "t": 118750,
          "type": "note",
          "pitch": 43,
          "duration_ms": 225,
          "velocity": 70,
          "beat_index": 950,
          "section": "chorus"
        },
        {
          "t": 119000,
          "type": "note",
          "pitch": 36,
          "duration_ms": 225,
          "velocity": 90,
          "beat_index": 952,
          "section": "chorus"
        },
        {
          "t": 119250,
          "type": "note",
          "pitch": 39,
          "duration_ms": 225,
          "velocity": 70,
          "beat_index": 954,
          "section": "chorus"
        },
        {
          "t": 119500,
          "type": "note",
          "pitch": 43,
          "duration_ms": 225,
          "velocity": 90,
          "beat_index": 956,
          "section": "chorus"
        },
        {
          "t": 119750,
          "type": "note",
          "pitch": 41,
          "duration_ms": 225,
          "velocity": 70,
          "beat_index": 958,
          "section": "chorus"
        },
        {
          "t": 120000,
          "type": "note",
          "pitch": 36,
          "duration_ms": 225,
          "velocity": 90,
          "beat_index": 960,
          "section": "chorus"
        },
        {
          "t": 120250,
          "type": "note",
          "pitch": 39,
          "duration_ms": 225,
          "velocity": 70,
          "beat_index": 962,
          "section": "chorus"
        },
        {
          "t": 120500,
          "type": "note",
          "pitch": 41,
          "duration_ms": 225,
          "velocity": 90,
          "beat_index": 964,
          "section": "chorus"
        },
        {
          "t": 120750,
          "type": "note",
          "pitch": 43,
          "duration_ms": 225,
          "velocity": 70,
          "beat_index": 966,
          "section": "chorus"
        },
        {
          "t": 121000,
          "type": "note",
          "pitch": 36,
          "duration_ms": 225,
          "velocity": 90,
          "beat_index": 968,
          "section": "chorus"
        },
        {
          "t": 121250,
          "type": "note",
          "pitch": 39,
          "duration_ms": 225,
          "velocity": 70,
          "beat_index": 970,
          "section": "chorus"
        },
        {
          "t": 121500,
          "type": "note",
          "pitch": 43,
          "duration_ms": 225,
          "velocity": 90,
          "beat_index": 972,
          "section": "chorus"
        },
        {
          "t": 121750,
          "type": "note",
          "pitch": 41,
          "duration_ms": 225,
          "velocity": 70,
          "beat_index": 974,
          "section": "chorus"
        },
        {
          "t": 122000,
          "type": "note",
          "pitch": 36,
          "duration_ms": 225,
          "velocity": 90,
          "beat_index": 976,
          "section": "chorus"
        },
        {
          "t": 122250,
          "type": "note",
          "pitch": 39,
          "duration_ms": 225,
          "velocity": 70,
          "beat_index": 978,
          "section": "chorus"
        },
        {
          "t": 122500,
          "type": "note",
          "pitch": 41,
          "duration_ms": 225,
          "velocity": 90,
          "beat_index": 980,
          "section": "chorus"
        },
        {
          "t": 122750,
          "type": "note",
          "pitch": 43,
          "duration_ms": 225,
          "velocity": 70,
          "beat_index": 982,
          "section": "chorus"
        },
        {
          "t": 123000,
          "type": "note",
          "pitch": 36,
          "duration_ms": 225,
          "velocity": 90,
          "beat_index": 984,
          "section": "chorus"
        },
        {
          "t": 123250,
          "type": "note",
          "pitch": 39,
          "duration_ms": 225,
          "velocity": 70,
          "beat_index": 986,
          "section": "chorus"
        },
        {
          "t": 123500,
          "type": "note",
          "pitch": 43,
          "duration_ms": 225,
          "velocity": 90,
          "beat_index": 988,
          "section": "chorus"
        },
        {
          "t": 123750,
          "type": "note",
          "pitch": 41,
          "duration_ms": 225,
          "velocity": 70,
          "beat_index": 990,
          "section": "chorus"
        },
        {
          "t": 124000,
          "type": "note",
          "pitch": 36,
          "duration_ms": 225,
          "velocity": 90,
          "beat_index": 992,
          "section": "chorus"
        },
        {
          "t": 124250,
          "type": "note",
          "pitch": 39,
          "duration_ms": 225,
          "velocity": 70,
          "beat_index": 994,
          "section": "chorus"
        },
        {
          "t": 124500,
          "type": "note",
          "pitch": 41,
          "duration_ms": 225,
          "velocity": 90,
          "beat_index": 996,
          "section": "chorus"
        },
        {
          "t": 124750,
          "type": "note",
          "pitch": 43,
          "duration_ms": 225,
          "velocity": 70,
          "beat_index": 998,
          "section": "chorus"
        },
        {
          "t": 125000,
          "type": "note",
          "pitch": 36,
          "duration_ms": 225,
          "velocity": 90,
          "beat_index": 1000,
          "section": "chorus"
        },
        {
          "t": 125250,
          "type": "note",
          "pitch": 39,
          "duration_ms": 225,
          "velocity": 70,
          "beat_index": 1002,
          "section": "chorus"
        },
        {
          "t": 125500,
          "type": "note",
          "pitch": 43,
          "duration_ms": 225,
          "velocity": 90,
          "beat_index": 1004,
          "section": "chorus"
        },
        {
          "t": 125750,
          "type": "note",
          "pitch": 41,
          "duration_ms": 225,
          "velocity": 70,
          "beat_index": 1006,
          "section": "chorus"
        },
        {
          "t": 126000,
          "type": "note",
          "pitch": 36,
          "duration_ms": 225,
          "velocity": 90,
          "beat_index": 1008,
          "section": "chorus"
        },
        {
          "t": 126250,
          "type": "note",
          "pitch": 39,
          "duration_ms": 225,
          "velocity": 70,
          "beat_index": 1010,
          "section": "chorus"
        },
        {
          "t": 126500,
          "type": "note",
          "pitch": 41,
          "duration_ms": 225,
          "velocity": 90,
          "beat_index": 1012,
          "section": "chorus"
        },
        {
          "t": 126750,
          "type": "note",
          "pitch": 43,
          "duration_ms": 225,
          "velocity": 70,
          "beat_index": 1014,
          "section": "chorus"
        },
        {
          "t": 127000,
          "type": "note",
          "pitch": 36,
          "duration_ms": 225,
          "velocity": 90,
          "beat_index": 1016,
          "section": "chorus"
        },
        {
          "t": 127250,
          "type": "note",
          "pitch": 39,
          "duration_ms": 225,
          "velocity": 70,
          "beat_index": 1018,
          "section": "chorus"
        },
        {
          "t": 127500,
          "type": "note",
          "pitch": 43,
          "duration_ms": 225,
          "velocity": 90,
          "beat_index": 1020,
          "section": "chorus"
        },
        {
          "t": 127750,
          "type": "note",
          "pitch": 41,
          "duration_ms": 225,
          "velocity": 70,
          "beat_index": 1022,
          "section": "chorus"
        },
        {
          "t": 128000,
          "type": "note",
          "pitch": 36,
          "duration_ms": 225,
          "velocity": 90,
          "beat_index": 1024,
          "section": "chorus"
        },
        {
          "t": 128250,
          "type": "note",
          "pitch": 39,
          "duration_ms": 225,
          "velocity": 70,
          "beat_index": 1026,
          "section": "chorus"
        },
        {
          "t": 128500,
          "type": "note",
          "pitch": 41,
          "duration_ms": 225,
          "velocity": 90,
          "beat_index": 1028,
          "section": "chorus"
        },
        {
          "t": 128750,
          "type": "note",
          "pitch": 43,
          "duration_ms": 225,
          "velocity": 70,
          "beat_index": 1030,
          "section": "chorus"
        },
        {
          "t": 129000,
          "type": "note",
          "pitch": 36,
          "duration_ms": 225,
          "velocity": 90,
          "beat_index": 1032,
          "section": "chorus"
        },
        {
          "t": 129250,
          "type": "note",
          "pitch": 39,
          "duration_ms": 225,
          "velocity": 70,
          "beat_index": 1034,
          "section": "chorus"
        },
        {
          "t": 129500,
          "type": "note",
          "pitch": 43,
          "duration_ms": 225,
          "velocity": 90,
          "beat_index": 1036,
          "section": "chorus"
        },
        {
          "t": 129750,
          "type": "note",
          "pitch": 41,
          "duration_ms": 225,
          "velocity": 70,
          "beat_index": 1038,
          "section": "chorus"
        },
        {
          "t": 130000,
          "type": "note",
          "pitch": 36,
          "duration_ms": 225,
          "velocity": 90,
          "beat_index": 1040,
          "section": "chorus"
        },
        {
          "t": 130250,
          "type": "note",
          "pitch": 39,
          "duration_ms": 225,
          "velocity": 70,
          "beat_index": 1042,
          "section": "chorus"
        },
        {
          "t": 130500,
          "type": "note",
          "pitch": 41,
          "duration_ms": 225,
          "velocity": 90,
          "beat_index": 1044,
          "section": "chorus"
        },
        {
          "t": 130750,
          "type": "note",
          "pitch": 43,
          "duration_ms": 225,
          "velocity": 70,
          "beat_index": 1046,
          "section": "chorus"
        },
        {
          "t": 131000,
          "type": "note",
          "pitch": 36,
          "duration_ms": 225,
          "velocity": 90,
          "beat_index": 1048,
          "section": "chorus"
        },
        {
          "t": 131250,
          "type": "note",
          "pitch": 39,
          "duration_ms": 225,
          "velocity": 70,
          "beat_index": 1050,
          "section": "chorus"
        },
        {
          "t": 131500,
          "type": "note",
          "pitch": 43,
          "duration_ms": 225,
          "velocity": 90,
          "beat_index": 1052,
          "section": "chorus"
        },
        {
          "t": 131750,
          "type": "note",
          "pitch": 41,
          "duration_ms": 225,
          "velocity": 70,
          "beat_index": 1054,
          "section": "chorus"
        },
        {
          "t": 132000,
          "type": "note",
          "pitch": 36,
          "duration_ms": 225,
          "velocity": 90,
          "beat_index": 1056,
          "section": "chorus"
        },
        {
          "t": 132250,
          "type": "note",
          "pitch": 39,
          "duration_ms": 225,
          "velocity": 70,
          "beat_index": 1058,
          "section": "chorus"
        },
        {
          "t": 132500,
          "type": "note",
          "pitch": 41,
          "duration_ms": 225,
          "velocity": 90,
          "beat_index": 1060,
          "section": "chorus"
        },
        {
          "t": 132750,
          "type": "note",
          "pitch": 43,
          "duration_ms": 225,
          "velocity": 70,
          "beat_index": 1062,
          "section": "chorus"
        },
        {
          "t": 133000,
          "type": "note",
          "pitch": 36,
          "duration_ms": 225,
          "velocity": 90,
          "beat_index": 1064,
          "section": "chorus"
        },
        {
          "t": 133250,
          "type": "note",
          "pitch": 39,
          "duration_ms": 225,
          "velocity": 70,
          "beat_index": 1066,
          "section": "chorus"
        },
        {
          "t": 133500,
          "type": "note",
          "pitch": 43,
          "duration_ms": 225,
          "velocity": 90,
          "beat_index": 1068,
          "section": "chorus"
        },
        {
          "t": 133750,
          "type": "note",
          "pitch": 41,
          "duration_ms": 225,
          "velocity": 70,
          "beat_index": 1070,
          "section": "chorus"
        },
        {
          "t": 134000,
          "type": "note",
          "pitch": 36,
          "duration_ms": 225,
          "velocity": 90,
          "beat_index": 1072,
          "section": "chorus"
        },
        {
          "t": 134250,
          "type": "note",
          "pitch": 39,
          "duration_ms": 225,
          "velocity": 70,
          "beat_index": 1074,
          "section": "chorus"
        },
        {
          "t": 134500,
          "type": "note",
          "pitch": 41,
          "duration_ms": 225,
          "velocity": 90,
          "beat_index": 1076,
          "section": "chorus"
        },
        {
          "t": 134750,
          "type": "note",
          "pitch": 43,
          "duration_ms": 225,
          "velocity": 70,
          "beat_index": 1078,
          "section": "chorus"
        },
        {
          "t": 135000,
          "type": "note",
          "pitch": 36,
          "duration_ms": 225,
          "velocity": 90,
          "beat_index": 1080,
          "section": "chorus"
        },
        {
          "t": 135250,
          "type": "note",
          "pitch": 39,
          "duration_ms": 225,
          "velocity": 70,
          "beat_index": 1082,
          "section": "chorus"
        },
        {
          "t": 135500,
          "type": "note",
          "pitch": 43,
          "duration_ms": 225,
          "velocity": 90,
          "beat_index": 1084,
          "section": "chorus"
        },
        {
          "t": 135750,
          "type": "note",
          "pitch": 41,
          "duration_ms": 225,
          "velocity": 70,
          "beat_index": 1086,
          "section": "chorus"
        },
        {
          "t": 136000,
          "type": "note",
          "pitch": 36,
          "duration_ms": 225,
          "velocity": 90,
          "beat_index": 1088,
          "section": "chorus"
        },
        {
          "t": 136250,
          "type": "note",
          "pitch": 39,
          "duration_ms": 225,
          "velocity": 70,
          "beat_index": 1090,
          "section": "chorus"
        },
        {
          "t": 136500,
          "type": "note",
          "pitch": 41,
          "duration_ms": 225,
          "velocity": 90,
          "beat_index": 1092,
          "section": "chorus"
        },
        {
          "t": 136750,
          "type": "note",
          "pitch": 43,
          "duration_ms": 225,
          "velocity": 70,
          "beat_index": 1094,
          "section": "chorus"
        },
        {
          "t": 137000,
          "type": "note",
          "pitch": 36,
          "duration_ms": 225,
          "velocity": 90,
          "beat_index": 1096,
          "section": "chorus"
        },
        {
          "t": 137250,
          "type": "note",
          "pitch": 39,
          "duration_ms": 225,
          "velocity": 70,
          "beat_index": 1098,
          "section": "chorus"
        },
        {
          "t": 137500,
          "type": "note",
          "pitch": 43,
          "duration_ms": 225,
          "velocity": 90,
          "beat_index": 1100,
          "section": "chorus"
        },
        {
          "t": 137750,
          "type": "note",
          "pitch": 41,
          "duration_ms": 225,
          "velocity": 70,
          "beat_index": 1102,
          "section": "chorus"
        },
        {
          "t": 138000,
          "type": "note",
          "pitch": 36,
          "duration_ms": 225,
          "velocity": 90,
          "beat_index": 1104,
          "section": "chorus"
        },
        {
          "t": 138250,
          "type": "note",
          "pitch": 39,
          "duration_ms": 225,
          "velocity": 70,
          "beat_index": 1106,
          "section": "chorus"
        },
        {
          "t": 138500,
          "type": "note",
          "pitch": 41,
          "duration_ms": 225,
          "velocity": 90,
          "beat_index": 1108,
          "section": "chorus"
        },
        {
          "t": 138750,
          "type": "note",
          "pitch": 43,
          "duration_ms": 225,
          "velocity": 70,
          "beat_index": 1110,
          "section": "chorus"
        },
        {
          "t": 139000,
          "type": "note",
          "pitch": 36,
          "duration_ms": 225,
          "velocity": 90,
          "beat_index": 1112,
          "section": "chorus"
        },
        {
          "t": 139250,
          "type": "note",
          "pitch": 39,
          "duration_ms": 225,
          "velocity": 70,
          "beat_index": 1114,
          "section": "chorus"
        },
        {
          "t": 139500,
          "type": "note",
          "pitch": 43,
          "duration_ms": 225,
          "velocity": 90,
          "beat_index": 1116,
          "section": "chorus"
        },
        {
          "t": 139750,
          "type": "note",
          "pitch": 41,
          "duration_ms": 225,
          "velocity": 70,
          "beat_index": 1118,
          "section": "chorus"
        },
        {
          "t": 140000,
          "type": "note",
          "pitch": 36,
          "duration_ms": 225,
          "velocity": 90,
          "beat_index": 1120,
          "section": "chorus"
        },
        {
          "t": 140250,
          "type": "note",
          "pitch": 39,
          "duration_ms": 225,
          "velocity": 70,
          "beat_index": 1122,
          "section": "chorus"
        },
        {
          "t": 140500,
          "type": "note",
          "pitch": 41,
          "duration_ms": 225,
          "velocity": 90,
          "beat_index": 1124,
          "section": "chorus"
        },
        {
          "t": 140750,
          "type": "note",
          "pitch": 43,
          "duration_ms": 225,
          "velocity": 70,
          "beat_index": 1126,
          "section": "chorus"
        },
        {
          "t": 141000,
          "type": "note",
          "pitch": 36,
          "duration_ms": 225,
          "velocity": 90,
          "beat_index": 1128,
          "section": "chorus"
        },
        {
          "t": 141250,
          "type": "note",
          "pitch": 39,
          "duration_ms": 225,
          "velocity": 70,
          "beat_index": 1130,
          "section": "chorus"
        },
        {
          "t": 141500,
          "type": "note",
          "pitch": 43,
          "duration_ms": 225,
          "velocity": 90,
          "beat_index": 1132,
          "section": "chorus"
        },
        {
          "t": 141750,
          "type": "note",
          "pitch": 41,
          "duration_ms": 225,
          "velocity": 70,
          "beat_index": 1134,
          "section": "chorus"
        },
        {
          "t": 142000,
          "type": "note",
          "pitch": 36,
          "duration_ms": 225,
          "velocity": 90,
          "beat_index": 1136,
          "section": "chorus"
        },
        {
          "t": 142250,
          "type": "note",
          "pitch": 39,
          "duration_ms": 225,
          "velocity": 70,
          "beat_index": 1138,
          "section": "chorus"
        },
        {
          "t": 142500,
          "type": "note",
          "pitch": 41,
          "duration_ms": 225,
          "velocity": 90,
          "beat_index": 1140,
          "section": "chorus"
        },
        {
          "t": 142750,
          "type": "note",
          "pitch": 43,
          "duration_ms": 225,
          "velocity": 70,
          "beat_index": 1142,
          "section": "chorus"
        },
        {
          "t": 143000,
          "type": "note",
          "pitch": 36,
          "duration_ms": 225,
          "velocity": 90,
          "beat_index": 1144,
          "section": "chorus"
        },
        {
          "t": 143250,
          "type": "note",
          "pitch": 39,
          "duration_ms": 225,
          "velocity": 70,
          "beat_index": 1146,
          "section": "chorus"
        },
        {
          "t": 143500,
          "type": "note",
          "pitch": 43,
          "duration_ms": 225,
          "velocity": 90,
          "beat_index": 1148,
          "section": "chorus"
        },
        {
          "t": 143750,
          "type": "note",
          "pitch": 41,
          "duration_ms": 225,
          "velocity": 70,
          "beat_index": 1150,
          "section": "chorus"
        },
        {
          "t": 144000,
          "type": "note",
          "pitch": 36,
          "duration_ms": 225,
          "velocity": 90,
          "beat_index": 1152,
          "section": "chorus"
        },
        {
          "t": 144250,
          "type": "note",
          "pitch": 39,
          "duration_ms": 225,
          "velocity": 70,
          "beat_index": 1154,
          "section": "chorus"
        },
        {
          "t": 144500,
          "type": "note",
          "pitch": 41,
          "duration_ms": 225,
          "velocity": 90,
          "beat_index": 1156,
          "section": "chorus"
        },
        {
          "t": 144750,
          "type": "note",
          "pitch": 43,
          "duration_ms": 225,
          "velocity": 70,
          "beat_index": 1158,
          "section": "chorus"
        },
        {
          "t": 145000,
          "type": "note",
          "pitch": 36,
          "duration_ms": 225,
          "velocity": 90,
          "beat_index": 1160,
          "section": "chorus"
        },
        {
          "t": 145250,
          "type": "note",
          "pitch": 39,
          "duration_ms": 225,
          "velocity": 70,
          "beat_index": 1162,
          "section": "chorus"
        },
        {
          "t": 145500,
          "type": "note",
          "pitch": 43,
          "duration_ms": 225,
          "velocity": 90,
          "beat_index": 1164,
          "section": "chorus"
        },
        {
          "t": 145750,
          "type": "note",
          "pitch": 41,
          "duration_ms": 225,
          "velocity": 70,
          "beat_index": 1166,
          "section": "chorus"
        },
        {
          "t": 146000,
          "type": "note",
          "pitch": 36,
          "duration_ms": 225,
          "velocity": 90,
          "beat_index": 1168,
          "section": "chorus"
        },
        {
          "t": 146250,
          "type": "note",
          "pitch": 39,
          "duration_ms": 225,
          "velocity": 70,
          "beat_index": 1170,
          "section": "chorus"
        },
        {
          "t": 146500,
          "type": "note",
          "pitch": 41,
          "duration_ms": 225,
          "velocity": 90,
          "beat_index": 1172,
          "section": "chorus"
        },
        {
          "t": 146750,
          "type": "note",
          "pitch": 43,
          "duration_ms": 225,
          "velocity": 70,
          "beat_index": 1174,
          "section": "chorus"
        },
        {
          "t": 147000,
          "type": "note",
          "pitch": 36,
          "duration_ms": 225,
          "velocity": 90,
          "beat_index": 1176,
          "section": "chorus"
        },
        {
          "t": 147250,
          "type": "note",
          "pitch": 39,
          "duration_ms": 225,
          "velocity": 70,
          "beat_index": 1178,
          "section": "chorus"
        },
        {
          "t": 147500,
          "type": "note",
          "pitch": 43,
          "duration_ms": 225,
          "velocity": 90,
          "beat_index": 1180,
          "section": "chorus"
        },
        {
          "t": 147750,
          "type": "note",
          "pitch": 41,
          "duration_ms": 225,
          "velocity": 70,
          "beat_index": 1182,
          "section": "chorus"
        },
        {
          "t": 148000,
          "type": "note",
          "pitch": 36,
          "duration_ms": 225,
          "velocity": 90,
          "beat_index": 1184,
          "section": "chorus"
        },
        {
          "t": 148250,
          "type": "note",
          "pitch": 39,
          "duration_ms": 225,
          "velocity": 70,
          "beat_index": 1186,
          "section": "chorus"
        },
        {
          "t": 148500,
          "type": "note",
          "pitch": 41,
          "duration_ms": 225,
          "velocity": 90,
          "beat_index": 1188,
          "section": "chorus"
        },
        {
          "t": 148750,
          "type": "note",
          "pitch": 43,
          "duration_ms": 225,
          "velocity": 70,
          "beat_index": 1190,
          "section": "chorus"
        },
        {
          "t": 149000,
          "type": "note",
          "pitch": 36,
          "duration_ms": 225,
          "velocity": 90,
          "beat_index": 1192,
          "section": "chorus"
        },
        {
          "t": 149250,
          "type": "note",
          "pitch": 39,
          "duration_ms": 225,
          "velocity": 70,
          "beat_index": 1194,
          "section": "chorus"
        },
        {
          "t": 149500,
          "type": "note",
          "pitch": 43,
          "duration_ms": 225,
          "velocity": 90,
          "beat_index": 1196,
          "section": "chorus"
        },
        {
          "t": 149750,
          "type": "note",
          "pitch": 41,
          "duration_ms": 225,
          "velocity": 70,
          "beat_index": 1198,
          "section": "chorus"
        },
        {
          "t": 150000,
          "type": "note",
          "pitch": 36,
          "duration_ms": 225,
          "velocity": 90,
          "beat_index": 1200,
          "section": "chorus"
        },
        {
          "t": 150250,
          "type": "note",
          "pitch": 39,
          "duration_ms": 225,
          "velocity": 70,
          "beat_index": 1202,
          "section": "chorus"
        },
        {
          "t": 150500,
          "type": "note",
          "pitch": 41,
          "duration_ms": 225,
          "velocity": 90,
          "beat_index": 1204,
          "section": "chorus"
        },
        {
          "t": 150750,
          "type": "note",
          "pitch": 43,
          "duration_ms": 225,
          "velocity": 70,
          "beat_index": 1206,
          "section": "chorus"
        },
        {
          "t": 151000,
          "type": "note",
          "pitch": 36,
          "duration_ms": 225,
          "velocity": 90,
          "beat_index": 1208,
          "section": "chorus"
        },
        {
          "t": 151250,
          "type": "note",
          "pitch": 39,
          "duration_ms": 225,
          "velocity": 70,
          "beat_index": 1210,
          "section": "chorus"
        },
        {
          "t": 151500,
          "type": "note",
          "pitch": 43,
          "duration_ms": 225,
          "velocity": 90,
          "beat_index": 1212,
          "section": "chorus"
        },
        {
          "t": 151750,
          "type": "note",
          "pitch": 41,
          "duration_ms": 225,
          "velocity": 70,
          "beat_index": 1214,
          "section": "chorus"
        },
        {
          "t": 152000,
          "type": "note",
          "pitch": 36,
          "duration_ms": 225,
          "velocity": 90,
          "beat_index": 1216,
          "section": "chorus"
        },
        {
          "t": 152250,
          "type": "note",
          "pitch": 39,
          "duration_ms": 225,
          "velocity": 70,
          "beat_index": 1218,
          "section": "chorus"
        },
        {
          "t": 152500,
          "type": "note",
          "pitch": 41,
          "duration_ms": 225,
          "velocity": 90,
          "beat_index": 1220,
          "section": "chorus"
        },
        {
          "t": 152750,
          "type": "note",
          "pitch": 43,
          "duration_ms": 225,
          "velocity": 70,
          "beat_index": 1222,
          "section": "chorus"
        },
        {
          "t": 153000,
          "type": "note",
          "pitch": 36,
          "duration_ms": 225,
          "velocity": 90,
          "beat_index": 1224,
          "section": "chorus"
        },
        {
          "t": 153250,
          "type": "note",
          "pitch": 39,
          "duration_ms": 225,
          "velocity": 70,
          "beat_index": 1226,
          "section": "chorus"
        },
        {
          "t": 153500,
          "type": "note",
          "pitch": 43,
          "duration_ms": 225,
          "velocity": 90,
          "beat_index": 1228,
          "section": "chorus"
        },
        {
          "t": 153750,
          "type": "note",
          "pitch": 41,
          "duration_ms": 225,
          "velocity": 70,
          "beat_index": 1230,
          "section": "chorus"
        },
        {
          "t": 154000,
          "type": "note",
          "pitch": 36,
          "duration_ms": 225,
          "velocity": 90,
          "beat_index": 1232,
          "section": "chorus"
        },
        {
          "t": 154250,
          "type": "note",
          "pitch": 39,
          "duration_ms": 225,
          "velocity": 70,
          "beat_index": 1234,
          "section": "chorus"
        },
        {
          "t": 154500,
          "type": "note",
          "pitch": 41,
          "duration_ms": 225,
          "velocity": 90,
          "beat_index": 1236,
          "section": "chorus"
        },
        {
          "t": 154750,
          "type": "note",
          "pitch": 43,
          "duration_ms": 225,
          "velocity": 70,
          "beat_index": 1238,
          "section": "chorus"
        },
        {
          "t": 155000,
          "type": "note",
          "pitch": 36,
          "duration_ms": 225,
          "velocity": 90,
          "beat_index": 1240,
          "section": "chorus"
        },
        {
          "t": 155250,
          "type": "note",
          "pitch": 39,
          "duration_ms": 225,
          "velocity": 70,
          "beat_index": 1242,
          "section": "chorus"
        },
        {
          "t": 155500,
          "type": "note",
          "pitch": 43,
          "duration_ms": 225,
          "velocity": 90,
          "beat_index": 1244,
          "section": "chorus"
        },
        {
          "t": 155750,
          "type": "note",
          "pitch": 41,
          "duration_ms": 225,
          "velocity": 70,
          "beat_index": 1246,
          "section": "chorus"
        },
        {
          "t": 156000,
          "type": "note",
          "pitch": 36,
          "duration_ms": 225,
          "velocity": 90,
          "beat_index": 1248,
          "section": "chorus"
        },
        {
          "t": 156250,
          "type": "note",
          "pitch": 39,
          "duration_ms": 225,
          "velocity": 70,
          "beat_index": 1250,
          "section": "chorus"
        },
        {
          "t": 156500,
          "type": "note",
          "pitch": 41,
          "duration_ms": 225,
          "velocity": 90,
          "beat_index": 1252,
          "section": "chorus"
        },
        {
          "t": 156750,
          "type": "note",
          "pitch": 43,
          "duration_ms": 225,
          "velocity": 70,
          "beat_index": 1254,
          "section": "chorus"
        },
        {
          "t": 157000,
          "type": "note",
          "pitch": 36,
          "duration_ms": 225,
          "velocity": 90,
          "beat_index": 1256,
          "section": "chorus"
        },
        {
          "t": 157250,
          "type": "note",
          "pitch": 39,
          "duration_ms": 225,
          "velocity": 70,
          "beat_index": 1258,
          "section": "chorus"
        },
        {
          "t": 157500,
          "type": "note",
          "pitch": 43,
          "duration_ms": 225,
          "velocity": 90,
          "beat_index": 1260,
          "section": "chorus"
        },
        {
          "t": 157750,
          "type": "note",
          "pitch": 41,
          "duration_ms": 225,
          "velocity": 70,
          "beat_index": 1262,
          "section": "chorus"
        },
        {
          "t": 158000,
          "type": "note",
          "pitch": 36,
          "duration_ms": 225,
          "velocity": 90,
          "beat_index": 1264,
          "section": "chorus"
        },
        {
          "t": 158250,
          "type": "note",
          "pitch": 39,
          "duration_ms": 225,
          "velocity": 70,
          "beat_index": 1266,
          "section": "chorus"
        },
        {
          "t": 158500,
          "type": "note",
          "pitch": 41,
          "duration_ms": 225,
          "velocity": 90,
          "beat_index": 1268,
          "section": "chorus"
        },
        {
          "t": 158750,
          "type": "note",
          "pitch": 43,
          "duration_ms": 225,
          "velocity": 70,
          "beat_index": 1270,
          "section": "chorus"
        },
        {
          "t": 159000,
          "type": "note",
          "pitch": 36,
          "duration_ms": 225,
          "velocity": 90,
          "beat_index": 1272,
          "section": "chorus"
        },
        {
          "t": 159250,
          "type": "note",
          "pitch": 39,
          "duration_ms": 225,
          "velocity": 70,
          "beat_index": 1274,
          "section": "chorus"
        },
        {
          "t": 159500,
          "type": "note",
          "pitch": 43,
          "duration_ms": 225,
          "velocity": 90,
          "beat_index": 1276,
          "section": "chorus"
        },
        {
          "t": 159750,
          "type": "note",
          "pitch": 41,
          "duration_ms": 225,
          "velocity": 70,
          "beat_index": 1278,
          "section": "chorus"
        },
        {
          "t": 160000,
          "type": "note",
          "pitch": 36,
          "duration_ms": 225,
          "velocity": 90,
          "beat_index": 1280,
          "section": "outro"
        },
        {
          "t": 160250,
          "type": "note",
          "pitch": 39,
          "duration_ms": 225,
          "velocity": 70,
          "beat_index": 1282,
          "section": "outro"
        },
        {
          "t": 160500,
          "type": "note",
          "pitch": 41,
          "duration_ms": 225,
          "velocity": 90,
          "beat_index": 1284,
          "section": "outro"
        },
        {
          "t": 160750,
          "type": "note",
          "pitch": 43,
          "duration_ms": 225,
          "velocity": 70,
          "beat_index": 1286,
          "section": "outro"
        },
        {
          "t": 161000,
          "type": "note",
          "pitch": 36,
          "duration_ms": 225,
          "velocity": 90,
          "beat_index": 1288,
          "section": "outro"
        },
        {
          "t": 161250,
          "type": "note",
          "pitch": 39,
          "duration_ms": 225,
          "velocity": 70,
          "beat_index": 1290,
          "section": "outro"
        },
        {
          "t": 161500,
          "type": "note",
          "pitch": 43,
          "duration_ms": 225,
          "velocity": 90,
          "beat_index": 1292,
          "section": "outro"
        },
        {
          "t": 161750,
          "type": "note",
          "pitch": 41,
          "duration_ms": 225,
          "velocity": 70,
          "beat_index": 1294,
          "section": "outro"
        },
        {
          "t": 162000,
          "type": "note",
          "pitch": 36,
          "duration_ms": 225,
          "velocity": 90,
          "beat_index": 1296,
          "section": "outro"
        },
        {
          "t": 162250,
          "type": "note",
          "pitch": 39,
          "duration_ms": 225,
          "velocity": 70,
          "beat_index": 1298,
          "section": "outro"
        },
        {
          "t": 162500,
          "type": "note",
          "pitch": 41,
          "duration_ms": 225,
          "velocity": 90,
          "beat_index": 1300,
          "section": "outro"
        },
        {
          "t": 162750,
          "type": "note",
          "pitch": 43,
          "duration_ms": 225,
          "velocity": 70,
          "beat_index": 1302,
          "section": "outro"
        },
        {
          "t": 163000,
          "type": "note",
          "pitch": 36,
          "duration_ms": 225,
          "velocity": 90,
          "beat_index": 1304,
          "section": "outro"
        },
        {
          "t": 163250,
          "type": "note",
          "pitch": 39,
          "duration_ms": 225,
          "velocity": 70,
          "beat_index": 1306,
          "section": "outro"
        },
        {
          "t": 163500,
          "type": "note",
          "pitch": 43,
          "duration_ms": 225,
          "velocity": 90,
          "beat_index": 1308,
          "section": "outro"
        },
        {
          "t": 163750,
          "type": "note",
          "pitch": 41,
          "duration_ms": 225,
          "velocity": 70,
          "beat_index": 1310,
          "section": "outro"
        },
        {
          "t": 164000,
          "type": "note",
          "pitch": 36,
          "duration_ms": 225,
          "velocity": 90,
          "beat_index": 1312,
          "section": "outro"
        },
        {
          "t": 164250,
          "type": "note",
          "pitch": 39,
          "duration_ms": 225,
          "velocity": 70,
          "beat_index": 1314,
          "section": "outro"
        },
        {
          "t": 164500,
          "type": "note",
          "pitch": 41,
          "duration_ms": 225,
          "velocity": 90,
          "beat_index": 1316,
          "section": "outro"
        },
        {
          "t": 164750,
          "type": "note",
          "pitch": 43,
          "duration_ms": 225,
          "velocity": 70,
          "beat_index": 1318,
          "section": "outro"
        },
        {
          "t": 165000,
          "type": "note",
          "pitch": 36,
          "duration_ms": 225,
          "velocity": 90,
          "beat_index": 1320,
          "section": "outro"
        },
        {
          "t": 165250,
          "type": "note",
          "pitch": 39,
          "duration_ms": 225,
          "velocity": 70,
          "beat_index": 1322,
          "section": "outro"
        },
        {
          "t": 165500,
          "type": "note",
          "pitch": 43,
          "duration_ms": 225,
          "velocity": 90,
          "beat_index": 1324,
          "section": "outro"
        },
        {
          "t": 165750,
          "type": "note",
          "pitch": 41,
          "duration_ms": 225,
          "velocity": 70,
          "beat_index": 1326,
          "section": "outro"
        },
        {
          "t": 166000,
          "type": "note",
          "pitch": 36,
          "duration_ms": 225,
          "velocity": 90,
          "beat_index": 1328,
          "section": "outro"
        },
        {
          "t": 166250,
          "type": "note",
          "pitch": 39,
          "duration_ms": 225,
          "velocity": 70,
          "beat_index": 1330,
          "section": "outro"
        },
        {
          "t": 166500,
          "type": "note",
          "pitch": 41,
          "duration_ms": 225,
          "velocity": 90,
          "beat_index": 1332,
          "section": "outro"
        },
        {
          "t": 166750,
          "type": "note",
          "pitch": 43,
          "duration_ms": 225,
          "velocity": 70,
          "beat_index": 1334,
          "section": "outro"
        },
        {
          "t": 167000,
          "type": "note",
          "pitch": 36,
          "duration_ms": 225,
          "velocity": 90,
          "beat_index": 1336,
          "section": "outro"
        },
        {
          "t": 167250,
          "type": "note",
          "pitch": 39,
          "duration_ms": 225,
          "velocity": 70,
          "beat_index": 1338,
          "section": "outro"
        },
        {
          "t": 167500,
          "type": "note",
          "pitch": 43,
          "duration_ms": 225,
          "velocity": 90,
          "beat_index": 1340,
          "section": "outro"
        },
        {
          "t": 167750,
          "type": "note",
          "pitch": 41,
          "duration_ms": 225,
          "velocity": 70,
          "beat_index": 1342,
          "section": "outro"
        },
        {
          "t": 168000,
          "type": "note",
          "pitch": 36,
          "duration_ms": 225,
          "velocity": 90,
          "beat_index": 1344,
          "section": "outro"
        },
        {
          "t": 168250,
          "type": "note",
          "pitch": 39,
          "duration_ms": 225,
          "velocity": 70,
          "beat_index": 1346,
          "section": "outro"
        },
        {
          "t": 168500,
          "type": "note",
          "pitch": 41,
          "duration_ms": 225,
          "velocity": 90,
          "beat_index": 1348,
          "section": "outro"
        },
        {
          "t": 168750,
          "type": "note",
          "pitch": 43,
          "duration_ms": 225,
          "velocity": 70,
          "beat_index": 1350,
          "section": "outro"
        },
        {
          "t": 169000,
          "type": "note",
          "pitch": 36,
          "duration_ms": 225,
          "velocity": 90,
          "beat_index": 1352,
          "section": "outro"
        },
        {
          "t": 169250,
          "type": "note",
          "pitch": 39,
          "duration_ms": 225,
          "velocity": 70,
          "beat_index": 1354,
          "section": "outro"
        },
        {
          "t": 169500,
          "type": "note",
          "pitch": 43,
          "duration_ms": 225,
          "velocity": 90,
          "beat_index": 1356,
          "section": "outro"
        },
        {
          "t": 169750,
          "type": "note",
          "pitch": 41,
          "duration_ms": 225,
          "velocity": 70,
          "beat_index": 1358,
          "section": "outro"
        },
        {
          "t": 170000,
          "type": "note",
          "pitch": 36,
          "duration_ms": 225,
          "velocity": 90,
          "beat_index": 1360,
          "section": "outro"
        },
        {
          "t": 170250,
          "type": "note",
          "pitch": 39,
          "duration_ms": 225,
          "velocity": 70,
          "beat_index": 1362,
          "section": "outro"
        },
        {
          "t": 170500,
          "type": "note",
          "pitch": 41,
          "duration_ms": 225,
          "velocity": 90,
          "beat_index": 1364,
          "section": "outro"
        },
        {
          "t": 170750,
          "type": "note",
          "pitch": 43,
          "duration_ms": 225,
          "velocity": 70,
          "beat_index": 1366,
          "section": "outro"
        },
        {
          "t": 171000,
          "type": "note",
          "pitch": 36,
          "duration_ms": 225,
          "velocity": 90,
          "beat_index": 1368,
          "section": "outro"
        },
        {
          "t": 171250,
          "type": "note",
          "pitch": 39,
          "duration_ms": 225,
          "velocity": 70,
          "beat_index": 1370,
          "section": "outro"
        },
        {
          "t": 171500,
          "type": "note",
          "pitch": 43,
          "duration_ms": 225,
          "velocity": 90,
          "beat_index": 1372,
          "section": "outro"
        },
        {
          "t": 171750,
          "type": "note",
          "pitch": 41,
          "duration_ms": 225,
          "velocity": 70,
          "beat_index": 1374,
          "section": "outro"
        },
        {
          "t": 172000,
          "type": "note",
          "pitch": 36,
          "duration_ms": 225,
          "velocity": 90,
          "beat_index": 1376,
          "section": "outro"
        },
        {
          "t": 172250,
          "type": "note",
          "pitch": 39,
          "duration_ms": 225,
          "velocity": 70,
          "beat_index": 1378,
          "section": "outro"
        },
        {
          "t": 172500,
          "type": "note",
          "pitch": 41,
          "duration_ms": 225,
          "velocity": 90,
          "beat_index": 1380,
          "section": "outro"
        },
        {
          "t": 172750,
          "type": "note",
          "pitch": 43,
          "duration_ms": 225,
          "velocity": 70,
          "beat_index": 1382,
          "section": "outro"
        },
        {
          "t": 173000,
          "type": "note",
          "pitch": 36,
          "duration_ms": 225,
          "velocity": 90,
          "beat_index": 1384,
          "section": "outro"
        },
        {
          "t": 173250,
          "type": "note",
          "pitch": 39,
          "duration_ms": 225,
          "velocity": 70,
          "beat_index": 1386,
          "section": "outro"
        },
        {
          "t": 173500,
          "type": "note",
          "pitch": 43,
          "duration_ms": 225,
          "velocity": 90,
          "beat_index": 1388,
          "section": "outro"
        },
        {
          "t": 173750,
          "type": "note",
          "pitch": 41,
          "duration_ms": 225,
          "velocity": 70,
          "beat_index": 1390,
          "section": "outro"
        },
        {
          "t": 174000,
          "type": "note",
          "pitch": 36,
          "duration_ms": 225,
          "velocity": 90,
          "beat_index": 1392,
          "section": "outro"
        },
        {
          "t": 174250,
          "type": "note",
          "pitch": 39,
          "duration_ms": 225,
          "velocity": 70,
          "beat_index": 1394,
          "section": "outro"
        },
        {
          "t": 174500,
          "type": "note",
          "pitch": 41,
          "duration_ms": 225,
          "velocity": 90,
          "beat_index": 1396,
          "section": "outro"
        },
        {
          "t": 174750,
          "type": "note",
          "pitch": 43,
          "duration_ms": 225,
          "velocity": 70,
          "beat_index": 1398,
          "section": "outro"
        },
        {
          "t": 175000,
          "type": "note",
          "pitch": 36,
          "duration_ms": 225,
          "velocity": 90,
          "beat_index": 1400,
          "section": "outro"
        },
        {
          "t": 175250,
          "type": "note",
          "pitch": 39,
          "duration_ms": 225,
          "velocity": 70,
          "beat_index": 1402,
          "section": "outro"
        },
        {
          "t": 175500,
          "type": "note",
          "pitch": 43,
          "duration_ms": 225,
          "velocity": 90,
          "beat_index": 1404,
          "section": "outro"
        },
        {
          "t": 175750,
          "type": "note",
          "pitch": 41,
          "duration_ms": 225,
          "velocity": 70,
          "beat_index": 1406,
          "section": "outro"
        },
        {
          "t": 176000,
          "type": "note",
          "pitch": 36,
          "duration_ms": 225,
          "velocity": 90,
          "beat_index": 1408,
          "section": "outro"
        },
        {
          "t": 176250,
          "type": "note",
          "pitch": 39,
          "duration_ms": 225,
          "velocity": 70,
          "beat_index": 1410,
          "section": "outro"
        },
        {
          "t": 176500,
          "type": "note",
          "pitch": 41,
          "duration_ms": 225,
          "velocity": 90,
          "beat_index": 1412,
          "section": "outro"
        },
        {
          "t": 176750,
          "type": "note",
          "pitch": 43,
          "duration_ms": 225,
          "velocity": 70,
          "beat_index": 1414,
          "section": "outro"
        },
        {
          "t": 177000,
          "type": "note",
          "pitch": 36,
          "duration_ms": 225,
          "velocity": 90,
          "beat_index": 1416,
          "section": "outro"
        },
        {
          "t": 177250,
          "type": "note",
          "pitch": 39,
          "duration_ms": 225,
          "velocity": 70,
          "beat_index": 1418,
          "section": "outro"
        },
        {
          "t": 177500,
          "type": "note",
          "pitch": 43,
          "duration_ms": 225,
          "velocity": 90,
          "beat_index": 1420,
          "section": "outro"
        },
        {
          "t": 177750,
          "type": "note",
          "pitch": 41,
          "duration_ms": 225,
          "velocity": 70,
          "beat_index": 1422,
          "section": "outro"
        },
        {
          "t": 178000,
          "type": "note",
          "pitch": 36,
          "duration_ms": 225,
          "velocity": 90,
          "beat_index": 1424,
          "section": "outro"
        },
        {
          "t": 178250,
          "type": "note",
          "pitch": 39,
          "duration_ms": 225,
          "velocity": 70,
          "beat_index": 1426,
          "section": "outro"
        },
        {
          "t": 178500,
          "type": "note",
          "pitch": 41,
          "duration_ms": 225,
          "velocity": 90,
          "beat_index": 1428,
          "section": "outro"
        },
        {
          "t": 178750,
          "type": "note",
          "pitch": 43,
          "duration_ms": 225,
          "velocity": 70,
          "beat_index": 1430,
          "section": "outro"
        },
        {
          "t": 179000,
          "type": "note",
          "pitch": 36,
          "duration_ms": 225,
          "velocity": 90,
          "beat_index": 1432,
          "section": "outro"
        },
        {
          "t": 179250,
          "type": "note",
          "pitch": 39,
          "duration_ms": 225,
          "velocity": 70,
          "beat_index": 1434,
          "section": "outro"
        },
        {
          "t": 179500,
          "type": "note",
          "pitch": 43,
          "duration_ms": 225,
          "velocity": 90,
          "beat_index": 1436,
          "section": "outro"
        },
        {
          "t": 179750,
          "type": "note",
          "pitch": 41,
          "duration_ms": 225,
          "velocity": 70,
          "beat_index": 1438,
          "section": "outro"
        },
        {
          "t": 180000,
          "type": "note",
          "pitch": 36,
          "duration_ms": 225,
          "velocity": 90,
          "beat_index": 1440,
          "section": "outro"
        },
        {
          "t": 180250,
          "type": "note",
          "pitch": 39,
          "duration_ms": 225,
          "velocity": 70,
          "beat_index": 1442,
          "section": "outro"
        },
        {
          "t": 180500,
          "type": "note",
          "pitch": 41,
          "duration_ms": 225,
          "velocity": 90,
          "beat_index": 1444,
          "section": "outro"
        },
        {
          "t": 180750,
          "type": "note",
          "pitch": 43,
          "duration_ms": 225,
          "velocity": 70,
          "beat_index": 1446,
          "section": "outro"
        },
        {
          "t": 181000,
          "type": "note",
          "pitch": 36,
          "duration_ms": 225,
          "velocity": 90,
          "beat_index": 1448,
          "section": "outro"
        },
        {
          "t": 181250,
          "type": "note",
          "pitch": 39,
          "duration_ms": 225,
          "velocity": 70,
          "beat_index": 1450,
          "section": "outro"
        },
        {
          "t": 181500,
          "type": "note",
          "pitch": 43,
          "duration_ms": 225,
          "velocity": 90,
          "beat_index": 1452,
          "section": "outro"
        },
        {
          "t": 181750,
          "type": "note",
          "pitch": 41,
          "duration_ms": 225,
          "velocity": 70,
          "beat_index": 1454,
          "section": "outro"
        },
        {
          "t": 182000,
          "type": "note",
          "pitch": 36,
          "duration_ms": 225,
          "velocity": 90,
          "beat_index": 1456,
          "section": "outro"
        },
        {
          "t": 182250,
          "type": "note",
          "pitch": 39,
          "duration_ms": 225,
          "velocity": 70,
          "beat_index": 1458,
          "section": "outro"
        },
        {
          "t": 182500,
          "type": "note",
          "pitch": 41,
          "duration_ms": 225,
          "velocity": 90,
          "beat_index": 1460,
          "section": "outro"
        },
        {
          "t": 182750,
          "type": "note",
          "pitch": 43,
          "duration_ms": 225,
          "velocity": 70,
          "beat_index": 1462,
          "section": "outro"
        },
        {
          "t": 183000,
          "type": "note",
          "pitch": 36,
          "duration_ms": 225,
          "velocity": 90,
          "beat_index": 1464,
          "section": "outro"
        },
        {
          "t": 183250,
          "type": "note",
          "pitch": 39,
          "duration_ms": 225,
          "velocity": 70,
          "beat_index": 1466,
          "section": "outro"
        },
        {
          "t": 183500,
          "type": "note",
          "pitch": 43,
          "duration_ms": 225,
          "velocity": 90,
          "beat_index": 1468,
          "section": "outro"
        },
        {
          "t": 183750,
          "type": "note",
          "pitch": 41,
          "duration_ms": 225,
          "velocity": 70,
          "beat_index": 1470,
          "section": "outro"
        },
        {
          "t": 184000,
          "type": "note",
          "pitch": 36,
          "duration_ms": 225,
          "velocity": 90,
          "beat_index": 1472,
          "section": "outro"
        },
        {
          "t": 184250,
          "type": "note",
          "pitch": 39,
          "duration_ms": 225,
          "velocity": 70,
          "beat_index": 1474,
          "section": "outro"
        },
        {
          "t": 184500,
          "type": "note",
          "pitch": 41,
          "duration_ms": 225,
          "velocity": 90,
          "beat_index": 1476,
          "section": "outro"
        },
        {
          "t": 184750,
          "type": "note",
          "pitch": 43,
          "duration_ms": 225,
          "velocity": 70,
          "beat_index": 1478,
          "section": "outro"
        },
        {
          "t": 185000,
          "type": "note",
          "pitch": 36,
          "duration_ms": 225,
          "velocity": 90,
          "beat_index": 1480,
          "section": "outro"
        },
        {
          "t": 185250,
          "type": "note",
          "pitch": 39,
          "duration_ms": 225,
          "velocity": 70,
          "beat_index": 1482,
          "section": "outro"
        },
        {
          "t": 185500,
          "type": "note",
          "pitch": 43,
          "duration_ms": 225,
          "velocity": 90,
          "beat_index": 1484,
          "section": "outro"
        },
        {
          "t": 185750,
          "type": "note",
          "pitch": 41,
          "duration_ms": 225,
          "velocity": 70,
          "beat_index": 1486,
          "section": "outro"
        },
        {
          "t": 186000,
          "type": "note",
          "pitch": 36,
          "duration_ms": 225,
          "velocity": 90,
          "beat_index": 1488,
          "section": "outro"
        },
        {
          "t": 186250,
          "type": "note",
          "pitch": 39,
          "duration_ms": 225,
          "velocity": 70,
          "beat_index": 1490,
          "section": "outro"
        },
        {
          "t": 186500,
          "type": "note",
          "pitch": 41,
          "duration_ms": 225,
          "velocity": 90,
          "beat_index": 1492,
          "section": "outro"
        },
        {
          "t": 186750,
          "type": "note",
          "pitch": 43,
          "duration_ms": 225,
          "velocity": 70,
          "beat_index": 1494,
          "section": "outro"
        },
        {
          "t": 187000,
          "type": "note",
          "pitch": 36,
          "duration_ms": 225,
          "velocity": 90,
          "beat_index": 1496,
          "section": "outro"
        },
        {
          "t": 187250,
          "type": "note",
          "pitch": 39,
          "duration_ms": 225,
          "velocity": 70,
          "beat_index": 1498,
          "section": "outro"
        },
        {
          "t": 187500,
          "type": "note",
          "pitch": 43,
          "duration_ms": 225,
          "velocity": 90,
          "beat_index": 1500,
          "section": "outro"
        },
        {
          "t": 187750,
          "type": "note",
          "pitch": 41,
          "duration_ms": 225,
          "velocity": 70,
          "beat_index": 1502,
          "section": "outro"
        },
        {
          "t": 188000,
          "type": "note",
          "pitch": 36,
          "duration_ms": 225,
          "velocity": 90,
          "beat_index": 1504,
          "section": "outro"
        },
        {
          "t": 188250,
          "type": "note",
          "pitch": 39,
          "duration_ms": 225,
          "velocity": 70,
          "beat_index": 1506,
          "section": "outro"
        },
        {
          "t": 188500,
          "type": "note",
          "pitch": 41,
          "duration_ms": 225,
          "velocity": 90,
          "beat_index": 1508,
          "section": "outro"
        },
        {
          "t": 188750,
          "type": "note",
          "pitch": 43,
          "duration_ms": 225,
          "velocity": 70,
          "beat_index": 1510,
          "section": "outro"
        },
        {
          "t": 189000,
          "type": "note",
          "pitch": 36,
          "duration_ms": 225,
          "velocity": 90,
          "beat_index": 1512,
          "section": "outro"
        },
        {
          "t": 189250,
          "type": "note",
          "pitch": 39,
          "duration_ms": 225,
          "velocity": 70,
          "beat_index": 1514,
          "section": "outro"
        },
        {
          "t": 189500,
          "type": "note",
          "pitch": 43,
          "duration_ms": 225,
          "velocity": 90,
          "beat_index": 1516,
          "section": "outro"
        },
        {
          "t": 189750,
          "type": "note",
          "pitch": 41,
          "duration_ms": 225,
          "velocity": 70,
          "beat_index": 1518,
          "section": "outro"
        },
        {
          "t": 190000,
          "type": "note",
          "pitch": 36,
          "duration_ms": 225,
          "velocity": 90,
          "beat_index": 1520,
          "section": "outro"
        },
        {
          "t": 190250,
          "type": "note",
          "pitch": 39,
          "duration_ms": 225,
          "velocity": 70,
          "beat_index": 1522,
          "section": "outro"
        },
        {
          "t": 190500,
          "type": "note",
          "pitch": 41,
          "duration_ms": 225,
          "velocity": 90,
          "beat_index": 1524,
          "section": "outro"
        },
        {
          "t": 190750,
          "type": "note",
          "pitch": 43,
          "duration_ms": 225,
          "velocity": 70,
          "beat_index": 1526,
          "section": "outro"
        },
        {
          "t": 191000,
          "type": "note",
          "pitch": 36,
          "duration_ms": 225,
          "velocity": 90,
          "beat_index": 1528,
          "section": "outro"
        },
        {
          "t": 191250,
          "type": "note",
          "pitch": 39,
          "duration_ms": 225,
          "velocity": 70,
          "beat_index": 1530,
          "section": "outro"
        },
        {
          "t": 191500,
          "type": "note",
          "pitch": 43,
          "duration_ms": 225,
          "velocity": 90,
          "beat_index": 1532,
          "section": "outro"
        },
        {
          "t": 191750,
          "type": "note",
          "pitch": 41,
          "duration_ms": 225,
          "velocity": 70,
          "beat_index": 1534,
          "section": "outro"
        }
      ]
    },
    {
      "id": "melody",
      "instrument": "Lead Synth",
      "midi_channel": 0,
      "role": "lead",
      "event_count": 896,
      "events": [
        {
          "t": 0,
          "type": "note",
          "pitch": 60,
          "duration_ms": 460,
          "velocity": 80,
          "beat_index": 0,
          "section": "intro"
        },
        {
          "t": 500,
          "type": "note",
          "pitch": 63,
          "duration_ms": 460,
          "velocity": 85,
          "beat_index": 4,
          "section": "intro"
        },
        {
          "t": 1000,
          "type": "note",
          "pitch": 65,
          "duration_ms": 460,
          "velocity": 90,
          "beat_index": 8,
          "section": "intro"
        },
        {
          "t": 1500,
          "type": "note",
          "pitch": 67,
          "duration_ms": 460,
          "velocity": 95,
          "beat_index": 12,
          "section": "intro"
        },
        {
          "t": 2000,
          "type": "note",
          "pitch": 60,
          "duration_ms": 460,
          "velocity": 80,
          "beat_index": 16,
          "section": "intro"
        },
        {
          "t": 2500,
          "type": "note",
          "pitch": 63,
          "duration_ms": 460,
          "velocity": 85,
          "beat_index": 20,
          "section": "intro"
        },
        {
          "t": 3000,
          "type": "note",
          "pitch": 65,
          "duration_ms": 460,
          "velocity": 90,
          "beat_index": 24,
          "section": "intro"
        },
        {
          "t": 3500,
          "type": "note",
          "pitch": 67,
          "duration_ms": 460,
          "velocity": 95,
          "beat_index": 28,
          "section": "intro"
        },
        {
          "t": 4000,
          "type": "note",
          "pitch": 60,
          "duration_ms": 460,
          "velocity": 80,
          "beat_index": 32,
          "section": "intro"
        },
        {
          "t": 4500,
          "type": "note",
          "pitch": 63,
          "duration_ms": 460,
          "velocity": 85,
          "beat_index": 36,
          "section": "intro"
        },
        {
          "t": 5000,
          "type": "note",
          "pitch": 65,
          "duration_ms": 460,
          "velocity": 90,
          "beat_index": 40,
          "section": "intro"
        },
        {
          "t": 5500,
          "type": "note",
          "pitch": 67,
          "duration_ms": 460,
          "velocity": 95,
          "beat_index": 44,
          "section": "intro"
        },
        {
          "t": 6000,
          "type": "note",
          "pitch": 60,
          "duration_ms": 460,
          "velocity": 80,
          "beat_index": 48,
          "section": "intro"
        },
        {
          "t": 6500,
          "type": "note",
          "pitch": 63,
          "duration_ms": 460,
          "velocity": 85,
          "beat_index": 52,
          "section": "intro"
        },
        {
          "t": 7000,
          "type": "note",
          "pitch": 65,
          "duration_ms": 460,
          "velocity": 90,
          "beat_index": 56,
          "section": "intro"
        },
        {
          "t": 7500,
          "type": "note",
          "pitch": 67,
          "duration_ms": 460,
          "velocity": 95,
          "beat_index": 60,
          "section": "intro"
        },
        {
          "t": 8000,
          "type": "note",
          "pitch": 60,
          "duration_ms": 460,
          "velocity": 80,
          "beat_index": 64,
          "section": "intro"
        },
        {
          "t": 8500,
          "type": "note",
          "pitch": 63,
          "duration_ms": 460,
          "velocity": 85,
          "beat_index": 68,
          "section": "intro"
        },
        {
          "t": 9000,
          "type": "note",
          "pitch": 65,
          "duration_ms": 460,
          "velocity": 90,
          "beat_index": 72,
          "section": "intro"
        },
        {
          "t": 9500,
          "type": "note",
          "pitch": 67,
          "duration_ms": 460,
          "velocity": 95,
          "beat_index": 76,
          "section": "intro"
        },
        {
          "t": 10000,
          "type": "note",
          "pitch": 60,
          "duration_ms": 460,
          "velocity": 80,
          "beat_index": 80,
          "section": "intro"
        },
        {
          "t": 10500,
          "type": "note",
          "pitch": 63,
          "duration_ms": 460,
          "velocity": 85,
          "beat_index": 84,
          "section": "intro"
        },
        {
          "t": 11000,
          "type": "note",
          "pitch": 65,
          "duration_ms": 460,
          "velocity": 90,
          "beat_index": 88,
          "section": "intro"
        },
        {
          "t": 11500,
          "type": "note",
          "pitch": 67,
          "duration_ms": 460,
          "velocity": 95,
          "beat_index": 92,
          "section": "intro"
        },
        {
          "t": 12000,
          "type": "note",
          "pitch": 60,
          "duration_ms": 460,
          "velocity": 80,
          "beat_index": 96,
          "section": "intro"
        },
        {
          "t": 12500,
          "type": "note",
          "pitch": 63,
          "duration_ms": 460,
          "velocity": 85,
          "beat_index": 100,
          "section": "intro"
        },
        {
          "t": 13000,
          "type": "note",
          "pitch": 65,
          "duration_ms": 460,
          "velocity": 90,
          "beat_index": 104,
          "section": "intro"
        },
        {
          "t": 13500,
          "type": "note",
          "pitch": 67,
          "duration_ms": 460,
          "velocity": 95,
          "beat_index": 108,
          "section": "intro"
        },
        {
          "t": 14000,
          "type": "note",
          "pitch": 60,
          "duration_ms": 460,
          "velocity": 80,
          "beat_index": 112,
          "section": "intro"
        },
        {
          "t": 14500,
          "type": "note",
          "pitch": 63,
          "duration_ms": 460,
          "velocity": 85,
          "beat_index": 116,
          "section": "intro"
        },
        {
          "t": 15000,
          "type": "note",
          "pitch": 65,
          "duration_ms": 460,
          "velocity": 90,
          "beat_index": 120,
          "section": "intro"
        },
        {
          "t": 15500,
          "type": "note",
          "pitch": 67,
          "duration_ms": 460,
          "velocity": 95,
          "beat_index": 124,
          "section": "intro"
        },
        {
          "t": 16000,
          "type": "note",
          "pitch": 60,
          "duration_ms": 460,
          "velocity": 80,
          "beat_index": 128,
          "section": "intro"
        },
        {
          "t": 16500,
          "type": "note",
          "pitch": 63,
          "duration_ms": 460,
          "velocity": 85,
          "beat_index": 132,
          "section": "intro"
        },
        {
          "t": 17000,
          "type": "note",
          "pitch": 65,
          "duration_ms": 460,
          "velocity": 90,
          "beat_index": 136,
          "section": "intro"
        },
        {
          "t": 17500,
          "type": "note",
          "pitch": 67,
          "duration_ms": 460,
          "velocity": 95,
          "beat_index": 140,
          "section": "intro"
        },
        {
          "t": 18000,
          "type": "note",
          "pitch": 60,
          "duration_ms": 460,
          "velocity": 80,
          "beat_index": 144,
          "section": "intro"
        },
        {
          "t": 18500,
          "type": "note",
          "pitch": 63,
          "duration_ms": 460,
          "velocity": 85,
          "beat_index": 148,
          "section": "intro"
        },
        {
          "t": 19000,
          "type": "note",
          "pitch": 65,
          "duration_ms": 460,
          "velocity": 90,
          "beat_index": 152,
          "section": "intro"
        },
        {
          "t": 19500,
          "type": "note",
          "pitch": 67,
          "duration_ms": 460,
          "velocity": 95,
          "beat_index": 156,
          "section": "intro"
        },
        {
          "t": 20000,
          "type": "note",
          "pitch": 60,
          "duration_ms": 460,
          "velocity": 80,
          "beat_index": 160,
          "section": "intro"
        },
        {
          "t": 20500,
          "type": "note",
          "pitch": 63,
          "duration_ms": 460,
          "velocity": 85,
          "beat_index": 164,
          "section": "intro"
        },
        {
          "t": 21000,
          "type": "note",
          "pitch": 65,
          "duration_ms": 460,
          "velocity": 90,
          "beat_index": 168,
          "section": "intro"
        },
        {
          "t": 21500,
          "type": "note",
          "pitch": 67,
          "duration_ms": 460,
          "velocity": 95,
          "beat_index": 172,
          "section": "intro"
        },
        {
          "t": 22000,
          "type": "note",
          "pitch": 60,
          "duration_ms": 460,
          "velocity": 80,
          "beat_index": 176,
          "section": "intro"
        },
        {
          "t": 22500,
          "type": "note",
          "pitch": 63,
          "duration_ms": 460,
          "velocity": 85,
          "beat_index": 180,
          "section": "intro"
        },
        {
          "t": 23000,
          "type": "note",
          "pitch": 65,
          "duration_ms": 460,
          "velocity": 90,
          "beat_index": 184,
          "section": "intro"
        },
        {
          "t": 23500,
          "type": "note",
          "pitch": 67,
          "duration_ms": 460,
          "velocity": 95,
          "beat_index": 188,
          "section": "intro"
        },
        {
          "t": 24000,
          "type": "note",
          "pitch": 60,
          "duration_ms": 460,
          "velocity": 80,
          "beat_index": 192,
          "section": "intro"
        },
        {
          "t": 24500,
          "type": "note",
          "pitch": 63,
          "duration_ms": 460,
          "velocity": 85,
          "beat_index": 196,
          "section": "intro"
        },
        {
          "t": 25000,
          "type": "note",
          "pitch": 65,
          "duration_ms": 460,
          "velocity": 90,
          "beat_index": 200,
          "section": "intro"
        },
        {
          "t": 25500,
          "type": "note",
          "pitch": 67,
          "duration_ms": 460,
          "velocity": 95,
          "beat_index": 204,
          "section": "intro"
        },
        {
          "t": 26000,
          "type": "note",
          "pitch": 60,
          "duration_ms": 460,
          "velocity": 80,
          "beat_index": 208,
          "section": "intro"
        },
        {
          "t": 26500,
          "type": "note",
          "pitch": 63,
          "duration_ms": 460,
          "velocity": 85,
          "beat_index": 212,
          "section": "intro"
        },
        {
          "t": 27000,
          "type": "note",
          "pitch": 65,
          "duration_ms": 460,
          "velocity": 90,
          "beat_index": 216,
          "section": "intro"
        },
        {
          "t": 27500,
          "type": "note",
          "pitch": 67,
          "duration_ms": 460,
          "velocity": 95,
          "beat_index": 220,
          "section": "intro"
        },
        {
          "t": 28000,
          "type": "note",
          "pitch": 60,
          "duration_ms": 460,
          "velocity": 80,
          "beat_index": 224,
          "section": "intro"
        },
        {
          "t": 28500,
          "type": "note",
          "pitch": 63,
          "duration_ms": 460,
          "velocity": 85,
          "beat_index": 228,
          "section": "intro"
        },
        {
          "t": 29000,
          "type": "note",
          "pitch": 65,
          "duration_ms": 460,
          "velocity": 90,
          "beat_index": 232,
          "section": "intro"
        },
        {
          "t": 29500,
          "type": "note",
          "pitch": 67,
          "duration_ms": 460,
          "velocity": 95,
          "beat_index": 236,
          "section": "intro"
        },
        {
          "t": 30000,
          "type": "note",
          "pitch": 60,
          "duration_ms": 460,
          "velocity": 80,
          "beat_index": 240,
          "section": "intro"
        },
        {
          "t": 30500,
          "type": "note",
          "pitch": 63,
          "duration_ms": 460,
          "velocity": 85,
          "beat_index": 244,
          "section": "intro"
        },
        {
          "t": 31000,
          "type": "note",
          "pitch": 65,
          "duration_ms": 460,
          "velocity": 90,
          "beat_index": 248,
          "section": "intro"
        },
        {
          "t": 31500,
          "type": "note",
          "pitch": 67,
          "duration_ms": 460,
          "velocity": 95,
          "beat_index": 252,
          "section": "intro"
        },
        {
          "t": 32000,
          "type": "note",
          "pitch": 60,
          "duration_ms": 230,
          "velocity": 100,
          "beat_index": 256,
          "section": "verse"
        },
        {
          "t": 32250,
          "type": "note",
          "pitch": 60,
          "duration_ms": 230,
          "velocity": 90,
          "beat_index": 258,
          "section": "verse"
        },
        {
          "t": 32500,
          "type": "note",
          "pitch": 65,
          "duration_ms": 230,
          "velocity": 100,
          "beat_index": 260,
          "section": "verse"
        },
        {
          "t": 32750,
          "type": "note",
          "pitch": 60,
          "duration_ms": 230,
          "velocity": 90,
          "beat_index": 262,
          "section": "verse"
        },
        {
          "t": 33000,
          "type": "note",
          "pitch": 67,
          "duration_ms": 230,
          "velocity": 100,
          "beat_index": 264,
          "section": "verse"
        },
        {
          "t": 33250,
          "type": "note",
          "pitch": 65,
          "duration_ms": 230,
          "velocity": 90,
          "beat_index": 266,
          "section": "verse"
        },
        {
          "t": 33500,
          "type": "note",
          "pitch": 63,
          "duration_ms": 230,
          "velocity": 100,
          "beat_index": 268,
          "section": "verse"
        },
        {
          "t": 33750,
          "type": "note",
          "pitch": 62,
          "duration_ms": 230,
          "velocity": 90,
          "beat_index": 270,
          "section": "verse"
        },
        {
          "t": 34000,
          "type": "note",
          "pitch": 60,
          "duration_ms": 230,
          "velocity": 100,
          "beat_index": 272,
          "section": "verse"
        },
        {
          "t": 34250,
          "type": "note",
          "pitch": 60,
          "duration_ms": 230,
          "velocity": 90,
          "beat_index": 274,
          "section": "verse"
        },
        {
          "t": 34500,
          "type": "note",
          "pitch": 65,
          "duration_ms": 230,
          "velocity": 100,
          "beat_index": 276,
          "section": "verse"
        },
        {
          "t": 34750,
          "type": "note",
          "pitch": 60,
          "duration_ms": 230,
          "velocity": 90,
          "beat_index": 278,
          "section": "verse"
        },
        {
          "t": 35000,
          "type": "note",
          "pitch": 67,
          "duration_ms": 230,
          "velocity": 100,
          "beat_index": 280,
          "section": "verse"
        },
        {
          "t": 35250,
          "type": "note",
          "pitch": 65,
          "duration_ms": 230,
          "velocity": 90,
          "beat_index": 282,
          "section": "verse"
        },
        {
          "t": 35500,
          "type": "note",
          "pitch": 63,
          "duration_ms": 230,
          "velocity": 100,
          "beat_index": 284,
          "section": "verse"
        },
        {
          "t": 35750,
          "type": "note",
          "pitch": 62,
          "duration_ms": 230,
          "velocity": 90,
          "beat_index": 286,
          "section": "verse"
        },
        {
          "t": 36000,
          "type": "note",
          "pitch": 60,
          "duration_ms": 230,
          "velocity": 100,
          "beat_index": 288,
          "section": "verse"
        },
        {
          "t": 36250,
          "type": "note",
          "pitch": 60,
          "duration_ms": 230,
          "velocity": 90,
          "beat_index": 290,
          "section": "verse"
        },
        {
          "t": 36500,
          "type": "note",
          "pitch": 65,
          "duration_ms": 230,
          "velocity": 100,
          "beat_index": 292,
          "section": "verse"
        },
        {
          "t": 36750,
          "type": "note",
          "pitch": 60,
          "duration_ms": 230,
          "velocity": 90,
          "beat_index": 294,
          "section": "verse"
        },
        {
          "t": 37000,
          "type": "note",
          "pitch": 67,
          "duration_ms": 230,
          "velocity": 100,
          "beat_index": 296,
          "section": "verse"
        },
        {
          "t": 37250,
          "type": "note",
          "pitch": 65,
          "duration_ms": 230,
          "velocity": 90,
          "beat_index": 298,
          "section": "verse"
        },
        {
          "t": 37500,
          "type": "note",
          "pitch": 63,
          "duration_ms": 230,
          "velocity": 100,
          "beat_index": 300,
          "section": "verse"
        },
        {
          "t": 37750,
          "type": "note",
          "pitch": 62,
          "duration_ms": 230,
          "velocity": 90,
          "beat_index": 302,
          "section": "verse"
        },
        {
          "t": 38000,
          "type": "note",
          "pitch": 60,
          "duration_ms": 230,
          "velocity": 100,
          "beat_index": 304,
          "section": "verse"
        },
        {
          "t": 38250,
          "type": "note",
          "pitch": 60,
          "duration_ms": 230,
          "velocity": 90,
          "beat_index": 306,
          "section": "verse"
        },
        {
          "t": 38500,
          "type": "note",
          "pitch": 65,
          "duration_ms": 230,
          "velocity": 100,
          "beat_index": 308,
          "section": "verse"
        },
        {
          "t": 38750,
          "type": "note",
          "pitch": 60,
          "duration_ms": 230,
          "velocity": 90,
          "beat_index": 310,
          "section": "verse"
        },
        {
          "t": 39000,
          "type": "note",
          "pitch": 67,
          "duration_ms": 230,
          "velocity": 100,
          "beat_index": 312,
          "section": "verse"
        },
        {
          "t": 39250,
          "type": "note",
          "pitch": 65,
          "duration_ms": 230,
          "velocity": 90,
          "beat_index": 314,
          "section": "verse"
        },
        {
          "t": 39500,
          "type": "note",
          "pitch": 63,
          "duration_ms": 230,
          "velocity": 100,
          "beat_index": 316,
          "section": "verse"
        },
        {
          "t": 39750,
          "type": "note",
          "pitch": 62,
          "duration_ms": 230,
          "velocity": 90,
          "beat_index": 318,
          "section": "verse"
        },
        {
          "t": 40000,
          "type": "note",
          "pitch": 60,
          "duration_ms": 230,
          "velocity": 100,
          "beat_index": 320,
          "section": "verse"
        },
        {
          "t": 40250,
          "type": "note",
          "pitch": 60,
          "duration_ms": 230,
          "velocity": 90,
          "beat_index": 322,
          "section": "verse"
        },
        {
          "t": 40500,
          "type": "note",
          "pitch": 65,
          "duration_ms": 230,
          "velocity": 100,
          "beat_index": 324,
          "section": "verse"
        },
        {
          "t": 40750,
          "type": "note",
          "pitch": 60,
          "duration_ms": 230,
          "velocity": 90,
          "beat_index": 326,
          "section": "verse"
        },
        {
          "t": 41000,
          "type": "note",
          "pitch": 67,
          "duration_ms": 230,
          "velocity": 100,
          "beat_index": 328,
          "section": "verse"
        },
        {
          "t": 41250,
          "type": "note",
          "pitch": 65,
          "duration_ms": 230,
          "velocity": 90,
          "beat_index": 330,
          "section": "verse"
        },
        {
          "t": 41500,
          "type": "note",
          "pitch": 63,
          "duration_ms": 230,
          "velocity": 100,
          "beat_index": 332,
          "section": "verse"
        },
        {
          "t": 41750,
          "type": "note",
          "pitch": 62,
          "duration_ms": 230,
          "velocity": 90,
          "beat_index": 334,
          "section": "verse"
        },
        {
          "t": 42000,
          "type": "note",
          "pitch": 60,
          "duration_ms": 230,
          "velocity": 100,
          "beat_index": 336,
          "section": "verse"
        },
        {
          "t": 42250,
          "type": "note",
          "pitch": 60,
          "duration_ms": 230,
          "velocity": 90,
          "beat_index": 338,
          "section": "verse"
        },
        {
          "t": 42500,
          "type": "note",
          "pitch": 65,
          "duration_ms": 230,
          "velocity": 100,
          "beat_index": 340,
          "section": "verse"
        },
        {
          "t": 42750,
          "type": "note",
          "pitch": 60,
          "duration_ms": 230,
          "velocity": 90,
          "beat_index": 342,
          "section": "verse"
        },
        {
          "t": 43000,
          "type": "note",
          "pitch": 67,
          "duration_ms": 230,
          "velocity": 100,
          "beat_index": 344,
          "section": "verse"
        },
        {
          "t": 43250,
          "type": "note",
          "pitch": 65,
          "duration_ms": 230,
          "velocity": 90,
          "beat_index": 346,
          "section": "verse"
        },
        {
          "t": 43500,
          "type": "note",
          "pitch": 63,
          "duration_ms": 230,
          "velocity": 100,
          "beat_index": 348,
          "section": "verse"
        },
        {
          "t": 43750,
          "type": "note",
          "pitch": 62,
          "duration_ms": 230,
          "velocity": 90,
          "beat_index": 350,
          "section": "verse"
        },
        {
          "t": 44000,
          "type": "note",
          "pitch": 60,
          "duration_ms": 230,
          "velocity": 100,
          "beat_index": 352,
          "section": "verse"
        },
        {
          "t": 44250,
          "type": "note",
          "pitch": 60,
          "duration_ms": 230,
          "velocity": 90,
          "beat_index": 354,
          "section": "verse"
        },
        {
          "t": 44500,
          "type": "note",
          "pitch": 65,
          "duration_ms": 230,
          "velocity": 100,
          "beat_index": 356,
          "section": "verse"
        },
        {
          "t": 44750,
          "type": "note",
          "pitch": 60,
          "duration_ms": 230,
          "velocity": 90,
          "beat_index": 358,
          "section": "verse"
        },
        {
          "t": 45000,
          "type": "note",
          "pitch": 67,
          "duration_ms": 230,
          "velocity": 100,
          "beat_index": 360,
          "section": "verse"
        },
        {
          "t": 45250,
          "type": "note",
          "pitch": 65,
          "duration_ms": 230,
          "velocity": 90,
          "beat_index": 362,
          "section": "verse"
        },
        {
          "t": 45500,
          "type": "note",
          "pitch": 63,
          "duration_ms": 230,
          "velocity": 100,
          "beat_index": 364,
          "section": "verse"
        },
        {
          "t": 45750,
          "type": "note",
          "pitch": 62,
          "duration_ms": 230,
          "velocity": 90,
          "beat_index": 366,
          "section": "verse"
        },
        {
          "t": 46000,
          "type": "note",
          "pitch": 60,
          "duration_ms": 230,
          "velocity": 100,
          "beat_index": 368,
          "section": "verse"
        },
        {
          "t": 46250,
          "type": "note",
          "pitch": 60,
          "duration_ms": 230,
          "velocity": 90,
          "beat_index": 370,
          "section": "verse"
        },
        {
          "t": 46500,
          "type": "note",
          "pitch": 65,
          "duration_ms": 230,
          "velocity": 100,
          "beat_index": 372,
          "section": "verse"
        },
        {
          "t": 46750,
          "type": "note",
          "pitch": 60,
          "duration_ms": 230,
          "velocity": 90,
          "beat_index": 374,
          "section": "verse"
        },
        {
          "t": 47000,
          "type": "note",
          "pitch": 67,
          "duration_ms": 230,
          "velocity": 100,
          "beat_index": 376,
          "section": "verse"
        },
        {
          "t": 47250,
          "type": "note",
          "pitch": 65,
          "duration_ms": 230,
          "velocity": 90,
          "beat_index": 378,
          "section": "verse"
        },
        {
          "t": 47500,
          "type": "note",
          "pitch": 63,
          "duration_ms": 230,
          "velocity": 100,
          "beat_index": 380,
          "section": "verse"
        },
        {
          "t": 47750,
          "type": "note",
          "pitch": 62,
          "duration_ms": 230,
          "velocity": 90,
          "beat_index": 382,
          "section": "verse"
        },
        {
          "t": 48000,
          "type": "note",
          "pitch": 60,
          "duration_ms": 230,
          "velocity": 100,
          "beat_index": 384,
          "section": "verse"
        },
        {
          "t": 48250,
          "type": "note",
          "pitch": 60,
          "duration_ms": 230,
          "velocity": 90,
          "beat_index": 386,
          "section": "verse"
        },
        {
          "t": 48500,
          "type": "note",
          "pitch": 65,
          "duration_ms": 230,
          "velocity": 100,
          "beat_index": 388,
          "section": "verse"
        },
        {
          "t": 48750,
          "type": "note",
          "pitch": 60,
          "duration_ms": 230,
          "velocity": 90,
          "beat_index": 390,
          "section": "verse"
        },
        {
          "t": 49000,
          "type": "note",
          "pitch": 67,
          "duration_ms": 230,
          "velocity": 100,
          "beat_index": 392,
          "section": "verse"
        },
        {
          "t": 49250,
          "type": "note",
          "pitch": 65,
          "duration_ms": 230,
          "velocity": 90,
          "beat_index": 394,
          "section": "verse"
        },
        {
          "t": 49500,
          "type": "note",
          "pitch": 63,
          "duration_ms": 230,
          "velocity": 100,
          "beat_index": 396,
          "section": "verse"
        },
        {
          "t": 49750,
          "type": "note",
          "pitch": 62,
          "duration_ms": 230,
          "velocity": 90,
          "beat_index": 398,
          "section": "verse"
        },
        {
          "t": 50000,
          "type": "note",
          "pitch": 60,
          "duration_ms": 230,
          "velocity": 100,
          "beat_index": 400,
          "section": "verse"
        },
        {
          "t": 50250,
          "type": "note",
          "pitch": 60,
          "duration_ms": 230,
          "velocity": 90,
          "beat_index": 402,
          "section": "verse"
        },
        {
          "t": 50500,
          "type": "note",
          "pitch": 65,
          "duration_ms": 230,
          "velocity": 100,
          "beat_index": 404,
          "section": "verse"
        },
        {
          "t": 50750,
          "type": "note",
          "pitch": 60,
          "duration_ms": 230,
          "velocity": 90,
          "beat_index": 406,
          "section": "verse"
        },
        {
          "t": 51000,
          "type": "note",
          "pitch": 67,
          "duration_ms": 230,
          "velocity": 100,
          "beat_index": 408,
          "section": "verse"
        },
        {
          "t": 51250,
          "type": "note",
          "pitch": 65,
          "duration_ms": 230,
          "velocity": 90,
          "beat_index": 410,
          "section": "verse"
        },
        {
          "t": 51500,
          "type": "note",
          "pitch": 63,
          "duration_ms": 230,
          "velocity": 100,
          "beat_index": 412,
          "section": "verse"
        },
        {
          "t": 51750,
          "type": "note",
          "pitch": 62,
          "duration_ms": 230,
          "velocity": 90,
          "beat_index": 414,
          "section": "verse"
        },
        {
          "t": 52000,
          "type": "note",
          "pitch": 60,
          "duration_ms": 230,
          "velocity": 100,
          "beat_index": 416,
          "section": "verse"
        },
        {
          "t": 52250,
          "type": "note",
          "pitch": 60,
          "duration_ms": 230,
          "velocity": 90,
          "beat_index": 418,
          "section": "verse"
        },
        {
          "t": 52500,
          "type": "note",
          "pitch": 65,
          "duration_ms": 230,
          "velocity": 100,
          "beat_index": 420,
          "section": "verse"
        },
        {
          "t": 52750,
          "type": "note",
          "pitch": 60,
          "duration_ms": 230,
          "velocity": 90,
          "beat_index": 422,
          "section": "verse"
        },
        {
          "t": 53000,
          "type": "note",
          "pitch": 67,
          "duration_ms": 230,
          "velocity": 100,
          "beat_index": 424,
          "section": "verse"
        },
        {
          "t": 53250,
          "type": "note",
          "pitch": 65,
          "duration_ms": 230,
          "velocity": 90,
          "beat_index": 426,
          "section": "verse"
        },
        {
          "t": 53500,
          "type": "note",
          "pitch": 63,
          "duration_ms": 230,
          "velocity": 100,
          "beat_index": 428,
          "section": "verse"
        },
        {
          "t": 53750,
          "type": "note",
          "pitch": 62,
          "duration_ms": 230,
          "velocity": 90,
          "beat_index": 430,
          "section": "verse"
        },
        {
          "t": 54000,
          "type": "note",
          "pitch": 60,
          "duration_ms": 230,
          "velocity": 100,
          "beat_index": 432,
          "section": "verse"
        },
        {
          "t": 54250,
          "type": "note",
          "pitch": 60,
          "duration_ms": 230,
          "velocity": 90,
          "beat_index": 434,
          "section": "verse"
        },
        {
          "t": 54500,
          "type": "note",
          "pitch": 65,
          "duration_ms": 230,
          "velocity": 100,
          "beat_index": 436,
          "section": "verse"
        },
        {
          "t": 54750,
          "type": "note",
          "pitch": 60,
          "duration_ms": 230,
          "velocity": 90,
          "beat_index": 438,
          "section": "verse"
        },
        {
          "t": 55000,
          "type": "note",
          "pitch": 67,
          "duration_ms": 230,
          "velocity": 100,
          "beat_index": 440,
          "section": "verse"
        },
        {
          "t": 55250,
          "type": "note",
          "pitch": 65,
          "duration_ms": 230,
          "velocity": 90,
          "beat_index": 442,
          "section": "verse"
        },
        {
          "t": 55500,
          "type": "note",
          "pitch": 63,
          "duration_ms": 230,
          "velocity": 100,
          "beat_index": 444,
          "section": "verse"
        },
        {
          "t": 55750,
          "type": "note",
          "pitch": 62,
          "duration_ms": 230,
          "velocity": 90,
          "beat_index": 446,
          "section": "verse"
        },
        {
          "t": 56000,
          "type": "note",
          "pitch": 60,
          "duration_ms": 230,
          "velocity": 100,
          "beat_index": 448,
          "section": "verse"
        },
        {
          "t": 56250,
          "type": "note",
          "pitch": 60,
          "duration_ms": 230,
          "velocity": 90,
          "beat_index": 450,
          "section": "verse"
        },
        {
          "t": 56500,
          "type": "note",
          "pitch": 65,
          "duration_ms": 230,
          "velocity": 100,
          "beat_index": 452,
          "section": "verse"
        },
        {
          "t": 56750,
          "type": "note",
          "pitch": 60,
          "duration_ms": 230,
          "velocity": 90,
          "beat_index": 454,
          "section": "verse"
        },
        {
          "t": 57000,
          "type": "note",
          "pitch": 67,
          "duration_ms": 230,
          "velocity": 100,
          "beat_index": 456,
          "section": "verse"
        },
        {
          "t": 57250,
          "type": "note",
          "pitch": 65,
          "duration_ms": 230,
          "velocity": 90,
          "beat_index": 458,
          "section": "verse"
        },
        {
          "t": 57500,
          "type": "note",
          "pitch": 63,
          "duration_ms": 230,
          "velocity": 100,
          "beat_index": 460,
          "section": "verse"
        },
        {
          "t": 57750,
          "type": "note",
          "pitch": 62,
          "duration_ms": 230,
          "velocity": 90,
          "beat_index": 462,
          "section": "verse"
        },
        {
          "t": 58000,
          "type": "note",
          "pitch": 60,
          "duration_ms": 230,
          "velocity": 100,
          "beat_index": 464,
          "section": "verse"
        },
        {
          "t": 58250,
          "type": "note",
          "pitch": 60,
          "duration_ms": 230,
          "velocity": 90,
          "beat_index": 466,
          "section": "verse"
        },
        {
          "t": 58500,
          "type": "note",
          "pitch": 65,
          "duration_ms": 230,
          "velocity": 100,
          "beat_index": 468,
          "section": "verse"
        },
        {
          "t": 58750,
          "type": "note",
          "pitch": 60,
          "duration_ms": 230,
          "velocity": 90,
          "beat_index": 470,
          "section": "verse"
        },
        {
          "t": 59000,
          "type": "note",
          "pitch": 67,
          "duration_ms": 230,
          "velocity": 100,
          "beat_index": 472,
          "section": "verse"
        },
        {
          "t": 59250,
          "type": "note",
          "pitch": 65,
          "duration_ms": 230,
          "velocity": 90,
          "beat_index": 474,
          "section": "verse"
        },
        {
          "t": 59500,
          "type": "note",
          "pitch": 63,
          "duration_ms": 230,
          "velocity": 100,
          "beat_index": 476,
          "section": "verse"
        },
        {
          "t": 59750,
          "type": "note",
          "pitch": 62,
          "duration_ms": 230,
          "velocity": 90,
          "beat_index": 478,
          "section": "verse"
        },
        {
          "t": 60000,
          "type": "note",
          "pitch": 60,
          "duration_ms": 230,
          "velocity": 100,
          "beat_index": 480,
          "section": "verse"
        },
        {
          "t": 60250,
          "type": "note",
          "pitch": 60,
          "duration_ms": 230,
          "velocity": 90,
          "beat_index": 482,
          "section": "verse"
        },
        {
          "t": 60500,
          "type": "note",
          "pitch": 65,
          "duration_ms": 230,
          "velocity": 100,
          "beat_index": 484,
          "section": "verse"
        },
        {
          "t": 60750,
          "type": "note",
          "pitch": 60,
          "duration_ms": 230,
          "velocity": 90,
          "beat_index": 486,
          "section": "verse"
        },
        {
          "t": 61000,
          "type": "note",
          "pitch": 67,
          "duration_ms": 230,
          "velocity": 100,
          "beat_index": 488,
          "section": "verse"
        },
        {
          "t": 61250,
          "type": "note",
          "pitch": 65,
          "duration_ms": 230,
          "velocity": 90,
          "beat_index": 490,
          "section": "verse"
        },
        {
          "t": 61500,
          "type": "note",
          "pitch": 63,
          "duration_ms": 230,
          "velocity": 100,
          "beat_index": 492,
          "section": "verse"
        },
        {
          "t": 61750,
          "type": "note",
          "pitch": 62,
          "duration_ms": 230,
          "velocity": 90,
          "beat_index": 494,
          "section": "verse"
        },
        {
          "t": 62000,
          "type": "note",
          "pitch": 60,
          "duration_ms": 230,
          "velocity": 100,
          "beat_index": 496,
          "section": "verse"
        },
        {
          "t": 62250,
          "type": "note",
          "pitch": 60,
          "duration_ms": 230,
          "velocity": 90,
          "beat_index": 498,
          "section": "verse"
        },
        {
          "t": 62500,
          "type": "note",
          "pitch": 65,
          "duration_ms": 230,
          "velocity": 100,
          "beat_index": 500,
          "section": "verse"
        },
        {
          "t": 62750,
          "type": "note",
          "pitch": 60,
          "duration_ms": 230,
          "velocity": 90,
          "beat_index": 502,
          "section": "verse"
        },
        {
          "t": 63000,
          "type": "note",
          "pitch": 67,
          "duration_ms": 230,
          "velocity": 100,
          "beat_index": 504,
          "section": "verse"
        },
        {
          "t": 63250,
          "type": "note",
          "pitch": 65,
          "duration_ms": 230,
          "velocity": 90,
          "beat_index": 506,
          "section": "verse"
        },
        {
          "t": 63500,
          "type": "note",
          "pitch": 63,
          "duration_ms": 230,
          "velocity": 100,
          "beat_index": 508,
          "section": "verse"
        },
        {
          "t": 63750,
          "type": "note",
          "pitch": 62,
          "duration_ms": 230,
          "velocity": 90,
          "beat_index": 510,
          "section": "verse"
        },
        {
          "t": 64000,
          "type": "note",
          "pitch": 60,
          "duration_ms": 230,
          "velocity": 100,
          "beat_index": 512,
          "section": "verse"
        },
        {
          "t": 64250,
          "type": "note",
          "pitch": 60,
          "duration_ms": 230,
          "velocity": 90,
          "beat_index": 514,
          "section": "verse"
        },
        {
          "t": 64500,
          "type": "note",
          "pitch": 65,
          "duration_ms": 230,
          "velocity": 100,
          "beat_index": 516,
          "section": "verse"
        },
        {
          "t": 64750,
          "type": "note",
          "pitch": 60,
          "duration_ms": 230,
          "velocity": 90,
          "beat_index": 518,
          "section": "verse"
        },
        {
          "t": 65000,
          "type": "note",
          "pitch": 67,
          "duration_ms": 230,
          "velocity": 100,
          "beat_index": 520,
          "section": "verse"
        },
        {
          "t": 65250,
          "type": "note",
          "pitch": 65,
          "duration_ms": 230,
          "velocity": 90,
          "beat_index": 522,
          "section": "verse"
        },
        {
          "t": 65500,
          "type": "note",
          "pitch": 63,
          "duration_ms": 230,
          "velocity": 100,
          "beat_index": 524,
          "section": "verse"
        },
        {
          "t": 65750,
          "type": "note",
          "pitch": 62,
          "duration_ms": 230,
          "velocity": 90,
          "beat_index": 526,
          "section": "verse"
        },
        {
          "t": 66000,
          "type": "note",
          "pitch": 60,
          "duration_ms": 230,
          "velocity": 100,
          "beat_index": 528,
          "section": "verse"
        },
        {
          "t": 66250,
          "type": "note",
          "pitch": 60,
          "duration_ms": 230,
          "velocity": 90,
          "beat_index": 530,
          "section": "verse"
        },
        {
          "t": 66500,
          "type": "note",
          "pitch": 65,
          "duration_ms": 230,
          "velocity": 100,
          "beat_index": 532,
          "section": "verse"
        },
        {
          "t": 66750,
          "type": "note",
          "pitch": 60,
          "duration_ms": 230,
          "velocity": 90,
          "beat_index": 534,
          "section": "verse"
        },
        {
          "t": 67000,
          "type": "note",
          "pitch": 67,
          "duration_ms": 230,
          "velocity": 100,
          "beat_index": 536,
          "section": "verse"
        },
        {
          "t": 67250,
          "type": "note",
          "pitch": 65,
          "duration_ms": 230,
          "velocity": 90,
          "beat_index": 538,
          "section": "verse"
        },
        {
          "t": 67500,
          "type": "note",
          "pitch": 63,
          "duration_ms": 230,
          "velocity": 100,
          "beat_index": 540,
          "section": "verse"
        },
        {
          "t": 67750,
          "type": "note",
          "pitch": 62,
          "duration_ms": 230,
          "velocity": 90,
          "beat_index": 542,
          "section": "verse"
        },
        {
          "t": 68000,
          "type": "note",
          "pitch": 60,
          "duration_ms": 230,
          "velocity": 100,
          "beat_index": 544,
          "section": "verse"
        },
        {
          "t": 68250,
          "type": "note",
          "pitch": 60,
          "duration_ms": 230,
          "velocity": 90,
          "beat_index": 546,
          "section": "verse"
        },
        {
          "t": 68500,
          "type": "note",
          "pitch": 65,
          "duration_ms": 230,
          "velocity": 100,
          "beat_index": 548,
          "section": "verse"
        },
        {
          "t": 68750,
          "type": "note",
          "pitch": 60,
          "duration_ms": 230,
          "velocity": 90,
          "beat_index": 550,
          "section": "verse"
        },
        {
          "t": 69000,
          "type": "note",
          "pitch": 67,
          "duration_ms": 230,
          "velocity": 100,
          "beat_index": 552,
          "section": "verse"
        },
        {
          "t": 69250,
          "type": "note",
          "pitch": 65,
          "duration_ms": 230,
          "velocity": 90,
          "beat_index": 554,
          "section": "verse"
        },
        {
          "t": 69500,
          "type": "note",
          "pitch": 63,
          "duration_ms": 230,
          "velocity": 100,
          "beat_index": 556,
          "section": "verse"
        },
        {
          "t": 69750,
          "type": "note",
          "pitch": 62,
          "duration_ms": 230,
          "velocity": 90,
          "beat_index": 558,
          "section": "verse"
        },
        {
          "t": 70000,
          "type": "note",
          "pitch": 60,
          "duration_ms": 230,
          "velocity": 100,
          "beat_index": 560,
          "section": "verse"
        },
        {
          "t": 70250,
          "type": "note",
          "pitch": 60,
          "duration_ms": 230,
          "velocity": 90,
          "beat_index": 562,
          "section": "verse"
        },
        {
          "t": 70500,
          "type": "note",
          "pitch": 65,
          "duration_ms": 230,
          "velocity": 100,
          "beat_index": 564,
          "section": "verse"
        },
        {
          "t": 70750,
          "type": "note",
          "pitch": 60,
          "duration_ms": 230,
          "velocity": 90,
          "beat_index": 566,
          "section": "verse"
        },
        {
          "t": 71000,
          "type": "note",
          "pitch": 67,
          "duration_ms": 230,
          "velocity": 100,
          "beat_index": 568,
          "section": "verse"
        },
        {
          "t": 71250,
          "type": "note",
          "pitch": 65,
          "duration_ms": 230,
          "velocity": 90,
          "beat_index": 570,
          "section": "verse"
        },
        {
          "t": 71500,
          "type": "note",
          "pitch": 63,
          "duration_ms": 230,
          "velocity": 100,
          "beat_index": 572,
          "section": "verse"
        },
        {
          "t": 71750,
          "type": "note",
          "pitch": 62,
          "duration_ms": 230,
          "velocity": 90,
          "beat_index": 574,
          "section": "verse"
        },
        {
          "t": 72000,
          "type": "note",
          "pitch": 60,
          "duration_ms": 230,
          "velocity": 100,
          "beat_index": 576,
          "section": "verse"
        },
        {
          "t": 72250,
          "type": "note",
          "pitch": 60,
          "duration_ms": 230,
          "velocity": 90,
          "beat_index": 578,
          "section": "verse"
        },
        {
          "t": 72500,
          "type": "note",
          "pitch": 65,
          "duration_ms": 230,
          "velocity": 100,
          "beat_index": 580,
          "section": "verse"
        },
        {
          "t": 72750,
          "type": "note",
          "pitch": 60,
          "duration_ms": 230,
          "velocity": 90,
          "beat_index": 582,
          "section": "verse"
        },
        {
          "t": 73000,
          "type": "note",
          "pitch": 67,
          "duration_ms": 230,
          "velocity": 100,
          "beat_index": 584,
          "section": "verse"
        },
        {
          "t": 73250,
          "type": "note",
          "pitch": 65,
          "duration_ms": 230,
          "velocity": 90,
          "beat_index": 586,
          "section": "verse"
        },
        {
          "t": 73500,
          "type": "note",
          "pitch": 63,
          "duration_ms": 230,
          "velocity": 100,
          "beat_index": 588,
          "section": "verse"
        },
        {
          "t": 73750,
          "type": "note",
          "pitch": 62,
          "duration_ms": 230,
          "velocity": 90,
          "beat_index": 590,
          "section": "verse"
        },
        {
          "t": 74000,
          "type": "note",
          "pitch": 60,
          "duration_ms": 230,
          "velocity": 100,
          "beat_index": 592,
          "section": "verse"
        },
        {
          "t": 74250,
          "type": "note",
          "pitch": 60,
          "duration_ms": 230,
          "velocity": 90,
          "beat_index": 594,
          "section": "verse"
        },
        {
          "t": 74500,
          "type": "note",
          "pitch": 65,
          "duration_ms": 230,
          "velocity": 100,
          "beat_index": 596,
          "section": "verse"
        },
        {
          "t": 74750,
          "type": "note",
          "pitch": 60,
          "duration_ms": 230,
          "velocity": 90,
          "beat_index": 598,
          "section": "verse"
        },
        {
          "t": 75000,
          "type": "note",
          "pitch": 67,
          "duration_ms": 230,
          "velocity": 100,
          "beat_index": 600,
          "section": "verse"
        },
        {
          "t": 75250,
          "type": "note",
          "pitch": 65,
          "duration_ms": 230,
          "velocity": 90,
          "beat_index": 602,
          "section": "verse"
        },
        {
          "t": 75500,
          "type": "note",
          "pitch": 63,
          "duration_ms": 230,
          "velocity": 100,
          "beat_index": 604,
          "section": "verse"
        },
        {
          "t": 75750,
          "type": "note",
          "pitch": 62,
          "duration_ms": 230,
          "velocity": 90,
          "beat_index": 606,
          "section": "verse"
        },
        {
          "t": 76000,
          "type": "note",
          "pitch": 60,
          "duration_ms": 230,
          "velocity": 100,
          "beat_index": 608,
          "section": "verse"
        },
        {
          "t": 76250,
          "type": "note",
          "pitch": 60,
          "duration_ms": 230,
          "velocity": 90,
          "beat_index": 610,
          "section": "verse"
        },
        {
          "t": 76500,
          "type": "note",
          "pitch": 65,
          "duration_ms": 230,
          "velocity": 100,
          "beat_index": 612,
          "section": "verse"
        },
        {
          "t": 76750,
          "type": "note",
          "pitch": 60,
          "duration_ms": 230,
          "velocity": 90,
          "beat_index": 614,
          "section": "verse"
        },
        {
          "t": 77000,
          "type": "note",
          "pitch": 67,
          "duration_ms": 230,
          "velocity": 100,
          "beat_index": 616,
          "section": "verse"
        },
        {
          "t": 77250,
          "type": "note",
          "pitch": 65,
          "duration_ms": 230,
          "velocity": 90,
          "beat_index": 618,
          "section": "verse"
        },
        {
          "t": 77500,
          "type": "note",
          "pitch": 63,
          "duration_ms": 230,
          "velocity": 100,
          "beat_index": 620,
          "section": "verse"
        },
        {
          "t": 77750,
          "type": "note",
          "pitch": 62,
          "duration_ms": 230,
          "velocity": 90,
          "beat_index": 622,
          "section": "verse"
        },
        {
          "t": 78000,
          "type": "note",
          "pitch": 60,
          "duration_ms": 230,
          "velocity": 100,
          "beat_index": 624,
          "section": "verse"
        },
        {
          "t": 78250,
          "type": "note",
          "pitch": 60,
          "duration_ms": 230,
          "velocity": 90,
          "beat_index": 626,
          "section": "verse"
        },
        {
          "t": 78500,
          "type": "note",
          "pitch": 65,
          "duration_ms": 230,
          "velocity": 100,
          "beat_index": 628,
          "section": "verse"
        },
        {
          "t": 78750,
          "type": "note",
          "pitch": 60,
          "duration_ms": 230,
          "velocity": 90,
          "beat_index": 630,
          "section": "verse"
        },
        {
          "t": 79000,
          "type": "note",
          "pitch": 67,
          "duration_ms": 230,
          "velocity": 100,
          "beat_index": 632,
          "section": "verse"
        },
        {
          "t": 79250,
          "type": "note",
          "pitch": 65,
          "duration_ms": 230,
          "velocity": 90,
          "beat_index": 634,
          "section": "verse"
        },
        {
          "t": 79500,
          "type": "note",
          "pitch": 63,
          "duration_ms": 230,
          "velocity": 100,
          "beat_index": 636,
          "section": "verse"
        },
        {
          "t": 79750,
          "type": "note",
          "pitch": 62,
          "duration_ms": 230,
          "velocity": 90,
          "beat_index": 638,
          "section": "verse"
        },
        {
          "t": 80000,
          "type": "note",
          "pitch": 60,
          "duration_ms": 230,
          "velocity": 100,
          "beat_index": 640,
          "section": "verse"
        },
        {
          "t": 80250,
          "type": "note",
          "pitch": 60,
          "duration_ms": 230,
          "velocity": 90,
          "beat_index": 642,
          "section": "verse"
        },
        {
          "t": 80500,
          "type": "note",
          "pitch": 65,
          "duration_ms": 230,
          "velocity": 100,
          "beat_index": 644,
          "section": "verse"
        },
        {
          "t": 80750,
          "type": "note",
          "pitch": 60,
          "duration_ms": 230,
          "velocity": 90,
          "beat_index": 646,
          "section": "verse"
        },
        {
          "t": 81000,
          "type": "note",
          "pitch": 67,
          "duration_ms": 230,
          "velocity": 100,
          "beat_index": 648,
          "section": "verse"
        },
        {
          "t": 81250,
          "type": "note",
          "pitch": 65,
          "duration_ms": 230,
          "velocity": 90,
          "beat_index": 650,
          "section": "verse"
        },
        {
          "t": 81500,
          "type": "note",
          "pitch": 63,
          "duration_ms": 230,
          "velocity": 100,
          "beat_index": 652,
          "section": "verse"
        },
        {
          "t": 81750,
          "type": "note",
          "pitch": 62,
          "duration_ms": 230,
          "velocity": 90,
          "beat_index": 654,
          "section": "verse"
        },
        {
          "t": 82000,
          "type": "note",
          "pitch": 60,
          "duration_ms": 230,
          "velocity": 100,
          "beat_index": 656,
          "section": "verse"
        },
        {
          "t": 82250,
          "type": "note",
          "pitch": 60,
          "duration_ms": 230,
          "velocity": 90,
          "beat_index": 658,
          "section": "verse"
        },
        {
          "t": 82500,
          "type": "note",
          "pitch": 65,
          "duration_ms": 230,
          "velocity": 100,
          "beat_index": 660,
          "section": "verse"
        },
        {
          "t": 82750,
          "type": "note",
          "pitch": 60,
          "duration_ms": 230,
          "velocity": 90,
          "beat_index": 662,
          "section": "verse"
        },
        {
          "t": 83000,
          "type": "note",
          "pitch": 67,
          "duration_ms": 230,
          "velocity": 100,
          "beat_index": 664,
          "section": "verse"
        },
        {
          "t": 83250,
          "type": "note",
          "pitch": 65,
          "duration_ms": 230,
          "velocity": 90,
          "beat_index": 666,
          "section": "verse"
        },
        {
          "t": 83500,
          "type": "note",
          "pitch": 63,
          "duration_ms": 230,
          "velocity": 100,
          "beat_index": 668,
          "section": "verse"
        },
        {
          "t": 83750,
          "type": "note",
          "pitch": 62,
          "duration_ms": 230,
          "velocity": 90,
          "beat_index": 670,
          "section": "verse"
        },
        {
          "t": 84000,
          "type": "note",
          "pitch": 60,
          "duration_ms": 230,
          "velocity": 100,
          "beat_index": 672,
          "section": "verse"
        },
        {
          "t": 84250,
          "type": "note",
          "pitch": 60,
          "duration_ms": 230,
          "velocity": 90,
          "beat_index": 674,
          "section": "verse"
        },
        {
          "t": 84500,
          "type": "note",
          "pitch": 65,
          "duration_ms": 230,
          "velocity": 100,
          "beat_index": 676,
          "section": "verse"
        },
        {
          "t": 84750,
          "type": "note",
          "pitch": 60,
          "duration_ms": 230,
          "velocity": 90,
          "beat_index": 678,
          "section": "verse"
        },
        {
          "t": 85000,
          "type": "note",
          "pitch": 67,
          "duration_ms": 230,
          "velocity": 100,
          "beat_index": 680,
          "section": "verse"
        },
        {
          "t": 85250,
          "type": "note",
          "pitch": 65,
          "duration_ms": 230,
          "velocity": 90,
          "beat_index": 682,
          "section": "verse"
        },
        {
          "t": 85500,
          "type": "note",
          "pitch": 63,
          "duration_ms": 230,
          "velocity": 100,
          "beat_index": 684,
          "section": "verse"
        },
        {
          "t": 85750,
          "type": "note",
          "pitch": 62,
          "duration_ms": 230,
          "velocity": 90,
          "beat_index": 686,
          "section": "verse"
        },
        {
          "t": 86000,
          "type": "note",
          "pitch": 60,
          "duration_ms": 230,
          "velocity": 100,
          "beat_index": 688,
          "section": "verse"
        },
        {
          "t": 86250,
          "type": "note",
          "pitch": 60,
          "duration_ms": 230,
          "velocity": 90,
          "beat_index": 690,
          "section": "verse"
        },
        {
          "t": 86500,
          "type": "note",
          "pitch": 65,
          "duration_ms": 230,
          "velocity": 100,
          "beat_index": 692,
          "section": "verse"
        },
        {
          "t": 86750,
          "type": "note",
          "pitch": 60,
          "duration_ms": 230,
          "velocity": 90,
          "beat_index": 694,
          "section": "verse"
        },
        {
          "t": 87000,
          "type": "note",
          "pitch": 67,
          "duration_ms": 230,
          "velocity": 100,
          "beat_index": 696,
          "section": "verse"
        },
        {
          "t": 87250,
          "type": "note",
          "pitch": 65,
          "duration_ms": 230,
          "velocity": 90,
          "beat_index": 698,
          "section": "verse"
        },
        {
          "t": 87500,
          "type": "note",
          "pitch": 63,
          "duration_ms": 230,
          "velocity": 100,
          "beat_index": 700,
          "section": "verse"
        },
        {
          "t": 87750,
          "type": "note",
          "pitch": 62,
          "duration_ms": 230,
          "velocity": 90,
          "beat_index": 702,
          "section": "verse"
        },
        {
          "t": 88000,
          "type": "note",
          "pitch": 60,
          "duration_ms": 230,
          "velocity": 100,
          "beat_index": 704,
          "section": "verse"
        },
        {
          "t": 88250,
          "type": "note",
          "pitch": 60,
          "duration_ms": 230,
          "velocity": 90,
          "beat_index": 706,
          "section": "verse"
        },
        {
          "t": 88500,
          "type": "note",
          "pitch": 65,
          "duration_ms": 230,
          "velocity": 100,
          "beat_index": 708,
          "section": "verse"
        },
        {
          "t": 88750,
          "type": "note",
          "pitch": 60,
          "duration_ms": 230,
          "velocity": 90,
          "beat_index": 710,
          "section": "verse"
        },
        {
          "t": 89000,
          "type": "note",
          "pitch": 67,
          "duration_ms": 230,
          "velocity": 100,
          "beat_index": 712,
          "section": "verse"
        },
        {
          "t": 89250,
          "type": "note",
          "pitch": 65,
          "duration_ms": 230,
          "velocity": 90,
          "beat_index": 714,
          "section": "verse"
        },
        {
          "t": 89500,
          "type": "note",
          "pitch": 63,
          "duration_ms": 230,
          "velocity": 100,
          "beat_index": 716,
          "section": "verse"
        },
        {
          "t": 89750,
          "type": "note",
          "pitch": 62,
          "duration_ms": 230,
          "velocity": 90,
          "beat_index": 718,
          "section": "verse"
        },
        {
          "t": 90000,
          "type": "note",
          "pitch": 60,
          "duration_ms": 230,
          "velocity": 100,
          "beat_index": 720,
          "section": "verse"
        },
        {
          "t": 90250,
          "type": "note",
          "pitch": 60,
          "duration_ms": 230,
          "velocity": 90,
          "beat_index": 722,
          "section": "verse"
        },
        {
          "t": 90500,
          "type": "note",
          "pitch": 65,
          "duration_ms": 230,
          "velocity": 100,
          "beat_index": 724,
          "section": "verse"
        },
        {
          "t": 90750,
          "type": "note",
          "pitch": 60,
          "duration_ms": 230,
          "velocity": 90,
          "beat_index": 726,
          "section": "verse"
        },
        {
          "t": 91000,
          "type": "note",
          "pitch": 67,
          "duration_ms": 230,
          "velocity": 100,
          "beat_index": 728,
          "section": "verse"
        },
        {
          "t": 91250,
          "type": "note",
          "pitch": 65,
          "duration_ms": 230,
          "velocity": 90,
          "beat_index": 730,
          "section": "verse"
        },
        {
          "t": 91500,
          "type": "note",
          "pitch": 63,
          "duration_ms": 230,
          "velocity": 100,
          "beat_index": 732,
          "section": "verse"
        },
        {
          "t": 91750,
          "type": "note",
          "pitch": 62,
          "duration_ms": 230,
          "velocity": 90,
          "beat_index": 734,
          "section": "verse"
        },
        {
          "t": 92000,
          "type": "note",
          "pitch": 60,
          "duration_ms": 230,
          "velocity": 100,
          "beat_index": 736,
          "section": "verse"
        },
        {
          "t": 92250,
          "type": "note",
          "pitch": 60,
          "duration_ms": 230,
          "velocity": 90,
          "beat_index": 738,
          "section": "verse"
        },
        {
          "t": 92500,
          "type": "note",
          "pitch": 65,
          "duration_ms": 230,
          "velocity": 100,
          "beat_index": 740,
          "section": "verse"
        },
        {
          "t": 92750,
          "type": "note",
          "pitch": 60,
          "duration_ms": 230,
          "velocity": 90,
          "beat_index": 742,
          "section": "verse"
        },
        {
          "t": 93000,
          "type": "note",
          "pitch": 67,
          "duration_ms": 230,
          "velocity": 100,
          "beat_index": 744,
          "section": "verse"
        },
        {
          "t": 93250,
          "type": "note",
          "pitch": 65,
          "duration_ms": 230,
          "velocity": 90,
          "beat_index": 746,
          "section": "verse"
        },
        {
          "t": 93500,
          "type": "note",
          "pitch": 63,
          "duration_ms": 230,
          "velocity": 100,
          "beat_index": 748,
          "section": "verse"
        },
        {
          "t": 93750,
          "type": "note",
          "pitch": 62,
          "duration_ms": 230,
          "velocity": 90,
          "beat_index": 750,
          "section": "verse"
        },
        {
          "t": 94000,
          "type": "note",
          "pitch": 60,
          "duration_ms": 230,
          "velocity": 100,
          "beat_index": 752,
          "section": "verse"
        },
        {
          "t": 94250,
          "type": "note",
          "pitch": 60,
          "duration_ms": 230,
          "velocity": 90,
          "beat_index": 754,
          "section": "verse"
        },
        {
          "t": 94500,
          "type": "note",
          "pitch": 65,
          "duration_ms": 230,
          "velocity": 100,
          "beat_index": 756,
          "section": "verse"
        },
        {
          "t": 94750,
          "type": "note",
          "pitch": 60,
          "duration_ms": 230,
          "velocity": 90,
          "beat_index": 758,
          "section": "verse"
        },
        {
          "t": 95000,
          "type": "note",
          "pitch": 67,
          "duration_ms": 230,
          "velocity": 100,
          "beat_index": 760,
          "section": "verse"
        },
        {
          "t": 95250,
          "type": "note",
          "pitch": 65,
          "duration_ms": 230,
          "velocity": 90,
          "beat_index": 762,
          "section": "verse"
        },
        {
          "t": 95500,
          "type": "note",
          "pitch": 63,
          "duration_ms": 230,
          "velocity": 100,
          "beat_index": 764,
          "section": "verse"
        },
        {
          "t": 95750,
          "type": "note",
          "pitch": 62,
          "duration_ms": 230,
          "velocity": 90,
          "beat_index": 766,
          "section": "verse"
        },
        {
          "t": 96000,
          "type": "note",
          "pitch": 60,
          "duration_ms": 115,
          "velocity": 120,
          "beat_index": 768,
          "section": "chorus"
        },
        {
          "t": 96125,
          "type": "note",
          "pitch": 72,
          "duration_ms": 115,
          "velocity": 127,
          "beat_index": 769,
          "section": "chorus"
        },
        {
          "t": 96250,
          "type": "note",
          "pitch": 65,
          "duration_ms": 115,
          "velocity": 120,
          "beat_index": 770,
          "section": "chorus"
        },
        {
          "t": 96375,
          "type": "note",
          "pitch": 60,
          "duration_ms": 115,
          "velocity": 127,
          "beat_index": 771,
          "section": "chorus"
        },
        {
          "t": 96500,
          "type": "note",
          "pitch": 67,
          "duration_ms": 115,
          "velocity": 120,
          "beat_index": 772,
          "section": "chorus"
        },
        {
          "t": 96625,
          "type": "note",
          "pitch": 60,
          "duration_ms": 115,
          "velocity": 127,
          "beat_index": 773,
          "section": "chorus"
        },
        {
          "t": 96750,
          "type": "note",
          "pitch": 68,
          "duration_ms": 115,
          "velocity": 120,
          "beat_index": 774,
          "section": "chorus"
        },
        {
          "t": 96875,
          "type": "note",
          "pitch": 67,
          "duration_ms": 115,
          "velocity": 127,
          "beat_index": 775,
          "section": "chorus"
        },
        {
          "t": 97000,
          "type": "note",
          "pitch": 60,
          "duration_ms": 115,
          "velocity": 120,
          "beat_index": 776,
          "section": "chorus"
        },
        {
          "t": 97125,
          "type": "note",
          "pitch": 72,
          "duration_ms": 115,
          "velocity": 127,
          "beat_index": 777,
          "section": "chorus"
        },
        {
          "t": 97250,
          "type": "note",
          "pitch": 65,
          "duration_ms": 115,
          "velocity": 120,
          "beat_index": 778,
          "section": "chorus"
        },
        {
          "t": 97375,
          "type": "note",
          "pitch": 60,
          "duration_ms": 115,
          "velocity": 127,
          "beat_index": 779,
          "section": "chorus"
        },
        {
          "t": 97500,
          "type": "note",
          "pitch": 67,
          "duration_ms": 115,
          "velocity": 120,
          "beat_index": 780,
          "section": "chorus"
        },
        {
          "t": 97625,
          "type": "note",
          "pitch": 68,
          "duration_ms": 115,
          "velocity": 127,
          "beat_index": 781,
          "section": "chorus"
        },
        {
          "t": 97750,
          "type": "note",
          "pitch": 70,
          "duration_ms": 115,
          "velocity": 120,
          "beat_index": 782,
          "section": "chorus"
        },
        {
          "t": 97875,
          "type": "note",
          "pitch": 72,
          "duration_ms": 115,
          "velocity": 127,
          "beat_index": 783,
          "section": "chorus"
        },
        {
          "t": 98000,
          "type": "note",
          "pitch": 60,
          "duration_ms": 115,
          "velocity": 120,
          "beat_index": 784,
          "section": "chorus"
        },
        {
          "t": 98125,
          "type": "note",
          "pitch": 72,
          "duration_ms": 115,
          "velocity": 127,
          "beat_index": 785,
          "section": "chorus"
        },
        {
          "t": 98250,
          "type": "note",
          "pitch": 65,
          "duration_ms": 115,
          "velocity": 120,
          "beat_index": 786,
          "section": "chorus"
        },
        {
          "t": 98375,
          "type": "note",
          "pitch": 60,
          "duration_ms": 115,
          "velocity": 127,
          "beat_index": 787,
          "section": "chorus"
        },
        {
          "t": 98500,
          "type": "note",
          "pitch": 67,
          "duration_ms": 115,
          "velocity": 120,
          "beat_index": 788,
          "section": "chorus"
        },
        {
          "t": 98625,
          "type": "note",
          "pitch": 60,
          "duration_ms": 115,
          "velocity": 127,
          "beat_index": 789,
          "section": "chorus"
        },
        {
          "t": 98750,
          "type": "note",
          "pitch": 68,
          "duration_ms": 115,
          "velocity": 120,
          "beat_index": 790,
          "section": "chorus"
        },
        {
          "t": 98875,
          "type": "note",
          "pitch": 67,
          "duration_ms": 115,
          "velocity": 127,
          "beat_index": 791,
          "section": "chorus"
        },
        {
          "t": 99000,
          "type": "note",
          "pitch": 60,
          "duration_ms": 115,
          "velocity": 120,
          "beat_index": 792,
          "section": "chorus"
        },
        {
          "t": 99125,
          "type": "note",
          "pitch": 72,
          "duration_ms": 115,
          "velocity": 127,
          "beat_index": 793,
          "section": "chorus"
        },
        {
          "t": 99250,
          "type": "note",
          "pitch": 65,
          "duration_ms": 115,
          "velocity": 120,
          "beat_index": 794,
          "section": "chorus"
        },
        {
          "t": 99375,
          "type": "note",
          "pitch": 60,
          "duration_ms": 115,
          "velocity": 127,
          "beat_index": 795,
          "section": "chorus"
        },
        {
          "t": 99500,
          "type": "note",
          "pitch": 67,
          "duration_ms": 115,
          "velocity": 120,
          "beat_index": 796,
          "section": "chorus"
        },
        {
          "t": 99625,
          "type": "note",
          "pitch": 68,
          "duration_ms": 115,
          "velocity": 127,
          "beat_index": 797,
          "section": "chorus"
        },
        {
          "t": 99750,
          "type": "note",
          "pitch": 70,
          "duration_ms": 115,
          "velocity": 120,
          "beat_index": 798,
          "section": "chorus"
        },
        {
          "t": 99875,
          "type": "note",
          "pitch": 72,
          "duration_ms": 115,
          "velocity": 127,
          "beat_index": 799,
          "section": "chorus"
        },
        {
          "t": 100000,
          "type": "note",
          "pitch": 60,
          "duration_ms": 115,
          "velocity": 120,
          "beat_index": 800,
          "section": "chorus"
        },
        {
          "t": 100125,
          "type": "note",
          "pitch": 72,
          "duration_ms": 115,
          "velocity": 127,
          "beat_index": 801,
          "section": "chorus"
        },
        {
          "t": 100250,
          "type": "note",
          "pitch": 65,
          "duration_ms": 115,
          "velocity": 120,
          "beat_index": 802,
          "section": "chorus"
        },
        {
          "t": 100375,
          "type": "note",
          "pitch": 60,
          "duration_ms": 115,
          "velocity": 127,
          "beat_index": 803,
          "section": "chorus"
        },
        {
          "t": 100500,
          "type": "note",
          "pitch": 67,
          "duration_ms": 115,
          "velocity": 120,
          "beat_index": 804,
          "section": "chorus"
        },
        {
          "t": 100625,
          "type": "note",
          "pitch": 60,
          "duration_ms": 115,
          "velocity": 127,
          "beat_index": 805,
          "section": "chorus"
        },
        {
          "t": 100750,
          "type": "note",
          "pitch": 68,
          "duration_ms": 115,
          "velocity": 120,
          "beat_index": 806,
          "section": "chorus"
        },
        {
          "t": 100875,
          "type": "note",
          "pitch": 67,
          "duration_ms": 115,
          "velocity": 127,
          "beat_index": 807,
          "section": "chorus"
        },
        {
          "t": 101000,
          "type": "note",
          "pitch": 60,
          "duration_ms": 115,
          "velocity": 120,
          "beat_index": 808,
          "section": "chorus"
        },
        {
          "t": 101125,
          "type": "note",
          "pitch": 72,
          "duration_ms": 115,
          "velocity": 127,
          "beat_index": 809,
          "section": "chorus"
        },
        {
          "t": 101250,
          "type": "note",
          "pitch": 65,
          "duration_ms": 115,
          "velocity": 120,
          "beat_index": 810,
          "section": "chorus"
        },
        {
          "t": 101375,
          "type": "note",
          "pitch": 60,
          "duration_ms": 115,
          "velocity": 127,
          "beat_index": 811,
          "section": "chorus"
        },
        {
          "t": 101500,
          "type": "note",
          "pitch": 67,
          "duration_ms": 115,
          "velocity": 120,
          "beat_index": 812,
          "section": "chorus"
        },
        {
          "t": 101625,
          "type": "note",
          "pitch": 68,
          "duration_ms": 115,
          "velocity": 127,
          "beat_index": 813,
          "section": "chorus"
        },
        {
          "t": 101750,
          "type": "note",
          "pitch": 70,
          "duration_ms": 115,
          "velocity": 120,
          "beat_index": 814,
          "section": "chorus"
        },
        {
          "t": 101875,
          "type": "note",
          "pitch": 72,
          "duration_ms": 115,
          "velocity": 127,
          "beat_index": 815,
          "section": "chorus"
        },
        {
          "t": 102000,
          "type": "note",
          "pitch": 60,
          "duration_ms": 115,
          "velocity": 120,
          "beat_index": 816,
          "section": "chorus"
        },
        {
          "t": 102125,
          "type": "note",
          "pitch": 72,
          "duration_ms": 115,
          "velocity": 127,
          "beat_index": 817,
          "section": "chorus"
        },
        {
          "t": 102250,
          "type": "note",
          "pitch": 65,
          "duration_ms": 115,
          "velocity": 120,
          "beat_index": 818,
          "section": "chorus"
        },
        {
          "t": 102375,
          "type": "note",
          "pitch": 60,
          "duration_ms": 115,
          "velocity": 127,
          "beat_index": 819,
          "section": "chorus"
        },
        {
          "t": 102500,
          "type": "note",
          "pitch": 67,
          "duration_ms": 115,
          "velocity": 120,
          "beat_index": 820,
          "section": "chorus"
        },
        {
          "t": 102625,
          "type": "note",
          "pitch": 60,
          "duration_ms": 115,
          "velocity": 127,
          "beat_index": 821,
          "section": "chorus"
        },
        {
          "t": 102750,
          "type": "note",
          "pitch": 68,
          "duration_ms": 115,
          "velocity": 120,
          "beat_index": 822,
          "section": "chorus"
        },
        {
          "t": 102875,
          "type": "note",
          "pitch": 67,
          "duration_ms": 115,
          "velocity": 127,
          "beat_index": 823,
          "section": "chorus"
        },
        {
          "t": 103000,
          "type": "note",
          "pitch": 60,
          "duration_ms": 115,
          "velocity": 120,
          "beat_index": 824,
          "section": "chorus"
        },
        {
          "t": 103125,
          "type": "note",
          "pitch": 72,
          "duration_ms": 115,
          "velocity": 127,
          "beat_index": 825,
          "section": "chorus"
        },
        {
          "t": 103250,
          "type": "note",
          "pitch": 65,
          "duration_ms": 115,
          "velocity": 120,
          "beat_index": 826,
          "section": "chorus"
        },
        {
          "t": 103375,
          "type": "note",
          "pitch": 60,
          "duration_ms": 115,
          "velocity": 127,
          "beat_index": 827,
          "section": "chorus"
        },
        {
          "t": 103500,
          "type": "note",
          "pitch": 67,
          "duration_ms": 115,
          "velocity": 120,
          "beat_index": 828,
          "section": "chorus"
        },
        {
          "t": 103625,
          "type": "note",
          "pitch": 68,
          "duration_ms": 115,
          "velocity": 127,
          "beat_index": 829,
          "section": "chorus"
        },
        {
          "t": 103750,
          "type": "note",
          "pitch": 70,
          "duration_ms": 115,
          "velocity": 120,
          "beat_index": 830,
          "section": "chorus"
        },
        {
          "t": 103875,
          "type": "note",
          "pitch": 72,
          "duration_ms": 115,
          "velocity": 127,
          "beat_index": 831,
          "section": "chorus"
        },
        {
          "t": 104000,
          "type": "note",
          "pitch": 60,
          "duration_ms": 115,
          "velocity": 120,
          "beat_index": 832,
          "section": "chorus"
        },
        {
          "t": 104125,
          "type": "note",
          "pitch": 72,
          "duration_ms": 115,
          "velocity": 127,
          "beat_index": 833,
          "section": "chorus"
        },
        {
          "t": 104250,
          "type": "note",
          "pitch": 65,
          "duration_ms": 115,
          "velocity": 120,
          "beat_index": 834,
          "section": "chorus"
        },
        {
          "t": 104375,
          "type": "note",
          "pitch": 60,
          "duration_ms": 115,
          "velocity": 127,
          "beat_index": 835,
          "section": "chorus"
        },
        {
          "t": 104500,
          "type": "note",
          "pitch": 67,
          "duration_ms": 115,
          "velocity": 120,
          "beat_index": 836,
          "section": "chorus"
        },
        {
          "t": 104625,
          "type": "note",
          "pitch": 60,
          "duration_ms": 115,
          "velocity": 127,
          "beat_index": 837,
          "section": "chorus"
        },
        {
          "t": 104750,
          "type": "note",
          "pitch": 68,
          "duration_ms": 115,
          "velocity": 120,
          "beat_index": 838,
          "section": "chorus"
        },
        {
          "t": 104875,
          "type": "note",
          "pitch": 67,
          "duration_ms": 115,
          "velocity": 127,
          "beat_index": 839,
          "section": "chorus"
        },
        {
          "t": 105000,
          "type": "note",
          "pitch": 60,
          "duration_ms": 115,
          "velocity": 120,
          "beat_index": 840,
          "section": "chorus"
        },
        {
          "t": 105125,
          "type": "note",
          "pitch": 72,
          "duration_ms": 115,
          "velocity": 127,
          "beat_index": 841,
          "section": "chorus"
        },
        {
          "t": 105250,
          "type": "note",
          "pitch": 65,
          "duration_ms": 115,
          "velocity": 120,
          "beat_index": 842,
          "section": "chorus"
        },
        {
          "t": 105375,
          "type": "note",
          "pitch": 60,
          "duration_ms": 115,
          "velocity": 127,
          "beat_index": 843,
          "section": "chorus"
        },
        {
          "t": 105500,
          "type": "note",
          "pitch": 67,
          "duration_ms": 115,
          "velocity": 120,
          "beat_index": 844,
          "section": "chorus"
        },
        {
          "t": 105625,
          "type": "note",
          "pitch": 68,
          "duration_ms": 115,
          "velocity": 127,
          "beat_index": 845,
          "section": "chorus"
        },
        {
          "t": 105750,
          "type": "note",
          "pitch": 70,
          "duration_ms": 115,
          "velocity": 120,
          "beat_index": 846,
          "section": "chorus"
        },
        {
          "t": 105875,
          "type": "note",
          "pitch": 72,
          "duration_ms": 115,
          "velocity": 127,
          "beat_index": 847,
          "section": "chorus"
        },
        {
          "t": 106000,
          "type": "note",
          "pitch": 60,
          "duration_ms": 115,
          "velocity": 120,
          "beat_index": 848,
          "section": "chorus"
        },
        {
          "t": 106125,
          "type": "note",
          "pitch": 72,
          "duration_ms": 115,
          "velocity": 127,
          "beat_index": 849,
          "section": "chorus"
        },
        {
          "t": 106250,
          "type": "note",
          "pitch": 65,
          "duration_ms": 115,
          "velocity": 120,
          "beat_index": 850,
          "section": "chorus"
        },
        {
          "t": 106375,
          "type": "note",
          "pitch": 60,
          "duration_ms": 115,
          "velocity": 127,
          "beat_index": 851,
          "section": "chorus"
        },
        {
          "t": 106500,
          "type": "note",
          "pitch": 67,
          "duration_ms": 115,
          "velocity": 120,
          "beat_index": 852,
          "section": "chorus"
        },
        {
          "t": 106625,
          "type": "note",
          "pitch": 60,
          "duration_ms": 115,
          "velocity": 127,
          "beat_index": 853,
          "section": "chorus"
        },
        {
          "t": 106750,
          "type": "note",
          "pitch": 68,
          "duration_ms": 115,
          "velocity": 120,
          "beat_index": 854,
          "section": "chorus"
        },
        {
          "t": 106875,
          "type": "note",
          "pitch": 67,
          "duration_ms": 115,
          "velocity": 127,
          "beat_index": 855,
          "section": "chorus"
        },
        {
          "t": 107000,
          "type": "note",
          "pitch": 60,
          "duration_ms": 115,
          "velocity": 120,
          "beat_index": 856,
          "section": "chorus"
        },
        {
          "t": 107125,
          "type": "note",
          "pitch": 72,
          "duration_ms": 115,
          "velocity": 127,
          "beat_index": 857,
          "section": "chorus"
        },
        {
          "t": 107250,
          "type": "note",
          "pitch": 65,
          "duration_ms": 115,
          "velocity": 120,
          "beat_index": 858,
          "section": "chorus"
        },
        {
          "t": 107375,
          "type": "note",
          "pitch": 60,
          "duration_ms": 115,
          "velocity": 127,
          "beat_index": 859,
          "section": "chorus"
        },
        {
          "t": 107500,
          "type": "note",
          "pitch": 67,
          "duration_ms": 115,
          "velocity": 120,
          "beat_index": 860,
          "section": "chorus"
        },
        {
          "t": 107625,
          "type": "note",
          "pitch": 68,
          "duration_ms": 115,
          "velocity": 127,
          "beat_index": 861,
          "section": "chorus"
        },
        {
          "t": 107750,
          "type": "note",
          "pitch": 70,
          "duration_ms": 115,
          "velocity": 120,
          "beat_index": 862,
          "section": "chorus"
        },
        {
          "t": 107875,
          "type": "note",
          "pitch": 72,
          "duration_ms": 115,
          "velocity": 127,
          "beat_index": 863,
          "section": "chorus"
        },
        {
          "t": 108000,
          "type": "note",
          "pitch": 60,
          "duration_ms": 115,
          "velocity": 120,
          "beat_index": 864,
          "section": "chorus"
        },
        {
          "t": 108125,
          "type": "note",
          "pitch": 72,
          "duration_ms": 115,
          "velocity": 127,
          "beat_index": 865,
          "section": "chorus"
        },
        {
          "t": 108250,
          "type": "note",
          "pitch": 65,
          "duration_ms": 115,
          "velocity": 120,
          "beat_index": 866,
          "section": "chorus"
        },
        {
          "t": 108375,
          "type": "note",
          "pitch": 60,
          "duration_ms": 115,
          "velocity": 127,
          "beat_index": 867,
          "section": "chorus"
        },
        {
          "t": 108500,
          "type": "note",
          "pitch": 67,
          "duration_ms": 115,
          "velocity": 120,
          "beat_index": 868,
          "section": "chorus"
        },
        {
          "t": 108625,
          "type": "note",
          "pitch": 60,
          "duration_ms": 115,
          "velocity": 127,
          "beat_index": 869,
          "section": "chorus"
        },
        {
          "t": 108750,
          "type": "note",
          "pitch": 68,
          "duration_ms": 115,
          "velocity": 120,
          "beat_index": 870,
          "section": "chorus"
        },
        {
          "t": 108875,
          "type": "note",
          "pitch": 67,
          "duration_ms": 115,
          "velocity": 127,
          "beat_index": 871,
          "section": "chorus"
        },
        {
          "t": 109000,
          "type": "note",
          "pitch": 60,
          "duration_ms": 115,
          "velocity": 120,
          "beat_index": 872,
          "section": "chorus"
        },
        {
          "t": 109125,
          "type": "note",
          "pitch": 72,
          "duration_ms": 115,
          "velocity": 127,
          "beat_index": 873,
          "section": "chorus"
        },
        {
          "t": 109250,
          "type": "note",
          "pitch": 65,
          "duration_ms": 115,
          "velocity": 120,
          "beat_index": 874,
          "section": "chorus"
        },
        {
          "t": 109375,
          "type": "note",
          "pitch": 60,
          "duration_ms": 115,
          "velocity": 127,
          "beat_index": 875,
          "section": "chorus"
        },
        {
          "t": 109500,
          "type": "note",
          "pitch": 67,
          "duration_ms": 115,
          "velocity": 120,
          "beat_index": 876,
          "section": "chorus"
        },
        {
          "t": 109625,
          "type": "note",
          "pitch": 68,
          "duration_ms": 115,
          "velocity": 127,
          "beat_index": 877,
          "section": "chorus"
        },
        {
          "t": 109750,
          "type": "note",
          "pitch": 70,
          "duration_ms": 115,
          "velocity": 120,
          "beat_index": 878,
          "section": "chorus"
        },
        {
          "t": 109875,
          "type": "note",
          "pitch": 72,
          "duration_ms": 115,
          "velocity": 127,
          "beat_index": 879,
          "section": "chorus"
        },
        {
          "t": 110000,
          "type": "note",
          "pitch": 60,
          "duration_ms": 115,
          "velocity": 120,
          "beat_index": 880,
          "section": "chorus"
        },
        {
          "t": 110125,
          "type": "note",
          "pitch": 72,
          "duration_ms": 115,
          "velocity": 127,
          "beat_index": 881,
          "section": "chorus"
        },
        {
          "t": 110250,
          "type": "note",
          "pitch": 65,
          "duration_ms": 115,
          "velocity": 120,
          "beat_index": 882,
          "section": "chorus"
        },
        {
          "t": 110375,
          "type": "note",
          "pitch": 60,
          "duration_ms": 115,
          "velocity": 127,
          "beat_index": 883,
          "section": "chorus"
        },
        {
          "t": 110500,
          "type": "note",
          "pitch": 67,
          "duration_ms": 115,
          "velocity": 120,
          "beat_index": 884,
          "section": "chorus"
        },
        {
          "t": 110625,
          "type": "note",
          "pitch": 60,
          "duration_ms": 115,
          "velocity": 127,
          "beat_index": 885,
          "section": "chorus"
        },
        {
          "t": 110750,
          "type": "note",
          "pitch": 68,
          "duration_ms": 115,
          "velocity": 120,
          "beat_index": 886,
          "section": "chorus"
        },
        {
          "t": 110875,
          "type": "note",
          "pitch": 67,
          "duration_ms": 115,
          "velocity": 127,
          "beat_index": 887,
          "section": "chorus"
        },
        {
          "t": 111000,
          "type": "note",
          "pitch": 60,
          "duration_ms": 115,
          "velocity": 120,
          "beat_index": 888,
          "section": "chorus"
        },
        {
          "t": 111125,
          "type": "note",
          "pitch": 72,
          "duration_ms": 115,
          "velocity": 127,
          "beat_index": 889,
          "section": "chorus"
        },
        {
          "t": 111250,
          "type": "note",
          "pitch": 65,
          "duration_ms": 115,
          "velocity": 120,
          "beat_index": 890,
          "section": "chorus"
        },
        {
          "t": 111375,
          "type": "note",
          "pitch": 60,
          "duration_ms": 115,
          "velocity": 127,
          "beat_index": 891,
          "section": "chorus"
        },
        {
          "t": 111500,
          "type": "note",
          "pitch": 67,
          "duration_ms": 115,
          "velocity": 120,
          "beat_index": 892,
          "section": "chorus"
        },
        {
          "t": 111625,
          "type": "note",
          "pitch": 68,
          "duration_ms": 115,
          "velocity": 127,
          "beat_index": 893,
          "section": "chorus"
        },
        {
          "t": 111750,
          "type": "note",
          "pitch": 70,
          "duration_ms": 115,
          "velocity": 120,
          "beat_index": 894,
          "section": "chorus"
        },
        {
          "t": 111875,
          "type": "note",
          "pitch": 72,
          "duration_ms": 115,
          "velocity": 127,
          "beat_index": 895,
          "section": "chorus"
        },
        {
          "t": 112000,
          "type": "note",
          "pitch": 60,
          "duration_ms": 115,
          "velocity": 120,
          "beat_index": 896,
          "section": "chorus"
        },
        {
          "t": 112125,
          "type": "note",
          "pitch": 72,
          "duration_ms": 115,
          "velocity": 127,
          "beat_index": 897,
          "section": "chorus"
        },
        {
          "t": 112250,
          "type": "note",
          "pitch": 65,
          "duration_ms": 115,
          "velocity": 120,
          "beat_index": 898,
          "section": "chorus"
        },
        {
          "t": 112375,
          "type": "note",
          "pitch": 60,
          "duration_ms": 115,
          "velocity": 127,
          "beat_index": 899,
          "section": "chorus"
        },
        {
          "t": 112500,
          "type": "note",
          "pitch": 67,
          "duration_ms": 115,
          "velocity": 120,
          "beat_index": 900,
          "section": "chorus"
        },
        {
          "t": 112625,
          "type": "note",
          "pitch": 60,
          "duration_ms": 115,
          "velocity": 127,
          "beat_index": 901,
          "section": "chorus"
        },
        {
          "t": 112750,
          "type": "note",
          "pitch": 68,
          "duration_ms": 115,
          "velocity": 120,
          "beat_index": 902,
          "section": "chorus"
        },
        {
          "t": 112875,
          "type": "note",
          "pitch": 67,
          "duration_ms": 115,
          "velocity": 127,
          "beat_index": 903,
          "section": "chorus"
        },
        {
          "t": 113000,
          "type": "note",
          "pitch": 60,
          "duration_ms": 115,
          "velocity": 120,
          "beat_index": 904,
          "section": "chorus"
        },
        {
          "t": 113125,
          "type": "note",
          "pitch": 72,
          "duration_ms": 115,
          "velocity": 127,
          "beat_index": 905,
          "section": "chorus"
        },
        {
          "t": 113250,
          "type": "note",
          "pitch": 65,
          "duration_ms": 115,
          "velocity": 120,
          "beat_index": 906,
          "section": "chorus"
        },
        {
          "t": 113375,
          "type": "note",
          "pitch": 60,
          "duration_ms": 115,
          "velocity": 127,
          "beat_index": 907,
          "section": "chorus"
        },
        {
          "t": 113500,
          "type": "note",
          "pitch": 67,
          "duration_ms": 115,
          "velocity": 120,
          "beat_index": 908,
          "section": "chorus"
        },
        {
          "t": 113625,
          "type": "note",
          "pitch": 68,
          "duration_ms": 115,
          "velocity": 127,
          "beat_index": 909,
          "section": "chorus"
        },
        {
          "t": 113750,
          "type": "note",
          "pitch": 70,
          "duration_ms": 115,
          "velocity": 120,
          "beat_index": 910,
          "section": "chorus"
        },
        {
          "t": 113875,
          "type": "note",
          "pitch": 72,
          "duration_ms": 115,
          "velocity": 127,
          "beat_index": 911,
          "section": "chorus"
        },
        {
          "t": 114000,
          "type": "note",
          "pitch": 60,
          "duration_ms": 115,
          "velocity": 120,
          "beat_index": 912,
          "section": "chorus"
        },
        {
          "t": 114125,
          "type": "note",
          "pitch": 72,
          "duration_ms": 115,
          "velocity": 127,
          "beat_index": 913,
          "section": "chorus"
        },
        {
          "t": 114250,
          "type": "note",
          "pitch": 65,
          "duration_ms": 115,
          "velocity": 120,
          "beat_index": 914,
          "section": "chorus"
        },
        {
          "t": 114375,
          "type": "note",
          "pitch": 60,
          "duration_ms": 115,
          "velocity": 127,
          "beat_index": 915,
          "section": "chorus"
        },
        {
          "t": 114500,
          "type": "note",
          "pitch": 67,
          "duration_ms": 115,
          "velocity": 120,
          "beat_index": 916,
          "section": "chorus"
        },
        {
          "t": 114625,
          "type": "note",
          "pitch": 60,
          "duration_ms": 115,
          "velocity": 127,
          "beat_index": 917,
          "section": "chorus"
        },
        {
          "t": 114750,
          "type": "note",
          "pitch": 68,
          "duration_ms": 115,
          "velocity": 120,
          "beat_index": 918,
          "section": "chorus"
        },
        {
          "t": 114875,
          "type": "note",
          "pitch": 67,
          "duration_ms": 115,
          "velocity": 127,
          "beat_index": 919,
          "section": "chorus"
        },
        {
          "t": 115000,
          "type": "note",
          "pitch": 60,
          "duration_ms": 115,
          "velocity": 120,
          "beat_index": 920,
          "section": "chorus"
        },
        {
          "t": 115125,
          "type": "note",
          "pitch": 72,
          "duration_ms": 115,
          "velocity": 127,
          "beat_index": 921,
          "section": "chorus"
        },
        {
          "t": 115250,
          "type": "note",
          "pitch": 65,
          "duration_ms": 115,
          "velocity": 120,
          "beat_index": 922,
          "section": "chorus"
        },
        {
          "t": 115375,
          "type": "note",
          "pitch": 60,
          "duration_ms": 115,
          "velocity": 127,
          "beat_index": 923,
          "section": "chorus"
        },
        {
          "t": 115500,
          "type": "note",
          "pitch": 67,
          "duration_ms": 115,
          "velocity": 120,
          "beat_index": 924,
          "section": "chorus"
        },
        {
          "t": 115625,
          "type": "note",
          "pitch": 68,
          "duration_ms": 115,
          "velocity": 127,
          "beat_index": 925,
          "section": "chorus"
        },
        {
          "t": 115750,
          "type": "note",
          "pitch": 70,
          "duration_ms": 115,
          "velocity": 120,
          "beat_index": 926,
          "section": "chorus"
        },
        {
          "t": 115875,
          "type": "note",
          "pitch": 72,
          "duration_ms": 115,
          "velocity": 127,
          "beat_index": 927,
          "section": "chorus"
        },
        {
          "t": 116000,
          "type": "note",
          "pitch": 60,
          "duration_ms": 115,
          "velocity": 120,
          "beat_index": 928,
          "section": "chorus"
        },
        {
          "t": 116125,
          "type": "note",
          "pitch": 72,
          "duration_ms": 115,
          "velocity": 127,
          "beat_index": 929,
          "section": "chorus"
        },
        {
          "t": 116250,
          "type": "note",
          "pitch": 65,
          "duration_ms": 115,
          "velocity": 120,
          "beat_index": 930,
          "section": "chorus"
        },
        {
          "t": 116375,
          "type": "note",
          "pitch": 60,
          "duration_ms": 115,
          "velocity": 127,
          "beat_index": 931,
          "section": "chorus"
        },
        {
          "t": 116500,
          "type": "note",
          "pitch": 67,
          "duration_ms": 115,
          "velocity": 120,
          "beat_index": 932,
          "section": "chorus"
        },
        {
          "t": 116625,
          "type": "note",
          "pitch": 60,
          "duration_ms": 115,
          "velocity": 127,
          "beat_index": 933,
          "section": "chorus"
        },
        {
          "t": 116750,
          "type": "note",
          "pitch": 68,
          "duration_ms": 115,
          "velocity": 120,
          "beat_index": 934,
          "section": "chorus"
        },
        {
          "t": 116875,
          "type": "note",
          "pitch": 67,
          "duration_ms": 115,
          "velocity": 127,
          "beat_index": 935,
          "section": "chorus"
        },
        {
          "t": 117000,
          "type": "note",
          "pitch": 60,
          "duration_ms": 115,
          "velocity": 120,
          "beat_index": 936,
          "section": "chorus"
        },
        {
          "t": 117125,
          "type": "note",
          "pitch": 72,
          "duration_ms": 115,
          "velocity": 127,
          "beat_index": 937,
          "section": "chorus"
        },
        {
          "t": 117250,
          "type": "note",
          "pitch": 65,
          "duration_ms": 115,
          "velocity": 120,
          "beat_index": 938,
          "section": "chorus"
        },
        {
          "t": 117375,
          "type": "note",
          "pitch": 60,
          "duration_ms": 115,
          "velocity": 127,
          "beat_index": 939,
          "section": "chorus"
        },
        {
          "t": 117500,
          "type": "note",
          "pitch": 67,
          "duration_ms": 115,
          "velocity": 120,
          "beat_index": 940,
          "section": "chorus"
        },
        {
          "t": 117625,
          "type": "note",
          "pitch": 68,
          "duration_ms": 115,
          "velocity": 127,
          "beat_index": 941,
          "section": "chorus"
        },
        {
          "t": 117750,
          "type": "note",
          "pitch": 70,
          "duration_ms": 115,
          "velocity": 120,
          "beat_index": 942,
          "section": "chorus"
        },
        {
          "t": 117875,
          "type": "note",
          "pitch": 72,
          "duration_ms": 115,
          "velocity": 127,
          "beat_index": 943,
          "section": "chorus"
        },
        {
          "t": 118000,
          "type": "note",
          "pitch": 60,
          "duration_ms": 115,
          "velocity": 120,
          "beat_index": 944,
          "section": "chorus"
        },
        {
          "t": 118125,
          "type": "note",
          "pitch": 72,
          "duration_ms": 115,
          "velocity": 127,
          "beat_index": 945,
          "section": "chorus"
        },
        {
          "t": 118250,
          "type": "note",
          "pitch": 65,
          "duration_ms": 115,
          "velocity": 120,
          "beat_index": 946,
          "section": "chorus"
        },
        {
          "t": 118375,
          "type": "note",
          "pitch": 60,
          "duration_ms": 115,
          "velocity": 127,
          "beat_index": 947,
          "section": "chorus"
        },
        {
          "t": 118500,
          "type": "note",
          "pitch": 67,
          "duration_ms": 115,
          "velocity": 120,
          "beat_index": 948,
          "section": "chorus"
        },
        {
          "t": 118625,
          "type": "note",
          "pitch": 60,
          "duration_ms": 115,
          "velocity": 127,
          "beat_index": 949,
          "section": "chorus"
        },
        {
          "t": 118750,
          "type": "note",
          "pitch": 68,
          "duration_ms": 115,
          "velocity": 120,
          "beat_index": 950,
          "section": "chorus"
        },
        {
          "t": 118875,
          "type": "note",
          "pitch": 67,
          "duration_ms": 115,
          "velocity": 127,
          "beat_index": 951,
          "section": "chorus"
        },
        {
          "t": 119000,
          "type": "note",
          "pitch": 60,
          "duration_ms": 115,
          "velocity": 120,
          "beat_index": 952,
          "section": "chorus"
        },
        {
          "t": 119125,
          "type": "note",
          "pitch": 72,
          "duration_ms": 115,
          "velocity": 127,
          "beat_index": 953,
          "section": "chorus"
        },
        {
          "t": 119250,
          "type": "note",
          "pitch": 65,
          "duration_ms": 115,
          "velocity": 120,
          "beat_index": 954,
          "section": "chorus"
        },
        {
          "t": 119375,
          "type": "note",
          "pitch": 60,
          "duration_ms": 115,
          "velocity": 127,
          "beat_index": 955,
          "section": "chorus"
        },
        {
          "t": 119500,
          "type": "note",
          "pitch": 67,
          "duration_ms": 115,
          "velocity": 120,
          "beat_index": 956,
          "section": "chorus"
        },
        {
          "t": 119625,
          "type": "note",
          "pitch": 68,
          "duration_ms": 115,
          "velocity": 127,
          "beat_index": 957,
          "section": "chorus"
        },
        {
          "t": 119750,
          "type": "note",
          "pitch": 70,
          "duration_ms": 115,
          "velocity": 120,
          "beat_index": 958,
          "section": "chorus"
        },
        {
          "t": 119875,
          "type": "note",
          "pitch": 72,
          "duration_ms": 115,
          "velocity": 127,
          "beat_index": 959,
          "section": "chorus"
        },
        {
          "t": 120000,
          "type": "note",
          "pitch": 60,
          "duration_ms": 115,
          "velocity": 120,
          "beat_index": 960,
          "section": "chorus"
        },
        {
          "t": 120125,
          "type": "note",
          "pitch": 72,
          "duration_ms": 115,
          "velocity": 127,
          "beat_index": 961,
          "section": "chorus"
        },
        {
          "t": 120250,
          "type": "note",
          "pitch": 65,
          "duration_ms": 115,
          "velocity": 120,
          "beat_index": 962,
          "section": "chorus"
        },
        {
          "t": 120375,
          "type": "note",
          "pitch": 60,
          "duration_ms": 115,
          "velocity": 127,
          "beat_index": 963,
          "section": "chorus"
        },
        {
          "t": 120500,
          "type": "note",
          "pitch": 67,
          "duration_ms": 115,
          "velocity": 120,
          "beat_index": 964,
          "section": "chorus"
        },
        {
          "t": 120625,
          "type": "note",
          "pitch": 60,
          "duration_ms": 115,
          "velocity": 127,
          "beat_index": 965,
          "section": "chorus"
        },
        {
          "t": 120750,
          "type": "note",
          "pitch": 68,
          "duration_ms": 115,
          "velocity": 120,
          "beat_index": 966,
          "section": "chorus"
        },
        {
          "t": 120875,
          "type": "note",
          "pitch": 67,
          "duration_ms": 115,
          "velocity": 127,
          "beat_index": 967,
          "section": "chorus"
        },
        {
          "t": 121000,
          "type": "note",
          "pitch": 60,
          "duration_ms": 115,
          "velocity": 120,
          "beat_index": 968,
          "section": "chorus"
        },
        {
          "t": 121125,
          "type": "note",
          "pitch": 72,
          "duration_ms": 115,
          "velocity": 127,
          "beat_index": 969,
          "section": "chorus"
        },
        {
          "t": 121250,
          "type": "note",
          "pitch": 65,
          "duration_ms": 115,
          "velocity": 120,
          "beat_index": 970,
          "section": "chorus"
        },
        {
          "t": 121375,
          "type": "note",
          "pitch": 60,
          "duration_ms": 115,
          "velocity": 127,
          "beat_index": 971,
          "section": "chorus"
        },
        {
          "t": 121500,
          "type": "note",
          "pitch": 67,
          "duration_ms": 115,
          "velocity": 120,
          "beat_index": 972,
          "section": "chorus"
        },
        {
          "t": 121625,
          "type": "note",
          "pitch": 68,
          "duration_ms": 115,
          "velocity": 127,
          "beat_index": 973,
          "section": "chorus"
        },
        {
          "t": 121750,
          "type": "note",
          "pitch": 70,
          "duration_ms": 115,
          "velocity": 120,
          "beat_index": 974,
          "section": "chorus"
        },
        {
          "t": 121875,
          "type": "note",
          "pitch": 72,
          "duration_ms": 115,
          "velocity": 127,
          "beat_index": 975,
          "section": "chorus"
        },
        {
          "t": 122000,
          "type": "note",
          "pitch": 60,
          "duration_ms": 115,
          "velocity": 120,
          "beat_index": 976,
          "section": "chorus"
        },
        {
          "t": 122125,
          "type": "note",
          "pitch": 72,
          "duration_ms": 115,
          "velocity": 127,
          "beat_index": 977,
          "section": "chorus"
        },
        {
          "t": 122250,
          "type": "note",
          "pitch": 65,
          "duration_ms": 115,
          "velocity": 120,
          "beat_index": 978,
          "section": "chorus"
        },
        {
          "t": 122375,
          "type": "note",
          "pitch": 60,
          "duration_ms": 115,
          "velocity": 127,
          "beat_index": 979,
          "section": "chorus"
        },
        {
          "t": 122500,
          "type": "note",
          "pitch": 67,
          "duration_ms": 115,
          "velocity": 120,
          "beat_index": 980,
          "section": "chorus"
        },
        {
          "t": 122625,
          "type": "note",
          "pitch": 60,
          "duration_ms": 115,
          "velocity": 127,
          "beat_index": 981,
          "section": "chorus"
        },
        {
          "t": 122750,
          "type": "note",
          "pitch": 68,
          "duration_ms": 115,
          "velocity": 120,
          "beat_index": 982,
          "section": "chorus"
        },
        {
          "t": 122875,
          "type": "note",
          "pitch": 67,
          "duration_ms": 115,
          "velocity": 127,
          "beat_index": 983,
          "section": "chorus"
        },
        {
          "t": 123000,
          "type": "note",
          "pitch": 60,
          "duration_ms": 115,
          "velocity": 120,
          "beat_index": 984,
          "section": "chorus"
        },
        {
          "t": 123125,
          "type": "note",
          "pitch": 72,
          "duration_ms": 115,
          "velocity": 127,
          "beat_index": 985,
          "section": "chorus"
        },
        {
          "t": 123250,
          "type": "note",
          "pitch": 65,
          "duration_ms": 115,
          "velocity": 120,
          "beat_index": 986,
          "section": "chorus"
        },
        {
          "t": 123375,
          "type": "note",
          "pitch": 60,
          "duration_ms": 115,
          "velocity": 127,
          "beat_index": 987,
          "section": "chorus"
        },
        {
          "t": 123500,
          "type": "note",
          "pitch": 67,
          "duration_ms": 115,
          "velocity": 120,
          "beat_index": 988,
          "section": "chorus"
        },
        {
          "t": 123625,
          "type": "note",
          "pitch": 68,
          "duration_ms": 115,
          "velocity": 127,
          "beat_index": 989,
          "section": "chorus"
        },
        {
          "t": 123750,
          "type": "note",
          "pitch": 70,
          "duration_ms": 115,
          "velocity": 120,
          "beat_index": 990,
          "section": "chorus"
        },
        {
          "t": 123875,
          "type": "note",
          "pitch": 72,
          "duration_ms": 115,
          "velocity": 127,
          "beat_index": 991,
          "section": "chorus"
        },
        {
          "t": 124000,
          "type": "note",
          "pitch": 60,
          "duration_ms": 115,
          "velocity": 120,
          "beat_index": 992,
          "section": "chorus"
        },
        {
          "t": 124125,
          "type": "note",
          "pitch": 72,
          "duration_ms": 115,
          "velocity": 127,
          "beat_index": 993,
          "section": "chorus"
        },
        {
          "t": 124250,
          "type": "note",
          "pitch": 65,
          "duration_ms": 115,
          "velocity": 120,
          "beat_index": 994,
          "section": "chorus"
        },
        {
          "t": 124375,
          "type": "note",
          "pitch": 60,
          "duration_ms": 115,
          "velocity": 127,
          "beat_index": 995,
          "section": "chorus"
        },
        {
          "t": 124500,
          "type": "note",
          "pitch": 67,
          "duration_ms": 115,
          "velocity": 120,
          "beat_index": 996,
          "section": "chorus"
        },
        {
          "t": 124625,
          "type": "note",
          "pitch": 60,
          "duration_ms": 115,
          "velocity": 127,
          "beat_index": 997,
          "section": "chorus"
        },
        {
          "t": 124750,
          "type": "note",
          "pitch": 68,
          "duration_ms": 115,
          "velocity": 120,
          "beat_index": 998,
          "section": "chorus"
        },
        {
          "t": 124875,
          "type": "note",
          "pitch": 67,
          "duration_ms": 115,
          "velocity": 127,
          "beat_index": 999,
          "section": "chorus"
        },
        {
          "t": 125000,
          "type": "note",
          "pitch": 60,
          "duration_ms": 115,
          "velocity": 120,
          "beat_index": 1000,
          "section": "chorus"
        },
        {
          "t": 125125,
          "type": "note",
          "pitch": 72,
          "duration_ms": 115,
          "velocity": 127,
          "beat_index": 1001,
          "section": "chorus"
        },
        {
          "t": 125250,
          "type": "note",
          "pitch": 65,
          "duration_ms": 115,
          "velocity": 120,
          "beat_index": 1002,
          "section": "chorus"
        },
        {
          "t": 125375,
          "type": "note",
          "pitch": 60,
          "duration_ms": 115,
          "velocity": 127,
          "beat_index": 1003,
          "section": "chorus"
        },
        {
          "t": 125500,
          "type": "note",
          "pitch": 67,
          "duration_ms": 115,
          "velocity": 120,
          "beat_index": 1004,
          "section": "chorus"
        },
        {
          "t": 125625,
          "type": "note",
          "pitch": 68,
          "duration_ms": 115,
          "velocity": 127,
          "beat_index": 1005,
          "section": "chorus"
        },
        {
          "t": 125750,
          "type": "note",
          "pitch": 70,
          "duration_ms": 115,
          "velocity": 120,
          "beat_index": 1006,
          "section": "chorus"
        },
        {
          "t": 125875,
          "type": "note",
          "pitch": 72,
          "duration_ms": 115,
          "velocity": 127,
          "beat_index": 1007,
          "section": "chorus"
        },
        {
          "t": 126000,
          "type": "note",
          "pitch": 60,
          "duration_ms": 115,
          "velocity": 120,
          "beat_index": 1008,
          "section": "chorus"
        },
        {
          "t": 126125,
          "type": "note",
          "pitch": 72,
          "duration_ms": 115,
          "velocity": 127,
          "beat_index": 1009,
          "section": "chorus"
        },
        {
          "t": 126250,
          "type": "note",
          "pitch": 65,
          "duration_ms": 115,
          "velocity": 120,
          "beat_index": 1010,
          "section": "chorus"
        },
        {
          "t": 126375,
          "type": "note",
          "pitch": 60,
          "duration_ms": 115,
          "velocity": 127,
          "beat_index": 1011,
          "section": "chorus"
        },
        {
          "t": 126500,
          "type": "note",
          "pitch": 67,
          "duration_ms": 115,
          "velocity": 120,
          "beat_index": 1012,
          "section": "chorus"
        },
        {
          "t": 126625,
          "type": "note",
          "pitch": 60,
          "duration_ms": 115,
          "velocity": 127,
          "beat_index": 1013,
          "section": "chorus"
        },
        {
          "t": 126750,
          "type": "note",
          "pitch": 68,
          "duration_ms": 115,
          "velocity": 120,
          "beat_index": 1014,
          "section": "chorus"
        },
        {
          "t": 126875,
          "type": "note",
          "pitch": 67,
          "duration_ms": 115,
          "velocity": 127,
          "beat_index": 1015,
          "section": "chorus"
        },
        {
          "t": 127000,
          "type": "note",
          "pitch": 60,
          "duration_ms": 115,
          "velocity": 120,
          "beat_index": 1016,
          "section": "chorus"
        },
        {
          "t": 127125,
          "type": "note",
          "pitch": 72,
          "duration_ms": 115,
          "velocity": 127,
          "beat_index": 1017,
          "section": "chorus"
        },
        {
          "t": 127250,
          "type": "note",
          "pitch": 65,
          "duration_ms": 115,
          "velocity": 120,
          "beat_index": 1018,
          "section": "chorus"
        },
        {
          "t": 127375,
          "type": "note",
          "pitch": 60,
          "duration_ms": 115,
          "velocity": 127,
          "beat_index": 1019,
          "section": "chorus"
        },
        {
          "t": 127500,
          "type": "note",
          "pitch": 67,
          "duration_ms": 115,
          "velocity": 120,
          "beat_index": 1020,
          "section": "chorus"
        },
        {
          "t": 127625,
          "type": "note",
          "pitch": 68,
          "duration_ms": 115,
          "velocity": 127,
          "beat_index": 1021,
          "section": "chorus"
        },
        {
          "t": 127750,
          "type": "note",
          "pitch": 70,
          "duration_ms": 115,
          "velocity": 120,
          "beat_index": 1022,
          "section": "chorus"
        },
        {
          "t": 127875,
          "type": "note",
          "pitch": 72,
          "duration_ms": 115,
          "velocity": 127,
          "beat_index": 1023,
          "section": "chorus"
        },
        {
          "t": 128000,
          "type": "note",
          "pitch": 60,
          "duration_ms": 115,
          "velocity": 120,
          "beat_index": 1024,
          "section": "chorus"
        },
        {
          "t": 128125,
          "type": "note",
          "pitch": 72,
          "duration_ms": 115,
          "velocity": 127,
          "beat_index": 1025,
          "section": "chorus"
        },
        {
          "t": 128250,
          "type": "note",
          "pitch": 65,
          "duration_ms": 115,
          "velocity": 120,
          "beat_index": 1026,
          "section": "chorus"
        },
        {
          "t": 128375,
          "type": "note",
          "pitch": 60,
          "duration_ms": 115,
          "velocity": 127,
          "beat_index": 1027,
          "section": "chorus"
        },
        {
          "t": 128500,
          "type": "note",
          "pitch": 67,
          "duration_ms": 115,
          "velocity": 120,
          "beat_index": 1028,
          "section": "chorus"
        },
        {
          "t": 128625,
          "type": "note",
          "pitch": 60,
          "duration_ms": 115,
          "velocity": 127,
          "beat_index": 1029,
          "section": "chorus"
        },
        {
          "t": 128750,
          "type": "note",
          "pitch": 68,
          "duration_ms": 115,
          "velocity": 120,
          "beat_index": 1030,
          "section": "chorus"
        },
        {
          "t": 128875,
          "type": "note",
          "pitch": 67,
          "duration_ms": 115,
          "velocity": 127,
          "beat_index": 1031,
          "section": "chorus"
        },
        {
          "t": 129000,
          "type": "note",
          "pitch": 60,
          "duration_ms": 115,
          "velocity": 120,
          "beat_index": 1032,
          "section": "chorus"
        },
        {
          "t": 129125,
          "type": "note",
          "pitch": 72,
          "duration_ms": 115,
          "velocity": 127,
          "beat_index": 1033,
          "section": "chorus"
        },
        {
          "t": 129250,
          "type": "note",
          "pitch": 65,
          "duration_ms": 115,
          "velocity": 120,
          "beat_index": 1034,
          "section": "chorus"
        },
        {
          "t": 129375,
          "type": "note",
          "pitch": 60,
          "duration_ms": 115,
          "velocity": 127,
          "beat_index": 1035,
          "section": "chorus"
        },
        {
          "t": 129500,
          "type": "note",
          "pitch": 67,
          "duration_ms": 115,
          "velocity": 120,
          "beat_index": 1036,
          "section": "chorus"
        },
        {
          "t": 129625,
          "type": "note",
          "pitch": 68,
          "duration_ms": 115,
          "velocity": 127,
          "beat_index": 1037,
          "section": "chorus"
        },
        {
          "t": 129750,
          "type": "note",
          "pitch": 70,
          "duration_ms": 115,
          "velocity": 120,
          "beat_index": 1038,
          "section": "chorus"
        },
        {
          "t": 129875,
          "type": "note",
          "pitch": 72,
          "duration_ms": 115,
          "velocity": 127,
          "beat_index": 1039,
          "section": "chorus"
        },
        {
          "t": 130000,
          "type": "note",
          "pitch": 60,
          "duration_ms": 115,
          "velocity": 120,
          "beat_index": 1040,
          "section": "chorus"
        },
        {
          "t": 130125,
          "type": "note",
          "pitch": 72,
          "duration_ms": 115,
          "velocity": 127,
          "beat_index": 1041,
          "section": "chorus"
        },
        {
          "t": 130250,
          "type": "note",
          "pitch": 65,
          "duration_ms": 115,
          "velocity": 120,
          "beat_index": 1042,
          "section": "chorus"
        },
        {
          "t": 130375,
          "type": "note",
          "pitch": 60,
          "duration_ms": 115,
          "velocity": 127,
          "beat_index": 1043,
          "section": "chorus"
        },
        {
          "t": 130500,
          "type": "note",
          "pitch": 67,
          "duration_ms": 115,
          "velocity": 120,
          "beat_index": 1044,
          "section": "chorus"
        },
        {
          "t": 130625,
          "type": "note",
          "pitch": 60,
          "duration_ms": 115,
          "velocity": 127,
          "beat_index": 1045,
          "section": "chorus"
        },
        {
          "t": 130750,
          "type": "note",
          "pitch": 68,
          "duration_ms": 115,
          "velocity": 120,
          "beat_index": 1046,
          "section": "chorus"
        },
        {
          "t": 130875,
          "type": "note",
          "pitch": 67,
          "duration_ms": 115,
          "velocity": 127,
          "beat_index": 1047,
          "section": "chorus"
        },
        {
          "t": 131000,
          "type": "note",
          "pitch": 60,
          "duration_ms": 115,
          "velocity": 120,
          "beat_index": 1048,
          "section": "chorus"
        },
        {
          "t": 131125,
          "type": "note",
          "pitch": 72,
          "duration_ms": 115,
          "velocity": 127,
          "beat_index": 1049,
          "section": "chorus"
        },
        {
          "t": 131250,
          "type": "note",
          "pitch": 65,
          "duration_ms": 115,
          "velocity": 120,
          "beat_index": 1050,
          "section": "chorus"
        },
        {
          "t": 131375,
          "type": "note",
          "pitch": 60,
          "duration_ms": 115,
          "velocity": 127,
          "beat_index": 1051,
          "section": "chorus"
        },
        {
          "t": 131500,
          "type": "note",
          "pitch": 67,
          "duration_ms": 115,
          "velocity": 120,
          "beat_index": 1052,
          "section": "chorus"
        },
        {
          "t": 131625,
          "type": "note",
          "pitch": 68,
          "duration_ms": 115,
          "velocity": 127,
          "beat_index": 1053,
          "section": "chorus"
        },
        {
          "t": 131750,
          "type": "note",
          "pitch": 70,
          "duration_ms": 115,
          "velocity": 120,
          "beat_index": 1054,
          "section": "chorus"
        },
        {
          "t": 131875,
          "type": "note",
          "pitch": 72,
          "duration_ms": 115,
          "velocity": 127,
          "beat_index": 1055,
          "section": "chorus"
        },
        {
          "t": 132000,
          "type": "note",
          "pitch": 60,
          "duration_ms": 115,
          "velocity": 120,
          "beat_index": 1056,
          "section": "chorus"
        },
        {
          "t": 132125,
          "type": "note",
          "pitch": 72,
          "duration_ms": 115,
          "velocity": 127,
          "beat_index": 1057,
          "section": "chorus"
        },
        {
          "t": 132250,
          "type": "note",
          "pitch": 65,
          "duration_ms": 115,
          "velocity": 120,
          "beat_index": 1058,
          "section": "chorus"
        },
        {
          "t": 132375,
          "type": "note",
          "pitch": 60,
          "duration_ms": 115,
          "velocity": 127,
          "beat_index": 1059,
          "section": "chorus"
        },
        {
          "t": 132500,
          "type": "note",
          "pitch": 67,
          "duration_ms": 115,
          "velocity": 120,
          "beat_index": 1060,
          "section": "chorus"
        },
        {
          "t": 132625,
          "type": "note",
          "pitch": 60,
          "duration_ms": 115,
          "velocity": 127,
          "beat_index": 1061,
          "section": "chorus"
        },
        {
          "t": 132750,
          "type": "note",
          "pitch": 68,
          "duration_ms": 115,
          "velocity": 120,
          "beat_index": 1062,
          "section": "chorus"
        },
        {
          "t": 132875,
          "type": "note",
          "pitch": 67,
          "duration_ms": 115,
          "velocity": 127,
          "beat_index": 1063,
          "section": "chorus"
        },
        {
          "t": 133000,
          "type": "note",
          "pitch": 60,
          "duration_ms": 115,
          "velocity": 120,
          "beat_index": 1064,
          "section": "chorus"
        },
        {
          "t": 133125,
          "type": "note",
          "pitch": 72,
          "duration_ms": 115,
          "velocity": 127,
          "beat_index": 1065,
          "section": "chorus"
        },
        {
          "t": 133250,
          "type": "note",
          "pitch": 65,
          "duration_ms": 115,
          "velocity": 120,
          "beat_index": 1066,
          "section": "chorus"
        },
        {
          "t": 133375,
          "type": "note",
          "pitch": 60,
          "duration_ms": 115,
          "velocity": 127,
          "beat_index": 1067,
          "section": "chorus"
        },
        {
          "t": 133500,
          "type": "note",
          "pitch": 67,
          "duration_ms": 115,
          "velocity": 120,
          "beat_index": 1068,
          "section": "chorus"
        },
        {
          "t": 133625,
          "type": "note",
          "pitch": 68,
          "duration_ms": 115,
          "velocity": 127,
          "beat_index": 1069,
          "section": "chorus"
        },
        {
          "t": 133750,
          "type": "note",
          "pitch": 70,
          "duration_ms": 115,
          "velocity": 120,
          "beat_index": 1070,
          "section": "chorus"
        },
        {
          "t": 133875,
          "type": "note",
          "pitch": 72,
          "duration_ms": 115,
          "velocity": 127,
          "beat_index": 1071,
          "section": "chorus"
        },
        {
          "t": 134000,
          "type": "note",
          "pitch": 60,
          "duration_ms": 115,
          "velocity": 120,
          "beat_index": 1072,
          "section": "chorus"
        },
        {
          "t": 134125,
          "type": "note",
          "pitch": 72,
          "duration_ms": 115,
          "velocity": 127,
          "beat_index": 1073,
          "section": "chorus"
        },
        {
          "t": 134250,
          "type": "note",
          "pitch": 65,
          "duration_ms": 115,
          "velocity": 120,
          "beat_index": 1074,
          "section": "chorus"
        },
        {
          "t": 134375,
          "type": "note",
          "pitch": 60,
          "duration_ms": 115,
          "velocity": 127,
          "beat_index": 1075,
          "section": "chorus"
        },
        {
          "t": 134500,
          "type": "note",
          "pitch": 67,
          "duration_ms": 115,
          "velocity": 120,
          "beat_index": 1076,
          "section": "chorus"
        },
        {
          "t": 134625,
          "type": "note",
          "pitch": 60,
          "duration_ms": 115,
          "velocity": 127,
          "beat_index": 1077,
          "section": "chorus"
        },
        {
          "t": 134750,
          "type": "note",
          "pitch": 68,
          "duration_ms": 115,
          "velocity": 120,
          "beat_index": 1078,
          "section": "chorus"
        },
        {
          "t": 134875,
          "type": "note",
          "pitch": 67,
          "duration_ms": 115,
          "velocity": 127,
          "beat_index": 1079,
          "section": "chorus"
        },
        {
          "t": 135000,
          "type": "note",
          "pitch": 60,
          "duration_ms": 115,
          "velocity": 120,
          "beat_index": 1080,
          "section": "chorus"
        },
        {
          "t": 135125,
          "type": "note",
          "pitch": 72,
          "duration_ms": 115,
          "velocity": 127,
          "beat_index": 1081,
          "section": "chorus"
        },
        {
          "t": 135250,
          "type": "note",
          "pitch": 65,
          "duration_ms": 115,
          "velocity": 120,
          "beat_index": 1082,
          "section": "chorus"
        },
        {
          "t": 135375,
          "type": "note",
          "pitch": 60,
          "duration_ms": 115,
          "velocity": 127,
          "beat_index": 1083,
          "section": "chorus"
        },
        {
          "t": 135500,
          "type": "note",
          "pitch": 67,
          "duration_ms": 115,
          "velocity": 120,
          "beat_index": 1084,
          "section": "chorus"
        },
        {
          "t": 135625,
          "type": "note",
          "pitch": 68,
          "duration_ms": 115,
          "velocity": 127,
          "beat_index": 1085,
          "section": "chorus"
        },
        {
          "t": 135750,
          "type": "note",
          "pitch": 70,
          "duration_ms": 115,
          "velocity": 120,
          "beat_index": 1086,
          "section": "chorus"
        },
        {
          "t": 135875,
          "type": "note",
          "pitch": 72,
          "duration_ms": 115,
          "velocity": 127,
          "beat_index": 1087,
          "section": "chorus"
        },
        {
          "t": 136000,
          "type": "note",
          "pitch": 60,
          "duration_ms": 115,
          "velocity": 120,
          "beat_index": 1088,
          "section": "chorus"
        },
        {
          "t": 136125,
          "type": "note",
          "pitch": 72,
          "duration_ms": 115,
          "velocity": 127,
          "beat_index": 1089,
          "section": "chorus"
        },
        {
          "t": 136250,
          "type": "note",
          "pitch": 65,
          "duration_ms": 115,
          "velocity": 120,
          "beat_index": 1090,
          "section": "chorus"
        },
        {
          "t": 136375,
          "type": "note",
          "pitch": 60,
          "duration_ms": 115,
          "velocity": 127,
          "beat_index": 1091,
          "section": "chorus"
        },
        {
          "t": 136500,
          "type": "note",
          "pitch": 67,
          "duration_ms": 115,
          "velocity": 120,
          "beat_index": 1092,
          "section": "chorus"
        },
        {
          "t": 136625,
          "type": "note",
          "pitch": 60,
          "duration_ms": 115,
          "velocity": 127,
          "beat_index": 1093,
          "section": "chorus"
        },
        {
          "t": 136750,
          "type": "note",
          "pitch": 68,
          "duration_ms": 115,
          "velocity": 120,
          "beat_index": 1094,
          "section": "chorus"
        },
        {
          "t": 136875,
          "type": "note",
          "pitch": 67,
          "duration_ms": 115,
          "velocity": 127,
          "beat_index": 1095,
          "section": "chorus"
        },
        {
          "t": 137000,
          "type": "note",
          "pitch": 60,
          "duration_ms": 115,
          "velocity": 120,
          "beat_index": 1096,
          "section": "chorus"
        },
        {
          "t": 137125,
          "type": "note",
          "pitch": 72,
          "duration_ms": 115,
          "velocity": 127,
          "beat_index": 1097,
          "section": "chorus"
        },
        {
          "t": 137250,
          "type": "note",
          "pitch": 65,
          "duration_ms": 115,
          "velocity": 120,
          "beat_index": 1098,
          "section": "chorus"
        },
        {
          "t": 137375,
          "type": "note",
          "pitch": 60,
          "duration_ms": 115,
          "velocity": 127,
          "beat_index": 1099,
          "section": "chorus"
        },
        {
          "t": 137500,
          "type": "note",
          "pitch": 67,
          "duration_ms": 115,
          "velocity": 120,
          "beat_index": 1100,
          "section": "chorus"
        },
        {
          "t": 137625,
          "type": "note",
          "pitch": 68,
          "duration_ms": 115,
          "velocity": 127,
          "beat_index": 1101,
          "section": "chorus"
        },
        {
          "t": 137750,
          "type": "note",
          "pitch": 70,
          "duration_ms": 115,
          "velocity": 120,
          "beat_index": 1102,
          "section": "chorus"
        },
        {
          "t": 137875,
          "type": "note",
          "pitch": 72,
          "duration_ms": 115,
          "velocity": 127,
          "beat_index": 1103,
          "section": "chorus"
        },
        {
          "t": 138000,
          "type": "note",
          "pitch": 60,
          "duration_ms": 115,
          "velocity": 120,
          "beat_index": 1104,
          "section": "chorus"
        },
        {
          "t": 138125,
          "type": "note",
          "pitch": 72,
          "duration_ms": 115,
          "velocity": 127,
          "beat_index": 1105,
          "section": "chorus"
        },
        {
          "t": 138250,
          "type": "note",
          "pitch": 65,
          "duration_ms": 115,
          "velocity": 120,
          "beat_index": 1106,
          "section": "chorus"
        },
        {
          "t": 138375,
          "type": "note",
          "pitch": 60,
          "duration_ms": 115,
          "velocity": 127,
          "beat_index": 1107,
          "section": "chorus"
        },
        {
          "t": 138500,
          "type": "note",
          "pitch": 67,
          "duration_ms": 115,
          "velocity": 120,
          "beat_index": 1108,
          "section": "chorus"
        },
        {
          "t": 138625,
          "type": "note",
          "pitch": 60,
          "duration_ms": 115,
          "velocity": 127,
          "beat_index": 1109,
          "section": "chorus"
        },
        {
          "t": 138750,
          "type": "note",
          "pitch": 68,
          "duration_ms": 115,
          "velocity": 120,
          "beat_index": 1110,
          "section": "chorus"
        },
        {
          "t": 138875,
          "type": "note",
          "pitch": 67,
          "duration_ms": 115,
          "velocity": 127,
          "beat_index": 1111,
          "section": "chorus"
        },
        {
          "t": 139000,
          "type": "note",
          "pitch": 60,
          "duration_ms": 115,
          "velocity": 120,
          "beat_index": 1112,
          "section": "chorus"
        },
        {
          "t": 139125,
          "type": "note",
          "pitch": 72,
          "duration_ms": 115,
          "velocity": 127,
          "beat_index": 1113,
          "section": "chorus"
        },
        {
          "t": 139250,
          "type": "note",
          "pitch": 65,
          "duration_ms": 115,
          "velocity": 120,
          "beat_index": 1114,
          "section": "chorus"
        },
        {
          "t": 139375,
          "type": "note",
          "pitch": 60,
          "duration_ms": 115,
          "velocity": 127,
          "beat_index": 1115,
          "section": "chorus"
        },
        {
          "t": 139500,
          "type": "note",
          "pitch": 67,
          "duration_ms": 115,
          "velocity": 120,
          "beat_index": 1116,
          "section": "chorus"
        },
        {
          "t": 139625,
          "type": "note",
          "pitch": 68,
          "duration_ms": 115,
          "velocity": 127,
          "beat_index": 1117,
          "section": "chorus"
        },
        {
          "t": 139750,
          "type": "note",
          "pitch": 70,
          "duration_ms": 115,
          "velocity": 120,
          "beat_index": 1118,
          "section": "chorus"
        },
        {
          "t": 139875,
          "type": "note",
          "pitch": 72,
          "duration_ms": 115,
          "velocity": 127,
          "beat_index": 1119,
          "section": "chorus"
        },
        {
          "t": 140000,
          "type": "note",
          "pitch": 60,
          "duration_ms": 115,
          "velocity": 120,
          "beat_index": 1120,
          "section": "chorus"
        },
        {
          "t": 140125,
          "type": "note",
          "pitch": 72,
          "duration_ms": 115,
          "velocity": 127,
          "beat_index": 1121,
          "section": "chorus"
        },
        {
          "t": 140250,
          "type": "note",
          "pitch": 65,
          "duration_ms": 115,
          "velocity": 120,
          "beat_index": 1122,
          "section": "chorus"
        },
        {
          "t": 140375,
          "type": "note",
          "pitch": 60,
          "duration_ms": 115,
          "velocity": 127,
          "beat_index": 1123,
          "section": "chorus"
        },
        {
          "t": 140500,
          "type": "note",
          "pitch": 67,
          "duration_ms": 115,
          "velocity": 120,
          "beat_index": 1124,
          "section": "chorus"
        },
        {
          "t": 140625,
          "type": "note",
          "pitch": 60,
          "duration_ms": 115,
          "velocity": 127,
          "beat_index": 1125,
          "section": "chorus"
        },
        {
          "t": 140750,
          "type": "note",
          "pitch": 68,
          "duration_ms": 115,
          "velocity": 120,
          "beat_index": 1126,
          "section": "chorus"
        },
        {
          "t": 140875,
          "type": "note",
          "pitch": 67,
          "duration_ms": 115,
          "velocity": 127,
          "beat_index": 1127,
          "section": "chorus"
        },
        {
          "t": 141000,
          "type": "note",
          "pitch": 60,
          "duration_ms": 115,
          "velocity": 120,
          "beat_index": 1128,
          "section": "chorus"
        },
        {
          "t": 141125,
          "type": "note",
          "pitch": 72,
          "duration_ms": 115,
          "velocity": 127,
          "beat_index": 1129,
          "section": "chorus"
        },
        {
          "t": 141250,
          "type": "note",
          "pitch": 65,
          "duration_ms": 115,
          "velocity": 120,
          "beat_index": 1130,
          "section": "chorus"
        },
        {
          "t": 141375,
          "type": "note",
          "pitch": 60,
          "duration_ms": 115,
          "velocity": 127,
          "beat_index": 1131,
          "section": "chorus"
        },
        {
          "t": 141500,
          "type": "note",
          "pitch": 67,
          "duration_ms": 115,
          "velocity": 120,
          "beat_index": 1132,
          "section": "chorus"
        },
        {
          "t": 141625,
          "type": "note",
          "pitch": 68,
          "duration_ms": 115,
          "velocity": 127,
          "beat_index": 1133,
          "section": "chorus"
        },
        {
          "t": 141750,
          "type": "note",
          "pitch": 70,
          "duration_ms": 115,
          "velocity": 120,
          "beat_index": 1134,
          "section": "chorus"
        },
        {
          "t": 141875,
          "type": "note",
          "pitch": 72,
          "duration_ms": 115,
          "velocity": 127,
          "beat_index": 1135,
          "section": "chorus"
        },
        {
          "t": 142000,
          "type": "note",
          "pitch": 60,
          "duration_ms": 115,
          "velocity": 120,
          "beat_index": 1136,
          "section": "chorus"
        },
        {
          "t": 142125,
          "type": "note",
          "pitch": 72,
          "duration_ms": 115,
          "velocity": 127,
          "beat_index": 1137,
          "section": "chorus"
        },
        {
          "t": 142250,
          "type": "note",
          "pitch": 65,
          "duration_ms": 115,
          "velocity": 120,
          "beat_index": 1138,
          "section": "chorus"
        },
        {
          "t": 142375,
          "type": "note",
          "pitch": 60,
          "duration_ms": 115,
          "velocity": 127,
          "beat_index": 1139,
          "section": "chorus"
        },
        {
          "t": 142500,
          "type": "note",
          "pitch": 67,
          "duration_ms": 115,
          "velocity": 120,
          "beat_index": 1140,
          "section": "chorus"
        },
        {
          "t": 142625,
          "type": "note",
          "pitch": 60,
          "duration_ms": 115,
          "velocity": 127,
          "beat_index": 1141,
          "section": "chorus"
        },
        {
          "t": 142750,
          "type": "note",
          "pitch": 68,
          "duration_ms": 115,
          "velocity": 120,
          "beat_index": 1142,
          "section": "chorus"
        },
        {
          "t": 142875,
          "type": "note",
          "pitch": 67,
          "duration_ms": 115,
          "velocity": 127,
          "beat_index": 1143,
          "section": "chorus"
        },
        {
          "t": 143000,
          "type": "note",
          "pitch": 60,
          "duration_ms": 115,
          "velocity": 120,
          "beat_index": 1144,
          "section": "chorus"
        },
        {
          "t": 143125,
          "type": "note",
          "pitch": 72,
          "duration_ms": 115,
          "velocity": 127,
          "beat_index": 1145,
          "section": "chorus"
        },
        {
          "t": 143250,
          "type": "note",
          "pitch": 65,
          "duration_ms": 115,
          "velocity": 120,
          "beat_index": 1146,
          "section": "chorus"
        },
        {
          "t": 143375,
          "type": "note",
          "pitch": 60,
          "duration_ms": 115,
          "velocity": 127,
          "beat_index": 1147,
          "section": "chorus"
        },
        {
          "t": 143500,
          "type": "note",
          "pitch": 67,
          "duration_ms": 115,
          "velocity": 120,
          "beat_index": 1148,
          "section": "chorus"
        },
        {
          "t": 143625,
          "type": "note",
          "pitch": 68,
          "duration_ms": 115,
          "velocity": 127,
          "beat_index": 1149,
          "section": "chorus"
        },
        {
          "t": 143750,
          "type": "note",
          "pitch": 70,
          "duration_ms": 115,
          "velocity": 120,
          "beat_index": 1150,
          "section": "chorus"
        },
        {
          "t": 143875,
          "type": "note",
          "pitch": 72,
          "duration_ms": 115,
          "velocity": 127,
          "beat_index": 1151,
          "section": "chorus"
        },
        {
          "t": 144000,
          "type": "note",
          "pitch": 60,
          "duration_ms": 115,
          "velocity": 120,
          "beat_index": 1152,
          "section": "chorus"
        },
        {
          "t": 144125,
          "type": "note",
          "pitch": 72,
          "duration_ms": 115,
          "velocity": 127,
          "beat_index": 1153,
          "section": "chorus"
        },
        {
          "t": 144250,
          "type": "note",
          "pitch": 65,
          "duration_ms": 115,
          "velocity": 120,
          "beat_index": 1154,
          "section": "chorus"
        },
        {
          "t": 144375,
          "type": "note",
          "pitch": 60,
          "duration_ms": 115,
          "velocity": 127,
          "beat_index": 1155,
          "section": "chorus"
        },
        {
          "t": 144500,
          "type": "note",
          "pitch": 67,
          "duration_ms": 115,
          "velocity": 120,
          "beat_index": 1156,
          "section": "chorus"
        },
        {
          "t": 144625,
          "type": "note",
          "pitch": 60,
          "duration_ms": 115,
          "velocity": 127,
          "beat_index": 1157,
          "section": "chorus"
        },
        {
          "t": 144750,
          "type": "note",
          "pitch": 68,
          "duration_ms": 115,
          "velocity": 120,
          "beat_index": 1158,
          "section": "chorus"
        },
        {
          "t": 144875,
          "type": "note",
          "pitch": 67,
          "duration_ms": 115,
          "velocity": 127,
          "beat_index": 1159,
          "section": "chorus"
        },
        {
          "t": 145000,
          "type": "note",
          "pitch": 60,
          "duration_ms": 115,
          "velocity": 120,
          "beat_index": 1160,
          "section": "chorus"
        },
        {
          "t": 145125,
          "type": "note",
          "pitch": 72,
          "duration_ms": 115,
          "velocity": 127,
          "beat_index": 1161,
          "section": "chorus"
        },
        {
          "t": 145250,
          "type": "note",
          "pitch": 65,
          "duration_ms": 115,
          "velocity": 120,
          "beat_index": 1162,
          "section": "chorus"
        },
        {
          "t": 145375,
          "type": "note",
          "pitch": 60,
          "duration_ms": 115,
          "velocity": 127,
          "beat_index": 1163,
          "section": "chorus"
        },
        {
          "t": 145500,
          "type": "note",
          "pitch": 67,
          "duration_ms": 115,
          "velocity": 120,
          "beat_index": 1164,
          "section": "chorus"
        },
        {
          "t": 145625,
          "type": "note",
          "pitch": 68,
          "duration_ms": 115,
          "velocity": 127,
          "beat_index": 1165,
          "section": "chorus"
        },
        {
          "t": 145750,
          "type": "note",
          "pitch": 70,
          "duration_ms": 115,
          "velocity": 120,
          "beat_index": 1166,
          "section": "chorus"
        },
        {
          "t": 145875,
          "type": "note",
          "pitch": 72,
          "duration_ms": 115,
          "velocity": 127,
          "beat_index": 1167,
          "section": "chorus"
        },
        {
          "t": 146000,
          "type": "note",
          "pitch": 60,
          "duration_ms": 115,
          "velocity": 120,
          "beat_index": 1168,
          "section": "chorus"
        },
        {
          "t": 146125,
          "type": "note",
          "pitch": 72,
          "duration_ms": 115,
          "velocity": 127,
          "beat_index": 1169,
          "section": "chorus"
        },
        {
          "t": 146250,
          "type": "note",
          "pitch": 65,
          "duration_ms": 115,
          "velocity": 120,
          "beat_index": 1170,
          "section": "chorus"
        },
        {
          "t": 146375,
          "type": "note",
          "pitch": 60,
          "duration_ms": 115,
          "velocity": 127,
          "beat_index": 1171,
          "section": "chorus"
        },
        {
          "t": 146500,
          "type": "note",
          "pitch": 67,
          "duration_ms": 115,
          "velocity": 120,
          "beat_index": 1172,
          "section": "chorus"
        },
        {
          "t": 146625,
          "type": "note",
          "pitch": 60,
          "duration_ms": 115,
          "velocity": 127,
          "beat_index": 1173,
          "section": "chorus"
        },
        {
          "t": 146750,
          "type": "note",
          "pitch": 68,
          "duration_ms": 115,
          "velocity": 120,
          "beat_index": 1174,
          "section": "chorus"
        },
        {
          "t": 146875,
          "type": "note",
          "pitch": 67,
          "duration_ms": 115,
          "velocity": 127,
          "beat_index": 1175,
          "section": "chorus"
        },
        {
          "t": 147000,
          "type": "note",
          "pitch": 60,
          "duration_ms": 115,
          "velocity": 120,
          "beat_index": 1176,
          "section": "chorus"
        },
        {
          "t": 147125,
          "type": "note",
          "pitch": 72,
          "duration_ms": 115,
          "velocity": 127,
          "beat_index": 1177,
          "section": "chorus"
        },
        {
          "t": 147250,
          "type": "note",
          "pitch": 65,
          "duration_ms": 115,
          "velocity": 120,
          "beat_index": 1178,
          "section": "chorus"
        },
        {
          "t": 147375,
          "type": "note",
          "pitch": 60,
          "duration_ms": 115,
          "velocity": 127,
          "beat_index": 1179,
          "section": "chorus"
        },
        {
          "t": 147500,
          "type": "note",
          "pitch": 67,
          "duration_ms": 115,
          "velocity": 120,
          "beat_index": 1180,
          "section": "chorus"
        },
        {
          "t": 147625,
          "type": "note",
          "pitch": 68,
          "duration_ms": 115,
          "velocity": 127,
          "beat_index": 1181,
          "section": "chorus"
        },
        {
          "t": 147750,
          "type": "note",
          "pitch": 70,
          "duration_ms": 115,
          "velocity": 120,
          "beat_index": 1182,
          "section": "chorus"
        },
        {
          "t": 147875,
          "type": "note",
          "pitch": 72,
          "duration_ms": 115,
          "velocity": 127,
          "beat_index": 1183,
          "section": "chorus"
        },
        {
          "t": 148000,
          "type": "note",
          "pitch": 60,
          "duration_ms": 115,
          "velocity": 120,
          "beat_index": 1184,
          "section": "chorus"
        },
        {
          "t": 148125,
          "type": "note",
          "pitch": 72,
          "duration_ms": 115,
          "velocity": 127,
          "beat_index": 1185,
          "section": "chorus"
        },
        {
          "t": 148250,
          "type": "note",
          "pitch": 65,
          "duration_ms": 115,
          "velocity": 120,
          "beat_index": 1186,
          "section": "chorus"
        },
        {
          "t": 148375,
          "type": "note",
          "pitch": 60,
          "duration_ms": 115,
          "velocity": 127,
          "beat_index": 1187,
          "section": "chorus"
        },
        {
          "t": 148500,
          "type": "note",
          "pitch": 67,
          "duration_ms": 115,
          "velocity": 120,
          "beat_index": 1188,
          "section": "chorus"
        },
        {
          "t": 148625,
          "type": "note",
          "pitch": 60,
          "duration_ms": 115,
          "velocity": 127,
          "beat_index": 1189,
          "section": "chorus"
        },
        {
          "t": 148750,
          "type": "note",
          "pitch": 68,
          "duration_ms": 115,
          "velocity": 120,
          "beat_index": 1190,
          "section": "chorus"
        },
        {
          "t": 148875,
          "type": "note",
          "pitch": 67,
          "duration_ms": 115,
          "velocity": 127,
          "beat_index": 1191,
          "section": "chorus"
        },
        {
          "t": 149000,
          "type": "note",
          "pitch": 60,
          "duration_ms": 115,
          "velocity": 120,
          "beat_index": 1192,
          "section": "chorus"
        },
        {
          "t": 149125,
          "type": "note",
          "pitch": 72,
          "duration_ms": 115,
          "velocity": 127,
          "beat_index": 1193,
          "section": "chorus"
        },
        {
          "t": 149250,
          "type": "note",
          "pitch": 65,
          "duration_ms": 115,
          "velocity": 120,
          "beat_index": 1194,
          "section": "chorus"
        },
        {
          "t": 149375,
          "type": "note",
          "pitch": 60,
          "duration_ms": 115,
          "velocity": 127,
          "beat_index": 1195,
          "section": "chorus"
        },
        {
          "t": 149500,
          "type": "note",
          "pitch": 67,
          "duration_ms": 115,
          "velocity": 120,
          "beat_index": 1196,
          "section": "chorus"
        },
        {
          "t": 149625,
          "type": "note",
          "pitch": 68,
          "duration_ms": 115,
          "velocity": 127,
          "beat_index": 1197,
          "section": "chorus"
        },
        {
          "t": 149750,
          "type": "note",
          "pitch": 70,
          "duration_ms": 115,
          "velocity": 120,
          "beat_index": 1198,
          "section": "chorus"
        },
        {
          "t": 149875,
          "type": "note",
          "pitch": 72,
          "duration_ms": 115,
          "velocity": 127,
          "beat_index": 1199,
          "section": "chorus"
        },
        {
          "t": 150000,
          "type": "note",
          "pitch": 60,
          "duration_ms": 115,
          "velocity": 120,
          "beat_index": 1200,
          "section": "chorus"
        },
        {
          "t": 150125,
          "type": "note",
          "pitch": 72,
          "duration_ms": 115,
          "velocity": 127,
          "beat_index": 1201,
          "section": "chorus"
        },
        {
          "t": 150250,
          "type": "note",
          "pitch": 65,
          "duration_ms": 115,
          "velocity": 120,
          "beat_index": 1202,
          "section": "chorus"
        },
        {
          "t": 150375,
          "type": "note",
          "pitch": 60,
          "duration_ms": 115,
          "velocity": 127,
          "beat_index": 1203,
          "section": "chorus"
        },
        {
          "t": 150500,
          "type": "note",
          "pitch": 67,
          "duration_ms": 115,
          "velocity": 120,
          "beat_index": 1204,
          "section": "chorus"
        },
        {
          "t": 150625,
          "type": "note",
          "pitch": 60,
          "duration_ms": 115,
          "velocity": 127,
          "beat_index": 1205,
          "section": "chorus"
        },
        {
          "t": 150750,
          "type": "note",
          "pitch": 68,
          "duration_ms": 115,
          "velocity": 120,
          "beat_index": 1206,
          "section": "chorus"
        },
        {
          "t": 150875,
          "type": "note",
          "pitch": 67,
          "duration_ms": 115,
          "velocity": 127,
          "beat_index": 1207,
          "section": "chorus"
        },
        {
          "t": 151000,
          "type": "note",
          "pitch": 60,
          "duration_ms": 115,
          "velocity": 120,
          "beat_index": 1208,
          "section": "chorus"
        },
        {
          "t": 151125,
          "type": "note",
          "pitch": 72,
          "duration_ms": 115,
          "velocity": 127,
          "beat_index": 1209,
          "section": "chorus"
        },
        {
          "t": 151250,
          "type": "note",
          "pitch": 65,
          "duration_ms": 115,
          "velocity": 120,
          "beat_index": 1210,
          "section": "chorus"
        },
        {
          "t": 151375,
          "type": "note",
          "pitch": 60,
          "duration_ms": 115,
          "velocity": 127,
          "beat_index": 1211,
          "section": "chorus"
        },
        {
          "t": 151500,
          "type": "note",
          "pitch": 67,
          "duration_ms": 115,
          "velocity": 120,
          "beat_index": 1212,
          "section": "chorus"
        },
        {
          "t": 151625,
          "type": "note",
          "pitch": 68,
          "duration_ms": 115,
          "velocity": 127,
          "beat_index": 1213,
          "section": "chorus"
        },
        {
          "t": 151750,
          "type": "note",
          "pitch": 70,
          "duration_ms": 115,
          "velocity": 120,
          "beat_index": 1214,
          "section": "chorus"
        },
        {
          "t": 151875,
          "type": "note",
          "pitch": 72,
          "duration_ms": 115,
          "velocity": 127,
          "beat_index": 1215,
          "section": "chorus"
        },
        {
          "t": 152000,
          "type": "note",
          "pitch": 60,
          "duration_ms": 115,
          "velocity": 120,
          "beat_index": 1216,
          "section": "chorus"
        },
        {
          "t": 152125,
          "type": "note",
          "pitch": 72,
          "duration_ms": 115,
          "velocity": 127,
          "beat_index": 1217,
          "section": "chorus"
        },
        {
          "t": 152250,
          "type": "note",
          "pitch": 65,
          "duration_ms": 115,
          "velocity": 120,
          "beat_index": 1218,
          "section": "chorus"
        },
        {
          "t": 152375,
          "type": "note",
          "pitch": 60,
          "duration_ms": 115,
          "velocity": 127,
          "beat_index": 1219,
          "section": "chorus"
        },
        {
          "t": 152500,
          "type": "note",
          "pitch": 67,
          "duration_ms": 115,
          "velocity": 120,
          "beat_index": 1220,
          "section": "chorus"
        },
        {
          "t": 152625,
          "type": "note",
          "pitch": 60,
          "duration_ms": 115,
          "velocity": 127,
          "beat_index": 1221,
          "section": "chorus"
        },
        {
          "t": 152750,
          "type": "note",
          "pitch": 68,
          "duration_ms": 115,
          "velocity": 120,
          "beat_index": 1222,
          "section": "chorus"
        },
        {
          "t": 152875,
          "type": "note",
          "pitch": 67,
          "duration_ms": 115,
          "velocity": 127,
          "beat_index": 1223,
          "section": "chorus"
        },
        {
          "t": 153000,
          "type": "note",
          "pitch": 60,
          "duration_ms": 115,
          "velocity": 120,
          "beat_index": 1224,
          "section": "chorus"
        },
        {
          "t": 153125,
          "type": "note",
          "pitch": 72,
          "duration_ms": 115,
          "velocity": 127,
          "beat_index": 1225,
          "section": "chorus"
        },
        {
          "t": 153250,
          "type": "note",
          "pitch": 65,
          "duration_ms": 115,
          "velocity": 120,
          "beat_index": 1226,
          "section": "chorus"
        },
        {
          "t": 153375,
          "type": "note",
          "pitch": 60,
          "duration_ms": 115,
          "velocity": 127,
          "beat_index": 1227,
          "section": "chorus"
        },
        {
          "t": 153500,
          "type": "note",
          "pitch": 67,
          "duration_ms": 115,
          "velocity": 120,
          "beat_index": 1228,
          "section": "chorus"
        },
        {
          "t": 153625,
          "type": "note",
          "pitch": 68,
          "duration_ms": 115,
          "velocity": 127,
          "beat_index": 1229,
          "section": "chorus"
        },
        {
          "t": 153750,
          "type": "note",
          "pitch": 70,
          "duration_ms": 115,
          "velocity": 120,
          "beat_index": 1230,
          "section": "chorus"
        },
        {
          "t": 153875,
          "type": "note",
          "pitch": 72,
          "duration_ms": 115,
          "velocity": 127,
          "beat_index": 1231,
          "section": "chorus"
        },
        {
          "t": 154000,
          "type": "note",
          "pitch": 60,
          "duration_ms": 115,
          "velocity": 120,
          "beat_index": 1232,
          "section": "chorus"
        },
        {
          "t": 154125,
          "type": "note",
          "pitch": 72,
          "duration_ms": 115,
          "velocity": 127,
          "beat_index": 1233,
          "section": "chorus"
        },
        {
          "t": 154250,
          "type": "note",
          "pitch": 65,
          "duration_ms": 115,
          "velocity": 120,
          "beat_index": 1234,
          "section": "chorus"
        },
        {
          "t": 154375,
          "type": "note",
          "pitch": 60,
          "duration_ms": 115,
          "velocity": 127,
          "beat_index": 1235,
          "section": "chorus"
        },
        {
          "t": 154500,
          "type": "note",
          "pitch": 67,
          "duration_ms": 115,
          "velocity": 120,
          "beat_index": 1236,
          "section": "chorus"
        },
        {
          "t": 154625,
          "type": "note",
          "pitch": 60,
          "duration_ms": 115,
          "velocity": 127,
          "beat_index": 1237,
          "section": "chorus"
        },
        {
          "t": 154750,
          "type": "note",
          "pitch": 68,
          "duration_ms": 115,
          "velocity": 120,
          "beat_index": 1238,
          "section": "chorus"
        },
        {
          "t": 154875,
          "type": "note",
          "pitch": 67,
          "duration_ms": 115,
          "velocity": 127,
          "beat_index": 1239,
          "section": "chorus"
        },
        {
          "t": 155000,
          "type": "note",
          "pitch": 60,
          "duration_ms": 115,
          "velocity": 120,
          "beat_index": 1240,
          "section": "chorus"
        },
        {
          "t": 155125,
          "type": "note",
          "pitch": 72,
          "duration_ms": 115,
          "velocity": 127,
          "beat_index": 1241,
          "section": "chorus"
        },
        {
          "t": 155250,
          "type": "note",
          "pitch": 65,
          "duration_ms": 115,
          "velocity": 120,
          "beat_index": 1242,
          "section": "chorus"
        },
        {
          "t": 155375,
          "type": "note",
          "pitch": 60,
          "duration_ms": 115,
          "velocity": 127,
          "beat_index": 1243,
          "section": "chorus"
        },
        {
          "t": 155500,
          "type": "note",
          "pitch": 67,
          "duration_ms": 115,
          "velocity": 120,
          "beat_index": 1244,
          "section": "chorus"
        },
        {
          "t": 155625,
          "type": "note",
          "pitch": 68,
          "duration_ms": 115,
          "velocity": 127,
          "beat_index": 1245,
          "section": "chorus"
        },
        {
          "t": 155750,
          "type": "note",
          "pitch": 70,
          "duration_ms": 115,
          "velocity": 120,
          "beat_index": 1246,
          "section": "chorus"
        },
        {
          "t": 155875,
          "type": "note",
          "pitch": 72,
          "duration_ms": 115,
          "velocity": 127,
          "beat_index": 1247,
          "section": "chorus"
        },
        {
          "t": 156000,
          "type": "note",
          "pitch": 60,
          "duration_ms": 115,
          "velocity": 120,
          "beat_index": 1248,
          "section": "chorus"
        },
        {
          "t": 156125,
          "type": "note",
          "pitch": 72,
          "duration_ms": 115,
          "velocity": 127,
          "beat_index": 1249,
          "section": "chorus"
        },
        {
          "t": 156250,
          "type": "note",
          "pitch": 65,
          "duration_ms": 115,
          "velocity": 120,
          "beat_index": 1250,
          "section": "chorus"
        },
        {
          "t": 156375,
          "type": "note",
          "pitch": 60,
          "duration_ms": 115,
          "velocity": 127,
          "beat_index": 1251,
          "section": "chorus"
        },
        {
          "t": 156500,
          "type": "note",
          "pitch": 67,
          "duration_ms": 115,
          "velocity": 120,
          "beat_index": 1252,
          "section": "chorus"
        },
        {
          "t": 156625,
          "type": "note",
          "pitch": 60,
          "duration_ms": 115,
          "velocity": 127,
          "beat_index": 1253,
          "section": "chorus"
        },
        {
          "t": 156750,
          "type": "note",
          "pitch": 68,
          "duration_ms": 115,
          "velocity": 120,
          "beat_index": 1254,
          "section": "chorus"
        },
        {
          "t": 156875,
          "type": "note",
          "pitch": 67,
          "duration_ms": 115,
          "velocity": 127,
          "beat_index": 1255,
          "section": "chorus"
        },
        {
          "t": 157000,
          "type": "note",
          "pitch": 60,
          "duration_ms": 115,
          "velocity": 120,
          "beat_index": 1256,
          "section": "chorus"
        },
        {
          "t": 157125,
          "type": "note",
          "pitch": 72,
          "duration_ms": 115,
          "velocity": 127,
          "beat_index": 1257,
          "section": "chorus"
        },
        {
          "t": 157250,
          "type": "note",
          "pitch": 65,
          "duration_ms": 115,
          "velocity": 120,
          "beat_index": 1258,
          "section": "chorus"
        },
        {
          "t": 157375,
          "type": "note",
          "pitch": 60,
          "duration_ms": 115,
          "velocity": 127,
          "beat_index": 1259,
          "section": "chorus"
        },
        {
          "t": 157500,
          "type": "note",
          "pitch": 67,
          "duration_ms": 115,
          "velocity": 120,
          "beat_index": 1260,
          "section": "chorus"
        },
        {
          "t": 157625,
          "type": "note",
          "pitch": 68,
          "duration_ms": 115,
          "velocity": 127,
          "beat_index": 1261,
          "section": "chorus"
        },
        {
          "t": 157750,
          "type": "note",
          "pitch": 70,
          "duration_ms": 115,
          "velocity": 120,
          "beat_index": 1262,
          "section": "chorus"
        },
        {
          "t": 157875,
          "type": "note",
          "pitch": 72,
          "duration_ms": 115,
          "velocity": 127,
          "beat_index": 1263,
          "section": "chorus"
        },
        {
          "t": 158000,
          "type": "note",
          "pitch": 60,
          "duration_ms": 115,
          "velocity": 120,
          "beat_index": 1264,
          "section": "chorus"
        },
        {
          "t": 158125,
          "type": "note",
          "pitch": 72,
          "duration_ms": 115,
          "velocity": 127,
          "beat_index": 1265,
          "section": "chorus"
        },
        {
          "t": 158250,
          "type": "note",
          "pitch": 65,
          "duration_ms": 115,
          "velocity": 120,
          "beat_index": 1266,
          "section": "chorus"
        },
        {
          "t": 158375,
          "type": "note",
          "pitch": 60,
          "duration_ms": 115,
          "velocity": 127,
          "beat_index": 1267,
          "section": "chorus"
        },
        {
          "t": 158500,
          "type": "note",
          "pitch": 67,
          "duration_ms": 115,
          "velocity": 120,
          "beat_index": 1268,
          "section": "chorus"
        },
        {
          "t": 158625,
          "type": "note",
          "pitch": 60,
          "duration_ms": 115,
          "velocity": 127,
          "beat_index": 1269,
          "section": "chorus"
        },
        {
          "t": 158750,
          "type": "note",
          "pitch": 68,
          "duration_ms": 115,
          "velocity": 120,
          "beat_index": 1270,
          "section": "chorus"
        },
        {
          "t": 158875,
          "type": "note",
          "pitch": 67,
          "duration_ms": 115,
          "velocity": 127,
          "beat_index": 1271,
          "section": "chorus"
        },
        {
          "t": 159000,
          "type": "note",
          "pitch": 60,
          "duration_ms": 115,
          "velocity": 120,
          "beat_index": 1272,
          "section": "chorus"
        },
        {
          "t": 159125,
          "type": "note",
          "pitch": 72,
          "duration_ms": 115,
          "velocity": 127,
          "beat_index": 1273,
          "section": "chorus"
        },
        {
          "t": 159250,
          "type": "note",
          "pitch": 65,
          "duration_ms": 115,
          "velocity": 120,
          "beat_index": 1274,
          "section": "chorus"
        },
        {
          "t": 159375,
          "type": "note",
          "pitch": 60,
          "duration_ms": 115,
          "velocity": 127,
          "beat_index": 1275,
          "section": "chorus"
        },
        {
          "t": 159500,
          "type": "note",
          "pitch": 67,
          "duration_ms": 115,
          "velocity": 120,
          "beat_index": 1276,
          "section": "chorus"
        },
        {
          "t": 159625,
          "type": "note",
          "pitch": 68,
          "duration_ms": 115,
          "velocity": 127,
          "beat_index": 1277,
          "section": "chorus"
        },
        {
          "t": 159750,
          "type": "note",
          "pitch": 70,
          "duration_ms": 115,
          "velocity": 120,
          "beat_index": 1278,
          "section": "chorus"
        },
        {
          "t": 159875,
          "type": "note",
          "pitch": 72,
          "duration_ms": 115,
          "velocity": 127,
          "beat_index": 1279,
          "section": "chorus"
        },
        {
          "t": 160000,
          "type": "note",
          "pitch": 60,
          "duration_ms": 460,
          "velocity": 80,
          "beat_index": 1280,
          "section": "outro"
        },
        {
          "t": 160500,
          "type": "note",
          "pitch": 58,
          "duration_ms": 460,
          "velocity": 70,
          "beat_index": 1284,
          "section": "outro"
        },
        {
          "t": 161000,
          "type": "note",
          "pitch": 56,
          "duration_ms": 460,
          "velocity": 60,
          "beat_index": 1288,
          "section": "outro"
        },
        {
          "t": 161500,
          "type": "note",
          "pitch": 60,
          "duration_ms": 460,
          "velocity": 50,
          "beat_index": 1292,
          "section": "outro"
        },
        {
          "t": 162000,
          "type": "note",
          "pitch": 60,
          "duration_ms": 460,
          "velocity": 80,
          "beat_index": 1296,
          "section": "outro"
        },
        {
          "t": 162500,
          "type": "note",
          "pitch": 58,
          "duration_ms": 460,
          "velocity": 70,
          "beat_index": 1300,
          "section": "outro"
        },
        {
          "t": 163000,
          "type": "note",
          "pitch": 56,
          "duration_ms": 460,
          "velocity": 60,
          "beat_index": 1304,
          "section": "outro"
        },
        {
          "t": 163500,
          "type": "note",
          "pitch": 60,
          "duration_ms": 460,
          "velocity": 50,
          "beat_index": 1308,
          "section": "outro"
        },
        {
          "t": 164000,
          "type": "note",
          "pitch": 60,
          "duration_ms": 460,
          "velocity": 80,
          "beat_index": 1312,
          "section": "outro"
        },
        {
          "t": 164500,
          "type": "note",
          "pitch": 58,
          "duration_ms": 460,
          "velocity": 70,
          "beat_index": 1316,
          "section": "outro"
        },
        {
          "t": 165000,
          "type": "note",
          "pitch": 56,
          "duration_ms": 460,
          "velocity": 60,
          "beat_index": 1320,
          "section": "outro"
        },
        {
          "t": 165500,
          "type": "note",
          "pitch": 60,
          "duration_ms": 460,
          "velocity": 50,
          "beat_index": 1324,
          "section": "outro"
        },
        {
          "t": 166000,
          "type": "note",
          "pitch": 60,
          "duration_ms": 460,
          "velocity": 80,
          "beat_index": 1328,
          "section": "outro"
        },
        {
          "t": 166500,
          "type": "note",
          "pitch": 58,
          "duration_ms": 460,
          "velocity": 70,
          "beat_index": 1332,
          "section": "outro"
        },
        {
          "t": 167000,
          "type": "note",
          "pitch": 56,
          "duration_ms": 460,
          "velocity": 60,
          "beat_index": 1336,
          "section": "outro"
        },
        {
          "t": 167500,
          "type": "note",
          "pitch": 60,
          "duration_ms": 460,
          "velocity": 50,
          "beat_index": 1340,
          "section": "outro"
        },
        {
          "t": 168000,
          "type": "note",
          "pitch": 60,
          "duration_ms": 460,
          "velocity": 80,
          "beat_index": 1344,
          "section": "outro"
        },
        {
          "t": 168500,
          "type": "note",
          "pitch": 58,
          "duration_ms": 460,
          "velocity": 70,
          "beat_index": 1348,
          "section": "outro"
        },
        {
          "t": 169000,
          "type": "note",
          "pitch": 56,
          "duration_ms": 460,
          "velocity": 60,
          "beat_index": 1352,
          "section": "outro"
        },
        {
          "t": 169500,
          "type": "note",
          "pitch": 60,
          "duration_ms": 460,
          "velocity": 50,
          "beat_index": 1356,
          "section": "outro"
        },
        {
          "t": 170000,
          "type": "note",
          "pitch": 60,
          "duration_ms": 460,
          "velocity": 80,
          "beat_index": 1360,
          "section": "outro"
        },
        {
          "t": 170500,
          "type": "note",
          "pitch": 58,
          "duration_ms": 460,
          "velocity": 70,
          "beat_index": 1364,
          "section": "outro"
        },
        {
          "t": 171000,
          "type": "note",
          "pitch": 56,
          "duration_ms": 460,
          "velocity": 60,
          "beat_index": 1368,
          "section": "outro"
        },
        {
          "t": 171500,
          "type": "note",
          "pitch": 60,
          "duration_ms": 460,
          "velocity": 50,
          "beat_index": 1372,
          "section": "outro"
        },
        {
          "t": 172000,
          "type": "note",
          "pitch": 60,
          "duration_ms": 460,
          "velocity": 80,
          "beat_index": 1376,
          "section": "outro"
        },
        {
          "t": 172500,
          "type": "note",
          "pitch": 58,
          "duration_ms": 460,
          "velocity": 70,
          "beat_index": 1380,
          "section": "outro"
        },
        {
          "t": 173000,
          "type": "note",
          "pitch": 56,
          "duration_ms": 460,
          "velocity": 60,
          "beat_index": 1384,
          "section": "outro"
        },
        {
          "t": 173500,
          "type": "note",
          "pitch": 60,
          "duration_ms": 460,
          "velocity": 50,
          "beat_index": 1388,
          "section": "outro"
        },
        {
          "t": 174000,
          "type": "note",
          "pitch": 60,
          "duration_ms": 460,
          "velocity": 80,
          "beat_index": 1392,
          "section": "outro"
        },
        {
          "t": 174500,
          "type": "note",
          "pitch": 58,
          "duration_ms": 460,
          "velocity": 70,
          "beat_index": 1396,
          "section": "outro"
        },
        {
          "t": 175000,
          "type": "note",
          "pitch": 56,
          "duration_ms": 460,
          "velocity": 60,
          "beat_index": 1400,
          "section": "outro"
        },
        {
          "t": 175500,
          "type": "note",
          "pitch": 60,
          "duration_ms": 460,
          "velocity": 50,
          "beat_index": 1404,
          "section": "outro"
        },
        {
          "t": 176000,
          "type": "note",
          "pitch": 60,
          "duration_ms": 460,
          "velocity": 80,
          "beat_index": 1408,
          "section": "outro"
        },
        {
          "t": 176500,
          "type": "note",
          "pitch": 58,
          "duration_ms": 460,
          "velocity": 70,
          "beat_index": 1412,
          "section": "outro"
        },
        {
          "t": 177000,
          "type": "note",
          "pitch": 56,
          "duration_ms": 460,
          "velocity": 60,
          "beat_index": 1416,
          "section": "outro"
        },
        {
          "t": 177500,
          "type": "note",
          "pitch": 60,
          "duration_ms": 460,
          "velocity": 50,
          "beat_index": 1420,
          "section": "outro"
        },
        {
          "t": 178000,
          "type": "note",
          "pitch": 60,
          "duration_ms": 460,
          "velocity": 80,
          "beat_index": 1424,
          "section": "outro"
        },
        {
          "t": 178500,
          "type": "note",
          "pitch": 58,
          "duration_ms": 460,
          "velocity": 70,
          "beat_index": 1428,
          "section": "outro"
        },
        {
          "t": 179000,
          "type": "note",
          "pitch": 56,
          "duration_ms": 460,
          "velocity": 60,
          "beat_index": 1432,
          "section": "outro"
        },
        {
          "t": 179500,
          "type": "note",
          "pitch": 60,
          "duration_ms": 460,
          "velocity": 50,
          "beat_index": 1436,
          "section": "outro"
        },
        {
          "t": 180000,
          "type": "note",
          "pitch": 60,
          "duration_ms": 460,
          "velocity": 80,
          "beat_index": 1440,
          "section": "outro"
        },
        {
          "t": 180500,
          "type": "note",
          "pitch": 58,
          "duration_ms": 460,
          "velocity": 70,
          "beat_index": 1444,
          "section": "outro"
        },
        {
          "t": 181000,
          "type": "note",
          "pitch": 56,
          "duration_ms": 460,
          "velocity": 60,
          "beat_index": 1448,
          "section": "outro"
        },
        {
          "t": 181500,
          "type": "note",
          "pitch": 60,
          "duration_ms": 460,
          "velocity": 50,
          "beat_index": 1452,
          "section": "outro"
        },
        {
          "t": 182000,
          "type": "note",
          "pitch": 60,
          "duration_ms": 460,
          "velocity": 80,
          "beat_index": 1456,
          "section": "outro"
        },
        {
          "t": 182500,
          "type": "note",
          "pitch": 58,
          "duration_ms": 460,
          "velocity": 70,
          "beat_index": 1460,
          "section": "outro"
        },
        {
          "t": 183000,
          "type": "note",
          "pitch": 56,
          "duration_ms": 460,
          "velocity": 60,
          "beat_index": 1464,
          "section": "outro"
        },
        {
          "t": 183500,
          "type": "note",
          "pitch": 60,
          "duration_ms": 460,
          "velocity": 50,
          "beat_index": 1468,
          "section": "outro"
        },
        {
          "t": 184000,
          "type": "note",
          "pitch": 60,
          "duration_ms": 460,
          "velocity": 80,
          "beat_index": 1472,
          "section": "outro"
        },
        {
          "t": 184500,
          "type": "note",
          "pitch": 58,
          "duration_ms": 460,
          "velocity": 70,
          "beat_index": 1476,
          "section": "outro"
        },
        {
          "t": 185000,
          "type": "note",
          "pitch": 56,
          "duration_ms": 460,
          "velocity": 60,
          "beat_index": 1480,
          "section": "outro"
        },
        {
          "t": 185500,
          "type": "note",
          "pitch": 60,
          "duration_ms": 460,
          "velocity": 50,
          "beat_index": 1484,
          "section": "outro"
        },
        {
          "t": 186000,
          "type": "note",
          "pitch": 60,
          "duration_ms": 460,
          "velocity": 80,
          "beat_index": 1488,
          "section": "outro"
        },
        {
          "t": 186500,
          "type": "note",
          "pitch": 58,
          "duration_ms": 460,
          "velocity": 70,
          "beat_index": 1492,
          "section": "outro"
        },
        {
          "t": 187000,
          "type": "note",
          "pitch": 56,
          "duration_ms": 460,
          "velocity": 60,
          "beat_index": 1496,
          "section": "outro"
        },
        {
          "t": 187500,
          "type": "note",
          "pitch": 60,
          "duration_ms": 460,
          "velocity": 50,
          "beat_index": 1500,
          "section": "outro"
        },
        {
          "t": 188000,
          "type": "note",
          "pitch": 60,
          "duration_ms": 460,
          "velocity": 80,
          "beat_index": 1504,
          "section": "outro"
        },
        {
          "t": 188500,
          "type": "note",
          "pitch": 58,
          "duration_ms": 460,
          "velocity": 70,
          "beat_index": 1508,
          "section": "outro"
        },
        {
          "t": 189000,
          "type": "note",
          "pitch": 56,
          "duration_ms": 460,
          "velocity": 60,
          "beat_index": 1512,
          "section": "outro"
        },
        {
          "t": 189500,
          "type": "note",
          "pitch": 60,
          "duration_ms": 460,
          "velocity": 50,
          "beat_index": 1516,
          "section": "outro"
        },
        {
          "t": 190000,
          "type": "note",
          "pitch": 60,
          "duration_ms": 460,
          "velocity": 80,
          "beat_index": 1520,
          "section": "outro"
        },
        {
          "t": 190500,
          "type": "note",
          "pitch": 58,
          "duration_ms": 460,
          "velocity": 70,
          "beat_index": 1524,
          "section": "outro"
        },
        {
          "t": 191000,
          "type": "note",
          "pitch": 56,
          "duration_ms": 460,
          "velocity": 60,
          "beat_index": 1528,
          "section": "outro"
        },
        {
          "t": 191500,
          "type": "note",
          "pitch": 60,
          "duration_ms": 460,
          "velocity": 50,
          "beat_index": 1532,
          "section": "outro"
        }
      ]
    }
  ]
}