{
  "rsong_version": "1.0",
  "generated_by": "cadence",
  "generated_at": "2026-05-29T05:16:29.599931+00:00",
  "header": {
    "id": "6f95d0e8-1be9-4073-b36e-84c29d532c9a",
    "title": "cadence_game_dark_and_agg",
    "bpm": 155,
    "time_signature": [
      4,
      4
    ],
    "key": "D minor",
    "duration_ms": 135483,
    "genre_tags": [
      "industrial metal",
      "dark ambient",
      "cinematic",
      "aggressive"
    ],
    "total_bars": 88
  },
  "game_meta": {
    "use_case": "game",
    "loop_point_ms": 12387,
    "intensity_curve": [
      0.67,
      0.717,
      0.741,
      0.889,
      0.764,
      0.67
    ],
    "cue_points": [
      {
        "label": "intro",
        "t": 0
      },
      {
        "label": "verse",
        "t": 12387
      },
      {
        "label": "build-up",
        "t": 37161
      },
      {
        "label": "drop",
        "t": 49548
      },
      {
        "label": "bridge",
        "t": 99096
      },
      {
        "label": "outro",
        "t": 123870
      }
    ],
    "energy_level": 5,
    "hit_objects_hint": true,
    "sections": [
      "intro",
      "verse",
      "build-up",
      "drop",
      "bridge",
      "outro"
    ]
  },
  "validation": {
    "score": 1.0,
    "retry_count": 0
  },
  "tracks": [
    {
      "id": "drums",
      "instrument": "Drum Kit",
      "midi_channel": 9,
      "role": "rhythm",
      "event_count": 1232,
      "events": [
        {
          "t": 0,
          "type": "drum_hit",
          "pitch": 36,
          "duration_ms": 87,
          "velocity": 70,
          "beat_index": 0,
          "section": "intro"
        },
        {
          "t": 0,
          "type": "drum_hit",
          "pitch": 42,
          "duration_ms": 87,
          "velocity": 50,
          "beat_index": 0,
          "section": "intro"
        },
        {
          "t": 193,
          "type": "drum_hit",
          "pitch": 42,
          "duration_ms": 87,
          "velocity": 50,
          "beat_index": 2,
          "section": "intro"
        },
        {
          "t": 387,
          "type": "drum_hit",
          "pitch": 38,
          "duration_ms": 87,
          "velocity": 60,
          "beat_index": 4,
          "section": "intro"
        },
        {
          "t": 387,
          "type": "drum_hit",
          "pitch": 42,
          "duration_ms": 87,
          "velocity": 50,
          "beat_index": 4,
          "section": "intro"
        },
        {
          "t": 580,
          "type": "drum_hit",
          "pitch": 36,
          "duration_ms": 87,
          "velocity": 70,
          "beat_index": 6,
          "section": "intro"
        },
        {
          "t": 580,
          "type": "drum_hit",
          "pitch": 42,
          "duration_ms": 87,
          "velocity": 50,
          "beat_index": 6,
          "section": "intro"
        },
        {
          "t": 774,
          "type": "drum_hit",
          "pitch": 36,
          "duration_ms": 87,
          "velocity": 70,
          "beat_index": 8,
          "section": "intro"
        },
        {
          "t": 774,
          "type": "drum_hit",
          "pitch": 42,
          "duration_ms": 87,
          "velocity": 50,
          "beat_index": 8,
          "section": "intro"
        },
        {
          "t": 967,
          "type": "drum_hit",
          "pitch": 42,
          "duration_ms": 87,
          "velocity": 50,
          "beat_index": 10,
          "section": "intro"
        },
        {
          "t": 1161,
          "type": "drum_hit",
          "pitch": 38,
          "duration_ms": 87,
          "velocity": 60,
          "beat_index": 12,
          "section": "intro"
        },
        {
          "t": 1161,
          "type": "drum_hit",
          "pitch": 42,
          "duration_ms": 87,
          "velocity": 50,
          "beat_index": 12,
          "section": "intro"
        },
        {
          "t": 1354,
          "type": "drum_hit",
          "pitch": 36,
          "duration_ms": 87,
          "velocity": 70,
          "beat_index": 14,
          "section": "intro"
        },
        {
          "t": 1354,
          "type": "drum_hit",
          "pitch": 42,
          "duration_ms": 87,
          "velocity": 50,
          "beat_index": 14,
          "section": "intro"
        },
        {
          "t": 1548,
          "type": "drum_hit",
          "pitch": 36,
          "duration_ms": 87,
          "velocity": 70,
          "beat_index": 16,
          "section": "intro"
        },
        {
          "t": 1548,
          "type": "drum_hit",
          "pitch": 42,
          "duration_ms": 87,
          "velocity": 50,
          "beat_index": 16,
          "section": "intro"
        },
        {
          "t": 1741,
          "type": "drum_hit",
          "pitch": 42,
          "duration_ms": 87,
          "velocity": 50,
          "beat_index": 18,
          "section": "intro"
        },
        {
          "t": 1935,
          "type": "drum_hit",
          "pitch": 38,
          "duration_ms": 87,
          "velocity": 60,
          "beat_index": 20,
          "section": "intro"
        },
        {
          "t": 1935,
          "type": "drum_hit",
          "pitch": 42,
          "duration_ms": 87,
          "velocity": 50,
          "beat_index": 20,
          "section": "intro"
        },
        {
          "t": 2129,
          "type": "drum_hit",
          "pitch": 36,
          "duration_ms": 87,
          "velocity": 70,
          "beat_index": 22,
          "section": "intro"
        },
        {
          "t": 2129,
          "type": "drum_hit",
          "pitch": 42,
          "duration_ms": 87,
          "velocity": 50,
          "beat_index": 22,
          "section": "intro"
        },
        {
          "t": 2322,
          "type": "drum_hit",
          "pitch": 36,
          "duration_ms": 87,
          "velocity": 70,
          "beat_index": 24,
          "section": "intro"
        },
        {
          "t": 2322,
          "type": "drum_hit",
          "pitch": 42,
          "duration_ms": 87,
          "velocity": 50,
          "beat_index": 24,
          "section": "intro"
        },
        {
          "t": 2516,
          "type": "drum_hit",
          "pitch": 42,
          "duration_ms": 87,
          "velocity": 50,
          "beat_index": 26,
          "section": "intro"
        },
        {
          "t": 2709,
          "type": "drum_hit",
          "pitch": 38,
          "duration_ms": 87,
          "velocity": 60,
          "beat_index": 28,
          "section": "intro"
        },
        {
          "t": 2709,
          "type": "drum_hit",
          "pitch": 42,
          "duration_ms": 87,
          "velocity": 50,
          "beat_index": 28,
          "section": "intro"
        },
        {
          "t": 2903,
          "type": "drum_hit",
          "pitch": 36,
          "duration_ms": 87,
          "velocity": 70,
          "beat_index": 30,
          "section": "intro"
        },
        {
          "t": 2903,
          "type": "drum_hit",
          "pitch": 42,
          "duration_ms": 87,
          "velocity": 50,
          "beat_index": 30,
          "section": "intro"
        },
        {
          "t": 3096,
          "type": "drum_hit",
          "pitch": 36,
          "duration_ms": 87,
          "velocity": 70,
          "beat_index": 32,
          "section": "intro"
        },
        {
          "t": 3096,
          "type": "drum_hit",
          "pitch": 42,
          "duration_ms": 87,
          "velocity": 50,
          "beat_index": 32,
          "section": "intro"
        },
        {
          "t": 3290,
          "type": "drum_hit",
          "pitch": 42,
          "duration_ms": 87,
          "velocity": 50,
          "beat_index": 34,
          "section": "intro"
        },
        {
          "t": 3483,
          "type": "drum_hit",
          "pitch": 38,
          "duration_ms": 87,
          "velocity": 60,
          "beat_index": 36,
          "section": "intro"
        },
        {
          "t": 3483,
          "type": "drum_hit",
          "pitch": 42,
          "duration_ms": 87,
          "velocity": 50,
          "beat_index": 36,
          "section": "intro"
        },
        {
          "t": 3677,
          "type": "drum_hit",
          "pitch": 36,
          "duration_ms": 87,
          "velocity": 70,
          "beat_index": 38,
          "section": "intro"
        },
        {
          "t": 3677,
          "type": "drum_hit",
          "pitch": 42,
          "duration_ms": 87,
          "velocity": 50,
          "beat_index": 38,
          "section": "intro"
        },
        {
          "t": 3870,
          "type": "drum_hit",
          "pitch": 36,
          "duration_ms": 87,
          "velocity": 70,
          "beat_index": 40,
          "section": "intro"
        },
        {
          "t": 3870,
          "type": "drum_hit",
          "pitch": 42,
          "duration_ms": 87,
          "velocity": 50,
          "beat_index": 40,
          "section": "intro"
        },
        {
          "t": 4064,
          "type": "drum_hit",
          "pitch": 42,
          "duration_ms": 87,
          "velocity": 50,
          "beat_index": 42,
          "section": "intro"
        },
        {
          "t": 4258,
          "type": "drum_hit",
          "pitch": 38,
          "duration_ms": 87,
          "velocity": 60,
          "beat_index": 44,
          "section": "intro"
        },
        {
          "t": 4258,
          "type": "drum_hit",
          "pitch": 42,
          "duration_ms": 87,
          "velocity": 50,
          "beat_index": 44,
          "section": "intro"
        },
        {
          "t": 4451,
          "type": "drum_hit",
          "pitch": 36,
          "duration_ms": 87,
          "velocity": 70,
          "beat_index": 46,
          "section": "intro"
        },
        {
          "t": 4451,
          "type": "drum_hit",
          "pitch": 42,
          "duration_ms": 87,
          "velocity": 50,
          "beat_index": 46,
          "section": "intro"
        },
        {
          "t": 4645,
          "type": "drum_hit",
          "pitch": 36,
          "duration_ms": 87,
          "velocity": 70,
          "beat_index": 48,
          "section": "intro"
        },
        {
          "t": 4645,
          "type": "drum_hit",
          "pitch": 42,
          "duration_ms": 87,
          "velocity": 50,
          "beat_index": 48,
          "section": "intro"
        },
        {
          "t": 4838,
          "type": "drum_hit",
          "pitch": 42,
          "duration_ms": 87,
          "velocity": 50,
          "beat_index": 50,
          "section": "intro"
        },
        {
          "t": 5032,
          "type": "drum_hit",
          "pitch": 38,
          "duration_ms": 87,
          "velocity": 60,
          "beat_index": 52,
          "section": "intro"
        },
        {
          "t": 5032,
          "type": "drum_hit",
          "pitch": 42,
          "duration_ms": 87,
          "velocity": 50,
          "beat_index": 52,
          "section": "intro"
        },
        {
          "t": 5225,
          "type": "drum_hit",
          "pitch": 36,
          "duration_ms": 87,
          "velocity": 70,
          "beat_index": 54,
          "section": "intro"
        },
        {
          "t": 5225,
          "type": "drum_hit",
          "pitch": 42,
          "duration_ms": 87,
          "velocity": 50,
          "beat_index": 54,
          "section": "intro"
        },
        {
          "t": 5419,
          "type": "drum_hit",
          "pitch": 36,
          "duration_ms": 87,
          "velocity": 70,
          "beat_index": 56,
          "section": "intro"
        },
        {
          "t": 5419,
          "type": "drum_hit",
          "pitch": 42,
          "duration_ms": 87,
          "velocity": 50,
          "beat_index": 56,
          "section": "intro"
        },
        {
          "t": 5612,
          "type": "drum_hit",
          "pitch": 42,
          "duration_ms": 87,
          "velocity": 50,
          "beat_index": 58,
          "section": "intro"
        },
        {
          "t": 5806,
          "type": "drum_hit",
          "pitch": 38,
          "duration_ms": 87,
          "velocity": 60,
          "beat_index": 60,
          "section": "intro"
        },
        {
          "t": 5806,
          "type": "drum_hit",
          "pitch": 42,
          "duration_ms": 87,
          "velocity": 50,
          "beat_index": 60,
          "section": "intro"
        },
        {
          "t": 6000,
          "type": "drum_hit",
          "pitch": 36,
          "duration_ms": 87,
          "velocity": 70,
          "beat_index": 62,
          "section": "intro"
        },
        {
          "t": 6000,
          "type": "drum_hit",
          "pitch": 42,
          "duration_ms": 87,
          "velocity": 50,
          "beat_index": 62,
          "section": "intro"
        },
        {
          "t": 6193,
          "type": "drum_hit",
          "pitch": 36,
          "duration_ms": 87,
          "velocity": 70,
          "beat_index": 64,
          "section": "intro"
        },
        {
          "t": 6193,
          "type": "drum_hit",
          "pitch": 42,
          "duration_ms": 87,
          "velocity": 50,
          "beat_index": 64,
          "section": "intro"
        },
        {
          "t": 6387,
          "type": "drum_hit",
          "pitch": 42,
          "duration_ms": 87,
          "velocity": 50,
          "beat_index": 66,
          "section": "intro"
        },
        {
          "t": 6580,
          "type": "drum_hit",
          "pitch": 38,
          "duration_ms": 87,
          "velocity": 60,
          "beat_index": 68,
          "section": "intro"
        },
        {
          "t": 6580,
          "type": "drum_hit",
          "pitch": 42,
          "duration_ms": 87,
          "velocity": 50,
          "beat_index": 68,
          "section": "intro"
        },
        {
          "t": 6774,
          "type": "drum_hit",
          "pitch": 36,
          "duration_ms": 87,
          "velocity": 70,
          "beat_index": 70,
          "section": "intro"
        },
        {
          "t": 6774,
          "type": "drum_hit",
          "pitch": 42,
          "duration_ms": 87,
          "velocity": 50,
          "beat_index": 70,
          "section": "intro"
        },
        {
          "t": 6967,
          "type": "drum_hit",
          "pitch": 36,
          "duration_ms": 87,
          "velocity": 70,
          "beat_index": 72,
          "section": "intro"
        },
        {
          "t": 6967,
          "type": "drum_hit",
          "pitch": 42,
          "duration_ms": 87,
          "velocity": 50,
          "beat_index": 72,
          "section": "intro"
        },
        {
          "t": 7161,
          "type": "drum_hit",
          "pitch": 42,
          "duration_ms": 87,
          "velocity": 50,
          "beat_index": 74,
          "section": "intro"
        },
        {
          "t": 7354,
          "type": "drum_hit",
          "pitch": 38,
          "duration_ms": 87,
          "velocity": 60,
          "beat_index": 76,
          "section": "intro"
        },
        {
          "t": 7354,
          "type": "drum_hit",
          "pitch": 42,
          "duration_ms": 87,
          "velocity": 50,
          "beat_index": 76,
          "section": "intro"
        },
        {
          "t": 7548,
          "type": "drum_hit",
          "pitch": 36,
          "duration_ms": 87,
          "velocity": 70,
          "beat_index": 78,
          "section": "intro"
        },
        {
          "t": 7548,
          "type": "drum_hit",
          "pitch": 42,
          "duration_ms": 87,
          "velocity": 50,
          "beat_index": 78,
          "section": "intro"
        },
        {
          "t": 7741,
          "type": "drum_hit",
          "pitch": 36,
          "duration_ms": 87,
          "velocity": 70,
          "beat_index": 80,
          "section": "intro"
        },
        {
          "t": 7741,
          "type": "drum_hit",
          "pitch": 42,
          "duration_ms": 87,
          "velocity": 50,
          "beat_index": 80,
          "section": "intro"
        },
        {
          "t": 7935,
          "type": "drum_hit",
          "pitch": 42,
          "duration_ms": 87,
          "velocity": 50,
          "beat_index": 82,
          "section": "intro"
        },
        {
          "t": 8129,
          "type": "drum_hit",
          "pitch": 38,
          "duration_ms": 87,
          "velocity": 60,
          "beat_index": 84,
          "section": "intro"
        },
        {
          "t": 8129,
          "type": "drum_hit",
          "pitch": 42,
          "duration_ms": 87,
          "velocity": 50,
          "beat_index": 84,
          "section": "intro"
        },
        {
          "t": 8322,
          "type": "drum_hit",
          "pitch": 36,
          "duration_ms": 87,
          "velocity": 70,
          "beat_index": 86,
          "section": "intro"
        },
        {
          "t": 8322,
          "type": "drum_hit",
          "pitch": 42,
          "duration_ms": 87,
          "velocity": 50,
          "beat_index": 86,
          "section": "intro"
        },
        {
          "t": 8516,
          "type": "drum_hit",
          "pitch": 36,
          "duration_ms": 87,
          "velocity": 70,
          "beat_index": 88,
          "section": "intro"
        },
        {
          "t": 8516,
          "type": "drum_hit",
          "pitch": 42,
          "duration_ms": 87,
          "velocity": 50,
          "beat_index": 88,
          "section": "intro"
        },
        {
          "t": 8709,
          "type": "drum_hit",
          "pitch": 42,
          "duration_ms": 87,
          "velocity": 50,
          "beat_index": 90,
          "section": "intro"
        },
        {
          "t": 8903,
          "type": "drum_hit",
          "pitch": 38,
          "duration_ms": 87,
          "velocity": 60,
          "beat_index": 92,
          "section": "intro"
        },
        {
          "t": 8903,
          "type": "drum_hit",
          "pitch": 42,
          "duration_ms": 87,
          "velocity": 50,
          "beat_index": 92,
          "section": "intro"
        },
        {
          "t": 9096,
          "type": "drum_hit",
          "pitch": 36,
          "duration_ms": 87,
          "velocity": 70,
          "beat_index": 94,
          "section": "intro"
        },
        {
          "t": 9096,
          "type": "drum_hit",
          "pitch": 42,
          "duration_ms": 87,
          "velocity": 50,
          "beat_index": 94,
          "section": "intro"
        },
        {
          "t": 9290,
          "type": "drum_hit",
          "pitch": 36,
          "duration_ms": 87,
          "velocity": 70,
          "beat_index": 96,
          "section": "intro"
        },
        {
          "t": 9290,
          "type": "drum_hit",
          "pitch": 42,
          "duration_ms": 87,
          "velocity": 50,
          "beat_index": 96,
          "section": "intro"
        },
        {
          "t": 9483,
          "type": "drum_hit",
          "pitch": 42,
          "duration_ms": 87,
          "velocity": 50,
          "beat_index": 98,
          "section": "intro"
        },
        {
          "t": 9677,
          "type": "drum_hit",
          "pitch": 38,
          "duration_ms": 87,
          "velocity": 60,
          "beat_index": 100,
          "section": "intro"
        },
        {
          "t": 9677,
          "type": "drum_hit",
          "pitch": 42,
          "duration_ms": 87,
          "velocity": 50,
          "beat_index": 100,
          "section": "intro"
        },
        {
          "t": 9870,
          "type": "drum_hit",
          "pitch": 36,
          "duration_ms": 87,
          "velocity": 70,
          "beat_index": 102,
          "section": "intro"
        },
        {
          "t": 9870,
          "type": "drum_hit",
          "pitch": 42,
          "duration_ms": 87,
          "velocity": 50,
          "beat_index": 102,
          "section": "intro"
        },
        {
          "t": 10064,
          "type": "drum_hit",
          "pitch": 36,
          "duration_ms": 87,
          "velocity": 70,
          "beat_index": 104,
          "section": "intro"
        },
        {
          "t": 10064,
          "type": "drum_hit",
          "pitch": 42,
          "duration_ms": 87,
          "velocity": 50,
          "beat_index": 104,
          "section": "intro"
        },
        {
          "t": 10258,
          "type": "drum_hit",
          "pitch": 42,
          "duration_ms": 87,
          "velocity": 50,
          "beat_index": 106,
          "section": "intro"
        },
        {
          "t": 10451,
          "type": "drum_hit",
          "pitch": 38,
          "duration_ms": 87,
          "velocity": 60,
          "beat_index": 108,
          "section": "intro"
        },
        {
          "t": 10451,
          "type": "drum_hit",
          "pitch": 42,
          "duration_ms": 87,
          "velocity": 50,
          "beat_index": 108,
          "section": "intro"
        },
        {
          "t": 10645,
          "type": "drum_hit",
          "pitch": 36,
          "duration_ms": 87,
          "velocity": 70,
          "beat_index": 110,
          "section": "intro"
        },
        {
          "t": 10645,
          "type": "drum_hit",
          "pitch": 42,
          "duration_ms": 87,
          "velocity": 50,
          "beat_index": 110,
          "section": "intro"
        },
        {
          "t": 10838,
          "type": "drum_hit",
          "pitch": 36,
          "duration_ms": 87,
          "velocity": 70,
          "beat_index": 112,
          "section": "intro"
        },
        {
          "t": 10838,
          "type": "drum_hit",
          "pitch": 42,
          "duration_ms": 87,
          "velocity": 50,
          "beat_index": 112,
          "section": "intro"
        },
        {
          "t": 11032,
          "type": "drum_hit",
          "pitch": 42,
          "duration_ms": 87,
          "velocity": 50,
          "beat_index": 114,
          "section": "intro"
        },
        {
          "t": 11225,
          "type": "drum_hit",
          "pitch": 38,
          "duration_ms": 87,
          "velocity": 60,
          "beat_index": 116,
          "section": "intro"
        },
        {
          "t": 11225,
          "type": "drum_hit",
          "pitch": 42,
          "duration_ms": 87,
          "velocity": 50,
          "beat_index": 116,
          "section": "intro"
        },
        {
          "t": 11419,
          "type": "drum_hit",
          "pitch": 36,
          "duration_ms": 87,
          "velocity": 70,
          "beat_index": 118,
          "section": "intro"
        },
        {
          "t": 11419,
          "type": "drum_hit",
          "pitch": 42,
          "duration_ms": 87,
          "velocity": 50,
          "beat_index": 118,
          "section": "intro"
        },
        {
          "t": 11612,
          "type": "drum_hit",
          "pitch": 36,
          "duration_ms": 87,
          "velocity": 70,
          "beat_index": 120,
          "section": "intro"
        },
        {
          "t": 11612,
          "type": "drum_hit",
          "pitch": 42,
          "duration_ms": 87,
          "velocity": 50,
          "beat_index": 120,
          "section": "intro"
        },
        {
          "t": 11806,
          "type": "drum_hit",
          "pitch": 42,
          "duration_ms": 87,
          "velocity": 50,
          "beat_index": 122,
          "section": "intro"
        },
        {
          "t": 12000,
          "type": "drum_hit",
          "pitch": 38,
          "duration_ms": 87,
          "velocity": 60,
          "beat_index": 124,
          "section": "intro"
        },
        {
          "t": 12000,
          "type": "drum_hit",
          "pitch": 42,
          "duration_ms": 87,
          "velocity": 50,
          "beat_index": 124,
          "section": "intro"
        },
        {
          "t": 12193,
          "type": "drum_hit",
          "pitch": 36,
          "duration_ms": 87,
          "velocity": 70,
          "beat_index": 126,
          "section": "intro"
        },
        {
          "t": 12193,
          "type": "drum_hit",
          "pitch": 42,
          "duration_ms": 87,
          "velocity": 50,
          "beat_index": 126,
          "section": "intro"
        },
        {
          "t": 12387,
          "type": "drum_hit",
          "pitch": 36,
          "duration_ms": 87,
          "velocity": 80,
          "beat_index": 128,
          "section": "verse"
        },
        {
          "t": 12387,
          "type": "drum_hit",
          "pitch": 42,
          "duration_ms": 87,
          "velocity": 60,
          "beat_index": 128,
          "section": "verse"
        },
        {
          "t": 12580,
          "type": "drum_hit",
          "pitch": 42,
          "duration_ms": 87,
          "velocity": 60,
          "beat_index": 130,
          "section": "verse"
        },
        {
          "t": 12774,
          "type": "drum_hit",
          "pitch": 38,
          "duration_ms": 87,
          "velocity": 70,
          "beat_index": 132,
          "section": "verse"
        },
        {
          "t": 12774,
          "type": "drum_hit",
          "pitch": 42,
          "duration_ms": 87,
          "velocity": 60,
          "beat_index": 132,
          "section": "verse"
        },
        {
          "t": 12967,
          "type": "drum_hit",
          "pitch": 36,
          "duration_ms": 87,
          "velocity": 80,
          "beat_index": 134,
          "section": "verse"
        },
        {
          "t": 12967,
          "type": "drum_hit",
          "pitch": 42,
          "duration_ms": 87,
          "velocity": 60,
          "beat_index": 134,
          "section": "verse"
        },
        {
          "t": 13161,
          "type": "drum_hit",
          "pitch": 36,
          "duration_ms": 87,
          "velocity": 80,
          "beat_index": 136,
          "section": "verse"
        },
        {
          "t": 13161,
          "type": "drum_hit",
          "pitch": 42,
          "duration_ms": 87,
          "velocity": 60,
          "beat_index": 136,
          "section": "verse"
        },
        {
          "t": 13354,
          "type": "drum_hit",
          "pitch": 42,
          "duration_ms": 87,
          "velocity": 60,
          "beat_index": 138,
          "section": "verse"
        },
        {
          "t": 13548,
          "type": "drum_hit",
          "pitch": 38,
          "duration_ms": 87,
          "velocity": 70,
          "beat_index": 140,
          "section": "verse"
        },
        {
          "t": 13548,
          "type": "drum_hit",
          "pitch": 42,
          "duration_ms": 87,
          "velocity": 60,
          "beat_index": 140,
          "section": "verse"
        },
        {
          "t": 13741,
          "type": "drum_hit",
          "pitch": 36,
          "duration_ms": 87,
          "velocity": 80,
          "beat_index": 142,
          "section": "verse"
        },
        {
          "t": 13741,
          "type": "drum_hit",
          "pitch": 42,
          "duration_ms": 87,
          "velocity": 60,
          "beat_index": 142,
          "section": "verse"
        },
        {
          "t": 13935,
          "type": "drum_hit",
          "pitch": 36,
          "duration_ms": 87,
          "velocity": 80,
          "beat_index": 144,
          "section": "verse"
        },
        {
          "t": 13935,
          "type": "drum_hit",
          "pitch": 42,
          "duration_ms": 87,
          "velocity": 60,
          "beat_index": 144,
          "section": "verse"
        },
        {
          "t": 14129,
          "type": "drum_hit",
          "pitch": 42,
          "duration_ms": 87,
          "velocity": 60,
          "beat_index": 146,
          "section": "verse"
        },
        {
          "t": 14322,
          "type": "drum_hit",
          "pitch": 38,
          "duration_ms": 87,
          "velocity": 70,
          "beat_index": 148,
          "section": "verse"
        },
        {
          "t": 14322,
          "type": "drum_hit",
          "pitch": 42,
          "duration_ms": 87,
          "velocity": 60,
          "beat_index": 148,
          "section": "verse"
        },
        {
          "t": 14516,
          "type": "drum_hit",
          "pitch": 36,
          "duration_ms": 87,
          "velocity": 80,
          "beat_index": 150,
          "section": "verse"
        },
        {
          "t": 14516,
          "type": "drum_hit",
          "pitch": 42,
          "duration_ms": 87,
          "velocity": 60,
          "beat_index": 150,
          "section": "verse"
        },
        {
          "t": 14709,
          "type": "drum_hit",
          "pitch": 36,
          "duration_ms": 87,
          "velocity": 80,
          "beat_index": 152,
          "section": "verse"
        },
        {
          "t": 14709,
          "type": "drum_hit",
          "pitch": 42,
          "duration_ms": 87,
          "velocity": 60,
          "beat_index": 152,
          "section": "verse"
        },
        {
          "t": 14903,
          "type": "drum_hit",
          "pitch": 42,
          "duration_ms": 87,
          "velocity": 60,
          "beat_index": 154,
          "section": "verse"
        },
        {
          "t": 15096,
          "type": "drum_hit",
          "pitch": 38,
          "duration_ms": 87,
          "velocity": 70,
          "beat_index": 156,
          "section": "verse"
        },
        {
          "t": 15096,
          "type": "drum_hit",
          "pitch": 42,
          "duration_ms": 87,
          "velocity": 60,
          "beat_index": 156,
          "section": "verse"
        },
        {
          "t": 15290,
          "type": "drum_hit",
          "pitch": 36,
          "duration_ms": 87,
          "velocity": 80,
          "beat_index": 158,
          "section": "verse"
        },
        {
          "t": 15290,
          "type": "drum_hit",
          "pitch": 42,
          "duration_ms": 87,
          "velocity": 60,
          "beat_index": 158,
          "section": "verse"
        },
        {
          "t": 15483,
          "type": "drum_hit",
          "pitch": 36,
          "duration_ms": 87,
          "velocity": 80,
          "beat_index": 160,
          "section": "verse"
        },
        {
          "t": 15483,
          "type": "drum_hit",
          "pitch": 42,
          "duration_ms": 87,
          "velocity": 60,
          "beat_index": 160,
          "section": "verse"
        },
        {
          "t": 15677,
          "type": "drum_hit",
          "pitch": 42,
          "duration_ms": 87,
          "velocity": 60,
          "beat_index": 162,
          "section": "verse"
        },
        {
          "t": 15870,
          "type": "drum_hit",
          "pitch": 38,
          "duration_ms": 87,
          "velocity": 70,
          "beat_index": 164,
          "section": "verse"
        },
        {
          "t": 15870,
          "type": "drum_hit",
          "pitch": 42,
          "duration_ms": 87,
          "velocity": 60,
          "beat_index": 164,
          "section": "verse"
        },
        {
          "t": 16064,
          "type": "drum_hit",
          "pitch": 36,
          "duration_ms": 87,
          "velocity": 80,
          "beat_index": 166,
          "section": "verse"
        },
        {
          "t": 16064,
          "type": "drum_hit",
          "pitch": 42,
          "duration_ms": 87,
          "velocity": 60,
          "beat_index": 166,
          "section": "verse"
        },
        {
          "t": 16258,
          "type": "drum_hit",
          "pitch": 36,
          "duration_ms": 87,
          "velocity": 80,
          "beat_index": 168,
          "section": "verse"
        },
        {
          "t": 16258,
          "type": "drum_hit",
          "pitch": 42,
          "duration_ms": 87,
          "velocity": 60,
          "beat_index": 168,
          "section": "verse"
        },
        {
          "t": 16451,
          "type": "drum_hit",
          "pitch": 42,
          "duration_ms": 87,
          "velocity": 60,
          "beat_index": 170,
          "section": "verse"
        },
        {
          "t": 16645,
          "type": "drum_hit",
          "pitch": 38,
          "duration_ms": 87,
          "velocity": 70,
          "beat_index": 172,
          "section": "verse"
        },
        {
          "t": 16645,
          "type": "drum_hit",
          "pitch": 42,
          "duration_ms": 87,
          "velocity": 60,
          "beat_index": 172,
          "section": "verse"
        },
        {
          "t": 16838,
          "type": "drum_hit",
          "pitch": 36,
          "duration_ms": 87,
          "velocity": 80,
          "beat_index": 174,
          "section": "verse"
        },
        {
          "t": 16838,
          "type": "drum_hit",
          "pitch": 42,
          "duration_ms": 87,
          "velocity": 60,
          "beat_index": 174,
          "section": "verse"
        },
        {
          "t": 17032,
          "type": "drum_hit",
          "pitch": 36,
          "duration_ms": 87,
          "velocity": 80,
          "beat_index": 176,
          "section": "verse"
        },
        {
          "t": 17032,
          "type": "drum_hit",
          "pitch": 42,
          "duration_ms": 87,
          "velocity": 60,
          "beat_index": 176,
          "section": "verse"
        },
        {
          "t": 17225,
          "type": "drum_hit",
          "pitch": 42,
          "duration_ms": 87,
          "velocity": 60,
          "beat_index": 178,
          "section": "verse"
        },
        {
          "t": 17419,
          "type": "drum_hit",
          "pitch": 38,
          "duration_ms": 87,
          "velocity": 70,
          "beat_index": 180,
          "section": "verse"
        },
        {
          "t": 17419,
          "type": "drum_hit",
          "pitch": 42,
          "duration_ms": 87,
          "velocity": 60,
          "beat_index": 180,
          "section": "verse"
        },
        {
          "t": 17612,
          "type": "drum_hit",
          "pitch": 36,
          "duration_ms": 87,
          "velocity": 80,
          "beat_index": 182,
          "section": "verse"
        },
        {
          "t": 17612,
          "type": "drum_hit",
          "pitch": 42,
          "duration_ms": 87,
          "velocity": 60,
          "beat_index": 182,
          "section": "verse"
        },
        {
          "t": 17806,
          "type": "drum_hit",
          "pitch": 36,
          "duration_ms": 87,
          "velocity": 80,
          "beat_index": 184,
          "section": "verse"
        },
        {
          "t": 17806,
          "type": "drum_hit",
          "pitch": 42,
          "duration_ms": 87,
          "velocity": 60,
          "beat_index": 184,
          "section": "verse"
        },
        {
          "t": 18000,
          "type": "drum_hit",
          "pitch": 42,
          "duration_ms": 87,
          "velocity": 60,
          "beat_index": 186,
          "section": "verse"
        },
        {
          "t": 18193,
          "type": "drum_hit",
          "pitch": 38,
          "duration_ms": 87,
          "velocity": 70,
          "beat_index": 188,
          "section": "verse"
        },
        {
          "t": 18193,
          "type": "drum_hit",
          "pitch": 42,
          "duration_ms": 87,
          "velocity": 60,
          "beat_index": 188,
          "section": "verse"
        },
        {
          "t": 18387,
          "type": "drum_hit",
          "pitch": 36,
          "duration_ms": 87,
          "velocity": 80,
          "beat_index": 190,
          "section": "verse"
        },
        {
          "t": 18387,
          "type": "drum_hit",
          "pitch": 42,
          "duration_ms": 87,
          "velocity": 60,
          "beat_index": 190,
          "section": "verse"
        },
        {
          "t": 18580,
          "type": "drum_hit",
          "pitch": 36,
          "duration_ms": 87,
          "velocity": 80,
          "beat_index": 192,
          "section": "verse"
        },
        {
          "t": 18580,
          "type": "drum_hit",
          "pitch": 42,
          "duration_ms": 87,
          "velocity": 60,
          "beat_index": 192,
          "section": "verse"
        },
        {
          "t": 18774,
          "type": "drum_hit",
          "pitch": 42,
          "duration_ms": 87,
          "velocity": 60,
          "beat_index": 194,
          "section": "verse"
        },
        {
          "t": 18967,
          "type": "drum_hit",
          "pitch": 38,
          "duration_ms": 87,
          "velocity": 70,
          "beat_index": 196,
          "section": "verse"
        },
        {
          "t": 18967,
          "type": "drum_hit",
          "pitch": 42,
          "duration_ms": 87,
          "velocity": 60,
          "beat_index": 196,
          "section": "verse"
        },
        {
          "t": 19161,
          "type": "drum_hit",
          "pitch": 36,
          "duration_ms": 87,
          "velocity": 80,
          "beat_index": 198,
          "section": "verse"
        },
        {
          "t": 19161,
          "type": "drum_hit",
          "pitch": 42,
          "duration_ms": 87,
          "velocity": 60,
          "beat_index": 198,
          "section": "verse"
        },
        {
          "t": 19354,
          "type": "drum_hit",
          "pitch": 36,
          "duration_ms": 87,
          "velocity": 80,
          "beat_index": 200,
          "section": "verse"
        },
        {
          "t": 19354,
          "type": "drum_hit",
          "pitch": 42,
          "duration_ms": 87,
          "velocity": 60,
          "beat_index": 200,
          "section": "verse"
        },
        {
          "t": 19548,
          "type": "drum_hit",
          "pitch": 42,
          "duration_ms": 87,
          "velocity": 60,
          "beat_index": 202,
          "section": "verse"
        },
        {
          "t": 19741,
          "type": "drum_hit",
          "pitch": 38,
          "duration_ms": 87,
          "velocity": 70,
          "beat_index": 204,
          "section": "verse"
        },
        {
          "t": 19741,
          "type": "drum_hit",
          "pitch": 42,
          "duration_ms": 87,
          "velocity": 60,
          "beat_index": 204,
          "section": "verse"
        },
        {
          "t": 19935,
          "type": "drum_hit",
          "pitch": 36,
          "duration_ms": 87,
          "velocity": 80,
          "beat_index": 206,
          "section": "verse"
        },
        {
          "t": 19935,
          "type": "drum_hit",
          "pitch": 42,
          "duration_ms": 87,
          "velocity": 60,
          "beat_index": 206,
          "section": "verse"
        },
        {
          "t": 20129,
          "type": "drum_hit",
          "pitch": 36,
          "duration_ms": 87,
          "velocity": 80,
          "beat_index": 208,
          "section": "verse"
        },
        {
          "t": 20129,
          "type": "drum_hit",
          "pitch": 42,
          "duration_ms": 87,
          "velocity": 60,
          "beat_index": 208,
          "section": "verse"
        },
        {
          "t": 20322,
          "type": "drum_hit",
          "pitch": 42,
          "duration_ms": 87,
          "velocity": 60,
          "beat_index": 210,
          "section": "verse"
        },
        {
          "t": 20516,
          "type": "drum_hit",
          "pitch": 38,
          "duration_ms": 87,
          "velocity": 70,
          "beat_index": 212,
          "section": "verse"
        },
        {
          "t": 20516,
          "type": "drum_hit",
          "pitch": 42,
          "duration_ms": 87,
          "velocity": 60,
          "beat_index": 212,
          "section": "verse"
        },
        {
          "t": 20709,
          "type": "drum_hit",
          "pitch": 36,
          "duration_ms": 87,
          "velocity": 80,
          "beat_index": 214,
          "section": "verse"
        },
        {
          "t": 20709,
          "type": "drum_hit",
          "pitch": 42,
          "duration_ms": 87,
          "velocity": 60,
          "beat_index": 214,
          "section": "verse"
        },
        {
          "t": 20903,
          "type": "drum_hit",
          "pitch": 36,
          "duration_ms": 87,
          "velocity": 80,
          "beat_index": 216,
          "section": "verse"
        },
        {
          "t": 20903,
          "type": "drum_hit",
          "pitch": 42,
          "duration_ms": 87,
          "velocity": 60,
          "beat_index": 216,
          "section": "verse"
        },
        {
          "t": 21096,
          "type": "drum_hit",
          "pitch": 42,
          "duration_ms": 87,
          "velocity": 60,
          "beat_index": 218,
          "section": "verse"
        },
        {
          "t": 21290,
          "type": "drum_hit",
          "pitch": 38,
          "duration_ms": 87,
          "velocity": 70,
          "beat_index": 220,
          "section": "verse"
        },
        {
          "t": 21290,
          "type": "drum_hit",
          "pitch": 42,
          "duration_ms": 87,
          "velocity": 60,
          "beat_index": 220,
          "section": "verse"
        },
        {
          "t": 21483,
          "type": "drum_hit",
          "pitch": 36,
          "duration_ms": 87,
          "velocity": 80,
          "beat_index": 222,
          "section": "verse"
        },
        {
          "t": 21483,
          "type": "drum_hit",
          "pitch": 42,
          "duration_ms": 87,
          "velocity": 60,
          "beat_index": 222,
          "section": "verse"
        },
        {
          "t": 21677,
          "type": "drum_hit",
          "pitch": 36,
          "duration_ms": 87,
          "velocity": 80,
          "beat_index": 224,
          "section": "verse"
        },
        {
          "t": 21677,
          "type": "drum_hit",
          "pitch": 42,
          "duration_ms": 87,
          "velocity": 60,
          "beat_index": 224,
          "section": "verse"
        },
        {
          "t": 21870,
          "type": "drum_hit",
          "pitch": 42,
          "duration_ms": 87,
          "velocity": 60,
          "beat_index": 226,
          "section": "verse"
        },
        {
          "t": 22064,
          "type": "drum_hit",
          "pitch": 38,
          "duration_ms": 87,
          "velocity": 70,
          "beat_index": 228,
          "section": "verse"
        },
        {
          "t": 22064,
          "type": "drum_hit",
          "pitch": 42,
          "duration_ms": 87,
          "velocity": 60,
          "beat_index": 228,
          "section": "verse"
        },
        {
          "t": 22258,
          "type": "drum_hit",
          "pitch": 36,
          "duration_ms": 87,
          "velocity": 80,
          "beat_index": 230,
          "section": "verse"
        },
        {
          "t": 22258,
          "type": "drum_hit",
          "pitch": 42,
          "duration_ms": 87,
          "velocity": 60,
          "beat_index": 230,
          "section": "verse"
        },
        {
          "t": 22451,
          "type": "drum_hit",
          "pitch": 36,
          "duration_ms": 87,
          "velocity": 80,
          "beat_index": 232,
          "section": "verse"
        },
        {
          "t": 22451,
          "type": "drum_hit",
          "pitch": 42,
          "duration_ms": 87,
          "velocity": 60,
          "beat_index": 232,
          "section": "verse"
        },
        {
          "t": 22645,
          "type": "drum_hit",
          "pitch": 42,
          "duration_ms": 87,
          "velocity": 60,
          "beat_index": 234,
          "section": "verse"
        },
        {
          "t": 22838,
          "type": "drum_hit",
          "pitch": 38,
          "duration_ms": 87,
          "velocity": 70,
          "beat_index": 236,
          "section": "verse"
        },
        {
          "t": 22838,
          "type": "drum_hit",
          "pitch": 42,
          "duration_ms": 87,
          "velocity": 60,
          "beat_index": 236,
          "section": "verse"
        },
        {
          "t": 23032,
          "type": "drum_hit",
          "pitch": 36,
          "duration_ms": 87,
          "velocity": 80,
          "beat_index": 238,
          "section": "verse"
        },
        {
          "t": 23032,
          "type": "drum_hit",
          "pitch": 42,
          "duration_ms": 87,
          "velocity": 60,
          "beat_index": 238,
          "section": "verse"
        },
        {
          "t": 23225,
          "type": "drum_hit",
          "pitch": 36,
          "duration_ms": 87,
          "velocity": 80,
          "beat_index": 240,
          "section": "verse"
        },
        {
          "t": 23225,
          "type": "drum_hit",
          "pitch": 42,
          "duration_ms": 87,
          "velocity": 60,
          "beat_index": 240,
          "section": "verse"
        },
        {
          "t": 23419,
          "type": "drum_hit",
          "pitch": 42,
          "duration_ms": 87,
          "velocity": 60,
          "beat_index": 242,
          "section": "verse"
        },
        {
          "t": 23612,
          "type": "drum_hit",
          "pitch": 38,
          "duration_ms": 87,
          "velocity": 70,
          "beat_index": 244,
          "section": "verse"
        },
        {
          "t": 23612,
          "type": "drum_hit",
          "pitch": 42,
          "duration_ms": 87,
          "velocity": 60,
          "beat_index": 244,
          "section": "verse"
        },
        {
          "t": 23806,
          "type": "drum_hit",
          "pitch": 36,
          "duration_ms": 87,
          "velocity": 80,
          "beat_index": 246,
          "section": "verse"
        },
        {
          "t": 23806,
          "type": "drum_hit",
          "pitch": 42,
          "duration_ms": 87,
          "velocity": 60,
          "beat_index": 246,
          "section": "verse"
        },
        {
          "t": 24000,
          "type": "drum_hit",
          "pitch": 36,
          "duration_ms": 87,
          "velocity": 80,
          "beat_index": 248,
          "section": "verse"
        },
        {
          "t": 24000,
          "type": "drum_hit",
          "pitch": 42,
          "duration_ms": 87,
          "velocity": 60,
          "beat_index": 248,
          "section": "verse"
        },
        {
          "t": 24193,
          "type": "drum_hit",
          "pitch": 42,
          "duration_ms": 87,
          "velocity": 60,
          "beat_index": 250,
          "section": "verse"
        },
        {
          "t": 24387,
          "type": "drum_hit",
          "pitch": 38,
          "duration_ms": 87,
          "velocity": 70,
          "beat_index": 252,
          "section": "verse"
        },
        {
          "t": 24387,
          "type": "drum_hit",
          "pitch": 42,
          "duration_ms": 87,
          "velocity": 60,
          "beat_index": 252,
          "section": "verse"
        },
        {
          "t": 24580,
          "type": "drum_hit",
          "pitch": 36,
          "duration_ms": 87,
          "velocity": 80,
          "beat_index": 254,
          "section": "verse"
        },
        {
          "t": 24580,
          "type": "drum_hit",
          "pitch": 42,
          "duration_ms": 87,
          "velocity": 60,
          "beat_index": 254,
          "section": "verse"
        },
        {
          "t": 24774,
          "type": "drum_hit",
          "pitch": 36,
          "duration_ms": 87,
          "velocity": 80,
          "beat_index": 256,
          "section": "verse"
        },
        {
          "t": 24774,
          "type": "drum_hit",
          "pitch": 42,
          "duration_ms": 87,
          "velocity": 60,
          "beat_index": 256,
          "section": "verse"
        },
        {
          "t": 24967,
          "type": "drum_hit",
          "pitch": 42,
          "duration_ms": 87,
          "velocity": 60,
          "beat_index": 258,
          "section": "verse"
        },
        {
          "t": 25161,
          "type": "drum_hit",
          "pitch": 38,
          "duration_ms": 87,
          "velocity": 70,
          "beat_index": 260,
          "section": "verse"
        },
        {
          "t": 25161,
          "type": "drum_hit",
          "pitch": 42,
          "duration_ms": 87,
          "velocity": 60,
          "beat_index": 260,
          "section": "verse"
        },
        {
          "t": 25354,
          "type": "drum_hit",
          "pitch": 36,
          "duration_ms": 87,
          "velocity": 80,
          "beat_index": 262,
          "section": "verse"
        },
        {
          "t": 25354,
          "type": "drum_hit",
          "pitch": 42,
          "duration_ms": 87,
          "velocity": 60,
          "beat_index": 262,
          "section": "verse"
        },
        {
          "t": 25548,
          "type": "drum_hit",
          "pitch": 36,
          "duration_ms": 87,
          "velocity": 80,
          "beat_index": 264,
          "section": "verse"
        },
        {
          "t": 25548,
          "type": "drum_hit",
          "pitch": 42,
          "duration_ms": 87,
          "velocity": 60,
          "beat_index": 264,
          "section": "verse"
        },
        {
          "t": 25741,
          "type": "drum_hit",
          "pitch": 42,
          "duration_ms": 87,
          "velocity": 60,
          "beat_index": 266,
          "section": "verse"
        },
        {
          "t": 25935,
          "type": "drum_hit",
          "pitch": 38,
          "duration_ms": 87,
          "velocity": 70,
          "beat_index": 268,
          "section": "verse"
        },
        {
          "t": 25935,
          "type": "drum_hit",
          "pitch": 42,
          "duration_ms": 87,
          "velocity": 60,
          "beat_index": 268,
          "section": "verse"
        },
        {
          "t": 26129,
          "type": "drum_hit",
          "pitch": 36,
          "duration_ms": 87,
          "velocity": 80,
          "beat_index": 270,
          "section": "verse"
        },
        {
          "t": 26129,
          "type": "drum_hit",
          "pitch": 42,
          "duration_ms": 87,
          "velocity": 60,
          "beat_index": 270,
          "section": "verse"
        },
        {
          "t": 26322,
          "type": "drum_hit",
          "pitch": 36,
          "duration_ms": 87,
          "velocity": 80,
          "beat_index": 272,
          "section": "verse"
        },
        {
          "t": 26322,
          "type": "drum_hit",
          "pitch": 42,
          "duration_ms": 87,
          "velocity": 60,
          "beat_index": 272,
          "section": "verse"
        },
        {
          "t": 26516,
          "type": "drum_hit",
          "pitch": 42,
          "duration_ms": 87,
          "velocity": 60,
          "beat_index": 274,
          "section": "verse"
        },
        {
          "t": 26709,
          "type": "drum_hit",
          "pitch": 38,
          "duration_ms": 87,
          "velocity": 70,
          "beat_index": 276,
          "section": "verse"
        },
        {
          "t": 26709,
          "type": "drum_hit",
          "pitch": 42,
          "duration_ms": 87,
          "velocity": 60,
          "beat_index": 276,
          "section": "verse"
        },
        {
          "t": 26903,
          "type": "drum_hit",
          "pitch": 36,
          "duration_ms": 87,
          "velocity": 80,
          "beat_index": 278,
          "section": "verse"
        },
        {
          "t": 26903,
          "type": "drum_hit",
          "pitch": 42,
          "duration_ms": 87,
          "velocity": 60,
          "beat_index": 278,
          "section": "verse"
        },
        {
          "t": 27096,
          "type": "drum_hit",
          "pitch": 36,
          "duration_ms": 87,
          "velocity": 80,
          "beat_index": 280,
          "section": "verse"
        },
        {
          "t": 27096,
          "type": "drum_hit",
          "pitch": 42,
          "duration_ms": 87,
          "velocity": 60,
          "beat_index": 280,
          "section": "verse"
        },
        {
          "t": 27290,
          "type": "drum_hit",
          "pitch": 42,
          "duration_ms": 87,
          "velocity": 60,
          "beat_index": 282,
          "section": "verse"
        },
        {
          "t": 27483,
          "type": "drum_hit",
          "pitch": 38,
          "duration_ms": 87,
          "velocity": 70,
          "beat_index": 284,
          "section": "verse"
        },
        {
          "t": 27483,
          "type": "drum_hit",
          "pitch": 42,
          "duration_ms": 87,
          "velocity": 60,
          "beat_index": 284,
          "section": "verse"
        },
        {
          "t": 27677,
          "type": "drum_hit",
          "pitch": 36,
          "duration_ms": 87,
          "velocity": 80,
          "beat_index": 286,
          "section": "verse"
        },
        {
          "t": 27677,
          "type": "drum_hit",
          "pitch": 42,
          "duration_ms": 87,
          "velocity": 60,
          "beat_index": 286,
          "section": "verse"
        },
        {
          "t": 27870,
          "type": "drum_hit",
          "pitch": 36,
          "duration_ms": 87,
          "velocity": 80,
          "beat_index": 288,
          "section": "verse"
        },
        {
          "t": 27870,
          "type": "drum_hit",
          "pitch": 42,
          "duration_ms": 87,
          "velocity": 60,
          "beat_index": 288,
          "section": "verse"
        },
        {
          "t": 28064,
          "type": "drum_hit",
          "pitch": 42,
          "duration_ms": 87,
          "velocity": 60,
          "beat_index": 290,
          "section": "verse"
        },
        {
          "t": 28258,
          "type": "drum_hit",
          "pitch": 38,
          "duration_ms": 87,
          "velocity": 70,
          "beat_index": 292,
          "section": "verse"
        },
        {
          "t": 28258,
          "type": "drum_hit",
          "pitch": 42,
          "duration_ms": 87,
          "velocity": 60,
          "beat_index": 292,
          "section": "verse"
        },
        {
          "t": 28451,
          "type": "drum_hit",
          "pitch": 36,
          "duration_ms": 87,
          "velocity": 80,
          "beat_index": 294,
          "section": "verse"
        },
        {
          "t": 28451,
          "type": "drum_hit",
          "pitch": 42,
          "duration_ms": 87,
          "velocity": 60,
          "beat_index": 294,
          "section": "verse"
        },
        {
          "t": 28645,
          "type": "drum_hit",
          "pitch": 36,
          "duration_ms": 87,
          "velocity": 80,
          "beat_index": 296,
          "section": "verse"
        },
        {
          "t": 28645,
          "type": "drum_hit",
          "pitch": 42,
          "duration_ms": 87,
          "velocity": 60,
          "beat_index": 296,
          "section": "verse"
        },
        {
          "t": 28838,
          "type": "drum_hit",
          "pitch": 42,
          "duration_ms": 87,
          "velocity": 60,
          "beat_index": 298,
          "section": "verse"
        },
        {
          "t": 29032,
          "type": "drum_hit",
          "pitch": 38,
          "duration_ms": 87,
          "velocity": 70,
          "beat_index": 300,
          "section": "verse"
        },
        {
          "t": 29032,
          "type": "drum_hit",
          "pitch": 42,
          "duration_ms": 87,
          "velocity": 60,
          "beat_index": 300,
          "section": "verse"
        },
        {
          "t": 29225,
          "type": "drum_hit",
          "pitch": 36,
          "duration_ms": 87,
          "velocity": 80,
          "beat_index": 302,
          "section": "verse"
        },
        {
          "t": 29225,
          "type": "drum_hit",
          "pitch": 42,
          "duration_ms": 87,
          "velocity": 60,
          "beat_index": 302,
          "section": "verse"
        },
        {
          "t": 29419,
          "type": "drum_hit",
          "pitch": 36,
          "duration_ms": 87,
          "velocity": 80,
          "beat_index": 304,
          "section": "verse"
        },
        {
          "t": 29419,
          "type": "drum_hit",
          "pitch": 42,
          "duration_ms": 87,
          "velocity": 60,
          "beat_index": 304,
          "section": "verse"
        },
        {
          "t": 29612,
          "type": "drum_hit",
          "pitch": 42,
          "duration_ms": 87,
          "velocity": 60,
          "beat_index": 306,
          "section": "verse"
        },
        {
          "t": 29806,
          "type": "drum_hit",
          "pitch": 38,
          "duration_ms": 87,
          "velocity": 70,
          "beat_index": 308,
          "section": "verse"
        },
        {
          "t": 29806,
          "type": "drum_hit",
          "pitch": 42,
          "duration_ms": 87,
          "velocity": 60,
          "beat_index": 308,
          "section": "verse"
        },
        {
          "t": 29999,
          "type": "drum_hit",
          "pitch": 36,
          "duration_ms": 87,
          "velocity": 80,
          "beat_index": 310,
          "section": "verse"
        },
        {
          "t": 29999,
          "type": "drum_hit",
          "pitch": 42,
          "duration_ms": 87,
          "velocity": 60,
          "beat_index": 310,
          "section": "verse"
        },
        {
          "t": 30193,
          "type": "drum_hit",
          "pitch": 36,
          "duration_ms": 87,
          "velocity": 80,
          "beat_index": 312,
          "section": "verse"
        },
        {
          "t": 30193,
          "type": "drum_hit",
          "pitch": 42,
          "duration_ms": 87,
          "velocity": 60,
          "beat_index": 312,
          "section": "verse"
        },
        {
          "t": 30387,
          "type": "drum_hit",
          "pitch": 42,
          "duration_ms": 87,
          "velocity": 60,
          "beat_index": 314,
          "section": "verse"
        },
        {
          "t": 30580,
          "type": "drum_hit",
          "pitch": 38,
          "duration_ms": 87,
          "velocity": 70,
          "beat_index": 316,
          "section": "verse"
        },
        {
          "t": 30580,
          "type": "drum_hit",
          "pitch": 42,
          "duration_ms": 87,
          "velocity": 60,
          "beat_index": 316,
          "section": "verse"
        },
        {
          "t": 30774,
          "type": "drum_hit",
          "pitch": 36,
          "duration_ms": 87,
          "velocity": 80,
          "beat_index": 318,
          "section": "verse"
        },
        {
          "t": 30774,
          "type": "drum_hit",
          "pitch": 42,
          "duration_ms": 87,
          "velocity": 60,
          "beat_index": 318,
          "section": "verse"
        },
        {
          "t": 30967,
          "type": "drum_hit",
          "pitch": 36,
          "duration_ms": 87,
          "velocity": 80,
          "beat_index": 320,
          "section": "verse"
        },
        {
          "t": 30967,
          "type": "drum_hit",
          "pitch": 42,
          "duration_ms": 87,
          "velocity": 60,
          "beat_index": 320,
          "section": "verse"
        },
        {
          "t": 31161,
          "type": "drum_hit",
          "pitch": 42,
          "duration_ms": 87,
          "velocity": 60,
          "beat_index": 322,
          "section": "verse"
        },
        {
          "t": 31354,
          "type": "drum_hit",
          "pitch": 38,
          "duration_ms": 87,
          "velocity": 70,
          "beat_index": 324,
          "section": "verse"
        },
        {
          "t": 31354,
          "type": "drum_hit",
          "pitch": 42,
          "duration_ms": 87,
          "velocity": 60,
          "beat_index": 324,
          "section": "verse"
        },
        {
          "t": 31548,
          "type": "drum_hit",
          "pitch": 36,
          "duration_ms": 87,
          "velocity": 80,
          "beat_index": 326,
          "section": "verse"
        },
        {
          "t": 31548,
          "type": "drum_hit",
          "pitch": 42,
          "duration_ms": 87,
          "velocity": 60,
          "beat_index": 326,
          "section": "verse"
        },
        {
          "t": 31741,
          "type": "drum_hit",
          "pitch": 36,
          "duration_ms": 87,
          "velocity": 80,
          "beat_index": 328,
          "section": "verse"
        },
        {
          "t": 31741,
          "type": "drum_hit",
          "pitch": 42,
          "duration_ms": 87,
          "velocity": 60,
          "beat_index": 328,
          "section": "verse"
        },
        {
          "t": 31935,
          "type": "drum_hit",
          "pitch": 42,
          "duration_ms": 87,
          "velocity": 60,
          "beat_index": 330,
          "section": "verse"
        },
        {
          "t": 32129,
          "type": "drum_hit",
          "pitch": 38,
          "duration_ms": 87,
          "velocity": 70,
          "beat_index": 332,
          "section": "verse"
        },
        {
          "t": 32129,
          "type": "drum_hit",
          "pitch": 42,
          "duration_ms": 87,
          "velocity": 60,
          "beat_index": 332,
          "section": "verse"
        },
        {
          "t": 32322,
          "type": "drum_hit",
          "pitch": 36,
          "duration_ms": 87,
          "velocity": 80,
          "beat_index": 334,
          "section": "verse"
        },
        {
          "t": 32322,
          "type": "drum_hit",
          "pitch": 42,
          "duration_ms": 87,
          "velocity": 60,
          "beat_index": 334,
          "section": "verse"
        },
        {
          "t": 32516,
          "type": "drum_hit",
          "pitch": 36,
          "duration_ms": 87,
          "velocity": 80,
          "beat_index": 336,
          "section": "verse"
        },
        {
          "t": 32516,
          "type": "drum_hit",
          "pitch": 42,
          "duration_ms": 87,
          "velocity": 60,
          "beat_index": 336,
          "section": "verse"
        },
        {
          "t": 32709,
          "type": "drum_hit",
          "pitch": 42,
          "duration_ms": 87,
          "velocity": 60,
          "beat_index": 338,
          "section": "verse"
        },
        {
          "t": 32903,
          "type": "drum_hit",
          "pitch": 38,
          "duration_ms": 87,
          "velocity": 70,
          "beat_index": 340,
          "section": "verse"
        },
        {
          "t": 32903,
          "type": "drum_hit",
          "pitch": 42,
          "duration_ms": 87,
          "velocity": 60,
          "beat_index": 340,
          "section": "verse"
        },
        {
          "t": 33096,
          "type": "drum_hit",
          "pitch": 36,
          "duration_ms": 87,
          "velocity": 80,
          "beat_index": 342,
          "section": "verse"
        },
        {
          "t": 33096,
          "type": "drum_hit",
          "pitch": 42,
          "duration_ms": 87,
          "velocity": 60,
          "beat_index": 342,
          "section": "verse"
        },
        {
          "t": 33290,
          "type": "drum_hit",
          "pitch": 36,
          "duration_ms": 87,
          "velocity": 80,
          "beat_index": 344,
          "section": "verse"
        },
        {
          "t": 33290,
          "type": "drum_hit",
          "pitch": 42,
          "duration_ms": 87,
          "velocity": 60,
          "beat_index": 344,
          "section": "verse"
        },
        {
          "t": 33483,
          "type": "drum_hit",
          "pitch": 42,
          "duration_ms": 87,
          "velocity": 60,
          "beat_index": 346,
          "section": "verse"
        },
        {
          "t": 33677,
          "type": "drum_hit",
          "pitch": 38,
          "duration_ms": 87,
          "velocity": 70,
          "beat_index": 348,
          "section": "verse"
        },
        {
          "t": 33677,
          "type": "drum_hit",
          "pitch": 42,
          "duration_ms": 87,
          "velocity": 60,
          "beat_index": 348,
          "section": "verse"
        },
        {
          "t": 33870,
          "type": "drum_hit",
          "pitch": 36,
          "duration_ms": 87,
          "velocity": 80,
          "beat_index": 350,
          "section": "verse"
        },
        {
          "t": 33870,
          "type": "drum_hit",
          "pitch": 42,
          "duration_ms": 87,
          "velocity": 60,
          "beat_index": 350,
          "section": "verse"
        },
        {
          "t": 34064,
          "type": "drum_hit",
          "pitch": 36,
          "duration_ms": 87,
          "velocity": 80,
          "beat_index": 352,
          "section": "verse"
        },
        {
          "t": 34064,
          "type": "drum_hit",
          "pitch": 42,
          "duration_ms": 87,
          "velocity": 60,
          "beat_index": 352,
          "section": "verse"
        },
        {
          "t": 34258,
          "type": "drum_hit",
          "pitch": 42,
          "duration_ms": 87,
          "velocity": 60,
          "beat_index": 354,
          "section": "verse"
        },
        {
          "t": 34451,
          "type": "drum_hit",
          "pitch": 38,
          "duration_ms": 87,
          "velocity": 70,
          "beat_index": 356,
          "section": "verse"
        },
        {
          "t": 34451,
          "type": "drum_hit",
          "pitch": 42,
          "duration_ms": 87,
          "velocity": 60,
          "beat_index": 356,
          "section": "verse"
        },
        {
          "t": 34645,
          "type": "drum_hit",
          "pitch": 36,
          "duration_ms": 87,
          "velocity": 80,
          "beat_index": 358,
          "section": "verse"
        },
        {
          "t": 34645,
          "type": "drum_hit",
          "pitch": 42,
          "duration_ms": 87,
          "velocity": 60,
          "beat_index": 358,
          "section": "verse"
        },
        {
          "t": 34838,
          "type": "drum_hit",
          "pitch": 36,
          "duration_ms": 87,
          "velocity": 80,
          "beat_index": 360,
          "section": "verse"
        },
        {
          "t": 34838,
          "type": "drum_hit",
          "pitch": 42,
          "duration_ms": 87,
          "velocity": 60,
          "beat_index": 360,
          "section": "verse"
        },
        {
          "t": 35032,
          "type": "drum_hit",
          "pitch": 42,
          "duration_ms": 87,
          "velocity": 60,
          "beat_index": 362,
          "section": "verse"
        },
        {
          "t": 35225,
          "type": "drum_hit",
          "pitch": 38,
          "duration_ms": 87,
          "velocity": 70,
          "beat_index": 364,
          "section": "verse"
        },
        {
          "t": 35225,
          "type": "drum_hit",
          "pitch": 42,
          "duration_ms": 87,
          "velocity": 60,
          "beat_index": 364,
          "section": "verse"
        },
        {
          "t": 35419,
          "type": "drum_hit",
          "pitch": 36,
          "duration_ms": 87,
          "velocity": 80,
          "beat_index": 366,
          "section": "verse"
        },
        {
          "t": 35419,
          "type": "drum_hit",
          "pitch": 42,
          "duration_ms": 87,
          "velocity": 60,
          "beat_index": 366,
          "section": "verse"
        },
        {
          "t": 35612,
          "type": "drum_hit",
          "pitch": 36,
          "duration_ms": 87,
          "velocity": 80,
          "beat_index": 368,
          "section": "verse"
        },
        {
          "t": 35612,
          "type": "drum_hit",
          "pitch": 42,
          "duration_ms": 87,
          "velocity": 60,
          "beat_index": 368,
          "section": "verse"
        },
        {
          "t": 35806,
          "type": "drum_hit",
          "pitch": 42,
          "duration_ms": 87,
          "velocity": 60,
          "beat_index": 370,
          "section": "verse"
        },
        {
          "t": 36000,
          "type": "drum_hit",
          "pitch": 38,
          "duration_ms": 87,
          "velocity": 70,
          "beat_index": 372,
          "section": "verse"
        },
        {
          "t": 36000,
          "type": "drum_hit",
          "pitch": 42,
          "duration_ms": 87,
          "velocity": 60,
          "beat_index": 372,
          "section": "verse"
        },
        {
          "t": 36193,
          "type": "drum_hit",
          "pitch": 36,
          "duration_ms": 87,
          "velocity": 80,
          "beat_index": 374,
          "section": "verse"
        },
        {
          "t": 36193,
          "type": "drum_hit",
          "pitch": 42,
          "duration_ms": 87,
          "velocity": 60,
          "beat_index": 374,
          "section": "verse"
        },
        {
          "t": 36387,
          "type": "drum_hit",
          "pitch": 36,
          "duration_ms": 87,
          "velocity": 80,
          "beat_index": 376,
          "section": "verse"
        },
        {
          "t": 36387,
          "type": "drum_hit",
          "pitch": 42,
          "duration_ms": 87,
          "velocity": 60,
          "beat_index": 376,
          "section": "verse"
        },
        {
          "t": 36580,
          "type": "drum_hit",
          "pitch": 42,
          "duration_ms": 87,
          "velocity": 60,
          "beat_index": 378,
          "section": "verse"
        },
        {
          "t": 36774,
          "type": "drum_hit",
          "pitch": 38,
          "duration_ms": 87,
          "velocity": 70,
          "beat_index": 380,
          "section": "verse"
        },
        {
          "t": 36774,
          "type": "drum_hit",
          "pitch": 42,
          "duration_ms": 87,
          "velocity": 60,
          "beat_index": 380,
          "section": "verse"
        },
        {
          "t": 36967,
          "type": "drum_hit",
          "pitch": 36,
          "duration_ms": 87,
          "velocity": 80,
          "beat_index": 382,
          "section": "verse"
        },
        {
          "t": 36967,
          "type": "drum_hit",
          "pitch": 42,
          "duration_ms": 87,
          "velocity": 60,
          "beat_index": 382,
          "section": "verse"
        },
        {
          "t": 37161,
          "type": "drum_hit",
          "pitch": 36,
          "duration_ms": 87,
          "velocity": 85,
          "beat_index": 384,
          "section": "build-up"
        },
        {
          "t": 37161,
          "type": "drum_hit",
          "pitch": 42,
          "duration_ms": 87,
          "velocity": 65,
          "beat_index": 384,
          "section": "build-up"
        },
        {
          "t": 37354,
          "type": "drum_hit",
          "pitch": 42,
          "duration_ms": 87,
          "velocity": 65,
          "beat_index": 386,
          "section": "build-up"
        },
        {
          "t": 37548,
          "type": "drum_hit",
          "pitch": 38,
          "duration_ms": 87,
          "velocity": 75,
          "beat_index": 388,
          "section": "build-up"
        },
        {
          "t": 37548,
          "type": "drum_hit",
          "pitch": 42,
          "duration_ms": 87,
          "velocity": 65,
          "beat_index": 388,
          "section": "build-up"
        },
        {
          "t": 37741,
          "type": "drum_hit",
          "pitch": 36,
          "duration_ms": 87,
          "velocity": 85,
          "beat_index": 390,
          "section": "build-up"
        },
        {
          "t": 37741,
          "type": "drum_hit",
          "pitch": 42,
          "duration_ms": 87,
          "velocity": 65,
          "beat_index": 390,
          "section": "build-up"
        },
        {
          "t": 37935,
          "type": "drum_hit",
          "pitch": 36,
          "duration_ms": 87,
          "velocity": 85,
          "beat_index": 392,
          "section": "build-up"
        },
        {
          "t": 37935,
          "type": "drum_hit",
          "pitch": 42,
          "duration_ms": 87,
          "velocity": 65,
          "beat_index": 392,
          "section": "build-up"
        },
        {
          "t": 38129,
          "type": "drum_hit",
          "pitch": 42,
          "duration_ms": 87,
          "velocity": 65,
          "beat_index": 394,
          "section": "build-up"
        },
        {
          "t": 38322,
          "type": "drum_hit",
          "pitch": 38,
          "duration_ms": 87,
          "velocity": 75,
          "beat_index": 396,
          "section": "build-up"
        },
        {
          "t": 38322,
          "type": "drum_hit",
          "pitch": 42,
          "duration_ms": 87,
          "velocity": 65,
          "beat_index": 396,
          "section": "build-up"
        },
        {
          "t": 38516,
          "type": "drum_hit",
          "pitch": 36,
          "duration_ms": 87,
          "velocity": 85,
          "beat_index": 398,
          "section": "build-up"
        },
        {
          "t": 38516,
          "type": "drum_hit",
          "pitch": 42,
          "duration_ms": 87,
          "velocity": 65,
          "beat_index": 398,
          "section": "build-up"
        },
        {
          "t": 38709,
          "type": "drum_hit",
          "pitch": 36,
          "duration_ms": 87,
          "velocity": 85,
          "beat_index": 400,
          "section": "build-up"
        },
        {
          "t": 38709,
          "type": "drum_hit",
          "pitch": 42,
          "duration_ms": 87,
          "velocity": 65,
          "beat_index": 400,
          "section": "build-up"
        },
        {
          "t": 38903,
          "type": "drum_hit",
          "pitch": 42,
          "duration_ms": 87,
          "velocity": 65,
          "beat_index": 402,
          "section": "build-up"
        },
        {
          "t": 39096,
          "type": "drum_hit",
          "pitch": 38,
          "duration_ms": 87,
          "velocity": 75,
          "beat_index": 404,
          "section": "build-up"
        },
        {
          "t": 39096,
          "type": "drum_hit",
          "pitch": 42,
          "duration_ms": 87,
          "velocity": 65,
          "beat_index": 404,
          "section": "build-up"
        },
        {
          "t": 39290,
          "type": "drum_hit",
          "pitch": 36,
          "duration_ms": 87,
          "velocity": 85,
          "beat_index": 406,
          "section": "build-up"
        },
        {
          "t": 39290,
          "type": "drum_hit",
          "pitch": 42,
          "duration_ms": 87,
          "velocity": 65,
          "beat_index": 406,
          "section": "build-up"
        },
        {
          "t": 39483,
          "type": "drum_hit",
          "pitch": 36,
          "duration_ms": 87,
          "velocity": 85,
          "beat_index": 408,
          "section": "build-up"
        },
        {
          "t": 39483,
          "type": "drum_hit",
          "pitch": 42,
          "duration_ms": 87,
          "velocity": 65,
          "beat_index": 408,
          "section": "build-up"
        },
        {
          "t": 39677,
          "type": "drum_hit",
          "pitch": 42,
          "duration_ms": 87,
          "velocity": 65,
          "beat_index": 410,
          "section": "build-up"
        },
        {
          "t": 39870,
          "type": "drum_hit",
          "pitch": 38,
          "duration_ms": 87,
          "velocity": 75,
          "beat_index": 412,
          "section": "build-up"
        },
        {
          "t": 39870,
          "type": "drum_hit",
          "pitch": 42,
          "duration_ms": 87,
          "velocity": 65,
          "beat_index": 412,
          "section": "build-up"
        },
        {
          "t": 40064,
          "type": "drum_hit",
          "pitch": 36,
          "duration_ms": 87,
          "velocity": 85,
          "beat_index": 414,
          "section": "build-up"
        },
        {
          "t": 40064,
          "type": "drum_hit",
          "pitch": 42,
          "duration_ms": 87,
          "velocity": 65,
          "beat_index": 414,
          "section": "build-up"
        },
        {
          "t": 40258,
          "type": "drum_hit",
          "pitch": 36,
          "duration_ms": 87,
          "velocity": 85,
          "beat_index": 416,
          "section": "build-up"
        },
        {
          "t": 40258,
          "type": "drum_hit",
          "pitch": 42,
          "duration_ms": 87,
          "velocity": 65,
          "beat_index": 416,
          "section": "build-up"
        },
        {
          "t": 40451,
          "type": "drum_hit",
          "pitch": 42,
          "duration_ms": 87,
          "velocity": 65,
          "beat_index": 418,
          "section": "build-up"
        },
        {
          "t": 40645,
          "type": "drum_hit",
          "pitch": 38,
          "duration_ms": 87,
          "velocity": 75,
          "beat_index": 420,
          "section": "build-up"
        },
        {
          "t": 40645,
          "type": "drum_hit",
          "pitch": 42,
          "duration_ms": 87,
          "velocity": 65,
          "beat_index": 420,
          "section": "build-up"
        },
        {
          "t": 40838,
          "type": "drum_hit",
          "pitch": 36,
          "duration_ms": 87,
          "velocity": 85,
          "beat_index": 422,
          "section": "build-up"
        },
        {
          "t": 40838,
          "type": "drum_hit",
          "pitch": 42,
          "duration_ms": 87,
          "velocity": 65,
          "beat_index": 422,
          "section": "build-up"
        },
        {
          "t": 41032,
          "type": "drum_hit",
          "pitch": 36,
          "duration_ms": 87,
          "velocity": 85,
          "beat_index": 424,
          "section": "build-up"
        },
        {
          "t": 41032,
          "type": "drum_hit",
          "pitch": 42,
          "duration_ms": 87,
          "velocity": 65,
          "beat_index": 424,
          "section": "build-up"
        },
        {
          "t": 41225,
          "type": "drum_hit",
          "pitch": 42,
          "duration_ms": 87,
          "velocity": 65,
          "beat_index": 426,
          "section": "build-up"
        },
        {
          "t": 41419,
          "type": "drum_hit",
          "pitch": 38,
          "duration_ms": 87,
          "velocity": 75,
          "beat_index": 428,
          "section": "build-up"
        },
        {
          "t": 41419,
          "type": "drum_hit",
          "pitch": 42,
          "duration_ms": 87,
          "velocity": 65,
          "beat_index": 428,
          "section": "build-up"
        },
        {
          "t": 41612,
          "type": "drum_hit",
          "pitch": 36,
          "duration_ms": 87,
          "velocity": 85,
          "beat_index": 430,
          "section": "build-up"
        },
        {
          "t": 41612,
          "type": "drum_hit",
          "pitch": 42,
          "duration_ms": 87,
          "velocity": 65,
          "beat_index": 430,
          "section": "build-up"
        },
        {
          "t": 41806,
          "type": "drum_hit",
          "pitch": 36,
          "duration_ms": 87,
          "velocity": 85,
          "beat_index": 432,
          "section": "build-up"
        },
        {
          "t": 41806,
          "type": "drum_hit",
          "pitch": 42,
          "duration_ms": 87,
          "velocity": 65,
          "beat_index": 432,
          "section": "build-up"
        },
        {
          "t": 42000,
          "type": "drum_hit",
          "pitch": 42,
          "duration_ms": 87,
          "velocity": 65,
          "beat_index": 434,
          "section": "build-up"
        },
        {
          "t": 42193,
          "type": "drum_hit",
          "pitch": 38,
          "duration_ms": 87,
          "velocity": 75,
          "beat_index": 436,
          "section": "build-up"
        },
        {
          "t": 42193,
          "type": "drum_hit",
          "pitch": 42,
          "duration_ms": 87,
          "velocity": 65,
          "beat_index": 436,
          "section": "build-up"
        },
        {
          "t": 42387,
          "type": "drum_hit",
          "pitch": 36,
          "duration_ms": 87,
          "velocity": 85,
          "beat_index": 438,
          "section": "build-up"
        },
        {
          "t": 42387,
          "type": "drum_hit",
          "pitch": 42,
          "duration_ms": 87,
          "velocity": 65,
          "beat_index": 438,
          "section": "build-up"
        },
        {
          "t": 42580,
          "type": "drum_hit",
          "pitch": 36,
          "duration_ms": 87,
          "velocity": 85,
          "beat_index": 440,
          "section": "build-up"
        },
        {
          "t": 42580,
          "type": "drum_hit",
          "pitch": 42,
          "duration_ms": 87,
          "velocity": 65,
          "beat_index": 440,
          "section": "build-up"
        },
        {
          "t": 42774,
          "type": "drum_hit",
          "pitch": 42,
          "duration_ms": 87,
          "velocity": 65,
          "beat_index": 442,
          "section": "build-up"
        },
        {
          "t": 42967,
          "type": "drum_hit",
          "pitch": 38,
          "duration_ms": 87,
          "velocity": 75,
          "beat_index": 444,
          "section": "build-up"
        },
        {
          "t": 42967,
          "type": "drum_hit",
          "pitch": 42,
          "duration_ms": 87,
          "velocity": 65,
          "beat_index": 444,
          "section": "build-up"
        },
        {
          "t": 43161,
          "type": "drum_hit",
          "pitch": 36,
          "duration_ms": 87,
          "velocity": 85,
          "beat_index": 446,
          "section": "build-up"
        },
        {
          "t": 43161,
          "type": "drum_hit",
          "pitch": 42,
          "duration_ms": 87,
          "velocity": 65,
          "beat_index": 446,
          "section": "build-up"
        },
        {
          "t": 43354,
          "type": "drum_hit",
          "pitch": 36,
          "duration_ms": 87,
          "velocity": 85,
          "beat_index": 448,
          "section": "build-up"
        },
        {
          "t": 43354,
          "type": "drum_hit",
          "pitch": 42,
          "duration_ms": 87,
          "velocity": 65,
          "beat_index": 448,
          "section": "build-up"
        },
        {
          "t": 43548,
          "type": "drum_hit",
          "pitch": 42,
          "duration_ms": 87,
          "velocity": 65,
          "beat_index": 450,
          "section": "build-up"
        },
        {
          "t": 43741,
          "type": "drum_hit",
          "pitch": 38,
          "duration_ms": 87,
          "velocity": 75,
          "beat_index": 452,
          "section": "build-up"
        },
        {
          "t": 43741,
          "type": "drum_hit",
          "pitch": 42,
          "duration_ms": 87,
          "velocity": 65,
          "beat_index": 452,
          "section": "build-up"
        },
        {
          "t": 43935,
          "type": "drum_hit",
          "pitch": 36,
          "duration_ms": 87,
          "velocity": 85,
          "beat_index": 454,
          "section": "build-up"
        },
        {
          "t": 43935,
          "type": "drum_hit",
          "pitch": 42,
          "duration_ms": 87,
          "velocity": 65,
          "beat_index": 454,
          "section": "build-up"
        },
        {
          "t": 44129,
          "type": "drum_hit",
          "pitch": 36,
          "duration_ms": 87,
          "velocity": 85,
          "beat_index": 456,
          "section": "build-up"
        },
        {
          "t": 44129,
          "type": "drum_hit",
          "pitch": 42,
          "duration_ms": 87,
          "velocity": 65,
          "beat_index": 456,
          "section": "build-up"
        },
        {
          "t": 44322,
          "type": "drum_hit",
          "pitch": 42,
          "duration_ms": 87,
          "velocity": 65,
          "beat_index": 458,
          "section": "build-up"
        },
        {
          "t": 44516,
          "type": "drum_hit",
          "pitch": 38,
          "duration_ms": 87,
          "velocity": 75,
          "beat_index": 460,
          "section": "build-up"
        },
        {
          "t": 44516,
          "type": "drum_hit",
          "pitch": 42,
          "duration_ms": 87,
          "velocity": 65,
          "beat_index": 460,
          "section": "build-up"
        },
        {
          "t": 44709,
          "type": "drum_hit",
          "pitch": 36,
          "duration_ms": 87,
          "velocity": 85,
          "beat_index": 462,
          "section": "build-up"
        },
        {
          "t": 44709,
          "type": "drum_hit",
          "pitch": 42,
          "duration_ms": 87,
          "velocity": 65,
          "beat_index": 462,
          "section": "build-up"
        },
        {
          "t": 44903,
          "type": "drum_hit",
          "pitch": 36,
          "duration_ms": 87,
          "velocity": 85,
          "beat_index": 464,
          "section": "build-up"
        },
        {
          "t": 44903,
          "type": "drum_hit",
          "pitch": 42,
          "duration_ms": 87,
          "velocity": 65,
          "beat_index": 464,
          "section": "build-up"
        },
        {
          "t": 45096,
          "type": "drum_hit",
          "pitch": 42,
          "duration_ms": 87,
          "velocity": 65,
          "beat_index": 466,
          "section": "build-up"
        },
        {
          "t": 45290,
          "type": "drum_hit",
          "pitch": 38,
          "duration_ms": 87,
          "velocity": 75,
          "beat_index": 468,
          "section": "build-up"
        },
        {
          "t": 45290,
          "type": "drum_hit",
          "pitch": 42,
          "duration_ms": 87,
          "velocity": 65,
          "beat_index": 468,
          "section": "build-up"
        },
        {
          "t": 45483,
          "type": "drum_hit",
          "pitch": 36,
          "duration_ms": 87,
          "velocity": 85,
          "beat_index": 470,
          "section": "build-up"
        },
        {
          "t": 45483,
          "type": "drum_hit",
          "pitch": 42,
          "duration_ms": 87,
          "velocity": 65,
          "beat_index": 470,
          "section": "build-up"
        },
        {
          "t": 45677,
          "type": "drum_hit",
          "pitch": 36,
          "duration_ms": 87,
          "velocity": 85,
          "beat_index": 472,
          "section": "build-up"
        },
        {
          "t": 45677,
          "type": "drum_hit",
          "pitch": 42,
          "duration_ms": 87,
          "velocity": 65,
          "beat_index": 472,
          "section": "build-up"
        },
        {
          "t": 45870,
          "type": "drum_hit",
          "pitch": 42,
          "duration_ms": 87,
          "velocity": 65,
          "beat_index": 474,
          "section": "build-up"
        },
        {
          "t": 46064,
          "type": "drum_hit",
          "pitch": 38,
          "duration_ms": 87,
          "velocity": 75,
          "beat_index": 476,
          "section": "build-up"
        },
        {
          "t": 46064,
          "type": "drum_hit",
          "pitch": 42,
          "duration_ms": 87,
          "velocity": 65,
          "beat_index": 476,
          "section": "build-up"
        },
        {
          "t": 46258,
          "type": "drum_hit",
          "pitch": 36,
          "duration_ms": 87,
          "velocity": 85,
          "beat_index": 478,
          "section": "build-up"
        },
        {
          "t": 46258,
          "type": "drum_hit",
          "pitch": 42,
          "duration_ms": 87,
          "velocity": 65,
          "beat_index": 478,
          "section": "build-up"
        },
        {
          "t": 46451,
          "type": "drum_hit",
          "pitch": 36,
          "duration_ms": 87,
          "velocity": 85,
          "beat_index": 480,
          "section": "build-up"
        },
        {
          "t": 46451,
          "type": "drum_hit",
          "pitch": 42,
          "duration_ms": 87,
          "velocity": 65,
          "beat_index": 480,
          "section": "build-up"
        },
        {
          "t": 46645,
          "type": "drum_hit",
          "pitch": 42,
          "duration_ms": 87,
          "velocity": 65,
          "beat_index": 482,
          "section": "build-up"
        },
        {
          "t": 46838,
          "type": "drum_hit",
          "pitch": 38,
          "duration_ms": 87,
          "velocity": 75,
          "beat_index": 484,
          "section": "build-up"
        },
        {
          "t": 46838,
          "type": "drum_hit",
          "pitch": 42,
          "duration_ms": 87,
          "velocity": 65,
          "beat_index": 484,
          "section": "build-up"
        },
        {
          "t": 47032,
          "type": "drum_hit",
          "pitch": 36,
          "duration_ms": 87,
          "velocity": 85,
          "beat_index": 486,
          "section": "build-up"
        },
        {
          "t": 47032,
          "type": "drum_hit",
          "pitch": 42,
          "duration_ms": 87,
          "velocity": 65,
          "beat_index": 486,
          "section": "build-up"
        },
        {
          "t": 47225,
          "type": "drum_hit",
          "pitch": 36,
          "duration_ms": 87,
          "velocity": 85,
          "beat_index": 488,
          "section": "build-up"
        },
        {
          "t": 47225,
          "type": "drum_hit",
          "pitch": 42,
          "duration_ms": 87,
          "velocity": 65,
          "beat_index": 488,
          "section": "build-up"
        },
        {
          "t": 47419,
          "type": "drum_hit",
          "pitch": 42,
          "duration_ms": 87,
          "velocity": 65,
          "beat_index": 490,
          "section": "build-up"
        },
        {
          "t": 47612,
          "type": "drum_hit",
          "pitch": 38,
          "duration_ms": 87,
          "velocity": 75,
          "beat_index": 492,
          "section": "build-up"
        },
        {
          "t": 47612,
          "type": "drum_hit",
          "pitch": 42,
          "duration_ms": 87,
          "velocity": 65,
          "beat_index": 492,
          "section": "build-up"
        },
        {
          "t": 47806,
          "type": "drum_hit",
          "pitch": 36,
          "duration_ms": 87,
          "velocity": 85,
          "beat_index": 494,
          "section": "build-up"
        },
        {
          "t": 47806,
          "type": "drum_hit",
          "pitch": 42,
          "duration_ms": 87,
          "velocity": 65,
          "beat_index": 494,
          "section": "build-up"
        },
        {
          "t": 48000,
          "type": "drum_hit",
          "pitch": 36,
          "duration_ms": 87,
          "velocity": 85,
          "beat_index": 496,
          "section": "build-up"
        },
        {
          "t": 48000,
          "type": "drum_hit",
          "pitch": 42,
          "duration_ms": 87,
          "velocity": 65,
          "beat_index": 496,
          "section": "build-up"
        },
        {
          "t": 48193,
          "type": "drum_hit",
          "pitch": 42,
          "duration_ms": 87,
          "velocity": 65,
          "beat_index": 498,
          "section": "build-up"
        },
        {
          "t": 48387,
          "type": "drum_hit",
          "pitch": 38,
          "duration_ms": 87,
          "velocity": 75,
          "beat_index": 500,
          "section": "build-up"
        },
        {
          "t": 48387,
          "type": "drum_hit",
          "pitch": 42,
          "duration_ms": 87,
          "velocity": 65,
          "beat_index": 500,
          "section": "build-up"
        },
        {
          "t": 48580,
          "type": "drum_hit",
          "pitch": 36,
          "duration_ms": 87,
          "velocity": 85,
          "beat_index": 502,
          "section": "build-up"
        },
        {
          "t": 48580,
          "type": "drum_hit",
          "pitch": 42,
          "duration_ms": 87,
          "velocity": 65,
          "beat_index": 502,
          "section": "build-up"
        },
        {
          "t": 48774,
          "type": "drum_hit",
          "pitch": 36,
          "duration_ms": 87,
          "velocity": 85,
          "beat_index": 504,
          "section": "build-up"
        },
        {
          "t": 48774,
          "type": "drum_hit",
          "pitch": 42,
          "duration_ms": 87,
          "velocity": 65,
          "beat_index": 504,
          "section": "build-up"
        },
        {
          "t": 48967,
          "type": "drum_hit",
          "pitch": 42,
          "duration_ms": 87,
          "velocity": 65,
          "beat_index": 506,
          "section": "build-up"
        },
        {
          "t": 49161,
          "type": "drum_hit",
          "pitch": 38,
          "duration_ms": 87,
          "velocity": 75,
          "beat_index": 508,
          "section": "build-up"
        },
        {
          "t": 49161,
          "type": "drum_hit",
          "pitch": 42,
          "duration_ms": 87,
          "velocity": 65,
          "beat_index": 508,
          "section": "build-up"
        },
        {
          "t": 49354,
          "type": "drum_hit",
          "pitch": 36,
          "duration_ms": 87,
          "velocity": 85,
          "beat_index": 510,
          "section": "build-up"
        },
        {
          "t": 49354,
          "type": "drum_hit",
          "pitch": 42,
          "duration_ms": 87,
          "velocity": 65,
          "beat_index": 510,
          "section": "build-up"
        },
        {
          "t": 49548,
          "type": "drum_hit",
          "pitch": 36,
          "duration_ms": 87,
          "velocity": 127,
          "beat_index": 512,
          "section": "drop"
        },
        {
          "t": 49548,
          "type": "drum_hit",
          "pitch": 42,
          "duration_ms": 87,
          "velocity": 90,
          "beat_index": 512,
          "section": "drop"
        },
        {
          "t": 49741,
          "type": "drum_hit",
          "pitch": 42,
          "duration_ms": 87,
          "velocity": 90,
          "beat_index": 514,
          "section": "drop"
        },
        {
          "t": 49935,
          "type": "drum_hit",
          "pitch": 38,
          "duration_ms": 87,
          "velocity": 110,
          "beat_index": 516,
          "section": "drop"
        },
        {
          "t": 49935,
          "type": "drum_hit",
          "pitch": 42,
          "duration_ms": 87,
          "velocity": 90,
          "beat_index": 516,
          "section": "drop"
        },
        {
          "t": 50129,
          "type": "drum_hit",
          "pitch": 36,
          "duration_ms": 87,
          "velocity": 127,
          "beat_index": 518,
          "section": "drop"
        },
        {
          "t": 50129,
          "type": "drum_hit",
          "pitch": 42,
          "duration_ms": 87,
          "velocity": 90,
          "beat_index": 518,
          "section": "drop"
        },
        {
          "t": 50322,
          "type": "drum_hit",
          "pitch": 36,
          "duration_ms": 87,
          "velocity": 127,
          "beat_index": 520,
          "section": "drop"
        },
        {
          "t": 50322,
          "type": "drum_hit",
          "pitch": 42,
          "duration_ms": 87,
          "velocity": 90,
          "beat_index": 520,
          "section": "drop"
        },
        {
          "t": 50516,
          "type": "drum_hit",
          "pitch": 42,
          "duration_ms": 87,
          "velocity": 90,
          "beat_index": 522,
          "section": "drop"
        },
        {
          "t": 50709,
          "type": "drum_hit",
          "pitch": 38,
          "duration_ms": 87,
          "velocity": 110,
          "beat_index": 524,
          "section": "drop"
        },
        {
          "t": 50709,
          "type": "drum_hit",
          "pitch": 42,
          "duration_ms": 87,
          "velocity": 90,
          "beat_index": 524,
          "section": "drop"
        },
        {
          "t": 50903,
          "type": "drum_hit",
          "pitch": 36,
          "duration_ms": 87,
          "velocity": 127,
          "beat_index": 526,
          "section": "drop"
        },
        {
          "t": 50903,
          "type": "drum_hit",
          "pitch": 42,
          "duration_ms": 87,
          "velocity": 90,
          "beat_index": 526,
          "section": "drop"
        },
        {
          "t": 51096,
          "type": "drum_hit",
          "pitch": 36,
          "duration_ms": 87,
          "velocity": 127,
          "beat_index": 528,
          "section": "drop"
        },
        {
          "t": 51096,
          "type": "drum_hit",
          "pitch": 42,
          "duration_ms": 87,
          "velocity": 90,
          "beat_index": 528,
          "section": "drop"
        },
        {
          "t": 51290,
          "type": "drum_hit",
          "pitch": 42,
          "duration_ms": 87,
          "velocity": 90,
          "beat_index": 530,
          "section": "drop"
        },
        {
          "t": 51483,
          "type": "drum_hit",
          "pitch": 38,
          "duration_ms": 87,
          "velocity": 110,
          "beat_index": 532,
          "section": "drop"
        },
        {
          "t": 51483,
          "type": "drum_hit",
          "pitch": 42,
          "duration_ms": 87,
          "velocity": 90,
          "beat_index": 532,
          "section": "drop"
        },
        {
          "t": 51677,
          "type": "drum_hit",
          "pitch": 36,
          "duration_ms": 87,
          "velocity": 127,
          "beat_index": 534,
          "section": "drop"
        },
        {
          "t": 51677,
          "type": "drum_hit",
          "pitch": 42,
          "duration_ms": 87,
          "velocity": 90,
          "beat_index": 534,
          "section": "drop"
        },
        {
          "t": 51870,
          "type": "drum_hit",
          "pitch": 36,
          "duration_ms": 87,
          "velocity": 127,
          "beat_index": 536,
          "section": "drop"
        },
        {
          "t": 51870,
          "type": "drum_hit",
          "pitch": 42,
          "duration_ms": 87,
          "velocity": 90,
          "beat_index": 536,
          "section": "drop"
        },
        {
          "t": 52064,
          "type": "drum_hit",
          "pitch": 42,
          "duration_ms": 87,
          "velocity": 90,
          "beat_index": 538,
          "section": "drop"
        },
        {
          "t": 52258,
          "type": "drum_hit",
          "pitch": 38,
          "duration_ms": 87,
          "velocity": 110,
          "beat_index": 540,
          "section": "drop"
        },
        {
          "t": 52258,
          "type": "drum_hit",
          "pitch": 42,
          "duration_ms": 87,
          "velocity": 90,
          "beat_index": 540,
          "section": "drop"
        },
        {
          "t": 52451,
          "type": "drum_hit",
          "pitch": 36,
          "duration_ms": 87,
          "velocity": 127,
          "beat_index": 542,
          "section": "drop"
        },
        {
          "t": 52451,
          "type": "drum_hit",
          "pitch": 42,
          "duration_ms": 87,
          "velocity": 90,
          "beat_index": 542,
          "section": "drop"
        },
        {
          "t": 52645,
          "type": "drum_hit",
          "pitch": 36,
          "duration_ms": 87,
          "velocity": 127,
          "beat_index": 544,
          "section": "drop"
        },
        {
          "t": 52645,
          "type": "drum_hit",
          "pitch": 42,
          "duration_ms": 87,
          "velocity": 90,
          "beat_index": 544,
          "section": "drop"
        },
        {
          "t": 52838,
          "type": "drum_hit",
          "pitch": 42,
          "duration_ms": 87,
          "velocity": 90,
          "beat_index": 546,
          "section": "drop"
        },
        {
          "t": 53032,
          "type": "drum_hit",
          "pitch": 38,
          "duration_ms": 87,
          "velocity": 110,
          "beat_index": 548,
          "section": "drop"
        },
        {
          "t": 53032,
          "type": "drum_hit",
          "pitch": 42,
          "duration_ms": 87,
          "velocity": 90,
          "beat_index": 548,
          "section": "drop"
        },
        {
          "t": 53225,
          "type": "drum_hit",
          "pitch": 36,
          "duration_ms": 87,
          "velocity": 127,
          "beat_index": 550,
          "section": "drop"
        },
        {
          "t": 53225,
          "type": "drum_hit",
          "pitch": 42,
          "duration_ms": 87,
          "velocity": 90,
          "beat_index": 550,
          "section": "drop"
        },
        {
          "t": 53419,
          "type": "drum_hit",
          "pitch": 36,
          "duration_ms": 87,
          "velocity": 127,
          "beat_index": 552,
          "section": "drop"
        },
        {
          "t": 53419,
          "type": "drum_hit",
          "pitch": 42,
          "duration_ms": 87,
          "velocity": 90,
          "beat_index": 552,
          "section": "drop"
        },
        {
          "t": 53612,
          "type": "drum_hit",
          "pitch": 42,
          "duration_ms": 87,
          "velocity": 90,
          "beat_index": 554,
          "section": "drop"
        },
        {
          "t": 53806,
          "type": "drum_hit",
          "pitch": 38,
          "duration_ms": 87,
          "velocity": 110,
          "beat_index": 556,
          "section": "drop"
        },
        {
          "t": 53806,
          "type": "drum_hit",
          "pitch": 42,
          "duration_ms": 87,
          "velocity": 90,
          "beat_index": 556,
          "section": "drop"
        },
        {
          "t": 54000,
          "type": "drum_hit",
          "pitch": 36,
          "duration_ms": 87,
          "velocity": 127,
          "beat_index": 558,
          "section": "drop"
        },
        {
          "t": 54000,
          "type": "drum_hit",
          "pitch": 42,
          "duration_ms": 87,
          "velocity": 90,
          "beat_index": 558,
          "section": "drop"
        },
        {
          "t": 54193,
          "type": "drum_hit",
          "pitch": 36,
          "duration_ms": 87,
          "velocity": 127,
          "beat_index": 560,
          "section": "drop"
        },
        {
          "t": 54193,
          "type": "drum_hit",
          "pitch": 42,
          "duration_ms": 87,
          "velocity": 90,
          "beat_index": 560,
          "section": "drop"
        },
        {
          "t": 54387,
          "type": "drum_hit",
          "pitch": 42,
          "duration_ms": 87,
          "velocity": 90,
          "beat_index": 562,
          "section": "drop"
        },
        {
          "t": 54580,
          "type": "drum_hit",
          "pitch": 38,
          "duration_ms": 87,
          "velocity": 110,
          "beat_index": 564,
          "section": "drop"
        },
        {
          "t": 54580,
          "type": "drum_hit",
          "pitch": 42,
          "duration_ms": 87,
          "velocity": 90,
          "beat_index": 564,
          "section": "drop"
        },
        {
          "t": 54774,
          "type": "drum_hit",
          "pitch": 36,
          "duration_ms": 87,
          "velocity": 127,
          "beat_index": 566,
          "section": "drop"
        },
        {
          "t": 54774,
          "type": "drum_hit",
          "pitch": 42,
          "duration_ms": 87,
          "velocity": 90,
          "beat_index": 566,
          "section": "drop"
        },
        {
          "t": 54967,
          "type": "drum_hit",
          "pitch": 36,
          "duration_ms": 87,
          "velocity": 127,
          "beat_index": 568,
          "section": "drop"
        },
        {
          "t": 54967,
          "type": "drum_hit",
          "pitch": 42,
          "duration_ms": 87,
          "velocity": 90,
          "beat_index": 568,
          "section": "drop"
        },
        {
          "t": 55161,
          "type": "drum_hit",
          "pitch": 42,
          "duration_ms": 87,
          "velocity": 90,
          "beat_index": 570,
          "section": "drop"
        },
        {
          "t": 55354,
          "type": "drum_hit",
          "pitch": 38,
          "duration_ms": 87,
          "velocity": 110,
          "beat_index": 572,
          "section": "drop"
        },
        {
          "t": 55354,
          "type": "drum_hit",
          "pitch": 42,
          "duration_ms": 87,
          "velocity": 90,
          "beat_index": 572,
          "section": "drop"
        },
        {
          "t": 55548,
          "type": "drum_hit",
          "pitch": 36,
          "duration_ms": 87,
          "velocity": 127,
          "beat_index": 574,
          "section": "drop"
        },
        {
          "t": 55548,
          "type": "drum_hit",
          "pitch": 42,
          "duration_ms": 87,
          "velocity": 90,
          "beat_index": 574,
          "section": "drop"
        },
        {
          "t": 55741,
          "type": "drum_hit",
          "pitch": 36,
          "duration_ms": 87,
          "velocity": 127,
          "beat_index": 576,
          "section": "drop"
        },
        {
          "t": 55741,
          "type": "drum_hit",
          "pitch": 42,
          "duration_ms": 87,
          "velocity": 90,
          "beat_index": 576,
          "section": "drop"
        },
        {
          "t": 55935,
          "type": "drum_hit",
          "pitch": 42,
          "duration_ms": 87,
          "velocity": 90,
          "beat_index": 578,
          "section": "drop"
        },
        {
          "t": 56129,
          "type": "drum_hit",
          "pitch": 38,
          "duration_ms": 87,
          "velocity": 110,
          "beat_index": 580,
          "section": "drop"
        },
        {
          "t": 56129,
          "type": "drum_hit",
          "pitch": 42,
          "duration_ms": 87,
          "velocity": 90,
          "beat_index": 580,
          "section": "drop"
        },
        {
          "t": 56322,
          "type": "drum_hit",
          "pitch": 36,
          "duration_ms": 87,
          "velocity": 127,
          "beat_index": 582,
          "section": "drop"
        },
        {
          "t": 56322,
          "type": "drum_hit",
          "pitch": 42,
          "duration_ms": 87,
          "velocity": 90,
          "beat_index": 582,
          "section": "drop"
        },
        {
          "t": 56516,
          "type": "drum_hit",
          "pitch": 36,
          "duration_ms": 87,
          "velocity": 127,
          "beat_index": 584,
          "section": "drop"
        },
        {
          "t": 56516,
          "type": "drum_hit",
          "pitch": 42,
          "duration_ms": 87,
          "velocity": 90,
          "beat_index": 584,
          "section": "drop"
        },
        {
          "t": 56709,
          "type": "drum_hit",
          "pitch": 42,
          "duration_ms": 87,
          "velocity": 90,
          "beat_index": 586,
          "section": "drop"
        },
        {
          "t": 56903,
          "type": "drum_hit",
          "pitch": 38,
          "duration_ms": 87,
          "velocity": 110,
          "beat_index": 588,
          "section": "drop"
        },
        {
          "t": 56903,
          "type": "drum_hit",
          "pitch": 42,
          "duration_ms": 87,
          "velocity": 90,
          "beat_index": 588,
          "section": "drop"
        },
        {
          "t": 57096,
          "type": "drum_hit",
          "pitch": 36,
          "duration_ms": 87,
          "velocity": 127,
          "beat_index": 590,
          "section": "drop"
        },
        {
          "t": 57096,
          "type": "drum_hit",
          "pitch": 42,
          "duration_ms": 87,
          "velocity": 90,
          "beat_index": 590,
          "section": "drop"
        },
        {
          "t": 57290,
          "type": "drum_hit",
          "pitch": 36,
          "duration_ms": 87,
          "velocity": 127,
          "beat_index": 592,
          "section": "drop"
        },
        {
          "t": 57290,
          "type": "drum_hit",
          "pitch": 42,
          "duration_ms": 87,
          "velocity": 90,
          "beat_index": 592,
          "section": "drop"
        },
        {
          "t": 57483,
          "type": "drum_hit",
          "pitch": 42,
          "duration_ms": 87,
          "velocity": 90,
          "beat_index": 594,
          "section": "drop"
        },
        {
          "t": 57677,
          "type": "drum_hit",
          "pitch": 38,
          "duration_ms": 87,
          "velocity": 110,
          "beat_index": 596,
          "section": "drop"
        },
        {
          "t": 57677,
          "type": "drum_hit",
          "pitch": 42,
          "duration_ms": 87,
          "velocity": 90,
          "beat_index": 596,
          "section": "drop"
        },
        {
          "t": 57870,
          "type": "drum_hit",
          "pitch": 36,
          "duration_ms": 87,
          "velocity": 127,
          "beat_index": 598,
          "section": "drop"
        },
        {
          "t": 57870,
          "type": "drum_hit",
          "pitch": 42,
          "duration_ms": 87,
          "velocity": 90,
          "beat_index": 598,
          "section": "drop"
        },
        {
          "t": 58064,
          "type": "drum_hit",
          "pitch": 36,
          "duration_ms": 87,
          "velocity": 127,
          "beat_index": 600,
          "section": "drop"
        },
        {
          "t": 58064,
          "type": "drum_hit",
          "pitch": 42,
          "duration_ms": 87,
          "velocity": 90,
          "beat_index": 600,
          "section": "drop"
        },
        {
          "t": 58258,
          "type": "drum_hit",
          "pitch": 42,
          "duration_ms": 87,
          "velocity": 90,
          "beat_index": 602,
          "section": "drop"
        },
        {
          "t": 58451,
          "type": "drum_hit",
          "pitch": 38,
          "duration_ms": 87,
          "velocity": 110,
          "beat_index": 604,
          "section": "drop"
        },
        {
          "t": 58451,
          "type": "drum_hit",
          "pitch": 42,
          "duration_ms": 87,
          "velocity": 90,
          "beat_index": 604,
          "section": "drop"
        },
        {
          "t": 58645,
          "type": "drum_hit",
          "pitch": 36,
          "duration_ms": 87,
          "velocity": 127,
          "beat_index": 606,
          "section": "drop"
        },
        {
          "t": 58645,
          "type": "drum_hit",
          "pitch": 42,
          "duration_ms": 87,
          "velocity": 90,
          "beat_index": 606,
          "section": "drop"
        },
        {
          "t": 58838,
          "type": "drum_hit",
          "pitch": 36,
          "duration_ms": 87,
          "velocity": 127,
          "beat_index": 608,
          "section": "drop"
        },
        {
          "t": 58838,
          "type": "drum_hit",
          "pitch": 42,
          "duration_ms": 87,
          "velocity": 90,
          "beat_index": 608,
          "section": "drop"
        },
        {
          "t": 59032,
          "type": "drum_hit",
          "pitch": 42,
          "duration_ms": 87,
          "velocity": 90,
          "beat_index": 610,
          "section": "drop"
        },
        {
          "t": 59225,
          "type": "drum_hit",
          "pitch": 38,
          "duration_ms": 87,
          "velocity": 110,
          "beat_index": 612,
          "section": "drop"
        },
        {
          "t": 59225,
          "type": "drum_hit",
          "pitch": 42,
          "duration_ms": 87,
          "velocity": 90,
          "beat_index": 612,
          "section": "drop"
        },
        {
          "t": 59419,
          "type": "drum_hit",
          "pitch": 36,
          "duration_ms": 87,
          "velocity": 127,
          "beat_index": 614,
          "section": "drop"
        },
        {
          "t": 59419,
          "type": "drum_hit",
          "pitch": 42,
          "duration_ms": 87,
          "velocity": 90,
          "beat_index": 614,
          "section": "drop"
        },
        {
          "t": 59612,
          "type": "drum_hit",
          "pitch": 36,
          "duration_ms": 87,
          "velocity": 127,
          "beat_index": 616,
          "section": "drop"
        },
        {
          "t": 59612,
          "type": "drum_hit",
          "pitch": 42,
          "duration_ms": 87,
          "velocity": 90,
          "beat_index": 616,
          "section": "drop"
        },
        {
          "t": 59806,
          "type": "drum_hit",
          "pitch": 42,
          "duration_ms": 87,
          "velocity": 90,
          "beat_index": 618,
          "section": "drop"
        },
        {
          "t": 60000,
          "type": "drum_hit",
          "pitch": 38,
          "duration_ms": 87,
          "velocity": 110,
          "beat_index": 620,
          "section": "drop"
        },
        {
          "t": 60000,
          "type": "drum_hit",
          "pitch": 42,
          "duration_ms": 87,
          "velocity": 90,
          "beat_index": 620,
          "section": "drop"
        },
        {
          "t": 60193,
          "type": "drum_hit",
          "pitch": 36,
          "duration_ms": 87,
          "velocity": 127,
          "beat_index": 622,
          "section": "drop"
        },
        {
          "t": 60193,
          "type": "drum_hit",
          "pitch": 42,
          "duration_ms": 87,
          "velocity": 90,
          "beat_index": 622,
          "section": "drop"
        },
        {
          "t": 60387,
          "type": "drum_hit",
          "pitch": 36,
          "duration_ms": 87,
          "velocity": 127,
          "beat_index": 624,
          "section": "drop"
        },
        {
          "t": 60387,
          "type": "drum_hit",
          "pitch": 42,
          "duration_ms": 87,
          "velocity": 90,
          "beat_index": 624,
          "section": "drop"
        },
        {
          "t": 60580,
          "type": "drum_hit",
          "pitch": 42,
          "duration_ms": 87,
          "velocity": 90,
          "beat_index": 626,
          "section": "drop"
        },
        {
          "t": 60774,
          "type": "drum_hit",
          "pitch": 38,
          "duration_ms": 87,
          "velocity": 110,
          "beat_index": 628,
          "section": "drop"
        },
        {
          "t": 60774,
          "type": "drum_hit",
          "pitch": 42,
          "duration_ms": 87,
          "velocity": 90,
          "beat_index": 628,
          "section": "drop"
        },
        {
          "t": 60967,
          "type": "drum_hit",
          "pitch": 36,
          "duration_ms": 87,
          "velocity": 127,
          "beat_index": 630,
          "section": "drop"
        },
        {
          "t": 60967,
          "type": "drum_hit",
          "pitch": 42,
          "duration_ms": 87,
          "velocity": 90,
          "beat_index": 630,
          "section": "drop"
        },
        {
          "t": 61161,
          "type": "drum_hit",
          "pitch": 36,
          "duration_ms": 87,
          "velocity": 127,
          "beat_index": 632,
          "section": "drop"
        },
        {
          "t": 61161,
          "type": "drum_hit",
          "pitch": 42,
          "duration_ms": 87,
          "velocity": 90,
          "beat_index": 632,
          "section": "drop"
        },
        {
          "t": 61354,
          "type": "drum_hit",
          "pitch": 42,
          "duration_ms": 87,
          "velocity": 90,
          "beat_index": 634,
          "section": "drop"
        },
        {
          "t": 61548,
          "type": "drum_hit",
          "pitch": 38,
          "duration_ms": 87,
          "velocity": 110,
          "beat_index": 636,
          "section": "drop"
        },
        {
          "t": 61548,
          "type": "drum_hit",
          "pitch": 42,
          "duration_ms": 87,
          "velocity": 90,
          "beat_index": 636,
          "section": "drop"
        },
        {
          "t": 61741,
          "type": "drum_hit",
          "pitch": 36,
          "duration_ms": 87,
          "velocity": 127,
          "beat_index": 638,
          "section": "drop"
        },
        {
          "t": 61741,
          "type": "drum_hit",
          "pitch": 42,
          "duration_ms": 87,
          "velocity": 90,
          "beat_index": 638,
          "section": "drop"
        },
        {
          "t": 61935,
          "type": "drum_hit",
          "pitch": 36,
          "duration_ms": 87,
          "velocity": 127,
          "beat_index": 640,
          "section": "drop"
        },
        {
          "t": 61935,
          "type": "drum_hit",
          "pitch": 42,
          "duration_ms": 87,
          "velocity": 90,
          "beat_index": 640,
          "section": "drop"
        },
        {
          "t": 62129,
          "type": "drum_hit",
          "pitch": 42,
          "duration_ms": 87,
          "velocity": 90,
          "beat_index": 642,
          "section": "drop"
        },
        {
          "t": 62322,
          "type": "drum_hit",
          "pitch": 38,
          "duration_ms": 87,
          "velocity": 110,
          "beat_index": 644,
          "section": "drop"
        },
        {
          "t": 62322,
          "type": "drum_hit",
          "pitch": 42,
          "duration_ms": 87,
          "velocity": 90,
          "beat_index": 644,
          "section": "drop"
        },
        {
          "t": 62516,
          "type": "drum_hit",
          "pitch": 36,
          "duration_ms": 87,
          "velocity": 127,
          "beat_index": 646,
          "section": "drop"
        },
        {
          "t": 62516,
          "type": "drum_hit",
          "pitch": 42,
          "duration_ms": 87,
          "velocity": 90,
          "beat_index": 646,
          "section": "drop"
        },
        {
          "t": 62709,
          "type": "drum_hit",
          "pitch": 36,
          "duration_ms": 87,
          "velocity": 127,
          "beat_index": 648,
          "section": "drop"
        },
        {
          "t": 62709,
          "type": "drum_hit",
          "pitch": 42,
          "duration_ms": 87,
          "velocity": 90,
          "beat_index": 648,
          "section": "drop"
        },
        {
          "t": 62903,
          "type": "drum_hit",
          "pitch": 42,
          "duration_ms": 87,
          "velocity": 90,
          "beat_index": 650,
          "section": "drop"
        },
        {
          "t": 63096,
          "type": "drum_hit",
          "pitch": 38,
          "duration_ms": 87,
          "velocity": 110,
          "beat_index": 652,
          "section": "drop"
        },
        {
          "t": 63096,
          "type": "drum_hit",
          "pitch": 42,
          "duration_ms": 87,
          "velocity": 90,
          "beat_index": 652,
          "section": "drop"
        },
        {
          "t": 63290,
          "type": "drum_hit",
          "pitch": 36,
          "duration_ms": 87,
          "velocity": 127,
          "beat_index": 654,
          "section": "drop"
        },
        {
          "t": 63290,
          "type": "drum_hit",
          "pitch": 42,
          "duration_ms": 87,
          "velocity": 90,
          "beat_index": 654,
          "section": "drop"
        },
        {
          "t": 63483,
          "type": "drum_hit",
          "pitch": 36,
          "duration_ms": 87,
          "velocity": 127,
          "beat_index": 656,
          "section": "drop"
        },
        {
          "t": 63483,
          "type": "drum_hit",
          "pitch": 42,
          "duration_ms": 87,
          "velocity": 90,
          "beat_index": 656,
          "section": "drop"
        },
        {
          "t": 63677,
          "type": "drum_hit",
          "pitch": 42,
          "duration_ms": 87,
          "velocity": 90,
          "beat_index": 658,
          "section": "drop"
        },
        {
          "t": 63870,
          "type": "drum_hit",
          "pitch": 38,
          "duration_ms": 87,
          "velocity": 110,
          "beat_index": 660,
          "section": "drop"
        },
        {
          "t": 63870,
          "type": "drum_hit",
          "pitch": 42,
          "duration_ms": 87,
          "velocity": 90,
          "beat_index": 660,
          "section": "drop"
        },
        {
          "t": 64064,
          "type": "drum_hit",
          "pitch": 36,
          "duration_ms": 87,
          "velocity": 127,
          "beat_index": 662,
          "section": "drop"
        },
        {
          "t": 64064,
          "type": "drum_hit",
          "pitch": 42,
          "duration_ms": 87,
          "velocity": 90,
          "beat_index": 662,
          "section": "drop"
        },
        {
          "t": 64258,
          "type": "drum_hit",
          "pitch": 36,
          "duration_ms": 87,
          "velocity": 127,
          "beat_index": 664,
          "section": "drop"
        },
        {
          "t": 64258,
          "type": "drum_hit",
          "pitch": 42,
          "duration_ms": 87,
          "velocity": 90,
          "beat_index": 664,
          "section": "drop"
        },
        {
          "t": 64451,
          "type": "drum_hit",
          "pitch": 42,
          "duration_ms": 87,
          "velocity": 90,
          "beat_index": 666,
          "section": "drop"
        },
        {
          "t": 64645,
          "type": "drum_hit",
          "pitch": 38,
          "duration_ms": 87,
          "velocity": 110,
          "beat_index": 668,
          "section": "drop"
        },
        {
          "t": 64645,
          "type": "drum_hit",
          "pitch": 42,
          "duration_ms": 87,
          "velocity": 90,
          "beat_index": 668,
          "section": "drop"
        },
        {
          "t": 64838,
          "type": "drum_hit",
          "pitch": 36,
          "duration_ms": 87,
          "velocity": 127,
          "beat_index": 670,
          "section": "drop"
        },
        {
          "t": 64838,
          "type": "drum_hit",
          "pitch": 42,
          "duration_ms": 87,
          "velocity": 90,
          "beat_index": 670,
          "section": "drop"
        },
        {
          "t": 65032,
          "type": "drum_hit",
          "pitch": 36,
          "duration_ms": 87,
          "velocity": 127,
          "beat_index": 672,
          "section": "drop"
        },
        {
          "t": 65032,
          "type": "drum_hit",
          "pitch": 42,
          "duration_ms": 87,
          "velocity": 90,
          "beat_index": 672,
          "section": "drop"
        },
        {
          "t": 65225,
          "type": "drum_hit",
          "pitch": 42,
          "duration_ms": 87,
          "velocity": 90,
          "beat_index": 674,
          "section": "drop"
        },
        {
          "t": 65419,
          "type": "drum_hit",
          "pitch": 38,
          "duration_ms": 87,
          "velocity": 110,
          "beat_index": 676,
          "section": "drop"
        },
        {
          "t": 65419,
          "type": "drum_hit",
          "pitch": 42,
          "duration_ms": 87,
          "velocity": 90,
          "beat_index": 676,
          "section": "drop"
        },
        {
          "t": 65612,
          "type": "drum_hit",
          "pitch": 36,
          "duration_ms": 87,
          "velocity": 127,
          "beat_index": 678,
          "section": "drop"
        },
        {
          "t": 65612,
          "type": "drum_hit",
          "pitch": 42,
          "duration_ms": 87,
          "velocity": 90,
          "beat_index": 678,
          "section": "drop"
        },
        {
          "t": 65806,
          "type": "drum_hit",
          "pitch": 36,
          "duration_ms": 87,
          "velocity": 127,
          "beat_index": 680,
          "section": "drop"
        },
        {
          "t": 65806,
          "type": "drum_hit",
          "pitch": 42,
          "duration_ms": 87,
          "velocity": 90,
          "beat_index": 680,
          "section": "drop"
        },
        {
          "t": 66000,
          "type": "drum_hit",
          "pitch": 42,
          "duration_ms": 87,
          "velocity": 90,
          "beat_index": 682,
          "section": "drop"
        },
        {
          "t": 66193,
          "type": "drum_hit",
          "pitch": 38,
          "duration_ms": 87,
          "velocity": 110,
          "beat_index": 684,
          "section": "drop"
        },
        {
          "t": 66193,
          "type": "drum_hit",
          "pitch": 42,
          "duration_ms": 87,
          "velocity": 90,
          "beat_index": 684,
          "section": "drop"
        },
        {
          "t": 66387,
          "type": "drum_hit",
          "pitch": 36,
          "duration_ms": 87,
          "velocity": 127,
          "beat_index": 686,
          "section": "drop"
        },
        {
          "t": 66387,
          "type": "drum_hit",
          "pitch": 42,
          "duration_ms": 87,
          "velocity": 90,
          "beat_index": 686,
          "section": "drop"
        },
        {
          "t": 66580,
          "type": "drum_hit",
          "pitch": 36,
          "duration_ms": 87,
          "velocity": 127,
          "beat_index": 688,
          "section": "drop"
        },
        {
          "t": 66580,
          "type": "drum_hit",
          "pitch": 42,
          "duration_ms": 87,
          "velocity": 90,
          "beat_index": 688,
          "section": "drop"
        },
        {
          "t": 66774,
          "type": "drum_hit",
          "pitch": 42,
          "duration_ms": 87,
          "velocity": 90,
          "beat_index": 690,
          "section": "drop"
        },
        {
          "t": 66967,
          "type": "drum_hit",
          "pitch": 38,
          "duration_ms": 87,
          "velocity": 110,
          "beat_index": 692,
          "section": "drop"
        },
        {
          "t": 66967,
          "type": "drum_hit",
          "pitch": 42,
          "duration_ms": 87,
          "velocity": 90,
          "beat_index": 692,
          "section": "drop"
        },
        {
          "t": 67161,
          "type": "drum_hit",
          "pitch": 36,
          "duration_ms": 87,
          "velocity": 127,
          "beat_index": 694,
          "section": "drop"
        },
        {
          "t": 67161,
          "type": "drum_hit",
          "pitch": 42,
          "duration_ms": 87,
          "velocity": 90,
          "beat_index": 694,
          "section": "drop"
        },
        {
          "t": 67354,
          "type": "drum_hit",
          "pitch": 36,
          "duration_ms": 87,
          "velocity": 127,
          "beat_index": 696,
          "section": "drop"
        },
        {
          "t": 67354,
          "type": "drum_hit",
          "pitch": 42,
          "duration_ms": 87,
          "velocity": 90,
          "beat_index": 696,
          "section": "drop"
        },
        {
          "t": 67548,
          "type": "drum_hit",
          "pitch": 42,
          "duration_ms": 87,
          "velocity": 90,
          "beat_index": 698,
          "section": "drop"
        },
        {
          "t": 67741,
          "type": "drum_hit",
          "pitch": 38,
          "duration_ms": 87,
          "velocity": 110,
          "beat_index": 700,
          "section": "drop"
        },
        {
          "t": 67741,
          "type": "drum_hit",
          "pitch": 42,
          "duration_ms": 87,
          "velocity": 90,
          "beat_index": 700,
          "section": "drop"
        },
        {
          "t": 67935,
          "type": "drum_hit",
          "pitch": 36,
          "duration_ms": 87,
          "velocity": 127,
          "beat_index": 702,
          "section": "drop"
        },
        {
          "t": 67935,
          "type": "drum_hit",
          "pitch": 42,
          "duration_ms": 87,
          "velocity": 90,
          "beat_index": 702,
          "section": "drop"
        },
        {
          "t": 68129,
          "type": "drum_hit",
          "pitch": 36,
          "duration_ms": 87,
          "velocity": 127,
          "beat_index": 704,
          "section": "drop"
        },
        {
          "t": 68129,
          "type": "drum_hit",
          "pitch": 42,
          "duration_ms": 87,
          "velocity": 90,
          "beat_index": 704,
          "section": "drop"
        },
        {
          "t": 68322,
          "type": "drum_hit",
          "pitch": 42,
          "duration_ms": 87,
          "velocity": 90,
          "beat_index": 706,
          "section": "drop"
        },
        {
          "t": 68516,
          "type": "drum_hit",
          "pitch": 38,
          "duration_ms": 87,
          "velocity": 110,
          "beat_index": 708,
          "section": "drop"
        },
        {
          "t": 68516,
          "type": "drum_hit",
          "pitch": 42,
          "duration_ms": 87,
          "velocity": 90,
          "beat_index": 708,
          "section": "drop"
        },
        {
          "t": 68709,
          "type": "drum_hit",
          "pitch": 36,
          "duration_ms": 87,
          "velocity": 127,
          "beat_index": 710,
          "section": "drop"
        },
        {
          "t": 68709,
          "type": "drum_hit",
          "pitch": 42,
          "duration_ms": 87,
          "velocity": 90,
          "beat_index": 710,
          "section": "drop"
        },
        {
          "t": 68903,
          "type": "drum_hit",
          "pitch": 36,
          "duration_ms": 87,
          "velocity": 127,
          "beat_index": 712,
          "section": "drop"
        },
        {
          "t": 68903,
          "type": "drum_hit",
          "pitch": 42,
          "duration_ms": 87,
          "velocity": 90,
          "beat_index": 712,
          "section": "drop"
        },
        {
          "t": 69096,
          "type": "drum_hit",
          "pitch": 42,
          "duration_ms": 87,
          "velocity": 90,
          "beat_index": 714,
          "section": "drop"
        },
        {
          "t": 69290,
          "type": "drum_hit",
          "pitch": 38,
          "duration_ms": 87,
          "velocity": 110,
          "beat_index": 716,
          "section": "drop"
        },
        {
          "t": 69290,
          "type": "drum_hit",
          "pitch": 42,
          "duration_ms": 87,
          "velocity": 90,
          "beat_index": 716,
          "section": "drop"
        },
        {
          "t": 69483,
          "type": "drum_hit",
          "pitch": 36,
          "duration_ms": 87,
          "velocity": 127,
          "beat_index": 718,
          "section": "drop"
        },
        {
          "t": 69483,
          "type": "drum_hit",
          "pitch": 42,
          "duration_ms": 87,
          "velocity": 90,
          "beat_index": 718,
          "section": "drop"
        },
        {
          "t": 69677,
          "type": "drum_hit",
          "pitch": 36,
          "duration_ms": 87,
          "velocity": 127,
          "beat_index": 720,
          "section": "drop"
        },
        {
          "t": 69677,
          "type": "drum_hit",
          "pitch": 42,
          "duration_ms": 87,
          "velocity": 90,
          "beat_index": 720,
          "section": "drop"
        },
        {
          "t": 69870,
          "type": "drum_hit",
          "pitch": 42,
          "duration_ms": 87,
          "velocity": 90,
          "beat_index": 722,
          "section": "drop"
        },
        {
          "t": 70064,
          "type": "drum_hit",
          "pitch": 38,
          "duration_ms": 87,
          "velocity": 110,
          "beat_index": 724,
          "section": "drop"
        },
        {
          "t": 70064,
          "type": "drum_hit",
          "pitch": 42,
          "duration_ms": 87,
          "velocity": 90,
          "beat_index": 724,
          "section": "drop"
        },
        {
          "t": 70258,
          "type": "drum_hit",
          "pitch": 36,
          "duration_ms": 87,
          "velocity": 127,
          "beat_index": 726,
          "section": "drop"
        },
        {
          "t": 70258,
          "type": "drum_hit",
          "pitch": 42,
          "duration_ms": 87,
          "velocity": 90,
          "beat_index": 726,
          "section": "drop"
        },
        {
          "t": 70451,
          "type": "drum_hit",
          "pitch": 36,
          "duration_ms": 87,
          "velocity": 127,
          "beat_index": 728,
          "section": "drop"
        },
        {
          "t": 70451,
          "type": "drum_hit",
          "pitch": 42,
          "duration_ms": 87,
          "velocity": 90,
          "beat_index": 728,
          "section": "drop"
        },
        {
          "t": 70645,
          "type": "drum_hit",
          "pitch": 42,
          "duration_ms": 87,
          "velocity": 90,
          "beat_index": 730,
          "section": "drop"
        },
        {
          "t": 70838,
          "type": "drum_hit",
          "pitch": 38,
          "duration_ms": 87,
          "velocity": 110,
          "beat_index": 732,
          "section": "drop"
        },
        {
          "t": 70838,
          "type": "drum_hit",
          "pitch": 42,
          "duration_ms": 87,
          "velocity": 90,
          "beat_index": 732,
          "section": "drop"
        },
        {
          "t": 71032,
          "type": "drum_hit",
          "pitch": 36,
          "duration_ms": 87,
          "velocity": 127,
          "beat_index": 734,
          "section": "drop"
        },
        {
          "t": 71032,
          "type": "drum_hit",
          "pitch": 42,
          "duration_ms": 87,
          "velocity": 90,
          "beat_index": 734,
          "section": "drop"
        },
        {
          "t": 71225,
          "type": "drum_hit",
          "pitch": 36,
          "duration_ms": 87,
          "velocity": 127,
          "beat_index": 736,
          "section": "drop"
        },
        {
          "t": 71225,
          "type": "drum_hit",
          "pitch": 42,
          "duration_ms": 87,
          "velocity": 90,
          "beat_index": 736,
          "section": "drop"
        },
        {
          "t": 71419,
          "type": "drum_hit",
          "pitch": 42,
          "duration_ms": 87,
          "velocity": 90,
          "beat_index": 738,
          "section": "drop"
        },
        {
          "t": 71612,
          "type": "drum_hit",
          "pitch": 38,
          "duration_ms": 87,
          "velocity": 110,
          "beat_index": 740,
          "section": "drop"
        },
        {
          "t": 71612,
          "type": "drum_hit",
          "pitch": 42,
          "duration_ms": 87,
          "velocity": 90,
          "beat_index": 740,
          "section": "drop"
        },
        {
          "t": 71806,
          "type": "drum_hit",
          "pitch": 36,
          "duration_ms": 87,
          "velocity": 127,
          "beat_index": 742,
          "section": "drop"
        },
        {
          "t": 71806,
          "type": "drum_hit",
          "pitch": 42,
          "duration_ms": 87,
          "velocity": 90,
          "beat_index": 742,
          "section": "drop"
        },
        {
          "t": 72000,
          "type": "drum_hit",
          "pitch": 36,
          "duration_ms": 87,
          "velocity": 127,
          "beat_index": 744,
          "section": "drop"
        },
        {
          "t": 72000,
          "type": "drum_hit",
          "pitch": 42,
          "duration_ms": 87,
          "velocity": 90,
          "beat_index": 744,
          "section": "drop"
        },
        {
          "t": 72193,
          "type": "drum_hit",
          "pitch": 42,
          "duration_ms": 87,
          "velocity": 90,
          "beat_index": 746,
          "section": "drop"
        },
        {
          "t": 72387,
          "type": "drum_hit",
          "pitch": 38,
          "duration_ms": 87,
          "velocity": 110,
          "beat_index": 748,
          "section": "drop"
        },
        {
          "t": 72387,
          "type": "drum_hit",
          "pitch": 42,
          "duration_ms": 87,
          "velocity": 90,
          "beat_index": 748,
          "section": "drop"
        },
        {
          "t": 72580,
          "type": "drum_hit",
          "pitch": 36,
          "duration_ms": 87,
          "velocity": 127,
          "beat_index": 750,
          "section": "drop"
        },
        {
          "t": 72580,
          "type": "drum_hit",
          "pitch": 42,
          "duration_ms": 87,
          "velocity": 90,
          "beat_index": 750,
          "section": "drop"
        },
        {
          "t": 72774,
          "type": "drum_hit",
          "pitch": 36,
          "duration_ms": 87,
          "velocity": 127,
          "beat_index": 752,
          "section": "drop"
        },
        {
          "t": 72774,
          "type": "drum_hit",
          "pitch": 42,
          "duration_ms": 87,
          "velocity": 90,
          "beat_index": 752,
          "section": "drop"
        },
        {
          "t": 72967,
          "type": "drum_hit",
          "pitch": 42,
          "duration_ms": 87,
          "velocity": 90,
          "beat_index": 754,
          "section": "drop"
        },
        {
          "t": 73161,
          "type": "drum_hit",
          "pitch": 38,
          "duration_ms": 87,
          "velocity": 110,
          "beat_index": 756,
          "section": "drop"
        },
        {
          "t": 73161,
          "type": "drum_hit",
          "pitch": 42,
          "duration_ms": 87,
          "velocity": 90,
          "beat_index": 756,
          "section": "drop"
        },
        {
          "t": 73354,
          "type": "drum_hit",
          "pitch": 36,
          "duration_ms": 87,
          "velocity": 127,
          "beat_index": 758,
          "section": "drop"
        },
        {
          "t": 73354,
          "type": "drum_hit",
          "pitch": 42,
          "duration_ms": 87,
          "velocity": 90,
          "beat_index": 758,
          "section": "drop"
        },
        {
          "t": 73548,
          "type": "drum_hit",
          "pitch": 36,
          "duration_ms": 87,
          "velocity": 127,
          "beat_index": 760,
          "section": "drop"
        },
        {
          "t": 73548,
          "type": "drum_hit",
          "pitch": 42,
          "duration_ms": 87,
          "velocity": 90,
          "beat_index": 760,
          "section": "drop"
        },
        {
          "t": 73741,
          "type": "drum_hit",
          "pitch": 42,
          "duration_ms": 87,
          "velocity": 90,
          "beat_index": 762,
          "section": "drop"
        },
        {
          "t": 73935,
          "type": "drum_hit",
          "pitch": 38,
          "duration_ms": 87,
          "velocity": 110,
          "beat_index": 764,
          "section": "drop"
        },
        {
          "t": 73935,
          "type": "drum_hit",
          "pitch": 42,
          "duration_ms": 87,
          "velocity": 90,
          "beat_index": 764,
          "section": "drop"
        },
        {
          "t": 74129,
          "type": "drum_hit",
          "pitch": 36,
          "duration_ms": 87,
          "velocity": 127,
          "beat_index": 766,
          "section": "drop"
        },
        {
          "t": 74129,
          "type": "drum_hit",
          "pitch": 42,
          "duration_ms": 87,
          "velocity": 90,
          "beat_index": 766,
          "section": "drop"
        },
        {
          "t": 74322,
          "type": "drum_hit",
          "pitch": 36,
          "duration_ms": 87,
          "velocity": 127,
          "beat_index": 768,
          "section": "drop"
        },
        {
          "t": 74322,
          "type": "drum_hit",
          "pitch": 42,
          "duration_ms": 87,
          "velocity": 90,
          "beat_index": 768,
          "section": "drop"
        },
        {
          "t": 74516,
          "type": "drum_hit",
          "pitch": 42,
          "duration_ms": 87,
          "velocity": 90,
          "beat_index": 770,
          "section": "drop"
        },
        {
          "t": 74709,
          "type": "drum_hit",
          "pitch": 38,
          "duration_ms": 87,
          "velocity": 110,
          "beat_index": 772,
          "section": "drop"
        },
        {
          "t": 74709,
          "type": "drum_hit",
          "pitch": 42,
          "duration_ms": 87,
          "velocity": 90,
          "beat_index": 772,
          "section": "drop"
        },
        {
          "t": 74903,
          "type": "drum_hit",
          "pitch": 36,
          "duration_ms": 87,
          "velocity": 127,
          "beat_index": 774,
          "section": "drop"
        },
        {
          "t": 74903,
          "type": "drum_hit",
          "pitch": 42,
          "duration_ms": 87,
          "velocity": 90,
          "beat_index": 774,
          "section": "drop"
        },
        {
          "t": 75096,
          "type": "drum_hit",
          "pitch": 36,
          "duration_ms": 87,
          "velocity": 127,
          "beat_index": 776,
          "section": "drop"
        },
        {
          "t": 75096,
          "type": "drum_hit",
          "pitch": 42,
          "duration_ms": 87,
          "velocity": 90,
          "beat_index": 776,
          "section": "drop"
        },
        {
          "t": 75290,
          "type": "drum_hit",
          "pitch": 42,
          "duration_ms": 87,
          "velocity": 90,
          "beat_index": 778,
          "section": "drop"
        },
        {
          "t": 75483,
          "type": "drum_hit",
          "pitch": 38,
          "duration_ms": 87,
          "velocity": 110,
          "beat_index": 780,
          "section": "drop"
        },
        {
          "t": 75483,
          "type": "drum_hit",
          "pitch": 42,
          "duration_ms": 87,
          "velocity": 90,
          "beat_index": 780,
          "section": "drop"
        },
        {
          "t": 75677,
          "type": "drum_hit",
          "pitch": 36,
          "duration_ms": 87,
          "velocity": 127,
          "beat_index": 782,
          "section": "drop"
        },
        {
          "t": 75677,
          "type": "drum_hit",
          "pitch": 42,
          "duration_ms": 87,
          "velocity": 90,
          "beat_index": 782,
          "section": "drop"
        },
        {
          "t": 75870,
          "type": "drum_hit",
          "pitch": 36,
          "duration_ms": 87,
          "velocity": 127,
          "beat_index": 784,
          "section": "drop"
        },
        {
          "t": 75870,
          "type": "drum_hit",
          "pitch": 42,
          "duration_ms": 87,
          "velocity": 90,
          "beat_index": 784,
          "section": "drop"
        },
        {
          "t": 76064,
          "type": "drum_hit",
          "pitch": 42,
          "duration_ms": 87,
          "velocity": 90,
          "beat_index": 786,
          "section": "drop"
        },
        {
          "t": 76258,
          "type": "drum_hit",
          "pitch": 38,
          "duration_ms": 87,
          "velocity": 110,
          "beat_index": 788,
          "section": "drop"
        },
        {
          "t": 76258,
          "type": "drum_hit",
          "pitch": 42,
          "duration_ms": 87,
          "velocity": 90,
          "beat_index": 788,
          "section": "drop"
        },
        {
          "t": 76451,
          "type": "drum_hit",
          "pitch": 36,
          "duration_ms": 87,
          "velocity": 127,
          "beat_index": 790,
          "section": "drop"
        },
        {
          "t": 76451,
          "type": "drum_hit",
          "pitch": 42,
          "duration_ms": 87,
          "velocity": 90,
          "beat_index": 790,
          "section": "drop"
        },
        {
          "t": 76645,
          "type": "drum_hit",
          "pitch": 36,
          "duration_ms": 87,
          "velocity": 127,
          "beat_index": 792,
          "section": "drop"
        },
        {
          "t": 76645,
          "type": "drum_hit",
          "pitch": 42,
          "duration_ms": 87,
          "velocity": 90,
          "beat_index": 792,
          "section": "drop"
        },
        {
          "t": 76838,
          "type": "drum_hit",
          "pitch": 42,
          "duration_ms": 87,
          "velocity": 90,
          "beat_index": 794,
          "section": "drop"
        },
        {
          "t": 77032,
          "type": "drum_hit",
          "pitch": 38,
          "duration_ms": 87,
          "velocity": 110,
          "beat_index": 796,
          "section": "drop"
        },
        {
          "t": 77032,
          "type": "drum_hit",
          "pitch": 42,
          "duration_ms": 87,
          "velocity": 90,
          "beat_index": 796,
          "section": "drop"
        },
        {
          "t": 77225,
          "type": "drum_hit",
          "pitch": 36,
          "duration_ms": 87,
          "velocity": 127,
          "beat_index": 798,
          "section": "drop"
        },
        {
          "t": 77225,
          "type": "drum_hit",
          "pitch": 42,
          "duration_ms": 87,
          "velocity": 90,
          "beat_index": 798,
          "section": "drop"
        },
        {
          "t": 77419,
          "type": "drum_hit",
          "pitch": 36,
          "duration_ms": 87,
          "velocity": 127,
          "beat_index": 800,
          "section": "drop"
        },
        {
          "t": 77419,
          "type": "drum_hit",
          "pitch": 42,
          "duration_ms": 87,
          "velocity": 90,
          "beat_index": 800,
          "section": "drop"
        },
        {
          "t": 77612,
          "type": "drum_hit",
          "pitch": 42,
          "duration_ms": 87,
          "velocity": 90,
          "beat_index": 802,
          "section": "drop"
        },
        {
          "t": 77806,
          "type": "drum_hit",
          "pitch": 38,
          "duration_ms": 87,
          "velocity": 110,
          "beat_index": 804,
          "section": "drop"
        },
        {
          "t": 77806,
          "type": "drum_hit",
          "pitch": 42,
          "duration_ms": 87,
          "velocity": 90,
          "beat_index": 804,
          "section": "drop"
        },
        {
          "t": 78000,
          "type": "drum_hit",
          "pitch": 36,
          "duration_ms": 87,
          "velocity": 127,
          "beat_index": 806,
          "section": "drop"
        },
        {
          "t": 78000,
          "type": "drum_hit",
          "pitch": 42,
          "duration_ms": 87,
          "velocity": 90,
          "beat_index": 806,
          "section": "drop"
        },
        {
          "t": 78193,
          "type": "drum_hit",
          "pitch": 36,
          "duration_ms": 87,
          "velocity": 127,
          "beat_index": 808,
          "section": "drop"
        },
        {
          "t": 78193,
          "type": "drum_hit",
          "pitch": 42,
          "duration_ms": 87,
          "velocity": 90,
          "beat_index": 808,
          "section": "drop"
        },
        {
          "t": 78387,
          "type": "drum_hit",
          "pitch": 42,
          "duration_ms": 87,
          "velocity": 90,
          "beat_index": 810,
          "section": "drop"
        },
        {
          "t": 78580,
          "type": "drum_hit",
          "pitch": 38,
          "duration_ms": 87,
          "velocity": 110,
          "beat_index": 812,
          "section": "drop"
        },
        {
          "t": 78580,
          "type": "drum_hit",
          "pitch": 42,
          "duration_ms": 87,
          "velocity": 90,
          "beat_index": 812,
          "section": "drop"
        },
        {
          "t": 78774,
          "type": "drum_hit",
          "pitch": 36,
          "duration_ms": 87,
          "velocity": 127,
          "beat_index": 814,
          "section": "drop"
        },
        {
          "t": 78774,
          "type": "drum_hit",
          "pitch": 42,
          "duration_ms": 87,
          "velocity": 90,
          "beat_index": 814,
          "section": "drop"
        },
        {
          "t": 78967,
          "type": "drum_hit",
          "pitch": 36,
          "duration_ms": 87,
          "velocity": 127,
          "beat_index": 816,
          "section": "drop"
        },
        {
          "t": 78967,
          "type": "drum_hit",
          "pitch": 42,
          "duration_ms": 87,
          "velocity": 90,
          "beat_index": 816,
          "section": "drop"
        },
        {
          "t": 79161,
          "type": "drum_hit",
          "pitch": 42,
          "duration_ms": 87,
          "velocity": 90,
          "beat_index": 818,
          "section": "drop"
        },
        {
          "t": 79354,
          "type": "drum_hit",
          "pitch": 38,
          "duration_ms": 87,
          "velocity": 110,
          "beat_index": 820,
          "section": "drop"
        },
        {
          "t": 79354,
          "type": "drum_hit",
          "pitch": 42,
          "duration_ms": 87,
          "velocity": 90,
          "beat_index": 820,
          "section": "drop"
        },
        {
          "t": 79548,
          "type": "drum_hit",
          "pitch": 36,
          "duration_ms": 87,
          "velocity": 127,
          "beat_index": 822,
          "section": "drop"
        },
        {
          "t": 79548,
          "type": "drum_hit",
          "pitch": 42,
          "duration_ms": 87,
          "velocity": 90,
          "beat_index": 822,
          "section": "drop"
        },
        {
          "t": 79741,
          "type": "drum_hit",
          "pitch": 36,
          "duration_ms": 87,
          "velocity": 127,
          "beat_index": 824,
          "section": "drop"
        },
        {
          "t": 79741,
          "type": "drum_hit",
          "pitch": 42,
          "duration_ms": 87,
          "velocity": 90,
          "beat_index": 824,
          "section": "drop"
        },
        {
          "t": 79935,
          "type": "drum_hit",
          "pitch": 42,
          "duration_ms": 87,
          "velocity": 90,
          "beat_index": 826,
          "section": "drop"
        },
        {
          "t": 80129,
          "type": "drum_hit",
          "pitch": 38,
          "duration_ms": 87,
          "velocity": 110,
          "beat_index": 828,
          "section": "drop"
        },
        {
          "t": 80129,
          "type": "drum_hit",
          "pitch": 42,
          "duration_ms": 87,
          "velocity": 90,
          "beat_index": 828,
          "section": "drop"
        },
        {
          "t": 80322,
          "type": "drum_hit",
          "pitch": 36,
          "duration_ms": 87,
          "velocity": 127,
          "beat_index": 830,
          "section": "drop"
        },
        {
          "t": 80322,
          "type": "drum_hit",
          "pitch": 42,
          "duration_ms": 87,
          "velocity": 90,
          "beat_index": 830,
          "section": "drop"
        },
        {
          "t": 80516,
          "type": "drum_hit",
          "pitch": 36,
          "duration_ms": 87,
          "velocity": 127,
          "beat_index": 832,
          "section": "drop"
        },
        {
          "t": 80516,
          "type": "drum_hit",
          "pitch": 42,
          "duration_ms": 87,
          "velocity": 90,
          "beat_index": 832,
          "section": "drop"
        },
        {
          "t": 80709,
          "type": "drum_hit",
          "pitch": 42,
          "duration_ms": 87,
          "velocity": 90,
          "beat_index": 834,
          "section": "drop"
        },
        {
          "t": 80903,
          "type": "drum_hit",
          "pitch": 38,
          "duration_ms": 87,
          "velocity": 110,
          "beat_index": 836,
          "section": "drop"
        },
        {
          "t": 80903,
          "type": "drum_hit",
          "pitch": 42,
          "duration_ms": 87,
          "velocity": 90,
          "beat_index": 836,
          "section": "drop"
        },
        {
          "t": 81096,
          "type": "drum_hit",
          "pitch": 36,
          "duration_ms": 87,
          "velocity": 127,
          "beat_index": 838,
          "section": "drop"
        },
        {
          "t": 81096,
          "type": "drum_hit",
          "pitch": 42,
          "duration_ms": 87,
          "velocity": 90,
          "beat_index": 838,
          "section": "drop"
        },
        {
          "t": 81290,
          "type": "drum_hit",
          "pitch": 36,
          "duration_ms": 87,
          "velocity": 127,
          "beat_index": 840,
          "section": "drop"
        },
        {
          "t": 81290,
          "type": "drum_hit",
          "pitch": 42,
          "duration_ms": 87,
          "velocity": 90,
          "beat_index": 840,
          "section": "drop"
        },
        {
          "t": 81483,
          "type": "drum_hit",
          "pitch": 42,
          "duration_ms": 87,
          "velocity": 90,
          "beat_index": 842,
          "section": "drop"
        },
        {
          "t": 81677,
          "type": "drum_hit",
          "pitch": 38,
          "duration_ms": 87,
          "velocity": 110,
          "beat_index": 844,
          "section": "drop"
        },
        {
          "t": 81677,
          "type": "drum_hit",
          "pitch": 42,
          "duration_ms": 87,
          "velocity": 90,
          "beat_index": 844,
          "section": "drop"
        },
        {
          "t": 81870,
          "type": "drum_hit",
          "pitch": 36,
          "duration_ms": 87,
          "velocity": 127,
          "beat_index": 846,
          "section": "drop"
        },
        {
          "t": 81870,
          "type": "drum_hit",
          "pitch": 42,
          "duration_ms": 87,
          "velocity": 90,
          "beat_index": 846,
          "section": "drop"
        },
        {
          "t": 82064,
          "type": "drum_hit",
          "pitch": 36,
          "duration_ms": 87,
          "velocity": 127,
          "beat_index": 848,
          "section": "drop"
        },
        {
          "t": 82064,
          "type": "drum_hit",
          "pitch": 42,
          "duration_ms": 87,
          "velocity": 90,
          "beat_index": 848,
          "section": "drop"
        },
        {
          "t": 82258,
          "type": "drum_hit",
          "pitch": 42,
          "duration_ms": 87,
          "velocity": 90,
          "beat_index": 850,
          "section": "drop"
        },
        {
          "t": 82451,
          "type": "drum_hit",
          "pitch": 38,
          "duration_ms": 87,
          "velocity": 110,
          "beat_index": 852,
          "section": "drop"
        },
        {
          "t": 82451,
          "type": "drum_hit",
          "pitch": 42,
          "duration_ms": 87,
          "velocity": 90,
          "beat_index": 852,
          "section": "drop"
        },
        {
          "t": 82645,
          "type": "drum_hit",
          "pitch": 36,
          "duration_ms": 87,
          "velocity": 127,
          "beat_index": 854,
          "section": "drop"
        },
        {
          "t": 82645,
          "type": "drum_hit",
          "pitch": 42,
          "duration_ms": 87,
          "velocity": 90,
          "beat_index": 854,
          "section": "drop"
        },
        {
          "t": 82838,
          "type": "drum_hit",
          "pitch": 36,
          "duration_ms": 87,
          "velocity": 127,
          "beat_index": 856,
          "section": "drop"
        },
        {
          "t": 82838,
          "type": "drum_hit",
          "pitch": 42,
          "duration_ms": 87,
          "velocity": 90,
          "beat_index": 856,
          "section": "drop"
        },
        {
          "t": 83032,
          "type": "drum_hit",
          "pitch": 42,
          "duration_ms": 87,
          "velocity": 90,
          "beat_index": 858,
          "section": "drop"
        },
        {
          "t": 83225,
          "type": "drum_hit",
          "pitch": 38,
          "duration_ms": 87,
          "velocity": 110,
          "beat_index": 860,
          "section": "drop"
        },
        {
          "t": 83225,
          "type": "drum_hit",
          "pitch": 42,
          "duration_ms": 87,
          "velocity": 90,
          "beat_index": 860,
          "section": "drop"
        },
        {
          "t": 83419,
          "type": "drum_hit",
          "pitch": 36,
          "duration_ms": 87,
          "velocity": 127,
          "beat_index": 862,
          "section": "drop"
        },
        {
          "t": 83419,
          "type": "drum_hit",
          "pitch": 42,
          "duration_ms": 87,
          "velocity": 90,
          "beat_index": 862,
          "section": "drop"
        },
        {
          "t": 83612,
          "type": "drum_hit",
          "pitch": 36,
          "duration_ms": 87,
          "velocity": 127,
          "beat_index": 864,
          "section": "drop"
        },
        {
          "t": 83612,
          "type": "drum_hit",
          "pitch": 42,
          "duration_ms": 87,
          "velocity": 90,
          "beat_index": 864,
          "section": "drop"
        },
        {
          "t": 83806,
          "type": "drum_hit",
          "pitch": 42,
          "duration_ms": 87,
          "velocity": 90,
          "beat_index": 866,
          "section": "drop"
        },
        {
          "t": 84000,
          "type": "drum_hit",
          "pitch": 38,
          "duration_ms": 87,
          "velocity": 110,
          "beat_index": 868,
          "section": "drop"
        },
        {
          "t": 84000,
          "type": "drum_hit",
          "pitch": 42,
          "duration_ms": 87,
          "velocity": 90,
          "beat_index": 868,
          "section": "drop"
        },
        {
          "t": 84193,
          "type": "drum_hit",
          "pitch": 36,
          "duration_ms": 87,
          "velocity": 127,
          "beat_index": 870,
          "section": "drop"
        },
        {
          "t": 84193,
          "type": "drum_hit",
          "pitch": 42,
          "duration_ms": 87,
          "velocity": 90,
          "beat_index": 870,
          "section": "drop"
        },
        {
          "t": 84387,
          "type": "drum_hit",
          "pitch": 36,
          "duration_ms": 87,
          "velocity": 127,
          "beat_index": 872,
          "section": "drop"
        },
        {
          "t": 84387,
          "type": "drum_hit",
          "pitch": 42,
          "duration_ms": 87,
          "velocity": 90,
          "beat_index": 872,
          "section": "drop"
        },
        {
          "t": 84580,
          "type": "drum_hit",
          "pitch": 42,
          "duration_ms": 87,
          "velocity": 90,
          "beat_index": 874,
          "section": "drop"
        },
        {
          "t": 84774,
          "type": "drum_hit",
          "pitch": 38,
          "duration_ms": 87,
          "velocity": 110,
          "beat_index": 876,
          "section": "drop"
        },
        {
          "t": 84774,
          "type": "drum_hit",
          "pitch": 42,
          "duration_ms": 87,
          "velocity": 90,
          "beat_index": 876,
          "section": "drop"
        },
        {
          "t": 84967,
          "type": "drum_hit",
          "pitch": 36,
          "duration_ms": 87,
          "velocity": 127,
          "beat_index": 878,
          "section": "drop"
        },
        {
          "t": 84967,
          "type": "drum_hit",
          "pitch": 42,
          "duration_ms": 87,
          "velocity": 90,
          "beat_index": 878,
          "section": "drop"
        },
        {
          "t": 85161,
          "type": "drum_hit",
          "pitch": 36,
          "duration_ms": 87,
          "velocity": 127,
          "beat_index": 880,
          "section": "drop"
        },
        {
          "t": 85161,
          "type": "drum_hit",
          "pitch": 42,
          "duration_ms": 87,
          "velocity": 90,
          "beat_index": 880,
          "section": "drop"
        },
        {
          "t": 85354,
          "type": "drum_hit",
          "pitch": 42,
          "duration_ms": 87,
          "velocity": 90,
          "beat_index": 882,
          "section": "drop"
        },
        {
          "t": 85548,
          "type": "drum_hit",
          "pitch": 38,
          "duration_ms": 87,
          "velocity": 110,
          "beat_index": 884,
          "section": "drop"
        },
        {
          "t": 85548,
          "type": "drum_hit",
          "pitch": 42,
          "duration_ms": 87,
          "velocity": 90,
          "beat_index": 884,
          "section": "drop"
        },
        {
          "t": 85741,
          "type": "drum_hit",
          "pitch": 36,
          "duration_ms": 87,
          "velocity": 127,
          "beat_index": 886,
          "section": "drop"
        },
        {
          "t": 85741,
          "type": "drum_hit",
          "pitch": 42,
          "duration_ms": 87,
          "velocity": 90,
          "beat_index": 886,
          "section": "drop"
        },
        {
          "t": 85935,
          "type": "drum_hit",
          "pitch": 36,
          "duration_ms": 87,
          "velocity": 127,
          "beat_index": 888,
          "section": "drop"
        },
        {
          "t": 85935,
          "type": "drum_hit",
          "pitch": 42,
          "duration_ms": 87,
          "velocity": 90,
          "beat_index": 888,
          "section": "drop"
        },
        {
          "t": 86129,
          "type": "drum_hit",
          "pitch": 42,
          "duration_ms": 87,
          "velocity": 90,
          "beat_index": 890,
          "section": "drop"
        },
        {
          "t": 86322,
          "type": "drum_hit",
          "pitch": 38,
          "duration_ms": 87,
          "velocity": 110,
          "beat_index": 892,
          "section": "drop"
        },
        {
          "t": 86322,
          "type": "drum_hit",
          "pitch": 42,
          "duration_ms": 87,
          "velocity": 90,
          "beat_index": 892,
          "section": "drop"
        },
        {
          "t": 86516,
          "type": "drum_hit",
          "pitch": 36,
          "duration_ms": 87,
          "velocity": 127,
          "beat_index": 894,
          "section": "drop"
        },
        {
          "t": 86516,
          "type": "drum_hit",
          "pitch": 42,
          "duration_ms": 87,
          "velocity": 90,
          "beat_index": 894,
          "section": "drop"
        },
        {
          "t": 86709,
          "type": "drum_hit",
          "pitch": 36,
          "duration_ms": 87,
          "velocity": 127,
          "beat_index": 896,
          "section": "drop"
        },
        {
          "t": 86709,
          "type": "drum_hit",
          "pitch": 42,
          "duration_ms": 87,
          "velocity": 90,
          "beat_index": 896,
          "section": "drop"
        },
        {
          "t": 86903,
          "type": "drum_hit",
          "pitch": 42,
          "duration_ms": 87,
          "velocity": 90,
          "beat_index": 898,
          "section": "drop"
        },
        {
          "t": 87096,
          "type": "drum_hit",
          "pitch": 38,
          "duration_ms": 87,
          "velocity": 110,
          "beat_index": 900,
          "section": "drop"
        },
        {
          "t": 87096,
          "type": "drum_hit",
          "pitch": 42,
          "duration_ms": 87,
          "velocity": 90,
          "beat_index": 900,
          "section": "drop"
        },
        {
          "t": 87290,
          "type": "drum_hit",
          "pitch": 36,
          "duration_ms": 87,
          "velocity": 127,
          "beat_index": 902,
          "section": "drop"
        },
        {
          "t": 87290,
          "type": "drum_hit",
          "pitch": 42,
          "duration_ms": 87,
          "velocity": 90,
          "beat_index": 902,
          "section": "drop"
        },
        {
          "t": 87483,
          "type": "drum_hit",
          "pitch": 36,
          "duration_ms": 87,
          "velocity": 127,
          "beat_index": 904,
          "section": "drop"
        },
        {
          "t": 87483,
          "type": "drum_hit",
          "pitch": 42,
          "duration_ms": 87,
          "velocity": 90,
          "beat_index": 904,
          "section": "drop"
        },
        {
          "t": 87677,
          "type": "drum_hit",
          "pitch": 42,
          "duration_ms": 87,
          "velocity": 90,
          "beat_index": 906,
          "section": "drop"
        },
        {
          "t": 87870,
          "type": "drum_hit",
          "pitch": 38,
          "duration_ms": 87,
          "velocity": 110,
          "beat_index": 908,
          "section": "drop"
        },
        {
          "t": 87870,
          "type": "drum_hit",
          "pitch": 42,
          "duration_ms": 87,
          "velocity": 90,
          "beat_index": 908,
          "section": "drop"
        },
        {
          "t": 88064,
          "type": "drum_hit",
          "pitch": 36,
          "duration_ms": 87,
          "velocity": 127,
          "beat_index": 910,
          "section": "drop"
        },
        {
          "t": 88064,
          "type": "drum_hit",
          "pitch": 42,
          "duration_ms": 87,
          "velocity": 90,
          "beat_index": 910,
          "section": "drop"
        },
        {
          "t": 88258,
          "type": "drum_hit",
          "pitch": 36,
          "duration_ms": 87,
          "velocity": 127,
          "beat_index": 912,
          "section": "drop"
        },
        {
          "t": 88258,
          "type": "drum_hit",
          "pitch": 42,
          "duration_ms": 87,
          "velocity": 90,
          "beat_index": 912,
          "section": "drop"
        },
        {
          "t": 88451,
          "type": "drum_hit",
          "pitch": 42,
          "duration_ms": 87,
          "velocity": 90,
          "beat_index": 914,
          "section": "drop"
        },
        {
          "t": 88645,
          "type": "drum_hit",
          "pitch": 38,
          "duration_ms": 87,
          "velocity": 110,
          "beat_index": 916,
          "section": "drop"
        },
        {
          "t": 88645,
          "type": "drum_hit",
          "pitch": 42,
          "duration_ms": 87,
          "velocity": 90,
          "beat_index": 916,
          "section": "drop"
        },
        {
          "t": 88838,
          "type": "drum_hit",
          "pitch": 36,
          "duration_ms": 87,
          "velocity": 127,
          "beat_index": 918,
          "section": "drop"
        },
        {
          "t": 88838,
          "type": "drum_hit",
          "pitch": 42,
          "duration_ms": 87,
          "velocity": 90,
          "beat_index": 918,
          "section": "drop"
        },
        {
          "t": 89032,
          "type": "drum_hit",
          "pitch": 36,
          "duration_ms": 87,
          "velocity": 127,
          "beat_index": 920,
          "section": "drop"
        },
        {
          "t": 89032,
          "type": "drum_hit",
          "pitch": 42,
          "duration_ms": 87,
          "velocity": 90,
          "beat_index": 920,
          "section": "drop"
        },
        {
          "t": 89225,
          "type": "drum_hit",
          "pitch": 42,
          "duration_ms": 87,
          "velocity": 90,
          "beat_index": 922,
          "section": "drop"
        },
        {
          "t": 89419,
          "type": "drum_hit",
          "pitch": 38,
          "duration_ms": 87,
          "velocity": 110,
          "beat_index": 924,
          "section": "drop"
        },
        {
          "t": 89419,
          "type": "drum_hit",
          "pitch": 42,
          "duration_ms": 87,
          "velocity": 90,
          "beat_index": 924,
          "section": "drop"
        },
        {
          "t": 89612,
          "type": "drum_hit",
          "pitch": 36,
          "duration_ms": 87,
          "velocity": 127,
          "beat_index": 926,
          "section": "drop"
        },
        {
          "t": 89612,
          "type": "drum_hit",
          "pitch": 42,
          "duration_ms": 87,
          "velocity": 90,
          "beat_index": 926,
          "section": "drop"
        },
        {
          "t": 89806,
          "type": "drum_hit",
          "pitch": 36,
          "duration_ms": 87,
          "velocity": 127,
          "beat_index": 928,
          "section": "drop"
        },
        {
          "t": 89806,
          "type": "drum_hit",
          "pitch": 42,
          "duration_ms": 87,
          "velocity": 90,
          "beat_index": 928,
          "section": "drop"
        },
        {
          "t": 90000,
          "type": "drum_hit",
          "pitch": 42,
          "duration_ms": 87,
          "velocity": 90,
          "beat_index": 930,
          "section": "drop"
        },
        {
          "t": 90193,
          "type": "drum_hit",
          "pitch": 38,
          "duration_ms": 87,
          "velocity": 110,
          "beat_index": 932,
          "section": "drop"
        },
        {
          "t": 90193,
          "type": "drum_hit",
          "pitch": 42,
          "duration_ms": 87,
          "velocity": 90,
          "beat_index": 932,
          "section": "drop"
        },
        {
          "t": 90387,
          "type": "drum_hit",
          "pitch": 36,
          "duration_ms": 87,
          "velocity": 127,
          "beat_index": 934,
          "section": "drop"
        },
        {
          "t": 90387,
          "type": "drum_hit",
          "pitch": 42,
          "duration_ms": 87,
          "velocity": 90,
          "beat_index": 934,
          "section": "drop"
        },
        {
          "t": 90580,
          "type": "drum_hit",
          "pitch": 36,
          "duration_ms": 87,
          "velocity": 127,
          "beat_index": 936,
          "section": "drop"
        },
        {
          "t": 90580,
          "type": "drum_hit",
          "pitch": 42,
          "duration_ms": 87,
          "velocity": 90,
          "beat_index": 936,
          "section": "drop"
        },
        {
          "t": 90774,
          "type": "drum_hit",
          "pitch": 42,
          "duration_ms": 87,
          "velocity": 90,
          "beat_index": 938,
          "section": "drop"
        },
        {
          "t": 90967,
          "type": "drum_hit",
          "pitch": 38,
          "duration_ms": 87,
          "velocity": 110,
          "beat_index": 940,
          "section": "drop"
        },
        {
          "t": 90967,
          "type": "drum_hit",
          "pitch": 42,
          "duration_ms": 87,
          "velocity": 90,
          "beat_index": 940,
          "section": "drop"
        },
        {
          "t": 91161,
          "type": "drum_hit",
          "pitch": 36,
          "duration_ms": 87,
          "velocity": 127,
          "beat_index": 942,
          "section": "drop"
        },
        {
          "t": 91161,
          "type": "drum_hit",
          "pitch": 42,
          "duration_ms": 87,
          "velocity": 90,
          "beat_index": 942,
          "section": "drop"
        },
        {
          "t": 91354,
          "type": "drum_hit",
          "pitch": 36,
          "duration_ms": 87,
          "velocity": 127,
          "beat_index": 944,
          "section": "drop"
        },
        {
          "t": 91354,
          "type": "drum_hit",
          "pitch": 42,
          "duration_ms": 87,
          "velocity": 90,
          "beat_index": 944,
          "section": "drop"
        },
        {
          "t": 91548,
          "type": "drum_hit",
          "pitch": 42,
          "duration_ms": 87,
          "velocity": 90,
          "beat_index": 946,
          "section": "drop"
        },
        {
          "t": 91741,
          "type": "drum_hit",
          "pitch": 38,
          "duration_ms": 87,
          "velocity": 110,
          "beat_index": 948,
          "section": "drop"
        },
        {
          "t": 91741,
          "type": "drum_hit",
          "pitch": 42,
          "duration_ms": 87,
          "velocity": 90,
          "beat_index": 948,
          "section": "drop"
        },
        {
          "t": 91935,
          "type": "drum_hit",
          "pitch": 36,
          "duration_ms": 87,
          "velocity": 127,
          "beat_index": 950,
          "section": "drop"
        },
        {
          "t": 91935,
          "type": "drum_hit",
          "pitch": 42,
          "duration_ms": 87,
          "velocity": 90,
          "beat_index": 950,
          "section": "drop"
        },
        {
          "t": 92129,
          "type": "drum_hit",
          "pitch": 36,
          "duration_ms": 87,
          "velocity": 127,
          "beat_index": 952,
          "section": "drop"
        },
        {
          "t": 92129,
          "type": "drum_hit",
          "pitch": 42,
          "duration_ms": 87,
          "velocity": 90,
          "beat_index": 952,
          "section": "drop"
        },
        {
          "t": 92322,
          "type": "drum_hit",
          "pitch": 42,
          "duration_ms": 87,
          "velocity": 90,
          "beat_index": 954,
          "section": "drop"
        },
        {
          "t": 92516,
          "type": "drum_hit",
          "pitch": 38,
          "duration_ms": 87,
          "velocity": 110,
          "beat_index": 956,
          "section": "drop"
        },
        {
          "t": 92516,
          "type": "drum_hit",
          "pitch": 42,
          "duration_ms": 87,
          "velocity": 90,
          "beat_index": 956,
          "section": "drop"
        },
        {
          "t": 92709,
          "type": "drum_hit",
          "pitch": 36,
          "duration_ms": 87,
          "velocity": 127,
          "beat_index": 958,
          "section": "drop"
        },
        {
          "t": 92709,
          "type": "drum_hit",
          "pitch": 42,
          "duration_ms": 87,
          "velocity": 90,
          "beat_index": 958,
          "section": "drop"
        },
        {
          "t": 92903,
          "type": "drum_hit",
          "pitch": 36,
          "duration_ms": 87,
          "velocity": 127,
          "beat_index": 960,
          "section": "drop"
        },
        {
          "t": 92903,
          "type": "drum_hit",
          "pitch": 42,
          "duration_ms": 87,
          "velocity": 90,
          "beat_index": 960,
          "section": "drop"
        },
        {
          "t": 93096,
          "type": "drum_hit",
          "pitch": 42,
          "duration_ms": 87,
          "velocity": 90,
          "beat_index": 962,
          "section": "drop"
        },
        {
          "t": 93290,
          "type": "drum_hit",
          "pitch": 38,
          "duration_ms": 87,
          "velocity": 110,
          "beat_index": 964,
          "section": "drop"
        },
        {
          "t": 93290,
          "type": "drum_hit",
          "pitch": 42,
          "duration_ms": 87,
          "velocity": 90,
          "beat_index": 964,
          "section": "drop"
        },
        {
          "t": 93483,
          "type": "drum_hit",
          "pitch": 36,
          "duration_ms": 87,
          "velocity": 127,
          "beat_index": 966,
          "section": "drop"
        },
        {
          "t": 93483,
          "type": "drum_hit",
          "pitch": 42,
          "duration_ms": 87,
          "velocity": 90,
          "beat_index": 966,
          "section": "drop"
        },
        {
          "t": 93677,
          "type": "drum_hit",
          "pitch": 36,
          "duration_ms": 87,
          "velocity": 127,
          "beat_index": 968,
          "section": "drop"
        },
        {
          "t": 93677,
          "type": "drum_hit",
          "pitch": 42,
          "duration_ms": 87,
          "velocity": 90,
          "beat_index": 968,
          "section": "drop"
        },
        {
          "t": 93870,
          "type": "drum_hit",
          "pitch": 42,
          "duration_ms": 87,
          "velocity": 90,
          "beat_index": 970,
          "section": "drop"
        },
        {
          "t": 94064,
          "type": "drum_hit",
          "pitch": 38,
          "duration_ms": 87,
          "velocity": 110,
          "beat_index": 972,
          "section": "drop"
        },
        {
          "t": 94064,
          "type": "drum_hit",
          "pitch": 42,
          "duration_ms": 87,
          "velocity": 90,
          "beat_index": 972,
          "section": "drop"
        },
        {
          "t": 94258,
          "type": "drum_hit",
          "pitch": 36,
          "duration_ms": 87,
          "velocity": 127,
          "beat_index": 974,
          "section": "drop"
        },
        {
          "t": 94258,
          "type": "drum_hit",
          "pitch": 42,
          "duration_ms": 87,
          "velocity": 90,
          "beat_index": 974,
          "section": "drop"
        },
        {
          "t": 94451,
          "type": "drum_hit",
          "pitch": 36,
          "duration_ms": 87,
          "velocity": 127,
          "beat_index": 976,
          "section": "drop"
        },
        {
          "t": 94451,
          "type": "drum_hit",
          "pitch": 42,
          "duration_ms": 87,
          "velocity": 90,
          "beat_index": 976,
          "section": "drop"
        },
        {
          "t": 94645,
          "type": "drum_hit",
          "pitch": 42,
          "duration_ms": 87,
          "velocity": 90,
          "beat_index": 978,
          "section": "drop"
        },
        {
          "t": 94838,
          "type": "drum_hit",
          "pitch": 38,
          "duration_ms": 87,
          "velocity": 110,
          "beat_index": 980,
          "section": "drop"
        },
        {
          "t": 94838,
          "type": "drum_hit",
          "pitch": 42,
          "duration_ms": 87,
          "velocity": 90,
          "beat_index": 980,
          "section": "drop"
        },
        {
          "t": 95032,
          "type": "drum_hit",
          "pitch": 36,
          "duration_ms": 87,
          "velocity": 127,
          "beat_index": 982,
          "section": "drop"
        },
        {
          "t": 95032,
          "type": "drum_hit",
          "pitch": 42,
          "duration_ms": 87,
          "velocity": 90,
          "beat_index": 982,
          "section": "drop"
        },
        {
          "t": 95225,
          "type": "drum_hit",
          "pitch": 36,
          "duration_ms": 87,
          "velocity": 127,
          "beat_index": 984,
          "section": "drop"
        },
        {
          "t": 95225,
          "type": "drum_hit",
          "pitch": 42,
          "duration_ms": 87,
          "velocity": 90,
          "beat_index": 984,
          "section": "drop"
        },
        {
          "t": 95419,
          "type": "drum_hit",
          "pitch": 42,
          "duration_ms": 87,
          "velocity": 90,
          "beat_index": 986,
          "section": "drop"
        },
        {
          "t": 95612,
          "type": "drum_hit",
          "pitch": 38,
          "duration_ms": 87,
          "velocity": 110,
          "beat_index": 988,
          "section": "drop"
        },
        {
          "t": 95612,
          "type": "drum_hit",
          "pitch": 42,
          "duration_ms": 87,
          "velocity": 90,
          "beat_index": 988,
          "section": "drop"
        },
        {
          "t": 95806,
          "type": "drum_hit",
          "pitch": 36,
          "duration_ms": 87,
          "velocity": 127,
          "beat_index": 990,
          "section": "drop"
        },
        {
          "t": 95806,
          "type": "drum_hit",
          "pitch": 42,
          "duration_ms": 87,
          "velocity": 90,
          "beat_index": 990,
          "section": "drop"
        },
        {
          "t": 96000,
          "type": "drum_hit",
          "pitch": 36,
          "duration_ms": 87,
          "velocity": 127,
          "beat_index": 992,
          "section": "drop"
        },
        {
          "t": 96000,
          "type": "drum_hit",
          "pitch": 42,
          "duration_ms": 87,
          "velocity": 90,
          "beat_index": 992,
          "section": "drop"
        },
        {
          "t": 96193,
          "type": "drum_hit",
          "pitch": 42,
          "duration_ms": 87,
          "velocity": 90,
          "beat_index": 994,
          "section": "drop"
        },
        {
          "t": 96387,
          "type": "drum_hit",
          "pitch": 38,
          "duration_ms": 87,
          "velocity": 110,
          "beat_index": 996,
          "section": "drop"
        },
        {
          "t": 96387,
          "type": "drum_hit",
          "pitch": 42,
          "duration_ms": 87,
          "velocity": 90,
          "beat_index": 996,
          "section": "drop"
        },
        {
          "t": 96580,
          "type": "drum_hit",
          "pitch": 36,
          "duration_ms": 87,
          "velocity": 127,
          "beat_index": 998,
          "section": "drop"
        },
        {
          "t": 96580,
          "type": "drum_hit",
          "pitch": 42,
          "duration_ms": 87,
          "velocity": 90,
          "beat_index": 998,
          "section": "drop"
        },
        {
          "t": 96774,
          "type": "drum_hit",
          "pitch": 36,
          "duration_ms": 87,
          "velocity": 127,
          "beat_index": 1000,
          "section": "drop"
        },
        {
          "t": 96774,
          "type": "drum_hit",
          "pitch": 42,
          "duration_ms": 87,
          "velocity": 90,
          "beat_index": 1000,
          "section": "drop"
        },
        {
          "t": 96967,
          "type": "drum_hit",
          "pitch": 42,
          "duration_ms": 87,
          "velocity": 90,
          "beat_index": 1002,
          "section": "drop"
        },
        {
          "t": 97161,
          "type": "drum_hit",
          "pitch": 38,
          "duration_ms": 87,
          "velocity": 110,
          "beat_index": 1004,
          "section": "drop"
        },
        {
          "t": 97161,
          "type": "drum_hit",
          "pitch": 42,
          "duration_ms": 87,
          "velocity": 90,
          "beat_index": 1004,
          "section": "drop"
        },
        {
          "t": 97354,
          "type": "drum_hit",
          "pitch": 36,
          "duration_ms": 87,
          "velocity": 127,
          "beat_index": 1006,
          "section": "drop"
        },
        {
          "t": 97354,
          "type": "drum_hit",
          "pitch": 42,
          "duration_ms": 87,
          "velocity": 90,
          "beat_index": 1006,
          "section": "drop"
        },
        {
          "t": 97548,
          "type": "drum_hit",
          "pitch": 36,
          "duration_ms": 87,
          "velocity": 127,
          "beat_index": 1008,
          "section": "drop"
        },
        {
          "t": 97548,
          "type": "drum_hit",
          "pitch": 42,
          "duration_ms": 87,
          "velocity": 90,
          "beat_index": 1008,
          "section": "drop"
        },
        {
          "t": 97741,
          "type": "drum_hit",
          "pitch": 42,
          "duration_ms": 87,
          "velocity": 90,
          "beat_index": 1010,
          "section": "drop"
        },
        {
          "t": 97935,
          "type": "drum_hit",
          "pitch": 38,
          "duration_ms": 87,
          "velocity": 110,
          "beat_index": 1012,
          "section": "drop"
        },
        {
          "t": 97935,
          "type": "drum_hit",
          "pitch": 42,
          "duration_ms": 87,
          "velocity": 90,
          "beat_index": 1012,
          "section": "drop"
        },
        {
          "t": 98129,
          "type": "drum_hit",
          "pitch": 36,
          "duration_ms": 87,
          "velocity": 127,
          "beat_index": 1014,
          "section": "drop"
        },
        {
          "t": 98129,
          "type": "drum_hit",
          "pitch": 42,
          "duration_ms": 87,
          "velocity": 90,
          "beat_index": 1014,
          "section": "drop"
        },
        {
          "t": 98322,
          "type": "drum_hit",
          "pitch": 36,
          "duration_ms": 87,
          "velocity": 127,
          "beat_index": 1016,
          "section": "drop"
        },
        {
          "t": 98322,
          "type": "drum_hit",
          "pitch": 42,
          "duration_ms": 87,
          "velocity": 90,
          "beat_index": 1016,
          "section": "drop"
        },
        {
          "t": 98516,
          "type": "drum_hit",
          "pitch": 42,
          "duration_ms": 87,
          "velocity": 90,
          "beat_index": 1018,
          "section": "drop"
        },
        {
          "t": 98709,
          "type": "drum_hit",
          "pitch": 38,
          "duration_ms": 87,
          "velocity": 110,
          "beat_index": 1020,
          "section": "drop"
        },
        {
          "t": 98709,
          "type": "drum_hit",
          "pitch": 42,
          "duration_ms": 87,
          "velocity": 90,
          "beat_index": 1020,
          "section": "drop"
        },
        {
          "t": 98903,
          "type": "drum_hit",
          "pitch": 36,
          "duration_ms": 87,
          "velocity": 127,
          "beat_index": 1022,
          "section": "drop"
        },
        {
          "t": 98903,
          "type": "drum_hit",
          "pitch": 42,
          "duration_ms": 87,
          "velocity": 90,
          "beat_index": 1022,
          "section": "drop"
        },
        {
          "t": 99096,
          "type": "drum_hit",
          "pitch": 36,
          "duration_ms": 87,
          "velocity": 90,
          "beat_index": 1024,
          "section": "bridge"
        },
        {
          "t": 99096,
          "type": "drum_hit",
          "pitch": 42,
          "duration_ms": 87,
          "velocity": 70,
          "beat_index": 1024,
          "section": "bridge"
        },
        {
          "t": 99290,
          "type": "drum_hit",
          "pitch": 42,
          "duration_ms": 87,
          "velocity": 70,
          "beat_index": 1026,
          "section": "bridge"
        },
        {
          "t": 99483,
          "type": "drum_hit",
          "pitch": 38,
          "duration_ms": 87,
          "velocity": 80,
          "beat_index": 1028,
          "section": "bridge"
        },
        {
          "t": 99483,
          "type": "drum_hit",
          "pitch": 42,
          "duration_ms": 87,
          "velocity": 70,
          "beat_index": 1028,
          "section": "bridge"
        },
        {
          "t": 99677,
          "type": "drum_hit",
          "pitch": 36,
          "duration_ms": 87,
          "velocity": 90,
          "beat_index": 1030,
          "section": "bridge"
        },
        {
          "t": 99677,
          "type": "drum_hit",
          "pitch": 42,
          "duration_ms": 87,
          "velocity": 70,
          "beat_index": 1030,
          "section": "bridge"
        },
        {
          "t": 99870,
          "type": "drum_hit",
          "pitch": 36,
          "duration_ms": 87,
          "velocity": 90,
          "beat_index": 1032,
          "section": "bridge"
        },
        {
          "t": 99870,
          "type": "drum_hit",
          "pitch": 42,
          "duration_ms": 87,
          "velocity": 70,
          "beat_index": 1032,
          "section": "bridge"
        },
        {
          "t": 100064,
          "type": "drum_hit",
          "pitch": 42,
          "duration_ms": 87,
          "velocity": 70,
          "beat_index": 1034,
          "section": "bridge"
        },
        {
          "t": 100258,
          "type": "drum_hit",
          "pitch": 38,
          "duration_ms": 87,
          "velocity": 80,
          "beat_index": 1036,
          "section": "bridge"
        },
        {
          "t": 100258,
          "type": "drum_hit",
          "pitch": 42,
          "duration_ms": 87,
          "velocity": 70,
          "beat_index": 1036,
          "section": "bridge"
        },
        {
          "t": 100451,
          "type": "drum_hit",
          "pitch": 36,
          "duration_ms": 87,
          "velocity": 90,
          "beat_index": 1038,
          "section": "bridge"
        },
        {
          "t": 100451,
          "type": "drum_hit",
          "pitch": 42,
          "duration_ms": 87,
          "velocity": 70,
          "beat_index": 1038,
          "section": "bridge"
        },
        {
          "t": 100645,
          "type": "drum_hit",
          "pitch": 36,
          "duration_ms": 87,
          "velocity": 90,
          "beat_index": 1040,
          "section": "bridge"
        },
        {
          "t": 100645,
          "type": "drum_hit",
          "pitch": 42,
          "duration_ms": 87,
          "velocity": 70,
          "beat_index": 1040,
          "section": "bridge"
        },
        {
          "t": 100838,
          "type": "drum_hit",
          "pitch": 42,
          "duration_ms": 87,
          "velocity": 70,
          "beat_index": 1042,
          "section": "bridge"
        },
        {
          "t": 101032,
          "type": "drum_hit",
          "pitch": 38,
          "duration_ms": 87,
          "velocity": 80,
          "beat_index": 1044,
          "section": "bridge"
        },
        {
          "t": 101032,
          "type": "drum_hit",
          "pitch": 42,
          "duration_ms": 87,
          "velocity": 70,
          "beat_index": 1044,
          "section": "bridge"
        },
        {
          "t": 101225,
          "type": "drum_hit",
          "pitch": 36,
          "duration_ms": 87,
          "velocity": 90,
          "beat_index": 1046,
          "section": "bridge"
        },
        {
          "t": 101225,
          "type": "drum_hit",
          "pitch": 42,
          "duration_ms": 87,
          "velocity": 70,
          "beat_index": 1046,
          "section": "bridge"
        },
        {
          "t": 101419,
          "type": "drum_hit",
          "pitch": 36,
          "duration_ms": 87,
          "velocity": 90,
          "beat_index": 1048,
          "section": "bridge"
        },
        {
          "t": 101419,
          "type": "drum_hit",
          "pitch": 42,
          "duration_ms": 87,
          "velocity": 70,
          "beat_index": 1048,
          "section": "bridge"
        },
        {
          "t": 101612,
          "type": "drum_hit",
          "pitch": 42,
          "duration_ms": 87,
          "velocity": 70,
          "beat_index": 1050,
          "section": "bridge"
        },
        {
          "t": 101806,
          "type": "drum_hit",
          "pitch": 38,
          "duration_ms": 87,
          "velocity": 80,
          "beat_index": 1052,
          "section": "bridge"
        },
        {
          "t": 101806,
          "type": "drum_hit",
          "pitch": 42,
          "duration_ms": 87,
          "velocity": 70,
          "beat_index": 1052,
          "section": "bridge"
        },
        {
          "t": 102000,
          "type": "drum_hit",
          "pitch": 36,
          "duration_ms": 87,
          "velocity": 90,
          "beat_index": 1054,
          "section": "bridge"
        },
        {
          "t": 102000,
          "type": "drum_hit",
          "pitch": 42,
          "duration_ms": 87,
          "velocity": 70,
          "beat_index": 1054,
          "section": "bridge"
        },
        {
          "t": 102193,
          "type": "drum_hit",
          "pitch": 36,
          "duration_ms": 87,
          "velocity": 90,
          "beat_index": 1056,
          "section": "bridge"
        },
        {
          "t": 102193,
          "type": "drum_hit",
          "pitch": 42,
          "duration_ms": 87,
          "velocity": 70,
          "beat_index": 1056,
          "section": "bridge"
        },
        {
          "t": 102387,
          "type": "drum_hit",
          "pitch": 42,
          "duration_ms": 87,
          "velocity": 70,
          "beat_index": 1058,
          "section": "bridge"
        },
        {
          "t": 102580,
          "type": "drum_hit",
          "pitch": 38,
          "duration_ms": 87,
          "velocity": 80,
          "beat_index": 1060,
          "section": "bridge"
        },
        {
          "t": 102580,
          "type": "drum_hit",
          "pitch": 42,
          "duration_ms": 87,
          "velocity": 70,
          "beat_index": 1060,
          "section": "bridge"
        },
        {
          "t": 102774,
          "type": "drum_hit",
          "pitch": 36,
          "duration_ms": 87,
          "velocity": 90,
          "beat_index": 1062,
          "section": "bridge"
        },
        {
          "t": 102774,
          "type": "drum_hit",
          "pitch": 42,
          "duration_ms": 87,
          "velocity": 70,
          "beat_index": 1062,
          "section": "bridge"
        },
        {
          "t": 102967,
          "type": "drum_hit",
          "pitch": 36,
          "duration_ms": 87,
          "velocity": 90,
          "beat_index": 1064,
          "section": "bridge"
        },
        {
          "t": 102967,
          "type": "drum_hit",
          "pitch": 42,
          "duration_ms": 87,
          "velocity": 70,
          "beat_index": 1064,
          "section": "bridge"
        },
        {
          "t": 103161,
          "type": "drum_hit",
          "pitch": 42,
          "duration_ms": 87,
          "velocity": 70,
          "beat_index": 1066,
          "section": "bridge"
        },
        {
          "t": 103354,
          "type": "drum_hit",
          "pitch": 38,
          "duration_ms": 87,
          "velocity": 80,
          "beat_index": 1068,
          "section": "bridge"
        },
        {
          "t": 103354,
          "type": "drum_hit",
          "pitch": 42,
          "duration_ms": 87,
          "velocity": 70,
          "beat_index": 1068,
          "section": "bridge"
        },
        {
          "t": 103548,
          "type": "drum_hit",
          "pitch": 36,
          "duration_ms": 87,
          "velocity": 90,
          "beat_index": 1070,
          "section": "bridge"
        },
        {
          "t": 103548,
          "type": "drum_hit",
          "pitch": 42,
          "duration_ms": 87,
          "velocity": 70,
          "beat_index": 1070,
          "section": "bridge"
        },
        {
          "t": 103741,
          "type": "drum_hit",
          "pitch": 36,
          "duration_ms": 87,
          "velocity": 90,
          "beat_index": 1072,
          "section": "bridge"
        },
        {
          "t": 103741,
          "type": "drum_hit",
          "pitch": 42,
          "duration_ms": 87,
          "velocity": 70,
          "beat_index": 1072,
          "section": "bridge"
        },
        {
          "t": 103935,
          "type": "drum_hit",
          "pitch": 42,
          "duration_ms": 87,
          "velocity": 70,
          "beat_index": 1074,
          "section": "bridge"
        },
        {
          "t": 104129,
          "type": "drum_hit",
          "pitch": 38,
          "duration_ms": 87,
          "velocity": 80,
          "beat_index": 1076,
          "section": "bridge"
        },
        {
          "t": 104129,
          "type": "drum_hit",
          "pitch": 42,
          "duration_ms": 87,
          "velocity": 70,
          "beat_index": 1076,
          "section": "bridge"
        },
        {
          "t": 104322,
          "type": "drum_hit",
          "pitch": 36,
          "duration_ms": 87,
          "velocity": 90,
          "beat_index": 1078,
          "section": "bridge"
        },
        {
          "t": 104322,
          "type": "drum_hit",
          "pitch": 42,
          "duration_ms": 87,
          "velocity": 70,
          "beat_index": 1078,
          "section": "bridge"
        },
        {
          "t": 104516,
          "type": "drum_hit",
          "pitch": 36,
          "duration_ms": 87,
          "velocity": 90,
          "beat_index": 1080,
          "section": "bridge"
        },
        {
          "t": 104516,
          "type": "drum_hit",
          "pitch": 42,
          "duration_ms": 87,
          "velocity": 70,
          "beat_index": 1080,
          "section": "bridge"
        },
        {
          "t": 104709,
          "type": "drum_hit",
          "pitch": 42,
          "duration_ms": 87,
          "velocity": 70,
          "beat_index": 1082,
          "section": "bridge"
        },
        {
          "t": 104903,
          "type": "drum_hit",
          "pitch": 38,
          "duration_ms": 87,
          "velocity": 80,
          "beat_index": 1084,
          "section": "bridge"
        },
        {
          "t": 104903,
          "type": "drum_hit",
          "pitch": 42,
          "duration_ms": 87,
          "velocity": 70,
          "beat_index": 1084,
          "section": "bridge"
        },
        {
          "t": 105096,
          "type": "drum_hit",
          "pitch": 36,
          "duration_ms": 87,
          "velocity": 90,
          "beat_index": 1086,
          "section": "bridge"
        },
        {
          "t": 105096,
          "type": "drum_hit",
          "pitch": 42,
          "duration_ms": 87,
          "velocity": 70,
          "beat_index": 1086,
          "section": "bridge"
        },
        {
          "t": 105290,
          "type": "drum_hit",
          "pitch": 36,
          "duration_ms": 87,
          "velocity": 90,
          "beat_index": 1088,
          "section": "bridge"
        },
        {
          "t": 105290,
          "type": "drum_hit",
          "pitch": 42,
          "duration_ms": 87,
          "velocity": 70,
          "beat_index": 1088,
          "section": "bridge"
        },
        {
          "t": 105483,
          "type": "drum_hit",
          "pitch": 42,
          "duration_ms": 87,
          "velocity": 70,
          "beat_index": 1090,
          "section": "bridge"
        },
        {
          "t": 105677,
          "type": "drum_hit",
          "pitch": 38,
          "duration_ms": 87,
          "velocity": 80,
          "beat_index": 1092,
          "section": "bridge"
        },
        {
          "t": 105677,
          "type": "drum_hit",
          "pitch": 42,
          "duration_ms": 87,
          "velocity": 70,
          "beat_index": 1092,
          "section": "bridge"
        },
        {
          "t": 105870,
          "type": "drum_hit",
          "pitch": 36,
          "duration_ms": 87,
          "velocity": 90,
          "beat_index": 1094,
          "section": "bridge"
        },
        {
          "t": 105870,
          "type": "drum_hit",
          "pitch": 42,
          "duration_ms": 87,
          "velocity": 70,
          "beat_index": 1094,
          "section": "bridge"
        },
        {
          "t": 106064,
          "type": "drum_hit",
          "pitch": 36,
          "duration_ms": 87,
          "velocity": 90,
          "beat_index": 1096,
          "section": "bridge"
        },
        {
          "t": 106064,
          "type": "drum_hit",
          "pitch": 42,
          "duration_ms": 87,
          "velocity": 70,
          "beat_index": 1096,
          "section": "bridge"
        },
        {
          "t": 106258,
          "type": "drum_hit",
          "pitch": 42,
          "duration_ms": 87,
          "velocity": 70,
          "beat_index": 1098,
          "section": "bridge"
        },
        {
          "t": 106451,
          "type": "drum_hit",
          "pitch": 38,
          "duration_ms": 87,
          "velocity": 80,
          "beat_index": 1100,
          "section": "bridge"
        },
        {
          "t": 106451,
          "type": "drum_hit",
          "pitch": 42,
          "duration_ms": 87,
          "velocity": 70,
          "beat_index": 1100,
          "section": "bridge"
        },
        {
          "t": 106645,
          "type": "drum_hit",
          "pitch": 36,
          "duration_ms": 87,
          "velocity": 90,
          "beat_index": 1102,
          "section": "bridge"
        },
        {
          "t": 106645,
          "type": "drum_hit",
          "pitch": 42,
          "duration_ms": 87,
          "velocity": 70,
          "beat_index": 1102,
          "section": "bridge"
        },
        {
          "t": 106838,
          "type": "drum_hit",
          "pitch": 36,
          "duration_ms": 87,
          "velocity": 90,
          "beat_index": 1104,
          "section": "bridge"
        },
        {
          "t": 106838,
          "type": "drum_hit",
          "pitch": 42,
          "duration_ms": 87,
          "velocity": 70,
          "beat_index": 1104,
          "section": "bridge"
        },
        {
          "t": 107032,
          "type": "drum_hit",
          "pitch": 42,
          "duration_ms": 87,
          "velocity": 70,
          "beat_index": 1106,
          "section": "bridge"
        },
        {
          "t": 107225,
          "type": "drum_hit",
          "pitch": 38,
          "duration_ms": 87,
          "velocity": 80,
          "beat_index": 1108,
          "section": "bridge"
        },
        {
          "t": 107225,
          "type": "drum_hit",
          "pitch": 42,
          "duration_ms": 87,
          "velocity": 70,
          "beat_index": 1108,
          "section": "bridge"
        },
        {
          "t": 107419,
          "type": "drum_hit",
          "pitch": 36,
          "duration_ms": 87,
          "velocity": 90,
          "beat_index": 1110,
          "section": "bridge"
        },
        {
          "t": 107419,
          "type": "drum_hit",
          "pitch": 42,
          "duration_ms": 87,
          "velocity": 70,
          "beat_index": 1110,
          "section": "bridge"
        },
        {
          "t": 107612,
          "type": "drum_hit",
          "pitch": 36,
          "duration_ms": 87,
          "velocity": 90,
          "beat_index": 1112,
          "section": "bridge"
        },
        {
          "t": 107612,
          "type": "drum_hit",
          "pitch": 42,
          "duration_ms": 87,
          "velocity": 70,
          "beat_index": 1112,
          "section": "bridge"
        },
        {
          "t": 107806,
          "type": "drum_hit",
          "pitch": 42,
          "duration_ms": 87,
          "velocity": 70,
          "beat_index": 1114,
          "section": "bridge"
        },
        {
          "t": 108000,
          "type": "drum_hit",
          "pitch": 38,
          "duration_ms": 87,
          "velocity": 80,
          "beat_index": 1116,
          "section": "bridge"
        },
        {
          "t": 108000,
          "type": "drum_hit",
          "pitch": 42,
          "duration_ms": 87,
          "velocity": 70,
          "beat_index": 1116,
          "section": "bridge"
        },
        {
          "t": 108193,
          "type": "drum_hit",
          "pitch": 36,
          "duration_ms": 87,
          "velocity": 90,
          "beat_index": 1118,
          "section": "bridge"
        },
        {
          "t": 108193,
          "type": "drum_hit",
          "pitch": 42,
          "duration_ms": 87,
          "velocity": 70,
          "beat_index": 1118,
          "section": "bridge"
        },
        {
          "t": 108387,
          "type": "drum_hit",
          "pitch": 36,
          "duration_ms": 87,
          "velocity": 90,
          "beat_index": 1120,
          "section": "bridge"
        },
        {
          "t": 108387,
          "type": "drum_hit",
          "pitch": 42,
          "duration_ms": 87,
          "velocity": 70,
          "beat_index": 1120,
          "section": "bridge"
        },
        {
          "t": 108580,
          "type": "drum_hit",
          "pitch": 42,
          "duration_ms": 87,
          "velocity": 70,
          "beat_index": 1122,
          "section": "bridge"
        },
        {
          "t": 108774,
          "type": "drum_hit",
          "pitch": 38,
          "duration_ms": 87,
          "velocity": 80,
          "beat_index": 1124,
          "section": "bridge"
        },
        {
          "t": 108774,
          "type": "drum_hit",
          "pitch": 42,
          "duration_ms": 87,
          "velocity": 70,
          "beat_index": 1124,
          "section": "bridge"
        },
        {
          "t": 108967,
          "type": "drum_hit",
          "pitch": 36,
          "duration_ms": 87,
          "velocity": 90,
          "beat_index": 1126,
          "section": "bridge"
        },
        {
          "t": 108967,
          "type": "drum_hit",
          "pitch": 42,
          "duration_ms": 87,
          "velocity": 70,
          "beat_index": 1126,
          "section": "bridge"
        },
        {
          "t": 109161,
          "type": "drum_hit",
          "pitch": 36,
          "duration_ms": 87,
          "velocity": 90,
          "beat_index": 1128,
          "section": "bridge"
        },
        {
          "t": 109161,
          "type": "drum_hit",
          "pitch": 42,
          "duration_ms": 87,
          "velocity": 70,
          "beat_index": 1128,
          "section": "bridge"
        },
        {
          "t": 109354,
          "type": "drum_hit",
          "pitch": 42,
          "duration_ms": 87,
          "velocity": 70,
          "beat_index": 1130,
          "section": "bridge"
        },
        {
          "t": 109548,
          "type": "drum_hit",
          "pitch": 38,
          "duration_ms": 87,
          "velocity": 80,
          "beat_index": 1132,
          "section": "bridge"
        },
        {
          "t": 109548,
          "type": "drum_hit",
          "pitch": 42,
          "duration_ms": 87,
          "velocity": 70,
          "beat_index": 1132,
          "section": "bridge"
        },
        {
          "t": 109741,
          "type": "drum_hit",
          "pitch": 36,
          "duration_ms": 87,
          "velocity": 90,
          "beat_index": 1134,
          "section": "bridge"
        },
        {
          "t": 109741,
          "type": "drum_hit",
          "pitch": 42,
          "duration_ms": 87,
          "velocity": 70,
          "beat_index": 1134,
          "section": "bridge"
        },
        {
          "t": 109935,
          "type": "drum_hit",
          "pitch": 36,
          "duration_ms": 87,
          "velocity": 90,
          "beat_index": 1136,
          "section": "bridge"
        },
        {
          "t": 109935,
          "type": "drum_hit",
          "pitch": 42,
          "duration_ms": 87,
          "velocity": 70,
          "beat_index": 1136,
          "section": "bridge"
        },
        {
          "t": 110129,
          "type": "drum_hit",
          "pitch": 42,
          "duration_ms": 87,
          "velocity": 70,
          "beat_index": 1138,
          "section": "bridge"
        },
        {
          "t": 110322,
          "type": "drum_hit",
          "pitch": 38,
          "duration_ms": 87,
          "velocity": 80,
          "beat_index": 1140,
          "section": "bridge"
        },
        {
          "t": 110322,
          "type": "drum_hit",
          "pitch": 42,
          "duration_ms": 87,
          "velocity": 70,
          "beat_index": 1140,
          "section": "bridge"
        },
        {
          "t": 110516,
          "type": "drum_hit",
          "pitch": 36,
          "duration_ms": 87,
          "velocity": 90,
          "beat_index": 1142,
          "section": "bridge"
        },
        {
          "t": 110516,
          "type": "drum_hit",
          "pitch": 42,
          "duration_ms": 87,
          "velocity": 70,
          "beat_index": 1142,
          "section": "bridge"
        },
        {
          "t": 110709,
          "type": "drum_hit",
          "pitch": 36,
          "duration_ms": 87,
          "velocity": 90,
          "beat_index": 1144,
          "section": "bridge"
        },
        {
          "t": 110709,
          "type": "drum_hit",
          "pitch": 42,
          "duration_ms": 87,
          "velocity": 70,
          "beat_index": 1144,
          "section": "bridge"
        },
        {
          "t": 110903,
          "type": "drum_hit",
          "pitch": 42,
          "duration_ms": 87,
          "velocity": 70,
          "beat_index": 1146,
          "section": "bridge"
        },
        {
          "t": 111096,
          "type": "drum_hit",
          "pitch": 38,
          "duration_ms": 87,
          "velocity": 80,
          "beat_index": 1148,
          "section": "bridge"
        },
        {
          "t": 111096,
          "type": "drum_hit",
          "pitch": 42,
          "duration_ms": 87,
          "velocity": 70,
          "beat_index": 1148,
          "section": "bridge"
        },
        {
          "t": 111290,
          "type": "drum_hit",
          "pitch": 36,
          "duration_ms": 87,
          "velocity": 90,
          "beat_index": 1150,
          "section": "bridge"
        },
        {
          "t": 111290,
          "type": "drum_hit",
          "pitch": 42,
          "duration_ms": 87,
          "velocity": 70,
          "beat_index": 1150,
          "section": "bridge"
        },
        {
          "t": 111483,
          "type": "drum_hit",
          "pitch": 36,
          "duration_ms": 87,
          "velocity": 90,
          "beat_index": 1152,
          "section": "bridge"
        },
        {
          "t": 111483,
          "type": "drum_hit",
          "pitch": 42,
          "duration_ms": 87,
          "velocity": 70,
          "beat_index": 1152,
          "section": "bridge"
        },
        {
          "t": 111677,
          "type": "drum_hit",
          "pitch": 42,
          "duration_ms": 87,
          "velocity": 70,
          "beat_index": 1154,
          "section": "bridge"
        },
        {
          "t": 111870,
          "type": "drum_hit",
          "pitch": 38,
          "duration_ms": 87,
          "velocity": 80,
          "beat_index": 1156,
          "section": "bridge"
        },
        {
          "t": 111870,
          "type": "drum_hit",
          "pitch": 42,
          "duration_ms": 87,
          "velocity": 70,
          "beat_index": 1156,
          "section": "bridge"
        },
        {
          "t": 112064,
          "type": "drum_hit",
          "pitch": 36,
          "duration_ms": 87,
          "velocity": 90,
          "beat_index": 1158,
          "section": "bridge"
        },
        {
          "t": 112064,
          "type": "drum_hit",
          "pitch": 42,
          "duration_ms": 87,
          "velocity": 70,
          "beat_index": 1158,
          "section": "bridge"
        },
        {
          "t": 112258,
          "type": "drum_hit",
          "pitch": 36,
          "duration_ms": 87,
          "velocity": 90,
          "beat_index": 1160,
          "section": "bridge"
        },
        {
          "t": 112258,
          "type": "drum_hit",
          "pitch": 42,
          "duration_ms": 87,
          "velocity": 70,
          "beat_index": 1160,
          "section": "bridge"
        },
        {
          "t": 112451,
          "type": "drum_hit",
          "pitch": 42,
          "duration_ms": 87,
          "velocity": 70,
          "beat_index": 1162,
          "section": "bridge"
        },
        {
          "t": 112645,
          "type": "drum_hit",
          "pitch": 38,
          "duration_ms": 87,
          "velocity": 80,
          "beat_index": 1164,
          "section": "bridge"
        },
        {
          "t": 112645,
          "type": "drum_hit",
          "pitch": 42,
          "duration_ms": 87,
          "velocity": 70,
          "beat_index": 1164,
          "section": "bridge"
        },
        {
          "t": 112838,
          "type": "drum_hit",
          "pitch": 36,
          "duration_ms": 87,
          "velocity": 90,
          "beat_index": 1166,
          "section": "bridge"
        },
        {
          "t": 112838,
          "type": "drum_hit",
          "pitch": 42,
          "duration_ms": 87,
          "velocity": 70,
          "beat_index": 1166,
          "section": "bridge"
        },
        {
          "t": 113032,
          "type": "drum_hit",
          "pitch": 36,
          "duration_ms": 87,
          "velocity": 90,
          "beat_index": 1168,
          "section": "bridge"
        },
        {
          "t": 113032,
          "type": "drum_hit",
          "pitch": 42,
          "duration_ms": 87,
          "velocity": 70,
          "beat_index": 1168,
          "section": "bridge"
        },
        {
          "t": 113225,
          "type": "drum_hit",
          "pitch": 42,
          "duration_ms": 87,
          "velocity": 70,
          "beat_index": 1170,
          "section": "bridge"
        },
        {
          "t": 113419,
          "type": "drum_hit",
          "pitch": 38,
          "duration_ms": 87,
          "velocity": 80,
          "beat_index": 1172,
          "section": "bridge"
        },
        {
          "t": 113419,
          "type": "drum_hit",
          "pitch": 42,
          "duration_ms": 87,
          "velocity": 70,
          "beat_index": 1172,
          "section": "bridge"
        },
        {
          "t": 113612,
          "type": "drum_hit",
          "pitch": 36,
          "duration_ms": 87,
          "velocity": 90,
          "beat_index": 1174,
          "section": "bridge"
        },
        {
          "t": 113612,
          "type": "drum_hit",
          "pitch": 42,
          "duration_ms": 87,
          "velocity": 70,
          "beat_index": 1174,
          "section": "bridge"
        },
        {
          "t": 113806,
          "type": "drum_hit",
          "pitch": 36,
          "duration_ms": 87,
          "velocity": 90,
          "beat_index": 1176,
          "section": "bridge"
        },
        {
          "t": 113806,
          "type": "drum_hit",
          "pitch": 42,
          "duration_ms": 87,
          "velocity": 70,
          "beat_index": 1176,
          "section": "bridge"
        },
        {
          "t": 114000,
          "type": "drum_hit",
          "pitch": 42,
          "duration_ms": 87,
          "velocity": 70,
          "beat_index": 1178,
          "section": "bridge"
        },
        {
          "t": 114193,
          "type": "drum_hit",
          "pitch": 38,
          "duration_ms": 87,
          "velocity": 80,
          "beat_index": 1180,
          "section": "bridge"
        },
        {
          "t": 114193,
          "type": "drum_hit",
          "pitch": 42,
          "duration_ms": 87,
          "velocity": 70,
          "beat_index": 1180,
          "section": "bridge"
        },
        {
          "t": 114387,
          "type": "drum_hit",
          "pitch": 36,
          "duration_ms": 87,
          "velocity": 90,
          "beat_index": 1182,
          "section": "bridge"
        },
        {
          "t": 114387,
          "type": "drum_hit",
          "pitch": 42,
          "duration_ms": 87,
          "velocity": 70,
          "beat_index": 1182,
          "section": "bridge"
        },
        {
          "t": 114580,
          "type": "drum_hit",
          "pitch": 36,
          "duration_ms": 87,
          "velocity": 90,
          "beat_index": 1184,
          "section": "bridge"
        },
        {
          "t": 114580,
          "type": "drum_hit",
          "pitch": 42,
          "duration_ms": 87,
          "velocity": 70,
          "beat_index": 1184,
          "section": "bridge"
        },
        {
          "t": 114774,
          "type": "drum_hit",
          "pitch": 42,
          "duration_ms": 87,
          "velocity": 70,
          "beat_index": 1186,
          "section": "bridge"
        },
        {
          "t": 114967,
          "type": "drum_hit",
          "pitch": 38,
          "duration_ms": 87,
          "velocity": 80,
          "beat_index": 1188,
          "section": "bridge"
        },
        {
          "t": 114967,
          "type": "drum_hit",
          "pitch": 42,
          "duration_ms": 87,
          "velocity": 70,
          "beat_index": 1188,
          "section": "bridge"
        },
        {
          "t": 115161,
          "type": "drum_hit",
          "pitch": 36,
          "duration_ms": 87,
          "velocity": 90,
          "beat_index": 1190,
          "section": "bridge"
        },
        {
          "t": 115161,
          "type": "drum_hit",
          "pitch": 42,
          "duration_ms": 87,
          "velocity": 70,
          "beat_index": 1190,
          "section": "bridge"
        },
        {
          "t": 115354,
          "type": "drum_hit",
          "pitch": 36,
          "duration_ms": 87,
          "velocity": 90,
          "beat_index": 1192,
          "section": "bridge"
        },
        {
          "t": 115354,
          "type": "drum_hit",
          "pitch": 42,
          "duration_ms": 87,
          "velocity": 70,
          "beat_index": 1192,
          "section": "bridge"
        },
        {
          "t": 115548,
          "type": "drum_hit",
          "pitch": 42,
          "duration_ms": 87,
          "velocity": 70,
          "beat_index": 1194,
          "section": "bridge"
        },
        {
          "t": 115741,
          "type": "drum_hit",
          "pitch": 38,
          "duration_ms": 87,
          "velocity": 80,
          "beat_index": 1196,
          "section": "bridge"
        },
        {
          "t": 115741,
          "type": "drum_hit",
          "pitch": 42,
          "duration_ms": 87,
          "velocity": 70,
          "beat_index": 1196,
          "section": "bridge"
        },
        {
          "t": 115935,
          "type": "drum_hit",
          "pitch": 36,
          "duration_ms": 87,
          "velocity": 90,
          "beat_index": 1198,
          "section": "bridge"
        },
        {
          "t": 115935,
          "type": "drum_hit",
          "pitch": 42,
          "duration_ms": 87,
          "velocity": 70,
          "beat_index": 1198,
          "section": "bridge"
        },
        {
          "t": 116129,
          "type": "drum_hit",
          "pitch": 36,
          "duration_ms": 87,
          "velocity": 90,
          "beat_index": 1200,
          "section": "bridge"
        },
        {
          "t": 116129,
          "type": "drum_hit",
          "pitch": 42,
          "duration_ms": 87,
          "velocity": 70,
          "beat_index": 1200,
          "section": "bridge"
        },
        {
          "t": 116322,
          "type": "drum_hit",
          "pitch": 42,
          "duration_ms": 87,
          "velocity": 70,
          "beat_index": 1202,
          "section": "bridge"
        },
        {
          "t": 116516,
          "type": "drum_hit",
          "pitch": 38,
          "duration_ms": 87,
          "velocity": 80,
          "beat_index": 1204,
          "section": "bridge"
        },
        {
          "t": 116516,
          "type": "drum_hit",
          "pitch": 42,
          "duration_ms": 87,
          "velocity": 70,
          "beat_index": 1204,
          "section": "bridge"
        },
        {
          "t": 116709,
          "type": "drum_hit",
          "pitch": 36,
          "duration_ms": 87,
          "velocity": 90,
          "beat_index": 1206,
          "section": "bridge"
        },
        {
          "t": 116709,
          "type": "drum_hit",
          "pitch": 42,
          "duration_ms": 87,
          "velocity": 70,
          "beat_index": 1206,
          "section": "bridge"
        },
        {
          "t": 116903,
          "type": "drum_hit",
          "pitch": 36,
          "duration_ms": 87,
          "velocity": 90,
          "beat_index": 1208,
          "section": "bridge"
        },
        {
          "t": 116903,
          "type": "drum_hit",
          "pitch": 42,
          "duration_ms": 87,
          "velocity": 70,
          "beat_index": 1208,
          "section": "bridge"
        },
        {
          "t": 117096,
          "type": "drum_hit",
          "pitch": 42,
          "duration_ms": 87,
          "velocity": 70,
          "beat_index": 1210,
          "section": "bridge"
        },
        {
          "t": 117290,
          "type": "drum_hit",
          "pitch": 38,
          "duration_ms": 87,
          "velocity": 80,
          "beat_index": 1212,
          "section": "bridge"
        },
        {
          "t": 117290,
          "type": "drum_hit",
          "pitch": 42,
          "duration_ms": 87,
          "velocity": 70,
          "beat_index": 1212,
          "section": "bridge"
        },
        {
          "t": 117483,
          "type": "drum_hit",
          "pitch": 36,
          "duration_ms": 87,
          "velocity": 90,
          "beat_index": 1214,
          "section": "bridge"
        },
        {
          "t": 117483,
          "type": "drum_hit",
          "pitch": 42,
          "duration_ms": 87,
          "velocity": 70,
          "beat_index": 1214,
          "section": "bridge"
        },
        {
          "t": 117677,
          "type": "drum_hit",
          "pitch": 36,
          "duration_ms": 87,
          "velocity": 90,
          "beat_index": 1216,
          "section": "bridge"
        },
        {
          "t": 117677,
          "type": "drum_hit",
          "pitch": 42,
          "duration_ms": 87,
          "velocity": 70,
          "beat_index": 1216,
          "section": "bridge"
        },
        {
          "t": 117870,
          "type": "drum_hit",
          "pitch": 42,
          "duration_ms": 87,
          "velocity": 70,
          "beat_index": 1218,
          "section": "bridge"
        },
        {
          "t": 118064,
          "type": "drum_hit",
          "pitch": 38,
          "duration_ms": 87,
          "velocity": 80,
          "beat_index": 1220,
          "section": "bridge"
        },
        {
          "t": 118064,
          "type": "drum_hit",
          "pitch": 42,
          "duration_ms": 87,
          "velocity": 70,
          "beat_index": 1220,
          "section": "bridge"
        },
        {
          "t": 118258,
          "type": "drum_hit",
          "pitch": 36,
          "duration_ms": 87,
          "velocity": 90,
          "beat_index": 1222,
          "section": "bridge"
        },
        {
          "t": 118258,
          "type": "drum_hit",
          "pitch": 42,
          "duration_ms": 87,
          "velocity": 70,
          "beat_index": 1222,
          "section": "bridge"
        },
        {
          "t": 118451,
          "type": "drum_hit",
          "pitch": 36,
          "duration_ms": 87,
          "velocity": 90,
          "beat_index": 1224,
          "section": "bridge"
        },
        {
          "t": 118451,
          "type": "drum_hit",
          "pitch": 42,
          "duration_ms": 87,
          "velocity": 70,
          "beat_index": 1224,
          "section": "bridge"
        },
        {
          "t": 118645,
          "type": "drum_hit",
          "pitch": 42,
          "duration_ms": 87,
          "velocity": 70,
          "beat_index": 1226,
          "section": "bridge"
        },
        {
          "t": 118838,
          "type": "drum_hit",
          "pitch": 38,
          "duration_ms": 87,
          "velocity": 80,
          "beat_index": 1228,
          "section": "bridge"
        },
        {
          "t": 118838,
          "type": "drum_hit",
          "pitch": 42,
          "duration_ms": 87,
          "velocity": 70,
          "beat_index": 1228,
          "section": "bridge"
        },
        {
          "t": 119032,
          "type": "drum_hit",
          "pitch": 36,
          "duration_ms": 87,
          "velocity": 90,
          "beat_index": 1230,
          "section": "bridge"
        },
        {
          "t": 119032,
          "type": "drum_hit",
          "pitch": 42,
          "duration_ms": 87,
          "velocity": 70,
          "beat_index": 1230,
          "section": "bridge"
        },
        {
          "t": 119225,
          "type": "drum_hit",
          "pitch": 36,
          "duration_ms": 87,
          "velocity": 90,
          "beat_index": 1232,
          "section": "bridge"
        },
        {
          "t": 119225,
          "type": "drum_hit",
          "pitch": 42,
          "duration_ms": 87,
          "velocity": 70,
          "beat_index": 1232,
          "section": "bridge"
        },
        {
          "t": 119419,
          "type": "drum_hit",
          "pitch": 42,
          "duration_ms": 87,
          "velocity": 70,
          "beat_index": 1234,
          "section": "bridge"
        },
        {
          "t": 119612,
          "type": "drum_hit",
          "pitch": 38,
          "duration_ms": 87,
          "velocity": 80,
          "beat_index": 1236,
          "section": "bridge"
        },
        {
          "t": 119612,
          "type": "drum_hit",
          "pitch": 42,
          "duration_ms": 87,
          "velocity": 70,
          "beat_index": 1236,
          "section": "bridge"
        },
        {
          "t": 119806,
          "type": "drum_hit",
          "pitch": 36,
          "duration_ms": 87,
          "velocity": 90,
          "beat_index": 1238,
          "section": "bridge"
        },
        {
          "t": 119806,
          "type": "drum_hit",
          "pitch": 42,
          "duration_ms": 87,
          "velocity": 70,
          "beat_index": 1238,
          "section": "bridge"
        },
        {
          "t": 120000,
          "type": "drum_hit",
          "pitch": 36,
          "duration_ms": 87,
          "velocity": 90,
          "beat_index": 1240,
          "section": "bridge"
        },
        {
          "t": 120000,
          "type": "drum_hit",
          "pitch": 42,
          "duration_ms": 87,
          "velocity": 70,
          "beat_index": 1240,
          "section": "bridge"
        },
        {
          "t": 120193,
          "type": "drum_hit",
          "pitch": 42,
          "duration_ms": 87,
          "velocity": 70,
          "beat_index": 1242,
          "section": "bridge"
        },
        {
          "t": 120387,
          "type": "drum_hit",
          "pitch": 38,
          "duration_ms": 87,
          "velocity": 80,
          "beat_index": 1244,
          "section": "bridge"
        },
        {
          "t": 120387,
          "type": "drum_hit",
          "pitch": 42,
          "duration_ms": 87,
          "velocity": 70,
          "beat_index": 1244,
          "section": "bridge"
        },
        {
          "t": 120580,
          "type": "drum_hit",
          "pitch": 36,
          "duration_ms": 87,
          "velocity": 90,
          "beat_index": 1246,
          "section": "bridge"
        },
        {
          "t": 120580,
          "type": "drum_hit",
          "pitch": 42,
          "duration_ms": 87,
          "velocity": 70,
          "beat_index": 1246,
          "section": "bridge"
        },
        {
          "t": 120774,
          "type": "drum_hit",
          "pitch": 36,
          "duration_ms": 87,
          "velocity": 90,
          "beat_index": 1248,
          "section": "bridge"
        },
        {
          "t": 120774,
          "type": "drum_hit",
          "pitch": 42,
          "duration_ms": 87,
          "velocity": 70,
          "beat_index": 1248,
          "section": "bridge"
        },
        {
          "t": 120967,
          "type": "drum_hit",
          "pitch": 42,
          "duration_ms": 87,
          "velocity": 70,
          "beat_index": 1250,
          "section": "bridge"
        },
        {
          "t": 121161,
          "type": "drum_hit",
          "pitch": 38,
          "duration_ms": 87,
          "velocity": 80,
          "beat_index": 1252,
          "section": "bridge"
        },
        {
          "t": 121161,
          "type": "drum_hit",
          "pitch": 42,
          "duration_ms": 87,
          "velocity": 70,
          "beat_index": 1252,
          "section": "bridge"
        },
        {
          "t": 121354,
          "type": "drum_hit",
          "pitch": 36,
          "duration_ms": 87,
          "velocity": 90,
          "beat_index": 1254,
          "section": "bridge"
        },
        {
          "t": 121354,
          "type": "drum_hit",
          "pitch": 42,
          "duration_ms": 87,
          "velocity": 70,
          "beat_index": 1254,
          "section": "bridge"
        },
        {
          "t": 121548,
          "type": "drum_hit",
          "pitch": 36,
          "duration_ms": 87,
          "velocity": 90,
          "beat_index": 1256,
          "section": "bridge"
        },
        {
          "t": 121548,
          "type": "drum_hit",
          "pitch": 42,
          "duration_ms": 87,
          "velocity": 70,
          "beat_index": 1256,
          "section": "bridge"
        },
        {
          "t": 121741,
          "type": "drum_hit",
          "pitch": 42,
          "duration_ms": 87,
          "velocity": 70,
          "beat_index": 1258,
          "section": "bridge"
        },
        {
          "t": 121935,
          "type": "drum_hit",
          "pitch": 38,
          "duration_ms": 87,
          "velocity": 80,
          "beat_index": 1260,
          "section": "bridge"
        },
        {
          "t": 121935,
          "type": "drum_hit",
          "pitch": 42,
          "duration_ms": 87,
          "velocity": 70,
          "beat_index": 1260,
          "section": "bridge"
        },
        {
          "t": 122129,
          "type": "drum_hit",
          "pitch": 36,
          "duration_ms": 87,
          "velocity": 90,
          "beat_index": 1262,
          "section": "bridge"
        },
        {
          "t": 122129,
          "type": "drum_hit",
          "pitch": 42,
          "duration_ms": 87,
          "velocity": 70,
          "beat_index": 1262,
          "section": "bridge"
        },
        {
          "t": 122322,
          "type": "drum_hit",
          "pitch": 36,
          "duration_ms": 87,
          "velocity": 90,
          "beat_index": 1264,
          "section": "bridge"
        },
        {
          "t": 122322,
          "type": "drum_hit",
          "pitch": 42,
          "duration_ms": 87,
          "velocity": 70,
          "beat_index": 1264,
          "section": "bridge"
        },
        {
          "t": 122516,
          "type": "drum_hit",
          "pitch": 42,
          "duration_ms": 87,
          "velocity": 70,
          "beat_index": 1266,
          "section": "bridge"
        },
        {
          "t": 122709,
          "type": "drum_hit",
          "pitch": 38,
          "duration_ms": 87,
          "velocity": 80,
          "beat_index": 1268,
          "section": "bridge"
        },
        {
          "t": 122709,
          "type": "drum_hit",
          "pitch": 42,
          "duration_ms": 87,
          "velocity": 70,
          "beat_index": 1268,
          "section": "bridge"
        },
        {
          "t": 122903,
          "type": "drum_hit",
          "pitch": 36,
          "duration_ms": 87,
          "velocity": 90,
          "beat_index": 1270,
          "section": "bridge"
        },
        {
          "t": 122903,
          "type": "drum_hit",
          "pitch": 42,
          "duration_ms": 87,
          "velocity": 70,
          "beat_index": 1270,
          "section": "bridge"
        },
        {
          "t": 123096,
          "type": "drum_hit",
          "pitch": 36,
          "duration_ms": 87,
          "velocity": 90,
          "beat_index": 1272,
          "section": "bridge"
        },
        {
          "t": 123096,
          "type": "drum_hit",
          "pitch": 42,
          "duration_ms": 87,
          "velocity": 70,
          "beat_index": 1272,
          "section": "bridge"
        },
        {
          "t": 123290,
          "type": "drum_hit",
          "pitch": 42,
          "duration_ms": 87,
          "velocity": 70,
          "beat_index": 1274,
          "section": "bridge"
        },
        {
          "t": 123483,
          "type": "drum_hit",
          "pitch": 38,
          "duration_ms": 87,
          "velocity": 80,
          "beat_index": 1276,
          "section": "bridge"
        },
        {
          "t": 123483,
          "type": "drum_hit",
          "pitch": 42,
          "duration_ms": 87,
          "velocity": 70,
          "beat_index": 1276,
          "section": "bridge"
        },
        {
          "t": 123677,
          "type": "drum_hit",
          "pitch": 36,
          "duration_ms": 87,
          "velocity": 90,
          "beat_index": 1278,
          "section": "bridge"
        },
        {
          "t": 123677,
          "type": "drum_hit",
          "pitch": 42,
          "duration_ms": 87,
          "velocity": 70,
          "beat_index": 1278,
          "section": "bridge"
        },
        {
          "t": 123870,
          "type": "drum_hit",
          "pitch": 36,
          "duration_ms": 87,
          "velocity": 70,
          "beat_index": 1280,
          "section": "outro"
        },
        {
          "t": 123870,
          "type": "drum_hit",
          "pitch": 42,
          "duration_ms": 87,
          "velocity": 50,
          "beat_index": 1280,
          "section": "outro"
        },
        {
          "t": 124064,
          "type": "drum_hit",
          "pitch": 42,
          "duration_ms": 87,
          "velocity": 50,
          "beat_index": 1282,
          "section": "outro"
        },
        {
          "t": 124258,
          "type": "drum_hit",
          "pitch": 38,
          "duration_ms": 87,
          "velocity": 60,
          "beat_index": 1284,
          "section": "outro"
        },
        {
          "t": 124258,
          "type": "drum_hit",
          "pitch": 42,
          "duration_ms": 87,
          "velocity": 50,
          "beat_index": 1284,
          "section": "outro"
        },
        {
          "t": 124451,
          "type": "drum_hit",
          "pitch": 36,
          "duration_ms": 87,
          "velocity": 70,
          "beat_index": 1286,
          "section": "outro"
        },
        {
          "t": 124451,
          "type": "drum_hit",
          "pitch": 42,
          "duration_ms": 87,
          "velocity": 50,
          "beat_index": 1286,
          "section": "outro"
        },
        {
          "t": 124645,
          "type": "drum_hit",
          "pitch": 36,
          "duration_ms": 87,
          "velocity": 70,
          "beat_index": 1288,
          "section": "outro"
        },
        {
          "t": 124645,
          "type": "drum_hit",
          "pitch": 42,
          "duration_ms": 87,
          "velocity": 50,
          "beat_index": 1288,
          "section": "outro"
        },
        {
          "t": 124838,
          "type": "drum_hit",
          "pitch": 42,
          "duration_ms": 87,
          "velocity": 50,
          "beat_index": 1290,
          "section": "outro"
        },
        {
          "t": 125032,
          "type": "drum_hit",
          "pitch": 38,
          "duration_ms": 87,
          "velocity": 60,
          "beat_index": 1292,
          "section": "outro"
        },
        {
          "t": 125032,
          "type": "drum_hit",
          "pitch": 42,
          "duration_ms": 87,
          "velocity": 50,
          "beat_index": 1292,
          "section": "outro"
        },
        {
          "t": 125225,
          "type": "drum_hit",
          "pitch": 36,
          "duration_ms": 87,
          "velocity": 70,
          "beat_index": 1294,
          "section": "outro"
        },
        {
          "t": 125225,
          "type": "drum_hit",
          "pitch": 42,
          "duration_ms": 87,
          "velocity": 50,
          "beat_index": 1294,
          "section": "outro"
        },
        {
          "t": 125419,
          "type": "drum_hit",
          "pitch": 36,
          "duration_ms": 87,
          "velocity": 70,
          "beat_index": 1296,
          "section": "outro"
        },
        {
          "t": 125419,
          "type": "drum_hit",
          "pitch": 42,
          "duration_ms": 87,
          "velocity": 50,
          "beat_index": 1296,
          "section": "outro"
        },
        {
          "t": 125612,
          "type": "drum_hit",
          "pitch": 42,
          "duration_ms": 87,
          "velocity": 50,
          "beat_index": 1298,
          "section": "outro"
        },
        {
          "t": 125806,
          "type": "drum_hit",
          "pitch": 38,
          "duration_ms": 87,
          "velocity": 60,
          "beat_index": 1300,
          "section": "outro"
        },
        {
          "t": 125806,
          "type": "drum_hit",
          "pitch": 42,
          "duration_ms": 87,
          "velocity": 50,
          "beat_index": 1300,
          "section": "outro"
        },
        {
          "t": 126000,
          "type": "drum_hit",
          "pitch": 36,
          "duration_ms": 87,
          "velocity": 70,
          "beat_index": 1302,
          "section": "outro"
        },
        {
          "t": 126000,
          "type": "drum_hit",
          "pitch": 42,
          "duration_ms": 87,
          "velocity": 50,
          "beat_index": 1302,
          "section": "outro"
        },
        {
          "t": 126193,
          "type": "drum_hit",
          "pitch": 36,
          "duration_ms": 87,
          "velocity": 70,
          "beat_index": 1304,
          "section": "outro"
        },
        {
          "t": 126193,
          "type": "drum_hit",
          "pitch": 42,
          "duration_ms": 87,
          "velocity": 50,
          "beat_index": 1304,
          "section": "outro"
        },
        {
          "t": 126387,
          "type": "drum_hit",
          "pitch": 42,
          "duration_ms": 87,
          "velocity": 50,
          "beat_index": 1306,
          "section": "outro"
        },
        {
          "t": 126580,
          "type": "drum_hit",
          "pitch": 38,
          "duration_ms": 87,
          "velocity": 60,
          "beat_index": 1308,
          "section": "outro"
        },
        {
          "t": 126580,
          "type": "drum_hit",
          "pitch": 42,
          "duration_ms": 87,
          "velocity": 50,
          "beat_index": 1308,
          "section": "outro"
        },
        {
          "t": 126774,
          "type": "drum_hit",
          "pitch": 36,
          "duration_ms": 87,
          "velocity": 70,
          "beat_index": 1310,
          "section": "outro"
        },
        {
          "t": 126774,
          "type": "drum_hit",
          "pitch": 42,
          "duration_ms": 87,
          "velocity": 50,
          "beat_index": 1310,
          "section": "outro"
        },
        {
          "t": 126967,
          "type": "drum_hit",
          "pitch": 36,
          "duration_ms": 87,
          "velocity": 70,
          "beat_index": 1312,
          "section": "outro"
        },
        {
          "t": 126967,
          "type": "drum_hit",
          "pitch": 42,
          "duration_ms": 87,
          "velocity": 50,
          "beat_index": 1312,
          "section": "outro"
        },
        {
          "t": 127161,
          "type": "drum_hit",
          "pitch": 42,
          "duration_ms": 87,
          "velocity": 50,
          "beat_index": 1314,
          "section": "outro"
        },
        {
          "t": 127354,
          "type": "drum_hit",
          "pitch": 38,
          "duration_ms": 87,
          "velocity": 60,
          "beat_index": 1316,
          "section": "outro"
        },
        {
          "t": 127354,
          "type": "drum_hit",
          "pitch": 42,
          "duration_ms": 87,
          "velocity": 50,
          "beat_index": 1316,
          "section": "outro"
        },
        {
          "t": 127548,
          "type": "drum_hit",
          "pitch": 36,
          "duration_ms": 87,
          "velocity": 70,
          "beat_index": 1318,
          "section": "outro"
        },
        {
          "t": 127548,
          "type": "drum_hit",
          "pitch": 42,
          "duration_ms": 87,
          "velocity": 50,
          "beat_index": 1318,
          "section": "outro"
        },
        {
          "t": 127741,
          "type": "drum_hit",
          "pitch": 36,
          "duration_ms": 87,
          "velocity": 70,
          "beat_index": 1320,
          "section": "outro"
        },
        {
          "t": 127741,
          "type": "drum_hit",
          "pitch": 42,
          "duration_ms": 87,
          "velocity": 50,
          "beat_index": 1320,
          "section": "outro"
        },
        {
          "t": 127935,
          "type": "drum_hit",
          "pitch": 42,
          "duration_ms": 87,
          "velocity": 50,
          "beat_index": 1322,
          "section": "outro"
        },
        {
          "t": 128129,
          "type": "drum_hit",
          "pitch": 38,
          "duration_ms": 87,
          "velocity": 60,
          "beat_index": 1324,
          "section": "outro"
        },
        {
          "t": 128129,
          "type": "drum_hit",
          "pitch": 42,
          "duration_ms": 87,
          "velocity": 50,
          "beat_index": 1324,
          "section": "outro"
        },
        {
          "t": 128322,
          "type": "drum_hit",
          "pitch": 36,
          "duration_ms": 87,
          "velocity": 70,
          "beat_index": 1326,
          "section": "outro"
        },
        {
          "t": 128322,
          "type": "drum_hit",
          "pitch": 42,
          "duration_ms": 87,
          "velocity": 50,
          "beat_index": 1326,
          "section": "outro"
        },
        {
          "t": 128516,
          "type": "drum_hit",
          "pitch": 36,
          "duration_ms": 87,
          "velocity": 70,
          "beat_index": 1328,
          "section": "outro"
        },
        {
          "t": 128516,
          "type": "drum_hit",
          "pitch": 42,
          "duration_ms": 87,
          "velocity": 50,
          "beat_index": 1328,
          "section": "outro"
        },
        {
          "t": 128709,
          "type": "drum_hit",
          "pitch": 42,
          "duration_ms": 87,
          "velocity": 50,
          "beat_index": 1330,
          "section": "outro"
        },
        {
          "t": 128903,
          "type": "drum_hit",
          "pitch": 38,
          "duration_ms": 87,
          "velocity": 60,
          "beat_index": 1332,
          "section": "outro"
        },
        {
          "t": 128903,
          "type": "drum_hit",
          "pitch": 42,
          "duration_ms": 87,
          "velocity": 50,
          "beat_index": 1332,
          "section": "outro"
        },
        {
          "t": 129096,
          "type": "drum_hit",
          "pitch": 36,
          "duration_ms": 87,
          "velocity": 70,
          "beat_index": 1334,
          "section": "outro"
        },
        {
          "t": 129096,
          "type": "drum_hit",
          "pitch": 42,
          "duration_ms": 87,
          "velocity": 50,
          "beat_index": 1334,
          "section": "outro"
        },
        {
          "t": 129290,
          "type": "drum_hit",
          "pitch": 36,
          "duration_ms": 87,
          "velocity": 70,
          "beat_index": 1336,
          "section": "outro"
        },
        {
          "t": 129290,
          "type": "drum_hit",
          "pitch": 42,
          "duration_ms": 87,
          "velocity": 50,
          "beat_index": 1336,
          "section": "outro"
        },
        {
          "t": 129483,
          "type": "drum_hit",
          "pitch": 42,
          "duration_ms": 87,
          "velocity": 50,
          "beat_index": 1338,
          "section": "outro"
        },
        {
          "t": 129677,
          "type": "drum_hit",
          "pitch": 38,
          "duration_ms": 87,
          "velocity": 60,
          "beat_index": 1340,
          "section": "outro"
        },
        {
          "t": 129677,
          "type": "drum_hit",
          "pitch": 42,
          "duration_ms": 87,
          "velocity": 50,
          "beat_index": 1340,
          "section": "outro"
        },
        {
          "t": 129870,
          "type": "drum_hit",
          "pitch": 36,
          "duration_ms": 87,
          "velocity": 70,
          "beat_index": 1342,
          "section": "outro"
        },
        {
          "t": 129870,
          "type": "drum_hit",
          "pitch": 42,
          "duration_ms": 87,
          "velocity": 50,
          "beat_index": 1342,
          "section": "outro"
        },
        {
          "t": 130064,
          "type": "drum_hit",
          "pitch": 36,
          "duration_ms": 87,
          "velocity": 70,
          "beat_index": 1344,
          "section": "outro"
        },
        {
          "t": 130064,
          "type": "drum_hit",
          "pitch": 42,
          "duration_ms": 87,
          "velocity": 50,
          "beat_index": 1344,
          "section": "outro"
        },
        {
          "t": 130258,
          "type": "drum_hit",
          "pitch": 42,
          "duration_ms": 87,
          "velocity": 50,
          "beat_index": 1346,
          "section": "outro"
        },
        {
          "t": 130451,
          "type": "drum_hit",
          "pitch": 38,
          "duration_ms": 87,
          "velocity": 60,
          "beat_index": 1348,
          "section": "outro"
        },
        {
          "t": 130451,
          "type": "drum_hit",
          "pitch": 42,
          "duration_ms": 87,
          "velocity": 50,
          "beat_index": 1348,
          "section": "outro"
        },
        {
          "t": 130645,
          "type": "drum_hit",
          "pitch": 36,
          "duration_ms": 87,
          "velocity": 70,
          "beat_index": 1350,
          "section": "outro"
        },
        {
          "t": 130645,
          "type": "drum_hit",
          "pitch": 42,
          "duration_ms": 87,
          "velocity": 50,
          "beat_index": 1350,
          "section": "outro"
        },
        {
          "t": 130838,
          "type": "drum_hit",
          "pitch": 36,
          "duration_ms": 87,
          "velocity": 70,
          "beat_index": 1352,
          "section": "outro"
        },
        {
          "t": 130838,
          "type": "drum_hit",
          "pitch": 42,
          "duration_ms": 87,
          "velocity": 50,
          "beat_index": 1352,
          "section": "outro"
        },
        {
          "t": 131032,
          "type": "drum_hit",
          "pitch": 42,
          "duration_ms": 87,
          "velocity": 50,
          "beat_index": 1354,
          "section": "outro"
        },
        {
          "t": 131225,
          "type": "drum_hit",
          "pitch": 38,
          "duration_ms": 87,
          "velocity": 60,
          "beat_index": 1356,
          "section": "outro"
        },
        {
          "t": 131225,
          "type": "drum_hit",
          "pitch": 42,
          "duration_ms": 87,
          "velocity": 50,
          "beat_index": 1356,
          "section": "outro"
        },
        {
          "t": 131419,
          "type": "drum_hit",
          "pitch": 36,
          "duration_ms": 87,
          "velocity": 70,
          "beat_index": 1358,
          "section": "outro"
        },
        {
          "t": 131419,
          "type": "drum_hit",
          "pitch": 42,
          "duration_ms": 87,
          "velocity": 50,
          "beat_index": 1358,
          "section": "outro"
        },
        {
          "t": 131612,
          "type": "drum_hit",
          "pitch": 36,
          "duration_ms": 87,
          "velocity": 70,
          "beat_index": 1360,
          "section": "outro"
        },
        {
          "t": 131612,
          "type": "drum_hit",
          "pitch": 42,
          "duration_ms": 87,
          "velocity": 50,
          "beat_index": 1360,
          "section": "outro"
        },
        {
          "t": 131806,
          "type": "drum_hit",
          "pitch": 42,
          "duration_ms": 87,
          "velocity": 50,
          "beat_index": 1362,
          "section": "outro"
        },
        {
          "t": 132000,
          "type": "drum_hit",
          "pitch": 38,
          "duration_ms": 87,
          "velocity": 60,
          "beat_index": 1364,
          "section": "outro"
        },
        {
          "t": 132000,
          "type": "drum_hit",
          "pitch": 42,
          "duration_ms": 87,
          "velocity": 50,
          "beat_index": 1364,
          "section": "outro"
        },
        {
          "t": 132193,
          "type": "drum_hit",
          "pitch": 36,
          "duration_ms": 87,
          "velocity": 70,
          "beat_index": 1366,
          "section": "outro"
        },
        {
          "t": 132193,
          "type": "drum_hit",
          "pitch": 42,
          "duration_ms": 87,
          "velocity": 50,
          "beat_index": 1366,
          "section": "outro"
        },
        {
          "t": 132387,
          "type": "drum_hit",
          "pitch": 36,
          "duration_ms": 87,
          "velocity": 70,
          "beat_index": 1368,
          "section": "outro"
        },
        {
          "t": 132387,
          "type": "drum_hit",
          "pitch": 42,
          "duration_ms": 87,
          "velocity": 50,
          "beat_index": 1368,
          "section": "outro"
        },
        {
          "t": 132580,
          "type": "drum_hit",
          "pitch": 42,
          "duration_ms": 87,
          "velocity": 50,
          "beat_index": 1370,
          "section": "outro"
        },
        {
          "t": 132774,
          "type": "drum_hit",
          "pitch": 38,
          "duration_ms": 87,
          "velocity": 60,
          "beat_index": 1372,
          "section": "outro"
        },
        {
          "t": 132774,
          "type": "drum_hit",
          "pitch": 42,
          "duration_ms": 87,
          "velocity": 50,
          "beat_index": 1372,
          "section": "outro"
        },
        {
          "t": 132967,
          "type": "drum_hit",
          "pitch": 36,
          "duration_ms": 87,
          "velocity": 70,
          "beat_index": 1374,
          "section": "outro"
        },
        {
          "t": 132967,
          "type": "drum_hit",
          "pitch": 42,
          "duration_ms": 87,
          "velocity": 50,
          "beat_index": 1374,
          "section": "outro"
        },
        {
          "t": 133161,
          "type": "drum_hit",
          "pitch": 36,
          "duration_ms": 87,
          "velocity": 70,
          "beat_index": 1376,
          "section": "outro"
        },
        {
          "t": 133161,
          "type": "drum_hit",
          "pitch": 42,
          "duration_ms": 87,
          "velocity": 50,
          "beat_index": 1376,
          "section": "outro"
        },
        {
          "t": 133354,
          "type": "drum_hit",
          "pitch": 42,
          "duration_ms": 87,
          "velocity": 50,
          "beat_index": 1378,
          "section": "outro"
        },
        {
          "t": 133548,
          "type": "drum_hit",
          "pitch": 38,
          "duration_ms": 87,
          "velocity": 60,
          "beat_index": 1380,
          "section": "outro"
        },
        {
          "t": 133548,
          "type": "drum_hit",
          "pitch": 42,
          "duration_ms": 87,
          "velocity": 50,
          "beat_index": 1380,
          "section": "outro"
        },
        {
          "t": 133741,
          "type": "drum_hit",
          "pitch": 36,
          "duration_ms": 87,
          "velocity": 70,
          "beat_index": 1382,
          "section": "outro"
        },
        {
          "t": 133741,
          "type": "drum_hit",
          "pitch": 42,
          "duration_ms": 87,
          "velocity": 50,
          "beat_index": 1382,
          "section": "outro"
        },
        {
          "t": 133935,
          "type": "drum_hit",
          "pitch": 36,
          "duration_ms": 87,
          "velocity": 70,
          "beat_index": 1384,
          "section": "outro"
        },
        {
          "t": 133935,
          "type": "drum_hit",
          "pitch": 42,
          "duration_ms": 87,
          "velocity": 50,
          "beat_index": 1384,
          "section": "outro"
        },
        {
          "t": 134129,
          "type": "drum_hit",
          "pitch": 42,
          "duration_ms": 87,
          "velocity": 50,
          "beat_index": 1386,
          "section": "outro"
        },
        {
          "t": 134322,
          "type": "drum_hit",
          "pitch": 38,
          "duration_ms": 87,
          "velocity": 60,
          "beat_index": 1388,
          "section": "outro"
        },
        {
          "t": 134322,
          "type": "drum_hit",
          "pitch": 42,
          "duration_ms": 87,
          "velocity": 50,
          "beat_index": 1388,
          "section": "outro"
        },
        {
          "t": 134516,
          "type": "drum_hit",
          "pitch": 36,
          "duration_ms": 87,
          "velocity": 70,
          "beat_index": 1390,
          "section": "outro"
        },
        {
          "t": 134516,
          "type": "drum_hit",
          "pitch": 42,
          "duration_ms": 87,
          "velocity": 50,
          "beat_index": 1390,
          "section": "outro"
        },
        {
          "t": 134709,
          "type": "drum_hit",
          "pitch": 36,
          "duration_ms": 87,
          "velocity": 70,
          "beat_index": 1392,
          "section": "outro"
        },
        {
          "t": 134709,
          "type": "drum_hit",
          "pitch": 42,
          "duration_ms": 87,
          "velocity": 50,
          "beat_index": 1392,
          "section": "outro"
        },
        {
          "t": 134903,
          "type": "drum_hit",
          "pitch": 42,
          "duration_ms": 87,
          "velocity": 50,
          "beat_index": 1394,
          "section": "outro"
        },
        {
          "t": 135096,
          "type": "drum_hit",
          "pitch": 38,
          "duration_ms": 87,
          "velocity": 60,
          "beat_index": 1396,
          "section": "outro"
        },
        {
          "t": 135096,
          "type": "drum_hit",
          "pitch": 42,
          "duration_ms": 87,
          "velocity": 50,
          "beat_index": 1396,
          "section": "outro"
        },
        {
          "t": 135290,
          "type": "drum_hit",
          "pitch": 36,
          "duration_ms": 87,
          "velocity": 70,
          "beat_index": 1398,
          "section": "outro"
        },
        {
          "t": 135290,
          "type": "drum_hit",
          "pitch": 42,
          "duration_ms": 87,
          "velocity": 50,
          "beat_index": 1398,
          "section": "outro"
        },
        {
          "t": 135483,
          "type": "drum_hit",
          "pitch": 36,
          "duration_ms": 87,
          "velocity": 70,
          "beat_index": 1400,
          "section": "outro"
        },
        {
          "t": 135483,
          "type": "drum_hit",
          "pitch": 42,
          "duration_ms": 87,
          "velocity": 50,
          "beat_index": 1400,
          "section": "outro"
        },
        {
          "t": 135677,
          "type": "drum_hit",
          "pitch": 42,
          "duration_ms": 87,
          "velocity": 50,
          "beat_index": 1402,
          "section": "outro"
        },
        {
          "t": 135870,
          "type": "drum_hit",
          "pitch": 38,
          "duration_ms": 87,
          "velocity": 60,
          "beat_index": 1404,
          "section": "outro"
        },
        {
          "t": 135870,
          "type": "drum_hit",
          "pitch": 42,
          "duration_ms": 87,
          "velocity": 50,
          "beat_index": 1404,
          "section": "outro"
        },
        {
          "t": 136064,
          "type": "drum_hit",
          "pitch": 36,
          "duration_ms": 87,
          "velocity": 70,
          "beat_index": 1406,
          "section": "outro"
        },
        {
          "t": 136064,
          "type": "drum_hit",
          "pitch": 42,
          "duration_ms": 87,
          "velocity": 50,
          "beat_index": 1406,
          "section": "outro"
        }
      ]
    },
    {
      "id": "bass",
      "instrument": "Bass Synth",
      "midi_channel": 1,
      "role": "bass",
      "event_count": 704,
      "events": [
        {
          "t": 0,
          "type": "note",
          "pitch": 38,
          "duration_ms": 174,
          "velocity": 90,
          "beat_index": 0,
          "section": "intro"
        },
        {
          "t": 193,
          "type": "note",
          "pitch": 41,
          "duration_ms": 174,
          "velocity": 70,
          "beat_index": 2,
          "section": "intro"
        },
        {
          "t": 387,
          "type": "note",
          "pitch": 43,
          "duration_ms": 174,
          "velocity": 90,
          "beat_index": 4,
          "section": "intro"
        },
        {
          "t": 580,
          "type": "note",
          "pitch": 45,
          "duration_ms": 174,
          "velocity": 70,
          "beat_index": 6,
          "section": "intro"
        },
        {
          "t": 774,
          "type": "note",
          "pitch": 38,
          "duration_ms": 174,
          "velocity": 90,
          "beat_index": 8,
          "section": "intro"
        },
        {
          "t": 967,
          "type": "note",
          "pitch": 41,
          "duration_ms": 174,
          "velocity": 70,
          "beat_index": 10,
          "section": "intro"
        },
        {
          "t": 1161,
          "type": "note",
          "pitch": 45,
          "duration_ms": 174,
          "velocity": 90,
          "beat_index": 12,
          "section": "intro"
        },
        {
          "t": 1354,
          "type": "note",
          "pitch": 43,
          "duration_ms": 174,
          "velocity": 70,
          "beat_index": 14,
          "section": "intro"
        },
        {
          "t": 1548,
          "type": "note",
          "pitch": 38,
          "duration_ms": 174,
          "velocity": 90,
          "beat_index": 16,
          "section": "intro"
        },
        {
          "t": 1741,
          "type": "note",
          "pitch": 41,
          "duration_ms": 174,
          "velocity": 70,
          "beat_index": 18,
          "section": "intro"
        },
        {
          "t": 1935,
          "type": "note",
          "pitch": 43,
          "duration_ms": 174,
          "velocity": 90,
          "beat_index": 20,
          "section": "intro"
        },
        {
          "t": 2129,
          "type": "note",
          "pitch": 45,
          "duration_ms": 174,
          "velocity": 70,
          "beat_index": 22,
          "section": "intro"
        },
        {
          "t": 2322,
          "type": "note",
          "pitch": 38,
          "duration_ms": 174,
          "velocity": 90,
          "beat_index": 24,
          "section": "intro"
        },
        {
          "t": 2516,
          "type": "note",
          "pitch": 41,
          "duration_ms": 174,
          "velocity": 70,
          "beat_index": 26,
          "section": "intro"
        },
        {
          "t": 2709,
          "type": "note",
          "pitch": 45,
          "duration_ms": 174,
          "velocity": 90,
          "beat_index": 28,
          "section": "intro"
        },
        {
          "t": 2903,
          "type": "note",
          "pitch": 43,
          "duration_ms": 174,
          "velocity": 70,
          "beat_index": 30,
          "section": "intro"
        },
        {
          "t": 3096,
          "type": "note",
          "pitch": 38,
          "duration_ms": 174,
          "velocity": 90,
          "beat_index": 32,
          "section": "intro"
        },
        {
          "t": 3290,
          "type": "note",
          "pitch": 41,
          "duration_ms": 174,
          "velocity": 70,
          "beat_index": 34,
          "section": "intro"
        },
        {
          "t": 3483,
          "type": "note",
          "pitch": 43,
          "duration_ms": 174,
          "velocity": 90,
          "beat_index": 36,
          "section": "intro"
        },
        {
          "t": 3677,
          "type": "note",
          "pitch": 45,
          "duration_ms": 174,
          "velocity": 70,
          "beat_index": 38,
          "section": "intro"
        },
        {
          "t": 3870,
          "type": "note",
          "pitch": 38,
          "duration_ms": 174,
          "velocity": 90,
          "beat_index": 40,
          "section": "intro"
        },
        {
          "t": 4064,
          "type": "note",
          "pitch": 41,
          "duration_ms": 174,
          "velocity": 70,
          "beat_index": 42,
          "section": "intro"
        },
        {
          "t": 4258,
          "type": "note",
          "pitch": 45,
          "duration_ms": 174,
          "velocity": 90,
          "beat_index": 44,
          "section": "intro"
        },
        {
          "t": 4451,
          "type": "note",
          "pitch": 43,
          "duration_ms": 174,
          "velocity": 70,
          "beat_index": 46,
          "section": "intro"
        },
        {
          "t": 4645,
          "type": "note",
          "pitch": 38,
          "duration_ms": 174,
          "velocity": 90,
          "beat_index": 48,
          "section": "intro"
        },
        {
          "t": 4838,
          "type": "note",
          "pitch": 41,
          "duration_ms": 174,
          "velocity": 70,
          "beat_index": 50,
          "section": "intro"
        },
        {
          "t": 5032,
          "type": "note",
          "pitch": 43,
          "duration_ms": 174,
          "velocity": 90,
          "beat_index": 52,
          "section": "intro"
        },
        {
          "t": 5225,
          "type": "note",
          "pitch": 45,
          "duration_ms": 174,
          "velocity": 70,
          "beat_index": 54,
          "section": "intro"
        },
        {
          "t": 5419,
          "type": "note",
          "pitch": 38,
          "duration_ms": 174,
          "velocity": 90,
          "beat_index": 56,
          "section": "intro"
        },
        {
          "t": 5612,
          "type": "note",
          "pitch": 41,
          "duration_ms": 174,
          "velocity": 70,
          "beat_index": 58,
          "section": "intro"
        },
        {
          "t": 5806,
          "type": "note",
          "pitch": 45,
          "duration_ms": 174,
          "velocity": 90,
          "beat_index": 60,
          "section": "intro"
        },
        {
          "t": 6000,
          "type": "note",
          "pitch": 43,
          "duration_ms": 174,
          "velocity": 70,
          "beat_index": 62,
          "section": "intro"
        },
        {
          "t": 6193,
          "type": "note",
          "pitch": 38,
          "duration_ms": 174,
          "velocity": 90,
          "beat_index": 64,
          "section": "intro"
        },
        {
          "t": 6387,
          "type": "note",
          "pitch": 41,
          "duration_ms": 174,
          "velocity": 70,
          "beat_index": 66,
          "section": "intro"
        },
        {
          "t": 6580,
          "type": "note",
          "pitch": 43,
          "duration_ms": 174,
          "velocity": 90,
          "beat_index": 68,
          "section": "intro"
        },
        {
          "t": 6774,
          "type": "note",
          "pitch": 45,
          "duration_ms": 174,
          "velocity": 70,
          "beat_index": 70,
          "section": "intro"
        },
        {
          "t": 6967,
          "type": "note",
          "pitch": 38,
          "duration_ms": 174,
          "velocity": 90,
          "beat_index": 72,
          "section": "intro"
        },
        {
          "t": 7161,
          "type": "note",
          "pitch": 41,
          "duration_ms": 174,
          "velocity": 70,
          "beat_index": 74,
          "section": "intro"
        },
        {
          "t": 7354,
          "type": "note",
          "pitch": 45,
          "duration_ms": 174,
          "velocity": 90,
          "beat_index": 76,
          "section": "intro"
        },
        {
          "t": 7548,
          "type": "note",
          "pitch": 43,
          "duration_ms": 174,
          "velocity": 70,
          "beat_index": 78,
          "section": "intro"
        },
        {
          "t": 7741,
          "type": "note",
          "pitch": 38,
          "duration_ms": 174,
          "velocity": 90,
          "beat_index": 80,
          "section": "intro"
        },
        {
          "t": 7935,
          "type": "note",
          "pitch": 41,
          "duration_ms": 174,
          "velocity": 70,
          "beat_index": 82,
          "section": "intro"
        },
        {
          "t": 8129,
          "type": "note",
          "pitch": 43,
          "duration_ms": 174,
          "velocity": 90,
          "beat_index": 84,
          "section": "intro"
        },
        {
          "t": 8322,
          "type": "note",
          "pitch": 45,
          "duration_ms": 174,
          "velocity": 70,
          "beat_index": 86,
          "section": "intro"
        },
        {
          "t": 8516,
          "type": "note",
          "pitch": 38,
          "duration_ms": 174,
          "velocity": 90,
          "beat_index": 88,
          "section": "intro"
        },
        {
          "t": 8709,
          "type": "note",
          "pitch": 41,
          "duration_ms": 174,
          "velocity": 70,
          "beat_index": 90,
          "section": "intro"
        },
        {
          "t": 8903,
          "type": "note",
          "pitch": 45,
          "duration_ms": 174,
          "velocity": 90,
          "beat_index": 92,
          "section": "intro"
        },
        {
          "t": 9096,
          "type": "note",
          "pitch": 43,
          "duration_ms": 174,
          "velocity": 70,
          "beat_index": 94,
          "section": "intro"
        },
        {
          "t": 9290,
          "type": "note",
          "pitch": 38,
          "duration_ms": 174,
          "velocity": 90,
          "beat_index": 96,
          "section": "intro"
        },
        {
          "t": 9483,
          "type": "note",
          "pitch": 41,
          "duration_ms": 174,
          "velocity": 70,
          "beat_index": 98,
          "section": "intro"
        },
        {
          "t": 9677,
          "type": "note",
          "pitch": 43,
          "duration_ms": 174,
          "velocity": 90,
          "beat_index": 100,
          "section": "intro"
        },
        {
          "t": 9870,
          "type": "note",
          "pitch": 45,
          "duration_ms": 174,
          "velocity": 70,
          "beat_index": 102,
          "section": "intro"
        },
        {
          "t": 10064,
          "type": "note",
          "pitch": 38,
          "duration_ms": 174,
          "velocity": 90,
          "beat_index": 104,
          "section": "intro"
        },
        {
          "t": 10258,
          "type": "note",
          "pitch": 41,
          "duration_ms": 174,
          "velocity": 70,
          "beat_index": 106,
          "section": "intro"
        },
        {
          "t": 10451,
          "type": "note",
          "pitch": 45,
          "duration_ms": 174,
          "velocity": 90,
          "beat_index": 108,
          "section": "intro"
        },
        {
          "t": 10645,
          "type": "note",
          "pitch": 43,
          "duration_ms": 174,
          "velocity": 70,
          "beat_index": 110,
          "section": "intro"
        },
        {
          "t": 10838,
          "type": "note",
          "pitch": 38,
          "duration_ms": 174,
          "velocity": 90,
          "beat_index": 112,
          "section": "intro"
        },
        {
          "t": 11032,
          "type": "note",
          "pitch": 41,
          "duration_ms": 174,
          "velocity": 70,
          "beat_index": 114,
          "section": "intro"
        },
        {
          "t": 11225,
          "type": "note",
          "pitch": 43,
          "duration_ms": 174,
          "velocity": 90,
          "beat_index": 116,
          "section": "intro"
        },
        {
          "t": 11419,
          "type": "note",
          "pitch": 45,
          "duration_ms": 174,
          "velocity": 70,
          "beat_index": 118,
          "section": "intro"
        },
        {
          "t": 11612,
          "type": "note",
          "pitch": 38,
          "duration_ms": 174,
          "velocity": 90,
          "beat_index": 120,
          "section": "intro"
        },
        {
          "t": 11806,
          "type": "note",
          "pitch": 41,
          "duration_ms": 174,
          "velocity": 70,
          "beat_index": 122,
          "section": "intro"
        },
        {
          "t": 12000,
          "type": "note",
          "pitch": 45,
          "duration_ms": 174,
          "velocity": 90,
          "beat_index": 124,
          "section": "intro"
        },
        {
          "t": 12193,
          "type": "note",
          "pitch": 43,
          "duration_ms": 174,
          "velocity": 70,
          "beat_index": 126,
          "section": "intro"
        },
        {
          "t": 12387,
          "type": "note",
          "pitch": 38,
          "duration_ms": 174,
          "velocity": 90,
          "beat_index": 128,
          "section": "verse"
        },
        {
          "t": 12580,
          "type": "note",
          "pitch": 41,
          "duration_ms": 174,
          "velocity": 70,
          "beat_index": 130,
          "section": "verse"
        },
        {
          "t": 12774,
          "type": "note",
          "pitch": 43,
          "duration_ms": 174,
          "velocity": 90,
          "beat_index": 132,
          "section": "verse"
        },
        {
          "t": 12967,
          "type": "note",
          "pitch": 45,
          "duration_ms": 174,
          "velocity": 70,
          "beat_index": 134,
          "section": "verse"
        },
        {
          "t": 13161,
          "type": "note",
          "pitch": 38,
          "duration_ms": 174,
          "velocity": 90,
          "beat_index": 136,
          "section": "verse"
        },
        {
          "t": 13354,
          "type": "note",
          "pitch": 41,
          "duration_ms": 174,
          "velocity": 70,
          "beat_index": 138,
          "section": "verse"
        },
        {
          "t": 13548,
          "type": "note",
          "pitch": 45,
          "duration_ms": 174,
          "velocity": 90,
          "beat_index": 140,
          "section": "verse"
        },
        {
          "t": 13741,
          "type": "note",
          "pitch": 43,
          "duration_ms": 174,
          "velocity": 70,
          "beat_index": 142,
          "section": "verse"
        },
        {
          "t": 13935,
          "type": "note",
          "pitch": 38,
          "duration_ms": 174,
          "velocity": 90,
          "beat_index": 144,
          "section": "verse"
        },
        {
          "t": 14129,
          "type": "note",
          "pitch": 41,
          "duration_ms": 174,
          "velocity": 70,
          "beat_index": 146,
          "section": "verse"
        },
        {
          "t": 14322,
          "type": "note",
          "pitch": 43,
          "duration_ms": 174,
          "velocity": 90,
          "beat_index": 148,
          "section": "verse"
        },
        {
          "t": 14516,
          "type": "note",
          "pitch": 45,
          "duration_ms": 174,
          "velocity": 70,
          "beat_index": 150,
          "section": "verse"
        },
        {
          "t": 14709,
          "type": "note",
          "pitch": 38,
          "duration_ms": 174,
          "velocity": 90,
          "beat_index": 152,
          "section": "verse"
        },
        {
          "t": 14903,
          "type": "note",
          "pitch": 41,
          "duration_ms": 174,
          "velocity": 70,
          "beat_index": 154,
          "section": "verse"
        },
        {
          "t": 15096,
          "type": "note",
          "pitch": 45,
          "duration_ms": 174,
          "velocity": 90,
          "beat_index": 156,
          "section": "verse"
        },
        {
          "t": 15290,
          "type": "note",
          "pitch": 43,
          "duration_ms": 174,
          "velocity": 70,
          "beat_index": 158,
          "section": "verse"
        },
        {
          "t": 15483,
          "type": "note",
          "pitch": 38,
          "duration_ms": 174,
          "velocity": 90,
          "beat_index": 160,
          "section": "verse"
        },
        {
          "t": 15677,
          "type": "note",
          "pitch": 41,
          "duration_ms": 174,
          "velocity": 70,
          "beat_index": 162,
          "section": "verse"
        },
        {
          "t": 15870,
          "type": "note",
          "pitch": 43,
          "duration_ms": 174,
          "velocity": 90,
          "beat_index": 164,
          "section": "verse"
        },
        {
          "t": 16064,
          "type": "note",
          "pitch": 45,
          "duration_ms": 174,
          "velocity": 70,
          "beat_index": 166,
          "section": "verse"
        },
        {
          "t": 16258,
          "type": "note",
          "pitch": 38,
          "duration_ms": 174,
          "velocity": 90,
          "beat_index": 168,
          "section": "verse"
        },
        {
          "t": 16451,
          "type": "note",
          "pitch": 41,
          "duration_ms": 174,
          "velocity": 70,
          "beat_index": 170,
          "section": "verse"
        },
        {
          "t": 16645,
          "type": "note",
          "pitch": 45,
          "duration_ms": 174,
          "velocity": 90,
          "beat_index": 172,
          "section": "verse"
        },
        {
          "t": 16838,
          "type": "note",
          "pitch": 43,
          "duration_ms": 174,
          "velocity": 70,
          "beat_index": 174,
          "section": "verse"
        },
        {
          "t": 17032,
          "type": "note",
          "pitch": 38,
          "duration_ms": 174,
          "velocity": 90,
          "beat_index": 176,
          "section": "verse"
        },
        {
          "t": 17225,
          "type": "note",
          "pitch": 41,
          "duration_ms": 174,
          "velocity": 70,
          "beat_index": 178,
          "section": "verse"
        },
        {
          "t": 17419,
          "type": "note",
          "pitch": 43,
          "duration_ms": 174,
          "velocity": 90,
          "beat_index": 180,
          "section": "verse"
        },
        {
          "t": 17612,
          "type": "note",
          "pitch": 45,
          "duration_ms": 174,
          "velocity": 70,
          "beat_index": 182,
          "section": "verse"
        },
        {
          "t": 17806,
          "type": "note",
          "pitch": 38,
          "duration_ms": 174,
          "velocity": 90,
          "beat_index": 184,
          "section": "verse"
        },
        {
          "t": 18000,
          "type": "note",
          "pitch": 41,
          "duration_ms": 174,
          "velocity": 70,
          "beat_index": 186,
          "section": "verse"
        },
        {
          "t": 18193,
          "type": "note",
          "pitch": 45,
          "duration_ms": 174,
          "velocity": 90,
          "beat_index": 188,
          "section": "verse"
        },
        {
          "t": 18387,
          "type": "note",
          "pitch": 43,
          "duration_ms": 174,
          "velocity": 70,
          "beat_index": 190,
          "section": "verse"
        },
        {
          "t": 18580,
          "type": "note",
          "pitch": 38,
          "duration_ms": 174,
          "velocity": 90,
          "beat_index": 192,
          "section": "verse"
        },
        {
          "t": 18774,
          "type": "note",
          "pitch": 41,
          "duration_ms": 174,
          "velocity": 70,
          "beat_index": 194,
          "section": "verse"
        },
        {
          "t": 18967,
          "type": "note",
          "pitch": 43,
          "duration_ms": 174,
          "velocity": 90,
          "beat_index": 196,
          "section": "verse"
        },
        {
          "t": 19161,
          "type": "note",
          "pitch": 45,
          "duration_ms": 174,
          "velocity": 70,
          "beat_index": 198,
          "section": "verse"
        },
        {
          "t": 19354,
          "type": "note",
          "pitch": 38,
          "duration_ms": 174,
          "velocity": 90,
          "beat_index": 200,
          "section": "verse"
        },
        {
          "t": 19548,
          "type": "note",
          "pitch": 41,
          "duration_ms": 174,
          "velocity": 70,
          "beat_index": 202,
          "section": "verse"
        },
        {
          "t": 19741,
          "type": "note",
          "pitch": 45,
          "duration_ms": 174,
          "velocity": 90,
          "beat_index": 204,
          "section": "verse"
        },
        {
          "t": 19935,
          "type": "note",
          "pitch": 43,
          "duration_ms": 174,
          "velocity": 70,
          "beat_index": 206,
          "section": "verse"
        },
        {
          "t": 20129,
          "type": "note",
          "pitch": 38,
          "duration_ms": 174,
          "velocity": 90,
          "beat_index": 208,
          "section": "verse"
        },
        {
          "t": 20322,
          "type": "note",
          "pitch": 41,
          "duration_ms": 174,
          "velocity": 70,
          "beat_index": 210,
          "section": "verse"
        },
        {
          "t": 20516,
          "type": "note",
          "pitch": 43,
          "duration_ms": 174,
          "velocity": 90,
          "beat_index": 212,
          "section": "verse"
        },
        {
          "t": 20709,
          "type": "note",
          "pitch": 45,
          "duration_ms": 174,
          "velocity": 70,
          "beat_index": 214,
          "section": "verse"
        },
        {
          "t": 20903,
          "type": "note",
          "pitch": 38,
          "duration_ms": 174,
          "velocity": 90,
          "beat_index": 216,
          "section": "verse"
        },
        {
          "t": 21096,
          "type": "note",
          "pitch": 41,
          "duration_ms": 174,
          "velocity": 70,
          "beat_index": 218,
          "section": "verse"
        },
        {
          "t": 21290,
          "type": "note",
          "pitch": 45,
          "duration_ms": 174,
          "velocity": 90,
          "beat_index": 220,
          "section": "verse"
        },
        {
          "t": 21483,
          "type": "note",
          "pitch": 43,
          "duration_ms": 174,
          "velocity": 70,
          "beat_index": 222,
          "section": "verse"
        },
        {
          "t": 21677,
          "type": "note",
          "pitch": 38,
          "duration_ms": 174,
          "velocity": 90,
          "beat_index": 224,
          "section": "verse"
        },
        {
          "t": 21870,
          "type": "note",
          "pitch": 41,
          "duration_ms": 174,
          "velocity": 70,
          "beat_index": 226,
          "section": "verse"
        },
        {
          "t": 22064,
          "type": "note",
          "pitch": 43,
          "duration_ms": 174,
          "velocity": 90,
          "beat_index": 228,
          "section": "verse"
        },
        {
          "t": 22258,
          "type": "note",
          "pitch": 45,
          "duration_ms": 174,
          "velocity": 70,
          "beat_index": 230,
          "section": "verse"
        },
        {
          "t": 22451,
          "type": "note",
          "pitch": 38,
          "duration_ms": 174,
          "velocity": 90,
          "beat_index": 232,
          "section": "verse"
        },
        {
          "t": 22645,
          "type": "note",
          "pitch": 41,
          "duration_ms": 174,
          "velocity": 70,
          "beat_index": 234,
          "section": "verse"
        },
        {
          "t": 22838,
          "type": "note",
          "pitch": 45,
          "duration_ms": 174,
          "velocity": 90,
          "beat_index": 236,
          "section": "verse"
        },
        {
          "t": 23032,
          "type": "note",
          "pitch": 43,
          "duration_ms": 174,
          "velocity": 70,
          "beat_index": 238,
          "section": "verse"
        },
        {
          "t": 23225,
          "type": "note",
          "pitch": 38,
          "duration_ms": 174,
          "velocity": 90,
          "beat_index": 240,
          "section": "verse"
        },
        {
          "t": 23419,
          "type": "note",
          "pitch": 41,
          "duration_ms": 174,
          "velocity": 70,
          "beat_index": 242,
          "section": "verse"
        },
        {
          "t": 23612,
          "type": "note",
          "pitch": 43,
          "duration_ms": 174,
          "velocity": 90,
          "beat_index": 244,
          "section": "verse"
        },
        {
          "t": 23806,
          "type": "note",
          "pitch": 45,
          "duration_ms": 174,
          "velocity": 70,
          "beat_index": 246,
          "section": "verse"
        },
        {
          "t": 24000,
          "type": "note",
          "pitch": 38,
          "duration_ms": 174,
          "velocity": 90,
          "beat_index": 248,
          "section": "verse"
        },
        {
          "t": 24193,
          "type": "note",
          "pitch": 41,
          "duration_ms": 174,
          "velocity": 70,
          "beat_index": 250,
          "section": "verse"
        },
        {
          "t": 24387,
          "type": "note",
          "pitch": 45,
          "duration_ms": 174,
          "velocity": 90,
          "beat_index": 252,
          "section": "verse"
        },
        {
          "t": 24580,
          "type": "note",
          "pitch": 43,
          "duration_ms": 174,
          "velocity": 70,
          "beat_index": 254,
          "section": "verse"
        },
        {
          "t": 24774,
          "type": "note",
          "pitch": 38,
          "duration_ms": 174,
          "velocity": 90,
          "beat_index": 256,
          "section": "verse"
        },
        {
          "t": 24967,
          "type": "note",
          "pitch": 41,
          "duration_ms": 174,
          "velocity": 70,
          "beat_index": 258,
          "section": "verse"
        },
        {
          "t": 25161,
          "type": "note",
          "pitch": 43,
          "duration_ms": 174,
          "velocity": 90,
          "beat_index": 260,
          "section": "verse"
        },
        {
          "t": 25354,
          "type": "note",
          "pitch": 45,
          "duration_ms": 174,
          "velocity": 70,
          "beat_index": 262,
          "section": "verse"
        },
        {
          "t": 25548,
          "type": "note",
          "pitch": 38,
          "duration_ms": 174,
          "velocity": 90,
          "beat_index": 264,
          "section": "verse"
        },
        {
          "t": 25741,
          "type": "note",
          "pitch": 41,
          "duration_ms": 174,
          "velocity": 70,
          "beat_index": 266,
          "section": "verse"
        },
        {
          "t": 25935,
          "type": "note",
          "pitch": 45,
          "duration_ms": 174,
          "velocity": 90,
          "beat_index": 268,
          "section": "verse"
        },
        {
          "t": 26129,
          "type": "note",
          "pitch": 43,
          "duration_ms": 174,
          "velocity": 70,
          "beat_index": 270,
          "section": "verse"
        },
        {
          "t": 26322,
          "type": "note",
          "pitch": 38,
          "duration_ms": 174,
          "velocity": 90,
          "beat_index": 272,
          "section": "verse"
        },
        {
          "t": 26516,
          "type": "note",
          "pitch": 41,
          "duration_ms": 174,
          "velocity": 70,
          "beat_index": 274,
          "section": "verse"
        },
        {
          "t": 26709,
          "type": "note",
          "pitch": 43,
          "duration_ms": 174,
          "velocity": 90,
          "beat_index": 276,
          "section": "verse"
        },
        {
          "t": 26903,
          "type": "note",
          "pitch": 45,
          "duration_ms": 174,
          "velocity": 70,
          "beat_index": 278,
          "section": "verse"
        },
        {
          "t": 27096,
          "type": "note",
          "pitch": 38,
          "duration_ms": 174,
          "velocity": 90,
          "beat_index": 280,
          "section": "verse"
        },
        {
          "t": 27290,
          "type": "note",
          "pitch": 41,
          "duration_ms": 174,
          "velocity": 70,
          "beat_index": 282,
          "section": "verse"
        },
        {
          "t": 27483,
          "type": "note",
          "pitch": 45,
          "duration_ms": 174,
          "velocity": 90,
          "beat_index": 284,
          "section": "verse"
        },
        {
          "t": 27677,
          "type": "note",
          "pitch": 43,
          "duration_ms": 174,
          "velocity": 70,
          "beat_index": 286,
          "section": "verse"
        },
        {
          "t": 27870,
          "type": "note",
          "pitch": 38,
          "duration_ms": 174,
          "velocity": 90,
          "beat_index": 288,
          "section": "verse"
        },
        {
          "t": 28064,
          "type": "note",
          "pitch": 41,
          "duration_ms": 174,
          "velocity": 70,
          "beat_index": 290,
          "section": "verse"
        },
        {
          "t": 28258,
          "type": "note",
          "pitch": 43,
          "duration_ms": 174,
          "velocity": 90,
          "beat_index": 292,
          "section": "verse"
        },
        {
          "t": 28451,
          "type": "note",
          "pitch": 45,
          "duration_ms": 174,
          "velocity": 70,
          "beat_index": 294,
          "section": "verse"
        },
        {
          "t": 28645,
          "type": "note",
          "pitch": 38,
          "duration_ms": 174,
          "velocity": 90,
          "beat_index": 296,
          "section": "verse"
        },
        {
          "t": 28838,
          "type": "note",
          "pitch": 41,
          "duration_ms": 174,
          "velocity": 70,
          "beat_index": 298,
          "section": "verse"
        },
        {
          "t": 29032,
          "type": "note",
          "pitch": 45,
          "duration_ms": 174,
          "velocity": 90,
          "beat_index": 300,
          "section": "verse"
        },
        {
          "t": 29225,
          "type": "note",
          "pitch": 43,
          "duration_ms": 174,
          "velocity": 70,
          "beat_index": 302,
          "section": "verse"
        },
        {
          "t": 29419,
          "type": "note",
          "pitch": 38,
          "duration_ms": 174,
          "velocity": 90,
          "beat_index": 304,
          "section": "verse"
        },
        {
          "t": 29612,
          "type": "note",
          "pitch": 41,
          "duration_ms": 174,
          "velocity": 70,
          "beat_index": 306,
          "section": "verse"
        },
        {
          "t": 29806,
          "type": "note",
          "pitch": 43,
          "duration_ms": 174,
          "velocity": 90,
          "beat_index": 308,
          "section": "verse"
        },
        {
          "t": 29999,
          "type": "note",
          "pitch": 45,
          "duration_ms": 174,
          "velocity": 70,
          "beat_index": 310,
          "section": "verse"
        },
        {
          "t": 30193,
          "type": "note",
          "pitch": 38,
          "duration_ms": 174,
          "velocity": 90,
          "beat_index": 312,
          "section": "verse"
        },
        {
          "t": 30387,
          "type": "note",
          "pitch": 41,
          "duration_ms": 174,
          "velocity": 70,
          "beat_index": 314,
          "section": "verse"
        },
        {
          "t": 30580,
          "type": "note",
          "pitch": 45,
          "duration_ms": 174,
          "velocity": 90,
          "beat_index": 316,
          "section": "verse"
        },
        {
          "t": 30774,
          "type": "note",
          "pitch": 43,
          "duration_ms": 174,
          "velocity": 70,
          "beat_index": 318,
          "section": "verse"
        },
        {
          "t": 30967,
          "type": "note",
          "pitch": 38,
          "duration_ms": 174,
          "velocity": 90,
          "beat_index": 320,
          "section": "verse"
        },
        {
          "t": 31161,
          "type": "note",
          "pitch": 41,
          "duration_ms": 174,
          "velocity": 70,
          "beat_index": 322,
          "section": "verse"
        },
        {
          "t": 31354,
          "type": "note",
          "pitch": 43,
          "duration_ms": 174,
          "velocity": 90,
          "beat_index": 324,
          "section": "verse"
        },
        {
          "t": 31548,
          "type": "note",
          "pitch": 45,
          "duration_ms": 174,
          "velocity": 70,
          "beat_index": 326,
          "section": "verse"
        },
        {
          "t": 31741,
          "type": "note",
          "pitch": 38,
          "duration_ms": 174,
          "velocity": 90,
          "beat_index": 328,
          "section": "verse"
        },
        {
          "t": 31935,
          "type": "note",
          "pitch": 41,
          "duration_ms": 174,
          "velocity": 70,
          "beat_index": 330,
          "section": "verse"
        },
        {
          "t": 32129,
          "type": "note",
          "pitch": 45,
          "duration_ms": 174,
          "velocity": 90,
          "beat_index": 332,
          "section": "verse"
        },
        {
          "t": 32322,
          "type": "note",
          "pitch": 43,
          "duration_ms": 174,
          "velocity": 70,
          "beat_index": 334,
          "section": "verse"
        },
        {
          "t": 32516,
          "type": "note",
          "pitch": 38,
          "duration_ms": 174,
          "velocity": 90,
          "beat_index": 336,
          "section": "verse"
        },
        {
          "t": 32709,
          "type": "note",
          "pitch": 41,
          "duration_ms": 174,
          "velocity": 70,
          "beat_index": 338,
          "section": "verse"
        },
        {
          "t": 32903,
          "type": "note",
          "pitch": 43,
          "duration_ms": 174,
          "velocity": 90,
          "beat_index": 340,
          "section": "verse"
        },
        {
          "t": 33096,
          "type": "note",
          "pitch": 45,
          "duration_ms": 174,
          "velocity": 70,
          "beat_index": 342,
          "section": "verse"
        },
        {
          "t": 33290,
          "type": "note",
          "pitch": 38,
          "duration_ms": 174,
          "velocity": 90,
          "beat_index": 344,
          "section": "verse"
        },
        {
          "t": 33483,
          "type": "note",
          "pitch": 41,
          "duration_ms": 174,
          "velocity": 70,
          "beat_index": 346,
          "section": "verse"
        },
        {
          "t": 33677,
          "type": "note",
          "pitch": 45,
          "duration_ms": 174,
          "velocity": 90,
          "beat_index": 348,
          "section": "verse"
        },
        {
          "t": 33870,
          "type": "note",
          "pitch": 43,
          "duration_ms": 174,
          "velocity": 70,
          "beat_index": 350,
          "section": "verse"
        },
        {
          "t": 34064,
          "type": "note",
          "pitch": 38,
          "duration_ms": 174,
          "velocity": 90,
          "beat_index": 352,
          "section": "verse"
        },
        {
          "t": 34258,
          "type": "note",
          "pitch": 41,
          "duration_ms": 174,
          "velocity": 70,
          "beat_index": 354,
          "section": "verse"
        },
        {
          "t": 34451,
          "type": "note",
          "pitch": 43,
          "duration_ms": 174,
          "velocity": 90,
          "beat_index": 356,
          "section": "verse"
        },
        {
          "t": 34645,
          "type": "note",
          "pitch": 45,
          "duration_ms": 174,
          "velocity": 70,
          "beat_index": 358,
          "section": "verse"
        },
        {
          "t": 34838,
          "type": "note",
          "pitch": 38,
          "duration_ms": 174,
          "velocity": 90,
          "beat_index": 360,
          "section": "verse"
        },
        {
          "t": 35032,
          "type": "note",
          "pitch": 41,
          "duration_ms": 174,
          "velocity": 70,
          "beat_index": 362,
          "section": "verse"
        },
        {
          "t": 35225,
          "type": "note",
          "pitch": 45,
          "duration_ms": 174,
          "velocity": 90,
          "beat_index": 364,
          "section": "verse"
        },
        {
          "t": 35419,
          "type": "note",
          "pitch": 43,
          "duration_ms": 174,
          "velocity": 70,
          "beat_index": 366,
          "section": "verse"
        },
        {
          "t": 35612,
          "type": "note",
          "pitch": 38,
          "duration_ms": 174,
          "velocity": 90,
          "beat_index": 368,
          "section": "verse"
        },
        {
          "t": 35806,
          "type": "note",
          "pitch": 41,
          "duration_ms": 174,
          "velocity": 70,
          "beat_index": 370,
          "section": "verse"
        },
        {
          "t": 36000,
          "type": "note",
          "pitch": 43,
          "duration_ms": 174,
          "velocity": 90,
          "beat_index": 372,
          "section": "verse"
        },
        {
          "t": 36193,
          "type": "note",
          "pitch": 45,
          "duration_ms": 174,
          "velocity": 70,
          "beat_index": 374,
          "section": "verse"
        },
        {
          "t": 36387,
          "type": "note",
          "pitch": 38,
          "duration_ms": 174,
          "velocity": 90,
          "beat_index": 376,
          "section": "verse"
        },
        {
          "t": 36580,
          "type": "note",
          "pitch": 41,
          "duration_ms": 174,
          "velocity": 70,
          "beat_index": 378,
          "section": "verse"
        },
        {
          "t": 36774,
          "type": "note",
          "pitch": 45,
          "duration_ms": 174,
          "velocity": 90,
          "beat_index": 380,
          "section": "verse"
        },
        {
          "t": 36967,
          "type": "note",
          "pitch": 43,
          "duration_ms": 174,
          "velocity": 70,
          "beat_index": 382,
          "section": "verse"
        },
        {
          "t": 37161,
          "type": "note",
          "pitch": 38,
          "duration_ms": 174,
          "velocity": 90,
          "beat_index": 384,
          "section": "build-up"
        },
        {
          "t": 37354,
          "type": "note",
          "pitch": 41,
          "duration_ms": 174,
          "velocity": 70,
          "beat_index": 386,
          "section": "build-up"
        },
        {
          "t": 37548,
          "type": "note",
          "pitch": 43,
          "duration_ms": 174,
          "velocity": 90,
          "beat_index": 388,
          "section": "build-up"
        },
        {
          "t": 37741,
          "type": "note",
          "pitch": 45,
          "duration_ms": 174,
          "velocity": 70,
          "beat_index": 390,
          "section": "build-up"
        },
        {
          "t": 37935,
          "type": "note",
          "pitch": 38,
          "duration_ms": 174,
          "velocity": 90,
          "beat_index": 392,
          "section": "build-up"
        },
        {
          "t": 38129,
          "type": "note",
          "pitch": 41,
          "duration_ms": 174,
          "velocity": 70,
          "beat_index": 394,
          "section": "build-up"
        },
        {
          "t": 38322,
          "type": "note",
          "pitch": 45,
          "duration_ms": 174,
          "velocity": 90,
          "beat_index": 396,
          "section": "build-up"
        },
        {
          "t": 38516,
          "type": "note",
          "pitch": 43,
          "duration_ms": 174,
          "velocity": 70,
          "beat_index": 398,
          "section": "build-up"
        },
        {
          "t": 38709,
          "type": "note",
          "pitch": 38,
          "duration_ms": 174,
          "velocity": 90,
          "beat_index": 400,
          "section": "build-up"
        },
        {
          "t": 38903,
          "type": "note",
          "pitch": 41,
          "duration_ms": 174,
          "velocity": 70,
          "beat_index": 402,
          "section": "build-up"
        },
        {
          "t": 39096,
          "type": "note",
          "pitch": 43,
          "duration_ms": 174,
          "velocity": 90,
          "beat_index": 404,
          "section": "build-up"
        },
        {
          "t": 39290,
          "type": "note",
          "pitch": 45,
          "duration_ms": 174,
          "velocity": 70,
          "beat_index": 406,
          "section": "build-up"
        },
        {
          "t": 39483,
          "type": "note",
          "pitch": 38,
          "duration_ms": 174,
          "velocity": 90,
          "beat_index": 408,
          "section": "build-up"
        },
        {
          "t": 39677,
          "type": "note",
          "pitch": 41,
          "duration_ms": 174,
          "velocity": 70,
          "beat_index": 410,
          "section": "build-up"
        },
        {
          "t": 39870,
          "type": "note",
          "pitch": 45,
          "duration_ms": 174,
          "velocity": 90,
          "beat_index": 412,
          "section": "build-up"
        },
        {
          "t": 40064,
          "type": "note",
          "pitch": 43,
          "duration_ms": 174,
          "velocity": 70,
          "beat_index": 414,
          "section": "build-up"
        },
        {
          "t": 40258,
          "type": "note",
          "pitch": 38,
          "duration_ms": 174,
          "velocity": 90,
          "beat_index": 416,
          "section": "build-up"
        },
        {
          "t": 40451,
          "type": "note",
          "pitch": 41,
          "duration_ms": 174,
          "velocity": 70,
          "beat_index": 418,
          "section": "build-up"
        },
        {
          "t": 40645,
          "type": "note",
          "pitch": 43,
          "duration_ms": 174,
          "velocity": 90,
          "beat_index": 420,
          "section": "build-up"
        },
        {
          "t": 40838,
          "type": "note",
          "pitch": 45,
          "duration_ms": 174,
          "velocity": 70,
          "beat_index": 422,
          "section": "build-up"
        },
        {
          "t": 41032,
          "type": "note",
          "pitch": 38,
          "duration_ms": 174,
          "velocity": 90,
          "beat_index": 424,
          "section": "build-up"
        },
        {
          "t": 41225,
          "type": "note",
          "pitch": 41,
          "duration_ms": 174,
          "velocity": 70,
          "beat_index": 426,
          "section": "build-up"
        },
        {
          "t": 41419,
          "type": "note",
          "pitch": 45,
          "duration_ms": 174,
          "velocity": 90,
          "beat_index": 428,
          "section": "build-up"
        },
        {
          "t": 41612,
          "type": "note",
          "pitch": 43,
          "duration_ms": 174,
          "velocity": 70,
          "beat_index": 430,
          "section": "build-up"
        },
        {
          "t": 41806,
          "type": "note",
          "pitch": 38,
          "duration_ms": 174,
          "velocity": 90,
          "beat_index": 432,
          "section": "build-up"
        },
        {
          "t": 42000,
          "type": "note",
          "pitch": 41,
          "duration_ms": 174,
          "velocity": 70,
          "beat_index": 434,
          "section": "build-up"
        },
        {
          "t": 42193,
          "type": "note",
          "pitch": 43,
          "duration_ms": 174,
          "velocity": 90,
          "beat_index": 436,
          "section": "build-up"
        },
        {
          "t": 42387,
          "type": "note",
          "pitch": 45,
          "duration_ms": 174,
          "velocity": 70,
          "beat_index": 438,
          "section": "build-up"
        },
        {
          "t": 42580,
          "type": "note",
          "pitch": 38,
          "duration_ms": 174,
          "velocity": 90,
          "beat_index": 440,
          "section": "build-up"
        },
        {
          "t": 42774,
          "type": "note",
          "pitch": 41,
          "duration_ms": 174,
          "velocity": 70,
          "beat_index": 442,
          "section": "build-up"
        },
        {
          "t": 42967,
          "type": "note",
          "pitch": 45,
          "duration_ms": 174,
          "velocity": 90,
          "beat_index": 444,
          "section": "build-up"
        },
        {
          "t": 43161,
          "type": "note",
          "pitch": 43,
          "duration_ms": 174,
          "velocity": 70,
          "beat_index": 446,
          "section": "build-up"
        },
        {
          "t": 43354,
          "type": "note",
          "pitch": 38,
          "duration_ms": 174,
          "velocity": 90,
          "beat_index": 448,
          "section": "build-up"
        },
        {
          "t": 43548,
          "type": "note",
          "pitch": 41,
          "duration_ms": 174,
          "velocity": 70,
          "beat_index": 450,
          "section": "build-up"
        },
        {
          "t": 43741,
          "type": "note",
          "pitch": 43,
          "duration_ms": 174,
          "velocity": 90,
          "beat_index": 452,
          "section": "build-up"
        },
        {
          "t": 43935,
          "type": "note",
          "pitch": 45,
          "duration_ms": 174,
          "velocity": 70,
          "beat_index": 454,
          "section": "build-up"
        },
        {
          "t": 44129,
          "type": "note",
          "pitch": 38,
          "duration_ms": 174,
          "velocity": 90,
          "beat_index": 456,
          "section": "build-up"
        },
        {
          "t": 44322,
          "type": "note",
          "pitch": 41,
          "duration_ms": 174,
          "velocity": 70,
          "beat_index": 458,
          "section": "build-up"
        },
        {
          "t": 44516,
          "type": "note",
          "pitch": 45,
          "duration_ms": 174,
          "velocity": 90,
          "beat_index": 460,
          "section": "build-up"
        },
        {
          "t": 44709,
          "type": "note",
          "pitch": 43,
          "duration_ms": 174,
          "velocity": 70,
          "beat_index": 462,
          "section": "build-up"
        },
        {
          "t": 44903,
          "type": "note",
          "pitch": 38,
          "duration_ms": 174,
          "velocity": 90,
          "beat_index": 464,
          "section": "build-up"
        },
        {
          "t": 45096,
          "type": "note",
          "pitch": 41,
          "duration_ms": 174,
          "velocity": 70,
          "beat_index": 466,
          "section": "build-up"
        },
        {
          "t": 45290,
          "type": "note",
          "pitch": 43,
          "duration_ms": 174,
          "velocity": 90,
          "beat_index": 468,
          "section": "build-up"
        },
        {
          "t": 45483,
          "type": "note",
          "pitch": 45,
          "duration_ms": 174,
          "velocity": 70,
          "beat_index": 470,
          "section": "build-up"
        },
        {
          "t": 45677,
          "type": "note",
          "pitch": 38,
          "duration_ms": 174,
          "velocity": 90,
          "beat_index": 472,
          "section": "build-up"
        },
        {
          "t": 45870,
          "type": "note",
          "pitch": 41,
          "duration_ms": 174,
          "velocity": 70,
          "beat_index": 474,
          "section": "build-up"
        },
        {
          "t": 46064,
          "type": "note",
          "pitch": 45,
          "duration_ms": 174,
          "velocity": 90,
          "beat_index": 476,
          "section": "build-up"
        },
        {
          "t": 46258,
          "type": "note",
          "pitch": 43,
          "duration_ms": 174,
          "velocity": 70,
          "beat_index": 478,
          "section": "build-up"
        },
        {
          "t": 46451,
          "type": "note",
          "pitch": 38,
          "duration_ms": 174,
          "velocity": 90,
          "beat_index": 480,
          "section": "build-up"
        },
        {
          "t": 46645,
          "type": "note",
          "pitch": 41,
          "duration_ms": 174,
          "velocity": 70,
          "beat_index": 482,
          "section": "build-up"
        },
        {
          "t": 46838,
          "type": "note",
          "pitch": 43,
          "duration_ms": 174,
          "velocity": 90,
          "beat_index": 484,
          "section": "build-up"
        },
        {
          "t": 47032,
          "type": "note",
          "pitch": 45,
          "duration_ms": 174,
          "velocity": 70,
          "beat_index": 486,
          "section": "build-up"
        },
        {
          "t": 47225,
          "type": "note",
          "pitch": 38,
          "duration_ms": 174,
          "velocity": 90,
          "beat_index": 488,
          "section": "build-up"
        },
        {
          "t": 47419,
          "type": "note",
          "pitch": 41,
          "duration_ms": 174,
          "velocity": 70,
          "beat_index": 490,
          "section": "build-up"
        },
        {
          "t": 47612,
          "type": "note",
          "pitch": 45,
          "duration_ms": 174,
          "velocity": 90,
          "beat_index": 492,
          "section": "build-up"
        },
        {
          "t": 47806,
          "type": "note",
          "pitch": 43,
          "duration_ms": 174,
          "velocity": 70,
          "beat_index": 494,
          "section": "build-up"
        },
        {
          "t": 48000,
          "type": "note",
          "pitch": 38,
          "duration_ms": 174,
          "velocity": 90,
          "beat_index": 496,
          "section": "build-up"
        },
        {
          "t": 48193,
          "type": "note",
          "pitch": 41,
          "duration_ms": 174,
          "velocity": 70,
          "beat_index": 498,
          "section": "build-up"
        },
        {
          "t": 48387,
          "type": "note",
          "pitch": 43,
          "duration_ms": 174,
          "velocity": 90,
          "beat_index": 500,
          "section": "build-up"
        },
        {
          "t": 48580,
          "type": "note",
          "pitch": 45,
          "duration_ms": 174,
          "velocity": 70,
          "beat_index": 502,
          "section": "build-up"
        },
        {
          "t": 48774,
          "type": "note",
          "pitch": 38,
          "duration_ms": 174,
          "velocity": 90,
          "beat_index": 504,
          "section": "build-up"
        },
        {
          "t": 48967,
          "type": "note",
          "pitch": 41,
          "duration_ms": 174,
          "velocity": 70,
          "beat_index": 506,
          "section": "build-up"
        },
        {
          "t": 49161,
          "type": "note",
          "pitch": 45,
          "duration_ms": 174,
          "velocity": 90,
          "beat_index": 508,
          "section": "build-up"
        },
        {
          "t": 49354,
          "type": "note",
          "pitch": 43,
          "duration_ms": 174,
          "velocity": 70,
          "beat_index": 510,
          "section": "build-up"
        },
        {
          "t": 49548,
          "type": "note",
          "pitch": 38,
          "duration_ms": 174,
          "velocity": 90,
          "beat_index": 512,
          "section": "drop"
        },
        {
          "t": 49741,
          "type": "note",
          "pitch": 41,
          "duration_ms": 174,
          "velocity": 70,
          "beat_index": 514,
          "section": "drop"
        },
        {
          "t": 49935,
          "type": "note",
          "pitch": 43,
          "duration_ms": 174,
          "velocity": 90,
          "beat_index": 516,
          "section": "drop"
        },
        {
          "t": 50129,
          "type": "note",
          "pitch": 45,
          "duration_ms": 174,
          "velocity": 70,
          "beat_index": 518,
          "section": "drop"
        },
        {
          "t": 50322,
          "type": "note",
          "pitch": 38,
          "duration_ms": 174,
          "velocity": 90,
          "beat_index": 520,
          "section": "drop"
        },
        {
          "t": 50516,
          "type": "note",
          "pitch": 41,
          "duration_ms": 174,
          "velocity": 70,
          "beat_index": 522,
          "section": "drop"
        },
        {
          "t": 50709,
          "type": "note",
          "pitch": 45,
          "duration_ms": 174,
          "velocity": 90,
          "beat_index": 524,
          "section": "drop"
        },
        {
          "t": 50903,
          "type": "note",
          "pitch": 43,
          "duration_ms": 174,
          "velocity": 70,
          "beat_index": 526,
          "section": "drop"
        },
        {
          "t": 51096,
          "type": "note",
          "pitch": 38,
          "duration_ms": 174,
          "velocity": 90,
          "beat_index": 528,
          "section": "drop"
        },
        {
          "t": 51290,
          "type": "note",
          "pitch": 41,
          "duration_ms": 174,
          "velocity": 70,
          "beat_index": 530,
          "section": "drop"
        },
        {
          "t": 51483,
          "type": "note",
          "pitch": 43,
          "duration_ms": 174,
          "velocity": 90,
          "beat_index": 532,
          "section": "drop"
        },
        {
          "t": 51677,
          "type": "note",
          "pitch": 45,
          "duration_ms": 174,
          "velocity": 70,
          "beat_index": 534,
          "section": "drop"
        },
        {
          "t": 51870,
          "type": "note",
          "pitch": 38,
          "duration_ms": 174,
          "velocity": 90,
          "beat_index": 536,
          "section": "drop"
        },
        {
          "t": 52064,
          "type": "note",
          "pitch": 41,
          "duration_ms": 174,
          "velocity": 70,
          "beat_index": 538,
          "section": "drop"
        },
        {
          "t": 52258,
          "type": "note",
          "pitch": 45,
          "duration_ms": 174,
          "velocity": 90,
          "beat_index": 540,
          "section": "drop"
        },
        {
          "t": 52451,
          "type": "note",
          "pitch": 43,
          "duration_ms": 174,
          "velocity": 70,
          "beat_index": 542,
          "section": "drop"
        },
        {
          "t": 52645,
          "type": "note",
          "pitch": 38,
          "duration_ms": 174,
          "velocity": 90,
          "beat_index": 544,
          "section": "drop"
        },
        {
          "t": 52838,
          "type": "note",
          "pitch": 41,
          "duration_ms": 174,
          "velocity": 70,
          "beat_index": 546,
          "section": "drop"
        },
        {
          "t": 53032,
          "type": "note",
          "pitch": 43,
          "duration_ms": 174,
          "velocity": 90,
          "beat_index": 548,
          "section": "drop"
        },
        {
          "t": 53225,
          "type": "note",
          "pitch": 45,
          "duration_ms": 174,
          "velocity": 70,
          "beat_index": 550,
          "section": "drop"
        },
        {
          "t": 53419,
          "type": "note",
          "pitch": 38,
          "duration_ms": 174,
          "velocity": 90,
          "beat_index": 552,
          "section": "drop"
        },
        {
          "t": 53612,
          "type": "note",
          "pitch": 41,
          "duration_ms": 174,
          "velocity": 70,
          "beat_index": 554,
          "section": "drop"
        },
        {
          "t": 53806,
          "type": "note",
          "pitch": 45,
          "duration_ms": 174,
          "velocity": 90,
          "beat_index": 556,
          "section": "drop"
        },
        {
          "t": 54000,
          "type": "note",
          "pitch": 43,
          "duration_ms": 174,
          "velocity": 70,
          "beat_index": 558,
          "section": "drop"
        },
        {
          "t": 54193,
          "type": "note",
          "pitch": 38,
          "duration_ms": 174,
          "velocity": 90,
          "beat_index": 560,
          "section": "drop"
        },
        {
          "t": 54387,
          "type": "note",
          "pitch": 41,
          "duration_ms": 174,
          "velocity": 70,
          "beat_index": 562,
          "section": "drop"
        },
        {
          "t": 54580,
          "type": "note",
          "pitch": 43,
          "duration_ms": 174,
          "velocity": 90,
          "beat_index": 564,
          "section": "drop"
        },
        {
          "t": 54774,
          "type": "note",
          "pitch": 45,
          "duration_ms": 174,
          "velocity": 70,
          "beat_index": 566,
          "section": "drop"
        },
        {
          "t": 54967,
          "type": "note",
          "pitch": 38,
          "duration_ms": 174,
          "velocity": 90,
          "beat_index": 568,
          "section": "drop"
        },
        {
          "t": 55161,
          "type": "note",
          "pitch": 41,
          "duration_ms": 174,
          "velocity": 70,
          "beat_index": 570,
          "section": "drop"
        },
        {
          "t": 55354,
          "type": "note",
          "pitch": 45,
          "duration_ms": 174,
          "velocity": 90,
          "beat_index": 572,
          "section": "drop"
        },
        {
          "t": 55548,
          "type": "note",
          "pitch": 43,
          "duration_ms": 174,
          "velocity": 70,
          "beat_index": 574,
          "section": "drop"
        },
        {
          "t": 55741,
          "type": "note",
          "pitch": 38,
          "duration_ms": 174,
          "velocity": 90,
          "beat_index": 576,
          "section": "drop"
        },
        {
          "t": 55935,
          "type": "note",
          "pitch": 41,
          "duration_ms": 174,
          "velocity": 70,
          "beat_index": 578,
          "section": "drop"
        },
        {
          "t": 56129,
          "type": "note",
          "pitch": 43,
          "duration_ms": 174,
          "velocity": 90,
          "beat_index": 580,
          "section": "drop"
        },
        {
          "t": 56322,
          "type": "note",
          "pitch": 45,
          "duration_ms": 174,
          "velocity": 70,
          "beat_index": 582,
          "section": "drop"
        },
        {
          "t": 56516,
          "type": "note",
          "pitch": 38,
          "duration_ms": 174,
          "velocity": 90,
          "beat_index": 584,
          "section": "drop"
        },
        {
          "t": 56709,
          "type": "note",
          "pitch": 41,
          "duration_ms": 174,
          "velocity": 70,
          "beat_index": 586,
          "section": "drop"
        },
        {
          "t": 56903,
          "type": "note",
          "pitch": 45,
          "duration_ms": 174,
          "velocity": 90,
          "beat_index": 588,
          "section": "drop"
        },
        {
          "t": 57096,
          "type": "note",
          "pitch": 43,
          "duration_ms": 174,
          "velocity": 70,
          "beat_index": 590,
          "section": "drop"
        },
        {
          "t": 57290,
          "type": "note",
          "pitch": 38,
          "duration_ms": 174,
          "velocity": 90,
          "beat_index": 592,
          "section": "drop"
        },
        {
          "t": 57483,
          "type": "note",
          "pitch": 41,
          "duration_ms": 174,
          "velocity": 70,
          "beat_index": 594,
          "section": "drop"
        },
        {
          "t": 57677,
          "type": "note",
          "pitch": 43,
          "duration_ms": 174,
          "velocity": 90,
          "beat_index": 596,
          "section": "drop"
        },
        {
          "t": 57870,
          "type": "note",
          "pitch": 45,
          "duration_ms": 174,
          "velocity": 70,
          "beat_index": 598,
          "section": "drop"
        },
        {
          "t": 58064,
          "type": "note",
          "pitch": 38,
          "duration_ms": 174,
          "velocity": 90,
          "beat_index": 600,
          "section": "drop"
        },
        {
          "t": 58258,
          "type": "note",
          "pitch": 41,
          "duration_ms": 174,
          "velocity": 70,
          "beat_index": 602,
          "section": "drop"
        },
        {
          "t": 58451,
          "type": "note",
          "pitch": 45,
          "duration_ms": 174,
          "velocity": 90,
          "beat_index": 604,
          "section": "drop"
        },
        {
          "t": 58645,
          "type": "note",
          "pitch": 43,
          "duration_ms": 174,
          "velocity": 70,
          "beat_index": 606,
          "section": "drop"
        },
        {
          "t": 58838,
          "type": "note",
          "pitch": 38,
          "duration_ms": 174,
          "velocity": 90,
          "beat_index": 608,
          "section": "drop"
        },
        {
          "t": 59032,
          "type": "note",
          "pitch": 41,
          "duration_ms": 174,
          "velocity": 70,
          "beat_index": 610,
          "section": "drop"
        },
        {
          "t": 59225,
          "type": "note",
          "pitch": 43,
          "duration_ms": 174,
          "velocity": 90,
          "beat_index": 612,
          "section": "drop"
        },
        {
          "t": 59419,
          "type": "note",
          "pitch": 45,
          "duration_ms": 174,
          "velocity": 70,
          "beat_index": 614,
          "section": "drop"
        },
        {
          "t": 59612,
          "type": "note",
          "pitch": 38,
          "duration_ms": 174,
          "velocity": 90,
          "beat_index": 616,
          "section": "drop"
        },
        {
          "t": 59806,
          "type": "note",
          "pitch": 41,
          "duration_ms": 174,
          "velocity": 70,
          "beat_index": 618,
          "section": "drop"
        },
        {
          "t": 60000,
          "type": "note",
          "pitch": 45,
          "duration_ms": 174,
          "velocity": 90,
          "beat_index": 620,
          "section": "drop"
        },
        {
          "t": 60193,
          "type": "note",
          "pitch": 43,
          "duration_ms": 174,
          "velocity": 70,
          "beat_index": 622,
          "section": "drop"
        },
        {
          "t": 60387,
          "type": "note",
          "pitch": 38,
          "duration_ms": 174,
          "velocity": 90,
          "beat_index": 624,
          "section": "drop"
        },
        {
          "t": 60580,
          "type": "note",
          "pitch": 41,
          "duration_ms": 174,
          "velocity": 70,
          "beat_index": 626,
          "section": "drop"
        },
        {
          "t": 60774,
          "type": "note",
          "pitch": 43,
          "duration_ms": 174,
          "velocity": 90,
          "beat_index": 628,
          "section": "drop"
        },
        {
          "t": 60967,
          "type": "note",
          "pitch": 45,
          "duration_ms": 174,
          "velocity": 70,
          "beat_index": 630,
          "section": "drop"
        },
        {
          "t": 61161,
          "type": "note",
          "pitch": 38,
          "duration_ms": 174,
          "velocity": 90,
          "beat_index": 632,
          "section": "drop"
        },
        {
          "t": 61354,
          "type": "note",
          "pitch": 41,
          "duration_ms": 174,
          "velocity": 70,
          "beat_index": 634,
          "section": "drop"
        },
        {
          "t": 61548,
          "type": "note",
          "pitch": 45,
          "duration_ms": 174,
          "velocity": 90,
          "beat_index": 636,
          "section": "drop"
        },
        {
          "t": 61741,
          "type": "note",
          "pitch": 43,
          "duration_ms": 174,
          "velocity": 70,
          "beat_index": 638,
          "section": "drop"
        },
        {
          "t": 61935,
          "type": "note",
          "pitch": 38,
          "duration_ms": 174,
          "velocity": 90,
          "beat_index": 640,
          "section": "drop"
        },
        {
          "t": 62129,
          "type": "note",
          "pitch": 41,
          "duration_ms": 174,
          "velocity": 70,
          "beat_index": 642,
          "section": "drop"
        },
        {
          "t": 62322,
          "type": "note",
          "pitch": 43,
          "duration_ms": 174,
          "velocity": 90,
          "beat_index": 644,
          "section": "drop"
        },
        {
          "t": 62516,
          "type": "note",
          "pitch": 45,
          "duration_ms": 174,
          "velocity": 70,
          "beat_index": 646,
          "section": "drop"
        },
        {
          "t": 62709,
          "type": "note",
          "pitch": 38,
          "duration_ms": 174,
          "velocity": 90,
          "beat_index": 648,
          "section": "drop"
        },
        {
          "t": 62903,
          "type": "note",
          "pitch": 41,
          "duration_ms": 174,
          "velocity": 70,
          "beat_index": 650,
          "section": "drop"
        },
        {
          "t": 63096,
          "type": "note",
          "pitch": 45,
          "duration_ms": 174,
          "velocity": 90,
          "beat_index": 652,
          "section": "drop"
        },
        {
          "t": 63290,
          "type": "note",
          "pitch": 43,
          "duration_ms": 174,
          "velocity": 70,
          "beat_index": 654,
          "section": "drop"
        },
        {
          "t": 63483,
          "type": "note",
          "pitch": 38,
          "duration_ms": 174,
          "velocity": 90,
          "beat_index": 656,
          "section": "drop"
        },
        {
          "t": 63677,
          "type": "note",
          "pitch": 41,
          "duration_ms": 174,
          "velocity": 70,
          "beat_index": 658,
          "section": "drop"
        },
        {
          "t": 63870,
          "type": "note",
          "pitch": 43,
          "duration_ms": 174,
          "velocity": 90,
          "beat_index": 660,
          "section": "drop"
        },
        {
          "t": 64064,
          "type": "note",
          "pitch": 45,
          "duration_ms": 174,
          "velocity": 70,
          "beat_index": 662,
          "section": "drop"
        },
        {
          "t": 64258,
          "type": "note",
          "pitch": 38,
          "duration_ms": 174,
          "velocity": 90,
          "beat_index": 664,
          "section": "drop"
        },
        {
          "t": 64451,
          "type": "note",
          "pitch": 41,
          "duration_ms": 174,
          "velocity": 70,
          "beat_index": 666,
          "section": "drop"
        },
        {
          "t": 64645,
          "type": "note",
          "pitch": 45,
          "duration_ms": 174,
          "velocity": 90,
          "beat_index": 668,
          "section": "drop"
        },
        {
          "t": 64838,
          "type": "note",
          "pitch": 43,
          "duration_ms": 174,
          "velocity": 70,
          "beat_index": 670,
          "section": "drop"
        },
        {
          "t": 65032,
          "type": "note",
          "pitch": 38,
          "duration_ms": 174,
          "velocity": 90,
          "beat_index": 672,
          "section": "drop"
        },
        {
          "t": 65225,
          "type": "note",
          "pitch": 41,
          "duration_ms": 174,
          "velocity": 70,
          "beat_index": 674,
          "section": "drop"
        },
        {
          "t": 65419,
          "type": "note",
          "pitch": 43,
          "duration_ms": 174,
          "velocity": 90,
          "beat_index": 676,
          "section": "drop"
        },
        {
          "t": 65612,
          "type": "note",
          "pitch": 45,
          "duration_ms": 174,
          "velocity": 70,
          "beat_index": 678,
          "section": "drop"
        },
        {
          "t": 65806,
          "type": "note",
          "pitch": 38,
          "duration_ms": 174,
          "velocity": 90,
          "beat_index": 680,
          "section": "drop"
        },
        {
          "t": 66000,
          "type": "note",
          "pitch": 41,
          "duration_ms": 174,
          "velocity": 70,
          "beat_index": 682,
          "section": "drop"
        },
        {
          "t": 66193,
          "type": "note",
          "pitch": 45,
          "duration_ms": 174,
          "velocity": 90,
          "beat_index": 684,
          "section": "drop"
        },
        {
          "t": 66387,
          "type": "note",
          "pitch": 43,
          "duration_ms": 174,
          "velocity": 70,
          "beat_index": 686,
          "section": "drop"
        },
        {
          "t": 66580,
          "type": "note",
          "pitch": 38,
          "duration_ms": 174,
          "velocity": 90,
          "beat_index": 688,
          "section": "drop"
        },
        {
          "t": 66774,
          "type": "note",
          "pitch": 41,
          "duration_ms": 174,
          "velocity": 70,
          "beat_index": 690,
          "section": "drop"
        },
        {
          "t": 66967,
          "type": "note",
          "pitch": 43,
          "duration_ms": 174,
          "velocity": 90,
          "beat_index": 692,
          "section": "drop"
        },
        {
          "t": 67161,
          "type": "note",
          "pitch": 45,
          "duration_ms": 174,
          "velocity": 70,
          "beat_index": 694,
          "section": "drop"
        },
        {
          "t": 67354,
          "type": "note",
          "pitch": 38,
          "duration_ms": 174,
          "velocity": 90,
          "beat_index": 696,
          "section": "drop"
        },
        {
          "t": 67548,
          "type": "note",
          "pitch": 41,
          "duration_ms": 174,
          "velocity": 70,
          "beat_index": 698,
          "section": "drop"
        },
        {
          "t": 67741,
          "type": "note",
          "pitch": 45,
          "duration_ms": 174,
          "velocity": 90,
          "beat_index": 700,
          "section": "drop"
        },
        {
          "t": 67935,
          "type": "note",
          "pitch": 43,
          "duration_ms": 174,
          "velocity": 70,
          "beat_index": 702,
          "section": "drop"
        },
        {
          "t": 68129,
          "type": "note",
          "pitch": 38,
          "duration_ms": 174,
          "velocity": 90,
          "beat_index": 704,
          "section": "drop"
        },
        {
          "t": 68322,
          "type": "note",
          "pitch": 41,
          "duration_ms": 174,
          "velocity": 70,
          "beat_index": 706,
          "section": "drop"
        },
        {
          "t": 68516,
          "type": "note",
          "pitch": 43,
          "duration_ms": 174,
          "velocity": 90,
          "beat_index": 708,
          "section": "drop"
        },
        {
          "t": 68709,
          "type": "note",
          "pitch": 45,
          "duration_ms": 174,
          "velocity": 70,
          "beat_index": 710,
          "section": "drop"
        },
        {
          "t": 68903,
          "type": "note",
          "pitch": 38,
          "duration_ms": 174,
          "velocity": 90,
          "beat_index": 712,
          "section": "drop"
        },
        {
          "t": 69096,
          "type": "note",
          "pitch": 41,
          "duration_ms": 174,
          "velocity": 70,
          "beat_index": 714,
          "section": "drop"
        },
        {
          "t": 69290,
          "type": "note",
          "pitch": 45,
          "duration_ms": 174,
          "velocity": 90,
          "beat_index": 716,
          "section": "drop"
        },
        {
          "t": 69483,
          "type": "note",
          "pitch": 43,
          "duration_ms": 174,
          "velocity": 70,
          "beat_index": 718,
          "section": "drop"
        },
        {
          "t": 69677,
          "type": "note",
          "pitch": 38,
          "duration_ms": 174,
          "velocity": 90,
          "beat_index": 720,
          "section": "drop"
        },
        {
          "t": 69870,
          "type": "note",
          "pitch": 41,
          "duration_ms": 174,
          "velocity": 70,
          "beat_index": 722,
          "section": "drop"
        },
        {
          "t": 70064,
          "type": "note",
          "pitch": 43,
          "duration_ms": 174,
          "velocity": 90,
          "beat_index": 724,
          "section": "drop"
        },
        {
          "t": 70258,
          "type": "note",
          "pitch": 45,
          "duration_ms": 174,
          "velocity": 70,
          "beat_index": 726,
          "section": "drop"
        },
        {
          "t": 70451,
          "type": "note",
          "pitch": 38,
          "duration_ms": 174,
          "velocity": 90,
          "beat_index": 728,
          "section": "drop"
        },
        {
          "t": 70645,
          "type": "note",
          "pitch": 41,
          "duration_ms": 174,
          "velocity": 70,
          "beat_index": 730,
          "section": "drop"
        },
        {
          "t": 70838,
          "type": "note",
          "pitch": 45,
          "duration_ms": 174,
          "velocity": 90,
          "beat_index": 732,
          "section": "drop"
        },
        {
          "t": 71032,
          "type": "note",
          "pitch": 43,
          "duration_ms": 174,
          "velocity": 70,
          "beat_index": 734,
          "section": "drop"
        },
        {
          "t": 71225,
          "type": "note",
          "pitch": 38,
          "duration_ms": 174,
          "velocity": 90,
          "beat_index": 736,
          "section": "drop"
        },
        {
          "t": 71419,
          "type": "note",
          "pitch": 41,
          "duration_ms": 174,
          "velocity": 70,
          "beat_index": 738,
          "section": "drop"
        },
        {
          "t": 71612,
          "type": "note",
          "pitch": 43,
          "duration_ms": 174,
          "velocity": 90,
          "beat_index": 740,
          "section": "drop"
        },
        {
          "t": 71806,
          "type": "note",
          "pitch": 45,
          "duration_ms": 174,
          "velocity": 70,
          "beat_index": 742,
          "section": "drop"
        },
        {
          "t": 72000,
          "type": "note",
          "pitch": 38,
          "duration_ms": 174,
          "velocity": 90,
          "beat_index": 744,
          "section": "drop"
        },
        {
          "t": 72193,
          "type": "note",
          "pitch": 41,
          "duration_ms": 174,
          "velocity": 70,
          "beat_index": 746,
          "section": "drop"
        },
        {
          "t": 72387,
          "type": "note",
          "pitch": 45,
          "duration_ms": 174,
          "velocity": 90,
          "beat_index": 748,
          "section": "drop"
        },
        {
          "t": 72580,
          "type": "note",
          "pitch": 43,
          "duration_ms": 174,
          "velocity": 70,
          "beat_index": 750,
          "section": "drop"
        },
        {
          "t": 72774,
          "type": "note",
          "pitch": 38,
          "duration_ms": 174,
          "velocity": 90,
          "beat_index": 752,
          "section": "drop"
        },
        {
          "t": 72967,
          "type": "note",
          "pitch": 41,
          "duration_ms": 174,
          "velocity": 70,
          "beat_index": 754,
          "section": "drop"
        },
        {
          "t": 73161,
          "type": "note",
          "pitch": 43,
          "duration_ms": 174,
          "velocity": 90,
          "beat_index": 756,
          "section": "drop"
        },
        {
          "t": 73354,
          "type": "note",
          "pitch": 45,
          "duration_ms": 174,
          "velocity": 70,
          "beat_index": 758,
          "section": "drop"
        },
        {
          "t": 73548,
          "type": "note",
          "pitch": 38,
          "duration_ms": 174,
          "velocity": 90,
          "beat_index": 760,
          "section": "drop"
        },
        {
          "t": 73741,
          "type": "note",
          "pitch": 41,
          "duration_ms": 174,
          "velocity": 70,
          "beat_index": 762,
          "section": "drop"
        },
        {
          "t": 73935,
          "type": "note",
          "pitch": 45,
          "duration_ms": 174,
          "velocity": 90,
          "beat_index": 764,
          "section": "drop"
        },
        {
          "t": 74129,
          "type": "note",
          "pitch": 43,
          "duration_ms": 174,
          "velocity": 70,
          "beat_index": 766,
          "section": "drop"
        },
        {
          "t": 74322,
          "type": "note",
          "pitch": 38,
          "duration_ms": 174,
          "velocity": 90,
          "beat_index": 768,
          "section": "drop"
        },
        {
          "t": 74516,
          "type": "note",
          "pitch": 41,
          "duration_ms": 174,
          "velocity": 70,
          "beat_index": 770,
          "section": "drop"
        },
        {
          "t": 74709,
          "type": "note",
          "pitch": 43,
          "duration_ms": 174,
          "velocity": 90,
          "beat_index": 772,
          "section": "drop"
        },
        {
          "t": 74903,
          "type": "note",
          "pitch": 45,
          "duration_ms": 174,
          "velocity": 70,
          "beat_index": 774,
          "section": "drop"
        },
        {
          "t": 75096,
          "type": "note",
          "pitch": 38,
          "duration_ms": 174,
          "velocity": 90,
          "beat_index": 776,
          "section": "drop"
        },
        {
          "t": 75290,
          "type": "note",
          "pitch": 41,
          "duration_ms": 174,
          "velocity": 70,
          "beat_index": 778,
          "section": "drop"
        },
        {
          "t": 75483,
          "type": "note",
          "pitch": 45,
          "duration_ms": 174,
          "velocity": 90,
          "beat_index": 780,
          "section": "drop"
        },
        {
          "t": 75677,
          "type": "note",
          "pitch": 43,
          "duration_ms": 174,
          "velocity": 70,
          "beat_index": 782,
          "section": "drop"
        },
        {
          "t": 75870,
          "type": "note",
          "pitch": 38,
          "duration_ms": 174,
          "velocity": 90,
          "beat_index": 784,
          "section": "drop"
        },
        {
          "t": 76064,
          "type": "note",
          "pitch": 41,
          "duration_ms": 174,
          "velocity": 70,
          "beat_index": 786,
          "section": "drop"
        },
        {
          "t": 76258,
          "type": "note",
          "pitch": 43,
          "duration_ms": 174,
          "velocity": 90,
          "beat_index": 788,
          "section": "drop"
        },
        {
          "t": 76451,
          "type": "note",
          "pitch": 45,
          "duration_ms": 174,
          "velocity": 70,
          "beat_index": 790,
          "section": "drop"
        },
        {
          "t": 76645,
          "type": "note",
          "pitch": 38,
          "duration_ms": 174,
          "velocity": 90,
          "beat_index": 792,
          "section": "drop"
        },
        {
          "t": 76838,
          "type": "note",
          "pitch": 41,
          "duration_ms": 174,
          "velocity": 70,
          "beat_index": 794,
          "section": "drop"
        },
        {
          "t": 77032,
          "type": "note",
          "pitch": 45,
          "duration_ms": 174,
          "velocity": 90,
          "beat_index": 796,
          "section": "drop"
        },
        {
          "t": 77225,
          "type": "note",
          "pitch": 43,
          "duration_ms": 174,
          "velocity": 70,
          "beat_index": 798,
          "section": "drop"
        },
        {
          "t": 77419,
          "type": "note",
          "pitch": 38,
          "duration_ms": 174,
          "velocity": 90,
          "beat_index": 800,
          "section": "drop"
        },
        {
          "t": 77612,
          "type": "note",
          "pitch": 41,
          "duration_ms": 174,
          "velocity": 70,
          "beat_index": 802,
          "section": "drop"
        },
        {
          "t": 77806,
          "type": "note",
          "pitch": 43,
          "duration_ms": 174,
          "velocity": 90,
          "beat_index": 804,
          "section": "drop"
        },
        {
          "t": 78000,
          "type": "note",
          "pitch": 45,
          "duration_ms": 174,
          "velocity": 70,
          "beat_index": 806,
          "section": "drop"
        },
        {
          "t": 78193,
          "type": "note",
          "pitch": 38,
          "duration_ms": 174,
          "velocity": 90,
          "beat_index": 808,
          "section": "drop"
        },
        {
          "t": 78387,
          "type": "note",
          "pitch": 41,
          "duration_ms": 174,
          "velocity": 70,
          "beat_index": 810,
          "section": "drop"
        },
        {
          "t": 78580,
          "type": "note",
          "pitch": 45,
          "duration_ms": 174,
          "velocity": 90,
          "beat_index": 812,
          "section": "drop"
        },
        {
          "t": 78774,
          "type": "note",
          "pitch": 43,
          "duration_ms": 174,
          "velocity": 70,
          "beat_index": 814,
          "section": "drop"
        },
        {
          "t": 78967,
          "type": "note",
          "pitch": 38,
          "duration_ms": 174,
          "velocity": 90,
          "beat_index": 816,
          "section": "drop"
        },
        {
          "t": 79161,
          "type": "note",
          "pitch": 41,
          "duration_ms": 174,
          "velocity": 70,
          "beat_index": 818,
          "section": "drop"
        },
        {
          "t": 79354,
          "type": "note",
          "pitch": 43,
          "duration_ms": 174,
          "velocity": 90,
          "beat_index": 820,
          "section": "drop"
        },
        {
          "t": 79548,
          "type": "note",
          "pitch": 45,
          "duration_ms": 174,
          "velocity": 70,
          "beat_index": 822,
          "section": "drop"
        },
        {
          "t": 79741,
          "type": "note",
          "pitch": 38,
          "duration_ms": 174,
          "velocity": 90,
          "beat_index": 824,
          "section": "drop"
        },
        {
          "t": 79935,
          "type": "note",
          "pitch": 41,
          "duration_ms": 174,
          "velocity": 70,
          "beat_index": 826,
          "section": "drop"
        },
        {
          "t": 80129,
          "type": "note",
          "pitch": 45,
          "duration_ms": 174,
          "velocity": 90,
          "beat_index": 828,
          "section": "drop"
        },
        {
          "t": 80322,
          "type": "note",
          "pitch": 43,
          "duration_ms": 174,
          "velocity": 70,
          "beat_index": 830,
          "section": "drop"
        },
        {
          "t": 80516,
          "type": "note",
          "pitch": 38,
          "duration_ms": 174,
          "velocity": 90,
          "beat_index": 832,
          "section": "drop"
        },
        {
          "t": 80709,
          "type": "note",
          "pitch": 41,
          "duration_ms": 174,
          "velocity": 70,
          "beat_index": 834,
          "section": "drop"
        },
        {
          "t": 80903,
          "type": "note",
          "pitch": 43,
          "duration_ms": 174,
          "velocity": 90,
          "beat_index": 836,
          "section": "drop"
        },
        {
          "t": 81096,
          "type": "note",
          "pitch": 45,
          "duration_ms": 174,
          "velocity": 70,
          "beat_index": 838,
          "section": "drop"
        },
        {
          "t": 81290,
          "type": "note",
          "pitch": 38,
          "duration_ms": 174,
          "velocity": 90,
          "beat_index": 840,
          "section": "drop"
        },
        {
          "t": 81483,
          "type": "note",
          "pitch": 41,
          "duration_ms": 174,
          "velocity": 70,
          "beat_index": 842,
          "section": "drop"
        },
        {
          "t": 81677,
          "type": "note",
          "pitch": 45,
          "duration_ms": 174,
          "velocity": 90,
          "beat_index": 844,
          "section": "drop"
        },
        {
          "t": 81870,
          "type": "note",
          "pitch": 43,
          "duration_ms": 174,
          "velocity": 70,
          "beat_index": 846,
          "section": "drop"
        },
        {
          "t": 82064,
          "type": "note",
          "pitch": 38,
          "duration_ms": 174,
          "velocity": 90,
          "beat_index": 848,
          "section": "drop"
        },
        {
          "t": 82258,
          "type": "note",
          "pitch": 41,
          "duration_ms": 174,
          "velocity": 70,
          "beat_index": 850,
          "section": "drop"
        },
        {
          "t": 82451,
          "type": "note",
          "pitch": 43,
          "duration_ms": 174,
          "velocity": 90,
          "beat_index": 852,
          "section": "drop"
        },
        {
          "t": 82645,
          "type": "note",
          "pitch": 45,
          "duration_ms": 174,
          "velocity": 70,
          "beat_index": 854,
          "section": "drop"
        },
        {
          "t": 82838,
          "type": "note",
          "pitch": 38,
          "duration_ms": 174,
          "velocity": 90,
          "beat_index": 856,
          "section": "drop"
        },
        {
          "t": 83032,
          "type": "note",
          "pitch": 41,
          "duration_ms": 174,
          "velocity": 70,
          "beat_index": 858,
          "section": "drop"
        },
        {
          "t": 83225,
          "type": "note",
          "pitch": 45,
          "duration_ms": 174,
          "velocity": 90,
          "beat_index": 860,
          "section": "drop"
        },
        {
          "t": 83419,
          "type": "note",
          "pitch": 43,
          "duration_ms": 174,
          "velocity": 70,
          "beat_index": 862,
          "section": "drop"
        },
        {
          "t": 83612,
          "type": "note",
          "pitch": 38,
          "duration_ms": 174,
          "velocity": 90,
          "beat_index": 864,
          "section": "drop"
        },
        {
          "t": 83806,
          "type": "note",
          "pitch": 41,
          "duration_ms": 174,
          "velocity": 70,
          "beat_index": 866,
          "section": "drop"
        },
        {
          "t": 84000,
          "type": "note",
          "pitch": 43,
          "duration_ms": 174,
          "velocity": 90,
          "beat_index": 868,
          "section": "drop"
        },
        {
          "t": 84193,
          "type": "note",
          "pitch": 45,
          "duration_ms": 174,
          "velocity": 70,
          "beat_index": 870,
          "section": "drop"
        },
        {
          "t": 84387,
          "type": "note",
          "pitch": 38,
          "duration_ms": 174,
          "velocity": 90,
          "beat_index": 872,
          "section": "drop"
        },
        {
          "t": 84580,
          "type": "note",
          "pitch": 41,
          "duration_ms": 174,
          "velocity": 70,
          "beat_index": 874,
          "section": "drop"
        },
        {
          "t": 84774,
          "type": "note",
          "pitch": 45,
          "duration_ms": 174,
          "velocity": 90,
          "beat_index": 876,
          "section": "drop"
        },
        {
          "t": 84967,
          "type": "note",
          "pitch": 43,
          "duration_ms": 174,
          "velocity": 70,
          "beat_index": 878,
          "section": "drop"
        },
        {
          "t": 85161,
          "type": "note",
          "pitch": 38,
          "duration_ms": 174,
          "velocity": 90,
          "beat_index": 880,
          "section": "drop"
        },
        {
          "t": 85354,
          "type": "note",
          "pitch": 41,
          "duration_ms": 174,
          "velocity": 70,
          "beat_index": 882,
          "section": "drop"
        },
        {
          "t": 85548,
          "type": "note",
          "pitch": 43,
          "duration_ms": 174,
          "velocity": 90,
          "beat_index": 884,
          "section": "drop"
        },
        {
          "t": 85741,
          "type": "note",
          "pitch": 45,
          "duration_ms": 174,
          "velocity": 70,
          "beat_index": 886,
          "section": "drop"
        },
        {
          "t": 85935,
          "type": "note",
          "pitch": 38,
          "duration_ms": 174,
          "velocity": 90,
          "beat_index": 888,
          "section": "drop"
        },
        {
          "t": 86129,
          "type": "note",
          "pitch": 41,
          "duration_ms": 174,
          "velocity": 70,
          "beat_index": 890,
          "section": "drop"
        },
        {
          "t": 86322,
          "type": "note",
          "pitch": 45,
          "duration_ms": 174,
          "velocity": 90,
          "beat_index": 892,
          "section": "drop"
        },
        {
          "t": 86516,
          "type": "note",
          "pitch": 43,
          "duration_ms": 174,
          "velocity": 70,
          "beat_index": 894,
          "section": "drop"
        },
        {
          "t": 86709,
          "type": "note",
          "pitch": 38,
          "duration_ms": 174,
          "velocity": 90,
          "beat_index": 896,
          "section": "drop"
        },
        {
          "t": 86903,
          "type": "note",
          "pitch": 41,
          "duration_ms": 174,
          "velocity": 70,
          "beat_index": 898,
          "section": "drop"
        },
        {
          "t": 87096,
          "type": "note",
          "pitch": 43,
          "duration_ms": 174,
          "velocity": 90,
          "beat_index": 900,
          "section": "drop"
        },
        {
          "t": 87290,
          "type": "note",
          "pitch": 45,
          "duration_ms": 174,
          "velocity": 70,
          "beat_index": 902,
          "section": "drop"
        },
        {
          "t": 87483,
          "type": "note",
          "pitch": 38,
          "duration_ms": 174,
          "velocity": 90,
          "beat_index": 904,
          "section": "drop"
        },
        {
          "t": 87677,
          "type": "note",
          "pitch": 41,
          "duration_ms": 174,
          "velocity": 70,
          "beat_index": 906,
          "section": "drop"
        },
        {
          "t": 87870,
          "type": "note",
          "pitch": 45,
          "duration_ms": 174,
          "velocity": 90,
          "beat_index": 908,
          "section": "drop"
        },
        {
          "t": 88064,
          "type": "note",
          "pitch": 43,
          "duration_ms": 174,
          "velocity": 70,
          "beat_index": 910,
          "section": "drop"
        },
        {
          "t": 88258,
          "type": "note",
          "pitch": 38,
          "duration_ms": 174,
          "velocity": 90,
          "beat_index": 912,
          "section": "drop"
        },
        {
          "t": 88451,
          "type": "note",
          "pitch": 41,
          "duration_ms": 174,
          "velocity": 70,
          "beat_index": 914,
          "section": "drop"
        },
        {
          "t": 88645,
          "type": "note",
          "pitch": 43,
          "duration_ms": 174,
          "velocity": 90,
          "beat_index": 916,
          "section": "drop"
        },
        {
          "t": 88838,
          "type": "note",
          "pitch": 45,
          "duration_ms": 174,
          "velocity": 70,
          "beat_index": 918,
          "section": "drop"
        },
        {
          "t": 89032,
          "type": "note",
          "pitch": 38,
          "duration_ms": 174,
          "velocity": 90,
          "beat_index": 920,
          "section": "drop"
        },
        {
          "t": 89225,
          "type": "note",
          "pitch": 41,
          "duration_ms": 174,
          "velocity": 70,
          "beat_index": 922,
          "section": "drop"
        },
        {
          "t": 89419,
          "type": "note",
          "pitch": 45,
          "duration_ms": 174,
          "velocity": 90,
          "beat_index": 924,
          "section": "drop"
        },
        {
          "t": 89612,
          "type": "note",
          "pitch": 43,
          "duration_ms": 174,
          "velocity": 70,
          "beat_index": 926,
          "section": "drop"
        },
        {
          "t": 89806,
          "type": "note",
          "pitch": 38,
          "duration_ms": 174,
          "velocity": 90,
          "beat_index": 928,
          "section": "drop"
        },
        {
          "t": 90000,
          "type": "note",
          "pitch": 41,
          "duration_ms": 174,
          "velocity": 70,
          "beat_index": 930,
          "section": "drop"
        },
        {
          "t": 90193,
          "type": "note",
          "pitch": 43,
          "duration_ms": 174,
          "velocity": 90,
          "beat_index": 932,
          "section": "drop"
        },
        {
          "t": 90387,
          "type": "note",
          "pitch": 45,
          "duration_ms": 174,
          "velocity": 70,
          "beat_index": 934,
          "section": "drop"
        },
        {
          "t": 90580,
          "type": "note",
          "pitch": 38,
          "duration_ms": 174,
          "velocity": 90,
          "beat_index": 936,
          "section": "drop"
        },
        {
          "t": 90774,
          "type": "note",
          "pitch": 41,
          "duration_ms": 174,
          "velocity": 70,
          "beat_index": 938,
          "section": "drop"
        },
        {
          "t": 90967,
          "type": "note",
          "pitch": 45,
          "duration_ms": 174,
          "velocity": 90,
          "beat_index": 940,
          "section": "drop"
        },
        {
          "t": 91161,
          "type": "note",
          "pitch": 43,
          "duration_ms": 174,
          "velocity": 70,
          "beat_index": 942,
          "section": "drop"
        },
        {
          "t": 91354,
          "type": "note",
          "pitch": 38,
          "duration_ms": 174,
          "velocity": 90,
          "beat_index": 944,
          "section": "drop"
        },
        {
          "t": 91548,
          "type": "note",
          "pitch": 41,
          "duration_ms": 174,
          "velocity": 70,
          "beat_index": 946,
          "section": "drop"
        },
        {
          "t": 91741,
          "type": "note",
          "pitch": 43,
          "duration_ms": 174,
          "velocity": 90,
          "beat_index": 948,
          "section": "drop"
        },
        {
          "t": 91935,
          "type": "note",
          "pitch": 45,
          "duration_ms": 174,
          "velocity": 70,
          "beat_index": 950,
          "section": "drop"
        },
        {
          "t": 92129,
          "type": "note",
          "pitch": 38,
          "duration_ms": 174,
          "velocity": 90,
          "beat_index": 952,
          "section": "drop"
        },
        {
          "t": 92322,
          "type": "note",
          "pitch": 41,
          "duration_ms": 174,
          "velocity": 70,
          "beat_index": 954,
          "section": "drop"
        },
        {
          "t": 92516,
          "type": "note",
          "pitch": 45,
          "duration_ms": 174,
          "velocity": 90,
          "beat_index": 956,
          "section": "drop"
        },
        {
          "t": 92709,
          "type": "note",
          "pitch": 43,
          "duration_ms": 174,
          "velocity": 70,
          "beat_index": 958,
          "section": "drop"
        },
        {
          "t": 92903,
          "type": "note",
          "pitch": 38,
          "duration_ms": 174,
          "velocity": 90,
          "beat_index": 960,
          "section": "drop"
        },
        {
          "t": 93096,
          "type": "note",
          "pitch": 41,
          "duration_ms": 174,
          "velocity": 70,
          "beat_index": 962,
          "section": "drop"
        },
        {
          "t": 93290,
          "type": "note",
          "pitch": 43,
          "duration_ms": 174,
          "velocity": 90,
          "beat_index": 964,
          "section": "drop"
        },
        {
          "t": 93483,
          "type": "note",
          "pitch": 45,
          "duration_ms": 174,
          "velocity": 70,
          "beat_index": 966,
          "section": "drop"
        },
        {
          "t": 93677,
          "type": "note",
          "pitch": 38,
          "duration_ms": 174,
          "velocity": 90,
          "beat_index": 968,
          "section": "drop"
        },
        {
          "t": 93870,
          "type": "note",
          "pitch": 41,
          "duration_ms": 174,
          "velocity": 70,
          "beat_index": 970,
          "section": "drop"
        },
        {
          "t": 94064,
          "type": "note",
          "pitch": 45,
          "duration_ms": 174,
          "velocity": 90,
          "beat_index": 972,
          "section": "drop"
        },
        {
          "t": 94258,
          "type": "note",
          "pitch": 43,
          "duration_ms": 174,
          "velocity": 70,
          "beat_index": 974,
          "section": "drop"
        },
        {
          "t": 94451,
          "type": "note",
          "pitch": 38,
          "duration_ms": 174,
          "velocity": 90,
          "beat_index": 976,
          "section": "drop"
        },
        {
          "t": 94645,
          "type": "note",
          "pitch": 41,
          "duration_ms": 174,
          "velocity": 70,
          "beat_index": 978,
          "section": "drop"
        },
        {
          "t": 94838,
          "type": "note",
          "pitch": 43,
          "duration_ms": 174,
          "velocity": 90,
          "beat_index": 980,
          "section": "drop"
        },
        {
          "t": 95032,
          "type": "note",
          "pitch": 45,
          "duration_ms": 174,
          "velocity": 70,
          "beat_index": 982,
          "section": "drop"
        },
        {
          "t": 95225,
          "type": "note",
          "pitch": 38,
          "duration_ms": 174,
          "velocity": 90,
          "beat_index": 984,
          "section": "drop"
        },
        {
          "t": 95419,
          "type": "note",
          "pitch": 41,
          "duration_ms": 174,
          "velocity": 70,
          "beat_index": 986,
          "section": "drop"
        },
        {
          "t": 95612,
          "type": "note",
          "pitch": 45,
          "duration_ms": 174,
          "velocity": 90,
          "beat_index": 988,
          "section": "drop"
        },
        {
          "t": 95806,
          "type": "note",
          "pitch": 43,
          "duration_ms": 174,
          "velocity": 70,
          "beat_index": 990,
          "section": "drop"
        },
        {
          "t": 96000,
          "type": "note",
          "pitch": 38,
          "duration_ms": 174,
          "velocity": 90,
          "beat_index": 992,
          "section": "drop"
        },
        {
          "t": 96193,
          "type": "note",
          "pitch": 41,
          "duration_ms": 174,
          "velocity": 70,
          "beat_index": 994,
          "section": "drop"
        },
        {
          "t": 96387,
          "type": "note",
          "pitch": 43,
          "duration_ms": 174,
          "velocity": 90,
          "beat_index": 996,
          "section": "drop"
        },
        {
          "t": 96580,
          "type": "note",
          "pitch": 45,
          "duration_ms": 174,
          "velocity": 70,
          "beat_index": 998,
          "section": "drop"
        },
        {
          "t": 96774,
          "type": "note",
          "pitch": 38,
          "duration_ms": 174,
          "velocity": 90,
          "beat_index": 1000,
          "section": "drop"
        },
        {
          "t": 96967,
          "type": "note",
          "pitch": 41,
          "duration_ms": 174,
          "velocity": 70,
          "beat_index": 1002,
          "section": "drop"
        },
        {
          "t": 97161,
          "type": "note",
          "pitch": 45,
          "duration_ms": 174,
          "velocity": 90,
          "beat_index": 1004,
          "section": "drop"
        },
        {
          "t": 97354,
          "type": "note",
          "pitch": 43,
          "duration_ms": 174,
          "velocity": 70,
          "beat_index": 1006,
          "section": "drop"
        },
        {
          "t": 97548,
          "type": "note",
          "pitch": 38,
          "duration_ms": 174,
          "velocity": 90,
          "beat_index": 1008,
          "section": "drop"
        },
        {
          "t": 97741,
          "type": "note",
          "pitch": 41,
          "duration_ms": 174,
          "velocity": 70,
          "beat_index": 1010,
          "section": "drop"
        },
        {
          "t": 97935,
          "type": "note",
          "pitch": 43,
          "duration_ms": 174,
          "velocity": 90,
          "beat_index": 1012,
          "section": "drop"
        },
        {
          "t": 98129,
          "type": "note",
          "pitch": 45,
          "duration_ms": 174,
          "velocity": 70,
          "beat_index": 1014,
          "section": "drop"
        },
        {
          "t": 98322,
          "type": "note",
          "pitch": 38,
          "duration_ms": 174,
          "velocity": 90,
          "beat_index": 1016,
          "section": "drop"
        },
        {
          "t": 98516,
          "type": "note",
          "pitch": 41,
          "duration_ms": 174,
          "velocity": 70,
          "beat_index": 1018,
          "section": "drop"
        },
        {
          "t": 98709,
          "type": "note",
          "pitch": 45,
          "duration_ms": 174,
          "velocity": 90,
          "beat_index": 1020,
          "section": "drop"
        },
        {
          "t": 98903,
          "type": "note",
          "pitch": 43,
          "duration_ms": 174,
          "velocity": 70,
          "beat_index": 1022,
          "section": "drop"
        },
        {
          "t": 99096,
          "type": "note",
          "pitch": 38,
          "duration_ms": 174,
          "velocity": 90,
          "beat_index": 1024,
          "section": "bridge"
        },
        {
          "t": 99290,
          "type": "note",
          "pitch": 41,
          "duration_ms": 174,
          "velocity": 70,
          "beat_index": 1026,
          "section": "bridge"
        },
        {
          "t": 99483,
          "type": "note",
          "pitch": 43,
          "duration_ms": 174,
          "velocity": 90,
          "beat_index": 1028,
          "section": "bridge"
        },
        {
          "t": 99677,
          "type": "note",
          "pitch": 45,
          "duration_ms": 174,
          "velocity": 70,
          "beat_index": 1030,
          "section": "bridge"
        },
        {
          "t": 99870,
          "type": "note",
          "pitch": 38,
          "duration_ms": 174,
          "velocity": 90,
          "beat_index": 1032,
          "section": "bridge"
        },
        {
          "t": 100064,
          "type": "note",
          "pitch": 41,
          "duration_ms": 174,
          "velocity": 70,
          "beat_index": 1034,
          "section": "bridge"
        },
        {
          "t": 100258,
          "type": "note",
          "pitch": 45,
          "duration_ms": 174,
          "velocity": 90,
          "beat_index": 1036,
          "section": "bridge"
        },
        {
          "t": 100451,
          "type": "note",
          "pitch": 43,
          "duration_ms": 174,
          "velocity": 70,
          "beat_index": 1038,
          "section": "bridge"
        },
        {
          "t": 100645,
          "type": "note",
          "pitch": 38,
          "duration_ms": 174,
          "velocity": 90,
          "beat_index": 1040,
          "section": "bridge"
        },
        {
          "t": 100838,
          "type": "note",
          "pitch": 41,
          "duration_ms": 174,
          "velocity": 70,
          "beat_index": 1042,
          "section": "bridge"
        },
        {
          "t": 101032,
          "type": "note",
          "pitch": 43,
          "duration_ms": 174,
          "velocity": 90,
          "beat_index": 1044,
          "section": "bridge"
        },
        {
          "t": 101225,
          "type": "note",
          "pitch": 45,
          "duration_ms": 174,
          "velocity": 70,
          "beat_index": 1046,
          "section": "bridge"
        },
        {
          "t": 101419,
          "type": "note",
          "pitch": 38,
          "duration_ms": 174,
          "velocity": 90,
          "beat_index": 1048,
          "section": "bridge"
        },
        {
          "t": 101612,
          "type": "note",
          "pitch": 41,
          "duration_ms": 174,
          "velocity": 70,
          "beat_index": 1050,
          "section": "bridge"
        },
        {
          "t": 101806,
          "type": "note",
          "pitch": 45,
          "duration_ms": 174,
          "velocity": 90,
          "beat_index": 1052,
          "section": "bridge"
        },
        {
          "t": 102000,
          "type": "note",
          "pitch": 43,
          "duration_ms": 174,
          "velocity": 70,
          "beat_index": 1054,
          "section": "bridge"
        },
        {
          "t": 102193,
          "type": "note",
          "pitch": 38,
          "duration_ms": 174,
          "velocity": 90,
          "beat_index": 1056,
          "section": "bridge"
        },
        {
          "t": 102387,
          "type": "note",
          "pitch": 41,
          "duration_ms": 174,
          "velocity": 70,
          "beat_index": 1058,
          "section": "bridge"
        },
        {
          "t": 102580,
          "type": "note",
          "pitch": 43,
          "duration_ms": 174,
          "velocity": 90,
          "beat_index": 1060,
          "section": "bridge"
        },
        {
          "t": 102774,
          "type": "note",
          "pitch": 45,
          "duration_ms": 174,
          "velocity": 70,
          "beat_index": 1062,
          "section": "bridge"
        },
        {
          "t": 102967,
          "type": "note",
          "pitch": 38,
          "duration_ms": 174,
          "velocity": 90,
          "beat_index": 1064,
          "section": "bridge"
        },
        {
          "t": 103161,
          "type": "note",
          "pitch": 41,
          "duration_ms": 174,
          "velocity": 70,
          "beat_index": 1066,
          "section": "bridge"
        },
        {
          "t": 103354,
          "type": "note",
          "pitch": 45,
          "duration_ms": 174,
          "velocity": 90,
          "beat_index": 1068,
          "section": "bridge"
        },
        {
          "t": 103548,
          "type": "note",
          "pitch": 43,
          "duration_ms": 174,
          "velocity": 70,
          "beat_index": 1070,
          "section": "bridge"
        },
        {
          "t": 103741,
          "type": "note",
          "pitch": 38,
          "duration_ms": 174,
          "velocity": 90,
          "beat_index": 1072,
          "section": "bridge"
        },
        {
          "t": 103935,
          "type": "note",
          "pitch": 41,
          "duration_ms": 174,
          "velocity": 70,
          "beat_index": 1074,
          "section": "bridge"
        },
        {
          "t": 104129,
          "type": "note",
          "pitch": 43,
          "duration_ms": 174,
          "velocity": 90,
          "beat_index": 1076,
          "section": "bridge"
        },
        {
          "t": 104322,
          "type": "note",
          "pitch": 45,
          "duration_ms": 174,
          "velocity": 70,
          "beat_index": 1078,
          "section": "bridge"
        },
        {
          "t": 104516,
          "type": "note",
          "pitch": 38,
          "duration_ms": 174,
          "velocity": 90,
          "beat_index": 1080,
          "section": "bridge"
        },
        {
          "t": 104709,
          "type": "note",
          "pitch": 41,
          "duration_ms": 174,
          "velocity": 70,
          "beat_index": 1082,
          "section": "bridge"
        },
        {
          "t": 104903,
          "type": "note",
          "pitch": 45,
          "duration_ms": 174,
          "velocity": 90,
          "beat_index": 1084,
          "section": "bridge"
        },
        {
          "t": 105096,
          "type": "note",
          "pitch": 43,
          "duration_ms": 174,
          "velocity": 70,
          "beat_index": 1086,
          "section": "bridge"
        },
        {
          "t": 105290,
          "type": "note",
          "pitch": 38,
          "duration_ms": 174,
          "velocity": 90,
          "beat_index": 1088,
          "section": "bridge"
        },
        {
          "t": 105483,
          "type": "note",
          "pitch": 41,
          "duration_ms": 174,
          "velocity": 70,
          "beat_index": 1090,
          "section": "bridge"
        },
        {
          "t": 105677,
          "type": "note",
          "pitch": 43,
          "duration_ms": 174,
          "velocity": 90,
          "beat_index": 1092,
          "section": "bridge"
        },
        {
          "t": 105870,
          "type": "note",
          "pitch": 45,
          "duration_ms": 174,
          "velocity": 70,
          "beat_index": 1094,
          "section": "bridge"
        },
        {
          "t": 106064,
          "type": "note",
          "pitch": 38,
          "duration_ms": 174,
          "velocity": 90,
          "beat_index": 1096,
          "section": "bridge"
        },
        {
          "t": 106258,
          "type": "note",
          "pitch": 41,
          "duration_ms": 174,
          "velocity": 70,
          "beat_index": 1098,
          "section": "bridge"
        },
        {
          "t": 106451,
          "type": "note",
          "pitch": 45,
          "duration_ms": 174,
          "velocity": 90,
          "beat_index": 1100,
          "section": "bridge"
        },
        {
          "t": 106645,
          "type": "note",
          "pitch": 43,
          "duration_ms": 174,
          "velocity": 70,
          "beat_index": 1102,
          "section": "bridge"
        },
        {
          "t": 106838,
          "type": "note",
          "pitch": 38,
          "duration_ms": 174,
          "velocity": 90,
          "beat_index": 1104,
          "section": "bridge"
        },
        {
          "t": 107032,
          "type": "note",
          "pitch": 41,
          "duration_ms": 174,
          "velocity": 70,
          "beat_index": 1106,
          "section": "bridge"
        },
        {
          "t": 107225,
          "type": "note",
          "pitch": 43,
          "duration_ms": 174,
          "velocity": 90,
          "beat_index": 1108,
          "section": "bridge"
        },
        {
          "t": 107419,
          "type": "note",
          "pitch": 45,
          "duration_ms": 174,
          "velocity": 70,
          "beat_index": 1110,
          "section": "bridge"
        },
        {
          "t": 107612,
          "type": "note",
          "pitch": 38,
          "duration_ms": 174,
          "velocity": 90,
          "beat_index": 1112,
          "section": "bridge"
        },
        {
          "t": 107806,
          "type": "note",
          "pitch": 41,
          "duration_ms": 174,
          "velocity": 70,
          "beat_index": 1114,
          "section": "bridge"
        },
        {
          "t": 108000,
          "type": "note",
          "pitch": 45,
          "duration_ms": 174,
          "velocity": 90,
          "beat_index": 1116,
          "section": "bridge"
        },
        {
          "t": 108193,
          "type": "note",
          "pitch": 43,
          "duration_ms": 174,
          "velocity": 70,
          "beat_index": 1118,
          "section": "bridge"
        },
        {
          "t": 108387,
          "type": "note",
          "pitch": 38,
          "duration_ms": 174,
          "velocity": 90,
          "beat_index": 1120,
          "section": "bridge"
        },
        {
          "t": 108580,
          "type": "note",
          "pitch": 41,
          "duration_ms": 174,
          "velocity": 70,
          "beat_index": 1122,
          "section": "bridge"
        },
        {
          "t": 108774,
          "type": "note",
          "pitch": 43,
          "duration_ms": 174,
          "velocity": 90,
          "beat_index": 1124,
          "section": "bridge"
        },
        {
          "t": 108967,
          "type": "note",
          "pitch": 45,
          "duration_ms": 174,
          "velocity": 70,
          "beat_index": 1126,
          "section": "bridge"
        },
        {
          "t": 109161,
          "type": "note",
          "pitch": 38,
          "duration_ms": 174,
          "velocity": 90,
          "beat_index": 1128,
          "section": "bridge"
        },
        {
          "t": 109354,
          "type": "note",
          "pitch": 41,
          "duration_ms": 174,
          "velocity": 70,
          "beat_index": 1130,
          "section": "bridge"
        },
        {
          "t": 109548,
          "type": "note",
          "pitch": 45,
          "duration_ms": 174,
          "velocity": 90,
          "beat_index": 1132,
          "section": "bridge"
        },
        {
          "t": 109741,
          "type": "note",
          "pitch": 43,
          "duration_ms": 174,
          "velocity": 70,
          "beat_index": 1134,
          "section": "bridge"
        },
        {
          "t": 109935,
          "type": "note",
          "pitch": 38,
          "duration_ms": 174,
          "velocity": 90,
          "beat_index": 1136,
          "section": "bridge"
        },
        {
          "t": 110129,
          "type": "note",
          "pitch": 41,
          "duration_ms": 174,
          "velocity": 70,
          "beat_index": 1138,
          "section": "bridge"
        },
        {
          "t": 110322,
          "type": "note",
          "pitch": 43,
          "duration_ms": 174,
          "velocity": 90,
          "beat_index": 1140,
          "section": "bridge"
        },
        {
          "t": 110516,
          "type": "note",
          "pitch": 45,
          "duration_ms": 174,
          "velocity": 70,
          "beat_index": 1142,
          "section": "bridge"
        },
        {
          "t": 110709,
          "type": "note",
          "pitch": 38,
          "duration_ms": 174,
          "velocity": 90,
          "beat_index": 1144,
          "section": "bridge"
        },
        {
          "t": 110903,
          "type": "note",
          "pitch": 41,
          "duration_ms": 174,
          "velocity": 70,
          "beat_index": 1146,
          "section": "bridge"
        },
        {
          "t": 111096,
          "type": "note",
          "pitch": 45,
          "duration_ms": 174,
          "velocity": 90,
          "beat_index": 1148,
          "section": "bridge"
        },
        {
          "t": 111290,
          "type": "note",
          "pitch": 43,
          "duration_ms": 174,
          "velocity": 70,
          "beat_index": 1150,
          "section": "bridge"
        },
        {
          "t": 111483,
          "type": "note",
          "pitch": 38,
          "duration_ms": 174,
          "velocity": 90,
          "beat_index": 1152,
          "section": "bridge"
        },
        {
          "t": 111677,
          "type": "note",
          "pitch": 41,
          "duration_ms": 174,
          "velocity": 70,
          "beat_index": 1154,
          "section": "bridge"
        },
        {
          "t": 111870,
          "type": "note",
          "pitch": 43,
          "duration_ms": 174,
          "velocity": 90,
          "beat_index": 1156,
          "section": "bridge"
        },
        {
          "t": 112064,
          "type": "note",
          "pitch": 45,
          "duration_ms": 174,
          "velocity": 70,
          "beat_index": 1158,
          "section": "bridge"
        },
        {
          "t": 112258,
          "type": "note",
          "pitch": 38,
          "duration_ms": 174,
          "velocity": 90,
          "beat_index": 1160,
          "section": "bridge"
        },
        {
          "t": 112451,
          "type": "note",
          "pitch": 41,
          "duration_ms": 174,
          "velocity": 70,
          "beat_index": 1162,
          "section": "bridge"
        },
        {
          "t": 112645,
          "type": "note",
          "pitch": 45,
          "duration_ms": 174,
          "velocity": 90,
          "beat_index": 1164,
          "section": "bridge"
        },
        {
          "t": 112838,
          "type": "note",
          "pitch": 43,
          "duration_ms": 174,
          "velocity": 70,
          "beat_index": 1166,
          "section": "bridge"
        },
        {
          "t": 113032,
          "type": "note",
          "pitch": 38,
          "duration_ms": 174,
          "velocity": 90,
          "beat_index": 1168,
          "section": "bridge"
        },
        {
          "t": 113225,
          "type": "note",
          "pitch": 41,
          "duration_ms": 174,
          "velocity": 70,
          "beat_index": 1170,
          "section": "bridge"
        },
        {
          "t": 113419,
          "type": "note",
          "pitch": 43,
          "duration_ms": 174,
          "velocity": 90,
          "beat_index": 1172,
          "section": "bridge"
        },
        {
          "t": 113612,
          "type": "note",
          "pitch": 45,
          "duration_ms": 174,
          "velocity": 70,
          "beat_index": 1174,
          "section": "bridge"
        },
        {
          "t": 113806,
          "type": "note",
          "pitch": 38,
          "duration_ms": 174,
          "velocity": 90,
          "beat_index": 1176,
          "section": "bridge"
        },
        {
          "t": 114000,
          "type": "note",
          "pitch": 41,
          "duration_ms": 174,
          "velocity": 70,
          "beat_index": 1178,
          "section": "bridge"
        },
        {
          "t": 114193,
          "type": "note",
          "pitch": 45,
          "duration_ms": 174,
          "velocity": 90,
          "beat_index": 1180,
          "section": "bridge"
        },
        {
          "t": 114387,
          "type": "note",
          "pitch": 43,
          "duration_ms": 174,
          "velocity": 70,
          "beat_index": 1182,
          "section": "bridge"
        },
        {
          "t": 114580,
          "type": "note",
          "pitch": 38,
          "duration_ms": 174,
          "velocity": 90,
          "beat_index": 1184,
          "section": "bridge"
        },
        {
          "t": 114774,
          "type": "note",
          "pitch": 41,
          "duration_ms": 174,
          "velocity": 70,
          "beat_index": 1186,
          "section": "bridge"
        },
        {
          "t": 114967,
          "type": "note",
          "pitch": 43,
          "duration_ms": 174,
          "velocity": 90,
          "beat_index": 1188,
          "section": "bridge"
        },
        {
          "t": 115161,
          "type": "note",
          "pitch": 45,
          "duration_ms": 174,
          "velocity": 70,
          "beat_index": 1190,
          "section": "bridge"
        },
        {
          "t": 115354,
          "type": "note",
          "pitch": 38,
          "duration_ms": 174,
          "velocity": 90,
          "beat_index": 1192,
          "section": "bridge"
        },
        {
          "t": 115548,
          "type": "note",
          "pitch": 41,
          "duration_ms": 174,
          "velocity": 70,
          "beat_index": 1194,
          "section": "bridge"
        },
        {
          "t": 115741,
          "type": "note",
          "pitch": 45,
          "duration_ms": 174,
          "velocity": 90,
          "beat_index": 1196,
          "section": "bridge"
        },
        {
          "t": 115935,
          "type": "note",
          "pitch": 43,
          "duration_ms": 174,
          "velocity": 70,
          "beat_index": 1198,
          "section": "bridge"
        },
        {
          "t": 116129,
          "type": "note",
          "pitch": 38,
          "duration_ms": 174,
          "velocity": 90,
          "beat_index": 1200,
          "section": "bridge"
        },
        {
          "t": 116322,
          "type": "note",
          "pitch": 41,
          "duration_ms": 174,
          "velocity": 70,
          "beat_index": 1202,
          "section": "bridge"
        },
        {
          "t": 116516,
          "type": "note",
          "pitch": 43,
          "duration_ms": 174,
          "velocity": 90,
          "beat_index": 1204,
          "section": "bridge"
        },
        {
          "t": 116709,
          "type": "note",
          "pitch": 45,
          "duration_ms": 174,
          "velocity": 70,
          "beat_index": 1206,
          "section": "bridge"
        },
        {
          "t": 116903,
          "type": "note",
          "pitch": 38,
          "duration_ms": 174,
          "velocity": 90,
          "beat_index": 1208,
          "section": "bridge"
        },
        {
          "t": 117096,
          "type": "note",
          "pitch": 41,
          "duration_ms": 174,
          "velocity": 70,
          "beat_index": 1210,
          "section": "bridge"
        },
        {
          "t": 117290,
          "type": "note",
          "pitch": 45,
          "duration_ms": 174,
          "velocity": 90,
          "beat_index": 1212,
          "section": "bridge"
        },
        {
          "t": 117483,
          "type": "note",
          "pitch": 43,
          "duration_ms": 174,
          "velocity": 70,
          "beat_index": 1214,
          "section": "bridge"
        },
        {
          "t": 117677,
          "type": "note",
          "pitch": 38,
          "duration_ms": 174,
          "velocity": 90,
          "beat_index": 1216,
          "section": "bridge"
        },
        {
          "t": 117870,
          "type": "note",
          "pitch": 41,
          "duration_ms": 174,
          "velocity": 70,
          "beat_index": 1218,
          "section": "bridge"
        },
        {
          "t": 118064,
          "type": "note",
          "pitch": 43,
          "duration_ms": 174,
          "velocity": 90,
          "beat_index": 1220,
          "section": "bridge"
        },
        {
          "t": 118258,
          "type": "note",
          "pitch": 45,
          "duration_ms": 174,
          "velocity": 70,
          "beat_index": 1222,
          "section": "bridge"
        },
        {
          "t": 118451,
          "type": "note",
          "pitch": 38,
          "duration_ms": 174,
          "velocity": 90,
          "beat_index": 1224,
          "section": "bridge"
        },
        {
          "t": 118645,
          "type": "note",
          "pitch": 41,
          "duration_ms": 174,
          "velocity": 70,
          "beat_index": 1226,
          "section": "bridge"
        },
        {
          "t": 118838,
          "type": "note",
          "pitch": 45,
          "duration_ms": 174,
          "velocity": 90,
          "beat_index": 1228,
          "section": "bridge"
        },
        {
          "t": 119032,
          "type": "note",
          "pitch": 43,
          "duration_ms": 174,
          "velocity": 70,
          "beat_index": 1230,
          "section": "bridge"
        },
        {
          "t": 119225,
          "type": "note",
          "pitch": 38,
          "duration_ms": 174,
          "velocity": 90,
          "beat_index": 1232,
          "section": "bridge"
        },
        {
          "t": 119419,
          "type": "note",
          "pitch": 41,
          "duration_ms": 174,
          "velocity": 70,
          "beat_index": 1234,
          "section": "bridge"
        },
        {
          "t": 119612,
          "type": "note",
          "pitch": 43,
          "duration_ms": 174,
          "velocity": 90,
          "beat_index": 1236,
          "section": "bridge"
        },
        {
          "t": 119806,
          "type": "note",
          "pitch": 45,
          "duration_ms": 174,
          "velocity": 70,
          "beat_index": 1238,
          "section": "bridge"
        },
        {
          "t": 120000,
          "type": "note",
          "pitch": 38,
          "duration_ms": 174,
          "velocity": 90,
          "beat_index": 1240,
          "section": "bridge"
        },
        {
          "t": 120193,
          "type": "note",
          "pitch": 41,
          "duration_ms": 174,
          "velocity": 70,
          "beat_index": 1242,
          "section": "bridge"
        },
        {
          "t": 120387,
          "type": "note",
          "pitch": 45,
          "duration_ms": 174,
          "velocity": 90,
          "beat_index": 1244,
          "section": "bridge"
        },
        {
          "t": 120580,
          "type": "note",
          "pitch": 43,
          "duration_ms": 174,
          "velocity": 70,
          "beat_index": 1246,
          "section": "bridge"
        },
        {
          "t": 120774,
          "type": "note",
          "pitch": 38,
          "duration_ms": 174,
          "velocity": 90,
          "beat_index": 1248,
          "section": "bridge"
        },
        {
          "t": 120967,
          "type": "note",
          "pitch": 41,
          "duration_ms": 174,
          "velocity": 70,
          "beat_index": 1250,
          "section": "bridge"
        },
        {
          "t": 121161,
          "type": "note",
          "pitch": 43,
          "duration_ms": 174,
          "velocity": 90,
          "beat_index": 1252,
          "section": "bridge"
        },
        {
          "t": 121354,
          "type": "note",
          "pitch": 45,
          "duration_ms": 174,
          "velocity": 70,
          "beat_index": 1254,
          "section": "bridge"
        },
        {
          "t": 121548,
          "type": "note",
          "pitch": 38,
          "duration_ms": 174,
          "velocity": 90,
          "beat_index": 1256,
          "section": "bridge"
        },
        {
          "t": 121741,
          "type": "note",
          "pitch": 41,
          "duration_ms": 174,
          "velocity": 70,
          "beat_index": 1258,
          "section": "bridge"
        },
        {
          "t": 121935,
          "type": "note",
          "pitch": 45,
          "duration_ms": 174,
          "velocity": 90,
          "beat_index": 1260,
          "section": "bridge"
        },
        {
          "t": 122129,
          "type": "note",
          "pitch": 43,
          "duration_ms": 174,
          "velocity": 70,
          "beat_index": 1262,
          "section": "bridge"
        },
        {
          "t": 122322,
          "type": "note",
          "pitch": 38,
          "duration_ms": 174,
          "velocity": 90,
          "beat_index": 1264,
          "section": "bridge"
        },
        {
          "t": 122516,
          "type": "note",
          "pitch": 41,
          "duration_ms": 174,
          "velocity": 70,
          "beat_index": 1266,
          "section": "bridge"
        },
        {
          "t": 122709,
          "type": "note",
          "pitch": 43,
          "duration_ms": 174,
          "velocity": 90,
          "beat_index": 1268,
          "section": "bridge"
        },
        {
          "t": 122903,
          "type": "note",
          "pitch": 45,
          "duration_ms": 174,
          "velocity": 70,
          "beat_index": 1270,
          "section": "bridge"
        },
        {
          "t": 123096,
          "type": "note",
          "pitch": 38,
          "duration_ms": 174,
          "velocity": 90,
          "beat_index": 1272,
          "section": "bridge"
        },
        {
          "t": 123290,
          "type": "note",
          "pitch": 41,
          "duration_ms": 174,
          "velocity": 70,
          "beat_index": 1274,
          "section": "bridge"
        },
        {
          "t": 123483,
          "type": "note",
          "pitch": 45,
          "duration_ms": 174,
          "velocity": 90,
          "beat_index": 1276,
          "section": "bridge"
        },
        {
          "t": 123677,
          "type": "note",
          "pitch": 43,
          "duration_ms": 174,
          "velocity": 70,
          "beat_index": 1278,
          "section": "bridge"
        },
        {
          "t": 123870,
          "type": "note",
          "pitch": 38,
          "duration_ms": 174,
          "velocity": 90,
          "beat_index": 1280,
          "section": "outro"
        },
        {
          "t": 124064,
          "type": "note",
          "pitch": 41,
          "duration_ms": 174,
          "velocity": 70,
          "beat_index": 1282,
          "section": "outro"
        },
        {
          "t": 124258,
          "type": "note",
          "pitch": 43,
          "duration_ms": 174,
          "velocity": 90,
          "beat_index": 1284,
          "section": "outro"
        },
        {
          "t": 124451,
          "type": "note",
          "pitch": 45,
          "duration_ms": 174,
          "velocity": 70,
          "beat_index": 1286,
          "section": "outro"
        },
        {
          "t": 124645,
          "type": "note",
          "pitch": 38,
          "duration_ms": 174,
          "velocity": 90,
          "beat_index": 1288,
          "section": "outro"
        },
        {
          "t": 124838,
          "type": "note",
          "pitch": 41,
          "duration_ms": 174,
          "velocity": 70,
          "beat_index": 1290,
          "section": "outro"
        },
        {
          "t": 125032,
          "type": "note",
          "pitch": 45,
          "duration_ms": 174,
          "velocity": 90,
          "beat_index": 1292,
          "section": "outro"
        },
        {
          "t": 125225,
          "type": "note",
          "pitch": 43,
          "duration_ms": 174,
          "velocity": 70,
          "beat_index": 1294,
          "section": "outro"
        },
        {
          "t": 125419,
          "type": "note",
          "pitch": 38,
          "duration_ms": 174,
          "velocity": 90,
          "beat_index": 1296,
          "section": "outro"
        },
        {
          "t": 125612,
          "type": "note",
          "pitch": 41,
          "duration_ms": 174,
          "velocity": 70,
          "beat_index": 1298,
          "section": "outro"
        },
        {
          "t": 125806,
          "type": "note",
          "pitch": 43,
          "duration_ms": 174,
          "velocity": 90,
          "beat_index": 1300,
          "section": "outro"
        },
        {
          "t": 126000,
          "type": "note",
          "pitch": 45,
          "duration_ms": 174,
          "velocity": 70,
          "beat_index": 1302,
          "section": "outro"
        },
        {
          "t": 126193,
          "type": "note",
          "pitch": 38,
          "duration_ms": 174,
          "velocity": 90,
          "beat_index": 1304,
          "section": "outro"
        },
        {
          "t": 126387,
          "type": "note",
          "pitch": 41,
          "duration_ms": 174,
          "velocity": 70,
          "beat_index": 1306,
          "section": "outro"
        },
        {
          "t": 126580,
          "type": "note",
          "pitch": 45,
          "duration_ms": 174,
          "velocity": 90,
          "beat_index": 1308,
          "section": "outro"
        },
        {
          "t": 126774,
          "type": "note",
          "pitch": 43,
          "duration_ms": 174,
          "velocity": 70,
          "beat_index": 1310,
          "section": "outro"
        },
        {
          "t": 126967,
          "type": "note",
          "pitch": 38,
          "duration_ms": 174,
          "velocity": 90,
          "beat_index": 1312,
          "section": "outro"
        },
        {
          "t": 127161,
          "type": "note",
          "pitch": 41,
          "duration_ms": 174,
          "velocity": 70,
          "beat_index": 1314,
          "section": "outro"
        },
        {
          "t": 127354,
          "type": "note",
          "pitch": 43,
          "duration_ms": 174,
          "velocity": 90,
          "beat_index": 1316,
          "section": "outro"
        },
        {
          "t": 127548,
          "type": "note",
          "pitch": 45,
          "duration_ms": 174,
          "velocity": 70,
          "beat_index": 1318,
          "section": "outro"
        },
        {
          "t": 127741,
          "type": "note",
          "pitch": 38,
          "duration_ms": 174,
          "velocity": 90,
          "beat_index": 1320,
          "section": "outro"
        },
        {
          "t": 127935,
          "type": "note",
          "pitch": 41,
          "duration_ms": 174,
          "velocity": 70,
          "beat_index": 1322,
          "section": "outro"
        },
        {
          "t": 128129,
          "type": "note",
          "pitch": 45,
          "duration_ms": 174,
          "velocity": 90,
          "beat_index": 1324,
          "section": "outro"
        },
        {
          "t": 128322,
          "type": "note",
          "pitch": 43,
          "duration_ms": 174,
          "velocity": 70,
          "beat_index": 1326,
          "section": "outro"
        },
        {
          "t": 128516,
          "type": "note",
          "pitch": 38,
          "duration_ms": 174,
          "velocity": 90,
          "beat_index": 1328,
          "section": "outro"
        },
        {
          "t": 128709,
          "type": "note",
          "pitch": 41,
          "duration_ms": 174,
          "velocity": 70,
          "beat_index": 1330,
          "section": "outro"
        },
        {
          "t": 128903,
          "type": "note",
          "pitch": 43,
          "duration_ms": 174,
          "velocity": 90,
          "beat_index": 1332,
          "section": "outro"
        },
        {
          "t": 129096,
          "type": "note",
          "pitch": 45,
          "duration_ms": 174,
          "velocity": 70,
          "beat_index": 1334,
          "section": "outro"
        },
        {
          "t": 129290,
          "type": "note",
          "pitch": 38,
          "duration_ms": 174,
          "velocity": 90,
          "beat_index": 1336,
          "section": "outro"
        },
        {
          "t": 129483,
          "type": "note",
          "pitch": 41,
          "duration_ms": 174,
          "velocity": 70,
          "beat_index": 1338,
          "section": "outro"
        },
        {
          "t": 129677,
          "type": "note",
          "pitch": 45,
          "duration_ms": 174,
          "velocity": 90,
          "beat_index": 1340,
          "section": "outro"
        },
        {
          "t": 129870,
          "type": "note",
          "pitch": 43,
          "duration_ms": 174,
          "velocity": 70,
          "beat_index": 1342,
          "section": "outro"
        },
        {
          "t": 130064,
          "type": "note",
          "pitch": 38,
          "duration_ms": 174,
          "velocity": 90,
          "beat_index": 1344,
          "section": "outro"
        },
        {
          "t": 130258,
          "type": "note",
          "pitch": 41,
          "duration_ms": 174,
          "velocity": 70,
          "beat_index": 1346,
          "section": "outro"
        },
        {
          "t": 130451,
          "type": "note",
          "pitch": 43,
          "duration_ms": 174,
          "velocity": 90,
          "beat_index": 1348,
          "section": "outro"
        },
        {
          "t": 130645,
          "type": "note",
          "pitch": 45,
          "duration_ms": 174,
          "velocity": 70,
          "beat_index": 1350,
          "section": "outro"
        },
        {
          "t": 130838,
          "type": "note",
          "pitch": 38,
          "duration_ms": 174,
          "velocity": 90,
          "beat_index": 1352,
          "section": "outro"
        },
        {
          "t": 131032,
          "type": "note",
          "pitch": 41,
          "duration_ms": 174,
          "velocity": 70,
          "beat_index": 1354,
          "section": "outro"
        },
        {
          "t": 131225,
          "type": "note",
          "pitch": 45,
          "duration_ms": 174,
          "velocity": 90,
          "beat_index": 1356,
          "section": "outro"
        },
        {
          "t": 131419,
          "type": "note",
          "pitch": 43,
          "duration_ms": 174,
          "velocity": 70,
          "beat_index": 1358,
          "section": "outro"
        },
        {
          "t": 131612,
          "type": "note",
          "pitch": 38,
          "duration_ms": 174,
          "velocity": 90,
          "beat_index": 1360,
          "section": "outro"
        },
        {
          "t": 131806,
          "type": "note",
          "pitch": 41,
          "duration_ms": 174,
          "velocity": 70,
          "beat_index": 1362,
          "section": "outro"
        },
        {
          "t": 132000,
          "type": "note",
          "pitch": 43,
          "duration_ms": 174,
          "velocity": 90,
          "beat_index": 1364,
          "section": "outro"
        },
        {
          "t": 132193,
          "type": "note",
          "pitch": 45,
          "duration_ms": 174,
          "velocity": 70,
          "beat_index": 1366,
          "section": "outro"
        },
        {
          "t": 132387,
          "type": "note",
          "pitch": 38,
          "duration_ms": 174,
          "velocity": 90,
          "beat_index": 1368,
          "section": "outro"
        },
        {
          "t": 132580,
          "type": "note",
          "pitch": 41,
          "duration_ms": 174,
          "velocity": 70,
          "beat_index": 1370,
          "section": "outro"
        },
        {
          "t": 132774,
          "type": "note",
          "pitch": 45,
          "duration_ms": 174,
          "velocity": 90,
          "beat_index": 1372,
          "section": "outro"
        },
        {
          "t": 132967,
          "type": "note",
          "pitch": 43,
          "duration_ms": 174,
          "velocity": 70,
          "beat_index": 1374,
          "section": "outro"
        },
        {
          "t": 133161,
          "type": "note",
          "pitch": 38,
          "duration_ms": 174,
          "velocity": 90,
          "beat_index": 1376,
          "section": "outro"
        },
        {
          "t": 133354,
          "type": "note",
          "pitch": 41,
          "duration_ms": 174,
          "velocity": 70,
          "beat_index": 1378,
          "section": "outro"
        },
        {
          "t": 133548,
          "type": "note",
          "pitch": 43,
          "duration_ms": 174,
          "velocity": 90,
          "beat_index": 1380,
          "section": "outro"
        },
        {
          "t": 133741,
          "type": "note",
          "pitch": 45,
          "duration_ms": 174,
          "velocity": 70,
          "beat_index": 1382,
          "section": "outro"
        },
        {
          "t": 133935,
          "type": "note",
          "pitch": 38,
          "duration_ms": 174,
          "velocity": 90,
          "beat_index": 1384,
          "section": "outro"
        },
        {
          "t": 134129,
          "type": "note",
          "pitch": 41,
          "duration_ms": 174,
          "velocity": 70,
          "beat_index": 1386,
          "section": "outro"
        },
        {
          "t": 134322,
          "type": "note",
          "pitch": 45,
          "duration_ms": 174,
          "velocity": 90,
          "beat_index": 1388,
          "section": "outro"
        },
        {
          "t": 134516,
          "type": "note",
          "pitch": 43,
          "duration_ms": 174,
          "velocity": 70,
          "beat_index": 1390,
          "section": "outro"
        },
        {
          "t": 134709,
          "type": "note",
          "pitch": 38,
          "duration_ms": 174,
          "velocity": 90,
          "beat_index": 1392,
          "section": "outro"
        },
        {
          "t": 134903,
          "type": "note",
          "pitch": 41,
          "duration_ms": 174,
          "velocity": 70,
          "beat_index": 1394,
          "section": "outro"
        },
        {
          "t": 135096,
          "type": "note",
          "pitch": 43,
          "duration_ms": 174,
          "velocity": 90,
          "beat_index": 1396,
          "section": "outro"
        },
        {
          "t": 135290,
          "type": "note",
          "pitch": 45,
          "duration_ms": 174,
          "velocity": 70,
          "beat_index": 1398,
          "section": "outro"
        },
        {
          "t": 135483,
          "type": "note",
          "pitch": 38,
          "duration_ms": 174,
          "velocity": 90,
          "beat_index": 1400,
          "section": "outro"
        },
        {
          "t": 135677,
          "type": "note",
          "pitch": 41,
          "duration_ms": 174,
          "velocity": 70,
          "beat_index": 1402,
          "section": "outro"
        },
        {
          "t": 135870,
          "type": "note",
          "pitch": 45,
          "duration_ms": 174,
          "velocity": 90,
          "beat_index": 1404,
          "section": "outro"
        },
        {
          "t": 136064,
          "type": "note",
          "pitch": 43,
          "duration_ms": 174,
          "velocity": 70,
          "beat_index": 1406,
          "section": "outro"
        }
      ]
    },
    {
      "id": "melody",
      "instrument": "Lead Synth",
      "midi_channel": 0,
      "role": "lead",
      "event_count": 792,
      "events": [
        {
          "t": 0,
          "type": "note",
          "pitch": 62,
          "duration_ms": 356,
          "velocity": 80,
          "beat_index": 0,
          "section": "intro"
        },
        {
          "t": 387,
          "type": "note",
          "pitch": 67,
          "duration_ms": 356,
          "velocity": 85,
          "beat_index": 4,
          "section": "intro"
        },
        {
          "t": 774,
          "type": "note",
          "pitch": 69,
          "duration_ms": 356,
          "velocity": 90,
          "beat_index": 8,
          "section": "intro"
        },
        {
          "t": 1161,
          "type": "note",
          "pitch": 74,
          "duration_ms": 356,
          "velocity": 95,
          "beat_index": 12,
          "section": "intro"
        },
        {
          "t": 1548,
          "type": "note",
          "pitch": 62,
          "duration_ms": 356,
          "velocity": 80,
          "beat_index": 16,
          "section": "intro"
        },
        {
          "t": 1935,
          "type": "note",
          "pitch": 67,
          "duration_ms": 356,
          "velocity": 85,
          "beat_index": 20,
          "section": "intro"
        },
        {
          "t": 2322,
          "type": "note",
          "pitch": 69,
          "duration_ms": 356,
          "velocity": 90,
          "beat_index": 24,
          "section": "intro"
        },
        {
          "t": 2709,
          "type": "note",
          "pitch": 74,
          "duration_ms": 356,
          "velocity": 95,
          "beat_index": 28,
          "section": "intro"
        },
        {
          "t": 3096,
          "type": "note",
          "pitch": 62,
          "duration_ms": 356,
          "velocity": 80,
          "beat_index": 32,
          "section": "intro"
        },
        {
          "t": 3483,
          "type": "note",
          "pitch": 67,
          "duration_ms": 356,
          "velocity": 85,
          "beat_index": 36,
          "section": "intro"
        },
        {
          "t": 3870,
          "type": "note",
          "pitch": 69,
          "duration_ms": 356,
          "velocity": 90,
          "beat_index": 40,
          "section": "intro"
        },
        {
          "t": 4258,
          "type": "note",
          "pitch": 74,
          "duration_ms": 356,
          "velocity": 95,
          "beat_index": 44,
          "section": "intro"
        },
        {
          "t": 4645,
          "type": "note",
          "pitch": 62,
          "duration_ms": 356,
          "velocity": 80,
          "beat_index": 48,
          "section": "intro"
        },
        {
          "t": 5032,
          "type": "note",
          "pitch": 67,
          "duration_ms": 356,
          "velocity": 85,
          "beat_index": 52,
          "section": "intro"
        },
        {
          "t": 5419,
          "type": "note",
          "pitch": 69,
          "duration_ms": 356,
          "velocity": 90,
          "beat_index": 56,
          "section": "intro"
        },
        {
          "t": 5806,
          "type": "note",
          "pitch": 74,
          "duration_ms": 356,
          "velocity": 95,
          "beat_index": 60,
          "section": "intro"
        },
        {
          "t": 6193,
          "type": "note",
          "pitch": 62,
          "duration_ms": 356,
          "velocity": 80,
          "beat_index": 64,
          "section": "intro"
        },
        {
          "t": 6580,
          "type": "note",
          "pitch": 67,
          "duration_ms": 356,
          "velocity": 85,
          "beat_index": 68,
          "section": "intro"
        },
        {
          "t": 6967,
          "type": "note",
          "pitch": 69,
          "duration_ms": 356,
          "velocity": 90,
          "beat_index": 72,
          "section": "intro"
        },
        {
          "t": 7354,
          "type": "note",
          "pitch": 74,
          "duration_ms": 356,
          "velocity": 95,
          "beat_index": 76,
          "section": "intro"
        },
        {
          "t": 7741,
          "type": "note",
          "pitch": 62,
          "duration_ms": 356,
          "velocity": 80,
          "beat_index": 80,
          "section": "intro"
        },
        {
          "t": 8129,
          "type": "note",
          "pitch": 67,
          "duration_ms": 356,
          "velocity": 85,
          "beat_index": 84,
          "section": "intro"
        },
        {
          "t": 8516,
          "type": "note",
          "pitch": 69,
          "duration_ms": 356,
          "velocity": 90,
          "beat_index": 88,
          "section": "intro"
        },
        {
          "t": 8903,
          "type": "note",
          "pitch": 74,
          "duration_ms": 356,
          "velocity": 95,
          "beat_index": 92,
          "section": "intro"
        },
        {
          "t": 9290,
          "type": "note",
          "pitch": 62,
          "duration_ms": 356,
          "velocity": 80,
          "beat_index": 96,
          "section": "intro"
        },
        {
          "t": 9677,
          "type": "note",
          "pitch": 67,
          "duration_ms": 356,
          "velocity": 85,
          "beat_index": 100,
          "section": "intro"
        },
        {
          "t": 10064,
          "type": "note",
          "pitch": 69,
          "duration_ms": 356,
          "velocity": 90,
          "beat_index": 104,
          "section": "intro"
        },
        {
          "t": 10451,
          "type": "note",
          "pitch": 74,
          "duration_ms": 356,
          "velocity": 95,
          "beat_index": 108,
          "section": "intro"
        },
        {
          "t": 10838,
          "type": "note",
          "pitch": 62,
          "duration_ms": 356,
          "velocity": 80,
          "beat_index": 112,
          "section": "intro"
        },
        {
          "t": 11225,
          "type": "note",
          "pitch": 67,
          "duration_ms": 356,
          "velocity": 85,
          "beat_index": 116,
          "section": "intro"
        },
        {
          "t": 11612,
          "type": "note",
          "pitch": 69,
          "duration_ms": 356,
          "velocity": 90,
          "beat_index": 120,
          "section": "intro"
        },
        {
          "t": 12000,
          "type": "note",
          "pitch": 74,
          "duration_ms": 356,
          "velocity": 95,
          "beat_index": 124,
          "section": "intro"
        },
        {
          "t": 12387,
          "type": "note",
          "pitch": 62,
          "duration_ms": 178,
          "velocity": 100,
          "beat_index": 128,
          "section": "verse"
        },
        {
          "t": 12580,
          "type": "note",
          "pitch": 62,
          "duration_ms": 178,
          "velocity": 100,
          "beat_index": 130,
          "section": "verse"
        },
        {
          "t": 12774,
          "type": "note",
          "pitch": 65,
          "duration_ms": 178,
          "velocity": 105,
          "beat_index": 132,
          "section": "verse"
        },
        {
          "t": 12967,
          "type": "note",
          "pitch": 62,
          "duration_ms": 178,
          "velocity": 100,
          "beat_index": 134,
          "section": "verse"
        },
        {
          "t": 13161,
          "type": "note",
          "pitch": 67,
          "duration_ms": 178,
          "velocity": 110,
          "beat_index": 136,
          "section": "verse"
        },
        {
          "t": 13354,
          "type": "note",
          "pitch": 62,
          "duration_ms": 178,
          "velocity": 100,
          "beat_index": 138,
          "section": "verse"
        },
        {
          "t": 13548,
          "type": "note",
          "pitch": 69,
          "duration_ms": 178,
          "velocity": 115,
          "beat_index": 140,
          "section": "verse"
        },
        {
          "t": 13741,
          "type": "note",
          "pitch": 62,
          "duration_ms": 178,
          "velocity": 100,
          "beat_index": 142,
          "section": "verse"
        },
        {
          "t": 13935,
          "type": "note",
          "pitch": 62,
          "duration_ms": 178,
          "velocity": 100,
          "beat_index": 144,
          "section": "verse"
        },
        {
          "t": 14129,
          "type": "note",
          "pitch": 62,
          "duration_ms": 178,
          "velocity": 100,
          "beat_index": 146,
          "section": "verse"
        },
        {
          "t": 14322,
          "type": "note",
          "pitch": 65,
          "duration_ms": 178,
          "velocity": 105,
          "beat_index": 148,
          "section": "verse"
        },
        {
          "t": 14516,
          "type": "note",
          "pitch": 62,
          "duration_ms": 178,
          "velocity": 100,
          "beat_index": 150,
          "section": "verse"
        },
        {
          "t": 14709,
          "type": "note",
          "pitch": 67,
          "duration_ms": 178,
          "velocity": 110,
          "beat_index": 152,
          "section": "verse"
        },
        {
          "t": 14903,
          "type": "note",
          "pitch": 62,
          "duration_ms": 178,
          "velocity": 100,
          "beat_index": 154,
          "section": "verse"
        },
        {
          "t": 15096,
          "type": "note",
          "pitch": 69,
          "duration_ms": 178,
          "velocity": 115,
          "beat_index": 156,
          "section": "verse"
        },
        {
          "t": 15290,
          "type": "note",
          "pitch": 62,
          "duration_ms": 178,
          "velocity": 100,
          "beat_index": 158,
          "section": "verse"
        },
        {
          "t": 15483,
          "type": "note",
          "pitch": 62,
          "duration_ms": 178,
          "velocity": 100,
          "beat_index": 160,
          "section": "verse"
        },
        {
          "t": 15677,
          "type": "note",
          "pitch": 62,
          "duration_ms": 178,
          "velocity": 100,
          "beat_index": 162,
          "section": "verse"
        },
        {
          "t": 15870,
          "type": "note",
          "pitch": 65,
          "duration_ms": 178,
          "velocity": 105,
          "beat_index": 164,
          "section": "verse"
        },
        {
          "t": 16064,
          "type": "note",
          "pitch": 62,
          "duration_ms": 178,
          "velocity": 100,
          "beat_index": 166,
          "section": "verse"
        },
        {
          "t": 16258,
          "type": "note",
          "pitch": 67,
          "duration_ms": 178,
          "velocity": 110,
          "beat_index": 168,
          "section": "verse"
        },
        {
          "t": 16451,
          "type": "note",
          "pitch": 62,
          "duration_ms": 178,
          "velocity": 100,
          "beat_index": 170,
          "section": "verse"
        },
        {
          "t": 16645,
          "type": "note",
          "pitch": 69,
          "duration_ms": 178,
          "velocity": 115,
          "beat_index": 172,
          "section": "verse"
        },
        {
          "t": 16838,
          "type": "note",
          "pitch": 62,
          "duration_ms": 178,
          "velocity": 100,
          "beat_index": 174,
          "section": "verse"
        },
        {
          "t": 17032,
          "type": "note",
          "pitch": 62,
          "duration_ms": 178,
          "velocity": 100,
          "beat_index": 176,
          "section": "verse"
        },
        {
          "t": 17225,
          "type": "note",
          "pitch": 62,
          "duration_ms": 178,
          "velocity": 100,
          "beat_index": 178,
          "section": "verse"
        },
        {
          "t": 17419,
          "type": "note",
          "pitch": 65,
          "duration_ms": 178,
          "velocity": 105,
          "beat_index": 180,
          "section": "verse"
        },
        {
          "t": 17612,
          "type": "note",
          "pitch": 62,
          "duration_ms": 178,
          "velocity": 100,
          "beat_index": 182,
          "section": "verse"
        },
        {
          "t": 17806,
          "type": "note",
          "pitch": 67,
          "duration_ms": 178,
          "velocity": 110,
          "beat_index": 184,
          "section": "verse"
        },
        {
          "t": 18000,
          "type": "note",
          "pitch": 62,
          "duration_ms": 178,
          "velocity": 100,
          "beat_index": 186,
          "section": "verse"
        },
        {
          "t": 18193,
          "type": "note",
          "pitch": 69,
          "duration_ms": 178,
          "velocity": 115,
          "beat_index": 188,
          "section": "verse"
        },
        {
          "t": 18387,
          "type": "note",
          "pitch": 62,
          "duration_ms": 178,
          "velocity": 100,
          "beat_index": 190,
          "section": "verse"
        },
        {
          "t": 18580,
          "type": "note",
          "pitch": 62,
          "duration_ms": 178,
          "velocity": 100,
          "beat_index": 192,
          "section": "verse"
        },
        {
          "t": 18774,
          "type": "note",
          "pitch": 62,
          "duration_ms": 178,
          "velocity": 100,
          "beat_index": 194,
          "section": "verse"
        },
        {
          "t": 18967,
          "type": "note",
          "pitch": 65,
          "duration_ms": 178,
          "velocity": 105,
          "beat_index": 196,
          "section": "verse"
        },
        {
          "t": 19161,
          "type": "note",
          "pitch": 62,
          "duration_ms": 178,
          "velocity": 100,
          "beat_index": 198,
          "section": "verse"
        },
        {
          "t": 19354,
          "type": "note",
          "pitch": 67,
          "duration_ms": 178,
          "velocity": 110,
          "beat_index": 200,
          "section": "verse"
        },
        {
          "t": 19548,
          "type": "note",
          "pitch": 62,
          "duration_ms": 178,
          "velocity": 100,
          "beat_index": 202,
          "section": "verse"
        },
        {
          "t": 19741,
          "type": "note",
          "pitch": 69,
          "duration_ms": 178,
          "velocity": 115,
          "beat_index": 204,
          "section": "verse"
        },
        {
          "t": 19935,
          "type": "note",
          "pitch": 62,
          "duration_ms": 178,
          "velocity": 100,
          "beat_index": 206,
          "section": "verse"
        },
        {
          "t": 20129,
          "type": "note",
          "pitch": 62,
          "duration_ms": 178,
          "velocity": 100,
          "beat_index": 208,
          "section": "verse"
        },
        {
          "t": 20322,
          "type": "note",
          "pitch": 62,
          "duration_ms": 178,
          "velocity": 100,
          "beat_index": 210,
          "section": "verse"
        },
        {
          "t": 20516,
          "type": "note",
          "pitch": 65,
          "duration_ms": 178,
          "velocity": 105,
          "beat_index": 212,
          "section": "verse"
        },
        {
          "t": 20709,
          "type": "note",
          "pitch": 62,
          "duration_ms": 178,
          "velocity": 100,
          "beat_index": 214,
          "section": "verse"
        },
        {
          "t": 20903,
          "type": "note",
          "pitch": 67,
          "duration_ms": 178,
          "velocity": 110,
          "beat_index": 216,
          "section": "verse"
        },
        {
          "t": 21096,
          "type": "note",
          "pitch": 62,
          "duration_ms": 178,
          "velocity": 100,
          "beat_index": 218,
          "section": "verse"
        },
        {
          "t": 21290,
          "type": "note",
          "pitch": 69,
          "duration_ms": 178,
          "velocity": 115,
          "beat_index": 220,
          "section": "verse"
        },
        {
          "t": 21483,
          "type": "note",
          "pitch": 62,
          "duration_ms": 178,
          "velocity": 100,
          "beat_index": 222,
          "section": "verse"
        },
        {
          "t": 21677,
          "type": "note",
          "pitch": 62,
          "duration_ms": 178,
          "velocity": 100,
          "beat_index": 224,
          "section": "verse"
        },
        {
          "t": 21870,
          "type": "note",
          "pitch": 62,
          "duration_ms": 178,
          "velocity": 100,
          "beat_index": 226,
          "section": "verse"
        },
        {
          "t": 22064,
          "type": "note",
          "pitch": 65,
          "duration_ms": 178,
          "velocity": 105,
          "beat_index": 228,
          "section": "verse"
        },
        {
          "t": 22258,
          "type": "note",
          "pitch": 62,
          "duration_ms": 178,
          "velocity": 100,
          "beat_index": 230,
          "section": "verse"
        },
        {
          "t": 22451,
          "type": "note",
          "pitch": 67,
          "duration_ms": 178,
          "velocity": 110,
          "beat_index": 232,
          "section": "verse"
        },
        {
          "t": 22645,
          "type": "note",
          "pitch": 62,
          "duration_ms": 178,
          "velocity": 100,
          "beat_index": 234,
          "section": "verse"
        },
        {
          "t": 22838,
          "type": "note",
          "pitch": 69,
          "duration_ms": 178,
          "velocity": 115,
          "beat_index": 236,
          "section": "verse"
        },
        {
          "t": 23032,
          "type": "note",
          "pitch": 62,
          "duration_ms": 178,
          "velocity": 100,
          "beat_index": 238,
          "section": "verse"
        },
        {
          "t": 23225,
          "type": "note",
          "pitch": 62,
          "duration_ms": 178,
          "velocity": 100,
          "beat_index": 240,
          "section": "verse"
        },
        {
          "t": 23419,
          "type": "note",
          "pitch": 62,
          "duration_ms": 178,
          "velocity": 100,
          "beat_index": 242,
          "section": "verse"
        },
        {
          "t": 23612,
          "type": "note",
          "pitch": 65,
          "duration_ms": 178,
          "velocity": 105,
          "beat_index": 244,
          "section": "verse"
        },
        {
          "t": 23806,
          "type": "note",
          "pitch": 62,
          "duration_ms": 178,
          "velocity": 100,
          "beat_index": 246,
          "section": "verse"
        },
        {
          "t": 23999,
          "type": "note",
          "pitch": 67,
          "duration_ms": 178,
          "velocity": 110,
          "beat_index": 248,
          "section": "verse"
        },
        {
          "t": 24193,
          "type": "note",
          "pitch": 62,
          "duration_ms": 178,
          "velocity": 100,
          "beat_index": 250,
          "section": "verse"
        },
        {
          "t": 24387,
          "type": "note",
          "pitch": 69,
          "duration_ms": 178,
          "velocity": 115,
          "beat_index": 252,
          "section": "verse"
        },
        {
          "t": 24580,
          "type": "note",
          "pitch": 62,
          "duration_ms": 178,
          "velocity": 100,
          "beat_index": 254,
          "section": "verse"
        },
        {
          "t": 24774,
          "type": "note",
          "pitch": 62,
          "duration_ms": 178,
          "velocity": 100,
          "beat_index": 256,
          "section": "verse"
        },
        {
          "t": 24967,
          "type": "note",
          "pitch": 62,
          "duration_ms": 178,
          "velocity": 100,
          "beat_index": 258,
          "section": "verse"
        },
        {
          "t": 25161,
          "type": "note",
          "pitch": 65,
          "duration_ms": 178,
          "velocity": 105,
          "beat_index": 260,
          "section": "verse"
        },
        {
          "t": 25354,
          "type": "note",
          "pitch": 62,
          "duration_ms": 178,
          "velocity": 100,
          "beat_index": 262,
          "section": "verse"
        },
        {
          "t": 25548,
          "type": "note",
          "pitch": 67,
          "duration_ms": 178,
          "velocity": 110,
          "beat_index": 264,
          "section": "verse"
        },
        {
          "t": 25741,
          "type": "note",
          "pitch": 62,
          "duration_ms": 178,
          "velocity": 100,
          "beat_index": 266,
          "section": "verse"
        },
        {
          "t": 25935,
          "type": "note",
          "pitch": 69,
          "duration_ms": 178,
          "velocity": 115,
          "beat_index": 268,
          "section": "verse"
        },
        {
          "t": 26129,
          "type": "note",
          "pitch": 62,
          "duration_ms": 178,
          "velocity": 100,
          "beat_index": 270,
          "section": "verse"
        },
        {
          "t": 26322,
          "type": "note",
          "pitch": 62,
          "duration_ms": 178,
          "velocity": 100,
          "beat_index": 272,
          "section": "verse"
        },
        {
          "t": 26516,
          "type": "note",
          "pitch": 62,
          "duration_ms": 178,
          "velocity": 100,
          "beat_index": 274,
          "section": "verse"
        },
        {
          "t": 26709,
          "type": "note",
          "pitch": 65,
          "duration_ms": 178,
          "velocity": 105,
          "beat_index": 276,
          "section": "verse"
        },
        {
          "t": 26903,
          "type": "note",
          "pitch": 62,
          "duration_ms": 178,
          "velocity": 100,
          "beat_index": 278,
          "section": "verse"
        },
        {
          "t": 27096,
          "type": "note",
          "pitch": 67,
          "duration_ms": 178,
          "velocity": 110,
          "beat_index": 280,
          "section": "verse"
        },
        {
          "t": 27290,
          "type": "note",
          "pitch": 62,
          "duration_ms": 178,
          "velocity": 100,
          "beat_index": 282,
          "section": "verse"
        },
        {
          "t": 27483,
          "type": "note",
          "pitch": 69,
          "duration_ms": 178,
          "velocity": 115,
          "beat_index": 284,
          "section": "verse"
        },
        {
          "t": 27677,
          "type": "note",
          "pitch": 62,
          "duration_ms": 178,
          "velocity": 100,
          "beat_index": 286,
          "section": "verse"
        },
        {
          "t": 27870,
          "type": "note",
          "pitch": 62,
          "duration_ms": 178,
          "velocity": 100,
          "beat_index": 288,
          "section": "verse"
        },
        {
          "t": 28064,
          "type": "note",
          "pitch": 62,
          "duration_ms": 178,
          "velocity": 100,
          "beat_index": 290,
          "section": "verse"
        },
        {
          "t": 28258,
          "type": "note",
          "pitch": 65,
          "duration_ms": 178,
          "velocity": 105,
          "beat_index": 292,
          "section": "verse"
        },
        {
          "t": 28451,
          "type": "note",
          "pitch": 62,
          "duration_ms": 178,
          "velocity": 100,
          "beat_index": 294,
          "section": "verse"
        },
        {
          "t": 28645,
          "type": "note",
          "pitch": 67,
          "duration_ms": 178,
          "velocity": 110,
          "beat_index": 296,
          "section": "verse"
        },
        {
          "t": 28838,
          "type": "note",
          "pitch": 62,
          "duration_ms": 178,
          "velocity": 100,
          "beat_index": 298,
          "section": "verse"
        },
        {
          "t": 29032,
          "type": "note",
          "pitch": 69,
          "duration_ms": 178,
          "velocity": 115,
          "beat_index": 300,
          "section": "verse"
        },
        {
          "t": 29225,
          "type": "note",
          "pitch": 62,
          "duration_ms": 178,
          "velocity": 100,
          "beat_index": 302,
          "section": "verse"
        },
        {
          "t": 29419,
          "type": "note",
          "pitch": 62,
          "duration_ms": 178,
          "velocity": 100,
          "beat_index": 304,
          "section": "verse"
        },
        {
          "t": 29612,
          "type": "note",
          "pitch": 62,
          "duration_ms": 178,
          "velocity": 100,
          "beat_index": 306,
          "section": "verse"
        },
        {
          "t": 29806,
          "type": "note",
          "pitch": 65,
          "duration_ms": 178,
          "velocity": 105,
          "beat_index": 308,
          "section": "verse"
        },
        {
          "t": 29999,
          "type": "note",
          "pitch": 62,
          "duration_ms": 178,
          "velocity": 100,
          "beat_index": 310,
          "section": "verse"
        },
        {
          "t": 30193,
          "type": "note",
          "pitch": 67,
          "duration_ms": 178,
          "velocity": 110,
          "beat_index": 312,
          "section": "verse"
        },
        {
          "t": 30387,
          "type": "note",
          "pitch": 62,
          "duration_ms": 178,
          "velocity": 100,
          "beat_index": 314,
          "section": "verse"
        },
        {
          "t": 30580,
          "type": "note",
          "pitch": 69,
          "duration_ms": 178,
          "velocity": 115,
          "beat_index": 316,
          "section": "verse"
        },
        {
          "t": 30774,
          "type": "note",
          "pitch": 62,
          "duration_ms": 178,
          "velocity": 100,
          "beat_index": 318,
          "section": "verse"
        },
        {
          "t": 30967,
          "type": "note",
          "pitch": 62,
          "duration_ms": 178,
          "velocity": 100,
          "beat_index": 320,
          "section": "verse"
        },
        {
          "t": 31161,
          "type": "note",
          "pitch": 62,
          "duration_ms": 178,
          "velocity": 100,
          "beat_index": 322,
          "section": "verse"
        },
        {
          "t": 31354,
          "type": "note",
          "pitch": 65,
          "duration_ms": 178,
          "velocity": 105,
          "beat_index": 324,
          "section": "verse"
        },
        {
          "t": 31548,
          "type": "note",
          "pitch": 62,
          "duration_ms": 178,
          "velocity": 100,
          "beat_index": 326,
          "section": "verse"
        },
        {
          "t": 31741,
          "type": "note",
          "pitch": 67,
          "duration_ms": 178,
          "velocity": 110,
          "beat_index": 328,
          "section": "verse"
        },
        {
          "t": 31935,
          "type": "note",
          "pitch": 62,
          "duration_ms": 178,
          "velocity": 100,
          "beat_index": 330,
          "section": "verse"
        },
        {
          "t": 32129,
          "type": "note",
          "pitch": 69,
          "duration_ms": 178,
          "velocity": 115,
          "beat_index": 332,
          "section": "verse"
        },
        {
          "t": 32322,
          "type": "note",
          "pitch": 62,
          "duration_ms": 178,
          "velocity": 100,
          "beat_index": 334,
          "section": "verse"
        },
        {
          "t": 32516,
          "type": "note",
          "pitch": 62,
          "duration_ms": 178,
          "velocity": 100,
          "beat_index": 336,
          "section": "verse"
        },
        {
          "t": 32709,
          "type": "note",
          "pitch": 62,
          "duration_ms": 178,
          "velocity": 100,
          "beat_index": 338,
          "section": "verse"
        },
        {
          "t": 32903,
          "type": "note",
          "pitch": 65,
          "duration_ms": 178,
          "velocity": 105,
          "beat_index": 340,
          "section": "verse"
        },
        {
          "t": 33096,
          "type": "note",
          "pitch": 62,
          "duration_ms": 178,
          "velocity": 100,
          "beat_index": 342,
          "section": "verse"
        },
        {
          "t": 33290,
          "type": "note",
          "pitch": 67,
          "duration_ms": 178,
          "velocity": 110,
          "beat_index": 344,
          "section": "verse"
        },
        {
          "t": 33483,
          "type": "note",
          "pitch": 62,
          "duration_ms": 178,
          "velocity": 100,
          "beat_index": 346,
          "section": "verse"
        },
        {
          "t": 33677,
          "type": "note",
          "pitch": 69,
          "duration_ms": 178,
          "velocity": 115,
          "beat_index": 348,
          "section": "verse"
        },
        {
          "t": 33870,
          "type": "note",
          "pitch": 62,
          "duration_ms": 178,
          "velocity": 100,
          "beat_index": 350,
          "section": "verse"
        },
        {
          "t": 34064,
          "type": "note",
          "pitch": 62,
          "duration_ms": 178,
          "velocity": 100,
          "beat_index": 352,
          "section": "verse"
        },
        {
          "t": 34258,
          "type": "note",
          "pitch": 62,
          "duration_ms": 178,
          "velocity": 100,
          "beat_index": 354,
          "section": "verse"
        },
        {
          "t": 34451,
          "type": "note",
          "pitch": 65,
          "duration_ms": 178,
          "velocity": 105,
          "beat_index": 356,
          "section": "verse"
        },
        {
          "t": 34645,
          "type": "note",
          "pitch": 62,
          "duration_ms": 178,
          "velocity": 100,
          "beat_index": 358,
          "section": "verse"
        },
        {
          "t": 34838,
          "type": "note",
          "pitch": 67,
          "duration_ms": 178,
          "velocity": 110,
          "beat_index": 360,
          "section": "verse"
        },
        {
          "t": 35032,
          "type": "note",
          "pitch": 62,
          "duration_ms": 178,
          "velocity": 100,
          "beat_index": 362,
          "section": "verse"
        },
        {
          "t": 35225,
          "type": "note",
          "pitch": 69,
          "duration_ms": 178,
          "velocity": 115,
          "beat_index": 364,
          "section": "verse"
        },
        {
          "t": 35419,
          "type": "note",
          "pitch": 62,
          "duration_ms": 178,
          "velocity": 100,
          "beat_index": 366,
          "section": "verse"
        },
        {
          "t": 35612,
          "type": "note",
          "pitch": 62,
          "duration_ms": 178,
          "velocity": 100,
          "beat_index": 368,
          "section": "verse"
        },
        {
          "t": 35806,
          "type": "note",
          "pitch": 62,
          "duration_ms": 178,
          "velocity": 100,
          "beat_index": 370,
          "section": "verse"
        },
        {
          "t": 35999,
          "type": "note",
          "pitch": 65,
          "duration_ms": 178,
          "velocity": 105,
          "beat_index": 372,
          "section": "verse"
        },
        {
          "t": 36193,
          "type": "note",
          "pitch": 62,
          "duration_ms": 178,
          "velocity": 100,
          "beat_index": 374,
          "section": "verse"
        },
        {
          "t": 36387,
          "type": "note",
          "pitch": 67,
          "duration_ms": 178,
          "velocity": 110,
          "beat_index": 376,
          "section": "verse"
        },
        {
          "t": 36580,
          "type": "note",
          "pitch": 62,
          "duration_ms": 178,
          "velocity": 100,
          "beat_index": 378,
          "section": "verse"
        },
        {
          "t": 36774,
          "type": "note",
          "pitch": 69,
          "duration_ms": 178,
          "velocity": 115,
          "beat_index": 380,
          "section": "verse"
        },
        {
          "t": 36967,
          "type": "note",
          "pitch": 62,
          "duration_ms": 178,
          "velocity": 100,
          "beat_index": 382,
          "section": "verse"
        },
        {
          "t": 37161,
          "type": "note",
          "pitch": 62,
          "duration_ms": 178,
          "velocity": 110,
          "beat_index": 384,
          "section": "build-up"
        },
        {
          "t": 37354,
          "type": "note",
          "pitch": 64,
          "duration_ms": 178,
          "velocity": 110,
          "beat_index": 386,
          "section": "build-up"
        },
        {
          "t": 37548,
          "type": "note",
          "pitch": 65,
          "duration_ms": 178,
          "velocity": 115,
          "beat_index": 388,
          "section": "build-up"
        },
        {
          "t": 37741,
          "type": "note",
          "pitch": 67,
          "duration_ms": 178,
          "velocity": 115,
          "beat_index": 390,
          "section": "build-up"
        },
        {
          "t": 37935,
          "type": "note",
          "pitch": 69,
          "duration_ms": 178,
          "velocity": 120,
          "beat_index": 392,
          "section": "build-up"
        },
        {
          "t": 38129,
          "type": "note",
          "pitch": 70,
          "duration_ms": 178,
          "velocity": 120,
          "beat_index": 394,
          "section": "build-up"
        },
        {
          "t": 38322,
          "type": "note",
          "pitch": 72,
          "duration_ms": 178,
          "velocity": 125,
          "beat_index": 396,
          "section": "build-up"
        },
        {
          "t": 38516,
          "type": "note",
          "pitch": 74,
          "duration_ms": 178,
          "velocity": 127,
          "beat_index": 398,
          "section": "build-up"
        },
        {
          "t": 38709,
          "type": "note",
          "pitch": 62,
          "duration_ms": 178,
          "velocity": 110,
          "beat_index": 400,
          "section": "build-up"
        },
        {
          "t": 38903,
          "type": "note",
          "pitch": 64,
          "duration_ms": 178,
          "velocity": 110,
          "beat_index": 402,
          "section": "build-up"
        },
        {
          "t": 39096,
          "type": "note",
          "pitch": 65,
          "duration_ms": 178,
          "velocity": 115,
          "beat_index": 404,
          "section": "build-up"
        },
        {
          "t": 39290,
          "type": "note",
          "pitch": 67,
          "duration_ms": 178,
          "velocity": 115,
          "beat_index": 406,
          "section": "build-up"
        },
        {
          "t": 39483,
          "type": "note",
          "pitch": 69,
          "duration_ms": 178,
          "velocity": 120,
          "beat_index": 408,
          "section": "build-up"
        },
        {
          "t": 39677,
          "type": "note",
          "pitch": 70,
          "duration_ms": 178,
          "velocity": 120,
          "beat_index": 410,
          "section": "build-up"
        },
        {
          "t": 39870,
          "type": "note",
          "pitch": 72,
          "duration_ms": 178,
          "velocity": 125,
          "beat_index": 412,
          "section": "build-up"
        },
        {
          "t": 40064,
          "type": "note",
          "pitch": 74,
          "duration_ms": 178,
          "velocity": 127,
          "beat_index": 414,
          "section": "build-up"
        },
        {
          "t": 40258,
          "type": "note",
          "pitch": 62,
          "duration_ms": 178,
          "velocity": 110,
          "beat_index": 416,
          "section": "build-up"
        },
        {
          "t": 40451,
          "type": "note",
          "pitch": 64,
          "duration_ms": 178,
          "velocity": 110,
          "beat_index": 418,
          "section": "build-up"
        },
        {
          "t": 40645,
          "type": "note",
          "pitch": 65,
          "duration_ms": 178,
          "velocity": 115,
          "beat_index": 420,
          "section": "build-up"
        },
        {
          "t": 40838,
          "type": "note",
          "pitch": 67,
          "duration_ms": 178,
          "velocity": 115,
          "beat_index": 422,
          "section": "build-up"
        },
        {
          "t": 41032,
          "type": "note",
          "pitch": 69,
          "duration_ms": 178,
          "velocity": 120,
          "beat_index": 424,
          "section": "build-up"
        },
        {
          "t": 41225,
          "type": "note",
          "pitch": 70,
          "duration_ms": 178,
          "velocity": 120,
          "beat_index": 426,
          "section": "build-up"
        },
        {
          "t": 41419,
          "type": "note",
          "pitch": 72,
          "duration_ms": 178,
          "velocity": 125,
          "beat_index": 428,
          "section": "build-up"
        },
        {
          "t": 41612,
          "type": "note",
          "pitch": 74,
          "duration_ms": 178,
          "velocity": 127,
          "beat_index": 430,
          "section": "build-up"
        },
        {
          "t": 41806,
          "type": "note",
          "pitch": 62,
          "duration_ms": 178,
          "velocity": 110,
          "beat_index": 432,
          "section": "build-up"
        },
        {
          "t": 41999,
          "type": "note",
          "pitch": 64,
          "duration_ms": 178,
          "velocity": 110,
          "beat_index": 434,
          "section": "build-up"
        },
        {
          "t": 42193,
          "type": "note",
          "pitch": 65,
          "duration_ms": 178,
          "velocity": 115,
          "beat_index": 436,
          "section": "build-up"
        },
        {
          "t": 42387,
          "type": "note",
          "pitch": 67,
          "duration_ms": 178,
          "velocity": 115,
          "beat_index": 438,
          "section": "build-up"
        },
        {
          "t": 42580,
          "type": "note",
          "pitch": 69,
          "duration_ms": 178,
          "velocity": 120,
          "beat_index": 440,
          "section": "build-up"
        },
        {
          "t": 42774,
          "type": "note",
          "pitch": 70,
          "duration_ms": 178,
          "velocity": 120,
          "beat_index": 442,
          "section": "build-up"
        },
        {
          "t": 42967,
          "type": "note",
          "pitch": 72,
          "duration_ms": 178,
          "velocity": 125,
          "beat_index": 444,
          "section": "build-up"
        },
        {
          "t": 43161,
          "type": "note",
          "pitch": 74,
          "duration_ms": 178,
          "velocity": 127,
          "beat_index": 446,
          "section": "build-up"
        },
        {
          "t": 43354,
          "type": "note",
          "pitch": 62,
          "duration_ms": 178,
          "velocity": 110,
          "beat_index": 448,
          "section": "build-up"
        },
        {
          "t": 43548,
          "type": "note",
          "pitch": 64,
          "duration_ms": 178,
          "velocity": 110,
          "beat_index": 450,
          "section": "build-up"
        },
        {
          "t": 43741,
          "type": "note",
          "pitch": 65,
          "duration_ms": 178,
          "velocity": 115,
          "beat_index": 452,
          "section": "build-up"
        },
        {
          "t": 43935,
          "type": "note",
          "pitch": 67,
          "duration_ms": 178,
          "velocity": 115,
          "beat_index": 454,
          "section": "build-up"
        },
        {
          "t": 44129,
          "type": "note",
          "pitch": 69,
          "duration_ms": 178,
          "velocity": 120,
          "beat_index": 456,
          "section": "build-up"
        },
        {
          "t": 44322,
          "type": "note",
          "pitch": 70,
          "duration_ms": 178,
          "velocity": 120,
          "beat_index": 458,
          "section": "build-up"
        },
        {
          "t": 44516,
          "type": "note",
          "pitch": 72,
          "duration_ms": 178,
          "velocity": 125,
          "beat_index": 460,
          "section": "build-up"
        },
        {
          "t": 44709,
          "type": "note",
          "pitch": 74,
          "duration_ms": 178,
          "velocity": 127,
          "beat_index": 462,
          "section": "build-up"
        },
        {
          "t": 44903,
          "type": "note",
          "pitch": 62,
          "duration_ms": 178,
          "velocity": 110,
          "beat_index": 464,
          "section": "build-up"
        },
        {
          "t": 45096,
          "type": "note",
          "pitch": 64,
          "duration_ms": 178,
          "velocity": 110,
          "beat_index": 466,
          "section": "build-up"
        },
        {
          "t": 45290,
          "type": "note",
          "pitch": 65,
          "duration_ms": 178,
          "velocity": 115,
          "beat_index": 468,
          "section": "build-up"
        },
        {
          "t": 45483,
          "type": "note",
          "pitch": 67,
          "duration_ms": 178,
          "velocity": 115,
          "beat_index": 470,
          "section": "build-up"
        },
        {
          "t": 45677,
          "type": "note",
          "pitch": 69,
          "duration_ms": 178,
          "velocity": 120,
          "beat_index": 472,
          "section": "build-up"
        },
        {
          "t": 45870,
          "type": "note",
          "pitch": 70,
          "duration_ms": 178,
          "velocity": 120,
          "beat_index": 474,
          "section": "build-up"
        },
        {
          "t": 46064,
          "type": "note",
          "pitch": 72,
          "duration_ms": 178,
          "velocity": 125,
          "beat_index": 476,
          "section": "build-up"
        },
        {
          "t": 46258,
          "type": "note",
          "pitch": 74,
          "duration_ms": 178,
          "velocity": 127,
          "beat_index": 478,
          "section": "build-up"
        },
        {
          "t": 46451,
          "type": "note",
          "pitch": 62,
          "duration_ms": 178,
          "velocity": 110,
          "beat_index": 480,
          "section": "build-up"
        },
        {
          "t": 46645,
          "type": "note",
          "pitch": 64,
          "duration_ms": 178,
          "velocity": 110,
          "beat_index": 482,
          "section": "build-up"
        },
        {
          "t": 46838,
          "type": "note",
          "pitch": 65,
          "duration_ms": 178,
          "velocity": 115,
          "beat_index": 484,
          "section": "build-up"
        },
        {
          "t": 47032,
          "type": "note",
          "pitch": 67,
          "duration_ms": 178,
          "velocity": 115,
          "beat_index": 486,
          "section": "build-up"
        },
        {
          "t": 47225,
          "type": "note",
          "pitch": 69,
          "duration_ms": 178,
          "velocity": 120,
          "beat_index": 488,
          "section": "build-up"
        },
        {
          "t": 47419,
          "type": "note",
          "pitch": 70,
          "duration_ms": 178,
          "velocity": 120,
          "beat_index": 490,
          "section": "build-up"
        },
        {
          "t": 47612,
          "type": "note",
          "pitch": 72,
          "duration_ms": 178,
          "velocity": 125,
          "beat_index": 492,
          "section": "build-up"
        },
        {
          "t": 47806,
          "type": "note",
          "pitch": 74,
          "duration_ms": 178,
          "velocity": 127,
          "beat_index": 494,
          "section": "build-up"
        },
        {
          "t": 47999,
          "type": "note",
          "pitch": 62,
          "duration_ms": 178,
          "velocity": 110,
          "beat_index": 496,
          "section": "build-up"
        },
        {
          "t": 48193,
          "type": "note",
          "pitch": 64,
          "duration_ms": 178,
          "velocity": 110,
          "beat_index": 498,
          "section": "build-up"
        },
        {
          "t": 48387,
          "type": "note",
          "pitch": 65,
          "duration_ms": 178,
          "velocity": 115,
          "beat_index": 500,
          "section": "build-up"
        },
        {
          "t": 48580,
          "type": "note",
          "pitch": 67,
          "duration_ms": 178,
          "velocity": 115,
          "beat_index": 502,
          "section": "build-up"
        },
        {
          "t": 48774,
          "type": "note",
          "pitch": 69,
          "duration_ms": 178,
          "velocity": 120,
          "beat_index": 504,
          "section": "build-up"
        },
        {
          "t": 48967,
          "type": "note",
          "pitch": 70,
          "duration_ms": 178,
          "velocity": 120,
          "beat_index": 506,
          "section": "build-up"
        },
        {
          "t": 49161,
          "type": "note",
          "pitch": 72,
          "duration_ms": 178,
          "velocity": 125,
          "beat_index": 508,
          "section": "build-up"
        },
        {
          "t": 49354,
          "type": "note",
          "pitch": 74,
          "duration_ms": 178,
          "velocity": 127,
          "beat_index": 510,
          "section": "build-up"
        },
        {
          "t": 49548,
          "type": "note",
          "pitch": 62,
          "duration_ms": 89,
          "velocity": 127,
          "beat_index": 512,
          "section": "drop"
        },
        {
          "t": 49645,
          "type": "note",
          "pitch": 62,
          "duration_ms": 89,
          "velocity": 127,
          "beat_index": 513,
          "section": "drop"
        },
        {
          "t": 49741,
          "type": "note",
          "pitch": 69,
          "duration_ms": 89,
          "velocity": 120,
          "beat_index": 514,
          "section": "drop"
        },
        {
          "t": 49838,
          "type": "note",
          "pitch": 62,
          "duration_ms": 89,
          "velocity": 127,
          "beat_index": 515,
          "section": "drop"
        },
        {
          "t": 49935,
          "type": "note",
          "pitch": 67,
          "duration_ms": 89,
          "velocity": 125,
          "beat_index": 516,
          "section": "drop"
        },
        {
          "t": 50032,
          "type": "note",
          "pitch": 62,
          "duration_ms": 89,
          "velocity": 127,
          "beat_index": 517,
          "section": "drop"
        },
        {
          "t": 50129,
          "type": "note",
          "pitch": 65,
          "duration_ms": 89,
          "velocity": 120,
          "beat_index": 518,
          "section": "drop"
        },
        {
          "t": 50225,
          "type": "note",
          "pitch": 62,
          "duration_ms": 89,
          "velocity": 127,
          "beat_index": 519,
          "section": "drop"
        },
        {
          "t": 50322,
          "type": "note",
          "pitch": 62,
          "duration_ms": 89,
          "velocity": 127,
          "beat_index": 520,
          "section": "drop"
        },
        {
          "t": 50419,
          "type": "note",
          "pitch": 62,
          "duration_ms": 89,
          "velocity": 127,
          "beat_index": 521,
          "section": "drop"
        },
        {
          "t": 50516,
          "type": "note",
          "pitch": 70,
          "duration_ms": 89,
          "velocity": 125,
          "beat_index": 522,
          "section": "drop"
        },
        {
          "t": 50612,
          "type": "note",
          "pitch": 62,
          "duration_ms": 89,
          "velocity": 127,
          "beat_index": 523,
          "section": "drop"
        },
        {
          "t": 50709,
          "type": "note",
          "pitch": 69,
          "duration_ms": 89,
          "velocity": 120,
          "beat_index": 524,
          "section": "drop"
        },
        {
          "t": 50806,
          "type": "note",
          "pitch": 67,
          "duration_ms": 89,
          "velocity": 120,
          "beat_index": 525,
          "section": "drop"
        },
        {
          "t": 50903,
          "type": "note",
          "pitch": 65,
          "duration_ms": 89,
          "velocity": 115,
          "beat_index": 526,
          "section": "drop"
        },
        {
          "t": 50999,
          "type": "note",
          "pitch": 64,
          "duration_ms": 89,
          "velocity": 115,
          "beat_index": 527,
          "section": "drop"
        },
        {
          "t": 51096,
          "type": "note",
          "pitch": 62,
          "duration_ms": 89,
          "velocity": 127,
          "beat_index": 528,
          "section": "drop"
        },
        {
          "t": 51193,
          "type": "note",
          "pitch": 62,
          "duration_ms": 89,
          "velocity": 127,
          "beat_index": 529,
          "section": "drop"
        },
        {
          "t": 51290,
          "type": "note",
          "pitch": 69,
          "duration_ms": 89,
          "velocity": 120,
          "beat_index": 530,
          "section": "drop"
        },
        {
          "t": 51387,
          "type": "note",
          "pitch": 62,
          "duration_ms": 89,
          "velocity": 127,
          "beat_index": 531,
          "section": "drop"
        },
        {
          "t": 51483,
          "type": "note",
          "pitch": 67,
          "duration_ms": 89,
          "velocity": 125,
          "beat_index": 532,
          "section": "drop"
        },
        {
          "t": 51580,
          "type": "note",
          "pitch": 62,
          "duration_ms": 89,
          "velocity": 127,
          "beat_index": 533,
          "section": "drop"
        },
        {
          "t": 51677,
          "type": "note",
          "pitch": 65,
          "duration_ms": 89,
          "velocity": 120,
          "beat_index": 534,
          "section": "drop"
        },
        {
          "t": 51774,
          "type": "note",
          "pitch": 62,
          "duration_ms": 89,
          "velocity": 127,
          "beat_index": 535,
          "section": "drop"
        },
        {
          "t": 51870,
          "type": "note",
          "pitch": 62,
          "duration_ms": 89,
          "velocity": 127,
          "beat_index": 536,
          "section": "drop"
        },
        {
          "t": 51967,
          "type": "note",
          "pitch": 62,
          "duration_ms": 89,
          "velocity": 127,
          "beat_index": 537,
          "section": "drop"
        },
        {
          "t": 52064,
          "type": "note",
          "pitch": 70,
          "duration_ms": 89,
          "velocity": 125,
          "beat_index": 538,
          "section": "drop"
        },
        {
          "t": 52161,
          "type": "note",
          "pitch": 62,
          "duration_ms": 89,
          "velocity": 127,
          "beat_index": 539,
          "section": "drop"
        },
        {
          "t": 52258,
          "type": "note",
          "pitch": 69,
          "duration_ms": 89,
          "velocity": 120,
          "beat_index": 540,
          "section": "drop"
        },
        {
          "t": 52354,
          "type": "note",
          "pitch": 67,
          "duration_ms": 89,
          "velocity": 120,
          "beat_index": 541,
          "section": "drop"
        },
        {
          "t": 52451,
          "type": "note",
          "pitch": 65,
          "duration_ms": 89,
          "velocity": 115,
          "beat_index": 542,
          "section": "drop"
        },
        {
          "t": 52548,
          "type": "note",
          "pitch": 64,
          "duration_ms": 89,
          "velocity": 115,
          "beat_index": 543,
          "section": "drop"
        },
        {
          "t": 52645,
          "type": "note",
          "pitch": 62,
          "duration_ms": 89,
          "velocity": 127,
          "beat_index": 544,
          "section": "drop"
        },
        {
          "t": 52741,
          "type": "note",
          "pitch": 62,
          "duration_ms": 89,
          "velocity": 127,
          "beat_index": 545,
          "section": "drop"
        },
        {
          "t": 52838,
          "type": "note",
          "pitch": 69,
          "duration_ms": 89,
          "velocity": 120,
          "beat_index": 546,
          "section": "drop"
        },
        {
          "t": 52935,
          "type": "note",
          "pitch": 62,
          "duration_ms": 89,
          "velocity": 127,
          "beat_index": 547,
          "section": "drop"
        },
        {
          "t": 53032,
          "type": "note",
          "pitch": 67,
          "duration_ms": 89,
          "velocity": 125,
          "beat_index": 548,
          "section": "drop"
        },
        {
          "t": 53129,
          "type": "note",
          "pitch": 62,
          "duration_ms": 89,
          "velocity": 127,
          "beat_index": 549,
          "section": "drop"
        },
        {
          "t": 53225,
          "type": "note",
          "pitch": 65,
          "duration_ms": 89,
          "velocity": 120,
          "beat_index": 550,
          "section": "drop"
        },
        {
          "t": 53322,
          "type": "note",
          "pitch": 62,
          "duration_ms": 89,
          "velocity": 127,
          "beat_index": 551,
          "section": "drop"
        },
        {
          "t": 53419,
          "type": "note",
          "pitch": 62,
          "duration_ms": 89,
          "velocity": 127,
          "beat_index": 552,
          "section": "drop"
        },
        {
          "t": 53516,
          "type": "note",
          "pitch": 62,
          "duration_ms": 89,
          "velocity": 127,
          "beat_index": 553,
          "section": "drop"
        },
        {
          "t": 53612,
          "type": "note",
          "pitch": 70,
          "duration_ms": 89,
          "velocity": 125,
          "beat_index": 554,
          "section": "drop"
        },
        {
          "t": 53709,
          "type": "note",
          "pitch": 62,
          "duration_ms": 89,
          "velocity": 127,
          "beat_index": 555,
          "section": "drop"
        },
        {
          "t": 53806,
          "type": "note",
          "pitch": 69,
          "duration_ms": 89,
          "velocity": 120,
          "beat_index": 556,
          "section": "drop"
        },
        {
          "t": 53903,
          "type": "note",
          "pitch": 67,
          "duration_ms": 89,
          "velocity": 120,
          "beat_index": 557,
          "section": "drop"
        },
        {
          "t": 53999,
          "type": "note",
          "pitch": 65,
          "duration_ms": 89,
          "velocity": 115,
          "beat_index": 558,
          "section": "drop"
        },
        {
          "t": 54096,
          "type": "note",
          "pitch": 64,
          "duration_ms": 89,
          "velocity": 115,
          "beat_index": 559,
          "section": "drop"
        },
        {
          "t": 54193,
          "type": "note",
          "pitch": 62,
          "duration_ms": 89,
          "velocity": 127,
          "beat_index": 560,
          "section": "drop"
        },
        {
          "t": 54290,
          "type": "note",
          "pitch": 62,
          "duration_ms": 89,
          "velocity": 127,
          "beat_index": 561,
          "section": "drop"
        },
        {
          "t": 54387,
          "type": "note",
          "pitch": 69,
          "duration_ms": 89,
          "velocity": 120,
          "beat_index": 562,
          "section": "drop"
        },
        {
          "t": 54483,
          "type": "note",
          "pitch": 62,
          "duration_ms": 89,
          "velocity": 127,
          "beat_index": 563,
          "section": "drop"
        },
        {
          "t": 54580,
          "type": "note",
          "pitch": 67,
          "duration_ms": 89,
          "velocity": 125,
          "beat_index": 564,
          "section": "drop"
        },
        {
          "t": 54677,
          "type": "note",
          "pitch": 62,
          "duration_ms": 89,
          "velocity": 127,
          "beat_index": 565,
          "section": "drop"
        },
        {
          "t": 54774,
          "type": "note",
          "pitch": 65,
          "duration_ms": 89,
          "velocity": 120,
          "beat_index": 566,
          "section": "drop"
        },
        {
          "t": 54870,
          "type": "note",
          "pitch": 62,
          "duration_ms": 89,
          "velocity": 127,
          "beat_index": 567,
          "section": "drop"
        },
        {
          "t": 54967,
          "type": "note",
          "pitch": 62,
          "duration_ms": 89,
          "velocity": 127,
          "beat_index": 568,
          "section": "drop"
        },
        {
          "t": 55064,
          "type": "note",
          "pitch": 62,
          "duration_ms": 89,
          "velocity": 127,
          "beat_index": 569,
          "section": "drop"
        },
        {
          "t": 55161,
          "type": "note",
          "pitch": 70,
          "duration_ms": 89,
          "velocity": 125,
          "beat_index": 570,
          "section": "drop"
        },
        {
          "t": 55258,
          "type": "note",
          "pitch": 62,
          "duration_ms": 89,
          "velocity": 127,
          "beat_index": 571,
          "section": "drop"
        },
        {
          "t": 55354,
          "type": "note",
          "pitch": 69,
          "duration_ms": 89,
          "velocity": 120,
          "beat_index": 572,
          "section": "drop"
        },
        {
          "t": 55451,
          "type": "note",
          "pitch": 67,
          "duration_ms": 89,
          "velocity": 120,
          "beat_index": 573,
          "section": "drop"
        },
        {
          "t": 55548,
          "type": "note",
          "pitch": 65,
          "duration_ms": 89,
          "velocity": 115,
          "beat_index": 574,
          "section": "drop"
        },
        {
          "t": 55645,
          "type": "note",
          "pitch": 64,
          "duration_ms": 89,
          "velocity": 115,
          "beat_index": 575,
          "section": "drop"
        },
        {
          "t": 55741,
          "type": "note",
          "pitch": 62,
          "duration_ms": 89,
          "velocity": 127,
          "beat_index": 576,
          "section": "drop"
        },
        {
          "t": 55838,
          "type": "note",
          "pitch": 62,
          "duration_ms": 89,
          "velocity": 127,
          "beat_index": 577,
          "section": "drop"
        },
        {
          "t": 55935,
          "type": "note",
          "pitch": 69,
          "duration_ms": 89,
          "velocity": 120,
          "beat_index": 578,
          "section": "drop"
        },
        {
          "t": 56032,
          "type": "note",
          "pitch": 62,
          "duration_ms": 89,
          "velocity": 127,
          "beat_index": 579,
          "section": "drop"
        },
        {
          "t": 56129,
          "type": "note",
          "pitch": 67,
          "duration_ms": 89,
          "velocity": 125,
          "beat_index": 580,
          "section": "drop"
        },
        {
          "t": 56225,
          "type": "note",
          "pitch": 62,
          "duration_ms": 89,
          "velocity": 127,
          "beat_index": 581,
          "section": "drop"
        },
        {
          "t": 56322,
          "type": "note",
          "pitch": 65,
          "duration_ms": 89,
          "velocity": 120,
          "beat_index": 582,
          "section": "drop"
        },
        {
          "t": 56419,
          "type": "note",
          "pitch": 62,
          "duration_ms": 89,
          "velocity": 127,
          "beat_index": 583,
          "section": "drop"
        },
        {
          "t": 56516,
          "type": "note",
          "pitch": 62,
          "duration_ms": 89,
          "velocity": 127,
          "beat_index": 584,
          "section": "drop"
        },
        {
          "t": 56612,
          "type": "note",
          "pitch": 62,
          "duration_ms": 89,
          "velocity": 127,
          "beat_index": 585,
          "section": "drop"
        },
        {
          "t": 56709,
          "type": "note",
          "pitch": 70,
          "duration_ms": 89,
          "velocity": 125,
          "beat_index": 586,
          "section": "drop"
        },
        {
          "t": 56806,
          "type": "note",
          "pitch": 62,
          "duration_ms": 89,
          "velocity": 127,
          "beat_index": 587,
          "section": "drop"
        },
        {
          "t": 56903,
          "type": "note",
          "pitch": 69,
          "duration_ms": 89,
          "velocity": 120,
          "beat_index": 588,
          "section": "drop"
        },
        {
          "t": 56999,
          "type": "note",
          "pitch": 67,
          "duration_ms": 89,
          "velocity": 120,
          "beat_index": 589,
          "section": "drop"
        },
        {
          "t": 57096,
          "type": "note",
          "pitch": 65,
          "duration_ms": 89,
          "velocity": 115,
          "beat_index": 590,
          "section": "drop"
        },
        {
          "t": 57193,
          "type": "note",
          "pitch": 64,
          "duration_ms": 89,
          "velocity": 115,
          "beat_index": 591,
          "section": "drop"
        },
        {
          "t": 57290,
          "type": "note",
          "pitch": 62,
          "duration_ms": 89,
          "velocity": 127,
          "beat_index": 592,
          "section": "drop"
        },
        {
          "t": 57387,
          "type": "note",
          "pitch": 62,
          "duration_ms": 89,
          "velocity": 127,
          "beat_index": 593,
          "section": "drop"
        },
        {
          "t": 57483,
          "type": "note",
          "pitch": 69,
          "duration_ms": 89,
          "velocity": 120,
          "beat_index": 594,
          "section": "drop"
        },
        {
          "t": 57580,
          "type": "note",
          "pitch": 62,
          "duration_ms": 89,
          "velocity": 127,
          "beat_index": 595,
          "section": "drop"
        },
        {
          "t": 57677,
          "type": "note",
          "pitch": 67,
          "duration_ms": 89,
          "velocity": 125,
          "beat_index": 596,
          "section": "drop"
        },
        {
          "t": 57774,
          "type": "note",
          "pitch": 62,
          "duration_ms": 89,
          "velocity": 127,
          "beat_index": 597,
          "section": "drop"
        },
        {
          "t": 57870,
          "type": "note",
          "pitch": 65,
          "duration_ms": 89,
          "velocity": 120,
          "beat_index": 598,
          "section": "drop"
        },
        {
          "t": 57967,
          "type": "note",
          "pitch": 62,
          "duration_ms": 89,
          "velocity": 127,
          "beat_index": 599,
          "section": "drop"
        },
        {
          "t": 58064,
          "type": "note",
          "pitch": 62,
          "duration_ms": 89,
          "velocity": 127,
          "beat_index": 600,
          "section": "drop"
        },
        {
          "t": 58161,
          "type": "note",
          "pitch": 62,
          "duration_ms": 89,
          "velocity": 127,
          "beat_index": 601,
          "section": "drop"
        },
        {
          "t": 58258,
          "type": "note",
          "pitch": 70,
          "duration_ms": 89,
          "velocity": 125,
          "beat_index": 602,
          "section": "drop"
        },
        {
          "t": 58354,
          "type": "note",
          "pitch": 62,
          "duration_ms": 89,
          "velocity": 127,
          "beat_index": 603,
          "section": "drop"
        },
        {
          "t": 58451,
          "type": "note",
          "pitch": 69,
          "duration_ms": 89,
          "velocity": 120,
          "beat_index": 604,
          "section": "drop"
        },
        {
          "t": 58548,
          "type": "note",
          "pitch": 67,
          "duration_ms": 89,
          "velocity": 120,
          "beat_index": 605,
          "section": "drop"
        },
        {
          "t": 58645,
          "type": "note",
          "pitch": 65,
          "duration_ms": 89,
          "velocity": 115,
          "beat_index": 606,
          "section": "drop"
        },
        {
          "t": 58741,
          "type": "note",
          "pitch": 64,
          "duration_ms": 89,
          "velocity": 115,
          "beat_index": 607,
          "section": "drop"
        },
        {
          "t": 58838,
          "type": "note",
          "pitch": 62,
          "duration_ms": 89,
          "velocity": 127,
          "beat_index": 608,
          "section": "drop"
        },
        {
          "t": 58935,
          "type": "note",
          "pitch": 62,
          "duration_ms": 89,
          "velocity": 127,
          "beat_index": 609,
          "section": "drop"
        },
        {
          "t": 59032,
          "type": "note",
          "pitch": 69,
          "duration_ms": 89,
          "velocity": 120,
          "beat_index": 610,
          "section": "drop"
        },
        {
          "t": 59129,
          "type": "note",
          "pitch": 62,
          "duration_ms": 89,
          "velocity": 127,
          "beat_index": 611,
          "section": "drop"
        },
        {
          "t": 59225,
          "type": "note",
          "pitch": 67,
          "duration_ms": 89,
          "velocity": 125,
          "beat_index": 612,
          "section": "drop"
        },
        {
          "t": 59322,
          "type": "note",
          "pitch": 62,
          "duration_ms": 89,
          "velocity": 127,
          "beat_index": 613,
          "section": "drop"
        },
        {
          "t": 59419,
          "type": "note",
          "pitch": 65,
          "duration_ms": 89,
          "velocity": 120,
          "beat_index": 614,
          "section": "drop"
        },
        {
          "t": 59516,
          "type": "note",
          "pitch": 62,
          "duration_ms": 89,
          "velocity": 127,
          "beat_index": 615,
          "section": "drop"
        },
        {
          "t": 59612,
          "type": "note",
          "pitch": 62,
          "duration_ms": 89,
          "velocity": 127,
          "beat_index": 616,
          "section": "drop"
        },
        {
          "t": 59709,
          "type": "note",
          "pitch": 62,
          "duration_ms": 89,
          "velocity": 127,
          "beat_index": 617,
          "section": "drop"
        },
        {
          "t": 59806,
          "type": "note",
          "pitch": 70,
          "duration_ms": 89,
          "velocity": 125,
          "beat_index": 618,
          "section": "drop"
        },
        {
          "t": 59903,
          "type": "note",
          "pitch": 62,
          "duration_ms": 89,
          "velocity": 127,
          "beat_index": 619,
          "section": "drop"
        },
        {
          "t": 59999,
          "type": "note",
          "pitch": 69,
          "duration_ms": 89,
          "velocity": 120,
          "beat_index": 620,
          "section": "drop"
        },
        {
          "t": 60096,
          "type": "note",
          "pitch": 67,
          "duration_ms": 89,
          "velocity": 120,
          "beat_index": 621,
          "section": "drop"
        },
        {
          "t": 60193,
          "type": "note",
          "pitch": 65,
          "duration_ms": 89,
          "velocity": 115,
          "beat_index": 622,
          "section": "drop"
        },
        {
          "t": 60290,
          "type": "note",
          "pitch": 64,
          "duration_ms": 89,
          "velocity": 115,
          "beat_index": 623,
          "section": "drop"
        },
        {
          "t": 60387,
          "type": "note",
          "pitch": 62,
          "duration_ms": 89,
          "velocity": 127,
          "beat_index": 624,
          "section": "drop"
        },
        {
          "t": 60483,
          "type": "note",
          "pitch": 62,
          "duration_ms": 89,
          "velocity": 127,
          "beat_index": 625,
          "section": "drop"
        },
        {
          "t": 60580,
          "type": "note",
          "pitch": 69,
          "duration_ms": 89,
          "velocity": 120,
          "beat_index": 626,
          "section": "drop"
        },
        {
          "t": 60677,
          "type": "note",
          "pitch": 62,
          "duration_ms": 89,
          "velocity": 127,
          "beat_index": 627,
          "section": "drop"
        },
        {
          "t": 60774,
          "type": "note",
          "pitch": 67,
          "duration_ms": 89,
          "velocity": 125,
          "beat_index": 628,
          "section": "drop"
        },
        {
          "t": 60870,
          "type": "note",
          "pitch": 62,
          "duration_ms": 89,
          "velocity": 127,
          "beat_index": 629,
          "section": "drop"
        },
        {
          "t": 60967,
          "type": "note",
          "pitch": 65,
          "duration_ms": 89,
          "velocity": 120,
          "beat_index": 630,
          "section": "drop"
        },
        {
          "t": 61064,
          "type": "note",
          "pitch": 62,
          "duration_ms": 89,
          "velocity": 127,
          "beat_index": 631,
          "section": "drop"
        },
        {
          "t": 61161,
          "type": "note",
          "pitch": 62,
          "duration_ms": 89,
          "velocity": 127,
          "beat_index": 632,
          "section": "drop"
        },
        {
          "t": 61258,
          "type": "note",
          "pitch": 62,
          "duration_ms": 89,
          "velocity": 127,
          "beat_index": 633,
          "section": "drop"
        },
        {
          "t": 61354,
          "type": "note",
          "pitch": 70,
          "duration_ms": 89,
          "velocity": 125,
          "beat_index": 634,
          "section": "drop"
        },
        {
          "t": 61451,
          "type": "note",
          "pitch": 62,
          "duration_ms": 89,
          "velocity": 127,
          "beat_index": 635,
          "section": "drop"
        },
        {
          "t": 61548,
          "type": "note",
          "pitch": 69,
          "duration_ms": 89,
          "velocity": 120,
          "beat_index": 636,
          "section": "drop"
        },
        {
          "t": 61645,
          "type": "note",
          "pitch": 67,
          "duration_ms": 89,
          "velocity": 120,
          "beat_index": 637,
          "section": "drop"
        },
        {
          "t": 61741,
          "type": "note",
          "pitch": 65,
          "duration_ms": 89,
          "velocity": 115,
          "beat_index": 638,
          "section": "drop"
        },
        {
          "t": 61838,
          "type": "note",
          "pitch": 64,
          "duration_ms": 89,
          "velocity": 115,
          "beat_index": 639,
          "section": "drop"
        },
        {
          "t": 61935,
          "type": "note",
          "pitch": 62,
          "duration_ms": 89,
          "velocity": 127,
          "beat_index": 640,
          "section": "drop"
        },
        {
          "t": 62032,
          "type": "note",
          "pitch": 62,
          "duration_ms": 89,
          "velocity": 127,
          "beat_index": 641,
          "section": "drop"
        },
        {
          "t": 62129,
          "type": "note",
          "pitch": 69,
          "duration_ms": 89,
          "velocity": 120,
          "beat_index": 642,
          "section": "drop"
        },
        {
          "t": 62225,
          "type": "note",
          "pitch": 62,
          "duration_ms": 89,
          "velocity": 127,
          "beat_index": 643,
          "section": "drop"
        },
        {
          "t": 62322,
          "type": "note",
          "pitch": 67,
          "duration_ms": 89,
          "velocity": 125,
          "beat_index": 644,
          "section": "drop"
        },
        {
          "t": 62419,
          "type": "note",
          "pitch": 62,
          "duration_ms": 89,
          "velocity": 127,
          "beat_index": 645,
          "section": "drop"
        },
        {
          "t": 62516,
          "type": "note",
          "pitch": 65,
          "duration_ms": 89,
          "velocity": 120,
          "beat_index": 646,
          "section": "drop"
        },
        {
          "t": 62612,
          "type": "note",
          "pitch": 62,
          "duration_ms": 89,
          "velocity": 127,
          "beat_index": 647,
          "section": "drop"
        },
        {
          "t": 62709,
          "type": "note",
          "pitch": 62,
          "duration_ms": 89,
          "velocity": 127,
          "beat_index": 648,
          "section": "drop"
        },
        {
          "t": 62806,
          "type": "note",
          "pitch": 62,
          "duration_ms": 89,
          "velocity": 127,
          "beat_index": 649,
          "section": "drop"
        },
        {
          "t": 62903,
          "type": "note",
          "pitch": 70,
          "duration_ms": 89,
          "velocity": 125,
          "beat_index": 650,
          "section": "drop"
        },
        {
          "t": 62999,
          "type": "note",
          "pitch": 62,
          "duration_ms": 89,
          "velocity": 127,
          "beat_index": 651,
          "section": "drop"
        },
        {
          "t": 63096,
          "type": "note",
          "pitch": 69,
          "duration_ms": 89,
          "velocity": 120,
          "beat_index": 652,
          "section": "drop"
        },
        {
          "t": 63193,
          "type": "note",
          "pitch": 67,
          "duration_ms": 89,
          "velocity": 120,
          "beat_index": 653,
          "section": "drop"
        },
        {
          "t": 63290,
          "type": "note",
          "pitch": 65,
          "duration_ms": 89,
          "velocity": 115,
          "beat_index": 654,
          "section": "drop"
        },
        {
          "t": 63387,
          "type": "note",
          "pitch": 64,
          "duration_ms": 89,
          "velocity": 115,
          "beat_index": 655,
          "section": "drop"
        },
        {
          "t": 63483,
          "type": "note",
          "pitch": 62,
          "duration_ms": 89,
          "velocity": 127,
          "beat_index": 656,
          "section": "drop"
        },
        {
          "t": 63580,
          "type": "note",
          "pitch": 62,
          "duration_ms": 89,
          "velocity": 127,
          "beat_index": 657,
          "section": "drop"
        },
        {
          "t": 63677,
          "type": "note",
          "pitch": 69,
          "duration_ms": 89,
          "velocity": 120,
          "beat_index": 658,
          "section": "drop"
        },
        {
          "t": 63774,
          "type": "note",
          "pitch": 62,
          "duration_ms": 89,
          "velocity": 127,
          "beat_index": 659,
          "section": "drop"
        },
        {
          "t": 63870,
          "type": "note",
          "pitch": 67,
          "duration_ms": 89,
          "velocity": 125,
          "beat_index": 660,
          "section": "drop"
        },
        {
          "t": 63967,
          "type": "note",
          "pitch": 62,
          "duration_ms": 89,
          "velocity": 127,
          "beat_index": 661,
          "section": "drop"
        },
        {
          "t": 64064,
          "type": "note",
          "pitch": 65,
          "duration_ms": 89,
          "velocity": 120,
          "beat_index": 662,
          "section": "drop"
        },
        {
          "t": 64161,
          "type": "note",
          "pitch": 62,
          "duration_ms": 89,
          "velocity": 127,
          "beat_index": 663,
          "section": "drop"
        },
        {
          "t": 64258,
          "type": "note",
          "pitch": 62,
          "duration_ms": 89,
          "velocity": 127,
          "beat_index": 664,
          "section": "drop"
        },
        {
          "t": 64354,
          "type": "note",
          "pitch": 62,
          "duration_ms": 89,
          "velocity": 127,
          "beat_index": 665,
          "section": "drop"
        },
        {
          "t": 64451,
          "type": "note",
          "pitch": 70,
          "duration_ms": 89,
          "velocity": 125,
          "beat_index": 666,
          "section": "drop"
        },
        {
          "t": 64548,
          "type": "note",
          "pitch": 62,
          "duration_ms": 89,
          "velocity": 127,
          "beat_index": 667,
          "section": "drop"
        },
        {
          "t": 64645,
          "type": "note",
          "pitch": 69,
          "duration_ms": 89,
          "velocity": 120,
          "beat_index": 668,
          "section": "drop"
        },
        {
          "t": 64741,
          "type": "note",
          "pitch": 67,
          "duration_ms": 89,
          "velocity": 120,
          "beat_index": 669,
          "section": "drop"
        },
        {
          "t": 64838,
          "type": "note",
          "pitch": 65,
          "duration_ms": 89,
          "velocity": 115,
          "beat_index": 670,
          "section": "drop"
        },
        {
          "t": 64935,
          "type": "note",
          "pitch": 64,
          "duration_ms": 89,
          "velocity": 115,
          "beat_index": 671,
          "section": "drop"
        },
        {
          "t": 65032,
          "type": "note",
          "pitch": 62,
          "duration_ms": 89,
          "velocity": 127,
          "beat_index": 672,
          "section": "drop"
        },
        {
          "t": 65129,
          "type": "note",
          "pitch": 62,
          "duration_ms": 89,
          "velocity": 127,
          "beat_index": 673,
          "section": "drop"
        },
        {
          "t": 65225,
          "type": "note",
          "pitch": 69,
          "duration_ms": 89,
          "velocity": 120,
          "beat_index": 674,
          "section": "drop"
        },
        {
          "t": 65322,
          "type": "note",
          "pitch": 62,
          "duration_ms": 89,
          "velocity": 127,
          "beat_index": 675,
          "section": "drop"
        },
        {
          "t": 65419,
          "type": "note",
          "pitch": 67,
          "duration_ms": 89,
          "velocity": 125,
          "beat_index": 676,
          "section": "drop"
        },
        {
          "t": 65516,
          "type": "note",
          "pitch": 62,
          "duration_ms": 89,
          "velocity": 127,
          "beat_index": 677,
          "section": "drop"
        },
        {
          "t": 65612,
          "type": "note",
          "pitch": 65,
          "duration_ms": 89,
          "velocity": 120,
          "beat_index": 678,
          "section": "drop"
        },
        {
          "t": 65709,
          "type": "note",
          "pitch": 62,
          "duration_ms": 89,
          "velocity": 127,
          "beat_index": 679,
          "section": "drop"
        },
        {
          "t": 65806,
          "type": "note",
          "pitch": 62,
          "duration_ms": 89,
          "velocity": 127,
          "beat_index": 680,
          "section": "drop"
        },
        {
          "t": 65903,
          "type": "note",
          "pitch": 62,
          "duration_ms": 89,
          "velocity": 127,
          "beat_index": 681,
          "section": "drop"
        },
        {
          "t": 65999,
          "type": "note",
          "pitch": 70,
          "duration_ms": 89,
          "velocity": 125,
          "beat_index": 682,
          "section": "drop"
        },
        {
          "t": 66096,
          "type": "note",
          "pitch": 62,
          "duration_ms": 89,
          "velocity": 127,
          "beat_index": 683,
          "section": "drop"
        },
        {
          "t": 66193,
          "type": "note",
          "pitch": 69,
          "duration_ms": 89,
          "velocity": 120,
          "beat_index": 684,
          "section": "drop"
        },
        {
          "t": 66290,
          "type": "note",
          "pitch": 67,
          "duration_ms": 89,
          "velocity": 120,
          "beat_index": 685,
          "section": "drop"
        },
        {
          "t": 66387,
          "type": "note",
          "pitch": 65,
          "duration_ms": 89,
          "velocity": 115,
          "beat_index": 686,
          "section": "drop"
        },
        {
          "t": 66483,
          "type": "note",
          "pitch": 64,
          "duration_ms": 89,
          "velocity": 115,
          "beat_index": 687,
          "section": "drop"
        },
        {
          "t": 66580,
          "type": "note",
          "pitch": 62,
          "duration_ms": 89,
          "velocity": 127,
          "beat_index": 688,
          "section": "drop"
        },
        {
          "t": 66677,
          "type": "note",
          "pitch": 62,
          "duration_ms": 89,
          "velocity": 127,
          "beat_index": 689,
          "section": "drop"
        },
        {
          "t": 66774,
          "type": "note",
          "pitch": 69,
          "duration_ms": 89,
          "velocity": 120,
          "beat_index": 690,
          "section": "drop"
        },
        {
          "t": 66870,
          "type": "note",
          "pitch": 62,
          "duration_ms": 89,
          "velocity": 127,
          "beat_index": 691,
          "section": "drop"
        },
        {
          "t": 66967,
          "type": "note",
          "pitch": 67,
          "duration_ms": 89,
          "velocity": 125,
          "beat_index": 692,
          "section": "drop"
        },
        {
          "t": 67064,
          "type": "note",
          "pitch": 62,
          "duration_ms": 89,
          "velocity": 127,
          "beat_index": 693,
          "section": "drop"
        },
        {
          "t": 67161,
          "type": "note",
          "pitch": 65,
          "duration_ms": 89,
          "velocity": 120,
          "beat_index": 694,
          "section": "drop"
        },
        {
          "t": 67258,
          "type": "note",
          "pitch": 62,
          "duration_ms": 89,
          "velocity": 127,
          "beat_index": 695,
          "section": "drop"
        },
        {
          "t": 67354,
          "type": "note",
          "pitch": 62,
          "duration_ms": 89,
          "velocity": 127,
          "beat_index": 696,
          "section": "drop"
        },
        {
          "t": 67451,
          "type": "note",
          "pitch": 62,
          "duration_ms": 89,
          "velocity": 127,
          "beat_index": 697,
          "section": "drop"
        },
        {
          "t": 67548,
          "type": "note",
          "pitch": 70,
          "duration_ms": 89,
          "velocity": 125,
          "beat_index": 698,
          "section": "drop"
        },
        {
          "t": 67645,
          "type": "note",
          "pitch": 62,
          "duration_ms": 89,
          "velocity": 127,
          "beat_index": 699,
          "section": "drop"
        },
        {
          "t": 67741,
          "type": "note",
          "pitch": 69,
          "duration_ms": 89,
          "velocity": 120,
          "beat_index": 700,
          "section": "drop"
        },
        {
          "t": 67838,
          "type": "note",
          "pitch": 67,
          "duration_ms": 89,
          "velocity": 120,
          "beat_index": 701,
          "section": "drop"
        },
        {
          "t": 67935,
          "type": "note",
          "pitch": 65,
          "duration_ms": 89,
          "velocity": 115,
          "beat_index": 702,
          "section": "drop"
        },
        {
          "t": 68032,
          "type": "note",
          "pitch": 64,
          "duration_ms": 89,
          "velocity": 115,
          "beat_index": 703,
          "section": "drop"
        },
        {
          "t": 68129,
          "type": "note",
          "pitch": 62,
          "duration_ms": 89,
          "velocity": 127,
          "beat_index": 704,
          "section": "drop"
        },
        {
          "t": 68225,
          "type": "note",
          "pitch": 62,
          "duration_ms": 89,
          "velocity": 127,
          "beat_index": 705,
          "section": "drop"
        },
        {
          "t": 68322,
          "type": "note",
          "pitch": 69,
          "duration_ms": 89,
          "velocity": 120,
          "beat_index": 706,
          "section": "drop"
        },
        {
          "t": 68419,
          "type": "note",
          "pitch": 62,
          "duration_ms": 89,
          "velocity": 127,
          "beat_index": 707,
          "section": "drop"
        },
        {
          "t": 68516,
          "type": "note",
          "pitch": 67,
          "duration_ms": 89,
          "velocity": 125,
          "beat_index": 708,
          "section": "drop"
        },
        {
          "t": 68612,
          "type": "note",
          "pitch": 62,
          "duration_ms": 89,
          "velocity": 127,
          "beat_index": 709,
          "section": "drop"
        },
        {
          "t": 68709,
          "type": "note",
          "pitch": 65,
          "duration_ms": 89,
          "velocity": 120,
          "beat_index": 710,
          "section": "drop"
        },
        {
          "t": 68806,
          "type": "note",
          "pitch": 62,
          "duration_ms": 89,
          "velocity": 127,
          "beat_index": 711,
          "section": "drop"
        },
        {
          "t": 68903,
          "type": "note",
          "pitch": 62,
          "duration_ms": 89,
          "velocity": 127,
          "beat_index": 712,
          "section": "drop"
        },
        {
          "t": 68999,
          "type": "note",
          "pitch": 62,
          "duration_ms": 89,
          "velocity": 127,
          "beat_index": 713,
          "section": "drop"
        },
        {
          "t": 69096,
          "type": "note",
          "pitch": 70,
          "duration_ms": 89,
          "velocity": 125,
          "beat_index": 714,
          "section": "drop"
        },
        {
          "t": 69193,
          "type": "note",
          "pitch": 62,
          "duration_ms": 89,
          "velocity": 127,
          "beat_index": 715,
          "section": "drop"
        },
        {
          "t": 69290,
          "type": "note",
          "pitch": 69,
          "duration_ms": 89,
          "velocity": 120,
          "beat_index": 716,
          "section": "drop"
        },
        {
          "t": 69387,
          "type": "note",
          "pitch": 67,
          "duration_ms": 89,
          "velocity": 120,
          "beat_index": 717,
          "section": "drop"
        },
        {
          "t": 69483,
          "type": "note",
          "pitch": 65,
          "duration_ms": 89,
          "velocity": 115,
          "beat_index": 718,
          "section": "drop"
        },
        {
          "t": 69580,
          "type": "note",
          "pitch": 64,
          "duration_ms": 89,
          "velocity": 115,
          "beat_index": 719,
          "section": "drop"
        },
        {
          "t": 69677,
          "type": "note",
          "pitch": 62,
          "duration_ms": 89,
          "velocity": 127,
          "beat_index": 720,
          "section": "drop"
        },
        {
          "t": 69774,
          "type": "note",
          "pitch": 62,
          "duration_ms": 89,
          "velocity": 127,
          "beat_index": 721,
          "section": "drop"
        },
        {
          "t": 69870,
          "type": "note",
          "pitch": 69,
          "duration_ms": 89,
          "velocity": 120,
          "beat_index": 722,
          "section": "drop"
        },
        {
          "t": 69967,
          "type": "note",
          "pitch": 62,
          "duration_ms": 89,
          "velocity": 127,
          "beat_index": 723,
          "section": "drop"
        },
        {
          "t": 70064,
          "type": "note",
          "pitch": 67,
          "duration_ms": 89,
          "velocity": 125,
          "beat_index": 724,
          "section": "drop"
        },
        {
          "t": 70161,
          "type": "note",
          "pitch": 62,
          "duration_ms": 89,
          "velocity": 127,
          "beat_index": 725,
          "section": "drop"
        },
        {
          "t": 70258,
          "type": "note",
          "pitch": 65,
          "duration_ms": 89,
          "velocity": 120,
          "beat_index": 726,
          "section": "drop"
        },
        {
          "t": 70354,
          "type": "note",
          "pitch": 62,
          "duration_ms": 89,
          "velocity": 127,
          "beat_index": 727,
          "section": "drop"
        },
        {
          "t": 70451,
          "type": "note",
          "pitch": 62,
          "duration_ms": 89,
          "velocity": 127,
          "beat_index": 728,
          "section": "drop"
        },
        {
          "t": 70548,
          "type": "note",
          "pitch": 62,
          "duration_ms": 89,
          "velocity": 127,
          "beat_index": 729,
          "section": "drop"
        },
        {
          "t": 70645,
          "type": "note",
          "pitch": 70,
          "duration_ms": 89,
          "velocity": 125,
          "beat_index": 730,
          "section": "drop"
        },
        {
          "t": 70741,
          "type": "note",
          "pitch": 62,
          "duration_ms": 89,
          "velocity": 127,
          "beat_index": 731,
          "section": "drop"
        },
        {
          "t": 70838,
          "type": "note",
          "pitch": 69,
          "duration_ms": 89,
          "velocity": 120,
          "beat_index": 732,
          "section": "drop"
        },
        {
          "t": 70935,
          "type": "note",
          "pitch": 67,
          "duration_ms": 89,
          "velocity": 120,
          "beat_index": 733,
          "section": "drop"
        },
        {
          "t": 71032,
          "type": "note",
          "pitch": 65,
          "duration_ms": 89,
          "velocity": 115,
          "beat_index": 734,
          "section": "drop"
        },
        {
          "t": 71129,
          "type": "note",
          "pitch": 64,
          "duration_ms": 89,
          "velocity": 115,
          "beat_index": 735,
          "section": "drop"
        },
        {
          "t": 71225,
          "type": "note",
          "pitch": 62,
          "duration_ms": 89,
          "velocity": 127,
          "beat_index": 736,
          "section": "drop"
        },
        {
          "t": 71322,
          "type": "note",
          "pitch": 62,
          "duration_ms": 89,
          "velocity": 127,
          "beat_index": 737,
          "section": "drop"
        },
        {
          "t": 71419,
          "type": "note",
          "pitch": 69,
          "duration_ms": 89,
          "velocity": 120,
          "beat_index": 738,
          "section": "drop"
        },
        {
          "t": 71516,
          "type": "note",
          "pitch": 62,
          "duration_ms": 89,
          "velocity": 127,
          "beat_index": 739,
          "section": "drop"
        },
        {
          "t": 71612,
          "type": "note",
          "pitch": 67,
          "duration_ms": 89,
          "velocity": 125,
          "beat_index": 740,
          "section": "drop"
        },
        {
          "t": 71709,
          "type": "note",
          "pitch": 62,
          "duration_ms": 89,
          "velocity": 127,
          "beat_index": 741,
          "section": "drop"
        },
        {
          "t": 71806,
          "type": "note",
          "pitch": 65,
          "duration_ms": 89,
          "velocity": 120,
          "beat_index": 742,
          "section": "drop"
        },
        {
          "t": 71903,
          "type": "note",
          "pitch": 62,
          "duration_ms": 89,
          "velocity": 127,
          "beat_index": 743,
          "section": "drop"
        },
        {
          "t": 72000,
          "type": "note",
          "pitch": 62,
          "duration_ms": 89,
          "velocity": 127,
          "beat_index": 744,
          "section": "drop"
        },
        {
          "t": 72096,
          "type": "note",
          "pitch": 62,
          "duration_ms": 89,
          "velocity": 127,
          "beat_index": 745,
          "section": "drop"
        },
        {
          "t": 72193,
          "type": "note",
          "pitch": 70,
          "duration_ms": 89,
          "velocity": 125,
          "beat_index": 746,
          "section": "drop"
        },
        {
          "t": 72290,
          "type": "note",
          "pitch": 62,
          "duration_ms": 89,
          "velocity": 127,
          "beat_index": 747,
          "section": "drop"
        },
        {
          "t": 72387,
          "type": "note",
          "pitch": 69,
          "duration_ms": 89,
          "velocity": 120,
          "beat_index": 748,
          "section": "drop"
        },
        {
          "t": 72483,
          "type": "note",
          "pitch": 67,
          "duration_ms": 89,
          "velocity": 120,
          "beat_index": 749,
          "section": "drop"
        },
        {
          "t": 72580,
          "type": "note",
          "pitch": 65,
          "duration_ms": 89,
          "velocity": 115,
          "beat_index": 750,
          "section": "drop"
        },
        {
          "t": 72677,
          "type": "note",
          "pitch": 64,
          "duration_ms": 89,
          "velocity": 115,
          "beat_index": 751,
          "section": "drop"
        },
        {
          "t": 72774,
          "type": "note",
          "pitch": 62,
          "duration_ms": 89,
          "velocity": 127,
          "beat_index": 752,
          "section": "drop"
        },
        {
          "t": 72870,
          "type": "note",
          "pitch": 62,
          "duration_ms": 89,
          "velocity": 127,
          "beat_index": 753,
          "section": "drop"
        },
        {
          "t": 72967,
          "type": "note",
          "pitch": 69,
          "duration_ms": 89,
          "velocity": 120,
          "beat_index": 754,
          "section": "drop"
        },
        {
          "t": 73064,
          "type": "note",
          "pitch": 62,
          "duration_ms": 89,
          "velocity": 127,
          "beat_index": 755,
          "section": "drop"
        },
        {
          "t": 73161,
          "type": "note",
          "pitch": 67,
          "duration_ms": 89,
          "velocity": 125,
          "beat_index": 756,
          "section": "drop"
        },
        {
          "t": 73258,
          "type": "note",
          "pitch": 62,
          "duration_ms": 89,
          "velocity": 127,
          "beat_index": 757,
          "section": "drop"
        },
        {
          "t": 73354,
          "type": "note",
          "pitch": 65,
          "duration_ms": 89,
          "velocity": 120,
          "beat_index": 758,
          "section": "drop"
        },
        {
          "t": 73451,
          "type": "note",
          "pitch": 62,
          "duration_ms": 89,
          "velocity": 127,
          "beat_index": 759,
          "section": "drop"
        },
        {
          "t": 73548,
          "type": "note",
          "pitch": 62,
          "duration_ms": 89,
          "velocity": 127,
          "beat_index": 760,
          "section": "drop"
        },
        {
          "t": 73645,
          "type": "note",
          "pitch": 62,
          "duration_ms": 89,
          "velocity": 127,
          "beat_index": 761,
          "section": "drop"
        },
        {
          "t": 73741,
          "type": "note",
          "pitch": 70,
          "duration_ms": 89,
          "velocity": 125,
          "beat_index": 762,
          "section": "drop"
        },
        {
          "t": 73838,
          "type": "note",
          "pitch": 62,
          "duration_ms": 89,
          "velocity": 127,
          "beat_index": 763,
          "section": "drop"
        },
        {
          "t": 73935,
          "type": "note",
          "pitch": 69,
          "duration_ms": 89,
          "velocity": 120,
          "beat_index": 764,
          "section": "drop"
        },
        {
          "t": 74032,
          "type": "note",
          "pitch": 67,
          "duration_ms": 89,
          "velocity": 120,
          "beat_index": 765,
          "section": "drop"
        },
        {
          "t": 74129,
          "type": "note",
          "pitch": 65,
          "duration_ms": 89,
          "velocity": 115,
          "beat_index": 766,
          "section": "drop"
        },
        {
          "t": 74225,
          "type": "note",
          "pitch": 64,
          "duration_ms": 89,
          "velocity": 115,
          "beat_index": 767,
          "section": "drop"
        },
        {
          "t": 74322,
          "type": "note",
          "pitch": 62,
          "duration_ms": 89,
          "velocity": 127,
          "beat_index": 768,
          "section": "drop"
        },
        {
          "t": 74419,
          "type": "note",
          "pitch": 62,
          "duration_ms": 89,
          "velocity": 127,
          "beat_index": 769,
          "section": "drop"
        },
        {
          "t": 74516,
          "type": "note",
          "pitch": 69,
          "duration_ms": 89,
          "velocity": 120,
          "beat_index": 770,
          "section": "drop"
        },
        {
          "t": 74612,
          "type": "note",
          "pitch": 62,
          "duration_ms": 89,
          "velocity": 127,
          "beat_index": 771,
          "section": "drop"
        },
        {
          "t": 74709,
          "type": "note",
          "pitch": 67,
          "duration_ms": 89,
          "velocity": 125,
          "beat_index": 772,
          "section": "drop"
        },
        {
          "t": 74806,
          "type": "note",
          "pitch": 62,
          "duration_ms": 89,
          "velocity": 127,
          "beat_index": 773,
          "section": "drop"
        },
        {
          "t": 74903,
          "type": "note",
          "pitch": 65,
          "duration_ms": 89,
          "velocity": 120,
          "beat_index": 774,
          "section": "drop"
        },
        {
          "t": 75000,
          "type": "note",
          "pitch": 62,
          "duration_ms": 89,
          "velocity": 127,
          "beat_index": 775,
          "section": "drop"
        },
        {
          "t": 75096,
          "type": "note",
          "pitch": 62,
          "duration_ms": 89,
          "velocity": 127,
          "beat_index": 776,
          "section": "drop"
        },
        {
          "t": 75193,
          "type": "note",
          "pitch": 62,
          "duration_ms": 89,
          "velocity": 127,
          "beat_index": 777,
          "section": "drop"
        },
        {
          "t": 75290,
          "type": "note",
          "pitch": 70,
          "duration_ms": 89,
          "velocity": 125,
          "beat_index": 778,
          "section": "drop"
        },
        {
          "t": 75387,
          "type": "note",
          "pitch": 62,
          "duration_ms": 89,
          "velocity": 127,
          "beat_index": 779,
          "section": "drop"
        },
        {
          "t": 75483,
          "type": "note",
          "pitch": 69,
          "duration_ms": 89,
          "velocity": 120,
          "beat_index": 780,
          "section": "drop"
        },
        {
          "t": 75580,
          "type": "note",
          "pitch": 67,
          "duration_ms": 89,
          "velocity": 120,
          "beat_index": 781,
          "section": "drop"
        },
        {
          "t": 75677,
          "type": "note",
          "pitch": 65,
          "duration_ms": 89,
          "velocity": 115,
          "beat_index": 782,
          "section": "drop"
        },
        {
          "t": 75774,
          "type": "note",
          "pitch": 64,
          "duration_ms": 89,
          "velocity": 115,
          "beat_index": 783,
          "section": "drop"
        },
        {
          "t": 75870,
          "type": "note",
          "pitch": 62,
          "duration_ms": 89,
          "velocity": 127,
          "beat_index": 784,
          "section": "drop"
        },
        {
          "t": 75967,
          "type": "note",
          "pitch": 62,
          "duration_ms": 89,
          "velocity": 127,
          "beat_index": 785,
          "section": "drop"
        },
        {
          "t": 76064,
          "type": "note",
          "pitch": 69,
          "duration_ms": 89,
          "velocity": 120,
          "beat_index": 786,
          "section": "drop"
        },
        {
          "t": 76161,
          "type": "note",
          "pitch": 62,
          "duration_ms": 89,
          "velocity": 127,
          "beat_index": 787,
          "section": "drop"
        },
        {
          "t": 76258,
          "type": "note",
          "pitch": 67,
          "duration_ms": 89,
          "velocity": 125,
          "beat_index": 788,
          "section": "drop"
        },
        {
          "t": 76354,
          "type": "note",
          "pitch": 62,
          "duration_ms": 89,
          "velocity": 127,
          "beat_index": 789,
          "section": "drop"
        },
        {
          "t": 76451,
          "type": "note",
          "pitch": 65,
          "duration_ms": 89,
          "velocity": 120,
          "beat_index": 790,
          "section": "drop"
        },
        {
          "t": 76548,
          "type": "note",
          "pitch": 62,
          "duration_ms": 89,
          "velocity": 127,
          "beat_index": 791,
          "section": "drop"
        },
        {
          "t": 76645,
          "type": "note",
          "pitch": 62,
          "duration_ms": 89,
          "velocity": 127,
          "beat_index": 792,
          "section": "drop"
        },
        {
          "t": 76741,
          "type": "note",
          "pitch": 62,
          "duration_ms": 89,
          "velocity": 127,
          "beat_index": 793,
          "section": "drop"
        },
        {
          "t": 76838,
          "type": "note",
          "pitch": 70,
          "duration_ms": 89,
          "velocity": 125,
          "beat_index": 794,
          "section": "drop"
        },
        {
          "t": 76935,
          "type": "note",
          "pitch": 62,
          "duration_ms": 89,
          "velocity": 127,
          "beat_index": 795,
          "section": "drop"
        },
        {
          "t": 77032,
          "type": "note",
          "pitch": 69,
          "duration_ms": 89,
          "velocity": 120,
          "beat_index": 796,
          "section": "drop"
        },
        {
          "t": 77129,
          "type": "note",
          "pitch": 67,
          "duration_ms": 89,
          "velocity": 120,
          "beat_index": 797,
          "section": "drop"
        },
        {
          "t": 77225,
          "type": "note",
          "pitch": 65,
          "duration_ms": 89,
          "velocity": 115,
          "beat_index": 798,
          "section": "drop"
        },
        {
          "t": 77322,
          "type": "note",
          "pitch": 64,
          "duration_ms": 89,
          "velocity": 115,
          "beat_index": 799,
          "section": "drop"
        },
        {
          "t": 77419,
          "type": "note",
          "pitch": 62,
          "duration_ms": 89,
          "velocity": 127,
          "beat_index": 800,
          "section": "drop"
        },
        {
          "t": 77516,
          "type": "note",
          "pitch": 62,
          "duration_ms": 89,
          "velocity": 127,
          "beat_index": 801,
          "section": "drop"
        },
        {
          "t": 77612,
          "type": "note",
          "pitch": 69,
          "duration_ms": 89,
          "velocity": 120,
          "beat_index": 802,
          "section": "drop"
        },
        {
          "t": 77709,
          "type": "note",
          "pitch": 62,
          "duration_ms": 89,
          "velocity": 127,
          "beat_index": 803,
          "section": "drop"
        },
        {
          "t": 77806,
          "type": "note",
          "pitch": 67,
          "duration_ms": 89,
          "velocity": 125,
          "beat_index": 804,
          "section": "drop"
        },
        {
          "t": 77903,
          "type": "note",
          "pitch": 62,
          "duration_ms": 89,
          "velocity": 127,
          "beat_index": 805,
          "section": "drop"
        },
        {
          "t": 78000,
          "type": "note",
          "pitch": 65,
          "duration_ms": 89,
          "velocity": 120,
          "beat_index": 806,
          "section": "drop"
        },
        {
          "t": 78096,
          "type": "note",
          "pitch": 62,
          "duration_ms": 89,
          "velocity": 127,
          "beat_index": 807,
          "section": "drop"
        },
        {
          "t": 78193,
          "type": "note",
          "pitch": 62,
          "duration_ms": 89,
          "velocity": 127,
          "beat_index": 808,
          "section": "drop"
        },
        {
          "t": 78290,
          "type": "note",
          "pitch": 62,
          "duration_ms": 89,
          "velocity": 127,
          "beat_index": 809,
          "section": "drop"
        },
        {
          "t": 78387,
          "type": "note",
          "pitch": 70,
          "duration_ms": 89,
          "velocity": 125,
          "beat_index": 810,
          "section": "drop"
        },
        {
          "t": 78483,
          "type": "note",
          "pitch": 62,
          "duration_ms": 89,
          "velocity": 127,
          "beat_index": 811,
          "section": "drop"
        },
        {
          "t": 78580,
          "type": "note",
          "pitch": 69,
          "duration_ms": 89,
          "velocity": 120,
          "beat_index": 812,
          "section": "drop"
        },
        {
          "t": 78677,
          "type": "note",
          "pitch": 67,
          "duration_ms": 89,
          "velocity": 120,
          "beat_index": 813,
          "section": "drop"
        },
        {
          "t": 78774,
          "type": "note",
          "pitch": 65,
          "duration_ms": 89,
          "velocity": 115,
          "beat_index": 814,
          "section": "drop"
        },
        {
          "t": 78870,
          "type": "note",
          "pitch": 64,
          "duration_ms": 89,
          "velocity": 115,
          "beat_index": 815,
          "section": "drop"
        },
        {
          "t": 78967,
          "type": "note",
          "pitch": 62,
          "duration_ms": 89,
          "velocity": 127,
          "beat_index": 816,
          "section": "drop"
        },
        {
          "t": 79064,
          "type": "note",
          "pitch": 62,
          "duration_ms": 89,
          "velocity": 127,
          "beat_index": 817,
          "section": "drop"
        },
        {
          "t": 79161,
          "type": "note",
          "pitch": 69,
          "duration_ms": 89,
          "velocity": 120,
          "beat_index": 818,
          "section": "drop"
        },
        {
          "t": 79258,
          "type": "note",
          "pitch": 62,
          "duration_ms": 89,
          "velocity": 127,
          "beat_index": 819,
          "section": "drop"
        },
        {
          "t": 79354,
          "type": "note",
          "pitch": 67,
          "duration_ms": 89,
          "velocity": 125,
          "beat_index": 820,
          "section": "drop"
        },
        {
          "t": 79451,
          "type": "note",
          "pitch": 62,
          "duration_ms": 89,
          "velocity": 127,
          "beat_index": 821,
          "section": "drop"
        },
        {
          "t": 79548,
          "type": "note",
          "pitch": 65,
          "duration_ms": 89,
          "velocity": 120,
          "beat_index": 822,
          "section": "drop"
        },
        {
          "t": 79645,
          "type": "note",
          "pitch": 62,
          "duration_ms": 89,
          "velocity": 127,
          "beat_index": 823,
          "section": "drop"
        },
        {
          "t": 79741,
          "type": "note",
          "pitch": 62,
          "duration_ms": 89,
          "velocity": 127,
          "beat_index": 824,
          "section": "drop"
        },
        {
          "t": 79838,
          "type": "note",
          "pitch": 62,
          "duration_ms": 89,
          "velocity": 127,
          "beat_index": 825,
          "section": "drop"
        },
        {
          "t": 79935,
          "type": "note",
          "pitch": 70,
          "duration_ms": 89,
          "velocity": 125,
          "beat_index": 826,
          "section": "drop"
        },
        {
          "t": 80032,
          "type": "note",
          "pitch": 62,
          "duration_ms": 89,
          "velocity": 127,
          "beat_index": 827,
          "section": "drop"
        },
        {
          "t": 80129,
          "type": "note",
          "pitch": 69,
          "duration_ms": 89,
          "velocity": 120,
          "beat_index": 828,
          "section": "drop"
        },
        {
          "t": 80225,
          "type": "note",
          "pitch": 67,
          "duration_ms": 89,
          "velocity": 120,
          "beat_index": 829,
          "section": "drop"
        },
        {
          "t": 80322,
          "type": "note",
          "pitch": 65,
          "duration_ms": 89,
          "velocity": 115,
          "beat_index": 830,
          "section": "drop"
        },
        {
          "t": 80419,
          "type": "note",
          "pitch": 64,
          "duration_ms": 89,
          "velocity": 115,
          "beat_index": 831,
          "section": "drop"
        },
        {
          "t": 80516,
          "type": "note",
          "pitch": 62,
          "duration_ms": 89,
          "velocity": 127,
          "beat_index": 832,
          "section": "drop"
        },
        {
          "t": 80612,
          "type": "note",
          "pitch": 62,
          "duration_ms": 89,
          "velocity": 127,
          "beat_index": 833,
          "section": "drop"
        },
        {
          "t": 80709,
          "type": "note",
          "pitch": 69,
          "duration_ms": 89,
          "velocity": 120,
          "beat_index": 834,
          "section": "drop"
        },
        {
          "t": 80806,
          "type": "note",
          "pitch": 62,
          "duration_ms": 89,
          "velocity": 127,
          "beat_index": 835,
          "section": "drop"
        },
        {
          "t": 80903,
          "type": "note",
          "pitch": 67,
          "duration_ms": 89,
          "velocity": 125,
          "beat_index": 836,
          "section": "drop"
        },
        {
          "t": 81000,
          "type": "note",
          "pitch": 62,
          "duration_ms": 89,
          "velocity": 127,
          "beat_index": 837,
          "section": "drop"
        },
        {
          "t": 81096,
          "type": "note",
          "pitch": 65,
          "duration_ms": 89,
          "velocity": 120,
          "beat_index": 838,
          "section": "drop"
        },
        {
          "t": 81193,
          "type": "note",
          "pitch": 62,
          "duration_ms": 89,
          "velocity": 127,
          "beat_index": 839,
          "section": "drop"
        },
        {
          "t": 81290,
          "type": "note",
          "pitch": 62,
          "duration_ms": 89,
          "velocity": 127,
          "beat_index": 840,
          "section": "drop"
        },
        {
          "t": 81387,
          "type": "note",
          "pitch": 62,
          "duration_ms": 89,
          "velocity": 127,
          "beat_index": 841,
          "section": "drop"
        },
        {
          "t": 81483,
          "type": "note",
          "pitch": 70,
          "duration_ms": 89,
          "velocity": 125,
          "beat_index": 842,
          "section": "drop"
        },
        {
          "t": 81580,
          "type": "note",
          "pitch": 62,
          "duration_ms": 89,
          "velocity": 127,
          "beat_index": 843,
          "section": "drop"
        },
        {
          "t": 81677,
          "type": "note",
          "pitch": 69,
          "duration_ms": 89,
          "velocity": 120,
          "beat_index": 844,
          "section": "drop"
        },
        {
          "t": 81774,
          "type": "note",
          "pitch": 67,
          "duration_ms": 89,
          "velocity": 120,
          "beat_index": 845,
          "section": "drop"
        },
        {
          "t": 81870,
          "type": "note",
          "pitch": 65,
          "duration_ms": 89,
          "velocity": 115,
          "beat_index": 846,
          "section": "drop"
        },
        {
          "t": 81967,
          "type": "note",
          "pitch": 64,
          "duration_ms": 89,
          "velocity": 115,
          "beat_index": 847,
          "section": "drop"
        },
        {
          "t": 82064,
          "type": "note",
          "pitch": 62,
          "duration_ms": 89,
          "velocity": 127,
          "beat_index": 848,
          "section": "drop"
        },
        {
          "t": 82161,
          "type": "note",
          "pitch": 62,
          "duration_ms": 89,
          "velocity": 127,
          "beat_index": 849,
          "section": "drop"
        },
        {
          "t": 82258,
          "type": "note",
          "pitch": 69,
          "duration_ms": 89,
          "velocity": 120,
          "beat_index": 850,
          "section": "drop"
        },
        {
          "t": 82354,
          "type": "note",
          "pitch": 62,
          "duration_ms": 89,
          "velocity": 127,
          "beat_index": 851,
          "section": "drop"
        },
        {
          "t": 82451,
          "type": "note",
          "pitch": 67,
          "duration_ms": 89,
          "velocity": 125,
          "beat_index": 852,
          "section": "drop"
        },
        {
          "t": 82548,
          "type": "note",
          "pitch": 62,
          "duration_ms": 89,
          "velocity": 127,
          "beat_index": 853,
          "section": "drop"
        },
        {
          "t": 82645,
          "type": "note",
          "pitch": 65,
          "duration_ms": 89,
          "velocity": 120,
          "beat_index": 854,
          "section": "drop"
        },
        {
          "t": 82741,
          "type": "note",
          "pitch": 62,
          "duration_ms": 89,
          "velocity": 127,
          "beat_index": 855,
          "section": "drop"
        },
        {
          "t": 82838,
          "type": "note",
          "pitch": 62,
          "duration_ms": 89,
          "velocity": 127,
          "beat_index": 856,
          "section": "drop"
        },
        {
          "t": 82935,
          "type": "note",
          "pitch": 62,
          "duration_ms": 89,
          "velocity": 127,
          "beat_index": 857,
          "section": "drop"
        },
        {
          "t": 83032,
          "type": "note",
          "pitch": 70,
          "duration_ms": 89,
          "velocity": 125,
          "beat_index": 858,
          "section": "drop"
        },
        {
          "t": 83129,
          "type": "note",
          "pitch": 62,
          "duration_ms": 89,
          "velocity": 127,
          "beat_index": 859,
          "section": "drop"
        },
        {
          "t": 83225,
          "type": "note",
          "pitch": 69,
          "duration_ms": 89,
          "velocity": 120,
          "beat_index": 860,
          "section": "drop"
        },
        {
          "t": 83322,
          "type": "note",
          "pitch": 67,
          "duration_ms": 89,
          "velocity": 120,
          "beat_index": 861,
          "section": "drop"
        },
        {
          "t": 83419,
          "type": "note",
          "pitch": 65,
          "duration_ms": 89,
          "velocity": 115,
          "beat_index": 862,
          "section": "drop"
        },
        {
          "t": 83516,
          "type": "note",
          "pitch": 64,
          "duration_ms": 89,
          "velocity": 115,
          "beat_index": 863,
          "section": "drop"
        },
        {
          "t": 83612,
          "type": "note",
          "pitch": 62,
          "duration_ms": 89,
          "velocity": 127,
          "beat_index": 864,
          "section": "drop"
        },
        {
          "t": 83709,
          "type": "note",
          "pitch": 62,
          "duration_ms": 89,
          "velocity": 127,
          "beat_index": 865,
          "section": "drop"
        },
        {
          "t": 83806,
          "type": "note",
          "pitch": 69,
          "duration_ms": 89,
          "velocity": 120,
          "beat_index": 866,
          "section": "drop"
        },
        {
          "t": 83903,
          "type": "note",
          "pitch": 62,
          "duration_ms": 89,
          "velocity": 127,
          "beat_index": 867,
          "section": "drop"
        },
        {
          "t": 84000,
          "type": "note",
          "pitch": 67,
          "duration_ms": 89,
          "velocity": 125,
          "beat_index": 868,
          "section": "drop"
        },
        {
          "t": 84096,
          "type": "note",
          "pitch": 62,
          "duration_ms": 89,
          "velocity": 127,
          "beat_index": 869,
          "section": "drop"
        },
        {
          "t": 84193,
          "type": "note",
          "pitch": 65,
          "duration_ms": 89,
          "velocity": 120,
          "beat_index": 870,
          "section": "drop"
        },
        {
          "t": 84290,
          "type": "note",
          "pitch": 62,
          "duration_ms": 89,
          "velocity": 127,
          "beat_index": 871,
          "section": "drop"
        },
        {
          "t": 84387,
          "type": "note",
          "pitch": 62,
          "duration_ms": 89,
          "velocity": 127,
          "beat_index": 872,
          "section": "drop"
        },
        {
          "t": 84483,
          "type": "note",
          "pitch": 62,
          "duration_ms": 89,
          "velocity": 127,
          "beat_index": 873,
          "section": "drop"
        },
        {
          "t": 84580,
          "type": "note",
          "pitch": 70,
          "duration_ms": 89,
          "velocity": 125,
          "beat_index": 874,
          "section": "drop"
        },
        {
          "t": 84677,
          "type": "note",
          "pitch": 62,
          "duration_ms": 89,
          "velocity": 127,
          "beat_index": 875,
          "section": "drop"
        },
        {
          "t": 84774,
          "type": "note",
          "pitch": 69,
          "duration_ms": 89,
          "velocity": 120,
          "beat_index": 876,
          "section": "drop"
        },
        {
          "t": 84870,
          "type": "note",
          "pitch": 67,
          "duration_ms": 89,
          "velocity": 120,
          "beat_index": 877,
          "section": "drop"
        },
        {
          "t": 84967,
          "type": "note",
          "pitch": 65,
          "duration_ms": 89,
          "velocity": 115,
          "beat_index": 878,
          "section": "drop"
        },
        {
          "t": 85064,
          "type": "note",
          "pitch": 64,
          "duration_ms": 89,
          "velocity": 115,
          "beat_index": 879,
          "section": "drop"
        },
        {
          "t": 85161,
          "type": "note",
          "pitch": 62,
          "duration_ms": 89,
          "velocity": 127,
          "beat_index": 880,
          "section": "drop"
        },
        {
          "t": 85258,
          "type": "note",
          "pitch": 62,
          "duration_ms": 89,
          "velocity": 127,
          "beat_index": 881,
          "section": "drop"
        },
        {
          "t": 85354,
          "type": "note",
          "pitch": 69,
          "duration_ms": 89,
          "velocity": 120,
          "beat_index": 882,
          "section": "drop"
        },
        {
          "t": 85451,
          "type": "note",
          "pitch": 62,
          "duration_ms": 89,
          "velocity": 127,
          "beat_index": 883,
          "section": "drop"
        },
        {
          "t": 85548,
          "type": "note",
          "pitch": 67,
          "duration_ms": 89,
          "velocity": 125,
          "beat_index": 884,
          "section": "drop"
        },
        {
          "t": 85645,
          "type": "note",
          "pitch": 62,
          "duration_ms": 89,
          "velocity": 127,
          "beat_index": 885,
          "section": "drop"
        },
        {
          "t": 85741,
          "type": "note",
          "pitch": 65,
          "duration_ms": 89,
          "velocity": 120,
          "beat_index": 886,
          "section": "drop"
        },
        {
          "t": 85838,
          "type": "note",
          "pitch": 62,
          "duration_ms": 89,
          "velocity": 127,
          "beat_index": 887,
          "section": "drop"
        },
        {
          "t": 85935,
          "type": "note",
          "pitch": 62,
          "duration_ms": 89,
          "velocity": 127,
          "beat_index": 888,
          "section": "drop"
        },
        {
          "t": 86032,
          "type": "note",
          "pitch": 62,
          "duration_ms": 89,
          "velocity": 127,
          "beat_index": 889,
          "section": "drop"
        },
        {
          "t": 86129,
          "type": "note",
          "pitch": 70,
          "duration_ms": 89,
          "velocity": 125,
          "beat_index": 890,
          "section": "drop"
        },
        {
          "t": 86225,
          "type": "note",
          "pitch": 62,
          "duration_ms": 89,
          "velocity": 127,
          "beat_index": 891,
          "section": "drop"
        },
        {
          "t": 86322,
          "type": "note",
          "pitch": 69,
          "duration_ms": 89,
          "velocity": 120,
          "beat_index": 892,
          "section": "drop"
        },
        {
          "t": 86419,
          "type": "note",
          "pitch": 67,
          "duration_ms": 89,
          "velocity": 120,
          "beat_index": 893,
          "section": "drop"
        },
        {
          "t": 86516,
          "type": "note",
          "pitch": 65,
          "duration_ms": 89,
          "velocity": 115,
          "beat_index": 894,
          "section": "drop"
        },
        {
          "t": 86612,
          "type": "note",
          "pitch": 64,
          "duration_ms": 89,
          "velocity": 115,
          "beat_index": 895,
          "section": "drop"
        },
        {
          "t": 86709,
          "type": "note",
          "pitch": 62,
          "duration_ms": 89,
          "velocity": 127,
          "beat_index": 896,
          "section": "drop"
        },
        {
          "t": 86806,
          "type": "note",
          "pitch": 62,
          "duration_ms": 89,
          "velocity": 127,
          "beat_index": 897,
          "section": "drop"
        },
        {
          "t": 86903,
          "type": "note",
          "pitch": 69,
          "duration_ms": 89,
          "velocity": 120,
          "beat_index": 898,
          "section": "drop"
        },
        {
          "t": 87000,
          "type": "note",
          "pitch": 62,
          "duration_ms": 89,
          "velocity": 127,
          "beat_index": 899,
          "section": "drop"
        },
        {
          "t": 87096,
          "type": "note",
          "pitch": 67,
          "duration_ms": 89,
          "velocity": 125,
          "beat_index": 900,
          "section": "drop"
        },
        {
          "t": 87193,
          "type": "note",
          "pitch": 62,
          "duration_ms": 89,
          "velocity": 127,
          "beat_index": 901,
          "section": "drop"
        },
        {
          "t": 87290,
          "type": "note",
          "pitch": 65,
          "duration_ms": 89,
          "velocity": 120,
          "beat_index": 902,
          "section": "drop"
        },
        {
          "t": 87387,
          "type": "note",
          "pitch": 62,
          "duration_ms": 89,
          "velocity": 127,
          "beat_index": 903,
          "section": "drop"
        },
        {
          "t": 87483,
          "type": "note",
          "pitch": 62,
          "duration_ms": 89,
          "velocity": 127,
          "beat_index": 904,
          "section": "drop"
        },
        {
          "t": 87580,
          "type": "note",
          "pitch": 62,
          "duration_ms": 89,
          "velocity": 127,
          "beat_index": 905,
          "section": "drop"
        },
        {
          "t": 87677,
          "type": "note",
          "pitch": 70,
          "duration_ms": 89,
          "velocity": 125,
          "beat_index": 906,
          "section": "drop"
        },
        {
          "t": 87774,
          "type": "note",
          "pitch": 62,
          "duration_ms": 89,
          "velocity": 127,
          "beat_index": 907,
          "section": "drop"
        },
        {
          "t": 87870,
          "type": "note",
          "pitch": 69,
          "duration_ms": 89,
          "velocity": 120,
          "beat_index": 908,
          "section": "drop"
        },
        {
          "t": 87967,
          "type": "note",
          "pitch": 67,
          "duration_ms": 89,
          "velocity": 120,
          "beat_index": 909,
          "section": "drop"
        },
        {
          "t": 88064,
          "type": "note",
          "pitch": 65,
          "duration_ms": 89,
          "velocity": 115,
          "beat_index": 910,
          "section": "drop"
        },
        {
          "t": 88161,
          "type": "note",
          "pitch": 64,
          "duration_ms": 89,
          "velocity": 115,
          "beat_index": 911,
          "section": "drop"
        },
        {
          "t": 88258,
          "type": "note",
          "pitch": 62,
          "duration_ms": 89,
          "velocity": 127,
          "beat_index": 912,
          "section": "drop"
        },
        {
          "t": 88354,
          "type": "note",
          "pitch": 62,
          "duration_ms": 89,
          "velocity": 127,
          "beat_index": 913,
          "section": "drop"
        },
        {
          "t": 88451,
          "type": "note",
          "pitch": 69,
          "duration_ms": 89,
          "velocity": 120,
          "beat_index": 914,
          "section": "drop"
        },
        {
          "t": 88548,
          "type": "note",
          "pitch": 62,
          "duration_ms": 89,
          "velocity": 127,
          "beat_index": 915,
          "section": "drop"
        },
        {
          "t": 88645,
          "type": "note",
          "pitch": 67,
          "duration_ms": 89,
          "velocity": 125,
          "beat_index": 916,
          "section": "drop"
        },
        {
          "t": 88741,
          "type": "note",
          "pitch": 62,
          "duration_ms": 89,
          "velocity": 127,
          "beat_index": 917,
          "section": "drop"
        },
        {
          "t": 88838,
          "type": "note",
          "pitch": 65,
          "duration_ms": 89,
          "velocity": 120,
          "beat_index": 918,
          "section": "drop"
        },
        {
          "t": 88935,
          "type": "note",
          "pitch": 62,
          "duration_ms": 89,
          "velocity": 127,
          "beat_index": 919,
          "section": "drop"
        },
        {
          "t": 89032,
          "type": "note",
          "pitch": 62,
          "duration_ms": 89,
          "velocity": 127,
          "beat_index": 920,
          "section": "drop"
        },
        {
          "t": 89129,
          "type": "note",
          "pitch": 62,
          "duration_ms": 89,
          "velocity": 127,
          "beat_index": 921,
          "section": "drop"
        },
        {
          "t": 89225,
          "type": "note",
          "pitch": 70,
          "duration_ms": 89,
          "velocity": 125,
          "beat_index": 922,
          "section": "drop"
        },
        {
          "t": 89322,
          "type": "note",
          "pitch": 62,
          "duration_ms": 89,
          "velocity": 127,
          "beat_index": 923,
          "section": "drop"
        },
        {
          "t": 89419,
          "type": "note",
          "pitch": 69,
          "duration_ms": 89,
          "velocity": 120,
          "beat_index": 924,
          "section": "drop"
        },
        {
          "t": 89516,
          "type": "note",
          "pitch": 67,
          "duration_ms": 89,
          "velocity": 120,
          "beat_index": 925,
          "section": "drop"
        },
        {
          "t": 89612,
          "type": "note",
          "pitch": 65,
          "duration_ms": 89,
          "velocity": 115,
          "beat_index": 926,
          "section": "drop"
        },
        {
          "t": 89709,
          "type": "note",
          "pitch": 64,
          "duration_ms": 89,
          "velocity": 115,
          "beat_index": 927,
          "section": "drop"
        },
        {
          "t": 89806,
          "type": "note",
          "pitch": 62,
          "duration_ms": 89,
          "velocity": 127,
          "beat_index": 928,
          "section": "drop"
        },
        {
          "t": 89903,
          "type": "note",
          "pitch": 62,
          "duration_ms": 89,
          "velocity": 127,
          "beat_index": 929,
          "section": "drop"
        },
        {
          "t": 90000,
          "type": "note",
          "pitch": 69,
          "duration_ms": 89,
          "velocity": 120,
          "beat_index": 930,
          "section": "drop"
        },
        {
          "t": 90096,
          "type": "note",
          "pitch": 62,
          "duration_ms": 89,
          "velocity": 127,
          "beat_index": 931,
          "section": "drop"
        },
        {
          "t": 90193,
          "type": "note",
          "pitch": 67,
          "duration_ms": 89,
          "velocity": 125,
          "beat_index": 932,
          "section": "drop"
        },
        {
          "t": 90290,
          "type": "note",
          "pitch": 62,
          "duration_ms": 89,
          "velocity": 127,
          "beat_index": 933,
          "section": "drop"
        },
        {
          "t": 90387,
          "type": "note",
          "pitch": 65,
          "duration_ms": 89,
          "velocity": 120,
          "beat_index": 934,
          "section": "drop"
        },
        {
          "t": 90483,
          "type": "note",
          "pitch": 62,
          "duration_ms": 89,
          "velocity": 127,
          "beat_index": 935,
          "section": "drop"
        },
        {
          "t": 90580,
          "type": "note",
          "pitch": 62,
          "duration_ms": 89,
          "velocity": 127,
          "beat_index": 936,
          "section": "drop"
        },
        {
          "t": 90677,
          "type": "note",
          "pitch": 62,
          "duration_ms": 89,
          "velocity": 127,
          "beat_index": 937,
          "section": "drop"
        },
        {
          "t": 90774,
          "type": "note",
          "pitch": 70,
          "duration_ms": 89,
          "velocity": 125,
          "beat_index": 938,
          "section": "drop"
        },
        {
          "t": 90870,
          "type": "note",
          "pitch": 62,
          "duration_ms": 89,
          "velocity": 127,
          "beat_index": 939,
          "section": "drop"
        },
        {
          "t": 90967,
          "type": "note",
          "pitch": 69,
          "duration_ms": 89,
          "velocity": 120,
          "beat_index": 940,
          "section": "drop"
        },
        {
          "t": 91064,
          "type": "note",
          "pitch": 67,
          "duration_ms": 89,
          "velocity": 120,
          "beat_index": 941,
          "section": "drop"
        },
        {
          "t": 91161,
          "type": "note",
          "pitch": 65,
          "duration_ms": 89,
          "velocity": 115,
          "beat_index": 942,
          "section": "drop"
        },
        {
          "t": 91258,
          "type": "note",
          "pitch": 64,
          "duration_ms": 89,
          "velocity": 115,
          "beat_index": 943,
          "section": "drop"
        },
        {
          "t": 91354,
          "type": "note",
          "pitch": 62,
          "duration_ms": 89,
          "velocity": 127,
          "beat_index": 944,
          "section": "drop"
        },
        {
          "t": 91451,
          "type": "note",
          "pitch": 62,
          "duration_ms": 89,
          "velocity": 127,
          "beat_index": 945,
          "section": "drop"
        },
        {
          "t": 91548,
          "type": "note",
          "pitch": 69,
          "duration_ms": 89,
          "velocity": 120,
          "beat_index": 946,
          "section": "drop"
        },
        {
          "t": 91645,
          "type": "note",
          "pitch": 62,
          "duration_ms": 89,
          "velocity": 127,
          "beat_index": 947,
          "section": "drop"
        },
        {
          "t": 91741,
          "type": "note",
          "pitch": 67,
          "duration_ms": 89,
          "velocity": 125,
          "beat_index": 948,
          "section": "drop"
        },
        {
          "t": 91838,
          "type": "note",
          "pitch": 62,
          "duration_ms": 89,
          "velocity": 127,
          "beat_index": 949,
          "section": "drop"
        },
        {
          "t": 91935,
          "type": "note",
          "pitch": 65,
          "duration_ms": 89,
          "velocity": 120,
          "beat_index": 950,
          "section": "drop"
        },
        {
          "t": 92032,
          "type": "note",
          "pitch": 62,
          "duration_ms": 89,
          "velocity": 127,
          "beat_index": 951,
          "section": "drop"
        },
        {
          "t": 92129,
          "type": "note",
          "pitch": 62,
          "duration_ms": 89,
          "velocity": 127,
          "beat_index": 952,
          "section": "drop"
        },
        {
          "t": 92225,
          "type": "note",
          "pitch": 62,
          "duration_ms": 89,
          "velocity": 127,
          "beat_index": 953,
          "section": "drop"
        },
        {
          "t": 92322,
          "type": "note",
          "pitch": 70,
          "duration_ms": 89,
          "velocity": 125,
          "beat_index": 954,
          "section": "drop"
        },
        {
          "t": 92419,
          "type": "note",
          "pitch": 62,
          "duration_ms": 89,
          "velocity": 127,
          "beat_index": 955,
          "section": "drop"
        },
        {
          "t": 92516,
          "type": "note",
          "pitch": 69,
          "duration_ms": 89,
          "velocity": 120,
          "beat_index": 956,
          "section": "drop"
        },
        {
          "t": 92612,
          "type": "note",
          "pitch": 67,
          "duration_ms": 89,
          "velocity": 120,
          "beat_index": 957,
          "section": "drop"
        },
        {
          "t": 92709,
          "type": "note",
          "pitch": 65,
          "duration_ms": 89,
          "velocity": 115,
          "beat_index": 958,
          "section": "drop"
        },
        {
          "t": 92806,
          "type": "note",
          "pitch": 64,
          "duration_ms": 89,
          "velocity": 115,
          "beat_index": 959,
          "section": "drop"
        },
        {
          "t": 92903,
          "type": "note",
          "pitch": 62,
          "duration_ms": 89,
          "velocity": 127,
          "beat_index": 960,
          "section": "drop"
        },
        {
          "t": 93000,
          "type": "note",
          "pitch": 62,
          "duration_ms": 89,
          "velocity": 127,
          "beat_index": 961,
          "section": "drop"
        },
        {
          "t": 93096,
          "type": "note",
          "pitch": 69,
          "duration_ms": 89,
          "velocity": 120,
          "beat_index": 962,
          "section": "drop"
        },
        {
          "t": 93193,
          "type": "note",
          "pitch": 62,
          "duration_ms": 89,
          "velocity": 127,
          "beat_index": 963,
          "section": "drop"
        },
        {
          "t": 93290,
          "type": "note",
          "pitch": 67,
          "duration_ms": 89,
          "velocity": 125,
          "beat_index": 964,
          "section": "drop"
        },
        {
          "t": 93387,
          "type": "note",
          "pitch": 62,
          "duration_ms": 89,
          "velocity": 127,
          "beat_index": 965,
          "section": "drop"
        },
        {
          "t": 93483,
          "type": "note",
          "pitch": 65,
          "duration_ms": 89,
          "velocity": 120,
          "beat_index": 966,
          "section": "drop"
        },
        {
          "t": 93580,
          "type": "note",
          "pitch": 62,
          "duration_ms": 89,
          "velocity": 127,
          "beat_index": 967,
          "section": "drop"
        },
        {
          "t": 93677,
          "type": "note",
          "pitch": 62,
          "duration_ms": 89,
          "velocity": 127,
          "beat_index": 968,
          "section": "drop"
        },
        {
          "t": 93774,
          "type": "note",
          "pitch": 62,
          "duration_ms": 89,
          "velocity": 127,
          "beat_index": 969,
          "section": "drop"
        },
        {
          "t": 93870,
          "type": "note",
          "pitch": 70,
          "duration_ms": 89,
          "velocity": 125,
          "beat_index": 970,
          "section": "drop"
        },
        {
          "t": 93967,
          "type": "note",
          "pitch": 62,
          "duration_ms": 89,
          "velocity": 127,
          "beat_index": 971,
          "section": "drop"
        },
        {
          "t": 94064,
          "type": "note",
          "pitch": 69,
          "duration_ms": 89,
          "velocity": 120,
          "beat_index": 972,
          "section": "drop"
        },
        {
          "t": 94161,
          "type": "note",
          "pitch": 67,
          "duration_ms": 89,
          "velocity": 120,
          "beat_index": 973,
          "section": "drop"
        },
        {
          "t": 94258,
          "type": "note",
          "pitch": 65,
          "duration_ms": 89,
          "velocity": 115,
          "beat_index": 974,
          "section": "drop"
        },
        {
          "t": 94354,
          "type": "note",
          "pitch": 64,
          "duration_ms": 89,
          "velocity": 115,
          "beat_index": 975,
          "section": "drop"
        },
        {
          "t": 94451,
          "type": "note",
          "pitch": 62,
          "duration_ms": 89,
          "velocity": 127,
          "beat_index": 976,
          "section": "drop"
        },
        {
          "t": 94548,
          "type": "note",
          "pitch": 62,
          "duration_ms": 89,
          "velocity": 127,
          "beat_index": 977,
          "section": "drop"
        },
        {
          "t": 94645,
          "type": "note",
          "pitch": 69,
          "duration_ms": 89,
          "velocity": 120,
          "beat_index": 978,
          "section": "drop"
        },
        {
          "t": 94741,
          "type": "note",
          "pitch": 62,
          "duration_ms": 89,
          "velocity": 127,
          "beat_index": 979,
          "section": "drop"
        },
        {
          "t": 94838,
          "type": "note",
          "pitch": 67,
          "duration_ms": 89,
          "velocity": 125,
          "beat_index": 980,
          "section": "drop"
        },
        {
          "t": 94935,
          "type": "note",
          "pitch": 62,
          "duration_ms": 89,
          "velocity": 127,
          "beat_index": 981,
          "section": "drop"
        },
        {
          "t": 95032,
          "type": "note",
          "pitch": 65,
          "duration_ms": 89,
          "velocity": 120,
          "beat_index": 982,
          "section": "drop"
        },
        {
          "t": 95129,
          "type": "note",
          "pitch": 62,
          "duration_ms": 89,
          "velocity": 127,
          "beat_index": 983,
          "section": "drop"
        },
        {
          "t": 95225,
          "type": "note",
          "pitch": 62,
          "duration_ms": 89,
          "velocity": 127,
          "beat_index": 984,
          "section": "drop"
        },
        {
          "t": 95322,
          "type": "note",
          "pitch": 62,
          "duration_ms": 89,
          "velocity": 127,
          "beat_index": 985,
          "section": "drop"
        },
        {
          "t": 95419,
          "type": "note",
          "pitch": 70,
          "duration_ms": 89,
          "velocity": 125,
          "beat_index": 986,
          "section": "drop"
        },
        {
          "t": 95516,
          "type": "note",
          "pitch": 62,
          "duration_ms": 89,
          "velocity": 127,
          "beat_index": 987,
          "section": "drop"
        },
        {
          "t": 95612,
          "type": "note",
          "pitch": 69,
          "duration_ms": 89,
          "velocity": 120,
          "beat_index": 988,
          "section": "drop"
        },
        {
          "t": 95709,
          "type": "note",
          "pitch": 67,
          "duration_ms": 89,
          "velocity": 120,
          "beat_index": 989,
          "section": "drop"
        },
        {
          "t": 95806,
          "type": "note",
          "pitch": 65,
          "duration_ms": 89,
          "velocity": 115,
          "beat_index": 990,
          "section": "drop"
        },
        {
          "t": 95903,
          "type": "note",
          "pitch": 64,
          "duration_ms": 89,
          "velocity": 115,
          "beat_index": 991,
          "section": "drop"
        },
        {
          "t": 96000,
          "type": "note",
          "pitch": 62,
          "duration_ms": 89,
          "velocity": 127,
          "beat_index": 992,
          "section": "drop"
        },
        {
          "t": 96096,
          "type": "note",
          "pitch": 62,
          "duration_ms": 89,
          "velocity": 127,
          "beat_index": 993,
          "section": "drop"
        },
        {
          "t": 96193,
          "type": "note",
          "pitch": 69,
          "duration_ms": 89,
          "velocity": 120,
          "beat_index": 994,
          "section": "drop"
        },
        {
          "t": 96290,
          "type": "note",
          "pitch": 62,
          "duration_ms": 89,
          "velocity": 127,
          "beat_index": 995,
          "section": "drop"
        },
        {
          "t": 96387,
          "type": "note",
          "pitch": 67,
          "duration_ms": 89,
          "velocity": 125,
          "beat_index": 996,
          "section": "drop"
        },
        {
          "t": 96483,
          "type": "note",
          "pitch": 62,
          "duration_ms": 89,
          "velocity": 127,
          "beat_index": 997,
          "section": "drop"
        },
        {
          "t": 96580,
          "type": "note",
          "pitch": 65,
          "duration_ms": 89,
          "velocity": 120,
          "beat_index": 998,
          "section": "drop"
        },
        {
          "t": 96677,
          "type": "note",
          "pitch": 62,
          "duration_ms": 89,
          "velocity": 127,
          "beat_index": 999,
          "section": "drop"
        },
        {
          "t": 96774,
          "type": "note",
          "pitch": 62,
          "duration_ms": 89,
          "velocity": 127,
          "beat_index": 1000,
          "section": "drop"
        },
        {
          "t": 96870,
          "type": "note",
          "pitch": 62,
          "duration_ms": 89,
          "velocity": 127,
          "beat_index": 1001,
          "section": "drop"
        },
        {
          "t": 96967,
          "type": "note",
          "pitch": 70,
          "duration_ms": 89,
          "velocity": 125,
          "beat_index": 1002,
          "section": "drop"
        },
        {
          "t": 97064,
          "type": "note",
          "pitch": 62,
          "duration_ms": 89,
          "velocity": 127,
          "beat_index": 1003,
          "section": "drop"
        },
        {
          "t": 97161,
          "type": "note",
          "pitch": 69,
          "duration_ms": 89,
          "velocity": 120,
          "beat_index": 1004,
          "section": "drop"
        },
        {
          "t": 97258,
          "type": "note",
          "pitch": 67,
          "duration_ms": 89,
          "velocity": 120,
          "beat_index": 1005,
          "section": "drop"
        },
        {
          "t": 97354,
          "type": "note",
          "pitch": 65,
          "duration_ms": 89,
          "velocity": 115,
          "beat_index": 1006,
          "section": "drop"
        },
        {
          "t": 97451,
          "type": "note",
          "pitch": 64,
          "duration_ms": 89,
          "velocity": 115,
          "beat_index": 1007,
          "section": "drop"
        },
        {
          "t": 97548,
          "type": "note",
          "pitch": 62,
          "duration_ms": 89,
          "velocity": 127,
          "beat_index": 1008,
          "section": "drop"
        },
        {
          "t": 97645,
          "type": "note",
          "pitch": 62,
          "duration_ms": 89,
          "velocity": 127,
          "beat_index": 1009,
          "section": "drop"
        },
        {
          "t": 97741,
          "type": "note",
          "pitch": 69,
          "duration_ms": 89,
          "velocity": 120,
          "beat_index": 1010,
          "section": "drop"
        },
        {
          "t": 97838,
          "type": "note",
          "pitch": 62,
          "duration_ms": 89,
          "velocity": 127,
          "beat_index": 1011,
          "section": "drop"
        },
        {
          "t": 97935,
          "type": "note",
          "pitch": 67,
          "duration_ms": 89,
          "velocity": 125,
          "beat_index": 1012,
          "section": "drop"
        },
        {
          "t": 98032,
          "type": "note",
          "pitch": 62,
          "duration_ms": 89,
          "velocity": 127,
          "beat_index": 1013,
          "section": "drop"
        },
        {
          "t": 98129,
          "type": "note",
          "pitch": 65,
          "duration_ms": 89,
          "velocity": 120,
          "beat_index": 1014,
          "section": "drop"
        },
        {
          "t": 98225,
          "type": "note",
          "pitch": 62,
          "duration_ms": 89,
          "velocity": 127,
          "beat_index": 1015,
          "section": "drop"
        },
        {
          "t": 98322,
          "type": "note",
          "pitch": 62,
          "duration_ms": 89,
          "velocity": 127,
          "beat_index": 1016,
          "section": "drop"
        },
        {
          "t": 98419,
          "type": "note",
          "pitch": 62,
          "duration_ms": 89,
          "velocity": 127,
          "beat_index": 1017,
          "section": "drop"
        },
        {
          "t": 98516,
          "type": "note",
          "pitch": 70,
          "duration_ms": 89,
          "velocity": 125,
          "beat_index": 1018,
          "section": "drop"
        },
        {
          "t": 98612,
          "type": "note",
          "pitch": 62,
          "duration_ms": 89,
          "velocity": 127,
          "beat_index": 1019,
          "section": "drop"
        },
        {
          "t": 98709,
          "type": "note",
          "pitch": 69,
          "duration_ms": 89,
          "velocity": 120,
          "beat_index": 1020,
          "section": "drop"
        },
        {
          "t": 98806,
          "type": "note",
          "pitch": 67,
          "duration_ms": 89,
          "velocity": 120,
          "beat_index": 1021,
          "section": "drop"
        },
        {
          "t": 98903,
          "type": "note",
          "pitch": 65,
          "duration_ms": 89,
          "velocity": 115,
          "beat_index": 1022,
          "section": "drop"
        },
        {
          "t": 99000,
          "type": "note",
          "pitch": 64,
          "duration_ms": 89,
          "velocity": 115,
          "beat_index": 1023,
          "section": "drop"
        },
        {
          "t": 99096,
          "type": "note",
          "pitch": 62,
          "duration_ms": 356,
          "velocity": 70,
          "beat_index": 1024,
          "section": "bridge"
        },
        {
          "t": 99870,
          "type": "note",
          "pitch": 69,
          "duration_ms": 356,
          "velocity": 75,
          "beat_index": 1032,
          "section": "bridge"
        },
        {
          "t": 100645,
          "type": "note",
          "pitch": 62,
          "duration_ms": 356,
          "velocity": 70,
          "beat_index": 1040,
          "section": "bridge"
        },
        {
          "t": 101419,
          "type": "note",
          "pitch": 69,
          "duration_ms": 356,
          "velocity": 75,
          "beat_index": 1048,
          "section": "bridge"
        },
        {
          "t": 102193,
          "type": "note",
          "pitch": 62,
          "duration_ms": 356,
          "velocity": 70,
          "beat_index": 1056,
          "section": "bridge"
        },
        {
          "t": 102967,
          "type": "note",
          "pitch": 69,
          "duration_ms": 356,
          "velocity": 75,
          "beat_index": 1064,
          "section": "bridge"
        },
        {
          "t": 103741,
          "type": "note",
          "pitch": 62,
          "duration_ms": 356,
          "velocity": 70,
          "beat_index": 1072,
          "section": "bridge"
        },
        {
          "t": 104516,
          "type": "note",
          "pitch": 69,
          "duration_ms": 356,
          "velocity": 75,
          "beat_index": 1080,
          "section": "bridge"
        },
        {
          "t": 105290,
          "type": "note",
          "pitch": 62,
          "duration_ms": 356,
          "velocity": 70,
          "beat_index": 1088,
          "section": "bridge"
        },
        {
          "t": 106064,
          "type": "note",
          "pitch": 69,
          "duration_ms": 356,
          "velocity": 75,
          "beat_index": 1096,
          "section": "bridge"
        },
        {
          "t": 106838,
          "type": "note",
          "pitch": 62,
          "duration_ms": 356,
          "velocity": 70,
          "beat_index": 1104,
          "section": "bridge"
        },
        {
          "t": 107612,
          "type": "note",
          "pitch": 69,
          "duration_ms": 356,
          "velocity": 75,
          "beat_index": 1112,
          "section": "bridge"
        },
        {
          "t": 108387,
          "type": "note",
          "pitch": 62,
          "duration_ms": 356,
          "velocity": 70,
          "beat_index": 1120,
          "section": "bridge"
        },
        {
          "t": 109161,
          "type": "note",
          "pitch": 69,
          "duration_ms": 356,
          "velocity": 75,
          "beat_index": 1128,
          "section": "bridge"
        },
        {
          "t": 109935,
          "type": "note",
          "pitch": 62,
          "duration_ms": 356,
          "velocity": 70,
          "beat_index": 1136,
          "section": "bridge"
        },
        {
          "t": 110709,
          "type": "note",
          "pitch": 69,
          "duration_ms": 356,
          "velocity": 75,
          "beat_index": 1144,
          "section": "bridge"
        },
        {
          "t": 111483,
          "type": "note",
          "pitch": 62,
          "duration_ms": 356,
          "velocity": 70,
          "beat_index": 1152,
          "section": "bridge"
        },
        {
          "t": 112258,
          "type": "note",
          "pitch": 69,
          "duration_ms": 356,
          "velocity": 75,
          "beat_index": 1160,
          "section": "bridge"
        },
        {
          "t": 113032,
          "type": "note",
          "pitch": 62,
          "duration_ms": 356,
          "velocity": 70,
          "beat_index": 1168,
          "section": "bridge"
        },
        {
          "t": 113806,
          "type": "note",
          "pitch": 69,
          "duration_ms": 356,
          "velocity": 75,
          "beat_index": 1176,
          "section": "bridge"
        },
        {
          "t": 114580,
          "type": "note",
          "pitch": 62,
          "duration_ms": 356,
          "velocity": 70,
          "beat_index": 1184,
          "section": "bridge"
        },
        {
          "t": 115354,
          "type": "note",
          "pitch": 69,
          "duration_ms": 356,
          "velocity": 75,
          "beat_index": 1192,
          "section": "bridge"
        },
        {
          "t": 116129,
          "type": "note",
          "pitch": 62,
          "duration_ms": 356,
          "velocity": 70,
          "beat_index": 1200,
          "section": "bridge"
        },
        {
          "t": 116903,
          "type": "note",
          "pitch": 69,
          "duration_ms": 356,
          "velocity": 75,
          "beat_index": 1208,
          "section": "bridge"
        },
        {
          "t": 117677,
          "type": "note",
          "pitch": 62,
          "duration_ms": 356,
          "velocity": 70,
          "beat_index": 1216,
          "section": "bridge"
        },
        {
          "t": 118451,
          "type": "note",
          "pitch": 69,
          "duration_ms": 356,
          "velocity": 75,
          "beat_index": 1224,
          "section": "bridge"
        },
        {
          "t": 119225,
          "type": "note",
          "pitch": 62,
          "duration_ms": 356,
          "velocity": 70,
          "beat_index": 1232,
          "section": "bridge"
        },
        {
          "t": 120000,
          "type": "note",
          "pitch": 69,
          "duration_ms": 356,
          "velocity": 75,
          "beat_index": 1240,
          "section": "bridge"
        },
        {
          "t": 120774,
          "type": "note",
          "pitch": 62,
          "duration_ms": 356,
          "velocity": 70,
          "beat_index": 1248,
          "section": "bridge"
        },
        {
          "t": 121548,
          "type": "note",
          "pitch": 69,
          "duration_ms": 356,
          "velocity": 75,
          "beat_index": 1256,
          "section": "bridge"
        },
        {
          "t": 122322,
          "type": "note",
          "pitch": 62,
          "duration_ms": 356,
          "velocity": 70,
          "beat_index": 1264,
          "section": "bridge"
        },
        {
          "t": 123096,
          "type": "note",
          "pitch": 69,
          "duration_ms": 356,
          "velocity": 75,
          "beat_index": 1272,
          "section": "bridge"
        },
        {
          "t": 123870,
          "type": "note",
          "pitch": 62,
          "duration_ms": 356,
          "velocity": 60,
          "beat_index": 1280,
          "section": "outro"
        },
        {
          "t": 124258,
          "type": "note",
          "pitch": 50,
          "duration_ms": 356,
          "velocity": 50,
          "beat_index": 1284,
          "section": "outro"
        },
        {
          "t": 124645,
          "type": "note",
          "pitch": 50,
          "duration_ms": 356,
          "velocity": 40,
          "beat_index": 1288,
          "section": "outro"
        },
        {
          "t": 125419,
          "type": "note",
          "pitch": 62,
          "duration_ms": 356,
          "velocity": 60,
          "beat_index": 1296,
          "section": "outro"
        },
        {
          "t": 125806,
          "type": "note",
          "pitch": 50,
          "duration_ms": 356,
          "velocity": 50,
          "beat_index": 1300,
          "section": "outro"
        },
        {
          "t": 126193,
          "type": "note",
          "pitch": 50,
          "duration_ms": 356,
          "velocity": 40,
          "beat_index": 1304,
          "section": "outro"
        },
        {
          "t": 126967,
          "type": "note",
          "pitch": 62,
          "duration_ms": 356,
          "velocity": 60,
          "beat_index": 1312,
          "section": "outro"
        },
        {
          "t": 127354,
          "type": "note",
          "pitch": 50,
          "duration_ms": 356,
          "velocity": 50,
          "beat_index": 1316,
          "section": "outro"
        },
        {
          "t": 127741,
          "type": "note",
          "pitch": 50,
          "duration_ms": 356,
          "velocity": 40,
          "beat_index": 1320,
          "section": "outro"
        },
        {
          "t": 128516,
          "type": "note",
          "pitch": 62,
          "duration_ms": 356,
          "velocity": 60,
          "beat_index": 1328,
          "section": "outro"
        },
        {
          "t": 128903,
          "type": "note",
          "pitch": 50,
          "duration_ms": 356,
          "velocity": 50,
          "beat_index": 1332,
          "section": "outro"
        },
        {
          "t": 129290,
          "type": "note",
          "pitch": 50,
          "duration_ms": 356,
          "velocity": 40,
          "beat_index": 1336,
          "section": "outro"
        },
        {
          "t": 130064,
          "type": "note",
          "pitch": 62,
          "duration_ms": 356,
          "velocity": 60,
          "beat_index": 1344,
          "section": "outro"
        },
        {
          "t": 130451,
          "type": "note",
          "pitch": 50,
          "duration_ms": 356,
          "velocity": 50,
          "beat_index": 1348,
          "section": "outro"
        },
        {
          "t": 130838,
          "type": "note",
          "pitch": 50,
          "duration_ms": 356,
          "velocity": 40,
          "beat_index": 1352,
          "section": "outro"
        },
        {
          "t": 131612,
          "type": "note",
          "pitch": 62,
          "duration_ms": 356,
          "velocity": 60,
          "beat_index": 1360,
          "section": "outro"
        },
        {
          "t": 132000,
          "type": "note",
          "pitch": 50,
          "duration_ms": 356,
          "velocity": 50,
          "beat_index": 1364,
          "section": "outro"
        },
        {
          "t": 132387,
          "type": "note",
          "pitch": 50,
          "duration_ms": 356,
          "velocity": 40,
          "beat_index": 1368,
          "section": "outro"
        },
        {
          "t": 133161,
          "type": "note",
          "pitch": 62,
          "duration_ms": 356,
          "velocity": 60,
          "beat_index": 1376,
          "section": "outro"
        },
        {
          "t": 133548,
          "type": "note",
          "pitch": 50,
          "duration_ms": 356,
          "velocity": 50,
          "beat_index": 1380,
          "section": "outro"
        },
        {
          "t": 133935,
          "type": "note",
          "pitch": 50,
          "duration_ms": 356,
          "velocity": 40,
          "beat_index": 1384,
          "section": "outro"
        },
        {
          "t": 134709,
          "type": "note",
          "pitch": 62,
          "duration_ms": 356,
          "velocity": 60,
          "beat_index": 1392,
          "section": "outro"
        },
        {
          "t": 135096,
          "type": "note",
          "pitch": 50,
          "duration_ms": 356,
          "velocity": 50,
          "beat_index": 1396,
          "section": "outro"
        },
        {
          "t": 135483,
          "type": "note",
          "pitch": 50,
          "duration_ms": 356,
          "velocity": 40,
          "beat_index": 1400,
          "section": "outro"
        }
      ]
    }
  ]
}