{
  "rsong_version": "1.0",
  "generated_by": "cadence",
  "generated_at": "2026-05-29T16:25:23.646764+00:00",
  "header": {
    "id": "b53d59d6-e91c-4c1f-bf61-1ed80cd9fb95",
    "title": "cadence_game_aggressive",
    "bpm": 145,
    "time_signature": [
      4,
      4
    ],
    "key": "F# minor",
    "duration_ms": 184827,
    "genre_tags": [
      "techno",
      "dubstep",
      "industrial",
      "dark"
    ],
    "total_bars": 112
  },
  "game_meta": {
    "use_case": "game",
    "loop_point_ms": 39724,
    "intensity_curve": [
      0.67,
      0.741,
      0.889,
      0.623,
      0.889,
      0.67
    ],
    "cue_points": [
      {
        "label": "intro",
        "t": 0
      },
      {
        "label": "build-up",
        "t": 13241
      },
      {
        "label": "drop",
        "t": 39724
      },
      {
        "label": "breakdown",
        "t": 92689
      },
      {
        "label": "drop",
        "t": 119172
      },
      {
        "label": "outro",
        "t": 172137
      }
    ],
    "energy_level": 5,
    "hit_objects_hint": true,
    "sections": [
      "intro",
      "build-up",
      "drop",
      "breakdown",
      "drop",
      "outro"
    ]
  },
  "validation": {
    "score": 1.0,
    "retry_count": 0
  },
  "tracks": [
    {
      "id": "drums",
      "instrument": "Drum Kit",
      "midi_channel": 9,
      "role": "rhythm",
      "event_count": 1568,
      "events": [
        {
          "t": 0,
          "type": "drum_hit",
          "pitch": 36,
          "duration_ms": 93,
          "velocity": 70,
          "beat_index": 0,
          "section": "intro"
        },
        {
          "t": 0,
          "type": "drum_hit",
          "pitch": 42,
          "duration_ms": 93,
          "velocity": 50,
          "beat_index": 0,
          "section": "intro"
        },
        {
          "t": 206,
          "type": "drum_hit",
          "pitch": 42,
          "duration_ms": 93,
          "velocity": 50,
          "beat_index": 2,
          "section": "intro"
        },
        {
          "t": 413,
          "type": "drum_hit",
          "pitch": 36,
          "duration_ms": 93,
          "velocity": 70,
          "beat_index": 4,
          "section": "intro"
        },
        {
          "t": 413,
          "type": "drum_hit",
          "pitch": 38,
          "duration_ms": 93,
          "velocity": 60,
          "beat_index": 4,
          "section": "intro"
        },
        {
          "t": 413,
          "type": "drum_hit",
          "pitch": 42,
          "duration_ms": 93,
          "velocity": 50,
          "beat_index": 4,
          "section": "intro"
        },
        {
          "t": 620,
          "type": "drum_hit",
          "pitch": 42,
          "duration_ms": 93,
          "velocity": 50,
          "beat_index": 6,
          "section": "intro"
        },
        {
          "t": 827,
          "type": "drum_hit",
          "pitch": 36,
          "duration_ms": 93,
          "velocity": 70,
          "beat_index": 8,
          "section": "intro"
        },
        {
          "t": 827,
          "type": "drum_hit",
          "pitch": 42,
          "duration_ms": 93,
          "velocity": 50,
          "beat_index": 8,
          "section": "intro"
        },
        {
          "t": 1034,
          "type": "drum_hit",
          "pitch": 42,
          "duration_ms": 93,
          "velocity": 50,
          "beat_index": 10,
          "section": "intro"
        },
        {
          "t": 1241,
          "type": "drum_hit",
          "pitch": 36,
          "duration_ms": 93,
          "velocity": 70,
          "beat_index": 12,
          "section": "intro"
        },
        {
          "t": 1241,
          "type": "drum_hit",
          "pitch": 38,
          "duration_ms": 93,
          "velocity": 60,
          "beat_index": 12,
          "section": "intro"
        },
        {
          "t": 1241,
          "type": "drum_hit",
          "pitch": 42,
          "duration_ms": 93,
          "velocity": 50,
          "beat_index": 12,
          "section": "intro"
        },
        {
          "t": 1448,
          "type": "drum_hit",
          "pitch": 42,
          "duration_ms": 93,
          "velocity": 50,
          "beat_index": 14,
          "section": "intro"
        },
        {
          "t": 1655,
          "type": "drum_hit",
          "pitch": 36,
          "duration_ms": 93,
          "velocity": 70,
          "beat_index": 16,
          "section": "intro"
        },
        {
          "t": 1655,
          "type": "drum_hit",
          "pitch": 42,
          "duration_ms": 93,
          "velocity": 50,
          "beat_index": 16,
          "section": "intro"
        },
        {
          "t": 1862,
          "type": "drum_hit",
          "pitch": 42,
          "duration_ms": 93,
          "velocity": 50,
          "beat_index": 18,
          "section": "intro"
        },
        {
          "t": 2068,
          "type": "drum_hit",
          "pitch": 36,
          "duration_ms": 93,
          "velocity": 70,
          "beat_index": 20,
          "section": "intro"
        },
        {
          "t": 2068,
          "type": "drum_hit",
          "pitch": 38,
          "duration_ms": 93,
          "velocity": 60,
          "beat_index": 20,
          "section": "intro"
        },
        {
          "t": 2068,
          "type": "drum_hit",
          "pitch": 42,
          "duration_ms": 93,
          "velocity": 50,
          "beat_index": 20,
          "section": "intro"
        },
        {
          "t": 2275,
          "type": "drum_hit",
          "pitch": 42,
          "duration_ms": 93,
          "velocity": 50,
          "beat_index": 22,
          "section": "intro"
        },
        {
          "t": 2482,
          "type": "drum_hit",
          "pitch": 36,
          "duration_ms": 93,
          "velocity": 70,
          "beat_index": 24,
          "section": "intro"
        },
        {
          "t": 2482,
          "type": "drum_hit",
          "pitch": 42,
          "duration_ms": 93,
          "velocity": 50,
          "beat_index": 24,
          "section": "intro"
        },
        {
          "t": 2689,
          "type": "drum_hit",
          "pitch": 42,
          "duration_ms": 93,
          "velocity": 50,
          "beat_index": 26,
          "section": "intro"
        },
        {
          "t": 2896,
          "type": "drum_hit",
          "pitch": 36,
          "duration_ms": 93,
          "velocity": 70,
          "beat_index": 28,
          "section": "intro"
        },
        {
          "t": 2896,
          "type": "drum_hit",
          "pitch": 38,
          "duration_ms": 93,
          "velocity": 60,
          "beat_index": 28,
          "section": "intro"
        },
        {
          "t": 2896,
          "type": "drum_hit",
          "pitch": 42,
          "duration_ms": 93,
          "velocity": 50,
          "beat_index": 28,
          "section": "intro"
        },
        {
          "t": 3103,
          "type": "drum_hit",
          "pitch": 42,
          "duration_ms": 93,
          "velocity": 50,
          "beat_index": 30,
          "section": "intro"
        },
        {
          "t": 3310,
          "type": "drum_hit",
          "pitch": 36,
          "duration_ms": 93,
          "velocity": 70,
          "beat_index": 32,
          "section": "intro"
        },
        {
          "t": 3310,
          "type": "drum_hit",
          "pitch": 42,
          "duration_ms": 93,
          "velocity": 50,
          "beat_index": 32,
          "section": "intro"
        },
        {
          "t": 3517,
          "type": "drum_hit",
          "pitch": 42,
          "duration_ms": 93,
          "velocity": 50,
          "beat_index": 34,
          "section": "intro"
        },
        {
          "t": 3724,
          "type": "drum_hit",
          "pitch": 36,
          "duration_ms": 93,
          "velocity": 70,
          "beat_index": 36,
          "section": "intro"
        },
        {
          "t": 3724,
          "type": "drum_hit",
          "pitch": 38,
          "duration_ms": 93,
          "velocity": 60,
          "beat_index": 36,
          "section": "intro"
        },
        {
          "t": 3724,
          "type": "drum_hit",
          "pitch": 42,
          "duration_ms": 93,
          "velocity": 50,
          "beat_index": 36,
          "section": "intro"
        },
        {
          "t": 3931,
          "type": "drum_hit",
          "pitch": 42,
          "duration_ms": 93,
          "velocity": 50,
          "beat_index": 38,
          "section": "intro"
        },
        {
          "t": 4137,
          "type": "drum_hit",
          "pitch": 36,
          "duration_ms": 93,
          "velocity": 70,
          "beat_index": 40,
          "section": "intro"
        },
        {
          "t": 4137,
          "type": "drum_hit",
          "pitch": 42,
          "duration_ms": 93,
          "velocity": 50,
          "beat_index": 40,
          "section": "intro"
        },
        {
          "t": 4344,
          "type": "drum_hit",
          "pitch": 42,
          "duration_ms": 93,
          "velocity": 50,
          "beat_index": 42,
          "section": "intro"
        },
        {
          "t": 4551,
          "type": "drum_hit",
          "pitch": 36,
          "duration_ms": 93,
          "velocity": 70,
          "beat_index": 44,
          "section": "intro"
        },
        {
          "t": 4551,
          "type": "drum_hit",
          "pitch": 38,
          "duration_ms": 93,
          "velocity": 60,
          "beat_index": 44,
          "section": "intro"
        },
        {
          "t": 4551,
          "type": "drum_hit",
          "pitch": 42,
          "duration_ms": 93,
          "velocity": 50,
          "beat_index": 44,
          "section": "intro"
        },
        {
          "t": 4758,
          "type": "drum_hit",
          "pitch": 42,
          "duration_ms": 93,
          "velocity": 50,
          "beat_index": 46,
          "section": "intro"
        },
        {
          "t": 4965,
          "type": "drum_hit",
          "pitch": 36,
          "duration_ms": 93,
          "velocity": 70,
          "beat_index": 48,
          "section": "intro"
        },
        {
          "t": 4965,
          "type": "drum_hit",
          "pitch": 42,
          "duration_ms": 93,
          "velocity": 50,
          "beat_index": 48,
          "section": "intro"
        },
        {
          "t": 5172,
          "type": "drum_hit",
          "pitch": 42,
          "duration_ms": 93,
          "velocity": 50,
          "beat_index": 50,
          "section": "intro"
        },
        {
          "t": 5379,
          "type": "drum_hit",
          "pitch": 36,
          "duration_ms": 93,
          "velocity": 70,
          "beat_index": 52,
          "section": "intro"
        },
        {
          "t": 5379,
          "type": "drum_hit",
          "pitch": 38,
          "duration_ms": 93,
          "velocity": 60,
          "beat_index": 52,
          "section": "intro"
        },
        {
          "t": 5379,
          "type": "drum_hit",
          "pitch": 42,
          "duration_ms": 93,
          "velocity": 50,
          "beat_index": 52,
          "section": "intro"
        },
        {
          "t": 5586,
          "type": "drum_hit",
          "pitch": 42,
          "duration_ms": 93,
          "velocity": 50,
          "beat_index": 54,
          "section": "intro"
        },
        {
          "t": 5793,
          "type": "drum_hit",
          "pitch": 36,
          "duration_ms": 93,
          "velocity": 70,
          "beat_index": 56,
          "section": "intro"
        },
        {
          "t": 5793,
          "type": "drum_hit",
          "pitch": 42,
          "duration_ms": 93,
          "velocity": 50,
          "beat_index": 56,
          "section": "intro"
        },
        {
          "t": 6000,
          "type": "drum_hit",
          "pitch": 42,
          "duration_ms": 93,
          "velocity": 50,
          "beat_index": 58,
          "section": "intro"
        },
        {
          "t": 6206,
          "type": "drum_hit",
          "pitch": 36,
          "duration_ms": 93,
          "velocity": 70,
          "beat_index": 60,
          "section": "intro"
        },
        {
          "t": 6206,
          "type": "drum_hit",
          "pitch": 38,
          "duration_ms": 93,
          "velocity": 60,
          "beat_index": 60,
          "section": "intro"
        },
        {
          "t": 6206,
          "type": "drum_hit",
          "pitch": 42,
          "duration_ms": 93,
          "velocity": 50,
          "beat_index": 60,
          "section": "intro"
        },
        {
          "t": 6413,
          "type": "drum_hit",
          "pitch": 42,
          "duration_ms": 93,
          "velocity": 50,
          "beat_index": 62,
          "section": "intro"
        },
        {
          "t": 6620,
          "type": "drum_hit",
          "pitch": 36,
          "duration_ms": 93,
          "velocity": 70,
          "beat_index": 64,
          "section": "intro"
        },
        {
          "t": 6620,
          "type": "drum_hit",
          "pitch": 42,
          "duration_ms": 93,
          "velocity": 50,
          "beat_index": 64,
          "section": "intro"
        },
        {
          "t": 6827,
          "type": "drum_hit",
          "pitch": 42,
          "duration_ms": 93,
          "velocity": 50,
          "beat_index": 66,
          "section": "intro"
        },
        {
          "t": 7034,
          "type": "drum_hit",
          "pitch": 36,
          "duration_ms": 93,
          "velocity": 70,
          "beat_index": 68,
          "section": "intro"
        },
        {
          "t": 7034,
          "type": "drum_hit",
          "pitch": 38,
          "duration_ms": 93,
          "velocity": 60,
          "beat_index": 68,
          "section": "intro"
        },
        {
          "t": 7034,
          "type": "drum_hit",
          "pitch": 42,
          "duration_ms": 93,
          "velocity": 50,
          "beat_index": 68,
          "section": "intro"
        },
        {
          "t": 7241,
          "type": "drum_hit",
          "pitch": 42,
          "duration_ms": 93,
          "velocity": 50,
          "beat_index": 70,
          "section": "intro"
        },
        {
          "t": 7448,
          "type": "drum_hit",
          "pitch": 36,
          "duration_ms": 93,
          "velocity": 70,
          "beat_index": 72,
          "section": "intro"
        },
        {
          "t": 7448,
          "type": "drum_hit",
          "pitch": 42,
          "duration_ms": 93,
          "velocity": 50,
          "beat_index": 72,
          "section": "intro"
        },
        {
          "t": 7655,
          "type": "drum_hit",
          "pitch": 42,
          "duration_ms": 93,
          "velocity": 50,
          "beat_index": 74,
          "section": "intro"
        },
        {
          "t": 7862,
          "type": "drum_hit",
          "pitch": 36,
          "duration_ms": 93,
          "velocity": 70,
          "beat_index": 76,
          "section": "intro"
        },
        {
          "t": 7862,
          "type": "drum_hit",
          "pitch": 38,
          "duration_ms": 93,
          "velocity": 60,
          "beat_index": 76,
          "section": "intro"
        },
        {
          "t": 7862,
          "type": "drum_hit",
          "pitch": 42,
          "duration_ms": 93,
          "velocity": 50,
          "beat_index": 76,
          "section": "intro"
        },
        {
          "t": 8068,
          "type": "drum_hit",
          "pitch": 42,
          "duration_ms": 93,
          "velocity": 50,
          "beat_index": 78,
          "section": "intro"
        },
        {
          "t": 8275,
          "type": "drum_hit",
          "pitch": 36,
          "duration_ms": 93,
          "velocity": 70,
          "beat_index": 80,
          "section": "intro"
        },
        {
          "t": 8275,
          "type": "drum_hit",
          "pitch": 42,
          "duration_ms": 93,
          "velocity": 50,
          "beat_index": 80,
          "section": "intro"
        },
        {
          "t": 8482,
          "type": "drum_hit",
          "pitch": 42,
          "duration_ms": 93,
          "velocity": 50,
          "beat_index": 82,
          "section": "intro"
        },
        {
          "t": 8689,
          "type": "drum_hit",
          "pitch": 36,
          "duration_ms": 93,
          "velocity": 70,
          "beat_index": 84,
          "section": "intro"
        },
        {
          "t": 8689,
          "type": "drum_hit",
          "pitch": 38,
          "duration_ms": 93,
          "velocity": 60,
          "beat_index": 84,
          "section": "intro"
        },
        {
          "t": 8689,
          "type": "drum_hit",
          "pitch": 42,
          "duration_ms": 93,
          "velocity": 50,
          "beat_index": 84,
          "section": "intro"
        },
        {
          "t": 8896,
          "type": "drum_hit",
          "pitch": 42,
          "duration_ms": 93,
          "velocity": 50,
          "beat_index": 86,
          "section": "intro"
        },
        {
          "t": 9103,
          "type": "drum_hit",
          "pitch": 36,
          "duration_ms": 93,
          "velocity": 70,
          "beat_index": 88,
          "section": "intro"
        },
        {
          "t": 9103,
          "type": "drum_hit",
          "pitch": 42,
          "duration_ms": 93,
          "velocity": 50,
          "beat_index": 88,
          "section": "intro"
        },
        {
          "t": 9310,
          "type": "drum_hit",
          "pitch": 42,
          "duration_ms": 93,
          "velocity": 50,
          "beat_index": 90,
          "section": "intro"
        },
        {
          "t": 9517,
          "type": "drum_hit",
          "pitch": 36,
          "duration_ms": 93,
          "velocity": 70,
          "beat_index": 92,
          "section": "intro"
        },
        {
          "t": 9517,
          "type": "drum_hit",
          "pitch": 38,
          "duration_ms": 93,
          "velocity": 60,
          "beat_index": 92,
          "section": "intro"
        },
        {
          "t": 9517,
          "type": "drum_hit",
          "pitch": 42,
          "duration_ms": 93,
          "velocity": 50,
          "beat_index": 92,
          "section": "intro"
        },
        {
          "t": 9724,
          "type": "drum_hit",
          "pitch": 42,
          "duration_ms": 93,
          "velocity": 50,
          "beat_index": 94,
          "section": "intro"
        },
        {
          "t": 9931,
          "type": "drum_hit",
          "pitch": 36,
          "duration_ms": 93,
          "velocity": 70,
          "beat_index": 96,
          "section": "intro"
        },
        {
          "t": 9931,
          "type": "drum_hit",
          "pitch": 42,
          "duration_ms": 93,
          "velocity": 50,
          "beat_index": 96,
          "section": "intro"
        },
        {
          "t": 10137,
          "type": "drum_hit",
          "pitch": 42,
          "duration_ms": 93,
          "velocity": 50,
          "beat_index": 98,
          "section": "intro"
        },
        {
          "t": 10344,
          "type": "drum_hit",
          "pitch": 36,
          "duration_ms": 93,
          "velocity": 70,
          "beat_index": 100,
          "section": "intro"
        },
        {
          "t": 10344,
          "type": "drum_hit",
          "pitch": 38,
          "duration_ms": 93,
          "velocity": 60,
          "beat_index": 100,
          "section": "intro"
        },
        {
          "t": 10344,
          "type": "drum_hit",
          "pitch": 42,
          "duration_ms": 93,
          "velocity": 50,
          "beat_index": 100,
          "section": "intro"
        },
        {
          "t": 10551,
          "type": "drum_hit",
          "pitch": 42,
          "duration_ms": 93,
          "velocity": 50,
          "beat_index": 102,
          "section": "intro"
        },
        {
          "t": 10758,
          "type": "drum_hit",
          "pitch": 36,
          "duration_ms": 93,
          "velocity": 70,
          "beat_index": 104,
          "section": "intro"
        },
        {
          "t": 10758,
          "type": "drum_hit",
          "pitch": 42,
          "duration_ms": 93,
          "velocity": 50,
          "beat_index": 104,
          "section": "intro"
        },
        {
          "t": 10965,
          "type": "drum_hit",
          "pitch": 42,
          "duration_ms": 93,
          "velocity": 50,
          "beat_index": 106,
          "section": "intro"
        },
        {
          "t": 11172,
          "type": "drum_hit",
          "pitch": 36,
          "duration_ms": 93,
          "velocity": 70,
          "beat_index": 108,
          "section": "intro"
        },
        {
          "t": 11172,
          "type": "drum_hit",
          "pitch": 38,
          "duration_ms": 93,
          "velocity": 60,
          "beat_index": 108,
          "section": "intro"
        },
        {
          "t": 11172,
          "type": "drum_hit",
          "pitch": 42,
          "duration_ms": 93,
          "velocity": 50,
          "beat_index": 108,
          "section": "intro"
        },
        {
          "t": 11379,
          "type": "drum_hit",
          "pitch": 42,
          "duration_ms": 93,
          "velocity": 50,
          "beat_index": 110,
          "section": "intro"
        },
        {
          "t": 11586,
          "type": "drum_hit",
          "pitch": 36,
          "duration_ms": 93,
          "velocity": 70,
          "beat_index": 112,
          "section": "intro"
        },
        {
          "t": 11586,
          "type": "drum_hit",
          "pitch": 42,
          "duration_ms": 93,
          "velocity": 50,
          "beat_index": 112,
          "section": "intro"
        },
        {
          "t": 11793,
          "type": "drum_hit",
          "pitch": 42,
          "duration_ms": 93,
          "velocity": 50,
          "beat_index": 114,
          "section": "intro"
        },
        {
          "t": 12000,
          "type": "drum_hit",
          "pitch": 36,
          "duration_ms": 93,
          "velocity": 70,
          "beat_index": 116,
          "section": "intro"
        },
        {
          "t": 12000,
          "type": "drum_hit",
          "pitch": 38,
          "duration_ms": 93,
          "velocity": 60,
          "beat_index": 116,
          "section": "intro"
        },
        {
          "t": 12000,
          "type": "drum_hit",
          "pitch": 42,
          "duration_ms": 93,
          "velocity": 50,
          "beat_index": 116,
          "section": "intro"
        },
        {
          "t": 12206,
          "type": "drum_hit",
          "pitch": 42,
          "duration_ms": 93,
          "velocity": 50,
          "beat_index": 118,
          "section": "intro"
        },
        {
          "t": 12413,
          "type": "drum_hit",
          "pitch": 36,
          "duration_ms": 93,
          "velocity": 70,
          "beat_index": 120,
          "section": "intro"
        },
        {
          "t": 12413,
          "type": "drum_hit",
          "pitch": 42,
          "duration_ms": 93,
          "velocity": 50,
          "beat_index": 120,
          "section": "intro"
        },
        {
          "t": 12620,
          "type": "drum_hit",
          "pitch": 42,
          "duration_ms": 93,
          "velocity": 50,
          "beat_index": 122,
          "section": "intro"
        },
        {
          "t": 12827,
          "type": "drum_hit",
          "pitch": 36,
          "duration_ms": 93,
          "velocity": 70,
          "beat_index": 124,
          "section": "intro"
        },
        {
          "t": 12827,
          "type": "drum_hit",
          "pitch": 38,
          "duration_ms": 93,
          "velocity": 60,
          "beat_index": 124,
          "section": "intro"
        },
        {
          "t": 12827,
          "type": "drum_hit",
          "pitch": 42,
          "duration_ms": 93,
          "velocity": 50,
          "beat_index": 124,
          "section": "intro"
        },
        {
          "t": 13034,
          "type": "drum_hit",
          "pitch": 42,
          "duration_ms": 93,
          "velocity": 50,
          "beat_index": 126,
          "section": "intro"
        },
        {
          "t": 13241,
          "type": "drum_hit",
          "pitch": 36,
          "duration_ms": 93,
          "velocity": 85,
          "beat_index": 128,
          "section": "build-up"
        },
        {
          "t": 13241,
          "type": "drum_hit",
          "pitch": 42,
          "duration_ms": 93,
          "velocity": 65,
          "beat_index": 128,
          "section": "build-up"
        },
        {
          "t": 13448,
          "type": "drum_hit",
          "pitch": 42,
          "duration_ms": 93,
          "velocity": 65,
          "beat_index": 130,
          "section": "build-up"
        },
        {
          "t": 13655,
          "type": "drum_hit",
          "pitch": 36,
          "duration_ms": 93,
          "velocity": 85,
          "beat_index": 132,
          "section": "build-up"
        },
        {
          "t": 13655,
          "type": "drum_hit",
          "pitch": 38,
          "duration_ms": 93,
          "velocity": 75,
          "beat_index": 132,
          "section": "build-up"
        },
        {
          "t": 13655,
          "type": "drum_hit",
          "pitch": 42,
          "duration_ms": 93,
          "velocity": 65,
          "beat_index": 132,
          "section": "build-up"
        },
        {
          "t": 13862,
          "type": "drum_hit",
          "pitch": 42,
          "duration_ms": 93,
          "velocity": 65,
          "beat_index": 134,
          "section": "build-up"
        },
        {
          "t": 14068,
          "type": "drum_hit",
          "pitch": 36,
          "duration_ms": 93,
          "velocity": 85,
          "beat_index": 136,
          "section": "build-up"
        },
        {
          "t": 14068,
          "type": "drum_hit",
          "pitch": 42,
          "duration_ms": 93,
          "velocity": 65,
          "beat_index": 136,
          "section": "build-up"
        },
        {
          "t": 14275,
          "type": "drum_hit",
          "pitch": 42,
          "duration_ms": 93,
          "velocity": 65,
          "beat_index": 138,
          "section": "build-up"
        },
        {
          "t": 14482,
          "type": "drum_hit",
          "pitch": 36,
          "duration_ms": 93,
          "velocity": 85,
          "beat_index": 140,
          "section": "build-up"
        },
        {
          "t": 14482,
          "type": "drum_hit",
          "pitch": 38,
          "duration_ms": 93,
          "velocity": 75,
          "beat_index": 140,
          "section": "build-up"
        },
        {
          "t": 14482,
          "type": "drum_hit",
          "pitch": 42,
          "duration_ms": 93,
          "velocity": 65,
          "beat_index": 140,
          "section": "build-up"
        },
        {
          "t": 14689,
          "type": "drum_hit",
          "pitch": 42,
          "duration_ms": 93,
          "velocity": 65,
          "beat_index": 142,
          "section": "build-up"
        },
        {
          "t": 14896,
          "type": "drum_hit",
          "pitch": 36,
          "duration_ms": 93,
          "velocity": 85,
          "beat_index": 144,
          "section": "build-up"
        },
        {
          "t": 14896,
          "type": "drum_hit",
          "pitch": 42,
          "duration_ms": 93,
          "velocity": 65,
          "beat_index": 144,
          "section": "build-up"
        },
        {
          "t": 15103,
          "type": "drum_hit",
          "pitch": 42,
          "duration_ms": 93,
          "velocity": 65,
          "beat_index": 146,
          "section": "build-up"
        },
        {
          "t": 15310,
          "type": "drum_hit",
          "pitch": 36,
          "duration_ms": 93,
          "velocity": 85,
          "beat_index": 148,
          "section": "build-up"
        },
        {
          "t": 15310,
          "type": "drum_hit",
          "pitch": 38,
          "duration_ms": 93,
          "velocity": 75,
          "beat_index": 148,
          "section": "build-up"
        },
        {
          "t": 15310,
          "type": "drum_hit",
          "pitch": 42,
          "duration_ms": 93,
          "velocity": 65,
          "beat_index": 148,
          "section": "build-up"
        },
        {
          "t": 15517,
          "type": "drum_hit",
          "pitch": 42,
          "duration_ms": 93,
          "velocity": 65,
          "beat_index": 150,
          "section": "build-up"
        },
        {
          "t": 15724,
          "type": "drum_hit",
          "pitch": 36,
          "duration_ms": 93,
          "velocity": 85,
          "beat_index": 152,
          "section": "build-up"
        },
        {
          "t": 15724,
          "type": "drum_hit",
          "pitch": 42,
          "duration_ms": 93,
          "velocity": 65,
          "beat_index": 152,
          "section": "build-up"
        },
        {
          "t": 15931,
          "type": "drum_hit",
          "pitch": 42,
          "duration_ms": 93,
          "velocity": 65,
          "beat_index": 154,
          "section": "build-up"
        },
        {
          "t": 16137,
          "type": "drum_hit",
          "pitch": 36,
          "duration_ms": 93,
          "velocity": 85,
          "beat_index": 156,
          "section": "build-up"
        },
        {
          "t": 16137,
          "type": "drum_hit",
          "pitch": 38,
          "duration_ms": 93,
          "velocity": 75,
          "beat_index": 156,
          "section": "build-up"
        },
        {
          "t": 16137,
          "type": "drum_hit",
          "pitch": 42,
          "duration_ms": 93,
          "velocity": 65,
          "beat_index": 156,
          "section": "build-up"
        },
        {
          "t": 16344,
          "type": "drum_hit",
          "pitch": 42,
          "duration_ms": 93,
          "velocity": 65,
          "beat_index": 158,
          "section": "build-up"
        },
        {
          "t": 16551,
          "type": "drum_hit",
          "pitch": 36,
          "duration_ms": 93,
          "velocity": 85,
          "beat_index": 160,
          "section": "build-up"
        },
        {
          "t": 16551,
          "type": "drum_hit",
          "pitch": 42,
          "duration_ms": 93,
          "velocity": 65,
          "beat_index": 160,
          "section": "build-up"
        },
        {
          "t": 16758,
          "type": "drum_hit",
          "pitch": 42,
          "duration_ms": 93,
          "velocity": 65,
          "beat_index": 162,
          "section": "build-up"
        },
        {
          "t": 16965,
          "type": "drum_hit",
          "pitch": 36,
          "duration_ms": 93,
          "velocity": 85,
          "beat_index": 164,
          "section": "build-up"
        },
        {
          "t": 16965,
          "type": "drum_hit",
          "pitch": 38,
          "duration_ms": 93,
          "velocity": 75,
          "beat_index": 164,
          "section": "build-up"
        },
        {
          "t": 16965,
          "type": "drum_hit",
          "pitch": 42,
          "duration_ms": 93,
          "velocity": 65,
          "beat_index": 164,
          "section": "build-up"
        },
        {
          "t": 17172,
          "type": "drum_hit",
          "pitch": 42,
          "duration_ms": 93,
          "velocity": 65,
          "beat_index": 166,
          "section": "build-up"
        },
        {
          "t": 17379,
          "type": "drum_hit",
          "pitch": 36,
          "duration_ms": 93,
          "velocity": 85,
          "beat_index": 168,
          "section": "build-up"
        },
        {
          "t": 17379,
          "type": "drum_hit",
          "pitch": 42,
          "duration_ms": 93,
          "velocity": 65,
          "beat_index": 168,
          "section": "build-up"
        },
        {
          "t": 17586,
          "type": "drum_hit",
          "pitch": 42,
          "duration_ms": 93,
          "velocity": 65,
          "beat_index": 170,
          "section": "build-up"
        },
        {
          "t": 17793,
          "type": "drum_hit",
          "pitch": 36,
          "duration_ms": 93,
          "velocity": 85,
          "beat_index": 172,
          "section": "build-up"
        },
        {
          "t": 17793,
          "type": "drum_hit",
          "pitch": 38,
          "duration_ms": 93,
          "velocity": 75,
          "beat_index": 172,
          "section": "build-up"
        },
        {
          "t": 17793,
          "type": "drum_hit",
          "pitch": 42,
          "duration_ms": 93,
          "velocity": 65,
          "beat_index": 172,
          "section": "build-up"
        },
        {
          "t": 18000,
          "type": "drum_hit",
          "pitch": 42,
          "duration_ms": 93,
          "velocity": 65,
          "beat_index": 174,
          "section": "build-up"
        },
        {
          "t": 18206,
          "type": "drum_hit",
          "pitch": 36,
          "duration_ms": 93,
          "velocity": 85,
          "beat_index": 176,
          "section": "build-up"
        },
        {
          "t": 18206,
          "type": "drum_hit",
          "pitch": 42,
          "duration_ms": 93,
          "velocity": 65,
          "beat_index": 176,
          "section": "build-up"
        },
        {
          "t": 18413,
          "type": "drum_hit",
          "pitch": 42,
          "duration_ms": 93,
          "velocity": 65,
          "beat_index": 178,
          "section": "build-up"
        },
        {
          "t": 18620,
          "type": "drum_hit",
          "pitch": 36,
          "duration_ms": 93,
          "velocity": 85,
          "beat_index": 180,
          "section": "build-up"
        },
        {
          "t": 18620,
          "type": "drum_hit",
          "pitch": 38,
          "duration_ms": 93,
          "velocity": 75,
          "beat_index": 180,
          "section": "build-up"
        },
        {
          "t": 18620,
          "type": "drum_hit",
          "pitch": 42,
          "duration_ms": 93,
          "velocity": 65,
          "beat_index": 180,
          "section": "build-up"
        },
        {
          "t": 18827,
          "type": "drum_hit",
          "pitch": 42,
          "duration_ms": 93,
          "velocity": 65,
          "beat_index": 182,
          "section": "build-up"
        },
        {
          "t": 19034,
          "type": "drum_hit",
          "pitch": 36,
          "duration_ms": 93,
          "velocity": 85,
          "beat_index": 184,
          "section": "build-up"
        },
        {
          "t": 19034,
          "type": "drum_hit",
          "pitch": 42,
          "duration_ms": 93,
          "velocity": 65,
          "beat_index": 184,
          "section": "build-up"
        },
        {
          "t": 19241,
          "type": "drum_hit",
          "pitch": 42,
          "duration_ms": 93,
          "velocity": 65,
          "beat_index": 186,
          "section": "build-up"
        },
        {
          "t": 19448,
          "type": "drum_hit",
          "pitch": 36,
          "duration_ms": 93,
          "velocity": 85,
          "beat_index": 188,
          "section": "build-up"
        },
        {
          "t": 19448,
          "type": "drum_hit",
          "pitch": 38,
          "duration_ms": 93,
          "velocity": 75,
          "beat_index": 188,
          "section": "build-up"
        },
        {
          "t": 19448,
          "type": "drum_hit",
          "pitch": 42,
          "duration_ms": 93,
          "velocity": 65,
          "beat_index": 188,
          "section": "build-up"
        },
        {
          "t": 19655,
          "type": "drum_hit",
          "pitch": 42,
          "duration_ms": 93,
          "velocity": 65,
          "beat_index": 190,
          "section": "build-up"
        },
        {
          "t": 19862,
          "type": "drum_hit",
          "pitch": 36,
          "duration_ms": 93,
          "velocity": 85,
          "beat_index": 192,
          "section": "build-up"
        },
        {
          "t": 19862,
          "type": "drum_hit",
          "pitch": 42,
          "duration_ms": 93,
          "velocity": 65,
          "beat_index": 192,
          "section": "build-up"
        },
        {
          "t": 20068,
          "type": "drum_hit",
          "pitch": 42,
          "duration_ms": 93,
          "velocity": 65,
          "beat_index": 194,
          "section": "build-up"
        },
        {
          "t": 20275,
          "type": "drum_hit",
          "pitch": 36,
          "duration_ms": 93,
          "velocity": 85,
          "beat_index": 196,
          "section": "build-up"
        },
        {
          "t": 20275,
          "type": "drum_hit",
          "pitch": 38,
          "duration_ms": 93,
          "velocity": 75,
          "beat_index": 196,
          "section": "build-up"
        },
        {
          "t": 20275,
          "type": "drum_hit",
          "pitch": 42,
          "duration_ms": 93,
          "velocity": 65,
          "beat_index": 196,
          "section": "build-up"
        },
        {
          "t": 20482,
          "type": "drum_hit",
          "pitch": 42,
          "duration_ms": 93,
          "velocity": 65,
          "beat_index": 198,
          "section": "build-up"
        },
        {
          "t": 20689,
          "type": "drum_hit",
          "pitch": 36,
          "duration_ms": 93,
          "velocity": 85,
          "beat_index": 200,
          "section": "build-up"
        },
        {
          "t": 20689,
          "type": "drum_hit",
          "pitch": 42,
          "duration_ms": 93,
          "velocity": 65,
          "beat_index": 200,
          "section": "build-up"
        },
        {
          "t": 20896,
          "type": "drum_hit",
          "pitch": 42,
          "duration_ms": 93,
          "velocity": 65,
          "beat_index": 202,
          "section": "build-up"
        },
        {
          "t": 21103,
          "type": "drum_hit",
          "pitch": 36,
          "duration_ms": 93,
          "velocity": 85,
          "beat_index": 204,
          "section": "build-up"
        },
        {
          "t": 21103,
          "type": "drum_hit",
          "pitch": 38,
          "duration_ms": 93,
          "velocity": 75,
          "beat_index": 204,
          "section": "build-up"
        },
        {
          "t": 21103,
          "type": "drum_hit",
          "pitch": 42,
          "duration_ms": 93,
          "velocity": 65,
          "beat_index": 204,
          "section": "build-up"
        },
        {
          "t": 21310,
          "type": "drum_hit",
          "pitch": 42,
          "duration_ms": 93,
          "velocity": 65,
          "beat_index": 206,
          "section": "build-up"
        },
        {
          "t": 21517,
          "type": "drum_hit",
          "pitch": 36,
          "duration_ms": 93,
          "velocity": 85,
          "beat_index": 208,
          "section": "build-up"
        },
        {
          "t": 21517,
          "type": "drum_hit",
          "pitch": 42,
          "duration_ms": 93,
          "velocity": 65,
          "beat_index": 208,
          "section": "build-up"
        },
        {
          "t": 21724,
          "type": "drum_hit",
          "pitch": 42,
          "duration_ms": 93,
          "velocity": 65,
          "beat_index": 210,
          "section": "build-up"
        },
        {
          "t": 21931,
          "type": "drum_hit",
          "pitch": 36,
          "duration_ms": 93,
          "velocity": 85,
          "beat_index": 212,
          "section": "build-up"
        },
        {
          "t": 21931,
          "type": "drum_hit",
          "pitch": 38,
          "duration_ms": 93,
          "velocity": 75,
          "beat_index": 212,
          "section": "build-up"
        },
        {
          "t": 21931,
          "type": "drum_hit",
          "pitch": 42,
          "duration_ms": 93,
          "velocity": 65,
          "beat_index": 212,
          "section": "build-up"
        },
        {
          "t": 22137,
          "type": "drum_hit",
          "pitch": 42,
          "duration_ms": 93,
          "velocity": 65,
          "beat_index": 214,
          "section": "build-up"
        },
        {
          "t": 22344,
          "type": "drum_hit",
          "pitch": 36,
          "duration_ms": 93,
          "velocity": 85,
          "beat_index": 216,
          "section": "build-up"
        },
        {
          "t": 22344,
          "type": "drum_hit",
          "pitch": 42,
          "duration_ms": 93,
          "velocity": 65,
          "beat_index": 216,
          "section": "build-up"
        },
        {
          "t": 22551,
          "type": "drum_hit",
          "pitch": 42,
          "duration_ms": 93,
          "velocity": 65,
          "beat_index": 218,
          "section": "build-up"
        },
        {
          "t": 22758,
          "type": "drum_hit",
          "pitch": 36,
          "duration_ms": 93,
          "velocity": 85,
          "beat_index": 220,
          "section": "build-up"
        },
        {
          "t": 22758,
          "type": "drum_hit",
          "pitch": 38,
          "duration_ms": 93,
          "velocity": 75,
          "beat_index": 220,
          "section": "build-up"
        },
        {
          "t": 22758,
          "type": "drum_hit",
          "pitch": 42,
          "duration_ms": 93,
          "velocity": 65,
          "beat_index": 220,
          "section": "build-up"
        },
        {
          "t": 22965,
          "type": "drum_hit",
          "pitch": 42,
          "duration_ms": 93,
          "velocity": 65,
          "beat_index": 222,
          "section": "build-up"
        },
        {
          "t": 23172,
          "type": "drum_hit",
          "pitch": 36,
          "duration_ms": 93,
          "velocity": 85,
          "beat_index": 224,
          "section": "build-up"
        },
        {
          "t": 23172,
          "type": "drum_hit",
          "pitch": 42,
          "duration_ms": 93,
          "velocity": 65,
          "beat_index": 224,
          "section": "build-up"
        },
        {
          "t": 23379,
          "type": "drum_hit",
          "pitch": 42,
          "duration_ms": 93,
          "velocity": 65,
          "beat_index": 226,
          "section": "build-up"
        },
        {
          "t": 23586,
          "type": "drum_hit",
          "pitch": 36,
          "duration_ms": 93,
          "velocity": 85,
          "beat_index": 228,
          "section": "build-up"
        },
        {
          "t": 23586,
          "type": "drum_hit",
          "pitch": 38,
          "duration_ms": 93,
          "velocity": 75,
          "beat_index": 228,
          "section": "build-up"
        },
        {
          "t": 23586,
          "type": "drum_hit",
          "pitch": 42,
          "duration_ms": 93,
          "velocity": 65,
          "beat_index": 228,
          "section": "build-up"
        },
        {
          "t": 23793,
          "type": "drum_hit",
          "pitch": 42,
          "duration_ms": 93,
          "velocity": 65,
          "beat_index": 230,
          "section": "build-up"
        },
        {
          "t": 24000,
          "type": "drum_hit",
          "pitch": 36,
          "duration_ms": 93,
          "velocity": 85,
          "beat_index": 232,
          "section": "build-up"
        },
        {
          "t": 24000,
          "type": "drum_hit",
          "pitch": 42,
          "duration_ms": 93,
          "velocity": 65,
          "beat_index": 232,
          "section": "build-up"
        },
        {
          "t": 24206,
          "type": "drum_hit",
          "pitch": 42,
          "duration_ms": 93,
          "velocity": 65,
          "beat_index": 234,
          "section": "build-up"
        },
        {
          "t": 24413,
          "type": "drum_hit",
          "pitch": 36,
          "duration_ms": 93,
          "velocity": 85,
          "beat_index": 236,
          "section": "build-up"
        },
        {
          "t": 24413,
          "type": "drum_hit",
          "pitch": 38,
          "duration_ms": 93,
          "velocity": 75,
          "beat_index": 236,
          "section": "build-up"
        },
        {
          "t": 24413,
          "type": "drum_hit",
          "pitch": 42,
          "duration_ms": 93,
          "velocity": 65,
          "beat_index": 236,
          "section": "build-up"
        },
        {
          "t": 24620,
          "type": "drum_hit",
          "pitch": 42,
          "duration_ms": 93,
          "velocity": 65,
          "beat_index": 238,
          "section": "build-up"
        },
        {
          "t": 24827,
          "type": "drum_hit",
          "pitch": 36,
          "duration_ms": 93,
          "velocity": 85,
          "beat_index": 240,
          "section": "build-up"
        },
        {
          "t": 24827,
          "type": "drum_hit",
          "pitch": 42,
          "duration_ms": 93,
          "velocity": 65,
          "beat_index": 240,
          "section": "build-up"
        },
        {
          "t": 25034,
          "type": "drum_hit",
          "pitch": 42,
          "duration_ms": 93,
          "velocity": 65,
          "beat_index": 242,
          "section": "build-up"
        },
        {
          "t": 25241,
          "type": "drum_hit",
          "pitch": 36,
          "duration_ms": 93,
          "velocity": 85,
          "beat_index": 244,
          "section": "build-up"
        },
        {
          "t": 25241,
          "type": "drum_hit",
          "pitch": 38,
          "duration_ms": 93,
          "velocity": 75,
          "beat_index": 244,
          "section": "build-up"
        },
        {
          "t": 25241,
          "type": "drum_hit",
          "pitch": 42,
          "duration_ms": 93,
          "velocity": 65,
          "beat_index": 244,
          "section": "build-up"
        },
        {
          "t": 25448,
          "type": "drum_hit",
          "pitch": 42,
          "duration_ms": 93,
          "velocity": 65,
          "beat_index": 246,
          "section": "build-up"
        },
        {
          "t": 25655,
          "type": "drum_hit",
          "pitch": 36,
          "duration_ms": 93,
          "velocity": 85,
          "beat_index": 248,
          "section": "build-up"
        },
        {
          "t": 25655,
          "type": "drum_hit",
          "pitch": 42,
          "duration_ms": 93,
          "velocity": 65,
          "beat_index": 248,
          "section": "build-up"
        },
        {
          "t": 25862,
          "type": "drum_hit",
          "pitch": 42,
          "duration_ms": 93,
          "velocity": 65,
          "beat_index": 250,
          "section": "build-up"
        },
        {
          "t": 26068,
          "type": "drum_hit",
          "pitch": 36,
          "duration_ms": 93,
          "velocity": 85,
          "beat_index": 252,
          "section": "build-up"
        },
        {
          "t": 26068,
          "type": "drum_hit",
          "pitch": 38,
          "duration_ms": 93,
          "velocity": 75,
          "beat_index": 252,
          "section": "build-up"
        },
        {
          "t": 26068,
          "type": "drum_hit",
          "pitch": 42,
          "duration_ms": 93,
          "velocity": 65,
          "beat_index": 252,
          "section": "build-up"
        },
        {
          "t": 26275,
          "type": "drum_hit",
          "pitch": 42,
          "duration_ms": 93,
          "velocity": 65,
          "beat_index": 254,
          "section": "build-up"
        },
        {
          "t": 26482,
          "type": "drum_hit",
          "pitch": 36,
          "duration_ms": 93,
          "velocity": 85,
          "beat_index": 256,
          "section": "build-up"
        },
        {
          "t": 26482,
          "type": "drum_hit",
          "pitch": 42,
          "duration_ms": 93,
          "velocity": 65,
          "beat_index": 256,
          "section": "build-up"
        },
        {
          "t": 26689,
          "type": "drum_hit",
          "pitch": 42,
          "duration_ms": 93,
          "velocity": 65,
          "beat_index": 258,
          "section": "build-up"
        },
        {
          "t": 26896,
          "type": "drum_hit",
          "pitch": 36,
          "duration_ms": 93,
          "velocity": 85,
          "beat_index": 260,
          "section": "build-up"
        },
        {
          "t": 26896,
          "type": "drum_hit",
          "pitch": 38,
          "duration_ms": 93,
          "velocity": 75,
          "beat_index": 260,
          "section": "build-up"
        },
        {
          "t": 26896,
          "type": "drum_hit",
          "pitch": 42,
          "duration_ms": 93,
          "velocity": 65,
          "beat_index": 260,
          "section": "build-up"
        },
        {
          "t": 27103,
          "type": "drum_hit",
          "pitch": 42,
          "duration_ms": 93,
          "velocity": 65,
          "beat_index": 262,
          "section": "build-up"
        },
        {
          "t": 27310,
          "type": "drum_hit",
          "pitch": 36,
          "duration_ms": 93,
          "velocity": 85,
          "beat_index": 264,
          "section": "build-up"
        },
        {
          "t": 27310,
          "type": "drum_hit",
          "pitch": 42,
          "duration_ms": 93,
          "velocity": 65,
          "beat_index": 264,
          "section": "build-up"
        },
        {
          "t": 27517,
          "type": "drum_hit",
          "pitch": 42,
          "duration_ms": 93,
          "velocity": 65,
          "beat_index": 266,
          "section": "build-up"
        },
        {
          "t": 27724,
          "type": "drum_hit",
          "pitch": 36,
          "duration_ms": 93,
          "velocity": 85,
          "beat_index": 268,
          "section": "build-up"
        },
        {
          "t": 27724,
          "type": "drum_hit",
          "pitch": 38,
          "duration_ms": 93,
          "velocity": 75,
          "beat_index": 268,
          "section": "build-up"
        },
        {
          "t": 27724,
          "type": "drum_hit",
          "pitch": 42,
          "duration_ms": 93,
          "velocity": 65,
          "beat_index": 268,
          "section": "build-up"
        },
        {
          "t": 27931,
          "type": "drum_hit",
          "pitch": 42,
          "duration_ms": 93,
          "velocity": 65,
          "beat_index": 270,
          "section": "build-up"
        },
        {
          "t": 28137,
          "type": "drum_hit",
          "pitch": 36,
          "duration_ms": 93,
          "velocity": 85,
          "beat_index": 272,
          "section": "build-up"
        },
        {
          "t": 28137,
          "type": "drum_hit",
          "pitch": 42,
          "duration_ms": 93,
          "velocity": 65,
          "beat_index": 272,
          "section": "build-up"
        },
        {
          "t": 28344,
          "type": "drum_hit",
          "pitch": 42,
          "duration_ms": 93,
          "velocity": 65,
          "beat_index": 274,
          "section": "build-up"
        },
        {
          "t": 28551,
          "type": "drum_hit",
          "pitch": 36,
          "duration_ms": 93,
          "velocity": 85,
          "beat_index": 276,
          "section": "build-up"
        },
        {
          "t": 28551,
          "type": "drum_hit",
          "pitch": 38,
          "duration_ms": 93,
          "velocity": 75,
          "beat_index": 276,
          "section": "build-up"
        },
        {
          "t": 28551,
          "type": "drum_hit",
          "pitch": 42,
          "duration_ms": 93,
          "velocity": 65,
          "beat_index": 276,
          "section": "build-up"
        },
        {
          "t": 28758,
          "type": "drum_hit",
          "pitch": 42,
          "duration_ms": 93,
          "velocity": 65,
          "beat_index": 278,
          "section": "build-up"
        },
        {
          "t": 28965,
          "type": "drum_hit",
          "pitch": 36,
          "duration_ms": 93,
          "velocity": 85,
          "beat_index": 280,
          "section": "build-up"
        },
        {
          "t": 28965,
          "type": "drum_hit",
          "pitch": 42,
          "duration_ms": 93,
          "velocity": 65,
          "beat_index": 280,
          "section": "build-up"
        },
        {
          "t": 29172,
          "type": "drum_hit",
          "pitch": 42,
          "duration_ms": 93,
          "velocity": 65,
          "beat_index": 282,
          "section": "build-up"
        },
        {
          "t": 29379,
          "type": "drum_hit",
          "pitch": 36,
          "duration_ms": 93,
          "velocity": 85,
          "beat_index": 284,
          "section": "build-up"
        },
        {
          "t": 29379,
          "type": "drum_hit",
          "pitch": 38,
          "duration_ms": 93,
          "velocity": 75,
          "beat_index": 284,
          "section": "build-up"
        },
        {
          "t": 29379,
          "type": "drum_hit",
          "pitch": 42,
          "duration_ms": 93,
          "velocity": 65,
          "beat_index": 284,
          "section": "build-up"
        },
        {
          "t": 29586,
          "type": "drum_hit",
          "pitch": 42,
          "duration_ms": 93,
          "velocity": 65,
          "beat_index": 286,
          "section": "build-up"
        },
        {
          "t": 29793,
          "type": "drum_hit",
          "pitch": 36,
          "duration_ms": 93,
          "velocity": 85,
          "beat_index": 288,
          "section": "build-up"
        },
        {
          "t": 29793,
          "type": "drum_hit",
          "pitch": 42,
          "duration_ms": 93,
          "velocity": 65,
          "beat_index": 288,
          "section": "build-up"
        },
        {
          "t": 30000,
          "type": "drum_hit",
          "pitch": 42,
          "duration_ms": 93,
          "velocity": 65,
          "beat_index": 290,
          "section": "build-up"
        },
        {
          "t": 30206,
          "type": "drum_hit",
          "pitch": 36,
          "duration_ms": 93,
          "velocity": 85,
          "beat_index": 292,
          "section": "build-up"
        },
        {
          "t": 30206,
          "type": "drum_hit",
          "pitch": 38,
          "duration_ms": 93,
          "velocity": 75,
          "beat_index": 292,
          "section": "build-up"
        },
        {
          "t": 30206,
          "type": "drum_hit",
          "pitch": 42,
          "duration_ms": 93,
          "velocity": 65,
          "beat_index": 292,
          "section": "build-up"
        },
        {
          "t": 30413,
          "type": "drum_hit",
          "pitch": 42,
          "duration_ms": 93,
          "velocity": 65,
          "beat_index": 294,
          "section": "build-up"
        },
        {
          "t": 30620,
          "type": "drum_hit",
          "pitch": 36,
          "duration_ms": 93,
          "velocity": 85,
          "beat_index": 296,
          "section": "build-up"
        },
        {
          "t": 30620,
          "type": "drum_hit",
          "pitch": 42,
          "duration_ms": 93,
          "velocity": 65,
          "beat_index": 296,
          "section": "build-up"
        },
        {
          "t": 30827,
          "type": "drum_hit",
          "pitch": 42,
          "duration_ms": 93,
          "velocity": 65,
          "beat_index": 298,
          "section": "build-up"
        },
        {
          "t": 31034,
          "type": "drum_hit",
          "pitch": 36,
          "duration_ms": 93,
          "velocity": 85,
          "beat_index": 300,
          "section": "build-up"
        },
        {
          "t": 31034,
          "type": "drum_hit",
          "pitch": 38,
          "duration_ms": 93,
          "velocity": 75,
          "beat_index": 300,
          "section": "build-up"
        },
        {
          "t": 31034,
          "type": "drum_hit",
          "pitch": 42,
          "duration_ms": 93,
          "velocity": 65,
          "beat_index": 300,
          "section": "build-up"
        },
        {
          "t": 31241,
          "type": "drum_hit",
          "pitch": 42,
          "duration_ms": 93,
          "velocity": 65,
          "beat_index": 302,
          "section": "build-up"
        },
        {
          "t": 31448,
          "type": "drum_hit",
          "pitch": 36,
          "duration_ms": 93,
          "velocity": 85,
          "beat_index": 304,
          "section": "build-up"
        },
        {
          "t": 31448,
          "type": "drum_hit",
          "pitch": 42,
          "duration_ms": 93,
          "velocity": 65,
          "beat_index": 304,
          "section": "build-up"
        },
        {
          "t": 31655,
          "type": "drum_hit",
          "pitch": 42,
          "duration_ms": 93,
          "velocity": 65,
          "beat_index": 306,
          "section": "build-up"
        },
        {
          "t": 31862,
          "type": "drum_hit",
          "pitch": 36,
          "duration_ms": 93,
          "velocity": 85,
          "beat_index": 308,
          "section": "build-up"
        },
        {
          "t": 31862,
          "type": "drum_hit",
          "pitch": 38,
          "duration_ms": 93,
          "velocity": 75,
          "beat_index": 308,
          "section": "build-up"
        },
        {
          "t": 31862,
          "type": "drum_hit",
          "pitch": 42,
          "duration_ms": 93,
          "velocity": 65,
          "beat_index": 308,
          "section": "build-up"
        },
        {
          "t": 32068,
          "type": "drum_hit",
          "pitch": 42,
          "duration_ms": 93,
          "velocity": 65,
          "beat_index": 310,
          "section": "build-up"
        },
        {
          "t": 32275,
          "type": "drum_hit",
          "pitch": 36,
          "duration_ms": 93,
          "velocity": 85,
          "beat_index": 312,
          "section": "build-up"
        },
        {
          "t": 32275,
          "type": "drum_hit",
          "pitch": 42,
          "duration_ms": 93,
          "velocity": 65,
          "beat_index": 312,
          "section": "build-up"
        },
        {
          "t": 32482,
          "type": "drum_hit",
          "pitch": 42,
          "duration_ms": 93,
          "velocity": 65,
          "beat_index": 314,
          "section": "build-up"
        },
        {
          "t": 32689,
          "type": "drum_hit",
          "pitch": 36,
          "duration_ms": 93,
          "velocity": 85,
          "beat_index": 316,
          "section": "build-up"
        },
        {
          "t": 32689,
          "type": "drum_hit",
          "pitch": 38,
          "duration_ms": 93,
          "velocity": 75,
          "beat_index": 316,
          "section": "build-up"
        },
        {
          "t": 32689,
          "type": "drum_hit",
          "pitch": 42,
          "duration_ms": 93,
          "velocity": 65,
          "beat_index": 316,
          "section": "build-up"
        },
        {
          "t": 32896,
          "type": "drum_hit",
          "pitch": 42,
          "duration_ms": 93,
          "velocity": 65,
          "beat_index": 318,
          "section": "build-up"
        },
        {
          "t": 33103,
          "type": "drum_hit",
          "pitch": 36,
          "duration_ms": 93,
          "velocity": 85,
          "beat_index": 320,
          "section": "build-up"
        },
        {
          "t": 33103,
          "type": "drum_hit",
          "pitch": 42,
          "duration_ms": 93,
          "velocity": 65,
          "beat_index": 320,
          "section": "build-up"
        },
        {
          "t": 33310,
          "type": "drum_hit",
          "pitch": 42,
          "duration_ms": 93,
          "velocity": 65,
          "beat_index": 322,
          "section": "build-up"
        },
        {
          "t": 33517,
          "type": "drum_hit",
          "pitch": 36,
          "duration_ms": 93,
          "velocity": 85,
          "beat_index": 324,
          "section": "build-up"
        },
        {
          "t": 33517,
          "type": "drum_hit",
          "pitch": 38,
          "duration_ms": 93,
          "velocity": 75,
          "beat_index": 324,
          "section": "build-up"
        },
        {
          "t": 33517,
          "type": "drum_hit",
          "pitch": 42,
          "duration_ms": 93,
          "velocity": 65,
          "beat_index": 324,
          "section": "build-up"
        },
        {
          "t": 33724,
          "type": "drum_hit",
          "pitch": 42,
          "duration_ms": 93,
          "velocity": 65,
          "beat_index": 326,
          "section": "build-up"
        },
        {
          "t": 33931,
          "type": "drum_hit",
          "pitch": 36,
          "duration_ms": 93,
          "velocity": 85,
          "beat_index": 328,
          "section": "build-up"
        },
        {
          "t": 33931,
          "type": "drum_hit",
          "pitch": 42,
          "duration_ms": 93,
          "velocity": 65,
          "beat_index": 328,
          "section": "build-up"
        },
        {
          "t": 34137,
          "type": "drum_hit",
          "pitch": 42,
          "duration_ms": 93,
          "velocity": 65,
          "beat_index": 330,
          "section": "build-up"
        },
        {
          "t": 34344,
          "type": "drum_hit",
          "pitch": 36,
          "duration_ms": 93,
          "velocity": 85,
          "beat_index": 332,
          "section": "build-up"
        },
        {
          "t": 34344,
          "type": "drum_hit",
          "pitch": 38,
          "duration_ms": 93,
          "velocity": 75,
          "beat_index": 332,
          "section": "build-up"
        },
        {
          "t": 34344,
          "type": "drum_hit",
          "pitch": 42,
          "duration_ms": 93,
          "velocity": 65,
          "beat_index": 332,
          "section": "build-up"
        },
        {
          "t": 34551,
          "type": "drum_hit",
          "pitch": 42,
          "duration_ms": 93,
          "velocity": 65,
          "beat_index": 334,
          "section": "build-up"
        },
        {
          "t": 34758,
          "type": "drum_hit",
          "pitch": 36,
          "duration_ms": 93,
          "velocity": 85,
          "beat_index": 336,
          "section": "build-up"
        },
        {
          "t": 34758,
          "type": "drum_hit",
          "pitch": 42,
          "duration_ms": 93,
          "velocity": 65,
          "beat_index": 336,
          "section": "build-up"
        },
        {
          "t": 34965,
          "type": "drum_hit",
          "pitch": 42,
          "duration_ms": 93,
          "velocity": 65,
          "beat_index": 338,
          "section": "build-up"
        },
        {
          "t": 35172,
          "type": "drum_hit",
          "pitch": 36,
          "duration_ms": 93,
          "velocity": 85,
          "beat_index": 340,
          "section": "build-up"
        },
        {
          "t": 35172,
          "type": "drum_hit",
          "pitch": 38,
          "duration_ms": 93,
          "velocity": 75,
          "beat_index": 340,
          "section": "build-up"
        },
        {
          "t": 35172,
          "type": "drum_hit",
          "pitch": 42,
          "duration_ms": 93,
          "velocity": 65,
          "beat_index": 340,
          "section": "build-up"
        },
        {
          "t": 35379,
          "type": "drum_hit",
          "pitch": 42,
          "duration_ms": 93,
          "velocity": 65,
          "beat_index": 342,
          "section": "build-up"
        },
        {
          "t": 35586,
          "type": "drum_hit",
          "pitch": 36,
          "duration_ms": 93,
          "velocity": 85,
          "beat_index": 344,
          "section": "build-up"
        },
        {
          "t": 35586,
          "type": "drum_hit",
          "pitch": 42,
          "duration_ms": 93,
          "velocity": 65,
          "beat_index": 344,
          "section": "build-up"
        },
        {
          "t": 35793,
          "type": "drum_hit",
          "pitch": 42,
          "duration_ms": 93,
          "velocity": 65,
          "beat_index": 346,
          "section": "build-up"
        },
        {
          "t": 36000,
          "type": "drum_hit",
          "pitch": 36,
          "duration_ms": 93,
          "velocity": 85,
          "beat_index": 348,
          "section": "build-up"
        },
        {
          "t": 36000,
          "type": "drum_hit",
          "pitch": 38,
          "duration_ms": 93,
          "velocity": 75,
          "beat_index": 348,
          "section": "build-up"
        },
        {
          "t": 36000,
          "type": "drum_hit",
          "pitch": 42,
          "duration_ms": 93,
          "velocity": 65,
          "beat_index": 348,
          "section": "build-up"
        },
        {
          "t": 36206,
          "type": "drum_hit",
          "pitch": 42,
          "duration_ms": 93,
          "velocity": 65,
          "beat_index": 350,
          "section": "build-up"
        },
        {
          "t": 36413,
          "type": "drum_hit",
          "pitch": 36,
          "duration_ms": 93,
          "velocity": 85,
          "beat_index": 352,
          "section": "build-up"
        },
        {
          "t": 36413,
          "type": "drum_hit",
          "pitch": 42,
          "duration_ms": 93,
          "velocity": 65,
          "beat_index": 352,
          "section": "build-up"
        },
        {
          "t": 36620,
          "type": "drum_hit",
          "pitch": 42,
          "duration_ms": 93,
          "velocity": 65,
          "beat_index": 354,
          "section": "build-up"
        },
        {
          "t": 36827,
          "type": "drum_hit",
          "pitch": 36,
          "duration_ms": 93,
          "velocity": 85,
          "beat_index": 356,
          "section": "build-up"
        },
        {
          "t": 36827,
          "type": "drum_hit",
          "pitch": 38,
          "duration_ms": 93,
          "velocity": 75,
          "beat_index": 356,
          "section": "build-up"
        },
        {
          "t": 36827,
          "type": "drum_hit",
          "pitch": 42,
          "duration_ms": 93,
          "velocity": 65,
          "beat_index": 356,
          "section": "build-up"
        },
        {
          "t": 37034,
          "type": "drum_hit",
          "pitch": 42,
          "duration_ms": 93,
          "velocity": 65,
          "beat_index": 358,
          "section": "build-up"
        },
        {
          "t": 37241,
          "type": "drum_hit",
          "pitch": 36,
          "duration_ms": 93,
          "velocity": 85,
          "beat_index": 360,
          "section": "build-up"
        },
        {
          "t": 37241,
          "type": "drum_hit",
          "pitch": 42,
          "duration_ms": 93,
          "velocity": 65,
          "beat_index": 360,
          "section": "build-up"
        },
        {
          "t": 37448,
          "type": "drum_hit",
          "pitch": 42,
          "duration_ms": 93,
          "velocity": 65,
          "beat_index": 362,
          "section": "build-up"
        },
        {
          "t": 37655,
          "type": "drum_hit",
          "pitch": 36,
          "duration_ms": 93,
          "velocity": 85,
          "beat_index": 364,
          "section": "build-up"
        },
        {
          "t": 37655,
          "type": "drum_hit",
          "pitch": 38,
          "duration_ms": 93,
          "velocity": 75,
          "beat_index": 364,
          "section": "build-up"
        },
        {
          "t": 37655,
          "type": "drum_hit",
          "pitch": 42,
          "duration_ms": 93,
          "velocity": 65,
          "beat_index": 364,
          "section": "build-up"
        },
        {
          "t": 37862,
          "type": "drum_hit",
          "pitch": 42,
          "duration_ms": 93,
          "velocity": 65,
          "beat_index": 366,
          "section": "build-up"
        },
        {
          "t": 38068,
          "type": "drum_hit",
          "pitch": 36,
          "duration_ms": 93,
          "velocity": 85,
          "beat_index": 368,
          "section": "build-up"
        },
        {
          "t": 38068,
          "type": "drum_hit",
          "pitch": 42,
          "duration_ms": 93,
          "velocity": 65,
          "beat_index": 368,
          "section": "build-up"
        },
        {
          "t": 38275,
          "type": "drum_hit",
          "pitch": 42,
          "duration_ms": 93,
          "velocity": 65,
          "beat_index": 370,
          "section": "build-up"
        },
        {
          "t": 38482,
          "type": "drum_hit",
          "pitch": 36,
          "duration_ms": 93,
          "velocity": 85,
          "beat_index": 372,
          "section": "build-up"
        },
        {
          "t": 38482,
          "type": "drum_hit",
          "pitch": 38,
          "duration_ms": 93,
          "velocity": 75,
          "beat_index": 372,
          "section": "build-up"
        },
        {
          "t": 38482,
          "type": "drum_hit",
          "pitch": 42,
          "duration_ms": 93,
          "velocity": 65,
          "beat_index": 372,
          "section": "build-up"
        },
        {
          "t": 38689,
          "type": "drum_hit",
          "pitch": 42,
          "duration_ms": 93,
          "velocity": 65,
          "beat_index": 374,
          "section": "build-up"
        },
        {
          "t": 38896,
          "type": "drum_hit",
          "pitch": 36,
          "duration_ms": 93,
          "velocity": 85,
          "beat_index": 376,
          "section": "build-up"
        },
        {
          "t": 38896,
          "type": "drum_hit",
          "pitch": 42,
          "duration_ms": 93,
          "velocity": 65,
          "beat_index": 376,
          "section": "build-up"
        },
        {
          "t": 39103,
          "type": "drum_hit",
          "pitch": 42,
          "duration_ms": 93,
          "velocity": 65,
          "beat_index": 378,
          "section": "build-up"
        },
        {
          "t": 39310,
          "type": "drum_hit",
          "pitch": 36,
          "duration_ms": 93,
          "velocity": 85,
          "beat_index": 380,
          "section": "build-up"
        },
        {
          "t": 39310,
          "type": "drum_hit",
          "pitch": 38,
          "duration_ms": 93,
          "velocity": 75,
          "beat_index": 380,
          "section": "build-up"
        },
        {
          "t": 39310,
          "type": "drum_hit",
          "pitch": 42,
          "duration_ms": 93,
          "velocity": 65,
          "beat_index": 380,
          "section": "build-up"
        },
        {
          "t": 39517,
          "type": "drum_hit",
          "pitch": 42,
          "duration_ms": 93,
          "velocity": 65,
          "beat_index": 382,
          "section": "build-up"
        },
        {
          "t": 39724,
          "type": "drum_hit",
          "pitch": 36,
          "duration_ms": 93,
          "velocity": 127,
          "beat_index": 384,
          "section": "drop"
        },
        {
          "t": 39724,
          "type": "drum_hit",
          "pitch": 42,
          "duration_ms": 93,
          "velocity": 90,
          "beat_index": 384,
          "section": "drop"
        },
        {
          "t": 39931,
          "type": "drum_hit",
          "pitch": 42,
          "duration_ms": 93,
          "velocity": 90,
          "beat_index": 386,
          "section": "drop"
        },
        {
          "t": 40137,
          "type": "drum_hit",
          "pitch": 36,
          "duration_ms": 93,
          "velocity": 127,
          "beat_index": 388,
          "section": "drop"
        },
        {
          "t": 40137,
          "type": "drum_hit",
          "pitch": 38,
          "duration_ms": 93,
          "velocity": 110,
          "beat_index": 388,
          "section": "drop"
        },
        {
          "t": 40137,
          "type": "drum_hit",
          "pitch": 42,
          "duration_ms": 93,
          "velocity": 90,
          "beat_index": 388,
          "section": "drop"
        },
        {
          "t": 40344,
          "type": "drum_hit",
          "pitch": 42,
          "duration_ms": 93,
          "velocity": 90,
          "beat_index": 390,
          "section": "drop"
        },
        {
          "t": 40551,
          "type": "drum_hit",
          "pitch": 36,
          "duration_ms": 93,
          "velocity": 127,
          "beat_index": 392,
          "section": "drop"
        },
        {
          "t": 40551,
          "type": "drum_hit",
          "pitch": 42,
          "duration_ms": 93,
          "velocity": 90,
          "beat_index": 392,
          "section": "drop"
        },
        {
          "t": 40758,
          "type": "drum_hit",
          "pitch": 42,
          "duration_ms": 93,
          "velocity": 90,
          "beat_index": 394,
          "section": "drop"
        },
        {
          "t": 40965,
          "type": "drum_hit",
          "pitch": 36,
          "duration_ms": 93,
          "velocity": 127,
          "beat_index": 396,
          "section": "drop"
        },
        {
          "t": 40965,
          "type": "drum_hit",
          "pitch": 38,
          "duration_ms": 93,
          "velocity": 110,
          "beat_index": 396,
          "section": "drop"
        },
        {
          "t": 40965,
          "type": "drum_hit",
          "pitch": 42,
          "duration_ms": 93,
          "velocity": 90,
          "beat_index": 396,
          "section": "drop"
        },
        {
          "t": 41172,
          "type": "drum_hit",
          "pitch": 42,
          "duration_ms": 93,
          "velocity": 90,
          "beat_index": 398,
          "section": "drop"
        },
        {
          "t": 41379,
          "type": "drum_hit",
          "pitch": 36,
          "duration_ms": 93,
          "velocity": 127,
          "beat_index": 400,
          "section": "drop"
        },
        {
          "t": 41379,
          "type": "drum_hit",
          "pitch": 42,
          "duration_ms": 93,
          "velocity": 90,
          "beat_index": 400,
          "section": "drop"
        },
        {
          "t": 41586,
          "type": "drum_hit",
          "pitch": 42,
          "duration_ms": 93,
          "velocity": 90,
          "beat_index": 402,
          "section": "drop"
        },
        {
          "t": 41793,
          "type": "drum_hit",
          "pitch": 36,
          "duration_ms": 93,
          "velocity": 127,
          "beat_index": 404,
          "section": "drop"
        },
        {
          "t": 41793,
          "type": "drum_hit",
          "pitch": 38,
          "duration_ms": 93,
          "velocity": 110,
          "beat_index": 404,
          "section": "drop"
        },
        {
          "t": 41793,
          "type": "drum_hit",
          "pitch": 42,
          "duration_ms": 93,
          "velocity": 90,
          "beat_index": 404,
          "section": "drop"
        },
        {
          "t": 42000,
          "type": "drum_hit",
          "pitch": 42,
          "duration_ms": 93,
          "velocity": 90,
          "beat_index": 406,
          "section": "drop"
        },
        {
          "t": 42206,
          "type": "drum_hit",
          "pitch": 36,
          "duration_ms": 93,
          "velocity": 127,
          "beat_index": 408,
          "section": "drop"
        },
        {
          "t": 42206,
          "type": "drum_hit",
          "pitch": 42,
          "duration_ms": 93,
          "velocity": 90,
          "beat_index": 408,
          "section": "drop"
        },
        {
          "t": 42413,
          "type": "drum_hit",
          "pitch": 42,
          "duration_ms": 93,
          "velocity": 90,
          "beat_index": 410,
          "section": "drop"
        },
        {
          "t": 42620,
          "type": "drum_hit",
          "pitch": 36,
          "duration_ms": 93,
          "velocity": 127,
          "beat_index": 412,
          "section": "drop"
        },
        {
          "t": 42620,
          "type": "drum_hit",
          "pitch": 38,
          "duration_ms": 93,
          "velocity": 110,
          "beat_index": 412,
          "section": "drop"
        },
        {
          "t": 42620,
          "type": "drum_hit",
          "pitch": 42,
          "duration_ms": 93,
          "velocity": 90,
          "beat_index": 412,
          "section": "drop"
        },
        {
          "t": 42827,
          "type": "drum_hit",
          "pitch": 42,
          "duration_ms": 93,
          "velocity": 90,
          "beat_index": 414,
          "section": "drop"
        },
        {
          "t": 43034,
          "type": "drum_hit",
          "pitch": 36,
          "duration_ms": 93,
          "velocity": 127,
          "beat_index": 416,
          "section": "drop"
        },
        {
          "t": 43034,
          "type": "drum_hit",
          "pitch": 42,
          "duration_ms": 93,
          "velocity": 90,
          "beat_index": 416,
          "section": "drop"
        },
        {
          "t": 43241,
          "type": "drum_hit",
          "pitch": 42,
          "duration_ms": 93,
          "velocity": 90,
          "beat_index": 418,
          "section": "drop"
        },
        {
          "t": 43448,
          "type": "drum_hit",
          "pitch": 36,
          "duration_ms": 93,
          "velocity": 127,
          "beat_index": 420,
          "section": "drop"
        },
        {
          "t": 43448,
          "type": "drum_hit",
          "pitch": 38,
          "duration_ms": 93,
          "velocity": 110,
          "beat_index": 420,
          "section": "drop"
        },
        {
          "t": 43448,
          "type": "drum_hit",
          "pitch": 42,
          "duration_ms": 93,
          "velocity": 90,
          "beat_index": 420,
          "section": "drop"
        },
        {
          "t": 43655,
          "type": "drum_hit",
          "pitch": 42,
          "duration_ms": 93,
          "velocity": 90,
          "beat_index": 422,
          "section": "drop"
        },
        {
          "t": 43862,
          "type": "drum_hit",
          "pitch": 36,
          "duration_ms": 93,
          "velocity": 127,
          "beat_index": 424,
          "section": "drop"
        },
        {
          "t": 43862,
          "type": "drum_hit",
          "pitch": 42,
          "duration_ms": 93,
          "velocity": 90,
          "beat_index": 424,
          "section": "drop"
        },
        {
          "t": 44068,
          "type": "drum_hit",
          "pitch": 42,
          "duration_ms": 93,
          "velocity": 90,
          "beat_index": 426,
          "section": "drop"
        },
        {
          "t": 44275,
          "type": "drum_hit",
          "pitch": 36,
          "duration_ms": 93,
          "velocity": 127,
          "beat_index": 428,
          "section": "drop"
        },
        {
          "t": 44275,
          "type": "drum_hit",
          "pitch": 38,
          "duration_ms": 93,
          "velocity": 110,
          "beat_index": 428,
          "section": "drop"
        },
        {
          "t": 44275,
          "type": "drum_hit",
          "pitch": 42,
          "duration_ms": 93,
          "velocity": 90,
          "beat_index": 428,
          "section": "drop"
        },
        {
          "t": 44482,
          "type": "drum_hit",
          "pitch": 42,
          "duration_ms": 93,
          "velocity": 90,
          "beat_index": 430,
          "section": "drop"
        },
        {
          "t": 44689,
          "type": "drum_hit",
          "pitch": 36,
          "duration_ms": 93,
          "velocity": 127,
          "beat_index": 432,
          "section": "drop"
        },
        {
          "t": 44689,
          "type": "drum_hit",
          "pitch": 42,
          "duration_ms": 93,
          "velocity": 90,
          "beat_index": 432,
          "section": "drop"
        },
        {
          "t": 44896,
          "type": "drum_hit",
          "pitch": 42,
          "duration_ms": 93,
          "velocity": 90,
          "beat_index": 434,
          "section": "drop"
        },
        {
          "t": 45103,
          "type": "drum_hit",
          "pitch": 36,
          "duration_ms": 93,
          "velocity": 127,
          "beat_index": 436,
          "section": "drop"
        },
        {
          "t": 45103,
          "type": "drum_hit",
          "pitch": 38,
          "duration_ms": 93,
          "velocity": 110,
          "beat_index": 436,
          "section": "drop"
        },
        {
          "t": 45103,
          "type": "drum_hit",
          "pitch": 42,
          "duration_ms": 93,
          "velocity": 90,
          "beat_index": 436,
          "section": "drop"
        },
        {
          "t": 45310,
          "type": "drum_hit",
          "pitch": 42,
          "duration_ms": 93,
          "velocity": 90,
          "beat_index": 438,
          "section": "drop"
        },
        {
          "t": 45517,
          "type": "drum_hit",
          "pitch": 36,
          "duration_ms": 93,
          "velocity": 127,
          "beat_index": 440,
          "section": "drop"
        },
        {
          "t": 45517,
          "type": "drum_hit",
          "pitch": 42,
          "duration_ms": 93,
          "velocity": 90,
          "beat_index": 440,
          "section": "drop"
        },
        {
          "t": 45724,
          "type": "drum_hit",
          "pitch": 42,
          "duration_ms": 93,
          "velocity": 90,
          "beat_index": 442,
          "section": "drop"
        },
        {
          "t": 45931,
          "type": "drum_hit",
          "pitch": 36,
          "duration_ms": 93,
          "velocity": 127,
          "beat_index": 444,
          "section": "drop"
        },
        {
          "t": 45931,
          "type": "drum_hit",
          "pitch": 38,
          "duration_ms": 93,
          "velocity": 110,
          "beat_index": 444,
          "section": "drop"
        },
        {
          "t": 45931,
          "type": "drum_hit",
          "pitch": 42,
          "duration_ms": 93,
          "velocity": 90,
          "beat_index": 444,
          "section": "drop"
        },
        {
          "t": 46137,
          "type": "drum_hit",
          "pitch": 42,
          "duration_ms": 93,
          "velocity": 90,
          "beat_index": 446,
          "section": "drop"
        },
        {
          "t": 46344,
          "type": "drum_hit",
          "pitch": 36,
          "duration_ms": 93,
          "velocity": 127,
          "beat_index": 448,
          "section": "drop"
        },
        {
          "t": 46344,
          "type": "drum_hit",
          "pitch": 42,
          "duration_ms": 93,
          "velocity": 90,
          "beat_index": 448,
          "section": "drop"
        },
        {
          "t": 46551,
          "type": "drum_hit",
          "pitch": 42,
          "duration_ms": 93,
          "velocity": 90,
          "beat_index": 450,
          "section": "drop"
        },
        {
          "t": 46758,
          "type": "drum_hit",
          "pitch": 36,
          "duration_ms": 93,
          "velocity": 127,
          "beat_index": 452,
          "section": "drop"
        },
        {
          "t": 46758,
          "type": "drum_hit",
          "pitch": 38,
          "duration_ms": 93,
          "velocity": 110,
          "beat_index": 452,
          "section": "drop"
        },
        {
          "t": 46758,
          "type": "drum_hit",
          "pitch": 42,
          "duration_ms": 93,
          "velocity": 90,
          "beat_index": 452,
          "section": "drop"
        },
        {
          "t": 46965,
          "type": "drum_hit",
          "pitch": 42,
          "duration_ms": 93,
          "velocity": 90,
          "beat_index": 454,
          "section": "drop"
        },
        {
          "t": 47172,
          "type": "drum_hit",
          "pitch": 36,
          "duration_ms": 93,
          "velocity": 127,
          "beat_index": 456,
          "section": "drop"
        },
        {
          "t": 47172,
          "type": "drum_hit",
          "pitch": 42,
          "duration_ms": 93,
          "velocity": 90,
          "beat_index": 456,
          "section": "drop"
        },
        {
          "t": 47379,
          "type": "drum_hit",
          "pitch": 42,
          "duration_ms": 93,
          "velocity": 90,
          "beat_index": 458,
          "section": "drop"
        },
        {
          "t": 47586,
          "type": "drum_hit",
          "pitch": 36,
          "duration_ms": 93,
          "velocity": 127,
          "beat_index": 460,
          "section": "drop"
        },
        {
          "t": 47586,
          "type": "drum_hit",
          "pitch": 38,
          "duration_ms": 93,
          "velocity": 110,
          "beat_index": 460,
          "section": "drop"
        },
        {
          "t": 47586,
          "type": "drum_hit",
          "pitch": 42,
          "duration_ms": 93,
          "velocity": 90,
          "beat_index": 460,
          "section": "drop"
        },
        {
          "t": 47793,
          "type": "drum_hit",
          "pitch": 42,
          "duration_ms": 93,
          "velocity": 90,
          "beat_index": 462,
          "section": "drop"
        },
        {
          "t": 48000,
          "type": "drum_hit",
          "pitch": 36,
          "duration_ms": 93,
          "velocity": 127,
          "beat_index": 464,
          "section": "drop"
        },
        {
          "t": 48000,
          "type": "drum_hit",
          "pitch": 42,
          "duration_ms": 93,
          "velocity": 90,
          "beat_index": 464,
          "section": "drop"
        },
        {
          "t": 48206,
          "type": "drum_hit",
          "pitch": 42,
          "duration_ms": 93,
          "velocity": 90,
          "beat_index": 466,
          "section": "drop"
        },
        {
          "t": 48413,
          "type": "drum_hit",
          "pitch": 36,
          "duration_ms": 93,
          "velocity": 127,
          "beat_index": 468,
          "section": "drop"
        },
        {
          "t": 48413,
          "type": "drum_hit",
          "pitch": 38,
          "duration_ms": 93,
          "velocity": 110,
          "beat_index": 468,
          "section": "drop"
        },
        {
          "t": 48413,
          "type": "drum_hit",
          "pitch": 42,
          "duration_ms": 93,
          "velocity": 90,
          "beat_index": 468,
          "section": "drop"
        },
        {
          "t": 48620,
          "type": "drum_hit",
          "pitch": 42,
          "duration_ms": 93,
          "velocity": 90,
          "beat_index": 470,
          "section": "drop"
        },
        {
          "t": 48827,
          "type": "drum_hit",
          "pitch": 36,
          "duration_ms": 93,
          "velocity": 127,
          "beat_index": 472,
          "section": "drop"
        },
        {
          "t": 48827,
          "type": "drum_hit",
          "pitch": 42,
          "duration_ms": 93,
          "velocity": 90,
          "beat_index": 472,
          "section": "drop"
        },
        {
          "t": 49034,
          "type": "drum_hit",
          "pitch": 42,
          "duration_ms": 93,
          "velocity": 90,
          "beat_index": 474,
          "section": "drop"
        },
        {
          "t": 49241,
          "type": "drum_hit",
          "pitch": 36,
          "duration_ms": 93,
          "velocity": 127,
          "beat_index": 476,
          "section": "drop"
        },
        {
          "t": 49241,
          "type": "drum_hit",
          "pitch": 38,
          "duration_ms": 93,
          "velocity": 110,
          "beat_index": 476,
          "section": "drop"
        },
        {
          "t": 49241,
          "type": "drum_hit",
          "pitch": 42,
          "duration_ms": 93,
          "velocity": 90,
          "beat_index": 476,
          "section": "drop"
        },
        {
          "t": 49448,
          "type": "drum_hit",
          "pitch": 42,
          "duration_ms": 93,
          "velocity": 90,
          "beat_index": 478,
          "section": "drop"
        },
        {
          "t": 49655,
          "type": "drum_hit",
          "pitch": 36,
          "duration_ms": 93,
          "velocity": 127,
          "beat_index": 480,
          "section": "drop"
        },
        {
          "t": 49655,
          "type": "drum_hit",
          "pitch": 42,
          "duration_ms": 93,
          "velocity": 90,
          "beat_index": 480,
          "section": "drop"
        },
        {
          "t": 49862,
          "type": "drum_hit",
          "pitch": 42,
          "duration_ms": 93,
          "velocity": 90,
          "beat_index": 482,
          "section": "drop"
        },
        {
          "t": 50068,
          "type": "drum_hit",
          "pitch": 36,
          "duration_ms": 93,
          "velocity": 127,
          "beat_index": 484,
          "section": "drop"
        },
        {
          "t": 50068,
          "type": "drum_hit",
          "pitch": 38,
          "duration_ms": 93,
          "velocity": 110,
          "beat_index": 484,
          "section": "drop"
        },
        {
          "t": 50068,
          "type": "drum_hit",
          "pitch": 42,
          "duration_ms": 93,
          "velocity": 90,
          "beat_index": 484,
          "section": "drop"
        },
        {
          "t": 50275,
          "type": "drum_hit",
          "pitch": 42,
          "duration_ms": 93,
          "velocity": 90,
          "beat_index": 486,
          "section": "drop"
        },
        {
          "t": 50482,
          "type": "drum_hit",
          "pitch": 36,
          "duration_ms": 93,
          "velocity": 127,
          "beat_index": 488,
          "section": "drop"
        },
        {
          "t": 50482,
          "type": "drum_hit",
          "pitch": 42,
          "duration_ms": 93,
          "velocity": 90,
          "beat_index": 488,
          "section": "drop"
        },
        {
          "t": 50689,
          "type": "drum_hit",
          "pitch": 42,
          "duration_ms": 93,
          "velocity": 90,
          "beat_index": 490,
          "section": "drop"
        },
        {
          "t": 50896,
          "type": "drum_hit",
          "pitch": 36,
          "duration_ms": 93,
          "velocity": 127,
          "beat_index": 492,
          "section": "drop"
        },
        {
          "t": 50896,
          "type": "drum_hit",
          "pitch": 38,
          "duration_ms": 93,
          "velocity": 110,
          "beat_index": 492,
          "section": "drop"
        },
        {
          "t": 50896,
          "type": "drum_hit",
          "pitch": 42,
          "duration_ms": 93,
          "velocity": 90,
          "beat_index": 492,
          "section": "drop"
        },
        {
          "t": 51103,
          "type": "drum_hit",
          "pitch": 42,
          "duration_ms": 93,
          "velocity": 90,
          "beat_index": 494,
          "section": "drop"
        },
        {
          "t": 51310,
          "type": "drum_hit",
          "pitch": 36,
          "duration_ms": 93,
          "velocity": 127,
          "beat_index": 496,
          "section": "drop"
        },
        {
          "t": 51310,
          "type": "drum_hit",
          "pitch": 42,
          "duration_ms": 93,
          "velocity": 90,
          "beat_index": 496,
          "section": "drop"
        },
        {
          "t": 51517,
          "type": "drum_hit",
          "pitch": 42,
          "duration_ms": 93,
          "velocity": 90,
          "beat_index": 498,
          "section": "drop"
        },
        {
          "t": 51724,
          "type": "drum_hit",
          "pitch": 36,
          "duration_ms": 93,
          "velocity": 127,
          "beat_index": 500,
          "section": "drop"
        },
        {
          "t": 51724,
          "type": "drum_hit",
          "pitch": 38,
          "duration_ms": 93,
          "velocity": 110,
          "beat_index": 500,
          "section": "drop"
        },
        {
          "t": 51724,
          "type": "drum_hit",
          "pitch": 42,
          "duration_ms": 93,
          "velocity": 90,
          "beat_index": 500,
          "section": "drop"
        },
        {
          "t": 51931,
          "type": "drum_hit",
          "pitch": 42,
          "duration_ms": 93,
          "velocity": 90,
          "beat_index": 502,
          "section": "drop"
        },
        {
          "t": 52137,
          "type": "drum_hit",
          "pitch": 36,
          "duration_ms": 93,
          "velocity": 127,
          "beat_index": 504,
          "section": "drop"
        },
        {
          "t": 52137,
          "type": "drum_hit",
          "pitch": 42,
          "duration_ms": 93,
          "velocity": 90,
          "beat_index": 504,
          "section": "drop"
        },
        {
          "t": 52344,
          "type": "drum_hit",
          "pitch": 42,
          "duration_ms": 93,
          "velocity": 90,
          "beat_index": 506,
          "section": "drop"
        },
        {
          "t": 52551,
          "type": "drum_hit",
          "pitch": 36,
          "duration_ms": 93,
          "velocity": 127,
          "beat_index": 508,
          "section": "drop"
        },
        {
          "t": 52551,
          "type": "drum_hit",
          "pitch": 38,
          "duration_ms": 93,
          "velocity": 110,
          "beat_index": 508,
          "section": "drop"
        },
        {
          "t": 52551,
          "type": "drum_hit",
          "pitch": 42,
          "duration_ms": 93,
          "velocity": 90,
          "beat_index": 508,
          "section": "drop"
        },
        {
          "t": 52758,
          "type": "drum_hit",
          "pitch": 42,
          "duration_ms": 93,
          "velocity": 90,
          "beat_index": 510,
          "section": "drop"
        },
        {
          "t": 52965,
          "type": "drum_hit",
          "pitch": 36,
          "duration_ms": 93,
          "velocity": 127,
          "beat_index": 512,
          "section": "drop"
        },
        {
          "t": 52965,
          "type": "drum_hit",
          "pitch": 42,
          "duration_ms": 93,
          "velocity": 90,
          "beat_index": 512,
          "section": "drop"
        },
        {
          "t": 53172,
          "type": "drum_hit",
          "pitch": 42,
          "duration_ms": 93,
          "velocity": 90,
          "beat_index": 514,
          "section": "drop"
        },
        {
          "t": 53379,
          "type": "drum_hit",
          "pitch": 36,
          "duration_ms": 93,
          "velocity": 127,
          "beat_index": 516,
          "section": "drop"
        },
        {
          "t": 53379,
          "type": "drum_hit",
          "pitch": 38,
          "duration_ms": 93,
          "velocity": 110,
          "beat_index": 516,
          "section": "drop"
        },
        {
          "t": 53379,
          "type": "drum_hit",
          "pitch": 42,
          "duration_ms": 93,
          "velocity": 90,
          "beat_index": 516,
          "section": "drop"
        },
        {
          "t": 53586,
          "type": "drum_hit",
          "pitch": 42,
          "duration_ms": 93,
          "velocity": 90,
          "beat_index": 518,
          "section": "drop"
        },
        {
          "t": 53793,
          "type": "drum_hit",
          "pitch": 36,
          "duration_ms": 93,
          "velocity": 127,
          "beat_index": 520,
          "section": "drop"
        },
        {
          "t": 53793,
          "type": "drum_hit",
          "pitch": 42,
          "duration_ms": 93,
          "velocity": 90,
          "beat_index": 520,
          "section": "drop"
        },
        {
          "t": 53999,
          "type": "drum_hit",
          "pitch": 42,
          "duration_ms": 93,
          "velocity": 90,
          "beat_index": 522,
          "section": "drop"
        },
        {
          "t": 54206,
          "type": "drum_hit",
          "pitch": 36,
          "duration_ms": 93,
          "velocity": 127,
          "beat_index": 524,
          "section": "drop"
        },
        {
          "t": 54206,
          "type": "drum_hit",
          "pitch": 38,
          "duration_ms": 93,
          "velocity": 110,
          "beat_index": 524,
          "section": "drop"
        },
        {
          "t": 54206,
          "type": "drum_hit",
          "pitch": 42,
          "duration_ms": 93,
          "velocity": 90,
          "beat_index": 524,
          "section": "drop"
        },
        {
          "t": 54413,
          "type": "drum_hit",
          "pitch": 42,
          "duration_ms": 93,
          "velocity": 90,
          "beat_index": 526,
          "section": "drop"
        },
        {
          "t": 54620,
          "type": "drum_hit",
          "pitch": 36,
          "duration_ms": 93,
          "velocity": 127,
          "beat_index": 528,
          "section": "drop"
        },
        {
          "t": 54620,
          "type": "drum_hit",
          "pitch": 42,
          "duration_ms": 93,
          "velocity": 90,
          "beat_index": 528,
          "section": "drop"
        },
        {
          "t": 54827,
          "type": "drum_hit",
          "pitch": 42,
          "duration_ms": 93,
          "velocity": 90,
          "beat_index": 530,
          "section": "drop"
        },
        {
          "t": 55034,
          "type": "drum_hit",
          "pitch": 36,
          "duration_ms": 93,
          "velocity": 127,
          "beat_index": 532,
          "section": "drop"
        },
        {
          "t": 55034,
          "type": "drum_hit",
          "pitch": 38,
          "duration_ms": 93,
          "velocity": 110,
          "beat_index": 532,
          "section": "drop"
        },
        {
          "t": 55034,
          "type": "drum_hit",
          "pitch": 42,
          "duration_ms": 93,
          "velocity": 90,
          "beat_index": 532,
          "section": "drop"
        },
        {
          "t": 55241,
          "type": "drum_hit",
          "pitch": 42,
          "duration_ms": 93,
          "velocity": 90,
          "beat_index": 534,
          "section": "drop"
        },
        {
          "t": 55448,
          "type": "drum_hit",
          "pitch": 36,
          "duration_ms": 93,
          "velocity": 127,
          "beat_index": 536,
          "section": "drop"
        },
        {
          "t": 55448,
          "type": "drum_hit",
          "pitch": 42,
          "duration_ms": 93,
          "velocity": 90,
          "beat_index": 536,
          "section": "drop"
        },
        {
          "t": 55655,
          "type": "drum_hit",
          "pitch": 42,
          "duration_ms": 93,
          "velocity": 90,
          "beat_index": 538,
          "section": "drop"
        },
        {
          "t": 55862,
          "type": "drum_hit",
          "pitch": 36,
          "duration_ms": 93,
          "velocity": 127,
          "beat_index": 540,
          "section": "drop"
        },
        {
          "t": 55862,
          "type": "drum_hit",
          "pitch": 38,
          "duration_ms": 93,
          "velocity": 110,
          "beat_index": 540,
          "section": "drop"
        },
        {
          "t": 55862,
          "type": "drum_hit",
          "pitch": 42,
          "duration_ms": 93,
          "velocity": 90,
          "beat_index": 540,
          "section": "drop"
        },
        {
          "t": 56068,
          "type": "drum_hit",
          "pitch": 42,
          "duration_ms": 93,
          "velocity": 90,
          "beat_index": 542,
          "section": "drop"
        },
        {
          "t": 56275,
          "type": "drum_hit",
          "pitch": 36,
          "duration_ms": 93,
          "velocity": 127,
          "beat_index": 544,
          "section": "drop"
        },
        {
          "t": 56275,
          "type": "drum_hit",
          "pitch": 42,
          "duration_ms": 93,
          "velocity": 90,
          "beat_index": 544,
          "section": "drop"
        },
        {
          "t": 56482,
          "type": "drum_hit",
          "pitch": 42,
          "duration_ms": 93,
          "velocity": 90,
          "beat_index": 546,
          "section": "drop"
        },
        {
          "t": 56689,
          "type": "drum_hit",
          "pitch": 36,
          "duration_ms": 93,
          "velocity": 127,
          "beat_index": 548,
          "section": "drop"
        },
        {
          "t": 56689,
          "type": "drum_hit",
          "pitch": 38,
          "duration_ms": 93,
          "velocity": 110,
          "beat_index": 548,
          "section": "drop"
        },
        {
          "t": 56689,
          "type": "drum_hit",
          "pitch": 42,
          "duration_ms": 93,
          "velocity": 90,
          "beat_index": 548,
          "section": "drop"
        },
        {
          "t": 56896,
          "type": "drum_hit",
          "pitch": 42,
          "duration_ms": 93,
          "velocity": 90,
          "beat_index": 550,
          "section": "drop"
        },
        {
          "t": 57103,
          "type": "drum_hit",
          "pitch": 36,
          "duration_ms": 93,
          "velocity": 127,
          "beat_index": 552,
          "section": "drop"
        },
        {
          "t": 57103,
          "type": "drum_hit",
          "pitch": 42,
          "duration_ms": 93,
          "velocity": 90,
          "beat_index": 552,
          "section": "drop"
        },
        {
          "t": 57310,
          "type": "drum_hit",
          "pitch": 42,
          "duration_ms": 93,
          "velocity": 90,
          "beat_index": 554,
          "section": "drop"
        },
        {
          "t": 57517,
          "type": "drum_hit",
          "pitch": 36,
          "duration_ms": 93,
          "velocity": 127,
          "beat_index": 556,
          "section": "drop"
        },
        {
          "t": 57517,
          "type": "drum_hit",
          "pitch": 38,
          "duration_ms": 93,
          "velocity": 110,
          "beat_index": 556,
          "section": "drop"
        },
        {
          "t": 57517,
          "type": "drum_hit",
          "pitch": 42,
          "duration_ms": 93,
          "velocity": 90,
          "beat_index": 556,
          "section": "drop"
        },
        {
          "t": 57724,
          "type": "drum_hit",
          "pitch": 42,
          "duration_ms": 93,
          "velocity": 90,
          "beat_index": 558,
          "section": "drop"
        },
        {
          "t": 57931,
          "type": "drum_hit",
          "pitch": 36,
          "duration_ms": 93,
          "velocity": 127,
          "beat_index": 560,
          "section": "drop"
        },
        {
          "t": 57931,
          "type": "drum_hit",
          "pitch": 42,
          "duration_ms": 93,
          "velocity": 90,
          "beat_index": 560,
          "section": "drop"
        },
        {
          "t": 58137,
          "type": "drum_hit",
          "pitch": 42,
          "duration_ms": 93,
          "velocity": 90,
          "beat_index": 562,
          "section": "drop"
        },
        {
          "t": 58344,
          "type": "drum_hit",
          "pitch": 36,
          "duration_ms": 93,
          "velocity": 127,
          "beat_index": 564,
          "section": "drop"
        },
        {
          "t": 58344,
          "type": "drum_hit",
          "pitch": 38,
          "duration_ms": 93,
          "velocity": 110,
          "beat_index": 564,
          "section": "drop"
        },
        {
          "t": 58344,
          "type": "drum_hit",
          "pitch": 42,
          "duration_ms": 93,
          "velocity": 90,
          "beat_index": 564,
          "section": "drop"
        },
        {
          "t": 58551,
          "type": "drum_hit",
          "pitch": 42,
          "duration_ms": 93,
          "velocity": 90,
          "beat_index": 566,
          "section": "drop"
        },
        {
          "t": 58758,
          "type": "drum_hit",
          "pitch": 36,
          "duration_ms": 93,
          "velocity": 127,
          "beat_index": 568,
          "section": "drop"
        },
        {
          "t": 58758,
          "type": "drum_hit",
          "pitch": 42,
          "duration_ms": 93,
          "velocity": 90,
          "beat_index": 568,
          "section": "drop"
        },
        {
          "t": 58965,
          "type": "drum_hit",
          "pitch": 42,
          "duration_ms": 93,
          "velocity": 90,
          "beat_index": 570,
          "section": "drop"
        },
        {
          "t": 59172,
          "type": "drum_hit",
          "pitch": 36,
          "duration_ms": 93,
          "velocity": 127,
          "beat_index": 572,
          "section": "drop"
        },
        {
          "t": 59172,
          "type": "drum_hit",
          "pitch": 38,
          "duration_ms": 93,
          "velocity": 110,
          "beat_index": 572,
          "section": "drop"
        },
        {
          "t": 59172,
          "type": "drum_hit",
          "pitch": 42,
          "duration_ms": 93,
          "velocity": 90,
          "beat_index": 572,
          "section": "drop"
        },
        {
          "t": 59379,
          "type": "drum_hit",
          "pitch": 42,
          "duration_ms": 93,
          "velocity": 90,
          "beat_index": 574,
          "section": "drop"
        },
        {
          "t": 59586,
          "type": "drum_hit",
          "pitch": 36,
          "duration_ms": 93,
          "velocity": 127,
          "beat_index": 576,
          "section": "drop"
        },
        {
          "t": 59586,
          "type": "drum_hit",
          "pitch": 42,
          "duration_ms": 93,
          "velocity": 90,
          "beat_index": 576,
          "section": "drop"
        },
        {
          "t": 59793,
          "type": "drum_hit",
          "pitch": 42,
          "duration_ms": 93,
          "velocity": 90,
          "beat_index": 578,
          "section": "drop"
        },
        {
          "t": 59999,
          "type": "drum_hit",
          "pitch": 36,
          "duration_ms": 93,
          "velocity": 127,
          "beat_index": 580,
          "section": "drop"
        },
        {
          "t": 59999,
          "type": "drum_hit",
          "pitch": 38,
          "duration_ms": 93,
          "velocity": 110,
          "beat_index": 580,
          "section": "drop"
        },
        {
          "t": 59999,
          "type": "drum_hit",
          "pitch": 42,
          "duration_ms": 93,
          "velocity": 90,
          "beat_index": 580,
          "section": "drop"
        },
        {
          "t": 60206,
          "type": "drum_hit",
          "pitch": 42,
          "duration_ms": 93,
          "velocity": 90,
          "beat_index": 582,
          "section": "drop"
        },
        {
          "t": 60413,
          "type": "drum_hit",
          "pitch": 36,
          "duration_ms": 93,
          "velocity": 127,
          "beat_index": 584,
          "section": "drop"
        },
        {
          "t": 60413,
          "type": "drum_hit",
          "pitch": 42,
          "duration_ms": 93,
          "velocity": 90,
          "beat_index": 584,
          "section": "drop"
        },
        {
          "t": 60620,
          "type": "drum_hit",
          "pitch": 42,
          "duration_ms": 93,
          "velocity": 90,
          "beat_index": 586,
          "section": "drop"
        },
        {
          "t": 60827,
          "type": "drum_hit",
          "pitch": 36,
          "duration_ms": 93,
          "velocity": 127,
          "beat_index": 588,
          "section": "drop"
        },
        {
          "t": 60827,
          "type": "drum_hit",
          "pitch": 38,
          "duration_ms": 93,
          "velocity": 110,
          "beat_index": 588,
          "section": "drop"
        },
        {
          "t": 60827,
          "type": "drum_hit",
          "pitch": 42,
          "duration_ms": 93,
          "velocity": 90,
          "beat_index": 588,
          "section": "drop"
        },
        {
          "t": 61034,
          "type": "drum_hit",
          "pitch": 42,
          "duration_ms": 93,
          "velocity": 90,
          "beat_index": 590,
          "section": "drop"
        },
        {
          "t": 61241,
          "type": "drum_hit",
          "pitch": 36,
          "duration_ms": 93,
          "velocity": 127,
          "beat_index": 592,
          "section": "drop"
        },
        {
          "t": 61241,
          "type": "drum_hit",
          "pitch": 42,
          "duration_ms": 93,
          "velocity": 90,
          "beat_index": 592,
          "section": "drop"
        },
        {
          "t": 61448,
          "type": "drum_hit",
          "pitch": 42,
          "duration_ms": 93,
          "velocity": 90,
          "beat_index": 594,
          "section": "drop"
        },
        {
          "t": 61655,
          "type": "drum_hit",
          "pitch": 36,
          "duration_ms": 93,
          "velocity": 127,
          "beat_index": 596,
          "section": "drop"
        },
        {
          "t": 61655,
          "type": "drum_hit",
          "pitch": 38,
          "duration_ms": 93,
          "velocity": 110,
          "beat_index": 596,
          "section": "drop"
        },
        {
          "t": 61655,
          "type": "drum_hit",
          "pitch": 42,
          "duration_ms": 93,
          "velocity": 90,
          "beat_index": 596,
          "section": "drop"
        },
        {
          "t": 61862,
          "type": "drum_hit",
          "pitch": 42,
          "duration_ms": 93,
          "velocity": 90,
          "beat_index": 598,
          "section": "drop"
        },
        {
          "t": 62068,
          "type": "drum_hit",
          "pitch": 36,
          "duration_ms": 93,
          "velocity": 127,
          "beat_index": 600,
          "section": "drop"
        },
        {
          "t": 62068,
          "type": "drum_hit",
          "pitch": 42,
          "duration_ms": 93,
          "velocity": 90,
          "beat_index": 600,
          "section": "drop"
        },
        {
          "t": 62275,
          "type": "drum_hit",
          "pitch": 42,
          "duration_ms": 93,
          "velocity": 90,
          "beat_index": 602,
          "section": "drop"
        },
        {
          "t": 62482,
          "type": "drum_hit",
          "pitch": 36,
          "duration_ms": 93,
          "velocity": 127,
          "beat_index": 604,
          "section": "drop"
        },
        {
          "t": 62482,
          "type": "drum_hit",
          "pitch": 38,
          "duration_ms": 93,
          "velocity": 110,
          "beat_index": 604,
          "section": "drop"
        },
        {
          "t": 62482,
          "type": "drum_hit",
          "pitch": 42,
          "duration_ms": 93,
          "velocity": 90,
          "beat_index": 604,
          "section": "drop"
        },
        {
          "t": 62689,
          "type": "drum_hit",
          "pitch": 42,
          "duration_ms": 93,
          "velocity": 90,
          "beat_index": 606,
          "section": "drop"
        },
        {
          "t": 62896,
          "type": "drum_hit",
          "pitch": 36,
          "duration_ms": 93,
          "velocity": 127,
          "beat_index": 608,
          "section": "drop"
        },
        {
          "t": 62896,
          "type": "drum_hit",
          "pitch": 42,
          "duration_ms": 93,
          "velocity": 90,
          "beat_index": 608,
          "section": "drop"
        },
        {
          "t": 63103,
          "type": "drum_hit",
          "pitch": 42,
          "duration_ms": 93,
          "velocity": 90,
          "beat_index": 610,
          "section": "drop"
        },
        {
          "t": 63310,
          "type": "drum_hit",
          "pitch": 36,
          "duration_ms": 93,
          "velocity": 127,
          "beat_index": 612,
          "section": "drop"
        },
        {
          "t": 63310,
          "type": "drum_hit",
          "pitch": 38,
          "duration_ms": 93,
          "velocity": 110,
          "beat_index": 612,
          "section": "drop"
        },
        {
          "t": 63310,
          "type": "drum_hit",
          "pitch": 42,
          "duration_ms": 93,
          "velocity": 90,
          "beat_index": 612,
          "section": "drop"
        },
        {
          "t": 63517,
          "type": "drum_hit",
          "pitch": 42,
          "duration_ms": 93,
          "velocity": 90,
          "beat_index": 614,
          "section": "drop"
        },
        {
          "t": 63724,
          "type": "drum_hit",
          "pitch": 36,
          "duration_ms": 93,
          "velocity": 127,
          "beat_index": 616,
          "section": "drop"
        },
        {
          "t": 63724,
          "type": "drum_hit",
          "pitch": 42,
          "duration_ms": 93,
          "velocity": 90,
          "beat_index": 616,
          "section": "drop"
        },
        {
          "t": 63931,
          "type": "drum_hit",
          "pitch": 42,
          "duration_ms": 93,
          "velocity": 90,
          "beat_index": 618,
          "section": "drop"
        },
        {
          "t": 64137,
          "type": "drum_hit",
          "pitch": 36,
          "duration_ms": 93,
          "velocity": 127,
          "beat_index": 620,
          "section": "drop"
        },
        {
          "t": 64137,
          "type": "drum_hit",
          "pitch": 38,
          "duration_ms": 93,
          "velocity": 110,
          "beat_index": 620,
          "section": "drop"
        },
        {
          "t": 64137,
          "type": "drum_hit",
          "pitch": 42,
          "duration_ms": 93,
          "velocity": 90,
          "beat_index": 620,
          "section": "drop"
        },
        {
          "t": 64344,
          "type": "drum_hit",
          "pitch": 42,
          "duration_ms": 93,
          "velocity": 90,
          "beat_index": 622,
          "section": "drop"
        },
        {
          "t": 64551,
          "type": "drum_hit",
          "pitch": 36,
          "duration_ms": 93,
          "velocity": 127,
          "beat_index": 624,
          "section": "drop"
        },
        {
          "t": 64551,
          "type": "drum_hit",
          "pitch": 42,
          "duration_ms": 93,
          "velocity": 90,
          "beat_index": 624,
          "section": "drop"
        },
        {
          "t": 64758,
          "type": "drum_hit",
          "pitch": 42,
          "duration_ms": 93,
          "velocity": 90,
          "beat_index": 626,
          "section": "drop"
        },
        {
          "t": 64965,
          "type": "drum_hit",
          "pitch": 36,
          "duration_ms": 93,
          "velocity": 127,
          "beat_index": 628,
          "section": "drop"
        },
        {
          "t": 64965,
          "type": "drum_hit",
          "pitch": 38,
          "duration_ms": 93,
          "velocity": 110,
          "beat_index": 628,
          "section": "drop"
        },
        {
          "t": 64965,
          "type": "drum_hit",
          "pitch": 42,
          "duration_ms": 93,
          "velocity": 90,
          "beat_index": 628,
          "section": "drop"
        },
        {
          "t": 65172,
          "type": "drum_hit",
          "pitch": 42,
          "duration_ms": 93,
          "velocity": 90,
          "beat_index": 630,
          "section": "drop"
        },
        {
          "t": 65379,
          "type": "drum_hit",
          "pitch": 36,
          "duration_ms": 93,
          "velocity": 127,
          "beat_index": 632,
          "section": "drop"
        },
        {
          "t": 65379,
          "type": "drum_hit",
          "pitch": 42,
          "duration_ms": 93,
          "velocity": 90,
          "beat_index": 632,
          "section": "drop"
        },
        {
          "t": 65586,
          "type": "drum_hit",
          "pitch": 42,
          "duration_ms": 93,
          "velocity": 90,
          "beat_index": 634,
          "section": "drop"
        },
        {
          "t": 65793,
          "type": "drum_hit",
          "pitch": 36,
          "duration_ms": 93,
          "velocity": 127,
          "beat_index": 636,
          "section": "drop"
        },
        {
          "t": 65793,
          "type": "drum_hit",
          "pitch": 38,
          "duration_ms": 93,
          "velocity": 110,
          "beat_index": 636,
          "section": "drop"
        },
        {
          "t": 65793,
          "type": "drum_hit",
          "pitch": 42,
          "duration_ms": 93,
          "velocity": 90,
          "beat_index": 636,
          "section": "drop"
        },
        {
          "t": 65999,
          "type": "drum_hit",
          "pitch": 42,
          "duration_ms": 93,
          "velocity": 90,
          "beat_index": 638,
          "section": "drop"
        },
        {
          "t": 66206,
          "type": "drum_hit",
          "pitch": 36,
          "duration_ms": 93,
          "velocity": 127,
          "beat_index": 640,
          "section": "drop"
        },
        {
          "t": 66206,
          "type": "drum_hit",
          "pitch": 42,
          "duration_ms": 93,
          "velocity": 90,
          "beat_index": 640,
          "section": "drop"
        },
        {
          "t": 66413,
          "type": "drum_hit",
          "pitch": 42,
          "duration_ms": 93,
          "velocity": 90,
          "beat_index": 642,
          "section": "drop"
        },
        {
          "t": 66620,
          "type": "drum_hit",
          "pitch": 36,
          "duration_ms": 93,
          "velocity": 127,
          "beat_index": 644,
          "section": "drop"
        },
        {
          "t": 66620,
          "type": "drum_hit",
          "pitch": 38,
          "duration_ms": 93,
          "velocity": 110,
          "beat_index": 644,
          "section": "drop"
        },
        {
          "t": 66620,
          "type": "drum_hit",
          "pitch": 42,
          "duration_ms": 93,
          "velocity": 90,
          "beat_index": 644,
          "section": "drop"
        },
        {
          "t": 66827,
          "type": "drum_hit",
          "pitch": 42,
          "duration_ms": 93,
          "velocity": 90,
          "beat_index": 646,
          "section": "drop"
        },
        {
          "t": 67034,
          "type": "drum_hit",
          "pitch": 36,
          "duration_ms": 93,
          "velocity": 127,
          "beat_index": 648,
          "section": "drop"
        },
        {
          "t": 67034,
          "type": "drum_hit",
          "pitch": 42,
          "duration_ms": 93,
          "velocity": 90,
          "beat_index": 648,
          "section": "drop"
        },
        {
          "t": 67241,
          "type": "drum_hit",
          "pitch": 42,
          "duration_ms": 93,
          "velocity": 90,
          "beat_index": 650,
          "section": "drop"
        },
        {
          "t": 67448,
          "type": "drum_hit",
          "pitch": 36,
          "duration_ms": 93,
          "velocity": 127,
          "beat_index": 652,
          "section": "drop"
        },
        {
          "t": 67448,
          "type": "drum_hit",
          "pitch": 38,
          "duration_ms": 93,
          "velocity": 110,
          "beat_index": 652,
          "section": "drop"
        },
        {
          "t": 67448,
          "type": "drum_hit",
          "pitch": 42,
          "duration_ms": 93,
          "velocity": 90,
          "beat_index": 652,
          "section": "drop"
        },
        {
          "t": 67655,
          "type": "drum_hit",
          "pitch": 42,
          "duration_ms": 93,
          "velocity": 90,
          "beat_index": 654,
          "section": "drop"
        },
        {
          "t": 67862,
          "type": "drum_hit",
          "pitch": 36,
          "duration_ms": 93,
          "velocity": 127,
          "beat_index": 656,
          "section": "drop"
        },
        {
          "t": 67862,
          "type": "drum_hit",
          "pitch": 42,
          "duration_ms": 93,
          "velocity": 90,
          "beat_index": 656,
          "section": "drop"
        },
        {
          "t": 68068,
          "type": "drum_hit",
          "pitch": 42,
          "duration_ms": 93,
          "velocity": 90,
          "beat_index": 658,
          "section": "drop"
        },
        {
          "t": 68275,
          "type": "drum_hit",
          "pitch": 36,
          "duration_ms": 93,
          "velocity": 127,
          "beat_index": 660,
          "section": "drop"
        },
        {
          "t": 68275,
          "type": "drum_hit",
          "pitch": 38,
          "duration_ms": 93,
          "velocity": 110,
          "beat_index": 660,
          "section": "drop"
        },
        {
          "t": 68275,
          "type": "drum_hit",
          "pitch": 42,
          "duration_ms": 93,
          "velocity": 90,
          "beat_index": 660,
          "section": "drop"
        },
        {
          "t": 68482,
          "type": "drum_hit",
          "pitch": 42,
          "duration_ms": 93,
          "velocity": 90,
          "beat_index": 662,
          "section": "drop"
        },
        {
          "t": 68689,
          "type": "drum_hit",
          "pitch": 36,
          "duration_ms": 93,
          "velocity": 127,
          "beat_index": 664,
          "section": "drop"
        },
        {
          "t": 68689,
          "type": "drum_hit",
          "pitch": 42,
          "duration_ms": 93,
          "velocity": 90,
          "beat_index": 664,
          "section": "drop"
        },
        {
          "t": 68896,
          "type": "drum_hit",
          "pitch": 42,
          "duration_ms": 93,
          "velocity": 90,
          "beat_index": 666,
          "section": "drop"
        },
        {
          "t": 69103,
          "type": "drum_hit",
          "pitch": 36,
          "duration_ms": 93,
          "velocity": 127,
          "beat_index": 668,
          "section": "drop"
        },
        {
          "t": 69103,
          "type": "drum_hit",
          "pitch": 38,
          "duration_ms": 93,
          "velocity": 110,
          "beat_index": 668,
          "section": "drop"
        },
        {
          "t": 69103,
          "type": "drum_hit",
          "pitch": 42,
          "duration_ms": 93,
          "velocity": 90,
          "beat_index": 668,
          "section": "drop"
        },
        {
          "t": 69310,
          "type": "drum_hit",
          "pitch": 42,
          "duration_ms": 93,
          "velocity": 90,
          "beat_index": 670,
          "section": "drop"
        },
        {
          "t": 69517,
          "type": "drum_hit",
          "pitch": 36,
          "duration_ms": 93,
          "velocity": 127,
          "beat_index": 672,
          "section": "drop"
        },
        {
          "t": 69517,
          "type": "drum_hit",
          "pitch": 42,
          "duration_ms": 93,
          "velocity": 90,
          "beat_index": 672,
          "section": "drop"
        },
        {
          "t": 69724,
          "type": "drum_hit",
          "pitch": 42,
          "duration_ms": 93,
          "velocity": 90,
          "beat_index": 674,
          "section": "drop"
        },
        {
          "t": 69931,
          "type": "drum_hit",
          "pitch": 36,
          "duration_ms": 93,
          "velocity": 127,
          "beat_index": 676,
          "section": "drop"
        },
        {
          "t": 69931,
          "type": "drum_hit",
          "pitch": 38,
          "duration_ms": 93,
          "velocity": 110,
          "beat_index": 676,
          "section": "drop"
        },
        {
          "t": 69931,
          "type": "drum_hit",
          "pitch": 42,
          "duration_ms": 93,
          "velocity": 90,
          "beat_index": 676,
          "section": "drop"
        },
        {
          "t": 70137,
          "type": "drum_hit",
          "pitch": 42,
          "duration_ms": 93,
          "velocity": 90,
          "beat_index": 678,
          "section": "drop"
        },
        {
          "t": 70344,
          "type": "drum_hit",
          "pitch": 36,
          "duration_ms": 93,
          "velocity": 127,
          "beat_index": 680,
          "section": "drop"
        },
        {
          "t": 70344,
          "type": "drum_hit",
          "pitch": 42,
          "duration_ms": 93,
          "velocity": 90,
          "beat_index": 680,
          "section": "drop"
        },
        {
          "t": 70551,
          "type": "drum_hit",
          "pitch": 42,
          "duration_ms": 93,
          "velocity": 90,
          "beat_index": 682,
          "section": "drop"
        },
        {
          "t": 70758,
          "type": "drum_hit",
          "pitch": 36,
          "duration_ms": 93,
          "velocity": 127,
          "beat_index": 684,
          "section": "drop"
        },
        {
          "t": 70758,
          "type": "drum_hit",
          "pitch": 38,
          "duration_ms": 93,
          "velocity": 110,
          "beat_index": 684,
          "section": "drop"
        },
        {
          "t": 70758,
          "type": "drum_hit",
          "pitch": 42,
          "duration_ms": 93,
          "velocity": 90,
          "beat_index": 684,
          "section": "drop"
        },
        {
          "t": 70965,
          "type": "drum_hit",
          "pitch": 42,
          "duration_ms": 93,
          "velocity": 90,
          "beat_index": 686,
          "section": "drop"
        },
        {
          "t": 71172,
          "type": "drum_hit",
          "pitch": 36,
          "duration_ms": 93,
          "velocity": 127,
          "beat_index": 688,
          "section": "drop"
        },
        {
          "t": 71172,
          "type": "drum_hit",
          "pitch": 42,
          "duration_ms": 93,
          "velocity": 90,
          "beat_index": 688,
          "section": "drop"
        },
        {
          "t": 71379,
          "type": "drum_hit",
          "pitch": 42,
          "duration_ms": 93,
          "velocity": 90,
          "beat_index": 690,
          "section": "drop"
        },
        {
          "t": 71586,
          "type": "drum_hit",
          "pitch": 36,
          "duration_ms": 93,
          "velocity": 127,
          "beat_index": 692,
          "section": "drop"
        },
        {
          "t": 71586,
          "type": "drum_hit",
          "pitch": 38,
          "duration_ms": 93,
          "velocity": 110,
          "beat_index": 692,
          "section": "drop"
        },
        {
          "t": 71586,
          "type": "drum_hit",
          "pitch": 42,
          "duration_ms": 93,
          "velocity": 90,
          "beat_index": 692,
          "section": "drop"
        },
        {
          "t": 71793,
          "type": "drum_hit",
          "pitch": 42,
          "duration_ms": 93,
          "velocity": 90,
          "beat_index": 694,
          "section": "drop"
        },
        {
          "t": 71999,
          "type": "drum_hit",
          "pitch": 36,
          "duration_ms": 93,
          "velocity": 127,
          "beat_index": 696,
          "section": "drop"
        },
        {
          "t": 71999,
          "type": "drum_hit",
          "pitch": 42,
          "duration_ms": 93,
          "velocity": 90,
          "beat_index": 696,
          "section": "drop"
        },
        {
          "t": 72206,
          "type": "drum_hit",
          "pitch": 42,
          "duration_ms": 93,
          "velocity": 90,
          "beat_index": 698,
          "section": "drop"
        },
        {
          "t": 72413,
          "type": "drum_hit",
          "pitch": 36,
          "duration_ms": 93,
          "velocity": 127,
          "beat_index": 700,
          "section": "drop"
        },
        {
          "t": 72413,
          "type": "drum_hit",
          "pitch": 38,
          "duration_ms": 93,
          "velocity": 110,
          "beat_index": 700,
          "section": "drop"
        },
        {
          "t": 72413,
          "type": "drum_hit",
          "pitch": 42,
          "duration_ms": 93,
          "velocity": 90,
          "beat_index": 700,
          "section": "drop"
        },
        {
          "t": 72620,
          "type": "drum_hit",
          "pitch": 42,
          "duration_ms": 93,
          "velocity": 90,
          "beat_index": 702,
          "section": "drop"
        },
        {
          "t": 72827,
          "type": "drum_hit",
          "pitch": 36,
          "duration_ms": 93,
          "velocity": 127,
          "beat_index": 704,
          "section": "drop"
        },
        {
          "t": 72827,
          "type": "drum_hit",
          "pitch": 42,
          "duration_ms": 93,
          "velocity": 90,
          "beat_index": 704,
          "section": "drop"
        },
        {
          "t": 73034,
          "type": "drum_hit",
          "pitch": 42,
          "duration_ms": 93,
          "velocity": 90,
          "beat_index": 706,
          "section": "drop"
        },
        {
          "t": 73241,
          "type": "drum_hit",
          "pitch": 36,
          "duration_ms": 93,
          "velocity": 127,
          "beat_index": 708,
          "section": "drop"
        },
        {
          "t": 73241,
          "type": "drum_hit",
          "pitch": 38,
          "duration_ms": 93,
          "velocity": 110,
          "beat_index": 708,
          "section": "drop"
        },
        {
          "t": 73241,
          "type": "drum_hit",
          "pitch": 42,
          "duration_ms": 93,
          "velocity": 90,
          "beat_index": 708,
          "section": "drop"
        },
        {
          "t": 73448,
          "type": "drum_hit",
          "pitch": 42,
          "duration_ms": 93,
          "velocity": 90,
          "beat_index": 710,
          "section": "drop"
        },
        {
          "t": 73655,
          "type": "drum_hit",
          "pitch": 36,
          "duration_ms": 93,
          "velocity": 127,
          "beat_index": 712,
          "section": "drop"
        },
        {
          "t": 73655,
          "type": "drum_hit",
          "pitch": 42,
          "duration_ms": 93,
          "velocity": 90,
          "beat_index": 712,
          "section": "drop"
        },
        {
          "t": 73862,
          "type": "drum_hit",
          "pitch": 42,
          "duration_ms": 93,
          "velocity": 90,
          "beat_index": 714,
          "section": "drop"
        },
        {
          "t": 74068,
          "type": "drum_hit",
          "pitch": 36,
          "duration_ms": 93,
          "velocity": 127,
          "beat_index": 716,
          "section": "drop"
        },
        {
          "t": 74068,
          "type": "drum_hit",
          "pitch": 38,
          "duration_ms": 93,
          "velocity": 110,
          "beat_index": 716,
          "section": "drop"
        },
        {
          "t": 74068,
          "type": "drum_hit",
          "pitch": 42,
          "duration_ms": 93,
          "velocity": 90,
          "beat_index": 716,
          "section": "drop"
        },
        {
          "t": 74275,
          "type": "drum_hit",
          "pitch": 42,
          "duration_ms": 93,
          "velocity": 90,
          "beat_index": 718,
          "section": "drop"
        },
        {
          "t": 74482,
          "type": "drum_hit",
          "pitch": 36,
          "duration_ms": 93,
          "velocity": 127,
          "beat_index": 720,
          "section": "drop"
        },
        {
          "t": 74482,
          "type": "drum_hit",
          "pitch": 42,
          "duration_ms": 93,
          "velocity": 90,
          "beat_index": 720,
          "section": "drop"
        },
        {
          "t": 74689,
          "type": "drum_hit",
          "pitch": 42,
          "duration_ms": 93,
          "velocity": 90,
          "beat_index": 722,
          "section": "drop"
        },
        {
          "t": 74896,
          "type": "drum_hit",
          "pitch": 36,
          "duration_ms": 93,
          "velocity": 127,
          "beat_index": 724,
          "section": "drop"
        },
        {
          "t": 74896,
          "type": "drum_hit",
          "pitch": 38,
          "duration_ms": 93,
          "velocity": 110,
          "beat_index": 724,
          "section": "drop"
        },
        {
          "t": 74896,
          "type": "drum_hit",
          "pitch": 42,
          "duration_ms": 93,
          "velocity": 90,
          "beat_index": 724,
          "section": "drop"
        },
        {
          "t": 75103,
          "type": "drum_hit",
          "pitch": 42,
          "duration_ms": 93,
          "velocity": 90,
          "beat_index": 726,
          "section": "drop"
        },
        {
          "t": 75310,
          "type": "drum_hit",
          "pitch": 36,
          "duration_ms": 93,
          "velocity": 127,
          "beat_index": 728,
          "section": "drop"
        },
        {
          "t": 75310,
          "type": "drum_hit",
          "pitch": 42,
          "duration_ms": 93,
          "velocity": 90,
          "beat_index": 728,
          "section": "drop"
        },
        {
          "t": 75517,
          "type": "drum_hit",
          "pitch": 42,
          "duration_ms": 93,
          "velocity": 90,
          "beat_index": 730,
          "section": "drop"
        },
        {
          "t": 75724,
          "type": "drum_hit",
          "pitch": 36,
          "duration_ms": 93,
          "velocity": 127,
          "beat_index": 732,
          "section": "drop"
        },
        {
          "t": 75724,
          "type": "drum_hit",
          "pitch": 38,
          "duration_ms": 93,
          "velocity": 110,
          "beat_index": 732,
          "section": "drop"
        },
        {
          "t": 75724,
          "type": "drum_hit",
          "pitch": 42,
          "duration_ms": 93,
          "velocity": 90,
          "beat_index": 732,
          "section": "drop"
        },
        {
          "t": 75931,
          "type": "drum_hit",
          "pitch": 42,
          "duration_ms": 93,
          "velocity": 90,
          "beat_index": 734,
          "section": "drop"
        },
        {
          "t": 76137,
          "type": "drum_hit",
          "pitch": 36,
          "duration_ms": 93,
          "velocity": 127,
          "beat_index": 736,
          "section": "drop"
        },
        {
          "t": 76137,
          "type": "drum_hit",
          "pitch": 42,
          "duration_ms": 93,
          "velocity": 90,
          "beat_index": 736,
          "section": "drop"
        },
        {
          "t": 76344,
          "type": "drum_hit",
          "pitch": 42,
          "duration_ms": 93,
          "velocity": 90,
          "beat_index": 738,
          "section": "drop"
        },
        {
          "t": 76551,
          "type": "drum_hit",
          "pitch": 36,
          "duration_ms": 93,
          "velocity": 127,
          "beat_index": 740,
          "section": "drop"
        },
        {
          "t": 76551,
          "type": "drum_hit",
          "pitch": 38,
          "duration_ms": 93,
          "velocity": 110,
          "beat_index": 740,
          "section": "drop"
        },
        {
          "t": 76551,
          "type": "drum_hit",
          "pitch": 42,
          "duration_ms": 93,
          "velocity": 90,
          "beat_index": 740,
          "section": "drop"
        },
        {
          "t": 76758,
          "type": "drum_hit",
          "pitch": 42,
          "duration_ms": 93,
          "velocity": 90,
          "beat_index": 742,
          "section": "drop"
        },
        {
          "t": 76965,
          "type": "drum_hit",
          "pitch": 36,
          "duration_ms": 93,
          "velocity": 127,
          "beat_index": 744,
          "section": "drop"
        },
        {
          "t": 76965,
          "type": "drum_hit",
          "pitch": 42,
          "duration_ms": 93,
          "velocity": 90,
          "beat_index": 744,
          "section": "drop"
        },
        {
          "t": 77172,
          "type": "drum_hit",
          "pitch": 42,
          "duration_ms": 93,
          "velocity": 90,
          "beat_index": 746,
          "section": "drop"
        },
        {
          "t": 77379,
          "type": "drum_hit",
          "pitch": 36,
          "duration_ms": 93,
          "velocity": 127,
          "beat_index": 748,
          "section": "drop"
        },
        {
          "t": 77379,
          "type": "drum_hit",
          "pitch": 38,
          "duration_ms": 93,
          "velocity": 110,
          "beat_index": 748,
          "section": "drop"
        },
        {
          "t": 77379,
          "type": "drum_hit",
          "pitch": 42,
          "duration_ms": 93,
          "velocity": 90,
          "beat_index": 748,
          "section": "drop"
        },
        {
          "t": 77586,
          "type": "drum_hit",
          "pitch": 42,
          "duration_ms": 93,
          "velocity": 90,
          "beat_index": 750,
          "section": "drop"
        },
        {
          "t": 77793,
          "type": "drum_hit",
          "pitch": 36,
          "duration_ms": 93,
          "velocity": 127,
          "beat_index": 752,
          "section": "drop"
        },
        {
          "t": 77793,
          "type": "drum_hit",
          "pitch": 42,
          "duration_ms": 93,
          "velocity": 90,
          "beat_index": 752,
          "section": "drop"
        },
        {
          "t": 77999,
          "type": "drum_hit",
          "pitch": 42,
          "duration_ms": 93,
          "velocity": 90,
          "beat_index": 754,
          "section": "drop"
        },
        {
          "t": 78206,
          "type": "drum_hit",
          "pitch": 36,
          "duration_ms": 93,
          "velocity": 127,
          "beat_index": 756,
          "section": "drop"
        },
        {
          "t": 78206,
          "type": "drum_hit",
          "pitch": 38,
          "duration_ms": 93,
          "velocity": 110,
          "beat_index": 756,
          "section": "drop"
        },
        {
          "t": 78206,
          "type": "drum_hit",
          "pitch": 42,
          "duration_ms": 93,
          "velocity": 90,
          "beat_index": 756,
          "section": "drop"
        },
        {
          "t": 78413,
          "type": "drum_hit",
          "pitch": 42,
          "duration_ms": 93,
          "velocity": 90,
          "beat_index": 758,
          "section": "drop"
        },
        {
          "t": 78620,
          "type": "drum_hit",
          "pitch": 36,
          "duration_ms": 93,
          "velocity": 127,
          "beat_index": 760,
          "section": "drop"
        },
        {
          "t": 78620,
          "type": "drum_hit",
          "pitch": 42,
          "duration_ms": 93,
          "velocity": 90,
          "beat_index": 760,
          "section": "drop"
        },
        {
          "t": 78827,
          "type": "drum_hit",
          "pitch": 42,
          "duration_ms": 93,
          "velocity": 90,
          "beat_index": 762,
          "section": "drop"
        },
        {
          "t": 79034,
          "type": "drum_hit",
          "pitch": 36,
          "duration_ms": 93,
          "velocity": 127,
          "beat_index": 764,
          "section": "drop"
        },
        {
          "t": 79034,
          "type": "drum_hit",
          "pitch": 38,
          "duration_ms": 93,
          "velocity": 110,
          "beat_index": 764,
          "section": "drop"
        },
        {
          "t": 79034,
          "type": "drum_hit",
          "pitch": 42,
          "duration_ms": 93,
          "velocity": 90,
          "beat_index": 764,
          "section": "drop"
        },
        {
          "t": 79241,
          "type": "drum_hit",
          "pitch": 42,
          "duration_ms": 93,
          "velocity": 90,
          "beat_index": 766,
          "section": "drop"
        },
        {
          "t": 79448,
          "type": "drum_hit",
          "pitch": 36,
          "duration_ms": 93,
          "velocity": 127,
          "beat_index": 768,
          "section": "drop"
        },
        {
          "t": 79448,
          "type": "drum_hit",
          "pitch": 42,
          "duration_ms": 93,
          "velocity": 90,
          "beat_index": 768,
          "section": "drop"
        },
        {
          "t": 79655,
          "type": "drum_hit",
          "pitch": 42,
          "duration_ms": 93,
          "velocity": 90,
          "beat_index": 770,
          "section": "drop"
        },
        {
          "t": 79862,
          "type": "drum_hit",
          "pitch": 36,
          "duration_ms": 93,
          "velocity": 127,
          "beat_index": 772,
          "section": "drop"
        },
        {
          "t": 79862,
          "type": "drum_hit",
          "pitch": 38,
          "duration_ms": 93,
          "velocity": 110,
          "beat_index": 772,
          "section": "drop"
        },
        {
          "t": 79862,
          "type": "drum_hit",
          "pitch": 42,
          "duration_ms": 93,
          "velocity": 90,
          "beat_index": 772,
          "section": "drop"
        },
        {
          "t": 80068,
          "type": "drum_hit",
          "pitch": 42,
          "duration_ms": 93,
          "velocity": 90,
          "beat_index": 774,
          "section": "drop"
        },
        {
          "t": 80275,
          "type": "drum_hit",
          "pitch": 36,
          "duration_ms": 93,
          "velocity": 127,
          "beat_index": 776,
          "section": "drop"
        },
        {
          "t": 80275,
          "type": "drum_hit",
          "pitch": 42,
          "duration_ms": 93,
          "velocity": 90,
          "beat_index": 776,
          "section": "drop"
        },
        {
          "t": 80482,
          "type": "drum_hit",
          "pitch": 42,
          "duration_ms": 93,
          "velocity": 90,
          "beat_index": 778,
          "section": "drop"
        },
        {
          "t": 80689,
          "type": "drum_hit",
          "pitch": 36,
          "duration_ms": 93,
          "velocity": 127,
          "beat_index": 780,
          "section": "drop"
        },
        {
          "t": 80689,
          "type": "drum_hit",
          "pitch": 38,
          "duration_ms": 93,
          "velocity": 110,
          "beat_index": 780,
          "section": "drop"
        },
        {
          "t": 80689,
          "type": "drum_hit",
          "pitch": 42,
          "duration_ms": 93,
          "velocity": 90,
          "beat_index": 780,
          "section": "drop"
        },
        {
          "t": 80896,
          "type": "drum_hit",
          "pitch": 42,
          "duration_ms": 93,
          "velocity": 90,
          "beat_index": 782,
          "section": "drop"
        },
        {
          "t": 81103,
          "type": "drum_hit",
          "pitch": 36,
          "duration_ms": 93,
          "velocity": 127,
          "beat_index": 784,
          "section": "drop"
        },
        {
          "t": 81103,
          "type": "drum_hit",
          "pitch": 42,
          "duration_ms": 93,
          "velocity": 90,
          "beat_index": 784,
          "section": "drop"
        },
        {
          "t": 81310,
          "type": "drum_hit",
          "pitch": 42,
          "duration_ms": 93,
          "velocity": 90,
          "beat_index": 786,
          "section": "drop"
        },
        {
          "t": 81517,
          "type": "drum_hit",
          "pitch": 36,
          "duration_ms": 93,
          "velocity": 127,
          "beat_index": 788,
          "section": "drop"
        },
        {
          "t": 81517,
          "type": "drum_hit",
          "pitch": 38,
          "duration_ms": 93,
          "velocity": 110,
          "beat_index": 788,
          "section": "drop"
        },
        {
          "t": 81517,
          "type": "drum_hit",
          "pitch": 42,
          "duration_ms": 93,
          "velocity": 90,
          "beat_index": 788,
          "section": "drop"
        },
        {
          "t": 81724,
          "type": "drum_hit",
          "pitch": 42,
          "duration_ms": 93,
          "velocity": 90,
          "beat_index": 790,
          "section": "drop"
        },
        {
          "t": 81931,
          "type": "drum_hit",
          "pitch": 36,
          "duration_ms": 93,
          "velocity": 127,
          "beat_index": 792,
          "section": "drop"
        },
        {
          "t": 81931,
          "type": "drum_hit",
          "pitch": 42,
          "duration_ms": 93,
          "velocity": 90,
          "beat_index": 792,
          "section": "drop"
        },
        {
          "t": 82137,
          "type": "drum_hit",
          "pitch": 42,
          "duration_ms": 93,
          "velocity": 90,
          "beat_index": 794,
          "section": "drop"
        },
        {
          "t": 82344,
          "type": "drum_hit",
          "pitch": 36,
          "duration_ms": 93,
          "velocity": 127,
          "beat_index": 796,
          "section": "drop"
        },
        {
          "t": 82344,
          "type": "drum_hit",
          "pitch": 38,
          "duration_ms": 93,
          "velocity": 110,
          "beat_index": 796,
          "section": "drop"
        },
        {
          "t": 82344,
          "type": "drum_hit",
          "pitch": 42,
          "duration_ms": 93,
          "velocity": 90,
          "beat_index": 796,
          "section": "drop"
        },
        {
          "t": 82551,
          "type": "drum_hit",
          "pitch": 42,
          "duration_ms": 93,
          "velocity": 90,
          "beat_index": 798,
          "section": "drop"
        },
        {
          "t": 82758,
          "type": "drum_hit",
          "pitch": 36,
          "duration_ms": 93,
          "velocity": 127,
          "beat_index": 800,
          "section": "drop"
        },
        {
          "t": 82758,
          "type": "drum_hit",
          "pitch": 42,
          "duration_ms": 93,
          "velocity": 90,
          "beat_index": 800,
          "section": "drop"
        },
        {
          "t": 82965,
          "type": "drum_hit",
          "pitch": 42,
          "duration_ms": 93,
          "velocity": 90,
          "beat_index": 802,
          "section": "drop"
        },
        {
          "t": 83172,
          "type": "drum_hit",
          "pitch": 36,
          "duration_ms": 93,
          "velocity": 127,
          "beat_index": 804,
          "section": "drop"
        },
        {
          "t": 83172,
          "type": "drum_hit",
          "pitch": 38,
          "duration_ms": 93,
          "velocity": 110,
          "beat_index": 804,
          "section": "drop"
        },
        {
          "t": 83172,
          "type": "drum_hit",
          "pitch": 42,
          "duration_ms": 93,
          "velocity": 90,
          "beat_index": 804,
          "section": "drop"
        },
        {
          "t": 83379,
          "type": "drum_hit",
          "pitch": 42,
          "duration_ms": 93,
          "velocity": 90,
          "beat_index": 806,
          "section": "drop"
        },
        {
          "t": 83586,
          "type": "drum_hit",
          "pitch": 36,
          "duration_ms": 93,
          "velocity": 127,
          "beat_index": 808,
          "section": "drop"
        },
        {
          "t": 83586,
          "type": "drum_hit",
          "pitch": 42,
          "duration_ms": 93,
          "velocity": 90,
          "beat_index": 808,
          "section": "drop"
        },
        {
          "t": 83793,
          "type": "drum_hit",
          "pitch": 42,
          "duration_ms": 93,
          "velocity": 90,
          "beat_index": 810,
          "section": "drop"
        },
        {
          "t": 83999,
          "type": "drum_hit",
          "pitch": 36,
          "duration_ms": 93,
          "velocity": 127,
          "beat_index": 812,
          "section": "drop"
        },
        {
          "t": 83999,
          "type": "drum_hit",
          "pitch": 38,
          "duration_ms": 93,
          "velocity": 110,
          "beat_index": 812,
          "section": "drop"
        },
        {
          "t": 83999,
          "type": "drum_hit",
          "pitch": 42,
          "duration_ms": 93,
          "velocity": 90,
          "beat_index": 812,
          "section": "drop"
        },
        {
          "t": 84206,
          "type": "drum_hit",
          "pitch": 42,
          "duration_ms": 93,
          "velocity": 90,
          "beat_index": 814,
          "section": "drop"
        },
        {
          "t": 84413,
          "type": "drum_hit",
          "pitch": 36,
          "duration_ms": 93,
          "velocity": 127,
          "beat_index": 816,
          "section": "drop"
        },
        {
          "t": 84413,
          "type": "drum_hit",
          "pitch": 42,
          "duration_ms": 93,
          "velocity": 90,
          "beat_index": 816,
          "section": "drop"
        },
        {
          "t": 84620,
          "type": "drum_hit",
          "pitch": 42,
          "duration_ms": 93,
          "velocity": 90,
          "beat_index": 818,
          "section": "drop"
        },
        {
          "t": 84827,
          "type": "drum_hit",
          "pitch": 36,
          "duration_ms": 93,
          "velocity": 127,
          "beat_index": 820,
          "section": "drop"
        },
        {
          "t": 84827,
          "type": "drum_hit",
          "pitch": 38,
          "duration_ms": 93,
          "velocity": 110,
          "beat_index": 820,
          "section": "drop"
        },
        {
          "t": 84827,
          "type": "drum_hit",
          "pitch": 42,
          "duration_ms": 93,
          "velocity": 90,
          "beat_index": 820,
          "section": "drop"
        },
        {
          "t": 85034,
          "type": "drum_hit",
          "pitch": 42,
          "duration_ms": 93,
          "velocity": 90,
          "beat_index": 822,
          "section": "drop"
        },
        {
          "t": 85241,
          "type": "drum_hit",
          "pitch": 36,
          "duration_ms": 93,
          "velocity": 127,
          "beat_index": 824,
          "section": "drop"
        },
        {
          "t": 85241,
          "type": "drum_hit",
          "pitch": 42,
          "duration_ms": 93,
          "velocity": 90,
          "beat_index": 824,
          "section": "drop"
        },
        {
          "t": 85448,
          "type": "drum_hit",
          "pitch": 42,
          "duration_ms": 93,
          "velocity": 90,
          "beat_index": 826,
          "section": "drop"
        },
        {
          "t": 85655,
          "type": "drum_hit",
          "pitch": 36,
          "duration_ms": 93,
          "velocity": 127,
          "beat_index": 828,
          "section": "drop"
        },
        {
          "t": 85655,
          "type": "drum_hit",
          "pitch": 38,
          "duration_ms": 93,
          "velocity": 110,
          "beat_index": 828,
          "section": "drop"
        },
        {
          "t": 85655,
          "type": "drum_hit",
          "pitch": 42,
          "duration_ms": 93,
          "velocity": 90,
          "beat_index": 828,
          "section": "drop"
        },
        {
          "t": 85862,
          "type": "drum_hit",
          "pitch": 42,
          "duration_ms": 93,
          "velocity": 90,
          "beat_index": 830,
          "section": "drop"
        },
        {
          "t": 86068,
          "type": "drum_hit",
          "pitch": 36,
          "duration_ms": 93,
          "velocity": 127,
          "beat_index": 832,
          "section": "drop"
        },
        {
          "t": 86068,
          "type": "drum_hit",
          "pitch": 42,
          "duration_ms": 93,
          "velocity": 90,
          "beat_index": 832,
          "section": "drop"
        },
        {
          "t": 86275,
          "type": "drum_hit",
          "pitch": 42,
          "duration_ms": 93,
          "velocity": 90,
          "beat_index": 834,
          "section": "drop"
        },
        {
          "t": 86482,
          "type": "drum_hit",
          "pitch": 36,
          "duration_ms": 93,
          "velocity": 127,
          "beat_index": 836,
          "section": "drop"
        },
        {
          "t": 86482,
          "type": "drum_hit",
          "pitch": 38,
          "duration_ms": 93,
          "velocity": 110,
          "beat_index": 836,
          "section": "drop"
        },
        {
          "t": 86482,
          "type": "drum_hit",
          "pitch": 42,
          "duration_ms": 93,
          "velocity": 90,
          "beat_index": 836,
          "section": "drop"
        },
        {
          "t": 86689,
          "type": "drum_hit",
          "pitch": 42,
          "duration_ms": 93,
          "velocity": 90,
          "beat_index": 838,
          "section": "drop"
        },
        {
          "t": 86896,
          "type": "drum_hit",
          "pitch": 36,
          "duration_ms": 93,
          "velocity": 127,
          "beat_index": 840,
          "section": "drop"
        },
        {
          "t": 86896,
          "type": "drum_hit",
          "pitch": 42,
          "duration_ms": 93,
          "velocity": 90,
          "beat_index": 840,
          "section": "drop"
        },
        {
          "t": 87103,
          "type": "drum_hit",
          "pitch": 42,
          "duration_ms": 93,
          "velocity": 90,
          "beat_index": 842,
          "section": "drop"
        },
        {
          "t": 87310,
          "type": "drum_hit",
          "pitch": 36,
          "duration_ms": 93,
          "velocity": 127,
          "beat_index": 844,
          "section": "drop"
        },
        {
          "t": 87310,
          "type": "drum_hit",
          "pitch": 38,
          "duration_ms": 93,
          "velocity": 110,
          "beat_index": 844,
          "section": "drop"
        },
        {
          "t": 87310,
          "type": "drum_hit",
          "pitch": 42,
          "duration_ms": 93,
          "velocity": 90,
          "beat_index": 844,
          "section": "drop"
        },
        {
          "t": 87517,
          "type": "drum_hit",
          "pitch": 42,
          "duration_ms": 93,
          "velocity": 90,
          "beat_index": 846,
          "section": "drop"
        },
        {
          "t": 87724,
          "type": "drum_hit",
          "pitch": 36,
          "duration_ms": 93,
          "velocity": 127,
          "beat_index": 848,
          "section": "drop"
        },
        {
          "t": 87724,
          "type": "drum_hit",
          "pitch": 42,
          "duration_ms": 93,
          "velocity": 90,
          "beat_index": 848,
          "section": "drop"
        },
        {
          "t": 87931,
          "type": "drum_hit",
          "pitch": 42,
          "duration_ms": 93,
          "velocity": 90,
          "beat_index": 850,
          "section": "drop"
        },
        {
          "t": 88137,
          "type": "drum_hit",
          "pitch": 36,
          "duration_ms": 93,
          "velocity": 127,
          "beat_index": 852,
          "section": "drop"
        },
        {
          "t": 88137,
          "type": "drum_hit",
          "pitch": 38,
          "duration_ms": 93,
          "velocity": 110,
          "beat_index": 852,
          "section": "drop"
        },
        {
          "t": 88137,
          "type": "drum_hit",
          "pitch": 42,
          "duration_ms": 93,
          "velocity": 90,
          "beat_index": 852,
          "section": "drop"
        },
        {
          "t": 88344,
          "type": "drum_hit",
          "pitch": 42,
          "duration_ms": 93,
          "velocity": 90,
          "beat_index": 854,
          "section": "drop"
        },
        {
          "t": 88551,
          "type": "drum_hit",
          "pitch": 36,
          "duration_ms": 93,
          "velocity": 127,
          "beat_index": 856,
          "section": "drop"
        },
        {
          "t": 88551,
          "type": "drum_hit",
          "pitch": 42,
          "duration_ms": 93,
          "velocity": 90,
          "beat_index": 856,
          "section": "drop"
        },
        {
          "t": 88758,
          "type": "drum_hit",
          "pitch": 42,
          "duration_ms": 93,
          "velocity": 90,
          "beat_index": 858,
          "section": "drop"
        },
        {
          "t": 88965,
          "type": "drum_hit",
          "pitch": 36,
          "duration_ms": 93,
          "velocity": 127,
          "beat_index": 860,
          "section": "drop"
        },
        {
          "t": 88965,
          "type": "drum_hit",
          "pitch": 38,
          "duration_ms": 93,
          "velocity": 110,
          "beat_index": 860,
          "section": "drop"
        },
        {
          "t": 88965,
          "type": "drum_hit",
          "pitch": 42,
          "duration_ms": 93,
          "velocity": 90,
          "beat_index": 860,
          "section": "drop"
        },
        {
          "t": 89172,
          "type": "drum_hit",
          "pitch": 42,
          "duration_ms": 93,
          "velocity": 90,
          "beat_index": 862,
          "section": "drop"
        },
        {
          "t": 89379,
          "type": "drum_hit",
          "pitch": 36,
          "duration_ms": 93,
          "velocity": 127,
          "beat_index": 864,
          "section": "drop"
        },
        {
          "t": 89379,
          "type": "drum_hit",
          "pitch": 42,
          "duration_ms": 93,
          "velocity": 90,
          "beat_index": 864,
          "section": "drop"
        },
        {
          "t": 89586,
          "type": "drum_hit",
          "pitch": 42,
          "duration_ms": 93,
          "velocity": 90,
          "beat_index": 866,
          "section": "drop"
        },
        {
          "t": 89793,
          "type": "drum_hit",
          "pitch": 36,
          "duration_ms": 93,
          "velocity": 127,
          "beat_index": 868,
          "section": "drop"
        },
        {
          "t": 89793,
          "type": "drum_hit",
          "pitch": 38,
          "duration_ms": 93,
          "velocity": 110,
          "beat_index": 868,
          "section": "drop"
        },
        {
          "t": 89793,
          "type": "drum_hit",
          "pitch": 42,
          "duration_ms": 93,
          "velocity": 90,
          "beat_index": 868,
          "section": "drop"
        },
        {
          "t": 89999,
          "type": "drum_hit",
          "pitch": 42,
          "duration_ms": 93,
          "velocity": 90,
          "beat_index": 870,
          "section": "drop"
        },
        {
          "t": 90206,
          "type": "drum_hit",
          "pitch": 36,
          "duration_ms": 93,
          "velocity": 127,
          "beat_index": 872,
          "section": "drop"
        },
        {
          "t": 90206,
          "type": "drum_hit",
          "pitch": 42,
          "duration_ms": 93,
          "velocity": 90,
          "beat_index": 872,
          "section": "drop"
        },
        {
          "t": 90413,
          "type": "drum_hit",
          "pitch": 42,
          "duration_ms": 93,
          "velocity": 90,
          "beat_index": 874,
          "section": "drop"
        },
        {
          "t": 90620,
          "type": "drum_hit",
          "pitch": 36,
          "duration_ms": 93,
          "velocity": 127,
          "beat_index": 876,
          "section": "drop"
        },
        {
          "t": 90620,
          "type": "drum_hit",
          "pitch": 38,
          "duration_ms": 93,
          "velocity": 110,
          "beat_index": 876,
          "section": "drop"
        },
        {
          "t": 90620,
          "type": "drum_hit",
          "pitch": 42,
          "duration_ms": 93,
          "velocity": 90,
          "beat_index": 876,
          "section": "drop"
        },
        {
          "t": 90827,
          "type": "drum_hit",
          "pitch": 42,
          "duration_ms": 93,
          "velocity": 90,
          "beat_index": 878,
          "section": "drop"
        },
        {
          "t": 91034,
          "type": "drum_hit",
          "pitch": 36,
          "duration_ms": 93,
          "velocity": 127,
          "beat_index": 880,
          "section": "drop"
        },
        {
          "t": 91034,
          "type": "drum_hit",
          "pitch": 42,
          "duration_ms": 93,
          "velocity": 90,
          "beat_index": 880,
          "section": "drop"
        },
        {
          "t": 91241,
          "type": "drum_hit",
          "pitch": 42,
          "duration_ms": 93,
          "velocity": 90,
          "beat_index": 882,
          "section": "drop"
        },
        {
          "t": 91448,
          "type": "drum_hit",
          "pitch": 36,
          "duration_ms": 93,
          "velocity": 127,
          "beat_index": 884,
          "section": "drop"
        },
        {
          "t": 91448,
          "type": "drum_hit",
          "pitch": 38,
          "duration_ms": 93,
          "velocity": 110,
          "beat_index": 884,
          "section": "drop"
        },
        {
          "t": 91448,
          "type": "drum_hit",
          "pitch": 42,
          "duration_ms": 93,
          "velocity": 90,
          "beat_index": 884,
          "section": "drop"
        },
        {
          "t": 91655,
          "type": "drum_hit",
          "pitch": 42,
          "duration_ms": 93,
          "velocity": 90,
          "beat_index": 886,
          "section": "drop"
        },
        {
          "t": 91862,
          "type": "drum_hit",
          "pitch": 36,
          "duration_ms": 93,
          "velocity": 127,
          "beat_index": 888,
          "section": "drop"
        },
        {
          "t": 91862,
          "type": "drum_hit",
          "pitch": 42,
          "duration_ms": 93,
          "velocity": 90,
          "beat_index": 888,
          "section": "drop"
        },
        {
          "t": 92068,
          "type": "drum_hit",
          "pitch": 42,
          "duration_ms": 93,
          "velocity": 90,
          "beat_index": 890,
          "section": "drop"
        },
        {
          "t": 92275,
          "type": "drum_hit",
          "pitch": 36,
          "duration_ms": 93,
          "velocity": 127,
          "beat_index": 892,
          "section": "drop"
        },
        {
          "t": 92275,
          "type": "drum_hit",
          "pitch": 38,
          "duration_ms": 93,
          "velocity": 110,
          "beat_index": 892,
          "section": "drop"
        },
        {
          "t": 92275,
          "type": "drum_hit",
          "pitch": 42,
          "duration_ms": 93,
          "velocity": 90,
          "beat_index": 892,
          "section": "drop"
        },
        {
          "t": 92482,
          "type": "drum_hit",
          "pitch": 42,
          "duration_ms": 93,
          "velocity": 90,
          "beat_index": 894,
          "section": "drop"
        },
        {
          "t": 92689,
          "type": "drum_hit",
          "pitch": 36,
          "duration_ms": 93,
          "velocity": 60,
          "beat_index": 896,
          "section": "breakdown"
        },
        {
          "t": 92689,
          "type": "drum_hit",
          "pitch": 42,
          "duration_ms": 93,
          "velocity": 40,
          "beat_index": 896,
          "section": "breakdown"
        },
        {
          "t": 92896,
          "type": "drum_hit",
          "pitch": 42,
          "duration_ms": 93,
          "velocity": 40,
          "beat_index": 898,
          "section": "breakdown"
        },
        {
          "t": 93103,
          "type": "drum_hit",
          "pitch": 36,
          "duration_ms": 93,
          "velocity": 60,
          "beat_index": 900,
          "section": "breakdown"
        },
        {
          "t": 93103,
          "type": "drum_hit",
          "pitch": 38,
          "duration_ms": 93,
          "velocity": 50,
          "beat_index": 900,
          "section": "breakdown"
        },
        {
          "t": 93103,
          "type": "drum_hit",
          "pitch": 42,
          "duration_ms": 93,
          "velocity": 40,
          "beat_index": 900,
          "section": "breakdown"
        },
        {
          "t": 93310,
          "type": "drum_hit",
          "pitch": 42,
          "duration_ms": 93,
          "velocity": 40,
          "beat_index": 902,
          "section": "breakdown"
        },
        {
          "t": 93517,
          "type": "drum_hit",
          "pitch": 36,
          "duration_ms": 93,
          "velocity": 60,
          "beat_index": 904,
          "section": "breakdown"
        },
        {
          "t": 93517,
          "type": "drum_hit",
          "pitch": 42,
          "duration_ms": 93,
          "velocity": 40,
          "beat_index": 904,
          "section": "breakdown"
        },
        {
          "t": 93724,
          "type": "drum_hit",
          "pitch": 42,
          "duration_ms": 93,
          "velocity": 40,
          "beat_index": 906,
          "section": "breakdown"
        },
        {
          "t": 93931,
          "type": "drum_hit",
          "pitch": 36,
          "duration_ms": 93,
          "velocity": 60,
          "beat_index": 908,
          "section": "breakdown"
        },
        {
          "t": 93931,
          "type": "drum_hit",
          "pitch": 38,
          "duration_ms": 93,
          "velocity": 50,
          "beat_index": 908,
          "section": "breakdown"
        },
        {
          "t": 93931,
          "type": "drum_hit",
          "pitch": 42,
          "duration_ms": 93,
          "velocity": 40,
          "beat_index": 908,
          "section": "breakdown"
        },
        {
          "t": 94137,
          "type": "drum_hit",
          "pitch": 42,
          "duration_ms": 93,
          "velocity": 40,
          "beat_index": 910,
          "section": "breakdown"
        },
        {
          "t": 94344,
          "type": "drum_hit",
          "pitch": 36,
          "duration_ms": 93,
          "velocity": 60,
          "beat_index": 912,
          "section": "breakdown"
        },
        {
          "t": 94344,
          "type": "drum_hit",
          "pitch": 42,
          "duration_ms": 93,
          "velocity": 40,
          "beat_index": 912,
          "section": "breakdown"
        },
        {
          "t": 94551,
          "type": "drum_hit",
          "pitch": 42,
          "duration_ms": 93,
          "velocity": 40,
          "beat_index": 914,
          "section": "breakdown"
        },
        {
          "t": 94758,
          "type": "drum_hit",
          "pitch": 36,
          "duration_ms": 93,
          "velocity": 60,
          "beat_index": 916,
          "section": "breakdown"
        },
        {
          "t": 94758,
          "type": "drum_hit",
          "pitch": 38,
          "duration_ms": 93,
          "velocity": 50,
          "beat_index": 916,
          "section": "breakdown"
        },
        {
          "t": 94758,
          "type": "drum_hit",
          "pitch": 42,
          "duration_ms": 93,
          "velocity": 40,
          "beat_index": 916,
          "section": "breakdown"
        },
        {
          "t": 94965,
          "type": "drum_hit",
          "pitch": 42,
          "duration_ms": 93,
          "velocity": 40,
          "beat_index": 918,
          "section": "breakdown"
        },
        {
          "t": 95172,
          "type": "drum_hit",
          "pitch": 36,
          "duration_ms": 93,
          "velocity": 60,
          "beat_index": 920,
          "section": "breakdown"
        },
        {
          "t": 95172,
          "type": "drum_hit",
          "pitch": 42,
          "duration_ms": 93,
          "velocity": 40,
          "beat_index": 920,
          "section": "breakdown"
        },
        {
          "t": 95379,
          "type": "drum_hit",
          "pitch": 42,
          "duration_ms": 93,
          "velocity": 40,
          "beat_index": 922,
          "section": "breakdown"
        },
        {
          "t": 95586,
          "type": "drum_hit",
          "pitch": 36,
          "duration_ms": 93,
          "velocity": 60,
          "beat_index": 924,
          "section": "breakdown"
        },
        {
          "t": 95586,
          "type": "drum_hit",
          "pitch": 38,
          "duration_ms": 93,
          "velocity": 50,
          "beat_index": 924,
          "section": "breakdown"
        },
        {
          "t": 95586,
          "type": "drum_hit",
          "pitch": 42,
          "duration_ms": 93,
          "velocity": 40,
          "beat_index": 924,
          "section": "breakdown"
        },
        {
          "t": 95793,
          "type": "drum_hit",
          "pitch": 42,
          "duration_ms": 93,
          "velocity": 40,
          "beat_index": 926,
          "section": "breakdown"
        },
        {
          "t": 95999,
          "type": "drum_hit",
          "pitch": 36,
          "duration_ms": 93,
          "velocity": 60,
          "beat_index": 928,
          "section": "breakdown"
        },
        {
          "t": 95999,
          "type": "drum_hit",
          "pitch": 42,
          "duration_ms": 93,
          "velocity": 40,
          "beat_index": 928,
          "section": "breakdown"
        },
        {
          "t": 96206,
          "type": "drum_hit",
          "pitch": 42,
          "duration_ms": 93,
          "velocity": 40,
          "beat_index": 930,
          "section": "breakdown"
        },
        {
          "t": 96413,
          "type": "drum_hit",
          "pitch": 36,
          "duration_ms": 93,
          "velocity": 60,
          "beat_index": 932,
          "section": "breakdown"
        },
        {
          "t": 96413,
          "type": "drum_hit",
          "pitch": 38,
          "duration_ms": 93,
          "velocity": 50,
          "beat_index": 932,
          "section": "breakdown"
        },
        {
          "t": 96413,
          "type": "drum_hit",
          "pitch": 42,
          "duration_ms": 93,
          "velocity": 40,
          "beat_index": 932,
          "section": "breakdown"
        },
        {
          "t": 96620,
          "type": "drum_hit",
          "pitch": 42,
          "duration_ms": 93,
          "velocity": 40,
          "beat_index": 934,
          "section": "breakdown"
        },
        {
          "t": 96827,
          "type": "drum_hit",
          "pitch": 36,
          "duration_ms": 93,
          "velocity": 60,
          "beat_index": 936,
          "section": "breakdown"
        },
        {
          "t": 96827,
          "type": "drum_hit",
          "pitch": 42,
          "duration_ms": 93,
          "velocity": 40,
          "beat_index": 936,
          "section": "breakdown"
        },
        {
          "t": 97034,
          "type": "drum_hit",
          "pitch": 42,
          "duration_ms": 93,
          "velocity": 40,
          "beat_index": 938,
          "section": "breakdown"
        },
        {
          "t": 97241,
          "type": "drum_hit",
          "pitch": 36,
          "duration_ms": 93,
          "velocity": 60,
          "beat_index": 940,
          "section": "breakdown"
        },
        {
          "t": 97241,
          "type": "drum_hit",
          "pitch": 38,
          "duration_ms": 93,
          "velocity": 50,
          "beat_index": 940,
          "section": "breakdown"
        },
        {
          "t": 97241,
          "type": "drum_hit",
          "pitch": 42,
          "duration_ms": 93,
          "velocity": 40,
          "beat_index": 940,
          "section": "breakdown"
        },
        {
          "t": 97448,
          "type": "drum_hit",
          "pitch": 42,
          "duration_ms": 93,
          "velocity": 40,
          "beat_index": 942,
          "section": "breakdown"
        },
        {
          "t": 97655,
          "type": "drum_hit",
          "pitch": 36,
          "duration_ms": 93,
          "velocity": 60,
          "beat_index": 944,
          "section": "breakdown"
        },
        {
          "t": 97655,
          "type": "drum_hit",
          "pitch": 42,
          "duration_ms": 93,
          "velocity": 40,
          "beat_index": 944,
          "section": "breakdown"
        },
        {
          "t": 97862,
          "type": "drum_hit",
          "pitch": 42,
          "duration_ms": 93,
          "velocity": 40,
          "beat_index": 946,
          "section": "breakdown"
        },
        {
          "t": 98068,
          "type": "drum_hit",
          "pitch": 36,
          "duration_ms": 93,
          "velocity": 60,
          "beat_index": 948,
          "section": "breakdown"
        },
        {
          "t": 98068,
          "type": "drum_hit",
          "pitch": 38,
          "duration_ms": 93,
          "velocity": 50,
          "beat_index": 948,
          "section": "breakdown"
        },
        {
          "t": 98068,
          "type": "drum_hit",
          "pitch": 42,
          "duration_ms": 93,
          "velocity": 40,
          "beat_index": 948,
          "section": "breakdown"
        },
        {
          "t": 98275,
          "type": "drum_hit",
          "pitch": 42,
          "duration_ms": 93,
          "velocity": 40,
          "beat_index": 950,
          "section": "breakdown"
        },
        {
          "t": 98482,
          "type": "drum_hit",
          "pitch": 36,
          "duration_ms": 93,
          "velocity": 60,
          "beat_index": 952,
          "section": "breakdown"
        },
        {
          "t": 98482,
          "type": "drum_hit",
          "pitch": 42,
          "duration_ms": 93,
          "velocity": 40,
          "beat_index": 952,
          "section": "breakdown"
        },
        {
          "t": 98689,
          "type": "drum_hit",
          "pitch": 42,
          "duration_ms": 93,
          "velocity": 40,
          "beat_index": 954,
          "section": "breakdown"
        },
        {
          "t": 98896,
          "type": "drum_hit",
          "pitch": 36,
          "duration_ms": 93,
          "velocity": 60,
          "beat_index": 956,
          "section": "breakdown"
        },
        {
          "t": 98896,
          "type": "drum_hit",
          "pitch": 38,
          "duration_ms": 93,
          "velocity": 50,
          "beat_index": 956,
          "section": "breakdown"
        },
        {
          "t": 98896,
          "type": "drum_hit",
          "pitch": 42,
          "duration_ms": 93,
          "velocity": 40,
          "beat_index": 956,
          "section": "breakdown"
        },
        {
          "t": 99103,
          "type": "drum_hit",
          "pitch": 42,
          "duration_ms": 93,
          "velocity": 40,
          "beat_index": 958,
          "section": "breakdown"
        },
        {
          "t": 99310,
          "type": "drum_hit",
          "pitch": 36,
          "duration_ms": 93,
          "velocity": 60,
          "beat_index": 960,
          "section": "breakdown"
        },
        {
          "t": 99310,
          "type": "drum_hit",
          "pitch": 42,
          "duration_ms": 93,
          "velocity": 40,
          "beat_index": 960,
          "section": "breakdown"
        },
        {
          "t": 99517,
          "type": "drum_hit",
          "pitch": 42,
          "duration_ms": 93,
          "velocity": 40,
          "beat_index": 962,
          "section": "breakdown"
        },
        {
          "t": 99724,
          "type": "drum_hit",
          "pitch": 36,
          "duration_ms": 93,
          "velocity": 60,
          "beat_index": 964,
          "section": "breakdown"
        },
        {
          "t": 99724,
          "type": "drum_hit",
          "pitch": 38,
          "duration_ms": 93,
          "velocity": 50,
          "beat_index": 964,
          "section": "breakdown"
        },
        {
          "t": 99724,
          "type": "drum_hit",
          "pitch": 42,
          "duration_ms": 93,
          "velocity": 40,
          "beat_index": 964,
          "section": "breakdown"
        },
        {
          "t": 99931,
          "type": "drum_hit",
          "pitch": 42,
          "duration_ms": 93,
          "velocity": 40,
          "beat_index": 966,
          "section": "breakdown"
        },
        {
          "t": 100137,
          "type": "drum_hit",
          "pitch": 36,
          "duration_ms": 93,
          "velocity": 60,
          "beat_index": 968,
          "section": "breakdown"
        },
        {
          "t": 100137,
          "type": "drum_hit",
          "pitch": 42,
          "duration_ms": 93,
          "velocity": 40,
          "beat_index": 968,
          "section": "breakdown"
        },
        {
          "t": 100344,
          "type": "drum_hit",
          "pitch": 42,
          "duration_ms": 93,
          "velocity": 40,
          "beat_index": 970,
          "section": "breakdown"
        },
        {
          "t": 100551,
          "type": "drum_hit",
          "pitch": 36,
          "duration_ms": 93,
          "velocity": 60,
          "beat_index": 972,
          "section": "breakdown"
        },
        {
          "t": 100551,
          "type": "drum_hit",
          "pitch": 38,
          "duration_ms": 93,
          "velocity": 50,
          "beat_index": 972,
          "section": "breakdown"
        },
        {
          "t": 100551,
          "type": "drum_hit",
          "pitch": 42,
          "duration_ms": 93,
          "velocity": 40,
          "beat_index": 972,
          "section": "breakdown"
        },
        {
          "t": 100758,
          "type": "drum_hit",
          "pitch": 42,
          "duration_ms": 93,
          "velocity": 40,
          "beat_index": 974,
          "section": "breakdown"
        },
        {
          "t": 100965,
          "type": "drum_hit",
          "pitch": 36,
          "duration_ms": 93,
          "velocity": 60,
          "beat_index": 976,
          "section": "breakdown"
        },
        {
          "t": 100965,
          "type": "drum_hit",
          "pitch": 42,
          "duration_ms": 93,
          "velocity": 40,
          "beat_index": 976,
          "section": "breakdown"
        },
        {
          "t": 101172,
          "type": "drum_hit",
          "pitch": 42,
          "duration_ms": 93,
          "velocity": 40,
          "beat_index": 978,
          "section": "breakdown"
        },
        {
          "t": 101379,
          "type": "drum_hit",
          "pitch": 36,
          "duration_ms": 93,
          "velocity": 60,
          "beat_index": 980,
          "section": "breakdown"
        },
        {
          "t": 101379,
          "type": "drum_hit",
          "pitch": 38,
          "duration_ms": 93,
          "velocity": 50,
          "beat_index": 980,
          "section": "breakdown"
        },
        {
          "t": 101379,
          "type": "drum_hit",
          "pitch": 42,
          "duration_ms": 93,
          "velocity": 40,
          "beat_index": 980,
          "section": "breakdown"
        },
        {
          "t": 101586,
          "type": "drum_hit",
          "pitch": 42,
          "duration_ms": 93,
          "velocity": 40,
          "beat_index": 982,
          "section": "breakdown"
        },
        {
          "t": 101793,
          "type": "drum_hit",
          "pitch": 36,
          "duration_ms": 93,
          "velocity": 60,
          "beat_index": 984,
          "section": "breakdown"
        },
        {
          "t": 101793,
          "type": "drum_hit",
          "pitch": 42,
          "duration_ms": 93,
          "velocity": 40,
          "beat_index": 984,
          "section": "breakdown"
        },
        {
          "t": 101999,
          "type": "drum_hit",
          "pitch": 42,
          "duration_ms": 93,
          "velocity": 40,
          "beat_index": 986,
          "section": "breakdown"
        },
        {
          "t": 102206,
          "type": "drum_hit",
          "pitch": 36,
          "duration_ms": 93,
          "velocity": 60,
          "beat_index": 988,
          "section": "breakdown"
        },
        {
          "t": 102206,
          "type": "drum_hit",
          "pitch": 38,
          "duration_ms": 93,
          "velocity": 50,
          "beat_index": 988,
          "section": "breakdown"
        },
        {
          "t": 102206,
          "type": "drum_hit",
          "pitch": 42,
          "duration_ms": 93,
          "velocity": 40,
          "beat_index": 988,
          "section": "breakdown"
        },
        {
          "t": 102413,
          "type": "drum_hit",
          "pitch": 42,
          "duration_ms": 93,
          "velocity": 40,
          "beat_index": 990,
          "section": "breakdown"
        },
        {
          "t": 102620,
          "type": "drum_hit",
          "pitch": 36,
          "duration_ms": 93,
          "velocity": 60,
          "beat_index": 992,
          "section": "breakdown"
        },
        {
          "t": 102620,
          "type": "drum_hit",
          "pitch": 42,
          "duration_ms": 93,
          "velocity": 40,
          "beat_index": 992,
          "section": "breakdown"
        },
        {
          "t": 102827,
          "type": "drum_hit",
          "pitch": 42,
          "duration_ms": 93,
          "velocity": 40,
          "beat_index": 994,
          "section": "breakdown"
        },
        {
          "t": 103034,
          "type": "drum_hit",
          "pitch": 36,
          "duration_ms": 93,
          "velocity": 60,
          "beat_index": 996,
          "section": "breakdown"
        },
        {
          "t": 103034,
          "type": "drum_hit",
          "pitch": 38,
          "duration_ms": 93,
          "velocity": 50,
          "beat_index": 996,
          "section": "breakdown"
        },
        {
          "t": 103034,
          "type": "drum_hit",
          "pitch": 42,
          "duration_ms": 93,
          "velocity": 40,
          "beat_index": 996,
          "section": "breakdown"
        },
        {
          "t": 103241,
          "type": "drum_hit",
          "pitch": 42,
          "duration_ms": 93,
          "velocity": 40,
          "beat_index": 998,
          "section": "breakdown"
        },
        {
          "t": 103448,
          "type": "drum_hit",
          "pitch": 36,
          "duration_ms": 93,
          "velocity": 60,
          "beat_index": 1000,
          "section": "breakdown"
        },
        {
          "t": 103448,
          "type": "drum_hit",
          "pitch": 42,
          "duration_ms": 93,
          "velocity": 40,
          "beat_index": 1000,
          "section": "breakdown"
        },
        {
          "t": 103655,
          "type": "drum_hit",
          "pitch": 42,
          "duration_ms": 93,
          "velocity": 40,
          "beat_index": 1002,
          "section": "breakdown"
        },
        {
          "t": 103862,
          "type": "drum_hit",
          "pitch": 36,
          "duration_ms": 93,
          "velocity": 60,
          "beat_index": 1004,
          "section": "breakdown"
        },
        {
          "t": 103862,
          "type": "drum_hit",
          "pitch": 38,
          "duration_ms": 93,
          "velocity": 50,
          "beat_index": 1004,
          "section": "breakdown"
        },
        {
          "t": 103862,
          "type": "drum_hit",
          "pitch": 42,
          "duration_ms": 93,
          "velocity": 40,
          "beat_index": 1004,
          "section": "breakdown"
        },
        {
          "t": 104068,
          "type": "drum_hit",
          "pitch": 42,
          "duration_ms": 93,
          "velocity": 40,
          "beat_index": 1006,
          "section": "breakdown"
        },
        {
          "t": 104275,
          "type": "drum_hit",
          "pitch": 36,
          "duration_ms": 93,
          "velocity": 60,
          "beat_index": 1008,
          "section": "breakdown"
        },
        {
          "t": 104275,
          "type": "drum_hit",
          "pitch": 42,
          "duration_ms": 93,
          "velocity": 40,
          "beat_index": 1008,
          "section": "breakdown"
        },
        {
          "t": 104482,
          "type": "drum_hit",
          "pitch": 42,
          "duration_ms": 93,
          "velocity": 40,
          "beat_index": 1010,
          "section": "breakdown"
        },
        {
          "t": 104689,
          "type": "drum_hit",
          "pitch": 36,
          "duration_ms": 93,
          "velocity": 60,
          "beat_index": 1012,
          "section": "breakdown"
        },
        {
          "t": 104689,
          "type": "drum_hit",
          "pitch": 38,
          "duration_ms": 93,
          "velocity": 50,
          "beat_index": 1012,
          "section": "breakdown"
        },
        {
          "t": 104689,
          "type": "drum_hit",
          "pitch": 42,
          "duration_ms": 93,
          "velocity": 40,
          "beat_index": 1012,
          "section": "breakdown"
        },
        {
          "t": 104896,
          "type": "drum_hit",
          "pitch": 42,
          "duration_ms": 93,
          "velocity": 40,
          "beat_index": 1014,
          "section": "breakdown"
        },
        {
          "t": 105103,
          "type": "drum_hit",
          "pitch": 36,
          "duration_ms": 93,
          "velocity": 60,
          "beat_index": 1016,
          "section": "breakdown"
        },
        {
          "t": 105103,
          "type": "drum_hit",
          "pitch": 42,
          "duration_ms": 93,
          "velocity": 40,
          "beat_index": 1016,
          "section": "breakdown"
        },
        {
          "t": 105310,
          "type": "drum_hit",
          "pitch": 42,
          "duration_ms": 93,
          "velocity": 40,
          "beat_index": 1018,
          "section": "breakdown"
        },
        {
          "t": 105517,
          "type": "drum_hit",
          "pitch": 36,
          "duration_ms": 93,
          "velocity": 60,
          "beat_index": 1020,
          "section": "breakdown"
        },
        {
          "t": 105517,
          "type": "drum_hit",
          "pitch": 38,
          "duration_ms": 93,
          "velocity": 50,
          "beat_index": 1020,
          "section": "breakdown"
        },
        {
          "t": 105517,
          "type": "drum_hit",
          "pitch": 42,
          "duration_ms": 93,
          "velocity": 40,
          "beat_index": 1020,
          "section": "breakdown"
        },
        {
          "t": 105724,
          "type": "drum_hit",
          "pitch": 42,
          "duration_ms": 93,
          "velocity": 40,
          "beat_index": 1022,
          "section": "breakdown"
        },
        {
          "t": 105931,
          "type": "drum_hit",
          "pitch": 36,
          "duration_ms": 93,
          "velocity": 60,
          "beat_index": 1024,
          "section": "breakdown"
        },
        {
          "t": 105931,
          "type": "drum_hit",
          "pitch": 42,
          "duration_ms": 93,
          "velocity": 40,
          "beat_index": 1024,
          "section": "breakdown"
        },
        {
          "t": 106137,
          "type": "drum_hit",
          "pitch": 42,
          "duration_ms": 93,
          "velocity": 40,
          "beat_index": 1026,
          "section": "breakdown"
        },
        {
          "t": 106344,
          "type": "drum_hit",
          "pitch": 36,
          "duration_ms": 93,
          "velocity": 60,
          "beat_index": 1028,
          "section": "breakdown"
        },
        {
          "t": 106344,
          "type": "drum_hit",
          "pitch": 38,
          "duration_ms": 93,
          "velocity": 50,
          "beat_index": 1028,
          "section": "breakdown"
        },
        {
          "t": 106344,
          "type": "drum_hit",
          "pitch": 42,
          "duration_ms": 93,
          "velocity": 40,
          "beat_index": 1028,
          "section": "breakdown"
        },
        {
          "t": 106551,
          "type": "drum_hit",
          "pitch": 42,
          "duration_ms": 93,
          "velocity": 40,
          "beat_index": 1030,
          "section": "breakdown"
        },
        {
          "t": 106758,
          "type": "drum_hit",
          "pitch": 36,
          "duration_ms": 93,
          "velocity": 60,
          "beat_index": 1032,
          "section": "breakdown"
        },
        {
          "t": 106758,
          "type": "drum_hit",
          "pitch": 42,
          "duration_ms": 93,
          "velocity": 40,
          "beat_index": 1032,
          "section": "breakdown"
        },
        {
          "t": 106965,
          "type": "drum_hit",
          "pitch": 42,
          "duration_ms": 93,
          "velocity": 40,
          "beat_index": 1034,
          "section": "breakdown"
        },
        {
          "t": 107172,
          "type": "drum_hit",
          "pitch": 36,
          "duration_ms": 93,
          "velocity": 60,
          "beat_index": 1036,
          "section": "breakdown"
        },
        {
          "t": 107172,
          "type": "drum_hit",
          "pitch": 38,
          "duration_ms": 93,
          "velocity": 50,
          "beat_index": 1036,
          "section": "breakdown"
        },
        {
          "t": 107172,
          "type": "drum_hit",
          "pitch": 42,
          "duration_ms": 93,
          "velocity": 40,
          "beat_index": 1036,
          "section": "breakdown"
        },
        {
          "t": 107379,
          "type": "drum_hit",
          "pitch": 42,
          "duration_ms": 93,
          "velocity": 40,
          "beat_index": 1038,
          "section": "breakdown"
        },
        {
          "t": 107586,
          "type": "drum_hit",
          "pitch": 36,
          "duration_ms": 93,
          "velocity": 60,
          "beat_index": 1040,
          "section": "breakdown"
        },
        {
          "t": 107586,
          "type": "drum_hit",
          "pitch": 42,
          "duration_ms": 93,
          "velocity": 40,
          "beat_index": 1040,
          "section": "breakdown"
        },
        {
          "t": 107793,
          "type": "drum_hit",
          "pitch": 42,
          "duration_ms": 93,
          "velocity": 40,
          "beat_index": 1042,
          "section": "breakdown"
        },
        {
          "t": 107999,
          "type": "drum_hit",
          "pitch": 36,
          "duration_ms": 93,
          "velocity": 60,
          "beat_index": 1044,
          "section": "breakdown"
        },
        {
          "t": 107999,
          "type": "drum_hit",
          "pitch": 38,
          "duration_ms": 93,
          "velocity": 50,
          "beat_index": 1044,
          "section": "breakdown"
        },
        {
          "t": 107999,
          "type": "drum_hit",
          "pitch": 42,
          "duration_ms": 93,
          "velocity": 40,
          "beat_index": 1044,
          "section": "breakdown"
        },
        {
          "t": 108206,
          "type": "drum_hit",
          "pitch": 42,
          "duration_ms": 93,
          "velocity": 40,
          "beat_index": 1046,
          "section": "breakdown"
        },
        {
          "t": 108413,
          "type": "drum_hit",
          "pitch": 36,
          "duration_ms": 93,
          "velocity": 60,
          "beat_index": 1048,
          "section": "breakdown"
        },
        {
          "t": 108413,
          "type": "drum_hit",
          "pitch": 42,
          "duration_ms": 93,
          "velocity": 40,
          "beat_index": 1048,
          "section": "breakdown"
        },
        {
          "t": 108620,
          "type": "drum_hit",
          "pitch": 42,
          "duration_ms": 93,
          "velocity": 40,
          "beat_index": 1050,
          "section": "breakdown"
        },
        {
          "t": 108827,
          "type": "drum_hit",
          "pitch": 36,
          "duration_ms": 93,
          "velocity": 60,
          "beat_index": 1052,
          "section": "breakdown"
        },
        {
          "t": 108827,
          "type": "drum_hit",
          "pitch": 38,
          "duration_ms": 93,
          "velocity": 50,
          "beat_index": 1052,
          "section": "breakdown"
        },
        {
          "t": 108827,
          "type": "drum_hit",
          "pitch": 42,
          "duration_ms": 93,
          "velocity": 40,
          "beat_index": 1052,
          "section": "breakdown"
        },
        {
          "t": 109034,
          "type": "drum_hit",
          "pitch": 42,
          "duration_ms": 93,
          "velocity": 40,
          "beat_index": 1054,
          "section": "breakdown"
        },
        {
          "t": 109241,
          "type": "drum_hit",
          "pitch": 36,
          "duration_ms": 93,
          "velocity": 60,
          "beat_index": 1056,
          "section": "breakdown"
        },
        {
          "t": 109241,
          "type": "drum_hit",
          "pitch": 42,
          "duration_ms": 93,
          "velocity": 40,
          "beat_index": 1056,
          "section": "breakdown"
        },
        {
          "t": 109448,
          "type": "drum_hit",
          "pitch": 42,
          "duration_ms": 93,
          "velocity": 40,
          "beat_index": 1058,
          "section": "breakdown"
        },
        {
          "t": 109655,
          "type": "drum_hit",
          "pitch": 36,
          "duration_ms": 93,
          "velocity": 60,
          "beat_index": 1060,
          "section": "breakdown"
        },
        {
          "t": 109655,
          "type": "drum_hit",
          "pitch": 38,
          "duration_ms": 93,
          "velocity": 50,
          "beat_index": 1060,
          "section": "breakdown"
        },
        {
          "t": 109655,
          "type": "drum_hit",
          "pitch": 42,
          "duration_ms": 93,
          "velocity": 40,
          "beat_index": 1060,
          "section": "breakdown"
        },
        {
          "t": 109862,
          "type": "drum_hit",
          "pitch": 42,
          "duration_ms": 93,
          "velocity": 40,
          "beat_index": 1062,
          "section": "breakdown"
        },
        {
          "t": 110068,
          "type": "drum_hit",
          "pitch": 36,
          "duration_ms": 93,
          "velocity": 60,
          "beat_index": 1064,
          "section": "breakdown"
        },
        {
          "t": 110068,
          "type": "drum_hit",
          "pitch": 42,
          "duration_ms": 93,
          "velocity": 40,
          "beat_index": 1064,
          "section": "breakdown"
        },
        {
          "t": 110275,
          "type": "drum_hit",
          "pitch": 42,
          "duration_ms": 93,
          "velocity": 40,
          "beat_index": 1066,
          "section": "breakdown"
        },
        {
          "t": 110482,
          "type": "drum_hit",
          "pitch": 36,
          "duration_ms": 93,
          "velocity": 60,
          "beat_index": 1068,
          "section": "breakdown"
        },
        {
          "t": 110482,
          "type": "drum_hit",
          "pitch": 38,
          "duration_ms": 93,
          "velocity": 50,
          "beat_index": 1068,
          "section": "breakdown"
        },
        {
          "t": 110482,
          "type": "drum_hit",
          "pitch": 42,
          "duration_ms": 93,
          "velocity": 40,
          "beat_index": 1068,
          "section": "breakdown"
        },
        {
          "t": 110689,
          "type": "drum_hit",
          "pitch": 42,
          "duration_ms": 93,
          "velocity": 40,
          "beat_index": 1070,
          "section": "breakdown"
        },
        {
          "t": 110896,
          "type": "drum_hit",
          "pitch": 36,
          "duration_ms": 93,
          "velocity": 60,
          "beat_index": 1072,
          "section": "breakdown"
        },
        {
          "t": 110896,
          "type": "drum_hit",
          "pitch": 42,
          "duration_ms": 93,
          "velocity": 40,
          "beat_index": 1072,
          "section": "breakdown"
        },
        {
          "t": 111103,
          "type": "drum_hit",
          "pitch": 42,
          "duration_ms": 93,
          "velocity": 40,
          "beat_index": 1074,
          "section": "breakdown"
        },
        {
          "t": 111310,
          "type": "drum_hit",
          "pitch": 36,
          "duration_ms": 93,
          "velocity": 60,
          "beat_index": 1076,
          "section": "breakdown"
        },
        {
          "t": 111310,
          "type": "drum_hit",
          "pitch": 38,
          "duration_ms": 93,
          "velocity": 50,
          "beat_index": 1076,
          "section": "breakdown"
        },
        {
          "t": 111310,
          "type": "drum_hit",
          "pitch": 42,
          "duration_ms": 93,
          "velocity": 40,
          "beat_index": 1076,
          "section": "breakdown"
        },
        {
          "t": 111517,
          "type": "drum_hit",
          "pitch": 42,
          "duration_ms": 93,
          "velocity": 40,
          "beat_index": 1078,
          "section": "breakdown"
        },
        {
          "t": 111724,
          "type": "drum_hit",
          "pitch": 36,
          "duration_ms": 93,
          "velocity": 60,
          "beat_index": 1080,
          "section": "breakdown"
        },
        {
          "t": 111724,
          "type": "drum_hit",
          "pitch": 42,
          "duration_ms": 93,
          "velocity": 40,
          "beat_index": 1080,
          "section": "breakdown"
        },
        {
          "t": 111931,
          "type": "drum_hit",
          "pitch": 42,
          "duration_ms": 93,
          "velocity": 40,
          "beat_index": 1082,
          "section": "breakdown"
        },
        {
          "t": 112137,
          "type": "drum_hit",
          "pitch": 36,
          "duration_ms": 93,
          "velocity": 60,
          "beat_index": 1084,
          "section": "breakdown"
        },
        {
          "t": 112137,
          "type": "drum_hit",
          "pitch": 38,
          "duration_ms": 93,
          "velocity": 50,
          "beat_index": 1084,
          "section": "breakdown"
        },
        {
          "t": 112137,
          "type": "drum_hit",
          "pitch": 42,
          "duration_ms": 93,
          "velocity": 40,
          "beat_index": 1084,
          "section": "breakdown"
        },
        {
          "t": 112344,
          "type": "drum_hit",
          "pitch": 42,
          "duration_ms": 93,
          "velocity": 40,
          "beat_index": 1086,
          "section": "breakdown"
        },
        {
          "t": 112551,
          "type": "drum_hit",
          "pitch": 36,
          "duration_ms": 93,
          "velocity": 60,
          "beat_index": 1088,
          "section": "breakdown"
        },
        {
          "t": 112551,
          "type": "drum_hit",
          "pitch": 42,
          "duration_ms": 93,
          "velocity": 40,
          "beat_index": 1088,
          "section": "breakdown"
        },
        {
          "t": 112758,
          "type": "drum_hit",
          "pitch": 42,
          "duration_ms": 93,
          "velocity": 40,
          "beat_index": 1090,
          "section": "breakdown"
        },
        {
          "t": 112965,
          "type": "drum_hit",
          "pitch": 36,
          "duration_ms": 93,
          "velocity": 60,
          "beat_index": 1092,
          "section": "breakdown"
        },
        {
          "t": 112965,
          "type": "drum_hit",
          "pitch": 38,
          "duration_ms": 93,
          "velocity": 50,
          "beat_index": 1092,
          "section": "breakdown"
        },
        {
          "t": 112965,
          "type": "drum_hit",
          "pitch": 42,
          "duration_ms": 93,
          "velocity": 40,
          "beat_index": 1092,
          "section": "breakdown"
        },
        {
          "t": 113172,
          "type": "drum_hit",
          "pitch": 42,
          "duration_ms": 93,
          "velocity": 40,
          "beat_index": 1094,
          "section": "breakdown"
        },
        {
          "t": 113379,
          "type": "drum_hit",
          "pitch": 36,
          "duration_ms": 93,
          "velocity": 60,
          "beat_index": 1096,
          "section": "breakdown"
        },
        {
          "t": 113379,
          "type": "drum_hit",
          "pitch": 42,
          "duration_ms": 93,
          "velocity": 40,
          "beat_index": 1096,
          "section": "breakdown"
        },
        {
          "t": 113586,
          "type": "drum_hit",
          "pitch": 42,
          "duration_ms": 93,
          "velocity": 40,
          "beat_index": 1098,
          "section": "breakdown"
        },
        {
          "t": 113793,
          "type": "drum_hit",
          "pitch": 36,
          "duration_ms": 93,
          "velocity": 60,
          "beat_index": 1100,
          "section": "breakdown"
        },
        {
          "t": 113793,
          "type": "drum_hit",
          "pitch": 38,
          "duration_ms": 93,
          "velocity": 50,
          "beat_index": 1100,
          "section": "breakdown"
        },
        {
          "t": 113793,
          "type": "drum_hit",
          "pitch": 42,
          "duration_ms": 93,
          "velocity": 40,
          "beat_index": 1100,
          "section": "breakdown"
        },
        {
          "t": 113999,
          "type": "drum_hit",
          "pitch": 42,
          "duration_ms": 93,
          "velocity": 40,
          "beat_index": 1102,
          "section": "breakdown"
        },
        {
          "t": 114206,
          "type": "drum_hit",
          "pitch": 36,
          "duration_ms": 93,
          "velocity": 60,
          "beat_index": 1104,
          "section": "breakdown"
        },
        {
          "t": 114206,
          "type": "drum_hit",
          "pitch": 42,
          "duration_ms": 93,
          "velocity": 40,
          "beat_index": 1104,
          "section": "breakdown"
        },
        {
          "t": 114413,
          "type": "drum_hit",
          "pitch": 42,
          "duration_ms": 93,
          "velocity": 40,
          "beat_index": 1106,
          "section": "breakdown"
        },
        {
          "t": 114620,
          "type": "drum_hit",
          "pitch": 36,
          "duration_ms": 93,
          "velocity": 60,
          "beat_index": 1108,
          "section": "breakdown"
        },
        {
          "t": 114620,
          "type": "drum_hit",
          "pitch": 38,
          "duration_ms": 93,
          "velocity": 50,
          "beat_index": 1108,
          "section": "breakdown"
        },
        {
          "t": 114620,
          "type": "drum_hit",
          "pitch": 42,
          "duration_ms": 93,
          "velocity": 40,
          "beat_index": 1108,
          "section": "breakdown"
        },
        {
          "t": 114827,
          "type": "drum_hit",
          "pitch": 42,
          "duration_ms": 93,
          "velocity": 40,
          "beat_index": 1110,
          "section": "breakdown"
        },
        {
          "t": 115034,
          "type": "drum_hit",
          "pitch": 36,
          "duration_ms": 93,
          "velocity": 60,
          "beat_index": 1112,
          "section": "breakdown"
        },
        {
          "t": 115034,
          "type": "drum_hit",
          "pitch": 42,
          "duration_ms": 93,
          "velocity": 40,
          "beat_index": 1112,
          "section": "breakdown"
        },
        {
          "t": 115241,
          "type": "drum_hit",
          "pitch": 42,
          "duration_ms": 93,
          "velocity": 40,
          "beat_index": 1114,
          "section": "breakdown"
        },
        {
          "t": 115448,
          "type": "drum_hit",
          "pitch": 36,
          "duration_ms": 93,
          "velocity": 60,
          "beat_index": 1116,
          "section": "breakdown"
        },
        {
          "t": 115448,
          "type": "drum_hit",
          "pitch": 38,
          "duration_ms": 93,
          "velocity": 50,
          "beat_index": 1116,
          "section": "breakdown"
        },
        {
          "t": 115448,
          "type": "drum_hit",
          "pitch": 42,
          "duration_ms": 93,
          "velocity": 40,
          "beat_index": 1116,
          "section": "breakdown"
        },
        {
          "t": 115655,
          "type": "drum_hit",
          "pitch": 42,
          "duration_ms": 93,
          "velocity": 40,
          "beat_index": 1118,
          "section": "breakdown"
        },
        {
          "t": 115862,
          "type": "drum_hit",
          "pitch": 36,
          "duration_ms": 93,
          "velocity": 60,
          "beat_index": 1120,
          "section": "breakdown"
        },
        {
          "t": 115862,
          "type": "drum_hit",
          "pitch": 42,
          "duration_ms": 93,
          "velocity": 40,
          "beat_index": 1120,
          "section": "breakdown"
        },
        {
          "t": 116068,
          "type": "drum_hit",
          "pitch": 42,
          "duration_ms": 93,
          "velocity": 40,
          "beat_index": 1122,
          "section": "breakdown"
        },
        {
          "t": 116275,
          "type": "drum_hit",
          "pitch": 36,
          "duration_ms": 93,
          "velocity": 60,
          "beat_index": 1124,
          "section": "breakdown"
        },
        {
          "t": 116275,
          "type": "drum_hit",
          "pitch": 38,
          "duration_ms": 93,
          "velocity": 50,
          "beat_index": 1124,
          "section": "breakdown"
        },
        {
          "t": 116275,
          "type": "drum_hit",
          "pitch": 42,
          "duration_ms": 93,
          "velocity": 40,
          "beat_index": 1124,
          "section": "breakdown"
        },
        {
          "t": 116482,
          "type": "drum_hit",
          "pitch": 42,
          "duration_ms": 93,
          "velocity": 40,
          "beat_index": 1126,
          "section": "breakdown"
        },
        {
          "t": 116689,
          "type": "drum_hit",
          "pitch": 36,
          "duration_ms": 93,
          "velocity": 60,
          "beat_index": 1128,
          "section": "breakdown"
        },
        {
          "t": 116689,
          "type": "drum_hit",
          "pitch": 42,
          "duration_ms": 93,
          "velocity": 40,
          "beat_index": 1128,
          "section": "breakdown"
        },
        {
          "t": 116896,
          "type": "drum_hit",
          "pitch": 42,
          "duration_ms": 93,
          "velocity": 40,
          "beat_index": 1130,
          "section": "breakdown"
        },
        {
          "t": 117103,
          "type": "drum_hit",
          "pitch": 36,
          "duration_ms": 93,
          "velocity": 60,
          "beat_index": 1132,
          "section": "breakdown"
        },
        {
          "t": 117103,
          "type": "drum_hit",
          "pitch": 38,
          "duration_ms": 93,
          "velocity": 50,
          "beat_index": 1132,
          "section": "breakdown"
        },
        {
          "t": 117103,
          "type": "drum_hit",
          "pitch": 42,
          "duration_ms": 93,
          "velocity": 40,
          "beat_index": 1132,
          "section": "breakdown"
        },
        {
          "t": 117310,
          "type": "drum_hit",
          "pitch": 42,
          "duration_ms": 93,
          "velocity": 40,
          "beat_index": 1134,
          "section": "breakdown"
        },
        {
          "t": 117517,
          "type": "drum_hit",
          "pitch": 36,
          "duration_ms": 93,
          "velocity": 60,
          "beat_index": 1136,
          "section": "breakdown"
        },
        {
          "t": 117517,
          "type": "drum_hit",
          "pitch": 42,
          "duration_ms": 93,
          "velocity": 40,
          "beat_index": 1136,
          "section": "breakdown"
        },
        {
          "t": 117724,
          "type": "drum_hit",
          "pitch": 42,
          "duration_ms": 93,
          "velocity": 40,
          "beat_index": 1138,
          "section": "breakdown"
        },
        {
          "t": 117931,
          "type": "drum_hit",
          "pitch": 36,
          "duration_ms": 93,
          "velocity": 60,
          "beat_index": 1140,
          "section": "breakdown"
        },
        {
          "t": 117931,
          "type": "drum_hit",
          "pitch": 38,
          "duration_ms": 93,
          "velocity": 50,
          "beat_index": 1140,
          "section": "breakdown"
        },
        {
          "t": 117931,
          "type": "drum_hit",
          "pitch": 42,
          "duration_ms": 93,
          "velocity": 40,
          "beat_index": 1140,
          "section": "breakdown"
        },
        {
          "t": 118137,
          "type": "drum_hit",
          "pitch": 42,
          "duration_ms": 93,
          "velocity": 40,
          "beat_index": 1142,
          "section": "breakdown"
        },
        {
          "t": 118344,
          "type": "drum_hit",
          "pitch": 36,
          "duration_ms": 93,
          "velocity": 60,
          "beat_index": 1144,
          "section": "breakdown"
        },
        {
          "t": 118344,
          "type": "drum_hit",
          "pitch": 42,
          "duration_ms": 93,
          "velocity": 40,
          "beat_index": 1144,
          "section": "breakdown"
        },
        {
          "t": 118551,
          "type": "drum_hit",
          "pitch": 42,
          "duration_ms": 93,
          "velocity": 40,
          "beat_index": 1146,
          "section": "breakdown"
        },
        {
          "t": 118758,
          "type": "drum_hit",
          "pitch": 36,
          "duration_ms": 93,
          "velocity": 60,
          "beat_index": 1148,
          "section": "breakdown"
        },
        {
          "t": 118758,
          "type": "drum_hit",
          "pitch": 38,
          "duration_ms": 93,
          "velocity": 50,
          "beat_index": 1148,
          "section": "breakdown"
        },
        {
          "t": 118758,
          "type": "drum_hit",
          "pitch": 42,
          "duration_ms": 93,
          "velocity": 40,
          "beat_index": 1148,
          "section": "breakdown"
        },
        {
          "t": 118965,
          "type": "drum_hit",
          "pitch": 42,
          "duration_ms": 93,
          "velocity": 40,
          "beat_index": 1150,
          "section": "breakdown"
        },
        {
          "t": 119172,
          "type": "drum_hit",
          "pitch": 36,
          "duration_ms": 93,
          "velocity": 127,
          "beat_index": 1152,
          "section": "drop"
        },
        {
          "t": 119172,
          "type": "drum_hit",
          "pitch": 42,
          "duration_ms": 93,
          "velocity": 90,
          "beat_index": 1152,
          "section": "drop"
        },
        {
          "t": 119379,
          "type": "drum_hit",
          "pitch": 42,
          "duration_ms": 93,
          "velocity": 90,
          "beat_index": 1154,
          "section": "drop"
        },
        {
          "t": 119586,
          "type": "drum_hit",
          "pitch": 36,
          "duration_ms": 93,
          "velocity": 127,
          "beat_index": 1156,
          "section": "drop"
        },
        {
          "t": 119586,
          "type": "drum_hit",
          "pitch": 38,
          "duration_ms": 93,
          "velocity": 110,
          "beat_index": 1156,
          "section": "drop"
        },
        {
          "t": 119586,
          "type": "drum_hit",
          "pitch": 42,
          "duration_ms": 93,
          "velocity": 90,
          "beat_index": 1156,
          "section": "drop"
        },
        {
          "t": 119793,
          "type": "drum_hit",
          "pitch": 42,
          "duration_ms": 93,
          "velocity": 90,
          "beat_index": 1158,
          "section": "drop"
        },
        {
          "t": 119999,
          "type": "drum_hit",
          "pitch": 36,
          "duration_ms": 93,
          "velocity": 127,
          "beat_index": 1160,
          "section": "drop"
        },
        {
          "t": 119999,
          "type": "drum_hit",
          "pitch": 42,
          "duration_ms": 93,
          "velocity": 90,
          "beat_index": 1160,
          "section": "drop"
        },
        {
          "t": 120206,
          "type": "drum_hit",
          "pitch": 42,
          "duration_ms": 93,
          "velocity": 90,
          "beat_index": 1162,
          "section": "drop"
        },
        {
          "t": 120413,
          "type": "drum_hit",
          "pitch": 36,
          "duration_ms": 93,
          "velocity": 127,
          "beat_index": 1164,
          "section": "drop"
        },
        {
          "t": 120413,
          "type": "drum_hit",
          "pitch": 38,
          "duration_ms": 93,
          "velocity": 110,
          "beat_index": 1164,
          "section": "drop"
        },
        {
          "t": 120413,
          "type": "drum_hit",
          "pitch": 42,
          "duration_ms": 93,
          "velocity": 90,
          "beat_index": 1164,
          "section": "drop"
        },
        {
          "t": 120620,
          "type": "drum_hit",
          "pitch": 42,
          "duration_ms": 93,
          "velocity": 90,
          "beat_index": 1166,
          "section": "drop"
        },
        {
          "t": 120827,
          "type": "drum_hit",
          "pitch": 36,
          "duration_ms": 93,
          "velocity": 127,
          "beat_index": 1168,
          "section": "drop"
        },
        {
          "t": 120827,
          "type": "drum_hit",
          "pitch": 42,
          "duration_ms": 93,
          "velocity": 90,
          "beat_index": 1168,
          "section": "drop"
        },
        {
          "t": 121034,
          "type": "drum_hit",
          "pitch": 42,
          "duration_ms": 93,
          "velocity": 90,
          "beat_index": 1170,
          "section": "drop"
        },
        {
          "t": 121241,
          "type": "drum_hit",
          "pitch": 36,
          "duration_ms": 93,
          "velocity": 127,
          "beat_index": 1172,
          "section": "drop"
        },
        {
          "t": 121241,
          "type": "drum_hit",
          "pitch": 38,
          "duration_ms": 93,
          "velocity": 110,
          "beat_index": 1172,
          "section": "drop"
        },
        {
          "t": 121241,
          "type": "drum_hit",
          "pitch": 42,
          "duration_ms": 93,
          "velocity": 90,
          "beat_index": 1172,
          "section": "drop"
        },
        {
          "t": 121448,
          "type": "drum_hit",
          "pitch": 42,
          "duration_ms": 93,
          "velocity": 90,
          "beat_index": 1174,
          "section": "drop"
        },
        {
          "t": 121655,
          "type": "drum_hit",
          "pitch": 36,
          "duration_ms": 93,
          "velocity": 127,
          "beat_index": 1176,
          "section": "drop"
        },
        {
          "t": 121655,
          "type": "drum_hit",
          "pitch": 42,
          "duration_ms": 93,
          "velocity": 90,
          "beat_index": 1176,
          "section": "drop"
        },
        {
          "t": 121862,
          "type": "drum_hit",
          "pitch": 42,
          "duration_ms": 93,
          "velocity": 90,
          "beat_index": 1178,
          "section": "drop"
        },
        {
          "t": 122068,
          "type": "drum_hit",
          "pitch": 36,
          "duration_ms": 93,
          "velocity": 127,
          "beat_index": 1180,
          "section": "drop"
        },
        {
          "t": 122068,
          "type": "drum_hit",
          "pitch": 38,
          "duration_ms": 93,
          "velocity": 110,
          "beat_index": 1180,
          "section": "drop"
        },
        {
          "t": 122068,
          "type": "drum_hit",
          "pitch": 42,
          "duration_ms": 93,
          "velocity": 90,
          "beat_index": 1180,
          "section": "drop"
        },
        {
          "t": 122275,
          "type": "drum_hit",
          "pitch": 42,
          "duration_ms": 93,
          "velocity": 90,
          "beat_index": 1182,
          "section": "drop"
        },
        {
          "t": 122482,
          "type": "drum_hit",
          "pitch": 36,
          "duration_ms": 93,
          "velocity": 127,
          "beat_index": 1184,
          "section": "drop"
        },
        {
          "t": 122482,
          "type": "drum_hit",
          "pitch": 42,
          "duration_ms": 93,
          "velocity": 90,
          "beat_index": 1184,
          "section": "drop"
        },
        {
          "t": 122689,
          "type": "drum_hit",
          "pitch": 42,
          "duration_ms": 93,
          "velocity": 90,
          "beat_index": 1186,
          "section": "drop"
        },
        {
          "t": 122896,
          "type": "drum_hit",
          "pitch": 36,
          "duration_ms": 93,
          "velocity": 127,
          "beat_index": 1188,
          "section": "drop"
        },
        {
          "t": 122896,
          "type": "drum_hit",
          "pitch": 38,
          "duration_ms": 93,
          "velocity": 110,
          "beat_index": 1188,
          "section": "drop"
        },
        {
          "t": 122896,
          "type": "drum_hit",
          "pitch": 42,
          "duration_ms": 93,
          "velocity": 90,
          "beat_index": 1188,
          "section": "drop"
        },
        {
          "t": 123103,
          "type": "drum_hit",
          "pitch": 42,
          "duration_ms": 93,
          "velocity": 90,
          "beat_index": 1190,
          "section": "drop"
        },
        {
          "t": 123310,
          "type": "drum_hit",
          "pitch": 36,
          "duration_ms": 93,
          "velocity": 127,
          "beat_index": 1192,
          "section": "drop"
        },
        {
          "t": 123310,
          "type": "drum_hit",
          "pitch": 42,
          "duration_ms": 93,
          "velocity": 90,
          "beat_index": 1192,
          "section": "drop"
        },
        {
          "t": 123517,
          "type": "drum_hit",
          "pitch": 42,
          "duration_ms": 93,
          "velocity": 90,
          "beat_index": 1194,
          "section": "drop"
        },
        {
          "t": 123724,
          "type": "drum_hit",
          "pitch": 36,
          "duration_ms": 93,
          "velocity": 127,
          "beat_index": 1196,
          "section": "drop"
        },
        {
          "t": 123724,
          "type": "drum_hit",
          "pitch": 38,
          "duration_ms": 93,
          "velocity": 110,
          "beat_index": 1196,
          "section": "drop"
        },
        {
          "t": 123724,
          "type": "drum_hit",
          "pitch": 42,
          "duration_ms": 93,
          "velocity": 90,
          "beat_index": 1196,
          "section": "drop"
        },
        {
          "t": 123931,
          "type": "drum_hit",
          "pitch": 42,
          "duration_ms": 93,
          "velocity": 90,
          "beat_index": 1198,
          "section": "drop"
        },
        {
          "t": 124137,
          "type": "drum_hit",
          "pitch": 36,
          "duration_ms": 93,
          "velocity": 127,
          "beat_index": 1200,
          "section": "drop"
        },
        {
          "t": 124137,
          "type": "drum_hit",
          "pitch": 42,
          "duration_ms": 93,
          "velocity": 90,
          "beat_index": 1200,
          "section": "drop"
        },
        {
          "t": 124344,
          "type": "drum_hit",
          "pitch": 42,
          "duration_ms": 93,
          "velocity": 90,
          "beat_index": 1202,
          "section": "drop"
        },
        {
          "t": 124551,
          "type": "drum_hit",
          "pitch": 36,
          "duration_ms": 93,
          "velocity": 127,
          "beat_index": 1204,
          "section": "drop"
        },
        {
          "t": 124551,
          "type": "drum_hit",
          "pitch": 38,
          "duration_ms": 93,
          "velocity": 110,
          "beat_index": 1204,
          "section": "drop"
        },
        {
          "t": 124551,
          "type": "drum_hit",
          "pitch": 42,
          "duration_ms": 93,
          "velocity": 90,
          "beat_index": 1204,
          "section": "drop"
        },
        {
          "t": 124758,
          "type": "drum_hit",
          "pitch": 42,
          "duration_ms": 93,
          "velocity": 90,
          "beat_index": 1206,
          "section": "drop"
        },
        {
          "t": 124965,
          "type": "drum_hit",
          "pitch": 36,
          "duration_ms": 93,
          "velocity": 127,
          "beat_index": 1208,
          "section": "drop"
        },
        {
          "t": 124965,
          "type": "drum_hit",
          "pitch": 42,
          "duration_ms": 93,
          "velocity": 90,
          "beat_index": 1208,
          "section": "drop"
        },
        {
          "t": 125172,
          "type": "drum_hit",
          "pitch": 42,
          "duration_ms": 93,
          "velocity": 90,
          "beat_index": 1210,
          "section": "drop"
        },
        {
          "t": 125379,
          "type": "drum_hit",
          "pitch": 36,
          "duration_ms": 93,
          "velocity": 127,
          "beat_index": 1212,
          "section": "drop"
        },
        {
          "t": 125379,
          "type": "drum_hit",
          "pitch": 38,
          "duration_ms": 93,
          "velocity": 110,
          "beat_index": 1212,
          "section": "drop"
        },
        {
          "t": 125379,
          "type": "drum_hit",
          "pitch": 42,
          "duration_ms": 93,
          "velocity": 90,
          "beat_index": 1212,
          "section": "drop"
        },
        {
          "t": 125586,
          "type": "drum_hit",
          "pitch": 42,
          "duration_ms": 93,
          "velocity": 90,
          "beat_index": 1214,
          "section": "drop"
        },
        {
          "t": 125793,
          "type": "drum_hit",
          "pitch": 36,
          "duration_ms": 93,
          "velocity": 127,
          "beat_index": 1216,
          "section": "drop"
        },
        {
          "t": 125793,
          "type": "drum_hit",
          "pitch": 42,
          "duration_ms": 93,
          "velocity": 90,
          "beat_index": 1216,
          "section": "drop"
        },
        {
          "t": 125999,
          "type": "drum_hit",
          "pitch": 42,
          "duration_ms": 93,
          "velocity": 90,
          "beat_index": 1218,
          "section": "drop"
        },
        {
          "t": 126206,
          "type": "drum_hit",
          "pitch": 36,
          "duration_ms": 93,
          "velocity": 127,
          "beat_index": 1220,
          "section": "drop"
        },
        {
          "t": 126206,
          "type": "drum_hit",
          "pitch": 38,
          "duration_ms": 93,
          "velocity": 110,
          "beat_index": 1220,
          "section": "drop"
        },
        {
          "t": 126206,
          "type": "drum_hit",
          "pitch": 42,
          "duration_ms": 93,
          "velocity": 90,
          "beat_index": 1220,
          "section": "drop"
        },
        {
          "t": 126413,
          "type": "drum_hit",
          "pitch": 42,
          "duration_ms": 93,
          "velocity": 90,
          "beat_index": 1222,
          "section": "drop"
        },
        {
          "t": 126620,
          "type": "drum_hit",
          "pitch": 36,
          "duration_ms": 93,
          "velocity": 127,
          "beat_index": 1224,
          "section": "drop"
        },
        {
          "t": 126620,
          "type": "drum_hit",
          "pitch": 42,
          "duration_ms": 93,
          "velocity": 90,
          "beat_index": 1224,
          "section": "drop"
        },
        {
          "t": 126827,
          "type": "drum_hit",
          "pitch": 42,
          "duration_ms": 93,
          "velocity": 90,
          "beat_index": 1226,
          "section": "drop"
        },
        {
          "t": 127034,
          "type": "drum_hit",
          "pitch": 36,
          "duration_ms": 93,
          "velocity": 127,
          "beat_index": 1228,
          "section": "drop"
        },
        {
          "t": 127034,
          "type": "drum_hit",
          "pitch": 38,
          "duration_ms": 93,
          "velocity": 110,
          "beat_index": 1228,
          "section": "drop"
        },
        {
          "t": 127034,
          "type": "drum_hit",
          "pitch": 42,
          "duration_ms": 93,
          "velocity": 90,
          "beat_index": 1228,
          "section": "drop"
        },
        {
          "t": 127241,
          "type": "drum_hit",
          "pitch": 42,
          "duration_ms": 93,
          "velocity": 90,
          "beat_index": 1230,
          "section": "drop"
        },
        {
          "t": 127448,
          "type": "drum_hit",
          "pitch": 36,
          "duration_ms": 93,
          "velocity": 127,
          "beat_index": 1232,
          "section": "drop"
        },
        {
          "t": 127448,
          "type": "drum_hit",
          "pitch": 42,
          "duration_ms": 93,
          "velocity": 90,
          "beat_index": 1232,
          "section": "drop"
        },
        {
          "t": 127655,
          "type": "drum_hit",
          "pitch": 42,
          "duration_ms": 93,
          "velocity": 90,
          "beat_index": 1234,
          "section": "drop"
        },
        {
          "t": 127862,
          "type": "drum_hit",
          "pitch": 36,
          "duration_ms": 93,
          "velocity": 127,
          "beat_index": 1236,
          "section": "drop"
        },
        {
          "t": 127862,
          "type": "drum_hit",
          "pitch": 38,
          "duration_ms": 93,
          "velocity": 110,
          "beat_index": 1236,
          "section": "drop"
        },
        {
          "t": 127862,
          "type": "drum_hit",
          "pitch": 42,
          "duration_ms": 93,
          "velocity": 90,
          "beat_index": 1236,
          "section": "drop"
        },
        {
          "t": 128068,
          "type": "drum_hit",
          "pitch": 42,
          "duration_ms": 93,
          "velocity": 90,
          "beat_index": 1238,
          "section": "drop"
        },
        {
          "t": 128275,
          "type": "drum_hit",
          "pitch": 36,
          "duration_ms": 93,
          "velocity": 127,
          "beat_index": 1240,
          "section": "drop"
        },
        {
          "t": 128275,
          "type": "drum_hit",
          "pitch": 42,
          "duration_ms": 93,
          "velocity": 90,
          "beat_index": 1240,
          "section": "drop"
        },
        {
          "t": 128482,
          "type": "drum_hit",
          "pitch": 42,
          "duration_ms": 93,
          "velocity": 90,
          "beat_index": 1242,
          "section": "drop"
        },
        {
          "t": 128689,
          "type": "drum_hit",
          "pitch": 36,
          "duration_ms": 93,
          "velocity": 127,
          "beat_index": 1244,
          "section": "drop"
        },
        {
          "t": 128689,
          "type": "drum_hit",
          "pitch": 38,
          "duration_ms": 93,
          "velocity": 110,
          "beat_index": 1244,
          "section": "drop"
        },
        {
          "t": 128689,
          "type": "drum_hit",
          "pitch": 42,
          "duration_ms": 93,
          "velocity": 90,
          "beat_index": 1244,
          "section": "drop"
        },
        {
          "t": 128896,
          "type": "drum_hit",
          "pitch": 42,
          "duration_ms": 93,
          "velocity": 90,
          "beat_index": 1246,
          "section": "drop"
        },
        {
          "t": 129103,
          "type": "drum_hit",
          "pitch": 36,
          "duration_ms": 93,
          "velocity": 127,
          "beat_index": 1248,
          "section": "drop"
        },
        {
          "t": 129103,
          "type": "drum_hit",
          "pitch": 42,
          "duration_ms": 93,
          "velocity": 90,
          "beat_index": 1248,
          "section": "drop"
        },
        {
          "t": 129310,
          "type": "drum_hit",
          "pitch": 42,
          "duration_ms": 93,
          "velocity": 90,
          "beat_index": 1250,
          "section": "drop"
        },
        {
          "t": 129517,
          "type": "drum_hit",
          "pitch": 36,
          "duration_ms": 93,
          "velocity": 127,
          "beat_index": 1252,
          "section": "drop"
        },
        {
          "t": 129517,
          "type": "drum_hit",
          "pitch": 38,
          "duration_ms": 93,
          "velocity": 110,
          "beat_index": 1252,
          "section": "drop"
        },
        {
          "t": 129517,
          "type": "drum_hit",
          "pitch": 42,
          "duration_ms": 93,
          "velocity": 90,
          "beat_index": 1252,
          "section": "drop"
        },
        {
          "t": 129724,
          "type": "drum_hit",
          "pitch": 42,
          "duration_ms": 93,
          "velocity": 90,
          "beat_index": 1254,
          "section": "drop"
        },
        {
          "t": 129931,
          "type": "drum_hit",
          "pitch": 36,
          "duration_ms": 93,
          "velocity": 127,
          "beat_index": 1256,
          "section": "drop"
        },
        {
          "t": 129931,
          "type": "drum_hit",
          "pitch": 42,
          "duration_ms": 93,
          "velocity": 90,
          "beat_index": 1256,
          "section": "drop"
        },
        {
          "t": 130137,
          "type": "drum_hit",
          "pitch": 42,
          "duration_ms": 93,
          "velocity": 90,
          "beat_index": 1258,
          "section": "drop"
        },
        {
          "t": 130344,
          "type": "drum_hit",
          "pitch": 36,
          "duration_ms": 93,
          "velocity": 127,
          "beat_index": 1260,
          "section": "drop"
        },
        {
          "t": 130344,
          "type": "drum_hit",
          "pitch": 38,
          "duration_ms": 93,
          "velocity": 110,
          "beat_index": 1260,
          "section": "drop"
        },
        {
          "t": 130344,
          "type": "drum_hit",
          "pitch": 42,
          "duration_ms": 93,
          "velocity": 90,
          "beat_index": 1260,
          "section": "drop"
        },
        {
          "t": 130551,
          "type": "drum_hit",
          "pitch": 42,
          "duration_ms": 93,
          "velocity": 90,
          "beat_index": 1262,
          "section": "drop"
        },
        {
          "t": 130758,
          "type": "drum_hit",
          "pitch": 36,
          "duration_ms": 93,
          "velocity": 127,
          "beat_index": 1264,
          "section": "drop"
        },
        {
          "t": 130758,
          "type": "drum_hit",
          "pitch": 42,
          "duration_ms": 93,
          "velocity": 90,
          "beat_index": 1264,
          "section": "drop"
        },
        {
          "t": 130965,
          "type": "drum_hit",
          "pitch": 42,
          "duration_ms": 93,
          "velocity": 90,
          "beat_index": 1266,
          "section": "drop"
        },
        {
          "t": 131172,
          "type": "drum_hit",
          "pitch": 36,
          "duration_ms": 93,
          "velocity": 127,
          "beat_index": 1268,
          "section": "drop"
        },
        {
          "t": 131172,
          "type": "drum_hit",
          "pitch": 38,
          "duration_ms": 93,
          "velocity": 110,
          "beat_index": 1268,
          "section": "drop"
        },
        {
          "t": 131172,
          "type": "drum_hit",
          "pitch": 42,
          "duration_ms": 93,
          "velocity": 90,
          "beat_index": 1268,
          "section": "drop"
        },
        {
          "t": 131379,
          "type": "drum_hit",
          "pitch": 42,
          "duration_ms": 93,
          "velocity": 90,
          "beat_index": 1270,
          "section": "drop"
        },
        {
          "t": 131586,
          "type": "drum_hit",
          "pitch": 36,
          "duration_ms": 93,
          "velocity": 127,
          "beat_index": 1272,
          "section": "drop"
        },
        {
          "t": 131586,
          "type": "drum_hit",
          "pitch": 42,
          "duration_ms": 93,
          "velocity": 90,
          "beat_index": 1272,
          "section": "drop"
        },
        {
          "t": 131793,
          "type": "drum_hit",
          "pitch": 42,
          "duration_ms": 93,
          "velocity": 90,
          "beat_index": 1274,
          "section": "drop"
        },
        {
          "t": 131999,
          "type": "drum_hit",
          "pitch": 36,
          "duration_ms": 93,
          "velocity": 127,
          "beat_index": 1276,
          "section": "drop"
        },
        {
          "t": 131999,
          "type": "drum_hit",
          "pitch": 38,
          "duration_ms": 93,
          "velocity": 110,
          "beat_index": 1276,
          "section": "drop"
        },
        {
          "t": 131999,
          "type": "drum_hit",
          "pitch": 42,
          "duration_ms": 93,
          "velocity": 90,
          "beat_index": 1276,
          "section": "drop"
        },
        {
          "t": 132206,
          "type": "drum_hit",
          "pitch": 42,
          "duration_ms": 93,
          "velocity": 90,
          "beat_index": 1278,
          "section": "drop"
        },
        {
          "t": 132413,
          "type": "drum_hit",
          "pitch": 36,
          "duration_ms": 93,
          "velocity": 127,
          "beat_index": 1280,
          "section": "drop"
        },
        {
          "t": 132413,
          "type": "drum_hit",
          "pitch": 42,
          "duration_ms": 93,
          "velocity": 90,
          "beat_index": 1280,
          "section": "drop"
        },
        {
          "t": 132620,
          "type": "drum_hit",
          "pitch": 42,
          "duration_ms": 93,
          "velocity": 90,
          "beat_index": 1282,
          "section": "drop"
        },
        {
          "t": 132827,
          "type": "drum_hit",
          "pitch": 36,
          "duration_ms": 93,
          "velocity": 127,
          "beat_index": 1284,
          "section": "drop"
        },
        {
          "t": 132827,
          "type": "drum_hit",
          "pitch": 38,
          "duration_ms": 93,
          "velocity": 110,
          "beat_index": 1284,
          "section": "drop"
        },
        {
          "t": 132827,
          "type": "drum_hit",
          "pitch": 42,
          "duration_ms": 93,
          "velocity": 90,
          "beat_index": 1284,
          "section": "drop"
        },
        {
          "t": 133034,
          "type": "drum_hit",
          "pitch": 42,
          "duration_ms": 93,
          "velocity": 90,
          "beat_index": 1286,
          "section": "drop"
        },
        {
          "t": 133241,
          "type": "drum_hit",
          "pitch": 36,
          "duration_ms": 93,
          "velocity": 127,
          "beat_index": 1288,
          "section": "drop"
        },
        {
          "t": 133241,
          "type": "drum_hit",
          "pitch": 42,
          "duration_ms": 93,
          "velocity": 90,
          "beat_index": 1288,
          "section": "drop"
        },
        {
          "t": 133448,
          "type": "drum_hit",
          "pitch": 42,
          "duration_ms": 93,
          "velocity": 90,
          "beat_index": 1290,
          "section": "drop"
        },
        {
          "t": 133655,
          "type": "drum_hit",
          "pitch": 36,
          "duration_ms": 93,
          "velocity": 127,
          "beat_index": 1292,
          "section": "drop"
        },
        {
          "t": 133655,
          "type": "drum_hit",
          "pitch": 38,
          "duration_ms": 93,
          "velocity": 110,
          "beat_index": 1292,
          "section": "drop"
        },
        {
          "t": 133655,
          "type": "drum_hit",
          "pitch": 42,
          "duration_ms": 93,
          "velocity": 90,
          "beat_index": 1292,
          "section": "drop"
        },
        {
          "t": 133862,
          "type": "drum_hit",
          "pitch": 42,
          "duration_ms": 93,
          "velocity": 90,
          "beat_index": 1294,
          "section": "drop"
        },
        {
          "t": 134068,
          "type": "drum_hit",
          "pitch": 36,
          "duration_ms": 93,
          "velocity": 127,
          "beat_index": 1296,
          "section": "drop"
        },
        {
          "t": 134068,
          "type": "drum_hit",
          "pitch": 42,
          "duration_ms": 93,
          "velocity": 90,
          "beat_index": 1296,
          "section": "drop"
        },
        {
          "t": 134275,
          "type": "drum_hit",
          "pitch": 42,
          "duration_ms": 93,
          "velocity": 90,
          "beat_index": 1298,
          "section": "drop"
        },
        {
          "t": 134482,
          "type": "drum_hit",
          "pitch": 36,
          "duration_ms": 93,
          "velocity": 127,
          "beat_index": 1300,
          "section": "drop"
        },
        {
          "t": 134482,
          "type": "drum_hit",
          "pitch": 38,
          "duration_ms": 93,
          "velocity": 110,
          "beat_index": 1300,
          "section": "drop"
        },
        {
          "t": 134482,
          "type": "drum_hit",
          "pitch": 42,
          "duration_ms": 93,
          "velocity": 90,
          "beat_index": 1300,
          "section": "drop"
        },
        {
          "t": 134689,
          "type": "drum_hit",
          "pitch": 42,
          "duration_ms": 93,
          "velocity": 90,
          "beat_index": 1302,
          "section": "drop"
        },
        {
          "t": 134896,
          "type": "drum_hit",
          "pitch": 36,
          "duration_ms": 93,
          "velocity": 127,
          "beat_index": 1304,
          "section": "drop"
        },
        {
          "t": 134896,
          "type": "drum_hit",
          "pitch": 42,
          "duration_ms": 93,
          "velocity": 90,
          "beat_index": 1304,
          "section": "drop"
        },
        {
          "t": 135103,
          "type": "drum_hit",
          "pitch": 42,
          "duration_ms": 93,
          "velocity": 90,
          "beat_index": 1306,
          "section": "drop"
        },
        {
          "t": 135310,
          "type": "drum_hit",
          "pitch": 36,
          "duration_ms": 93,
          "velocity": 127,
          "beat_index": 1308,
          "section": "drop"
        },
        {
          "t": 135310,
          "type": "drum_hit",
          "pitch": 38,
          "duration_ms": 93,
          "velocity": 110,
          "beat_index": 1308,
          "section": "drop"
        },
        {
          "t": 135310,
          "type": "drum_hit",
          "pitch": 42,
          "duration_ms": 93,
          "velocity": 90,
          "beat_index": 1308,
          "section": "drop"
        },
        {
          "t": 135517,
          "type": "drum_hit",
          "pitch": 42,
          "duration_ms": 93,
          "velocity": 90,
          "beat_index": 1310,
          "section": "drop"
        },
        {
          "t": 135724,
          "type": "drum_hit",
          "pitch": 36,
          "duration_ms": 93,
          "velocity": 127,
          "beat_index": 1312,
          "section": "drop"
        },
        {
          "t": 135724,
          "type": "drum_hit",
          "pitch": 42,
          "duration_ms": 93,
          "velocity": 90,
          "beat_index": 1312,
          "section": "drop"
        },
        {
          "t": 135931,
          "type": "drum_hit",
          "pitch": 42,
          "duration_ms": 93,
          "velocity": 90,
          "beat_index": 1314,
          "section": "drop"
        },
        {
          "t": 136137,
          "type": "drum_hit",
          "pitch": 36,
          "duration_ms": 93,
          "velocity": 127,
          "beat_index": 1316,
          "section": "drop"
        },
        {
          "t": 136137,
          "type": "drum_hit",
          "pitch": 38,
          "duration_ms": 93,
          "velocity": 110,
          "beat_index": 1316,
          "section": "drop"
        },
        {
          "t": 136137,
          "type": "drum_hit",
          "pitch": 42,
          "duration_ms": 93,
          "velocity": 90,
          "beat_index": 1316,
          "section": "drop"
        },
        {
          "t": 136344,
          "type": "drum_hit",
          "pitch": 42,
          "duration_ms": 93,
          "velocity": 90,
          "beat_index": 1318,
          "section": "drop"
        },
        {
          "t": 136551,
          "type": "drum_hit",
          "pitch": 36,
          "duration_ms": 93,
          "velocity": 127,
          "beat_index": 1320,
          "section": "drop"
        },
        {
          "t": 136551,
          "type": "drum_hit",
          "pitch": 42,
          "duration_ms": 93,
          "velocity": 90,
          "beat_index": 1320,
          "section": "drop"
        },
        {
          "t": 136758,
          "type": "drum_hit",
          "pitch": 42,
          "duration_ms": 93,
          "velocity": 90,
          "beat_index": 1322,
          "section": "drop"
        },
        {
          "t": 136965,
          "type": "drum_hit",
          "pitch": 36,
          "duration_ms": 93,
          "velocity": 127,
          "beat_index": 1324,
          "section": "drop"
        },
        {
          "t": 136965,
          "type": "drum_hit",
          "pitch": 38,
          "duration_ms": 93,
          "velocity": 110,
          "beat_index": 1324,
          "section": "drop"
        },
        {
          "t": 136965,
          "type": "drum_hit",
          "pitch": 42,
          "duration_ms": 93,
          "velocity": 90,
          "beat_index": 1324,
          "section": "drop"
        },
        {
          "t": 137172,
          "type": "drum_hit",
          "pitch": 42,
          "duration_ms": 93,
          "velocity": 90,
          "beat_index": 1326,
          "section": "drop"
        },
        {
          "t": 137379,
          "type": "drum_hit",
          "pitch": 36,
          "duration_ms": 93,
          "velocity": 127,
          "beat_index": 1328,
          "section": "drop"
        },
        {
          "t": 137379,
          "type": "drum_hit",
          "pitch": 42,
          "duration_ms": 93,
          "velocity": 90,
          "beat_index": 1328,
          "section": "drop"
        },
        {
          "t": 137586,
          "type": "drum_hit",
          "pitch": 42,
          "duration_ms": 93,
          "velocity": 90,
          "beat_index": 1330,
          "section": "drop"
        },
        {
          "t": 137793,
          "type": "drum_hit",
          "pitch": 36,
          "duration_ms": 93,
          "velocity": 127,
          "beat_index": 1332,
          "section": "drop"
        },
        {
          "t": 137793,
          "type": "drum_hit",
          "pitch": 38,
          "duration_ms": 93,
          "velocity": 110,
          "beat_index": 1332,
          "section": "drop"
        },
        {
          "t": 137793,
          "type": "drum_hit",
          "pitch": 42,
          "duration_ms": 93,
          "velocity": 90,
          "beat_index": 1332,
          "section": "drop"
        },
        {
          "t": 137999,
          "type": "drum_hit",
          "pitch": 42,
          "duration_ms": 93,
          "velocity": 90,
          "beat_index": 1334,
          "section": "drop"
        },
        {
          "t": 138206,
          "type": "drum_hit",
          "pitch": 36,
          "duration_ms": 93,
          "velocity": 127,
          "beat_index": 1336,
          "section": "drop"
        },
        {
          "t": 138206,
          "type": "drum_hit",
          "pitch": 42,
          "duration_ms": 93,
          "velocity": 90,
          "beat_index": 1336,
          "section": "drop"
        },
        {
          "t": 138413,
          "type": "drum_hit",
          "pitch": 42,
          "duration_ms": 93,
          "velocity": 90,
          "beat_index": 1338,
          "section": "drop"
        },
        {
          "t": 138620,
          "type": "drum_hit",
          "pitch": 36,
          "duration_ms": 93,
          "velocity": 127,
          "beat_index": 1340,
          "section": "drop"
        },
        {
          "t": 138620,
          "type": "drum_hit",
          "pitch": 38,
          "duration_ms": 93,
          "velocity": 110,
          "beat_index": 1340,
          "section": "drop"
        },
        {
          "t": 138620,
          "type": "drum_hit",
          "pitch": 42,
          "duration_ms": 93,
          "velocity": 90,
          "beat_index": 1340,
          "section": "drop"
        },
        {
          "t": 138827,
          "type": "drum_hit",
          "pitch": 42,
          "duration_ms": 93,
          "velocity": 90,
          "beat_index": 1342,
          "section": "drop"
        },
        {
          "t": 139034,
          "type": "drum_hit",
          "pitch": 36,
          "duration_ms": 93,
          "velocity": 127,
          "beat_index": 1344,
          "section": "drop"
        },
        {
          "t": 139034,
          "type": "drum_hit",
          "pitch": 42,
          "duration_ms": 93,
          "velocity": 90,
          "beat_index": 1344,
          "section": "drop"
        },
        {
          "t": 139241,
          "type": "drum_hit",
          "pitch": 42,
          "duration_ms": 93,
          "velocity": 90,
          "beat_index": 1346,
          "section": "drop"
        },
        {
          "t": 139448,
          "type": "drum_hit",
          "pitch": 36,
          "duration_ms": 93,
          "velocity": 127,
          "beat_index": 1348,
          "section": "drop"
        },
        {
          "t": 139448,
          "type": "drum_hit",
          "pitch": 38,
          "duration_ms": 93,
          "velocity": 110,
          "beat_index": 1348,
          "section": "drop"
        },
        {
          "t": 139448,
          "type": "drum_hit",
          "pitch": 42,
          "duration_ms": 93,
          "velocity": 90,
          "beat_index": 1348,
          "section": "drop"
        },
        {
          "t": 139655,
          "type": "drum_hit",
          "pitch": 42,
          "duration_ms": 93,
          "velocity": 90,
          "beat_index": 1350,
          "section": "drop"
        },
        {
          "t": 139862,
          "type": "drum_hit",
          "pitch": 36,
          "duration_ms": 93,
          "velocity": 127,
          "beat_index": 1352,
          "section": "drop"
        },
        {
          "t": 139862,
          "type": "drum_hit",
          "pitch": 42,
          "duration_ms": 93,
          "velocity": 90,
          "beat_index": 1352,
          "section": "drop"
        },
        {
          "t": 140068,
          "type": "drum_hit",
          "pitch": 42,
          "duration_ms": 93,
          "velocity": 90,
          "beat_index": 1354,
          "section": "drop"
        },
        {
          "t": 140275,
          "type": "drum_hit",
          "pitch": 36,
          "duration_ms": 93,
          "velocity": 127,
          "beat_index": 1356,
          "section": "drop"
        },
        {
          "t": 140275,
          "type": "drum_hit",
          "pitch": 38,
          "duration_ms": 93,
          "velocity": 110,
          "beat_index": 1356,
          "section": "drop"
        },
        {
          "t": 140275,
          "type": "drum_hit",
          "pitch": 42,
          "duration_ms": 93,
          "velocity": 90,
          "beat_index": 1356,
          "section": "drop"
        },
        {
          "t": 140482,
          "type": "drum_hit",
          "pitch": 42,
          "duration_ms": 93,
          "velocity": 90,
          "beat_index": 1358,
          "section": "drop"
        },
        {
          "t": 140689,
          "type": "drum_hit",
          "pitch": 36,
          "duration_ms": 93,
          "velocity": 127,
          "beat_index": 1360,
          "section": "drop"
        },
        {
          "t": 140689,
          "type": "drum_hit",
          "pitch": 42,
          "duration_ms": 93,
          "velocity": 90,
          "beat_index": 1360,
          "section": "drop"
        },
        {
          "t": 140896,
          "type": "drum_hit",
          "pitch": 42,
          "duration_ms": 93,
          "velocity": 90,
          "beat_index": 1362,
          "section": "drop"
        },
        {
          "t": 141103,
          "type": "drum_hit",
          "pitch": 36,
          "duration_ms": 93,
          "velocity": 127,
          "beat_index": 1364,
          "section": "drop"
        },
        {
          "t": 141103,
          "type": "drum_hit",
          "pitch": 38,
          "duration_ms": 93,
          "velocity": 110,
          "beat_index": 1364,
          "section": "drop"
        },
        {
          "t": 141103,
          "type": "drum_hit",
          "pitch": 42,
          "duration_ms": 93,
          "velocity": 90,
          "beat_index": 1364,
          "section": "drop"
        },
        {
          "t": 141310,
          "type": "drum_hit",
          "pitch": 42,
          "duration_ms": 93,
          "velocity": 90,
          "beat_index": 1366,
          "section": "drop"
        },
        {
          "t": 141517,
          "type": "drum_hit",
          "pitch": 36,
          "duration_ms": 93,
          "velocity": 127,
          "beat_index": 1368,
          "section": "drop"
        },
        {
          "t": 141517,
          "type": "drum_hit",
          "pitch": 42,
          "duration_ms": 93,
          "velocity": 90,
          "beat_index": 1368,
          "section": "drop"
        },
        {
          "t": 141724,
          "type": "drum_hit",
          "pitch": 42,
          "duration_ms": 93,
          "velocity": 90,
          "beat_index": 1370,
          "section": "drop"
        },
        {
          "t": 141931,
          "type": "drum_hit",
          "pitch": 36,
          "duration_ms": 93,
          "velocity": 127,
          "beat_index": 1372,
          "section": "drop"
        },
        {
          "t": 141931,
          "type": "drum_hit",
          "pitch": 38,
          "duration_ms": 93,
          "velocity": 110,
          "beat_index": 1372,
          "section": "drop"
        },
        {
          "t": 141931,
          "type": "drum_hit",
          "pitch": 42,
          "duration_ms": 93,
          "velocity": 90,
          "beat_index": 1372,
          "section": "drop"
        },
        {
          "t": 142137,
          "type": "drum_hit",
          "pitch": 42,
          "duration_ms": 93,
          "velocity": 90,
          "beat_index": 1374,
          "section": "drop"
        },
        {
          "t": 142344,
          "type": "drum_hit",
          "pitch": 36,
          "duration_ms": 93,
          "velocity": 127,
          "beat_index": 1376,
          "section": "drop"
        },
        {
          "t": 142344,
          "type": "drum_hit",
          "pitch": 42,
          "duration_ms": 93,
          "velocity": 90,
          "beat_index": 1376,
          "section": "drop"
        },
        {
          "t": 142551,
          "type": "drum_hit",
          "pitch": 42,
          "duration_ms": 93,
          "velocity": 90,
          "beat_index": 1378,
          "section": "drop"
        },
        {
          "t": 142758,
          "type": "drum_hit",
          "pitch": 36,
          "duration_ms": 93,
          "velocity": 127,
          "beat_index": 1380,
          "section": "drop"
        },
        {
          "t": 142758,
          "type": "drum_hit",
          "pitch": 38,
          "duration_ms": 93,
          "velocity": 110,
          "beat_index": 1380,
          "section": "drop"
        },
        {
          "t": 142758,
          "type": "drum_hit",
          "pitch": 42,
          "duration_ms": 93,
          "velocity": 90,
          "beat_index": 1380,
          "section": "drop"
        },
        {
          "t": 142965,
          "type": "drum_hit",
          "pitch": 42,
          "duration_ms": 93,
          "velocity": 90,
          "beat_index": 1382,
          "section": "drop"
        },
        {
          "t": 143172,
          "type": "drum_hit",
          "pitch": 36,
          "duration_ms": 93,
          "velocity": 127,
          "beat_index": 1384,
          "section": "drop"
        },
        {
          "t": 143172,
          "type": "drum_hit",
          "pitch": 42,
          "duration_ms": 93,
          "velocity": 90,
          "beat_index": 1384,
          "section": "drop"
        },
        {
          "t": 143379,
          "type": "drum_hit",
          "pitch": 42,
          "duration_ms": 93,
          "velocity": 90,
          "beat_index": 1386,
          "section": "drop"
        },
        {
          "t": 143586,
          "type": "drum_hit",
          "pitch": 36,
          "duration_ms": 93,
          "velocity": 127,
          "beat_index": 1388,
          "section": "drop"
        },
        {
          "t": 143586,
          "type": "drum_hit",
          "pitch": 38,
          "duration_ms": 93,
          "velocity": 110,
          "beat_index": 1388,
          "section": "drop"
        },
        {
          "t": 143586,
          "type": "drum_hit",
          "pitch": 42,
          "duration_ms": 93,
          "velocity": 90,
          "beat_index": 1388,
          "section": "drop"
        },
        {
          "t": 143793,
          "type": "drum_hit",
          "pitch": 42,
          "duration_ms": 93,
          "velocity": 90,
          "beat_index": 1390,
          "section": "drop"
        },
        {
          "t": 143999,
          "type": "drum_hit",
          "pitch": 36,
          "duration_ms": 93,
          "velocity": 127,
          "beat_index": 1392,
          "section": "drop"
        },
        {
          "t": 143999,
          "type": "drum_hit",
          "pitch": 42,
          "duration_ms": 93,
          "velocity": 90,
          "beat_index": 1392,
          "section": "drop"
        },
        {
          "t": 144206,
          "type": "drum_hit",
          "pitch": 42,
          "duration_ms": 93,
          "velocity": 90,
          "beat_index": 1394,
          "section": "drop"
        },
        {
          "t": 144413,
          "type": "drum_hit",
          "pitch": 36,
          "duration_ms": 93,
          "velocity": 127,
          "beat_index": 1396,
          "section": "drop"
        },
        {
          "t": 144413,
          "type": "drum_hit",
          "pitch": 38,
          "duration_ms": 93,
          "velocity": 110,
          "beat_index": 1396,
          "section": "drop"
        },
        {
          "t": 144413,
          "type": "drum_hit",
          "pitch": 42,
          "duration_ms": 93,
          "velocity": 90,
          "beat_index": 1396,
          "section": "drop"
        },
        {
          "t": 144620,
          "type": "drum_hit",
          "pitch": 42,
          "duration_ms": 93,
          "velocity": 90,
          "beat_index": 1398,
          "section": "drop"
        },
        {
          "t": 144827,
          "type": "drum_hit",
          "pitch": 36,
          "duration_ms": 93,
          "velocity": 127,
          "beat_index": 1400,
          "section": "drop"
        },
        {
          "t": 144827,
          "type": "drum_hit",
          "pitch": 42,
          "duration_ms": 93,
          "velocity": 90,
          "beat_index": 1400,
          "section": "drop"
        },
        {
          "t": 145034,
          "type": "drum_hit",
          "pitch": 42,
          "duration_ms": 93,
          "velocity": 90,
          "beat_index": 1402,
          "section": "drop"
        },
        {
          "t": 145241,
          "type": "drum_hit",
          "pitch": 36,
          "duration_ms": 93,
          "velocity": 127,
          "beat_index": 1404,
          "section": "drop"
        },
        {
          "t": 145241,
          "type": "drum_hit",
          "pitch": 38,
          "duration_ms": 93,
          "velocity": 110,
          "beat_index": 1404,
          "section": "drop"
        },
        {
          "t": 145241,
          "type": "drum_hit",
          "pitch": 42,
          "duration_ms": 93,
          "velocity": 90,
          "beat_index": 1404,
          "section": "drop"
        },
        {
          "t": 145448,
          "type": "drum_hit",
          "pitch": 42,
          "duration_ms": 93,
          "velocity": 90,
          "beat_index": 1406,
          "section": "drop"
        },
        {
          "t": 145655,
          "type": "drum_hit",
          "pitch": 36,
          "duration_ms": 93,
          "velocity": 127,
          "beat_index": 1408,
          "section": "drop"
        },
        {
          "t": 145655,
          "type": "drum_hit",
          "pitch": 42,
          "duration_ms": 93,
          "velocity": 90,
          "beat_index": 1408,
          "section": "drop"
        },
        {
          "t": 145862,
          "type": "drum_hit",
          "pitch": 42,
          "duration_ms": 93,
          "velocity": 90,
          "beat_index": 1410,
          "section": "drop"
        },
        {
          "t": 146068,
          "type": "drum_hit",
          "pitch": 36,
          "duration_ms": 93,
          "velocity": 127,
          "beat_index": 1412,
          "section": "drop"
        },
        {
          "t": 146068,
          "type": "drum_hit",
          "pitch": 38,
          "duration_ms": 93,
          "velocity": 110,
          "beat_index": 1412,
          "section": "drop"
        },
        {
          "t": 146068,
          "type": "drum_hit",
          "pitch": 42,
          "duration_ms": 93,
          "velocity": 90,
          "beat_index": 1412,
          "section": "drop"
        },
        {
          "t": 146275,
          "type": "drum_hit",
          "pitch": 42,
          "duration_ms": 93,
          "velocity": 90,
          "beat_index": 1414,
          "section": "drop"
        },
        {
          "t": 146482,
          "type": "drum_hit",
          "pitch": 36,
          "duration_ms": 93,
          "velocity": 127,
          "beat_index": 1416,
          "section": "drop"
        },
        {
          "t": 146482,
          "type": "drum_hit",
          "pitch": 42,
          "duration_ms": 93,
          "velocity": 90,
          "beat_index": 1416,
          "section": "drop"
        },
        {
          "t": 146689,
          "type": "drum_hit",
          "pitch": 42,
          "duration_ms": 93,
          "velocity": 90,
          "beat_index": 1418,
          "section": "drop"
        },
        {
          "t": 146896,
          "type": "drum_hit",
          "pitch": 36,
          "duration_ms": 93,
          "velocity": 127,
          "beat_index": 1420,
          "section": "drop"
        },
        {
          "t": 146896,
          "type": "drum_hit",
          "pitch": 38,
          "duration_ms": 93,
          "velocity": 110,
          "beat_index": 1420,
          "section": "drop"
        },
        {
          "t": 146896,
          "type": "drum_hit",
          "pitch": 42,
          "duration_ms": 93,
          "velocity": 90,
          "beat_index": 1420,
          "section": "drop"
        },
        {
          "t": 147103,
          "type": "drum_hit",
          "pitch": 42,
          "duration_ms": 93,
          "velocity": 90,
          "beat_index": 1422,
          "section": "drop"
        },
        {
          "t": 147310,
          "type": "drum_hit",
          "pitch": 36,
          "duration_ms": 93,
          "velocity": 127,
          "beat_index": 1424,
          "section": "drop"
        },
        {
          "t": 147310,
          "type": "drum_hit",
          "pitch": 42,
          "duration_ms": 93,
          "velocity": 90,
          "beat_index": 1424,
          "section": "drop"
        },
        {
          "t": 147517,
          "type": "drum_hit",
          "pitch": 42,
          "duration_ms": 93,
          "velocity": 90,
          "beat_index": 1426,
          "section": "drop"
        },
        {
          "t": 147724,
          "type": "drum_hit",
          "pitch": 36,
          "duration_ms": 93,
          "velocity": 127,
          "beat_index": 1428,
          "section": "drop"
        },
        {
          "t": 147724,
          "type": "drum_hit",
          "pitch": 38,
          "duration_ms": 93,
          "velocity": 110,
          "beat_index": 1428,
          "section": "drop"
        },
        {
          "t": 147724,
          "type": "drum_hit",
          "pitch": 42,
          "duration_ms": 93,
          "velocity": 90,
          "beat_index": 1428,
          "section": "drop"
        },
        {
          "t": 147931,
          "type": "drum_hit",
          "pitch": 42,
          "duration_ms": 93,
          "velocity": 90,
          "beat_index": 1430,
          "section": "drop"
        },
        {
          "t": 148137,
          "type": "drum_hit",
          "pitch": 36,
          "duration_ms": 93,
          "velocity": 127,
          "beat_index": 1432,
          "section": "drop"
        },
        {
          "t": 148137,
          "type": "drum_hit",
          "pitch": 42,
          "duration_ms": 93,
          "velocity": 90,
          "beat_index": 1432,
          "section": "drop"
        },
        {
          "t": 148344,
          "type": "drum_hit",
          "pitch": 42,
          "duration_ms": 93,
          "velocity": 90,
          "beat_index": 1434,
          "section": "drop"
        },
        {
          "t": 148551,
          "type": "drum_hit",
          "pitch": 36,
          "duration_ms": 93,
          "velocity": 127,
          "beat_index": 1436,
          "section": "drop"
        },
        {
          "t": 148551,
          "type": "drum_hit",
          "pitch": 38,
          "duration_ms": 93,
          "velocity": 110,
          "beat_index": 1436,
          "section": "drop"
        },
        {
          "t": 148551,
          "type": "drum_hit",
          "pitch": 42,
          "duration_ms": 93,
          "velocity": 90,
          "beat_index": 1436,
          "section": "drop"
        },
        {
          "t": 148758,
          "type": "drum_hit",
          "pitch": 42,
          "duration_ms": 93,
          "velocity": 90,
          "beat_index": 1438,
          "section": "drop"
        },
        {
          "t": 148965,
          "type": "drum_hit",
          "pitch": 36,
          "duration_ms": 93,
          "velocity": 127,
          "beat_index": 1440,
          "section": "drop"
        },
        {
          "t": 148965,
          "type": "drum_hit",
          "pitch": 42,
          "duration_ms": 93,
          "velocity": 90,
          "beat_index": 1440,
          "section": "drop"
        },
        {
          "t": 149172,
          "type": "drum_hit",
          "pitch": 42,
          "duration_ms": 93,
          "velocity": 90,
          "beat_index": 1442,
          "section": "drop"
        },
        {
          "t": 149379,
          "type": "drum_hit",
          "pitch": 36,
          "duration_ms": 93,
          "velocity": 127,
          "beat_index": 1444,
          "section": "drop"
        },
        {
          "t": 149379,
          "type": "drum_hit",
          "pitch": 38,
          "duration_ms": 93,
          "velocity": 110,
          "beat_index": 1444,
          "section": "drop"
        },
        {
          "t": 149379,
          "type": "drum_hit",
          "pitch": 42,
          "duration_ms": 93,
          "velocity": 90,
          "beat_index": 1444,
          "section": "drop"
        },
        {
          "t": 149586,
          "type": "drum_hit",
          "pitch": 42,
          "duration_ms": 93,
          "velocity": 90,
          "beat_index": 1446,
          "section": "drop"
        },
        {
          "t": 149793,
          "type": "drum_hit",
          "pitch": 36,
          "duration_ms": 93,
          "velocity": 127,
          "beat_index": 1448,
          "section": "drop"
        },
        {
          "t": 149793,
          "type": "drum_hit",
          "pitch": 42,
          "duration_ms": 93,
          "velocity": 90,
          "beat_index": 1448,
          "section": "drop"
        },
        {
          "t": 149999,
          "type": "drum_hit",
          "pitch": 42,
          "duration_ms": 93,
          "velocity": 90,
          "beat_index": 1450,
          "section": "drop"
        },
        {
          "t": 150206,
          "type": "drum_hit",
          "pitch": 36,
          "duration_ms": 93,
          "velocity": 127,
          "beat_index": 1452,
          "section": "drop"
        },
        {
          "t": 150206,
          "type": "drum_hit",
          "pitch": 38,
          "duration_ms": 93,
          "velocity": 110,
          "beat_index": 1452,
          "section": "drop"
        },
        {
          "t": 150206,
          "type": "drum_hit",
          "pitch": 42,
          "duration_ms": 93,
          "velocity": 90,
          "beat_index": 1452,
          "section": "drop"
        },
        {
          "t": 150413,
          "type": "drum_hit",
          "pitch": 42,
          "duration_ms": 93,
          "velocity": 90,
          "beat_index": 1454,
          "section": "drop"
        },
        {
          "t": 150620,
          "type": "drum_hit",
          "pitch": 36,
          "duration_ms": 93,
          "velocity": 127,
          "beat_index": 1456,
          "section": "drop"
        },
        {
          "t": 150620,
          "type": "drum_hit",
          "pitch": 42,
          "duration_ms": 93,
          "velocity": 90,
          "beat_index": 1456,
          "section": "drop"
        },
        {
          "t": 150827,
          "type": "drum_hit",
          "pitch": 42,
          "duration_ms": 93,
          "velocity": 90,
          "beat_index": 1458,
          "section": "drop"
        },
        {
          "t": 151034,
          "type": "drum_hit",
          "pitch": 36,
          "duration_ms": 93,
          "velocity": 127,
          "beat_index": 1460,
          "section": "drop"
        },
        {
          "t": 151034,
          "type": "drum_hit",
          "pitch": 38,
          "duration_ms": 93,
          "velocity": 110,
          "beat_index": 1460,
          "section": "drop"
        },
        {
          "t": 151034,
          "type": "drum_hit",
          "pitch": 42,
          "duration_ms": 93,
          "velocity": 90,
          "beat_index": 1460,
          "section": "drop"
        },
        {
          "t": 151241,
          "type": "drum_hit",
          "pitch": 42,
          "duration_ms": 93,
          "velocity": 90,
          "beat_index": 1462,
          "section": "drop"
        },
        {
          "t": 151448,
          "type": "drum_hit",
          "pitch": 36,
          "duration_ms": 93,
          "velocity": 127,
          "beat_index": 1464,
          "section": "drop"
        },
        {
          "t": 151448,
          "type": "drum_hit",
          "pitch": 42,
          "duration_ms": 93,
          "velocity": 90,
          "beat_index": 1464,
          "section": "drop"
        },
        {
          "t": 151655,
          "type": "drum_hit",
          "pitch": 42,
          "duration_ms": 93,
          "velocity": 90,
          "beat_index": 1466,
          "section": "drop"
        },
        {
          "t": 151862,
          "type": "drum_hit",
          "pitch": 36,
          "duration_ms": 93,
          "velocity": 127,
          "beat_index": 1468,
          "section": "drop"
        },
        {
          "t": 151862,
          "type": "drum_hit",
          "pitch": 38,
          "duration_ms": 93,
          "velocity": 110,
          "beat_index": 1468,
          "section": "drop"
        },
        {
          "t": 151862,
          "type": "drum_hit",
          "pitch": 42,
          "duration_ms": 93,
          "velocity": 90,
          "beat_index": 1468,
          "section": "drop"
        },
        {
          "t": 152068,
          "type": "drum_hit",
          "pitch": 42,
          "duration_ms": 93,
          "velocity": 90,
          "beat_index": 1470,
          "section": "drop"
        },
        {
          "t": 152275,
          "type": "drum_hit",
          "pitch": 36,
          "duration_ms": 93,
          "velocity": 127,
          "beat_index": 1472,
          "section": "drop"
        },
        {
          "t": 152275,
          "type": "drum_hit",
          "pitch": 42,
          "duration_ms": 93,
          "velocity": 90,
          "beat_index": 1472,
          "section": "drop"
        },
        {
          "t": 152482,
          "type": "drum_hit",
          "pitch": 42,
          "duration_ms": 93,
          "velocity": 90,
          "beat_index": 1474,
          "section": "drop"
        },
        {
          "t": 152689,
          "type": "drum_hit",
          "pitch": 36,
          "duration_ms": 93,
          "velocity": 127,
          "beat_index": 1476,
          "section": "drop"
        },
        {
          "t": 152689,
          "type": "drum_hit",
          "pitch": 38,
          "duration_ms": 93,
          "velocity": 110,
          "beat_index": 1476,
          "section": "drop"
        },
        {
          "t": 152689,
          "type": "drum_hit",
          "pitch": 42,
          "duration_ms": 93,
          "velocity": 90,
          "beat_index": 1476,
          "section": "drop"
        },
        {
          "t": 152896,
          "type": "drum_hit",
          "pitch": 42,
          "duration_ms": 93,
          "velocity": 90,
          "beat_index": 1478,
          "section": "drop"
        },
        {
          "t": 153103,
          "type": "drum_hit",
          "pitch": 36,
          "duration_ms": 93,
          "velocity": 127,
          "beat_index": 1480,
          "section": "drop"
        },
        {
          "t": 153103,
          "type": "drum_hit",
          "pitch": 42,
          "duration_ms": 93,
          "velocity": 90,
          "beat_index": 1480,
          "section": "drop"
        },
        {
          "t": 153310,
          "type": "drum_hit",
          "pitch": 42,
          "duration_ms": 93,
          "velocity": 90,
          "beat_index": 1482,
          "section": "drop"
        },
        {
          "t": 153517,
          "type": "drum_hit",
          "pitch": 36,
          "duration_ms": 93,
          "velocity": 127,
          "beat_index": 1484,
          "section": "drop"
        },
        {
          "t": 153517,
          "type": "drum_hit",
          "pitch": 38,
          "duration_ms": 93,
          "velocity": 110,
          "beat_index": 1484,
          "section": "drop"
        },
        {
          "t": 153517,
          "type": "drum_hit",
          "pitch": 42,
          "duration_ms": 93,
          "velocity": 90,
          "beat_index": 1484,
          "section": "drop"
        },
        {
          "t": 153724,
          "type": "drum_hit",
          "pitch": 42,
          "duration_ms": 93,
          "velocity": 90,
          "beat_index": 1486,
          "section": "drop"
        },
        {
          "t": 153931,
          "type": "drum_hit",
          "pitch": 36,
          "duration_ms": 93,
          "velocity": 127,
          "beat_index": 1488,
          "section": "drop"
        },
        {
          "t": 153931,
          "type": "drum_hit",
          "pitch": 42,
          "duration_ms": 93,
          "velocity": 90,
          "beat_index": 1488,
          "section": "drop"
        },
        {
          "t": 154137,
          "type": "drum_hit",
          "pitch": 42,
          "duration_ms": 93,
          "velocity": 90,
          "beat_index": 1490,
          "section": "drop"
        },
        {
          "t": 154344,
          "type": "drum_hit",
          "pitch": 36,
          "duration_ms": 93,
          "velocity": 127,
          "beat_index": 1492,
          "section": "drop"
        },
        {
          "t": 154344,
          "type": "drum_hit",
          "pitch": 38,
          "duration_ms": 93,
          "velocity": 110,
          "beat_index": 1492,
          "section": "drop"
        },
        {
          "t": 154344,
          "type": "drum_hit",
          "pitch": 42,
          "duration_ms": 93,
          "velocity": 90,
          "beat_index": 1492,
          "section": "drop"
        },
        {
          "t": 154551,
          "type": "drum_hit",
          "pitch": 42,
          "duration_ms": 93,
          "velocity": 90,
          "beat_index": 1494,
          "section": "drop"
        },
        {
          "t": 154758,
          "type": "drum_hit",
          "pitch": 36,
          "duration_ms": 93,
          "velocity": 127,
          "beat_index": 1496,
          "section": "drop"
        },
        {
          "t": 154758,
          "type": "drum_hit",
          "pitch": 42,
          "duration_ms": 93,
          "velocity": 90,
          "beat_index": 1496,
          "section": "drop"
        },
        {
          "t": 154965,
          "type": "drum_hit",
          "pitch": 42,
          "duration_ms": 93,
          "velocity": 90,
          "beat_index": 1498,
          "section": "drop"
        },
        {
          "t": 155172,
          "type": "drum_hit",
          "pitch": 36,
          "duration_ms": 93,
          "velocity": 127,
          "beat_index": 1500,
          "section": "drop"
        },
        {
          "t": 155172,
          "type": "drum_hit",
          "pitch": 38,
          "duration_ms": 93,
          "velocity": 110,
          "beat_index": 1500,
          "section": "drop"
        },
        {
          "t": 155172,
          "type": "drum_hit",
          "pitch": 42,
          "duration_ms": 93,
          "velocity": 90,
          "beat_index": 1500,
          "section": "drop"
        },
        {
          "t": 155379,
          "type": "drum_hit",
          "pitch": 42,
          "duration_ms": 93,
          "velocity": 90,
          "beat_index": 1502,
          "section": "drop"
        },
        {
          "t": 155586,
          "type": "drum_hit",
          "pitch": 36,
          "duration_ms": 93,
          "velocity": 127,
          "beat_index": 1504,
          "section": "drop"
        },
        {
          "t": 155586,
          "type": "drum_hit",
          "pitch": 42,
          "duration_ms": 93,
          "velocity": 90,
          "beat_index": 1504,
          "section": "drop"
        },
        {
          "t": 155793,
          "type": "drum_hit",
          "pitch": 42,
          "duration_ms": 93,
          "velocity": 90,
          "beat_index": 1506,
          "section": "drop"
        },
        {
          "t": 155999,
          "type": "drum_hit",
          "pitch": 36,
          "duration_ms": 93,
          "velocity": 127,
          "beat_index": 1508,
          "section": "drop"
        },
        {
          "t": 155999,
          "type": "drum_hit",
          "pitch": 38,
          "duration_ms": 93,
          "velocity": 110,
          "beat_index": 1508,
          "section": "drop"
        },
        {
          "t": 155999,
          "type": "drum_hit",
          "pitch": 42,
          "duration_ms": 93,
          "velocity": 90,
          "beat_index": 1508,
          "section": "drop"
        },
        {
          "t": 156206,
          "type": "drum_hit",
          "pitch": 42,
          "duration_ms": 93,
          "velocity": 90,
          "beat_index": 1510,
          "section": "drop"
        },
        {
          "t": 156413,
          "type": "drum_hit",
          "pitch": 36,
          "duration_ms": 93,
          "velocity": 127,
          "beat_index": 1512,
          "section": "drop"
        },
        {
          "t": 156413,
          "type": "drum_hit",
          "pitch": 42,
          "duration_ms": 93,
          "velocity": 90,
          "beat_index": 1512,
          "section": "drop"
        },
        {
          "t": 156620,
          "type": "drum_hit",
          "pitch": 42,
          "duration_ms": 93,
          "velocity": 90,
          "beat_index": 1514,
          "section": "drop"
        },
        {
          "t": 156827,
          "type": "drum_hit",
          "pitch": 36,
          "duration_ms": 93,
          "velocity": 127,
          "beat_index": 1516,
          "section": "drop"
        },
        {
          "t": 156827,
          "type": "drum_hit",
          "pitch": 38,
          "duration_ms": 93,
          "velocity": 110,
          "beat_index": 1516,
          "section": "drop"
        },
        {
          "t": 156827,
          "type": "drum_hit",
          "pitch": 42,
          "duration_ms": 93,
          "velocity": 90,
          "beat_index": 1516,
          "section": "drop"
        },
        {
          "t": 157034,
          "type": "drum_hit",
          "pitch": 42,
          "duration_ms": 93,
          "velocity": 90,
          "beat_index": 1518,
          "section": "drop"
        },
        {
          "t": 157241,
          "type": "drum_hit",
          "pitch": 36,
          "duration_ms": 93,
          "velocity": 127,
          "beat_index": 1520,
          "section": "drop"
        },
        {
          "t": 157241,
          "type": "drum_hit",
          "pitch": 42,
          "duration_ms": 93,
          "velocity": 90,
          "beat_index": 1520,
          "section": "drop"
        },
        {
          "t": 157448,
          "type": "drum_hit",
          "pitch": 42,
          "duration_ms": 93,
          "velocity": 90,
          "beat_index": 1522,
          "section": "drop"
        },
        {
          "t": 157655,
          "type": "drum_hit",
          "pitch": 36,
          "duration_ms": 93,
          "velocity": 127,
          "beat_index": 1524,
          "section": "drop"
        },
        {
          "t": 157655,
          "type": "drum_hit",
          "pitch": 38,
          "duration_ms": 93,
          "velocity": 110,
          "beat_index": 1524,
          "section": "drop"
        },
        {
          "t": 157655,
          "type": "drum_hit",
          "pitch": 42,
          "duration_ms": 93,
          "velocity": 90,
          "beat_index": 1524,
          "section": "drop"
        },
        {
          "t": 157862,
          "type": "drum_hit",
          "pitch": 42,
          "duration_ms": 93,
          "velocity": 90,
          "beat_index": 1526,
          "section": "drop"
        },
        {
          "t": 158068,
          "type": "drum_hit",
          "pitch": 36,
          "duration_ms": 93,
          "velocity": 127,
          "beat_index": 1528,
          "section": "drop"
        },
        {
          "t": 158068,
          "type": "drum_hit",
          "pitch": 42,
          "duration_ms": 93,
          "velocity": 90,
          "beat_index": 1528,
          "section": "drop"
        },
        {
          "t": 158275,
          "type": "drum_hit",
          "pitch": 42,
          "duration_ms": 93,
          "velocity": 90,
          "beat_index": 1530,
          "section": "drop"
        },
        {
          "t": 158482,
          "type": "drum_hit",
          "pitch": 36,
          "duration_ms": 93,
          "velocity": 127,
          "beat_index": 1532,
          "section": "drop"
        },
        {
          "t": 158482,
          "type": "drum_hit",
          "pitch": 38,
          "duration_ms": 93,
          "velocity": 110,
          "beat_index": 1532,
          "section": "drop"
        },
        {
          "t": 158482,
          "type": "drum_hit",
          "pitch": 42,
          "duration_ms": 93,
          "velocity": 90,
          "beat_index": 1532,
          "section": "drop"
        },
        {
          "t": 158689,
          "type": "drum_hit",
          "pitch": 42,
          "duration_ms": 93,
          "velocity": 90,
          "beat_index": 1534,
          "section": "drop"
        },
        {
          "t": 158896,
          "type": "drum_hit",
          "pitch": 36,
          "duration_ms": 93,
          "velocity": 127,
          "beat_index": 1536,
          "section": "drop"
        },
        {
          "t": 158896,
          "type": "drum_hit",
          "pitch": 42,
          "duration_ms": 93,
          "velocity": 90,
          "beat_index": 1536,
          "section": "drop"
        },
        {
          "t": 159103,
          "type": "drum_hit",
          "pitch": 42,
          "duration_ms": 93,
          "velocity": 90,
          "beat_index": 1538,
          "section": "drop"
        },
        {
          "t": 159310,
          "type": "drum_hit",
          "pitch": 36,
          "duration_ms": 93,
          "velocity": 127,
          "beat_index": 1540,
          "section": "drop"
        },
        {
          "t": 159310,
          "type": "drum_hit",
          "pitch": 38,
          "duration_ms": 93,
          "velocity": 110,
          "beat_index": 1540,
          "section": "drop"
        },
        {
          "t": 159310,
          "type": "drum_hit",
          "pitch": 42,
          "duration_ms": 93,
          "velocity": 90,
          "beat_index": 1540,
          "section": "drop"
        },
        {
          "t": 159517,
          "type": "drum_hit",
          "pitch": 42,
          "duration_ms": 93,
          "velocity": 90,
          "beat_index": 1542,
          "section": "drop"
        },
        {
          "t": 159724,
          "type": "drum_hit",
          "pitch": 36,
          "duration_ms": 93,
          "velocity": 127,
          "beat_index": 1544,
          "section": "drop"
        },
        {
          "t": 159724,
          "type": "drum_hit",
          "pitch": 42,
          "duration_ms": 93,
          "velocity": 90,
          "beat_index": 1544,
          "section": "drop"
        },
        {
          "t": 159931,
          "type": "drum_hit",
          "pitch": 42,
          "duration_ms": 93,
          "velocity": 90,
          "beat_index": 1546,
          "section": "drop"
        },
        {
          "t": 160137,
          "type": "drum_hit",
          "pitch": 36,
          "duration_ms": 93,
          "velocity": 127,
          "beat_index": 1548,
          "section": "drop"
        },
        {
          "t": 160137,
          "type": "drum_hit",
          "pitch": 38,
          "duration_ms": 93,
          "velocity": 110,
          "beat_index": 1548,
          "section": "drop"
        },
        {
          "t": 160137,
          "type": "drum_hit",
          "pitch": 42,
          "duration_ms": 93,
          "velocity": 90,
          "beat_index": 1548,
          "section": "drop"
        },
        {
          "t": 160344,
          "type": "drum_hit",
          "pitch": 42,
          "duration_ms": 93,
          "velocity": 90,
          "beat_index": 1550,
          "section": "drop"
        },
        {
          "t": 160551,
          "type": "drum_hit",
          "pitch": 36,
          "duration_ms": 93,
          "velocity": 127,
          "beat_index": 1552,
          "section": "drop"
        },
        {
          "t": 160551,
          "type": "drum_hit",
          "pitch": 42,
          "duration_ms": 93,
          "velocity": 90,
          "beat_index": 1552,
          "section": "drop"
        },
        {
          "t": 160758,
          "type": "drum_hit",
          "pitch": 42,
          "duration_ms": 93,
          "velocity": 90,
          "beat_index": 1554,
          "section": "drop"
        },
        {
          "t": 160965,
          "type": "drum_hit",
          "pitch": 36,
          "duration_ms": 93,
          "velocity": 127,
          "beat_index": 1556,
          "section": "drop"
        },
        {
          "t": 160965,
          "type": "drum_hit",
          "pitch": 38,
          "duration_ms": 93,
          "velocity": 110,
          "beat_index": 1556,
          "section": "drop"
        },
        {
          "t": 160965,
          "type": "drum_hit",
          "pitch": 42,
          "duration_ms": 93,
          "velocity": 90,
          "beat_index": 1556,
          "section": "drop"
        },
        {
          "t": 161172,
          "type": "drum_hit",
          "pitch": 42,
          "duration_ms": 93,
          "velocity": 90,
          "beat_index": 1558,
          "section": "drop"
        },
        {
          "t": 161379,
          "type": "drum_hit",
          "pitch": 36,
          "duration_ms": 93,
          "velocity": 127,
          "beat_index": 1560,
          "section": "drop"
        },
        {
          "t": 161379,
          "type": "drum_hit",
          "pitch": 42,
          "duration_ms": 93,
          "velocity": 90,
          "beat_index": 1560,
          "section": "drop"
        },
        {
          "t": 161586,
          "type": "drum_hit",
          "pitch": 42,
          "duration_ms": 93,
          "velocity": 90,
          "beat_index": 1562,
          "section": "drop"
        },
        {
          "t": 161793,
          "type": "drum_hit",
          "pitch": 36,
          "duration_ms": 93,
          "velocity": 127,
          "beat_index": 1564,
          "section": "drop"
        },
        {
          "t": 161793,
          "type": "drum_hit",
          "pitch": 38,
          "duration_ms": 93,
          "velocity": 110,
          "beat_index": 1564,
          "section": "drop"
        },
        {
          "t": 161793,
          "type": "drum_hit",
          "pitch": 42,
          "duration_ms": 93,
          "velocity": 90,
          "beat_index": 1564,
          "section": "drop"
        },
        {
          "t": 161999,
          "type": "drum_hit",
          "pitch": 42,
          "duration_ms": 93,
          "velocity": 90,
          "beat_index": 1566,
          "section": "drop"
        },
        {
          "t": 162206,
          "type": "drum_hit",
          "pitch": 36,
          "duration_ms": 93,
          "velocity": 127,
          "beat_index": 1568,
          "section": "drop"
        },
        {
          "t": 162206,
          "type": "drum_hit",
          "pitch": 42,
          "duration_ms": 93,
          "velocity": 90,
          "beat_index": 1568,
          "section": "drop"
        },
        {
          "t": 162413,
          "type": "drum_hit",
          "pitch": 42,
          "duration_ms": 93,
          "velocity": 90,
          "beat_index": 1570,
          "section": "drop"
        },
        {
          "t": 162620,
          "type": "drum_hit",
          "pitch": 36,
          "duration_ms": 93,
          "velocity": 127,
          "beat_index": 1572,
          "section": "drop"
        },
        {
          "t": 162620,
          "type": "drum_hit",
          "pitch": 38,
          "duration_ms": 93,
          "velocity": 110,
          "beat_index": 1572,
          "section": "drop"
        },
        {
          "t": 162620,
          "type": "drum_hit",
          "pitch": 42,
          "duration_ms": 93,
          "velocity": 90,
          "beat_index": 1572,
          "section": "drop"
        },
        {
          "t": 162827,
          "type": "drum_hit",
          "pitch": 42,
          "duration_ms": 93,
          "velocity": 90,
          "beat_index": 1574,
          "section": "drop"
        },
        {
          "t": 163034,
          "type": "drum_hit",
          "pitch": 36,
          "duration_ms": 93,
          "velocity": 127,
          "beat_index": 1576,
          "section": "drop"
        },
        {
          "t": 163034,
          "type": "drum_hit",
          "pitch": 42,
          "duration_ms": 93,
          "velocity": 90,
          "beat_index": 1576,
          "section": "drop"
        },
        {
          "t": 163241,
          "type": "drum_hit",
          "pitch": 42,
          "duration_ms": 93,
          "velocity": 90,
          "beat_index": 1578,
          "section": "drop"
        },
        {
          "t": 163448,
          "type": "drum_hit",
          "pitch": 36,
          "duration_ms": 93,
          "velocity": 127,
          "beat_index": 1580,
          "section": "drop"
        },
        {
          "t": 163448,
          "type": "drum_hit",
          "pitch": 38,
          "duration_ms": 93,
          "velocity": 110,
          "beat_index": 1580,
          "section": "drop"
        },
        {
          "t": 163448,
          "type": "drum_hit",
          "pitch": 42,
          "duration_ms": 93,
          "velocity": 90,
          "beat_index": 1580,
          "section": "drop"
        },
        {
          "t": 163655,
          "type": "drum_hit",
          "pitch": 42,
          "duration_ms": 93,
          "velocity": 90,
          "beat_index": 1582,
          "section": "drop"
        },
        {
          "t": 163862,
          "type": "drum_hit",
          "pitch": 36,
          "duration_ms": 93,
          "velocity": 127,
          "beat_index": 1584,
          "section": "drop"
        },
        {
          "t": 163862,
          "type": "drum_hit",
          "pitch": 42,
          "duration_ms": 93,
          "velocity": 90,
          "beat_index": 1584,
          "section": "drop"
        },
        {
          "t": 164068,
          "type": "drum_hit",
          "pitch": 42,
          "duration_ms": 93,
          "velocity": 90,
          "beat_index": 1586,
          "section": "drop"
        },
        {
          "t": 164275,
          "type": "drum_hit",
          "pitch": 36,
          "duration_ms": 93,
          "velocity": 127,
          "beat_index": 1588,
          "section": "drop"
        },
        {
          "t": 164275,
          "type": "drum_hit",
          "pitch": 38,
          "duration_ms": 93,
          "velocity": 110,
          "beat_index": 1588,
          "section": "drop"
        },
        {
          "t": 164275,
          "type": "drum_hit",
          "pitch": 42,
          "duration_ms": 93,
          "velocity": 90,
          "beat_index": 1588,
          "section": "drop"
        },
        {
          "t": 164482,
          "type": "drum_hit",
          "pitch": 42,
          "duration_ms": 93,
          "velocity": 90,
          "beat_index": 1590,
          "section": "drop"
        },
        {
          "t": 164689,
          "type": "drum_hit",
          "pitch": 36,
          "duration_ms": 93,
          "velocity": 127,
          "beat_index": 1592,
          "section": "drop"
        },
        {
          "t": 164689,
          "type": "drum_hit",
          "pitch": 42,
          "duration_ms": 93,
          "velocity": 90,
          "beat_index": 1592,
          "section": "drop"
        },
        {
          "t": 164896,
          "type": "drum_hit",
          "pitch": 42,
          "duration_ms": 93,
          "velocity": 90,
          "beat_index": 1594,
          "section": "drop"
        },
        {
          "t": 165103,
          "type": "drum_hit",
          "pitch": 36,
          "duration_ms": 93,
          "velocity": 127,
          "beat_index": 1596,
          "section": "drop"
        },
        {
          "t": 165103,
          "type": "drum_hit",
          "pitch": 38,
          "duration_ms": 93,
          "velocity": 110,
          "beat_index": 1596,
          "section": "drop"
        },
        {
          "t": 165103,
          "type": "drum_hit",
          "pitch": 42,
          "duration_ms": 93,
          "velocity": 90,
          "beat_index": 1596,
          "section": "drop"
        },
        {
          "t": 165310,
          "type": "drum_hit",
          "pitch": 42,
          "duration_ms": 93,
          "velocity": 90,
          "beat_index": 1598,
          "section": "drop"
        },
        {
          "t": 165517,
          "type": "drum_hit",
          "pitch": 36,
          "duration_ms": 93,
          "velocity": 127,
          "beat_index": 1600,
          "section": "drop"
        },
        {
          "t": 165517,
          "type": "drum_hit",
          "pitch": 42,
          "duration_ms": 93,
          "velocity": 90,
          "beat_index": 1600,
          "section": "drop"
        },
        {
          "t": 165724,
          "type": "drum_hit",
          "pitch": 42,
          "duration_ms": 93,
          "velocity": 90,
          "beat_index": 1602,
          "section": "drop"
        },
        {
          "t": 165931,
          "type": "drum_hit",
          "pitch": 36,
          "duration_ms": 93,
          "velocity": 127,
          "beat_index": 1604,
          "section": "drop"
        },
        {
          "t": 165931,
          "type": "drum_hit",
          "pitch": 38,
          "duration_ms": 93,
          "velocity": 110,
          "beat_index": 1604,
          "section": "drop"
        },
        {
          "t": 165931,
          "type": "drum_hit",
          "pitch": 42,
          "duration_ms": 93,
          "velocity": 90,
          "beat_index": 1604,
          "section": "drop"
        },
        {
          "t": 166137,
          "type": "drum_hit",
          "pitch": 42,
          "duration_ms": 93,
          "velocity": 90,
          "beat_index": 1606,
          "section": "drop"
        },
        {
          "t": 166344,
          "type": "drum_hit",
          "pitch": 36,
          "duration_ms": 93,
          "velocity": 127,
          "beat_index": 1608,
          "section": "drop"
        },
        {
          "t": 166344,
          "type": "drum_hit",
          "pitch": 42,
          "duration_ms": 93,
          "velocity": 90,
          "beat_index": 1608,
          "section": "drop"
        },
        {
          "t": 166551,
          "type": "drum_hit",
          "pitch": 42,
          "duration_ms": 93,
          "velocity": 90,
          "beat_index": 1610,
          "section": "drop"
        },
        {
          "t": 166758,
          "type": "drum_hit",
          "pitch": 36,
          "duration_ms": 93,
          "velocity": 127,
          "beat_index": 1612,
          "section": "drop"
        },
        {
          "t": 166758,
          "type": "drum_hit",
          "pitch": 38,
          "duration_ms": 93,
          "velocity": 110,
          "beat_index": 1612,
          "section": "drop"
        },
        {
          "t": 166758,
          "type": "drum_hit",
          "pitch": 42,
          "duration_ms": 93,
          "velocity": 90,
          "beat_index": 1612,
          "section": "drop"
        },
        {
          "t": 166965,
          "type": "drum_hit",
          "pitch": 42,
          "duration_ms": 93,
          "velocity": 90,
          "beat_index": 1614,
          "section": "drop"
        },
        {
          "t": 167172,
          "type": "drum_hit",
          "pitch": 36,
          "duration_ms": 93,
          "velocity": 127,
          "beat_index": 1616,
          "section": "drop"
        },
        {
          "t": 167172,
          "type": "drum_hit",
          "pitch": 42,
          "duration_ms": 93,
          "velocity": 90,
          "beat_index": 1616,
          "section": "drop"
        },
        {
          "t": 167379,
          "type": "drum_hit",
          "pitch": 42,
          "duration_ms": 93,
          "velocity": 90,
          "beat_index": 1618,
          "section": "drop"
        },
        {
          "t": 167586,
          "type": "drum_hit",
          "pitch": 36,
          "duration_ms": 93,
          "velocity": 127,
          "beat_index": 1620,
          "section": "drop"
        },
        {
          "t": 167586,
          "type": "drum_hit",
          "pitch": 38,
          "duration_ms": 93,
          "velocity": 110,
          "beat_index": 1620,
          "section": "drop"
        },
        {
          "t": 167586,
          "type": "drum_hit",
          "pitch": 42,
          "duration_ms": 93,
          "velocity": 90,
          "beat_index": 1620,
          "section": "drop"
        },
        {
          "t": 167793,
          "type": "drum_hit",
          "pitch": 42,
          "duration_ms": 93,
          "velocity": 90,
          "beat_index": 1622,
          "section": "drop"
        },
        {
          "t": 167999,
          "type": "drum_hit",
          "pitch": 36,
          "duration_ms": 93,
          "velocity": 127,
          "beat_index": 1624,
          "section": "drop"
        },
        {
          "t": 167999,
          "type": "drum_hit",
          "pitch": 42,
          "duration_ms": 93,
          "velocity": 90,
          "beat_index": 1624,
          "section": "drop"
        },
        {
          "t": 168206,
          "type": "drum_hit",
          "pitch": 42,
          "duration_ms": 93,
          "velocity": 90,
          "beat_index": 1626,
          "section": "drop"
        },
        {
          "t": 168413,
          "type": "drum_hit",
          "pitch": 36,
          "duration_ms": 93,
          "velocity": 127,
          "beat_index": 1628,
          "section": "drop"
        },
        {
          "t": 168413,
          "type": "drum_hit",
          "pitch": 38,
          "duration_ms": 93,
          "velocity": 110,
          "beat_index": 1628,
          "section": "drop"
        },
        {
          "t": 168413,
          "type": "drum_hit",
          "pitch": 42,
          "duration_ms": 93,
          "velocity": 90,
          "beat_index": 1628,
          "section": "drop"
        },
        {
          "t": 168620,
          "type": "drum_hit",
          "pitch": 42,
          "duration_ms": 93,
          "velocity": 90,
          "beat_index": 1630,
          "section": "drop"
        },
        {
          "t": 168827,
          "type": "drum_hit",
          "pitch": 36,
          "duration_ms": 93,
          "velocity": 127,
          "beat_index": 1632,
          "section": "drop"
        },
        {
          "t": 168827,
          "type": "drum_hit",
          "pitch": 42,
          "duration_ms": 93,
          "velocity": 90,
          "beat_index": 1632,
          "section": "drop"
        },
        {
          "t": 169034,
          "type": "drum_hit",
          "pitch": 42,
          "duration_ms": 93,
          "velocity": 90,
          "beat_index": 1634,
          "section": "drop"
        },
        {
          "t": 169241,
          "type": "drum_hit",
          "pitch": 36,
          "duration_ms": 93,
          "velocity": 127,
          "beat_index": 1636,
          "section": "drop"
        },
        {
          "t": 169241,
          "type": "drum_hit",
          "pitch": 38,
          "duration_ms": 93,
          "velocity": 110,
          "beat_index": 1636,
          "section": "drop"
        },
        {
          "t": 169241,
          "type": "drum_hit",
          "pitch": 42,
          "duration_ms": 93,
          "velocity": 90,
          "beat_index": 1636,
          "section": "drop"
        },
        {
          "t": 169448,
          "type": "drum_hit",
          "pitch": 42,
          "duration_ms": 93,
          "velocity": 90,
          "beat_index": 1638,
          "section": "drop"
        },
        {
          "t": 169655,
          "type": "drum_hit",
          "pitch": 36,
          "duration_ms": 93,
          "velocity": 127,
          "beat_index": 1640,
          "section": "drop"
        },
        {
          "t": 169655,
          "type": "drum_hit",
          "pitch": 42,
          "duration_ms": 93,
          "velocity": 90,
          "beat_index": 1640,
          "section": "drop"
        },
        {
          "t": 169862,
          "type": "drum_hit",
          "pitch": 42,
          "duration_ms": 93,
          "velocity": 90,
          "beat_index": 1642,
          "section": "drop"
        },
        {
          "t": 170068,
          "type": "drum_hit",
          "pitch": 36,
          "duration_ms": 93,
          "velocity": 127,
          "beat_index": 1644,
          "section": "drop"
        },
        {
          "t": 170068,
          "type": "drum_hit",
          "pitch": 38,
          "duration_ms": 93,
          "velocity": 110,
          "beat_index": 1644,
          "section": "drop"
        },
        {
          "t": 170068,
          "type": "drum_hit",
          "pitch": 42,
          "duration_ms": 93,
          "velocity": 90,
          "beat_index": 1644,
          "section": "drop"
        },
        {
          "t": 170275,
          "type": "drum_hit",
          "pitch": 42,
          "duration_ms": 93,
          "velocity": 90,
          "beat_index": 1646,
          "section": "drop"
        },
        {
          "t": 170482,
          "type": "drum_hit",
          "pitch": 36,
          "duration_ms": 93,
          "velocity": 127,
          "beat_index": 1648,
          "section": "drop"
        },
        {
          "t": 170482,
          "type": "drum_hit",
          "pitch": 42,
          "duration_ms": 93,
          "velocity": 90,
          "beat_index": 1648,
          "section": "drop"
        },
        {
          "t": 170689,
          "type": "drum_hit",
          "pitch": 42,
          "duration_ms": 93,
          "velocity": 90,
          "beat_index": 1650,
          "section": "drop"
        },
        {
          "t": 170896,
          "type": "drum_hit",
          "pitch": 36,
          "duration_ms": 93,
          "velocity": 127,
          "beat_index": 1652,
          "section": "drop"
        },
        {
          "t": 170896,
          "type": "drum_hit",
          "pitch": 38,
          "duration_ms": 93,
          "velocity": 110,
          "beat_index": 1652,
          "section": "drop"
        },
        {
          "t": 170896,
          "type": "drum_hit",
          "pitch": 42,
          "duration_ms": 93,
          "velocity": 90,
          "beat_index": 1652,
          "section": "drop"
        },
        {
          "t": 171103,
          "type": "drum_hit",
          "pitch": 42,
          "duration_ms": 93,
          "velocity": 90,
          "beat_index": 1654,
          "section": "drop"
        },
        {
          "t": 171310,
          "type": "drum_hit",
          "pitch": 36,
          "duration_ms": 93,
          "velocity": 127,
          "beat_index": 1656,
          "section": "drop"
        },
        {
          "t": 171310,
          "type": "drum_hit",
          "pitch": 42,
          "duration_ms": 93,
          "velocity": 90,
          "beat_index": 1656,
          "section": "drop"
        },
        {
          "t": 171517,
          "type": "drum_hit",
          "pitch": 42,
          "duration_ms": 93,
          "velocity": 90,
          "beat_index": 1658,
          "section": "drop"
        },
        {
          "t": 171724,
          "type": "drum_hit",
          "pitch": 36,
          "duration_ms": 93,
          "velocity": 127,
          "beat_index": 1660,
          "section": "drop"
        },
        {
          "t": 171724,
          "type": "drum_hit",
          "pitch": 38,
          "duration_ms": 93,
          "velocity": 110,
          "beat_index": 1660,
          "section": "drop"
        },
        {
          "t": 171724,
          "type": "drum_hit",
          "pitch": 42,
          "duration_ms": 93,
          "velocity": 90,
          "beat_index": 1660,
          "section": "drop"
        },
        {
          "t": 171931,
          "type": "drum_hit",
          "pitch": 42,
          "duration_ms": 93,
          "velocity": 90,
          "beat_index": 1662,
          "section": "drop"
        },
        {
          "t": 172137,
          "type": "drum_hit",
          "pitch": 36,
          "duration_ms": 93,
          "velocity": 70,
          "beat_index": 1664,
          "section": "outro"
        },
        {
          "t": 172137,
          "type": "drum_hit",
          "pitch": 42,
          "duration_ms": 93,
          "velocity": 50,
          "beat_index": 1664,
          "section": "outro"
        },
        {
          "t": 172344,
          "type": "drum_hit",
          "pitch": 42,
          "duration_ms": 93,
          "velocity": 50,
          "beat_index": 1666,
          "section": "outro"
        },
        {
          "t": 172551,
          "type": "drum_hit",
          "pitch": 36,
          "duration_ms": 93,
          "velocity": 70,
          "beat_index": 1668,
          "section": "outro"
        },
        {
          "t": 172551,
          "type": "drum_hit",
          "pitch": 38,
          "duration_ms": 93,
          "velocity": 60,
          "beat_index": 1668,
          "section": "outro"
        },
        {
          "t": 172551,
          "type": "drum_hit",
          "pitch": 42,
          "duration_ms": 93,
          "velocity": 50,
          "beat_index": 1668,
          "section": "outro"
        },
        {
          "t": 172758,
          "type": "drum_hit",
          "pitch": 42,
          "duration_ms": 93,
          "velocity": 50,
          "beat_index": 1670,
          "section": "outro"
        },
        {
          "t": 172965,
          "type": "drum_hit",
          "pitch": 36,
          "duration_ms": 93,
          "velocity": 70,
          "beat_index": 1672,
          "section": "outro"
        },
        {
          "t": 172965,
          "type": "drum_hit",
          "pitch": 42,
          "duration_ms": 93,
          "velocity": 50,
          "beat_index": 1672,
          "section": "outro"
        },
        {
          "t": 173172,
          "type": "drum_hit",
          "pitch": 42,
          "duration_ms": 93,
          "velocity": 50,
          "beat_index": 1674,
          "section": "outro"
        },
        {
          "t": 173379,
          "type": "drum_hit",
          "pitch": 36,
          "duration_ms": 93,
          "velocity": 70,
          "beat_index": 1676,
          "section": "outro"
        },
        {
          "t": 173379,
          "type": "drum_hit",
          "pitch": 38,
          "duration_ms": 93,
          "velocity": 60,
          "beat_index": 1676,
          "section": "outro"
        },
        {
          "t": 173379,
          "type": "drum_hit",
          "pitch": 42,
          "duration_ms": 93,
          "velocity": 50,
          "beat_index": 1676,
          "section": "outro"
        },
        {
          "t": 173586,
          "type": "drum_hit",
          "pitch": 42,
          "duration_ms": 93,
          "velocity": 50,
          "beat_index": 1678,
          "section": "outro"
        },
        {
          "t": 173793,
          "type": "drum_hit",
          "pitch": 36,
          "duration_ms": 93,
          "velocity": 70,
          "beat_index": 1680,
          "section": "outro"
        },
        {
          "t": 173793,
          "type": "drum_hit",
          "pitch": 42,
          "duration_ms": 93,
          "velocity": 50,
          "beat_index": 1680,
          "section": "outro"
        },
        {
          "t": 173999,
          "type": "drum_hit",
          "pitch": 42,
          "duration_ms": 93,
          "velocity": 50,
          "beat_index": 1682,
          "section": "outro"
        },
        {
          "t": 174206,
          "type": "drum_hit",
          "pitch": 36,
          "duration_ms": 93,
          "velocity": 70,
          "beat_index": 1684,
          "section": "outro"
        },
        {
          "t": 174206,
          "type": "drum_hit",
          "pitch": 38,
          "duration_ms": 93,
          "velocity": 60,
          "beat_index": 1684,
          "section": "outro"
        },
        {
          "t": 174206,
          "type": "drum_hit",
          "pitch": 42,
          "duration_ms": 93,
          "velocity": 50,
          "beat_index": 1684,
          "section": "outro"
        },
        {
          "t": 174413,
          "type": "drum_hit",
          "pitch": 42,
          "duration_ms": 93,
          "velocity": 50,
          "beat_index": 1686,
          "section": "outro"
        },
        {
          "t": 174620,
          "type": "drum_hit",
          "pitch": 36,
          "duration_ms": 93,
          "velocity": 70,
          "beat_index": 1688,
          "section": "outro"
        },
        {
          "t": 174620,
          "type": "drum_hit",
          "pitch": 42,
          "duration_ms": 93,
          "velocity": 50,
          "beat_index": 1688,
          "section": "outro"
        },
        {
          "t": 174827,
          "type": "drum_hit",
          "pitch": 42,
          "duration_ms": 93,
          "velocity": 50,
          "beat_index": 1690,
          "section": "outro"
        },
        {
          "t": 175034,
          "type": "drum_hit",
          "pitch": 36,
          "duration_ms": 93,
          "velocity": 70,
          "beat_index": 1692,
          "section": "outro"
        },
        {
          "t": 175034,
          "type": "drum_hit",
          "pitch": 38,
          "duration_ms": 93,
          "velocity": 60,
          "beat_index": 1692,
          "section": "outro"
        },
        {
          "t": 175034,
          "type": "drum_hit",
          "pitch": 42,
          "duration_ms": 93,
          "velocity": 50,
          "beat_index": 1692,
          "section": "outro"
        },
        {
          "t": 175241,
          "type": "drum_hit",
          "pitch": 42,
          "duration_ms": 93,
          "velocity": 50,
          "beat_index": 1694,
          "section": "outro"
        },
        {
          "t": 175448,
          "type": "drum_hit",
          "pitch": 36,
          "duration_ms": 93,
          "velocity": 70,
          "beat_index": 1696,
          "section": "outro"
        },
        {
          "t": 175448,
          "type": "drum_hit",
          "pitch": 42,
          "duration_ms": 93,
          "velocity": 50,
          "beat_index": 1696,
          "section": "outro"
        },
        {
          "t": 175655,
          "type": "drum_hit",
          "pitch": 42,
          "duration_ms": 93,
          "velocity": 50,
          "beat_index": 1698,
          "section": "outro"
        },
        {
          "t": 175862,
          "type": "drum_hit",
          "pitch": 36,
          "duration_ms": 93,
          "velocity": 70,
          "beat_index": 1700,
          "section": "outro"
        },
        {
          "t": 175862,
          "type": "drum_hit",
          "pitch": 38,
          "duration_ms": 93,
          "velocity": 60,
          "beat_index": 1700,
          "section": "outro"
        },
        {
          "t": 175862,
          "type": "drum_hit",
          "pitch": 42,
          "duration_ms": 93,
          "velocity": 50,
          "beat_index": 1700,
          "section": "outro"
        },
        {
          "t": 176068,
          "type": "drum_hit",
          "pitch": 42,
          "duration_ms": 93,
          "velocity": 50,
          "beat_index": 1702,
          "section": "outro"
        },
        {
          "t": 176275,
          "type": "drum_hit",
          "pitch": 36,
          "duration_ms": 93,
          "velocity": 70,
          "beat_index": 1704,
          "section": "outro"
        },
        {
          "t": 176275,
          "type": "drum_hit",
          "pitch": 42,
          "duration_ms": 93,
          "velocity": 50,
          "beat_index": 1704,
          "section": "outro"
        },
        {
          "t": 176482,
          "type": "drum_hit",
          "pitch": 42,
          "duration_ms": 93,
          "velocity": 50,
          "beat_index": 1706,
          "section": "outro"
        },
        {
          "t": 176689,
          "type": "drum_hit",
          "pitch": 36,
          "duration_ms": 93,
          "velocity": 70,
          "beat_index": 1708,
          "section": "outro"
        },
        {
          "t": 176689,
          "type": "drum_hit",
          "pitch": 38,
          "duration_ms": 93,
          "velocity": 60,
          "beat_index": 1708,
          "section": "outro"
        },
        {
          "t": 176689,
          "type": "drum_hit",
          "pitch": 42,
          "duration_ms": 93,
          "velocity": 50,
          "beat_index": 1708,
          "section": "outro"
        },
        {
          "t": 176896,
          "type": "drum_hit",
          "pitch": 42,
          "duration_ms": 93,
          "velocity": 50,
          "beat_index": 1710,
          "section": "outro"
        },
        {
          "t": 177103,
          "type": "drum_hit",
          "pitch": 36,
          "duration_ms": 93,
          "velocity": 70,
          "beat_index": 1712,
          "section": "outro"
        },
        {
          "t": 177103,
          "type": "drum_hit",
          "pitch": 42,
          "duration_ms": 93,
          "velocity": 50,
          "beat_index": 1712,
          "section": "outro"
        },
        {
          "t": 177310,
          "type": "drum_hit",
          "pitch": 42,
          "duration_ms": 93,
          "velocity": 50,
          "beat_index": 1714,
          "section": "outro"
        },
        {
          "t": 177517,
          "type": "drum_hit",
          "pitch": 36,
          "duration_ms": 93,
          "velocity": 70,
          "beat_index": 1716,
          "section": "outro"
        },
        {
          "t": 177517,
          "type": "drum_hit",
          "pitch": 38,
          "duration_ms": 93,
          "velocity": 60,
          "beat_index": 1716,
          "section": "outro"
        },
        {
          "t": 177517,
          "type": "drum_hit",
          "pitch": 42,
          "duration_ms": 93,
          "velocity": 50,
          "beat_index": 1716,
          "section": "outro"
        },
        {
          "t": 177724,
          "type": "drum_hit",
          "pitch": 42,
          "duration_ms": 93,
          "velocity": 50,
          "beat_index": 1718,
          "section": "outro"
        },
        {
          "t": 177931,
          "type": "drum_hit",
          "pitch": 36,
          "duration_ms": 93,
          "velocity": 70,
          "beat_index": 1720,
          "section": "outro"
        },
        {
          "t": 177931,
          "type": "drum_hit",
          "pitch": 42,
          "duration_ms": 93,
          "velocity": 50,
          "beat_index": 1720,
          "section": "outro"
        },
        {
          "t": 178137,
          "type": "drum_hit",
          "pitch": 42,
          "duration_ms": 93,
          "velocity": 50,
          "beat_index": 1722,
          "section": "outro"
        },
        {
          "t": 178344,
          "type": "drum_hit",
          "pitch": 36,
          "duration_ms": 93,
          "velocity": 70,
          "beat_index": 1724,
          "section": "outro"
        },
        {
          "t": 178344,
          "type": "drum_hit",
          "pitch": 38,
          "duration_ms": 93,
          "velocity": 60,
          "beat_index": 1724,
          "section": "outro"
        },
        {
          "t": 178344,
          "type": "drum_hit",
          "pitch": 42,
          "duration_ms": 93,
          "velocity": 50,
          "beat_index": 1724,
          "section": "outro"
        },
        {
          "t": 178551,
          "type": "drum_hit",
          "pitch": 42,
          "duration_ms": 93,
          "velocity": 50,
          "beat_index": 1726,
          "section": "outro"
        },
        {
          "t": 178758,
          "type": "drum_hit",
          "pitch": 36,
          "duration_ms": 93,
          "velocity": 70,
          "beat_index": 1728,
          "section": "outro"
        },
        {
          "t": 178758,
          "type": "drum_hit",
          "pitch": 42,
          "duration_ms": 93,
          "velocity": 50,
          "beat_index": 1728,
          "section": "outro"
        },
        {
          "t": 178965,
          "type": "drum_hit",
          "pitch": 42,
          "duration_ms": 93,
          "velocity": 50,
          "beat_index": 1730,
          "section": "outro"
        },
        {
          "t": 179172,
          "type": "drum_hit",
          "pitch": 36,
          "duration_ms": 93,
          "velocity": 70,
          "beat_index": 1732,
          "section": "outro"
        },
        {
          "t": 179172,
          "type": "drum_hit",
          "pitch": 38,
          "duration_ms": 93,
          "velocity": 60,
          "beat_index": 1732,
          "section": "outro"
        },
        {
          "t": 179172,
          "type": "drum_hit",
          "pitch": 42,
          "duration_ms": 93,
          "velocity": 50,
          "beat_index": 1732,
          "section": "outro"
        },
        {
          "t": 179379,
          "type": "drum_hit",
          "pitch": 42,
          "duration_ms": 93,
          "velocity": 50,
          "beat_index": 1734,
          "section": "outro"
        },
        {
          "t": 179586,
          "type": "drum_hit",
          "pitch": 36,
          "duration_ms": 93,
          "velocity": 70,
          "beat_index": 1736,
          "section": "outro"
        },
        {
          "t": 179586,
          "type": "drum_hit",
          "pitch": 42,
          "duration_ms": 93,
          "velocity": 50,
          "beat_index": 1736,
          "section": "outro"
        },
        {
          "t": 179793,
          "type": "drum_hit",
          "pitch": 42,
          "duration_ms": 93,
          "velocity": 50,
          "beat_index": 1738,
          "section": "outro"
        },
        {
          "t": 179999,
          "type": "drum_hit",
          "pitch": 36,
          "duration_ms": 93,
          "velocity": 70,
          "beat_index": 1740,
          "section": "outro"
        },
        {
          "t": 179999,
          "type": "drum_hit",
          "pitch": 38,
          "duration_ms": 93,
          "velocity": 60,
          "beat_index": 1740,
          "section": "outro"
        },
        {
          "t": 179999,
          "type": "drum_hit",
          "pitch": 42,
          "duration_ms": 93,
          "velocity": 50,
          "beat_index": 1740,
          "section": "outro"
        },
        {
          "t": 180206,
          "type": "drum_hit",
          "pitch": 42,
          "duration_ms": 93,
          "velocity": 50,
          "beat_index": 1742,
          "section": "outro"
        },
        {
          "t": 180413,
          "type": "drum_hit",
          "pitch": 36,
          "duration_ms": 93,
          "velocity": 70,
          "beat_index": 1744,
          "section": "outro"
        },
        {
          "t": 180413,
          "type": "drum_hit",
          "pitch": 42,
          "duration_ms": 93,
          "velocity": 50,
          "beat_index": 1744,
          "section": "outro"
        },
        {
          "t": 180620,
          "type": "drum_hit",
          "pitch": 42,
          "duration_ms": 93,
          "velocity": 50,
          "beat_index": 1746,
          "section": "outro"
        },
        {
          "t": 180827,
          "type": "drum_hit",
          "pitch": 36,
          "duration_ms": 93,
          "velocity": 70,
          "beat_index": 1748,
          "section": "outro"
        },
        {
          "t": 180827,
          "type": "drum_hit",
          "pitch": 38,
          "duration_ms": 93,
          "velocity": 60,
          "beat_index": 1748,
          "section": "outro"
        },
        {
          "t": 180827,
          "type": "drum_hit",
          "pitch": 42,
          "duration_ms": 93,
          "velocity": 50,
          "beat_index": 1748,
          "section": "outro"
        },
        {
          "t": 181034,
          "type": "drum_hit",
          "pitch": 42,
          "duration_ms": 93,
          "velocity": 50,
          "beat_index": 1750,
          "section": "outro"
        },
        {
          "t": 181241,
          "type": "drum_hit",
          "pitch": 36,
          "duration_ms": 93,
          "velocity": 70,
          "beat_index": 1752,
          "section": "outro"
        },
        {
          "t": 181241,
          "type": "drum_hit",
          "pitch": 42,
          "duration_ms": 93,
          "velocity": 50,
          "beat_index": 1752,
          "section": "outro"
        },
        {
          "t": 181448,
          "type": "drum_hit",
          "pitch": 42,
          "duration_ms": 93,
          "velocity": 50,
          "beat_index": 1754,
          "section": "outro"
        },
        {
          "t": 181655,
          "type": "drum_hit",
          "pitch": 36,
          "duration_ms": 93,
          "velocity": 70,
          "beat_index": 1756,
          "section": "outro"
        },
        {
          "t": 181655,
          "type": "drum_hit",
          "pitch": 38,
          "duration_ms": 93,
          "velocity": 60,
          "beat_index": 1756,
          "section": "outro"
        },
        {
          "t": 181655,
          "type": "drum_hit",
          "pitch": 42,
          "duration_ms": 93,
          "velocity": 50,
          "beat_index": 1756,
          "section": "outro"
        },
        {
          "t": 181862,
          "type": "drum_hit",
          "pitch": 42,
          "duration_ms": 93,
          "velocity": 50,
          "beat_index": 1758,
          "section": "outro"
        },
        {
          "t": 182068,
          "type": "drum_hit",
          "pitch": 36,
          "duration_ms": 93,
          "velocity": 70,
          "beat_index": 1760,
          "section": "outro"
        },
        {
          "t": 182068,
          "type": "drum_hit",
          "pitch": 42,
          "duration_ms": 93,
          "velocity": 50,
          "beat_index": 1760,
          "section": "outro"
        },
        {
          "t": 182275,
          "type": "drum_hit",
          "pitch": 42,
          "duration_ms": 93,
          "velocity": 50,
          "beat_index": 1762,
          "section": "outro"
        },
        {
          "t": 182482,
          "type": "drum_hit",
          "pitch": 36,
          "duration_ms": 93,
          "velocity": 70,
          "beat_index": 1764,
          "section": "outro"
        },
        {
          "t": 182482,
          "type": "drum_hit",
          "pitch": 38,
          "duration_ms": 93,
          "velocity": 60,
          "beat_index": 1764,
          "section": "outro"
        },
        {
          "t": 182482,
          "type": "drum_hit",
          "pitch": 42,
          "duration_ms": 93,
          "velocity": 50,
          "beat_index": 1764,
          "section": "outro"
        },
        {
          "t": 182689,
          "type": "drum_hit",
          "pitch": 42,
          "duration_ms": 93,
          "velocity": 50,
          "beat_index": 1766,
          "section": "outro"
        },
        {
          "t": 182896,
          "type": "drum_hit",
          "pitch": 36,
          "duration_ms": 93,
          "velocity": 70,
          "beat_index": 1768,
          "section": "outro"
        },
        {
          "t": 182896,
          "type": "drum_hit",
          "pitch": 42,
          "duration_ms": 93,
          "velocity": 50,
          "beat_index": 1768,
          "section": "outro"
        },
        {
          "t": 183103,
          "type": "drum_hit",
          "pitch": 42,
          "duration_ms": 93,
          "velocity": 50,
          "beat_index": 1770,
          "section": "outro"
        },
        {
          "t": 183310,
          "type": "drum_hit",
          "pitch": 36,
          "duration_ms": 93,
          "velocity": 70,
          "beat_index": 1772,
          "section": "outro"
        },
        {
          "t": 183310,
          "type": "drum_hit",
          "pitch": 38,
          "duration_ms": 93,
          "velocity": 60,
          "beat_index": 1772,
          "section": "outro"
        },
        {
          "t": 183310,
          "type": "drum_hit",
          "pitch": 42,
          "duration_ms": 93,
          "velocity": 50,
          "beat_index": 1772,
          "section": "outro"
        },
        {
          "t": 183517,
          "type": "drum_hit",
          "pitch": 42,
          "duration_ms": 93,
          "velocity": 50,
          "beat_index": 1774,
          "section": "outro"
        },
        {
          "t": 183724,
          "type": "drum_hit",
          "pitch": 36,
          "duration_ms": 93,
          "velocity": 70,
          "beat_index": 1776,
          "section": "outro"
        },
        {
          "t": 183724,
          "type": "drum_hit",
          "pitch": 42,
          "duration_ms": 93,
          "velocity": 50,
          "beat_index": 1776,
          "section": "outro"
        },
        {
          "t": 183931,
          "type": "drum_hit",
          "pitch": 42,
          "duration_ms": 93,
          "velocity": 50,
          "beat_index": 1778,
          "section": "outro"
        },
        {
          "t": 184137,
          "type": "drum_hit",
          "pitch": 36,
          "duration_ms": 93,
          "velocity": 70,
          "beat_index": 1780,
          "section": "outro"
        },
        {
          "t": 184137,
          "type": "drum_hit",
          "pitch": 38,
          "duration_ms": 93,
          "velocity": 60,
          "beat_index": 1780,
          "section": "outro"
        },
        {
          "t": 184137,
          "type": "drum_hit",
          "pitch": 42,
          "duration_ms": 93,
          "velocity": 50,
          "beat_index": 1780,
          "section": "outro"
        },
        {
          "t": 184344,
          "type": "drum_hit",
          "pitch": 42,
          "duration_ms": 93,
          "velocity": 50,
          "beat_index": 1782,
          "section": "outro"
        },
        {
          "t": 184551,
          "type": "drum_hit",
          "pitch": 36,
          "duration_ms": 93,
          "velocity": 70,
          "beat_index": 1784,
          "section": "outro"
        },
        {
          "t": 184551,
          "type": "drum_hit",
          "pitch": 42,
          "duration_ms": 93,
          "velocity": 50,
          "beat_index": 1784,
          "section": "outro"
        },
        {
          "t": 184758,
          "type": "drum_hit",
          "pitch": 42,
          "duration_ms": 93,
          "velocity": 50,
          "beat_index": 1786,
          "section": "outro"
        },
        {
          "t": 184965,
          "type": "drum_hit",
          "pitch": 36,
          "duration_ms": 93,
          "velocity": 70,
          "beat_index": 1788,
          "section": "outro"
        },
        {
          "t": 184965,
          "type": "drum_hit",
          "pitch": 38,
          "duration_ms": 93,
          "velocity": 60,
          "beat_index": 1788,
          "section": "outro"
        },
        {
          "t": 184965,
          "type": "drum_hit",
          "pitch": 42,
          "duration_ms": 93,
          "velocity": 50,
          "beat_index": 1788,
          "section": "outro"
        },
        {
          "t": 185172,
          "type": "drum_hit",
          "pitch": 42,
          "duration_ms": 93,
          "velocity": 50,
          "beat_index": 1790,
          "section": "outro"
        }
      ]
    },
    {
      "id": "bass",
      "instrument": "Bass Synth",
      "midi_channel": 1,
      "role": "bass",
      "event_count": 768,
      "events": [
        {
          "t": 0,
          "type": "note",
          "pitch": 42,
          "duration_ms": 186,
          "velocity": 90,
          "beat_index": 0,
          "section": "intro"
        },
        {
          "t": 206,
          "type": "note",
          "pitch": 45,
          "duration_ms": 186,
          "velocity": 70,
          "beat_index": 2,
          "section": "intro"
        },
        {
          "t": 413,
          "type": "note",
          "pitch": 47,
          "duration_ms": 186,
          "velocity": 90,
          "beat_index": 4,
          "section": "intro"
        },
        {
          "t": 620,
          "type": "note",
          "pitch": 49,
          "duration_ms": 186,
          "velocity": 70,
          "beat_index": 6,
          "section": "intro"
        },
        {
          "t": 827,
          "type": "note",
          "pitch": 42,
          "duration_ms": 186,
          "velocity": 90,
          "beat_index": 8,
          "section": "intro"
        },
        {
          "t": 1034,
          "type": "note",
          "pitch": 45,
          "duration_ms": 186,
          "velocity": 70,
          "beat_index": 10,
          "section": "intro"
        },
        {
          "t": 1241,
          "type": "note",
          "pitch": 49,
          "duration_ms": 186,
          "velocity": 90,
          "beat_index": 12,
          "section": "intro"
        },
        {
          "t": 1448,
          "type": "note",
          "pitch": 47,
          "duration_ms": 186,
          "velocity": 70,
          "beat_index": 14,
          "section": "intro"
        },
        {
          "t": 1655,
          "type": "note",
          "pitch": 42,
          "duration_ms": 186,
          "velocity": 90,
          "beat_index": 16,
          "section": "intro"
        },
        {
          "t": 1862,
          "type": "note",
          "pitch": 45,
          "duration_ms": 186,
          "velocity": 70,
          "beat_index": 18,
          "section": "intro"
        },
        {
          "t": 2068,
          "type": "note",
          "pitch": 47,
          "duration_ms": 186,
          "velocity": 90,
          "beat_index": 20,
          "section": "intro"
        },
        {
          "t": 2275,
          "type": "note",
          "pitch": 49,
          "duration_ms": 186,
          "velocity": 70,
          "beat_index": 22,
          "section": "intro"
        },
        {
          "t": 2482,
          "type": "note",
          "pitch": 42,
          "duration_ms": 186,
          "velocity": 90,
          "beat_index": 24,
          "section": "intro"
        },
        {
          "t": 2689,
          "type": "note",
          "pitch": 45,
          "duration_ms": 186,
          "velocity": 70,
          "beat_index": 26,
          "section": "intro"
        },
        {
          "t": 2896,
          "type": "note",
          "pitch": 49,
          "duration_ms": 186,
          "velocity": 90,
          "beat_index": 28,
          "section": "intro"
        },
        {
          "t": 3103,
          "type": "note",
          "pitch": 47,
          "duration_ms": 186,
          "velocity": 70,
          "beat_index": 30,
          "section": "intro"
        },
        {
          "t": 3310,
          "type": "note",
          "pitch": 42,
          "duration_ms": 186,
          "velocity": 90,
          "beat_index": 32,
          "section": "intro"
        },
        {
          "t": 3517,
          "type": "note",
          "pitch": 45,
          "duration_ms": 186,
          "velocity": 70,
          "beat_index": 34,
          "section": "intro"
        },
        {
          "t": 3724,
          "type": "note",
          "pitch": 47,
          "duration_ms": 186,
          "velocity": 90,
          "beat_index": 36,
          "section": "intro"
        },
        {
          "t": 3931,
          "type": "note",
          "pitch": 49,
          "duration_ms": 186,
          "velocity": 70,
          "beat_index": 38,
          "section": "intro"
        },
        {
          "t": 4137,
          "type": "note",
          "pitch": 42,
          "duration_ms": 186,
          "velocity": 90,
          "beat_index": 40,
          "section": "intro"
        },
        {
          "t": 4344,
          "type": "note",
          "pitch": 45,
          "duration_ms": 186,
          "velocity": 70,
          "beat_index": 42,
          "section": "intro"
        },
        {
          "t": 4551,
          "type": "note",
          "pitch": 49,
          "duration_ms": 186,
          "velocity": 90,
          "beat_index": 44,
          "section": "intro"
        },
        {
          "t": 4758,
          "type": "note",
          "pitch": 47,
          "duration_ms": 186,
          "velocity": 70,
          "beat_index": 46,
          "section": "intro"
        },
        {
          "t": 4965,
          "type": "note",
          "pitch": 42,
          "duration_ms": 186,
          "velocity": 90,
          "beat_index": 48,
          "section": "intro"
        },
        {
          "t": 5172,
          "type": "note",
          "pitch": 45,
          "duration_ms": 186,
          "velocity": 70,
          "beat_index": 50,
          "section": "intro"
        },
        {
          "t": 5379,
          "type": "note",
          "pitch": 47,
          "duration_ms": 186,
          "velocity": 90,
          "beat_index": 52,
          "section": "intro"
        },
        {
          "t": 5586,
          "type": "note",
          "pitch": 49,
          "duration_ms": 186,
          "velocity": 70,
          "beat_index": 54,
          "section": "intro"
        },
        {
          "t": 5793,
          "type": "note",
          "pitch": 42,
          "duration_ms": 186,
          "velocity": 90,
          "beat_index": 56,
          "section": "intro"
        },
        {
          "t": 6000,
          "type": "note",
          "pitch": 45,
          "duration_ms": 186,
          "velocity": 70,
          "beat_index": 58,
          "section": "intro"
        },
        {
          "t": 6206,
          "type": "note",
          "pitch": 49,
          "duration_ms": 186,
          "velocity": 90,
          "beat_index": 60,
          "section": "intro"
        },
        {
          "t": 6413,
          "type": "note",
          "pitch": 47,
          "duration_ms": 186,
          "velocity": 70,
          "beat_index": 62,
          "section": "intro"
        },
        {
          "t": 6620,
          "type": "note",
          "pitch": 42,
          "duration_ms": 186,
          "velocity": 90,
          "beat_index": 64,
          "section": "intro"
        },
        {
          "t": 6827,
          "type": "note",
          "pitch": 45,
          "duration_ms": 186,
          "velocity": 70,
          "beat_index": 66,
          "section": "intro"
        },
        {
          "t": 7034,
          "type": "note",
          "pitch": 47,
          "duration_ms": 186,
          "velocity": 90,
          "beat_index": 68,
          "section": "intro"
        },
        {
          "t": 7241,
          "type": "note",
          "pitch": 49,
          "duration_ms": 186,
          "velocity": 70,
          "beat_index": 70,
          "section": "intro"
        },
        {
          "t": 7448,
          "type": "note",
          "pitch": 42,
          "duration_ms": 186,
          "velocity": 90,
          "beat_index": 72,
          "section": "intro"
        },
        {
          "t": 7655,
          "type": "note",
          "pitch": 45,
          "duration_ms": 186,
          "velocity": 70,
          "beat_index": 74,
          "section": "intro"
        },
        {
          "t": 7862,
          "type": "note",
          "pitch": 49,
          "duration_ms": 186,
          "velocity": 90,
          "beat_index": 76,
          "section": "intro"
        },
        {
          "t": 8068,
          "type": "note",
          "pitch": 47,
          "duration_ms": 186,
          "velocity": 70,
          "beat_index": 78,
          "section": "intro"
        },
        {
          "t": 8275,
          "type": "note",
          "pitch": 42,
          "duration_ms": 186,
          "velocity": 90,
          "beat_index": 80,
          "section": "intro"
        },
        {
          "t": 8482,
          "type": "note",
          "pitch": 45,
          "duration_ms": 186,
          "velocity": 70,
          "beat_index": 82,
          "section": "intro"
        },
        {
          "t": 8689,
          "type": "note",
          "pitch": 47,
          "duration_ms": 186,
          "velocity": 90,
          "beat_index": 84,
          "section": "intro"
        },
        {
          "t": 8896,
          "type": "note",
          "pitch": 49,
          "duration_ms": 186,
          "velocity": 70,
          "beat_index": 86,
          "section": "intro"
        },
        {
          "t": 9103,
          "type": "note",
          "pitch": 42,
          "duration_ms": 186,
          "velocity": 90,
          "beat_index": 88,
          "section": "intro"
        },
        {
          "t": 9310,
          "type": "note",
          "pitch": 45,
          "duration_ms": 186,
          "velocity": 70,
          "beat_index": 90,
          "section": "intro"
        },
        {
          "t": 9517,
          "type": "note",
          "pitch": 49,
          "duration_ms": 186,
          "velocity": 90,
          "beat_index": 92,
          "section": "intro"
        },
        {
          "t": 9724,
          "type": "note",
          "pitch": 47,
          "duration_ms": 186,
          "velocity": 70,
          "beat_index": 94,
          "section": "intro"
        },
        {
          "t": 9931,
          "type": "note",
          "pitch": 42,
          "duration_ms": 186,
          "velocity": 90,
          "beat_index": 96,
          "section": "intro"
        },
        {
          "t": 10137,
          "type": "note",
          "pitch": 45,
          "duration_ms": 186,
          "velocity": 70,
          "beat_index": 98,
          "section": "intro"
        },
        {
          "t": 10344,
          "type": "note",
          "pitch": 47,
          "duration_ms": 186,
          "velocity": 90,
          "beat_index": 100,
          "section": "intro"
        },
        {
          "t": 10551,
          "type": "note",
          "pitch": 49,
          "duration_ms": 186,
          "velocity": 70,
          "beat_index": 102,
          "section": "intro"
        },
        {
          "t": 10758,
          "type": "note",
          "pitch": 42,
          "duration_ms": 186,
          "velocity": 90,
          "beat_index": 104,
          "section": "intro"
        },
        {
          "t": 10965,
          "type": "note",
          "pitch": 45,
          "duration_ms": 186,
          "velocity": 70,
          "beat_index": 106,
          "section": "intro"
        },
        {
          "t": 11172,
          "type": "note",
          "pitch": 49,
          "duration_ms": 186,
          "velocity": 90,
          "beat_index": 108,
          "section": "intro"
        },
        {
          "t": 11379,
          "type": "note",
          "pitch": 47,
          "duration_ms": 186,
          "velocity": 70,
          "beat_index": 110,
          "section": "intro"
        },
        {
          "t": 11586,
          "type": "note",
          "pitch": 42,
          "duration_ms": 186,
          "velocity": 90,
          "beat_index": 112,
          "section": "intro"
        },
        {
          "t": 11793,
          "type": "note",
          "pitch": 45,
          "duration_ms": 186,
          "velocity": 70,
          "beat_index": 114,
          "section": "intro"
        },
        {
          "t": 12000,
          "type": "note",
          "pitch": 47,
          "duration_ms": 186,
          "velocity": 90,
          "beat_index": 116,
          "section": "intro"
        },
        {
          "t": 12206,
          "type": "note",
          "pitch": 49,
          "duration_ms": 186,
          "velocity": 70,
          "beat_index": 118,
          "section": "intro"
        },
        {
          "t": 12413,
          "type": "note",
          "pitch": 42,
          "duration_ms": 186,
          "velocity": 90,
          "beat_index": 120,
          "section": "intro"
        },
        {
          "t": 12620,
          "type": "note",
          "pitch": 45,
          "duration_ms": 186,
          "velocity": 70,
          "beat_index": 122,
          "section": "intro"
        },
        {
          "t": 12827,
          "type": "note",
          "pitch": 49,
          "duration_ms": 186,
          "velocity": 90,
          "beat_index": 124,
          "section": "intro"
        },
        {
          "t": 13034,
          "type": "note",
          "pitch": 47,
          "duration_ms": 186,
          "velocity": 70,
          "beat_index": 126,
          "section": "intro"
        },
        {
          "t": 13241,
          "type": "note",
          "pitch": 42,
          "duration_ms": 186,
          "velocity": 90,
          "beat_index": 128,
          "section": "build-up"
        },
        {
          "t": 13448,
          "type": "note",
          "pitch": 45,
          "duration_ms": 186,
          "velocity": 70,
          "beat_index": 130,
          "section": "build-up"
        },
        {
          "t": 13655,
          "type": "note",
          "pitch": 47,
          "duration_ms": 186,
          "velocity": 90,
          "beat_index": 132,
          "section": "build-up"
        },
        {
          "t": 13862,
          "type": "note",
          "pitch": 49,
          "duration_ms": 186,
          "velocity": 70,
          "beat_index": 134,
          "section": "build-up"
        },
        {
          "t": 14068,
          "type": "note",
          "pitch": 42,
          "duration_ms": 186,
          "velocity": 90,
          "beat_index": 136,
          "section": "build-up"
        },
        {
          "t": 14275,
          "type": "note",
          "pitch": 45,
          "duration_ms": 186,
          "velocity": 70,
          "beat_index": 138,
          "section": "build-up"
        },
        {
          "t": 14482,
          "type": "note",
          "pitch": 49,
          "duration_ms": 186,
          "velocity": 90,
          "beat_index": 140,
          "section": "build-up"
        },
        {
          "t": 14689,
          "type": "note",
          "pitch": 47,
          "duration_ms": 186,
          "velocity": 70,
          "beat_index": 142,
          "section": "build-up"
        },
        {
          "t": 14896,
          "type": "note",
          "pitch": 42,
          "duration_ms": 186,
          "velocity": 90,
          "beat_index": 144,
          "section": "build-up"
        },
        {
          "t": 15103,
          "type": "note",
          "pitch": 45,
          "duration_ms": 186,
          "velocity": 70,
          "beat_index": 146,
          "section": "build-up"
        },
        {
          "t": 15310,
          "type": "note",
          "pitch": 47,
          "duration_ms": 186,
          "velocity": 90,
          "beat_index": 148,
          "section": "build-up"
        },
        {
          "t": 15517,
          "type": "note",
          "pitch": 49,
          "duration_ms": 186,
          "velocity": 70,
          "beat_index": 150,
          "section": "build-up"
        },
        {
          "t": 15724,
          "type": "note",
          "pitch": 42,
          "duration_ms": 186,
          "velocity": 90,
          "beat_index": 152,
          "section": "build-up"
        },
        {
          "t": 15931,
          "type": "note",
          "pitch": 45,
          "duration_ms": 186,
          "velocity": 70,
          "beat_index": 154,
          "section": "build-up"
        },
        {
          "t": 16137,
          "type": "note",
          "pitch": 49,
          "duration_ms": 186,
          "velocity": 90,
          "beat_index": 156,
          "section": "build-up"
        },
        {
          "t": 16344,
          "type": "note",
          "pitch": 47,
          "duration_ms": 186,
          "velocity": 70,
          "beat_index": 158,
          "section": "build-up"
        },
        {
          "t": 16551,
          "type": "note",
          "pitch": 42,
          "duration_ms": 186,
          "velocity": 90,
          "beat_index": 160,
          "section": "build-up"
        },
        {
          "t": 16758,
          "type": "note",
          "pitch": 45,
          "duration_ms": 186,
          "velocity": 70,
          "beat_index": 162,
          "section": "build-up"
        },
        {
          "t": 16965,
          "type": "note",
          "pitch": 47,
          "duration_ms": 186,
          "velocity": 90,
          "beat_index": 164,
          "section": "build-up"
        },
        {
          "t": 17172,
          "type": "note",
          "pitch": 49,
          "duration_ms": 186,
          "velocity": 70,
          "beat_index": 166,
          "section": "build-up"
        },
        {
          "t": 17379,
          "type": "note",
          "pitch": 42,
          "duration_ms": 186,
          "velocity": 90,
          "beat_index": 168,
          "section": "build-up"
        },
        {
          "t": 17586,
          "type": "note",
          "pitch": 45,
          "duration_ms": 186,
          "velocity": 70,
          "beat_index": 170,
          "section": "build-up"
        },
        {
          "t": 17793,
          "type": "note",
          "pitch": 49,
          "duration_ms": 186,
          "velocity": 90,
          "beat_index": 172,
          "section": "build-up"
        },
        {
          "t": 18000,
          "type": "note",
          "pitch": 47,
          "duration_ms": 186,
          "velocity": 70,
          "beat_index": 174,
          "section": "build-up"
        },
        {
          "t": 18206,
          "type": "note",
          "pitch": 42,
          "duration_ms": 186,
          "velocity": 90,
          "beat_index": 176,
          "section": "build-up"
        },
        {
          "t": 18413,
          "type": "note",
          "pitch": 45,
          "duration_ms": 186,
          "velocity": 70,
          "beat_index": 178,
          "section": "build-up"
        },
        {
          "t": 18620,
          "type": "note",
          "pitch": 47,
          "duration_ms": 186,
          "velocity": 90,
          "beat_index": 180,
          "section": "build-up"
        },
        {
          "t": 18827,
          "type": "note",
          "pitch": 49,
          "duration_ms": 186,
          "velocity": 70,
          "beat_index": 182,
          "section": "build-up"
        },
        {
          "t": 19034,
          "type": "note",
          "pitch": 42,
          "duration_ms": 186,
          "velocity": 90,
          "beat_index": 184,
          "section": "build-up"
        },
        {
          "t": 19241,
          "type": "note",
          "pitch": 45,
          "duration_ms": 186,
          "velocity": 70,
          "beat_index": 186,
          "section": "build-up"
        },
        {
          "t": 19448,
          "type": "note",
          "pitch": 49,
          "duration_ms": 186,
          "velocity": 90,
          "beat_index": 188,
          "section": "build-up"
        },
        {
          "t": 19655,
          "type": "note",
          "pitch": 47,
          "duration_ms": 186,
          "velocity": 70,
          "beat_index": 190,
          "section": "build-up"
        },
        {
          "t": 19862,
          "type": "note",
          "pitch": 42,
          "duration_ms": 186,
          "velocity": 90,
          "beat_index": 192,
          "section": "build-up"
        },
        {
          "t": 20068,
          "type": "note",
          "pitch": 45,
          "duration_ms": 186,
          "velocity": 70,
          "beat_index": 194,
          "section": "build-up"
        },
        {
          "t": 20275,
          "type": "note",
          "pitch": 47,
          "duration_ms": 186,
          "velocity": 90,
          "beat_index": 196,
          "section": "build-up"
        },
        {
          "t": 20482,
          "type": "note",
          "pitch": 49,
          "duration_ms": 186,
          "velocity": 70,
          "beat_index": 198,
          "section": "build-up"
        },
        {
          "t": 20689,
          "type": "note",
          "pitch": 42,
          "duration_ms": 186,
          "velocity": 90,
          "beat_index": 200,
          "section": "build-up"
        },
        {
          "t": 20896,
          "type": "note",
          "pitch": 45,
          "duration_ms": 186,
          "velocity": 70,
          "beat_index": 202,
          "section": "build-up"
        },
        {
          "t": 21103,
          "type": "note",
          "pitch": 49,
          "duration_ms": 186,
          "velocity": 90,
          "beat_index": 204,
          "section": "build-up"
        },
        {
          "t": 21310,
          "type": "note",
          "pitch": 47,
          "duration_ms": 186,
          "velocity": 70,
          "beat_index": 206,
          "section": "build-up"
        },
        {
          "t": 21517,
          "type": "note",
          "pitch": 42,
          "duration_ms": 186,
          "velocity": 90,
          "beat_index": 208,
          "section": "build-up"
        },
        {
          "t": 21724,
          "type": "note",
          "pitch": 45,
          "duration_ms": 186,
          "velocity": 70,
          "beat_index": 210,
          "section": "build-up"
        },
        {
          "t": 21931,
          "type": "note",
          "pitch": 47,
          "duration_ms": 186,
          "velocity": 90,
          "beat_index": 212,
          "section": "build-up"
        },
        {
          "t": 22137,
          "type": "note",
          "pitch": 49,
          "duration_ms": 186,
          "velocity": 70,
          "beat_index": 214,
          "section": "build-up"
        },
        {
          "t": 22344,
          "type": "note",
          "pitch": 42,
          "duration_ms": 186,
          "velocity": 90,
          "beat_index": 216,
          "section": "build-up"
        },
        {
          "t": 22551,
          "type": "note",
          "pitch": 45,
          "duration_ms": 186,
          "velocity": 70,
          "beat_index": 218,
          "section": "build-up"
        },
        {
          "t": 22758,
          "type": "note",
          "pitch": 49,
          "duration_ms": 186,
          "velocity": 90,
          "beat_index": 220,
          "section": "build-up"
        },
        {
          "t": 22965,
          "type": "note",
          "pitch": 47,
          "duration_ms": 186,
          "velocity": 70,
          "beat_index": 222,
          "section": "build-up"
        },
        {
          "t": 23172,
          "type": "note",
          "pitch": 42,
          "duration_ms": 186,
          "velocity": 90,
          "beat_index": 224,
          "section": "build-up"
        },
        {
          "t": 23379,
          "type": "note",
          "pitch": 45,
          "duration_ms": 186,
          "velocity": 70,
          "beat_index": 226,
          "section": "build-up"
        },
        {
          "t": 23586,
          "type": "note",
          "pitch": 47,
          "duration_ms": 186,
          "velocity": 90,
          "beat_index": 228,
          "section": "build-up"
        },
        {
          "t": 23793,
          "type": "note",
          "pitch": 49,
          "duration_ms": 186,
          "velocity": 70,
          "beat_index": 230,
          "section": "build-up"
        },
        {
          "t": 24000,
          "type": "note",
          "pitch": 42,
          "duration_ms": 186,
          "velocity": 90,
          "beat_index": 232,
          "section": "build-up"
        },
        {
          "t": 24206,
          "type": "note",
          "pitch": 45,
          "duration_ms": 186,
          "velocity": 70,
          "beat_index": 234,
          "section": "build-up"
        },
        {
          "t": 24413,
          "type": "note",
          "pitch": 49,
          "duration_ms": 186,
          "velocity": 90,
          "beat_index": 236,
          "section": "build-up"
        },
        {
          "t": 24620,
          "type": "note",
          "pitch": 47,
          "duration_ms": 186,
          "velocity": 70,
          "beat_index": 238,
          "section": "build-up"
        },
        {
          "t": 24827,
          "type": "note",
          "pitch": 42,
          "duration_ms": 186,
          "velocity": 90,
          "beat_index": 240,
          "section": "build-up"
        },
        {
          "t": 25034,
          "type": "note",
          "pitch": 45,
          "duration_ms": 186,
          "velocity": 70,
          "beat_index": 242,
          "section": "build-up"
        },
        {
          "t": 25241,
          "type": "note",
          "pitch": 47,
          "duration_ms": 186,
          "velocity": 90,
          "beat_index": 244,
          "section": "build-up"
        },
        {
          "t": 25448,
          "type": "note",
          "pitch": 49,
          "duration_ms": 186,
          "velocity": 70,
          "beat_index": 246,
          "section": "build-up"
        },
        {
          "t": 25655,
          "type": "note",
          "pitch": 42,
          "duration_ms": 186,
          "velocity": 90,
          "beat_index": 248,
          "section": "build-up"
        },
        {
          "t": 25862,
          "type": "note",
          "pitch": 45,
          "duration_ms": 186,
          "velocity": 70,
          "beat_index": 250,
          "section": "build-up"
        },
        {
          "t": 26068,
          "type": "note",
          "pitch": 49,
          "duration_ms": 186,
          "velocity": 90,
          "beat_index": 252,
          "section": "build-up"
        },
        {
          "t": 26275,
          "type": "note",
          "pitch": 47,
          "duration_ms": 186,
          "velocity": 70,
          "beat_index": 254,
          "section": "build-up"
        },
        {
          "t": 26482,
          "type": "note",
          "pitch": 42,
          "duration_ms": 186,
          "velocity": 90,
          "beat_index": 256,
          "section": "build-up"
        },
        {
          "t": 26689,
          "type": "note",
          "pitch": 45,
          "duration_ms": 186,
          "velocity": 70,
          "beat_index": 258,
          "section": "build-up"
        },
        {
          "t": 26896,
          "type": "note",
          "pitch": 47,
          "duration_ms": 186,
          "velocity": 90,
          "beat_index": 260,
          "section": "build-up"
        },
        {
          "t": 27103,
          "type": "note",
          "pitch": 49,
          "duration_ms": 186,
          "velocity": 70,
          "beat_index": 262,
          "section": "build-up"
        },
        {
          "t": 27310,
          "type": "note",
          "pitch": 42,
          "duration_ms": 186,
          "velocity": 90,
          "beat_index": 264,
          "section": "build-up"
        },
        {
          "t": 27517,
          "type": "note",
          "pitch": 45,
          "duration_ms": 186,
          "velocity": 70,
          "beat_index": 266,
          "section": "build-up"
        },
        {
          "t": 27724,
          "type": "note",
          "pitch": 49,
          "duration_ms": 186,
          "velocity": 90,
          "beat_index": 268,
          "section": "build-up"
        },
        {
          "t": 27931,
          "type": "note",
          "pitch": 47,
          "duration_ms": 186,
          "velocity": 70,
          "beat_index": 270,
          "section": "build-up"
        },
        {
          "t": 28137,
          "type": "note",
          "pitch": 42,
          "duration_ms": 186,
          "velocity": 90,
          "beat_index": 272,
          "section": "build-up"
        },
        {
          "t": 28344,
          "type": "note",
          "pitch": 45,
          "duration_ms": 186,
          "velocity": 70,
          "beat_index": 274,
          "section": "build-up"
        },
        {
          "t": 28551,
          "type": "note",
          "pitch": 47,
          "duration_ms": 186,
          "velocity": 90,
          "beat_index": 276,
          "section": "build-up"
        },
        {
          "t": 28758,
          "type": "note",
          "pitch": 49,
          "duration_ms": 186,
          "velocity": 70,
          "beat_index": 278,
          "section": "build-up"
        },
        {
          "t": 28965,
          "type": "note",
          "pitch": 42,
          "duration_ms": 186,
          "velocity": 90,
          "beat_index": 280,
          "section": "build-up"
        },
        {
          "t": 29172,
          "type": "note",
          "pitch": 45,
          "duration_ms": 186,
          "velocity": 70,
          "beat_index": 282,
          "section": "build-up"
        },
        {
          "t": 29379,
          "type": "note",
          "pitch": 49,
          "duration_ms": 186,
          "velocity": 90,
          "beat_index": 284,
          "section": "build-up"
        },
        {
          "t": 29586,
          "type": "note",
          "pitch": 47,
          "duration_ms": 186,
          "velocity": 70,
          "beat_index": 286,
          "section": "build-up"
        },
        {
          "t": 29793,
          "type": "note",
          "pitch": 42,
          "duration_ms": 186,
          "velocity": 90,
          "beat_index": 288,
          "section": "build-up"
        },
        {
          "t": 30000,
          "type": "note",
          "pitch": 45,
          "duration_ms": 186,
          "velocity": 70,
          "beat_index": 290,
          "section": "build-up"
        },
        {
          "t": 30206,
          "type": "note",
          "pitch": 47,
          "duration_ms": 186,
          "velocity": 90,
          "beat_index": 292,
          "section": "build-up"
        },
        {
          "t": 30413,
          "type": "note",
          "pitch": 49,
          "duration_ms": 186,
          "velocity": 70,
          "beat_index": 294,
          "section": "build-up"
        },
        {
          "t": 30620,
          "type": "note",
          "pitch": 42,
          "duration_ms": 186,
          "velocity": 90,
          "beat_index": 296,
          "section": "build-up"
        },
        {
          "t": 30827,
          "type": "note",
          "pitch": 45,
          "duration_ms": 186,
          "velocity": 70,
          "beat_index": 298,
          "section": "build-up"
        },
        {
          "t": 31034,
          "type": "note",
          "pitch": 49,
          "duration_ms": 186,
          "velocity": 90,
          "beat_index": 300,
          "section": "build-up"
        },
        {
          "t": 31241,
          "type": "note",
          "pitch": 47,
          "duration_ms": 186,
          "velocity": 70,
          "beat_index": 302,
          "section": "build-up"
        },
        {
          "t": 31448,
          "type": "note",
          "pitch": 42,
          "duration_ms": 186,
          "velocity": 90,
          "beat_index": 304,
          "section": "build-up"
        },
        {
          "t": 31655,
          "type": "note",
          "pitch": 45,
          "duration_ms": 186,
          "velocity": 70,
          "beat_index": 306,
          "section": "build-up"
        },
        {
          "t": 31862,
          "type": "note",
          "pitch": 47,
          "duration_ms": 186,
          "velocity": 90,
          "beat_index": 308,
          "section": "build-up"
        },
        {
          "t": 32068,
          "type": "note",
          "pitch": 49,
          "duration_ms": 186,
          "velocity": 70,
          "beat_index": 310,
          "section": "build-up"
        },
        {
          "t": 32275,
          "type": "note",
          "pitch": 42,
          "duration_ms": 186,
          "velocity": 90,
          "beat_index": 312,
          "section": "build-up"
        },
        {
          "t": 32482,
          "type": "note",
          "pitch": 45,
          "duration_ms": 186,
          "velocity": 70,
          "beat_index": 314,
          "section": "build-up"
        },
        {
          "t": 32689,
          "type": "note",
          "pitch": 49,
          "duration_ms": 186,
          "velocity": 90,
          "beat_index": 316,
          "section": "build-up"
        },
        {
          "t": 32896,
          "type": "note",
          "pitch": 47,
          "duration_ms": 186,
          "velocity": 70,
          "beat_index": 318,
          "section": "build-up"
        },
        {
          "t": 33103,
          "type": "note",
          "pitch": 42,
          "duration_ms": 186,
          "velocity": 90,
          "beat_index": 320,
          "section": "build-up"
        },
        {
          "t": 33310,
          "type": "note",
          "pitch": 45,
          "duration_ms": 186,
          "velocity": 70,
          "beat_index": 322,
          "section": "build-up"
        },
        {
          "t": 33517,
          "type": "note",
          "pitch": 47,
          "duration_ms": 186,
          "velocity": 90,
          "beat_index": 324,
          "section": "build-up"
        },
        {
          "t": 33724,
          "type": "note",
          "pitch": 49,
          "duration_ms": 186,
          "velocity": 70,
          "beat_index": 326,
          "section": "build-up"
        },
        {
          "t": 33931,
          "type": "note",
          "pitch": 42,
          "duration_ms": 186,
          "velocity": 90,
          "beat_index": 328,
          "section": "build-up"
        },
        {
          "t": 34137,
          "type": "note",
          "pitch": 45,
          "duration_ms": 186,
          "velocity": 70,
          "beat_index": 330,
          "section": "build-up"
        },
        {
          "t": 34344,
          "type": "note",
          "pitch": 49,
          "duration_ms": 186,
          "velocity": 90,
          "beat_index": 332,
          "section": "build-up"
        },
        {
          "t": 34551,
          "type": "note",
          "pitch": 47,
          "duration_ms": 186,
          "velocity": 70,
          "beat_index": 334,
          "section": "build-up"
        },
        {
          "t": 34758,
          "type": "note",
          "pitch": 42,
          "duration_ms": 186,
          "velocity": 90,
          "beat_index": 336,
          "section": "build-up"
        },
        {
          "t": 34965,
          "type": "note",
          "pitch": 45,
          "duration_ms": 186,
          "velocity": 70,
          "beat_index": 338,
          "section": "build-up"
        },
        {
          "t": 35172,
          "type": "note",
          "pitch": 47,
          "duration_ms": 186,
          "velocity": 90,
          "beat_index": 340,
          "section": "build-up"
        },
        {
          "t": 35379,
          "type": "note",
          "pitch": 49,
          "duration_ms": 186,
          "velocity": 70,
          "beat_index": 342,
          "section": "build-up"
        },
        {
          "t": 35586,
          "type": "note",
          "pitch": 42,
          "duration_ms": 186,
          "velocity": 90,
          "beat_index": 344,
          "section": "build-up"
        },
        {
          "t": 35793,
          "type": "note",
          "pitch": 45,
          "duration_ms": 186,
          "velocity": 70,
          "beat_index": 346,
          "section": "build-up"
        },
        {
          "t": 36000,
          "type": "note",
          "pitch": 49,
          "duration_ms": 186,
          "velocity": 90,
          "beat_index": 348,
          "section": "build-up"
        },
        {
          "t": 36206,
          "type": "note",
          "pitch": 47,
          "duration_ms": 186,
          "velocity": 70,
          "beat_index": 350,
          "section": "build-up"
        },
        {
          "t": 36413,
          "type": "note",
          "pitch": 42,
          "duration_ms": 186,
          "velocity": 90,
          "beat_index": 352,
          "section": "build-up"
        },
        {
          "t": 36620,
          "type": "note",
          "pitch": 45,
          "duration_ms": 186,
          "velocity": 70,
          "beat_index": 354,
          "section": "build-up"
        },
        {
          "t": 36827,
          "type": "note",
          "pitch": 47,
          "duration_ms": 186,
          "velocity": 90,
          "beat_index": 356,
          "section": "build-up"
        },
        {
          "t": 37034,
          "type": "note",
          "pitch": 49,
          "duration_ms": 186,
          "velocity": 70,
          "beat_index": 358,
          "section": "build-up"
        },
        {
          "t": 37241,
          "type": "note",
          "pitch": 42,
          "duration_ms": 186,
          "velocity": 90,
          "beat_index": 360,
          "section": "build-up"
        },
        {
          "t": 37448,
          "type": "note",
          "pitch": 45,
          "duration_ms": 186,
          "velocity": 70,
          "beat_index": 362,
          "section": "build-up"
        },
        {
          "t": 37655,
          "type": "note",
          "pitch": 49,
          "duration_ms": 186,
          "velocity": 90,
          "beat_index": 364,
          "section": "build-up"
        },
        {
          "t": 37862,
          "type": "note",
          "pitch": 47,
          "duration_ms": 186,
          "velocity": 70,
          "beat_index": 366,
          "section": "build-up"
        },
        {
          "t": 38068,
          "type": "note",
          "pitch": 42,
          "duration_ms": 186,
          "velocity": 90,
          "beat_index": 368,
          "section": "build-up"
        },
        {
          "t": 38275,
          "type": "note",
          "pitch": 45,
          "duration_ms": 186,
          "velocity": 70,
          "beat_index": 370,
          "section": "build-up"
        },
        {
          "t": 38482,
          "type": "note",
          "pitch": 47,
          "duration_ms": 186,
          "velocity": 90,
          "beat_index": 372,
          "section": "build-up"
        },
        {
          "t": 38689,
          "type": "note",
          "pitch": 49,
          "duration_ms": 186,
          "velocity": 70,
          "beat_index": 374,
          "section": "build-up"
        },
        {
          "t": 38896,
          "type": "note",
          "pitch": 42,
          "duration_ms": 186,
          "velocity": 90,
          "beat_index": 376,
          "section": "build-up"
        },
        {
          "t": 39103,
          "type": "note",
          "pitch": 45,
          "duration_ms": 186,
          "velocity": 70,
          "beat_index": 378,
          "section": "build-up"
        },
        {
          "t": 39310,
          "type": "note",
          "pitch": 49,
          "duration_ms": 186,
          "velocity": 90,
          "beat_index": 380,
          "section": "build-up"
        },
        {
          "t": 39517,
          "type": "note",
          "pitch": 47,
          "duration_ms": 186,
          "velocity": 70,
          "beat_index": 382,
          "section": "build-up"
        },
        {
          "t": 39724,
          "type": "note",
          "pitch": 42,
          "duration_ms": 186,
          "velocity": 90,
          "beat_index": 384,
          "section": "drop"
        },
        {
          "t": 39931,
          "type": "note",
          "pitch": 45,
          "duration_ms": 186,
          "velocity": 70,
          "beat_index": 386,
          "section": "drop"
        },
        {
          "t": 40137,
          "type": "note",
          "pitch": 47,
          "duration_ms": 186,
          "velocity": 90,
          "beat_index": 388,
          "section": "drop"
        },
        {
          "t": 40344,
          "type": "note",
          "pitch": 49,
          "duration_ms": 186,
          "velocity": 70,
          "beat_index": 390,
          "section": "drop"
        },
        {
          "t": 40551,
          "type": "note",
          "pitch": 42,
          "duration_ms": 186,
          "velocity": 90,
          "beat_index": 392,
          "section": "drop"
        },
        {
          "t": 40758,
          "type": "note",
          "pitch": 45,
          "duration_ms": 186,
          "velocity": 70,
          "beat_index": 394,
          "section": "drop"
        },
        {
          "t": 40965,
          "type": "note",
          "pitch": 49,
          "duration_ms": 186,
          "velocity": 90,
          "beat_index": 396,
          "section": "drop"
        },
        {
          "t": 41172,
          "type": "note",
          "pitch": 47,
          "duration_ms": 186,
          "velocity": 70,
          "beat_index": 398,
          "section": "drop"
        },
        {
          "t": 41379,
          "type": "note",
          "pitch": 42,
          "duration_ms": 186,
          "velocity": 90,
          "beat_index": 400,
          "section": "drop"
        },
        {
          "t": 41586,
          "type": "note",
          "pitch": 45,
          "duration_ms": 186,
          "velocity": 70,
          "beat_index": 402,
          "section": "drop"
        },
        {
          "t": 41793,
          "type": "note",
          "pitch": 47,
          "duration_ms": 186,
          "velocity": 90,
          "beat_index": 404,
          "section": "drop"
        },
        {
          "t": 42000,
          "type": "note",
          "pitch": 49,
          "duration_ms": 186,
          "velocity": 70,
          "beat_index": 406,
          "section": "drop"
        },
        {
          "t": 42206,
          "type": "note",
          "pitch": 42,
          "duration_ms": 186,
          "velocity": 90,
          "beat_index": 408,
          "section": "drop"
        },
        {
          "t": 42413,
          "type": "note",
          "pitch": 45,
          "duration_ms": 186,
          "velocity": 70,
          "beat_index": 410,
          "section": "drop"
        },
        {
          "t": 42620,
          "type": "note",
          "pitch": 49,
          "duration_ms": 186,
          "velocity": 90,
          "beat_index": 412,
          "section": "drop"
        },
        {
          "t": 42827,
          "type": "note",
          "pitch": 47,
          "duration_ms": 186,
          "velocity": 70,
          "beat_index": 414,
          "section": "drop"
        },
        {
          "t": 43034,
          "type": "note",
          "pitch": 42,
          "duration_ms": 186,
          "velocity": 90,
          "beat_index": 416,
          "section": "drop"
        },
        {
          "t": 43241,
          "type": "note",
          "pitch": 45,
          "duration_ms": 186,
          "velocity": 70,
          "beat_index": 418,
          "section": "drop"
        },
        {
          "t": 43448,
          "type": "note",
          "pitch": 47,
          "duration_ms": 186,
          "velocity": 90,
          "beat_index": 420,
          "section": "drop"
        },
        {
          "t": 43655,
          "type": "note",
          "pitch": 49,
          "duration_ms": 186,
          "velocity": 70,
          "beat_index": 422,
          "section": "drop"
        },
        {
          "t": 43862,
          "type": "note",
          "pitch": 42,
          "duration_ms": 186,
          "velocity": 90,
          "beat_index": 424,
          "section": "drop"
        },
        {
          "t": 44068,
          "type": "note",
          "pitch": 45,
          "duration_ms": 186,
          "velocity": 70,
          "beat_index": 426,
          "section": "drop"
        },
        {
          "t": 44275,
          "type": "note",
          "pitch": 49,
          "duration_ms": 186,
          "velocity": 90,
          "beat_index": 428,
          "section": "drop"
        },
        {
          "t": 44482,
          "type": "note",
          "pitch": 47,
          "duration_ms": 186,
          "velocity": 70,
          "beat_index": 430,
          "section": "drop"
        },
        {
          "t": 44689,
          "type": "note",
          "pitch": 42,
          "duration_ms": 186,
          "velocity": 90,
          "beat_index": 432,
          "section": "drop"
        },
        {
          "t": 44896,
          "type": "note",
          "pitch": 45,
          "duration_ms": 186,
          "velocity": 70,
          "beat_index": 434,
          "section": "drop"
        },
        {
          "t": 45103,
          "type": "note",
          "pitch": 47,
          "duration_ms": 186,
          "velocity": 90,
          "beat_index": 436,
          "section": "drop"
        },
        {
          "t": 45310,
          "type": "note",
          "pitch": 49,
          "duration_ms": 186,
          "velocity": 70,
          "beat_index": 438,
          "section": "drop"
        },
        {
          "t": 45517,
          "type": "note",
          "pitch": 42,
          "duration_ms": 186,
          "velocity": 90,
          "beat_index": 440,
          "section": "drop"
        },
        {
          "t": 45724,
          "type": "note",
          "pitch": 45,
          "duration_ms": 186,
          "velocity": 70,
          "beat_index": 442,
          "section": "drop"
        },
        {
          "t": 45931,
          "type": "note",
          "pitch": 49,
          "duration_ms": 186,
          "velocity": 90,
          "beat_index": 444,
          "section": "drop"
        },
        {
          "t": 46137,
          "type": "note",
          "pitch": 47,
          "duration_ms": 186,
          "velocity": 70,
          "beat_index": 446,
          "section": "drop"
        },
        {
          "t": 46344,
          "type": "note",
          "pitch": 42,
          "duration_ms": 186,
          "velocity": 90,
          "beat_index": 448,
          "section": "drop"
        },
        {
          "t": 46551,
          "type": "note",
          "pitch": 45,
          "duration_ms": 186,
          "velocity": 70,
          "beat_index": 450,
          "section": "drop"
        },
        {
          "t": 46758,
          "type": "note",
          "pitch": 47,
          "duration_ms": 186,
          "velocity": 90,
          "beat_index": 452,
          "section": "drop"
        },
        {
          "t": 46965,
          "type": "note",
          "pitch": 49,
          "duration_ms": 186,
          "velocity": 70,
          "beat_index": 454,
          "section": "drop"
        },
        {
          "t": 47172,
          "type": "note",
          "pitch": 42,
          "duration_ms": 186,
          "velocity": 90,
          "beat_index": 456,
          "section": "drop"
        },
        {
          "t": 47379,
          "type": "note",
          "pitch": 45,
          "duration_ms": 186,
          "velocity": 70,
          "beat_index": 458,
          "section": "drop"
        },
        {
          "t": 47586,
          "type": "note",
          "pitch": 49,
          "duration_ms": 186,
          "velocity": 90,
          "beat_index": 460,
          "section": "drop"
        },
        {
          "t": 47793,
          "type": "note",
          "pitch": 47,
          "duration_ms": 186,
          "velocity": 70,
          "beat_index": 462,
          "section": "drop"
        },
        {
          "t": 48000,
          "type": "note",
          "pitch": 42,
          "duration_ms": 186,
          "velocity": 90,
          "beat_index": 464,
          "section": "drop"
        },
        {
          "t": 48206,
          "type": "note",
          "pitch": 45,
          "duration_ms": 186,
          "velocity": 70,
          "beat_index": 466,
          "section": "drop"
        },
        {
          "t": 48413,
          "type": "note",
          "pitch": 47,
          "duration_ms": 186,
          "velocity": 90,
          "beat_index": 468,
          "section": "drop"
        },
        {
          "t": 48620,
          "type": "note",
          "pitch": 49,
          "duration_ms": 186,
          "velocity": 70,
          "beat_index": 470,
          "section": "drop"
        },
        {
          "t": 48827,
          "type": "note",
          "pitch": 42,
          "duration_ms": 186,
          "velocity": 90,
          "beat_index": 472,
          "section": "drop"
        },
        {
          "t": 49034,
          "type": "note",
          "pitch": 45,
          "duration_ms": 186,
          "velocity": 70,
          "beat_index": 474,
          "section": "drop"
        },
        {
          "t": 49241,
          "type": "note",
          "pitch": 49,
          "duration_ms": 186,
          "velocity": 90,
          "beat_index": 476,
          "section": "drop"
        },
        {
          "t": 49448,
          "type": "note",
          "pitch": 47,
          "duration_ms": 186,
          "velocity": 70,
          "beat_index": 478,
          "section": "drop"
        },
        {
          "t": 49655,
          "type": "note",
          "pitch": 42,
          "duration_ms": 186,
          "velocity": 90,
          "beat_index": 480,
          "section": "drop"
        },
        {
          "t": 49862,
          "type": "note",
          "pitch": 45,
          "duration_ms": 186,
          "velocity": 70,
          "beat_index": 482,
          "section": "drop"
        },
        {
          "t": 50068,
          "type": "note",
          "pitch": 47,
          "duration_ms": 186,
          "velocity": 90,
          "beat_index": 484,
          "section": "drop"
        },
        {
          "t": 50275,
          "type": "note",
          "pitch": 49,
          "duration_ms": 186,
          "velocity": 70,
          "beat_index": 486,
          "section": "drop"
        },
        {
          "t": 50482,
          "type": "note",
          "pitch": 42,
          "duration_ms": 186,
          "velocity": 90,
          "beat_index": 488,
          "section": "drop"
        },
        {
          "t": 50689,
          "type": "note",
          "pitch": 45,
          "duration_ms": 186,
          "velocity": 70,
          "beat_index": 490,
          "section": "drop"
        },
        {
          "t": 50896,
          "type": "note",
          "pitch": 49,
          "duration_ms": 186,
          "velocity": 90,
          "beat_index": 492,
          "section": "drop"
        },
        {
          "t": 51103,
          "type": "note",
          "pitch": 47,
          "duration_ms": 186,
          "velocity": 70,
          "beat_index": 494,
          "section": "drop"
        },
        {
          "t": 51310,
          "type": "note",
          "pitch": 42,
          "duration_ms": 186,
          "velocity": 90,
          "beat_index": 496,
          "section": "drop"
        },
        {
          "t": 51517,
          "type": "note",
          "pitch": 45,
          "duration_ms": 186,
          "velocity": 70,
          "beat_index": 498,
          "section": "drop"
        },
        {
          "t": 51724,
          "type": "note",
          "pitch": 47,
          "duration_ms": 186,
          "velocity": 90,
          "beat_index": 500,
          "section": "drop"
        },
        {
          "t": 51931,
          "type": "note",
          "pitch": 49,
          "duration_ms": 186,
          "velocity": 70,
          "beat_index": 502,
          "section": "drop"
        },
        {
          "t": 52137,
          "type": "note",
          "pitch": 42,
          "duration_ms": 186,
          "velocity": 90,
          "beat_index": 504,
          "section": "drop"
        },
        {
          "t": 52344,
          "type": "note",
          "pitch": 45,
          "duration_ms": 186,
          "velocity": 70,
          "beat_index": 506,
          "section": "drop"
        },
        {
          "t": 52551,
          "type": "note",
          "pitch": 49,
          "duration_ms": 186,
          "velocity": 90,
          "beat_index": 508,
          "section": "drop"
        },
        {
          "t": 52758,
          "type": "note",
          "pitch": 47,
          "duration_ms": 186,
          "velocity": 70,
          "beat_index": 510,
          "section": "drop"
        },
        {
          "t": 52965,
          "type": "note",
          "pitch": 42,
          "duration_ms": 186,
          "velocity": 90,
          "beat_index": 512,
          "section": "drop"
        },
        {
          "t": 53172,
          "type": "note",
          "pitch": 45,
          "duration_ms": 186,
          "velocity": 70,
          "beat_index": 514,
          "section": "drop"
        },
        {
          "t": 53379,
          "type": "note",
          "pitch": 47,
          "duration_ms": 186,
          "velocity": 90,
          "beat_index": 516,
          "section": "drop"
        },
        {
          "t": 53586,
          "type": "note",
          "pitch": 49,
          "duration_ms": 186,
          "velocity": 70,
          "beat_index": 518,
          "section": "drop"
        },
        {
          "t": 53793,
          "type": "note",
          "pitch": 42,
          "duration_ms": 186,
          "velocity": 90,
          "beat_index": 520,
          "section": "drop"
        },
        {
          "t": 53999,
          "type": "note",
          "pitch": 45,
          "duration_ms": 186,
          "velocity": 70,
          "beat_index": 522,
          "section": "drop"
        },
        {
          "t": 54206,
          "type": "note",
          "pitch": 49,
          "duration_ms": 186,
          "velocity": 90,
          "beat_index": 524,
          "section": "drop"
        },
        {
          "t": 54413,
          "type": "note",
          "pitch": 47,
          "duration_ms": 186,
          "velocity": 70,
          "beat_index": 526,
          "section": "drop"
        },
        {
          "t": 54620,
          "type": "note",
          "pitch": 42,
          "duration_ms": 186,
          "velocity": 90,
          "beat_index": 528,
          "section": "drop"
        },
        {
          "t": 54827,
          "type": "note",
          "pitch": 45,
          "duration_ms": 186,
          "velocity": 70,
          "beat_index": 530,
          "section": "drop"
        },
        {
          "t": 55034,
          "type": "note",
          "pitch": 47,
          "duration_ms": 186,
          "velocity": 90,
          "beat_index": 532,
          "section": "drop"
        },
        {
          "t": 55241,
          "type": "note",
          "pitch": 49,
          "duration_ms": 186,
          "velocity": 70,
          "beat_index": 534,
          "section": "drop"
        },
        {
          "t": 55448,
          "type": "note",
          "pitch": 42,
          "duration_ms": 186,
          "velocity": 90,
          "beat_index": 536,
          "section": "drop"
        },
        {
          "t": 55655,
          "type": "note",
          "pitch": 45,
          "duration_ms": 186,
          "velocity": 70,
          "beat_index": 538,
          "section": "drop"
        },
        {
          "t": 55862,
          "type": "note",
          "pitch": 49,
          "duration_ms": 186,
          "velocity": 90,
          "beat_index": 540,
          "section": "drop"
        },
        {
          "t": 56068,
          "type": "note",
          "pitch": 47,
          "duration_ms": 186,
          "velocity": 70,
          "beat_index": 542,
          "section": "drop"
        },
        {
          "t": 56275,
          "type": "note",
          "pitch": 42,
          "duration_ms": 186,
          "velocity": 90,
          "beat_index": 544,
          "section": "drop"
        },
        {
          "t": 56482,
          "type": "note",
          "pitch": 45,
          "duration_ms": 186,
          "velocity": 70,
          "beat_index": 546,
          "section": "drop"
        },
        {
          "t": 56689,
          "type": "note",
          "pitch": 47,
          "duration_ms": 186,
          "velocity": 90,
          "beat_index": 548,
          "section": "drop"
        },
        {
          "t": 56896,
          "type": "note",
          "pitch": 49,
          "duration_ms": 186,
          "velocity": 70,
          "beat_index": 550,
          "section": "drop"
        },
        {
          "t": 57103,
          "type": "note",
          "pitch": 42,
          "duration_ms": 186,
          "velocity": 90,
          "beat_index": 552,
          "section": "drop"
        },
        {
          "t": 57310,
          "type": "note",
          "pitch": 45,
          "duration_ms": 186,
          "velocity": 70,
          "beat_index": 554,
          "section": "drop"
        },
        {
          "t": 57517,
          "type": "note",
          "pitch": 49,
          "duration_ms": 186,
          "velocity": 90,
          "beat_index": 556,
          "section": "drop"
        },
        {
          "t": 57724,
          "type": "note",
          "pitch": 47,
          "duration_ms": 186,
          "velocity": 70,
          "beat_index": 558,
          "section": "drop"
        },
        {
          "t": 57931,
          "type": "note",
          "pitch": 42,
          "duration_ms": 186,
          "velocity": 90,
          "beat_index": 560,
          "section": "drop"
        },
        {
          "t": 58137,
          "type": "note",
          "pitch": 45,
          "duration_ms": 186,
          "velocity": 70,
          "beat_index": 562,
          "section": "drop"
        },
        {
          "t": 58344,
          "type": "note",
          "pitch": 47,
          "duration_ms": 186,
          "velocity": 90,
          "beat_index": 564,
          "section": "drop"
        },
        {
          "t": 58551,
          "type": "note",
          "pitch": 49,
          "duration_ms": 186,
          "velocity": 70,
          "beat_index": 566,
          "section": "drop"
        },
        {
          "t": 58758,
          "type": "note",
          "pitch": 42,
          "duration_ms": 186,
          "velocity": 90,
          "beat_index": 568,
          "section": "drop"
        },
        {
          "t": 58965,
          "type": "note",
          "pitch": 45,
          "duration_ms": 186,
          "velocity": 70,
          "beat_index": 570,
          "section": "drop"
        },
        {
          "t": 59172,
          "type": "note",
          "pitch": 49,
          "duration_ms": 186,
          "velocity": 90,
          "beat_index": 572,
          "section": "drop"
        },
        {
          "t": 59379,
          "type": "note",
          "pitch": 47,
          "duration_ms": 186,
          "velocity": 70,
          "beat_index": 574,
          "section": "drop"
        },
        {
          "t": 59586,
          "type": "note",
          "pitch": 42,
          "duration_ms": 186,
          "velocity": 90,
          "beat_index": 576,
          "section": "drop"
        },
        {
          "t": 59793,
          "type": "note",
          "pitch": 45,
          "duration_ms": 186,
          "velocity": 70,
          "beat_index": 578,
          "section": "drop"
        },
        {
          "t": 59999,
          "type": "note",
          "pitch": 47,
          "duration_ms": 186,
          "velocity": 90,
          "beat_index": 580,
          "section": "drop"
        },
        {
          "t": 60206,
          "type": "note",
          "pitch": 49,
          "duration_ms": 186,
          "velocity": 70,
          "beat_index": 582,
          "section": "drop"
        },
        {
          "t": 60413,
          "type": "note",
          "pitch": 42,
          "duration_ms": 186,
          "velocity": 90,
          "beat_index": 584,
          "section": "drop"
        },
        {
          "t": 60620,
          "type": "note",
          "pitch": 45,
          "duration_ms": 186,
          "velocity": 70,
          "beat_index": 586,
          "section": "drop"
        },
        {
          "t": 60827,
          "type": "note",
          "pitch": 49,
          "duration_ms": 186,
          "velocity": 90,
          "beat_index": 588,
          "section": "drop"
        },
        {
          "t": 61034,
          "type": "note",
          "pitch": 47,
          "duration_ms": 186,
          "velocity": 70,
          "beat_index": 590,
          "section": "drop"
        },
        {
          "t": 61241,
          "type": "note",
          "pitch": 42,
          "duration_ms": 186,
          "velocity": 90,
          "beat_index": 592,
          "section": "drop"
        },
        {
          "t": 61448,
          "type": "note",
          "pitch": 45,
          "duration_ms": 186,
          "velocity": 70,
          "beat_index": 594,
          "section": "drop"
        },
        {
          "t": 61655,
          "type": "note",
          "pitch": 47,
          "duration_ms": 186,
          "velocity": 90,
          "beat_index": 596,
          "section": "drop"
        },
        {
          "t": 61862,
          "type": "note",
          "pitch": 49,
          "duration_ms": 186,
          "velocity": 70,
          "beat_index": 598,
          "section": "drop"
        },
        {
          "t": 62068,
          "type": "note",
          "pitch": 42,
          "duration_ms": 186,
          "velocity": 90,
          "beat_index": 600,
          "section": "drop"
        },
        {
          "t": 62275,
          "type": "note",
          "pitch": 45,
          "duration_ms": 186,
          "velocity": 70,
          "beat_index": 602,
          "section": "drop"
        },
        {
          "t": 62482,
          "type": "note",
          "pitch": 49,
          "duration_ms": 186,
          "velocity": 90,
          "beat_index": 604,
          "section": "drop"
        },
        {
          "t": 62689,
          "type": "note",
          "pitch": 47,
          "duration_ms": 186,
          "velocity": 70,
          "beat_index": 606,
          "section": "drop"
        },
        {
          "t": 62896,
          "type": "note",
          "pitch": 42,
          "duration_ms": 186,
          "velocity": 90,
          "beat_index": 608,
          "section": "drop"
        },
        {
          "t": 63103,
          "type": "note",
          "pitch": 45,
          "duration_ms": 186,
          "velocity": 70,
          "beat_index": 610,
          "section": "drop"
        },
        {
          "t": 63310,
          "type": "note",
          "pitch": 47,
          "duration_ms": 186,
          "velocity": 90,
          "beat_index": 612,
          "section": "drop"
        },
        {
          "t": 63517,
          "type": "note",
          "pitch": 49,
          "duration_ms": 186,
          "velocity": 70,
          "beat_index": 614,
          "section": "drop"
        },
        {
          "t": 63724,
          "type": "note",
          "pitch": 42,
          "duration_ms": 186,
          "velocity": 90,
          "beat_index": 616,
          "section": "drop"
        },
        {
          "t": 63931,
          "type": "note",
          "pitch": 45,
          "duration_ms": 186,
          "velocity": 70,
          "beat_index": 618,
          "section": "drop"
        },
        {
          "t": 64137,
          "type": "note",
          "pitch": 49,
          "duration_ms": 186,
          "velocity": 90,
          "beat_index": 620,
          "section": "drop"
        },
        {
          "t": 64344,
          "type": "note",
          "pitch": 47,
          "duration_ms": 186,
          "velocity": 70,
          "beat_index": 622,
          "section": "drop"
        },
        {
          "t": 64551,
          "type": "note",
          "pitch": 42,
          "duration_ms": 186,
          "velocity": 90,
          "beat_index": 624,
          "section": "drop"
        },
        {
          "t": 64758,
          "type": "note",
          "pitch": 45,
          "duration_ms": 186,
          "velocity": 70,
          "beat_index": 626,
          "section": "drop"
        },
        {
          "t": 64965,
          "type": "note",
          "pitch": 47,
          "duration_ms": 186,
          "velocity": 90,
          "beat_index": 628,
          "section": "drop"
        },
        {
          "t": 65172,
          "type": "note",
          "pitch": 49,
          "duration_ms": 186,
          "velocity": 70,
          "beat_index": 630,
          "section": "drop"
        },
        {
          "t": 65379,
          "type": "note",
          "pitch": 42,
          "duration_ms": 186,
          "velocity": 90,
          "beat_index": 632,
          "section": "drop"
        },
        {
          "t": 65586,
          "type": "note",
          "pitch": 45,
          "duration_ms": 186,
          "velocity": 70,
          "beat_index": 634,
          "section": "drop"
        },
        {
          "t": 65793,
          "type": "note",
          "pitch": 49,
          "duration_ms": 186,
          "velocity": 90,
          "beat_index": 636,
          "section": "drop"
        },
        {
          "t": 65999,
          "type": "note",
          "pitch": 47,
          "duration_ms": 186,
          "velocity": 70,
          "beat_index": 638,
          "section": "drop"
        },
        {
          "t": 66206,
          "type": "note",
          "pitch": 42,
          "duration_ms": 186,
          "velocity": 90,
          "beat_index": 640,
          "section": "drop"
        },
        {
          "t": 66413,
          "type": "note",
          "pitch": 45,
          "duration_ms": 186,
          "velocity": 70,
          "beat_index": 642,
          "section": "drop"
        },
        {
          "t": 66620,
          "type": "note",
          "pitch": 47,
          "duration_ms": 186,
          "velocity": 90,
          "beat_index": 644,
          "section": "drop"
        },
        {
          "t": 66827,
          "type": "note",
          "pitch": 49,
          "duration_ms": 186,
          "velocity": 70,
          "beat_index": 646,
          "section": "drop"
        },
        {
          "t": 67034,
          "type": "note",
          "pitch": 42,
          "duration_ms": 186,
          "velocity": 90,
          "beat_index": 648,
          "section": "drop"
        },
        {
          "t": 67241,
          "type": "note",
          "pitch": 45,
          "duration_ms": 186,
          "velocity": 70,
          "beat_index": 650,
          "section": "drop"
        },
        {
          "t": 67448,
          "type": "note",
          "pitch": 49,
          "duration_ms": 186,
          "velocity": 90,
          "beat_index": 652,
          "section": "drop"
        },
        {
          "t": 67655,
          "type": "note",
          "pitch": 47,
          "duration_ms": 186,
          "velocity": 70,
          "beat_index": 654,
          "section": "drop"
        },
        {
          "t": 67862,
          "type": "note",
          "pitch": 42,
          "duration_ms": 186,
          "velocity": 90,
          "beat_index": 656,
          "section": "drop"
        },
        {
          "t": 68068,
          "type": "note",
          "pitch": 45,
          "duration_ms": 186,
          "velocity": 70,
          "beat_index": 658,
          "section": "drop"
        },
        {
          "t": 68275,
          "type": "note",
          "pitch": 47,
          "duration_ms": 186,
          "velocity": 90,
          "beat_index": 660,
          "section": "drop"
        },
        {
          "t": 68482,
          "type": "note",
          "pitch": 49,
          "duration_ms": 186,
          "velocity": 70,
          "beat_index": 662,
          "section": "drop"
        },
        {
          "t": 68689,
          "type": "note",
          "pitch": 42,
          "duration_ms": 186,
          "velocity": 90,
          "beat_index": 664,
          "section": "drop"
        },
        {
          "t": 68896,
          "type": "note",
          "pitch": 45,
          "duration_ms": 186,
          "velocity": 70,
          "beat_index": 666,
          "section": "drop"
        },
        {
          "t": 69103,
          "type": "note",
          "pitch": 49,
          "duration_ms": 186,
          "velocity": 90,
          "beat_index": 668,
          "section": "drop"
        },
        {
          "t": 69310,
          "type": "note",
          "pitch": 47,
          "duration_ms": 186,
          "velocity": 70,
          "beat_index": 670,
          "section": "drop"
        },
        {
          "t": 69517,
          "type": "note",
          "pitch": 42,
          "duration_ms": 186,
          "velocity": 90,
          "beat_index": 672,
          "section": "drop"
        },
        {
          "t": 69724,
          "type": "note",
          "pitch": 45,
          "duration_ms": 186,
          "velocity": 70,
          "beat_index": 674,
          "section": "drop"
        },
        {
          "t": 69931,
          "type": "note",
          "pitch": 47,
          "duration_ms": 186,
          "velocity": 90,
          "beat_index": 676,
          "section": "drop"
        },
        {
          "t": 70137,
          "type": "note",
          "pitch": 49,
          "duration_ms": 186,
          "velocity": 70,
          "beat_index": 678,
          "section": "drop"
        },
        {
          "t": 70344,
          "type": "note",
          "pitch": 42,
          "duration_ms": 186,
          "velocity": 90,
          "beat_index": 680,
          "section": "drop"
        },
        {
          "t": 70551,
          "type": "note",
          "pitch": 45,
          "duration_ms": 186,
          "velocity": 70,
          "beat_index": 682,
          "section": "drop"
        },
        {
          "t": 70758,
          "type": "note",
          "pitch": 49,
          "duration_ms": 186,
          "velocity": 90,
          "beat_index": 684,
          "section": "drop"
        },
        {
          "t": 70965,
          "type": "note",
          "pitch": 47,
          "duration_ms": 186,
          "velocity": 70,
          "beat_index": 686,
          "section": "drop"
        },
        {
          "t": 71172,
          "type": "note",
          "pitch": 42,
          "duration_ms": 186,
          "velocity": 90,
          "beat_index": 688,
          "section": "drop"
        },
        {
          "t": 71379,
          "type": "note",
          "pitch": 45,
          "duration_ms": 186,
          "velocity": 70,
          "beat_index": 690,
          "section": "drop"
        },
        {
          "t": 71586,
          "type": "note",
          "pitch": 47,
          "duration_ms": 186,
          "velocity": 90,
          "beat_index": 692,
          "section": "drop"
        },
        {
          "t": 71793,
          "type": "note",
          "pitch": 49,
          "duration_ms": 186,
          "velocity": 70,
          "beat_index": 694,
          "section": "drop"
        },
        {
          "t": 71999,
          "type": "note",
          "pitch": 42,
          "duration_ms": 186,
          "velocity": 90,
          "beat_index": 696,
          "section": "drop"
        },
        {
          "t": 72206,
          "type": "note",
          "pitch": 45,
          "duration_ms": 186,
          "velocity": 70,
          "beat_index": 698,
          "section": "drop"
        },
        {
          "t": 72413,
          "type": "note",
          "pitch": 49,
          "duration_ms": 186,
          "velocity": 90,
          "beat_index": 700,
          "section": "drop"
        },
        {
          "t": 72620,
          "type": "note",
          "pitch": 47,
          "duration_ms": 186,
          "velocity": 70,
          "beat_index": 702,
          "section": "drop"
        },
        {
          "t": 72827,
          "type": "note",
          "pitch": 42,
          "duration_ms": 186,
          "velocity": 90,
          "beat_index": 704,
          "section": "drop"
        },
        {
          "t": 73034,
          "type": "note",
          "pitch": 45,
          "duration_ms": 186,
          "velocity": 70,
          "beat_index": 706,
          "section": "drop"
        },
        {
          "t": 73241,
          "type": "note",
          "pitch": 47,
          "duration_ms": 186,
          "velocity": 90,
          "beat_index": 708,
          "section": "drop"
        },
        {
          "t": 73448,
          "type": "note",
          "pitch": 49,
          "duration_ms": 186,
          "velocity": 70,
          "beat_index": 710,
          "section": "drop"
        },
        {
          "t": 73655,
          "type": "note",
          "pitch": 42,
          "duration_ms": 186,
          "velocity": 90,
          "beat_index": 712,
          "section": "drop"
        },
        {
          "t": 73862,
          "type": "note",
          "pitch": 45,
          "duration_ms": 186,
          "velocity": 70,
          "beat_index": 714,
          "section": "drop"
        },
        {
          "t": 74068,
          "type": "note",
          "pitch": 49,
          "duration_ms": 186,
          "velocity": 90,
          "beat_index": 716,
          "section": "drop"
        },
        {
          "t": 74275,
          "type": "note",
          "pitch": 47,
          "duration_ms": 186,
          "velocity": 70,
          "beat_index": 718,
          "section": "drop"
        },
        {
          "t": 74482,
          "type": "note",
          "pitch": 42,
          "duration_ms": 186,
          "velocity": 90,
          "beat_index": 720,
          "section": "drop"
        },
        {
          "t": 74689,
          "type": "note",
          "pitch": 45,
          "duration_ms": 186,
          "velocity": 70,
          "beat_index": 722,
          "section": "drop"
        },
        {
          "t": 74896,
          "type": "note",
          "pitch": 47,
          "duration_ms": 186,
          "velocity": 90,
          "beat_index": 724,
          "section": "drop"
        },
        {
          "t": 75103,
          "type": "note",
          "pitch": 49,
          "duration_ms": 186,
          "velocity": 70,
          "beat_index": 726,
          "section": "drop"
        },
        {
          "t": 75310,
          "type": "note",
          "pitch": 42,
          "duration_ms": 186,
          "velocity": 90,
          "beat_index": 728,
          "section": "drop"
        },
        {
          "t": 75517,
          "type": "note",
          "pitch": 45,
          "duration_ms": 186,
          "velocity": 70,
          "beat_index": 730,
          "section": "drop"
        },
        {
          "t": 75724,
          "type": "note",
          "pitch": 49,
          "duration_ms": 186,
          "velocity": 90,
          "beat_index": 732,
          "section": "drop"
        },
        {
          "t": 75931,
          "type": "note",
          "pitch": 47,
          "duration_ms": 186,
          "velocity": 70,
          "beat_index": 734,
          "section": "drop"
        },
        {
          "t": 76137,
          "type": "note",
          "pitch": 42,
          "duration_ms": 186,
          "velocity": 90,
          "beat_index": 736,
          "section": "drop"
        },
        {
          "t": 76344,
          "type": "note",
          "pitch": 45,
          "duration_ms": 186,
          "velocity": 70,
          "beat_index": 738,
          "section": "drop"
        },
        {
          "t": 76551,
          "type": "note",
          "pitch": 47,
          "duration_ms": 186,
          "velocity": 90,
          "beat_index": 740,
          "section": "drop"
        },
        {
          "t": 76758,
          "type": "note",
          "pitch": 49,
          "duration_ms": 186,
          "velocity": 70,
          "beat_index": 742,
          "section": "drop"
        },
        {
          "t": 76965,
          "type": "note",
          "pitch": 42,
          "duration_ms": 186,
          "velocity": 90,
          "beat_index": 744,
          "section": "drop"
        },
        {
          "t": 77172,
          "type": "note",
          "pitch": 45,
          "duration_ms": 186,
          "velocity": 70,
          "beat_index": 746,
          "section": "drop"
        },
        {
          "t": 77379,
          "type": "note",
          "pitch": 49,
          "duration_ms": 186,
          "velocity": 90,
          "beat_index": 748,
          "section": "drop"
        },
        {
          "t": 77586,
          "type": "note",
          "pitch": 47,
          "duration_ms": 186,
          "velocity": 70,
          "beat_index": 750,
          "section": "drop"
        },
        {
          "t": 77793,
          "type": "note",
          "pitch": 42,
          "duration_ms": 186,
          "velocity": 90,
          "beat_index": 752,
          "section": "drop"
        },
        {
          "t": 77999,
          "type": "note",
          "pitch": 45,
          "duration_ms": 186,
          "velocity": 70,
          "beat_index": 754,
          "section": "drop"
        },
        {
          "t": 78206,
          "type": "note",
          "pitch": 47,
          "duration_ms": 186,
          "velocity": 90,
          "beat_index": 756,
          "section": "drop"
        },
        {
          "t": 78413,
          "type": "note",
          "pitch": 49,
          "duration_ms": 186,
          "velocity": 70,
          "beat_index": 758,
          "section": "drop"
        },
        {
          "t": 78620,
          "type": "note",
          "pitch": 42,
          "duration_ms": 186,
          "velocity": 90,
          "beat_index": 760,
          "section": "drop"
        },
        {
          "t": 78827,
          "type": "note",
          "pitch": 45,
          "duration_ms": 186,
          "velocity": 70,
          "beat_index": 762,
          "section": "drop"
        },
        {
          "t": 79034,
          "type": "note",
          "pitch": 49,
          "duration_ms": 186,
          "velocity": 90,
          "beat_index": 764,
          "section": "drop"
        },
        {
          "t": 79241,
          "type": "note",
          "pitch": 47,
          "duration_ms": 186,
          "velocity": 70,
          "beat_index": 766,
          "section": "drop"
        },
        {
          "t": 79448,
          "type": "note",
          "pitch": 42,
          "duration_ms": 186,
          "velocity": 90,
          "beat_index": 768,
          "section": "drop"
        },
        {
          "t": 79655,
          "type": "note",
          "pitch": 45,
          "duration_ms": 186,
          "velocity": 70,
          "beat_index": 770,
          "section": "drop"
        },
        {
          "t": 79862,
          "type": "note",
          "pitch": 47,
          "duration_ms": 186,
          "velocity": 90,
          "beat_index": 772,
          "section": "drop"
        },
        {
          "t": 80068,
          "type": "note",
          "pitch": 49,
          "duration_ms": 186,
          "velocity": 70,
          "beat_index": 774,
          "section": "drop"
        },
        {
          "t": 80275,
          "type": "note",
          "pitch": 42,
          "duration_ms": 186,
          "velocity": 90,
          "beat_index": 776,
          "section": "drop"
        },
        {
          "t": 80482,
          "type": "note",
          "pitch": 45,
          "duration_ms": 186,
          "velocity": 70,
          "beat_index": 778,
          "section": "drop"
        },
        {
          "t": 80689,
          "type": "note",
          "pitch": 49,
          "duration_ms": 186,
          "velocity": 90,
          "beat_index": 780,
          "section": "drop"
        },
        {
          "t": 80896,
          "type": "note",
          "pitch": 47,
          "duration_ms": 186,
          "velocity": 70,
          "beat_index": 782,
          "section": "drop"
        },
        {
          "t": 81103,
          "type": "note",
          "pitch": 42,
          "duration_ms": 186,
          "velocity": 90,
          "beat_index": 784,
          "section": "drop"
        },
        {
          "t": 81310,
          "type": "note",
          "pitch": 45,
          "duration_ms": 186,
          "velocity": 70,
          "beat_index": 786,
          "section": "drop"
        },
        {
          "t": 81517,
          "type": "note",
          "pitch": 47,
          "duration_ms": 186,
          "velocity": 90,
          "beat_index": 788,
          "section": "drop"
        },
        {
          "t": 81724,
          "type": "note",
          "pitch": 49,
          "duration_ms": 186,
          "velocity": 70,
          "beat_index": 790,
          "section": "drop"
        },
        {
          "t": 81931,
          "type": "note",
          "pitch": 42,
          "duration_ms": 186,
          "velocity": 90,
          "beat_index": 792,
          "section": "drop"
        },
        {
          "t": 82137,
          "type": "note",
          "pitch": 45,
          "duration_ms": 186,
          "velocity": 70,
          "beat_index": 794,
          "section": "drop"
        },
        {
          "t": 82344,
          "type": "note",
          "pitch": 49,
          "duration_ms": 186,
          "velocity": 90,
          "beat_index": 796,
          "section": "drop"
        },
        {
          "t": 82551,
          "type": "note",
          "pitch": 47,
          "duration_ms": 186,
          "velocity": 70,
          "beat_index": 798,
          "section": "drop"
        },
        {
          "t": 82758,
          "type": "note",
          "pitch": 42,
          "duration_ms": 186,
          "velocity": 90,
          "beat_index": 800,
          "section": "drop"
        },
        {
          "t": 82965,
          "type": "note",
          "pitch": 45,
          "duration_ms": 186,
          "velocity": 70,
          "beat_index": 802,
          "section": "drop"
        },
        {
          "t": 83172,
          "type": "note",
          "pitch": 47,
          "duration_ms": 186,
          "velocity": 90,
          "beat_index": 804,
          "section": "drop"
        },
        {
          "t": 83379,
          "type": "note",
          "pitch": 49,
          "duration_ms": 186,
          "velocity": 70,
          "beat_index": 806,
          "section": "drop"
        },
        {
          "t": 83586,
          "type": "note",
          "pitch": 42,
          "duration_ms": 186,
          "velocity": 90,
          "beat_index": 808,
          "section": "drop"
        },
        {
          "t": 83793,
          "type": "note",
          "pitch": 45,
          "duration_ms": 186,
          "velocity": 70,
          "beat_index": 810,
          "section": "drop"
        },
        {
          "t": 83999,
          "type": "note",
          "pitch": 49,
          "duration_ms": 186,
          "velocity": 90,
          "beat_index": 812,
          "section": "drop"
        },
        {
          "t": 84206,
          "type": "note",
          "pitch": 47,
          "duration_ms": 186,
          "velocity": 70,
          "beat_index": 814,
          "section": "drop"
        },
        {
          "t": 84413,
          "type": "note",
          "pitch": 42,
          "duration_ms": 186,
          "velocity": 90,
          "beat_index": 816,
          "section": "drop"
        },
        {
          "t": 84620,
          "type": "note",
          "pitch": 45,
          "duration_ms": 186,
          "velocity": 70,
          "beat_index": 818,
          "section": "drop"
        },
        {
          "t": 84827,
          "type": "note",
          "pitch": 47,
          "duration_ms": 186,
          "velocity": 90,
          "beat_index": 820,
          "section": "drop"
        },
        {
          "t": 85034,
          "type": "note",
          "pitch": 49,
          "duration_ms": 186,
          "velocity": 70,
          "beat_index": 822,
          "section": "drop"
        },
        {
          "t": 85241,
          "type": "note",
          "pitch": 42,
          "duration_ms": 186,
          "velocity": 90,
          "beat_index": 824,
          "section": "drop"
        },
        {
          "t": 85448,
          "type": "note",
          "pitch": 45,
          "duration_ms": 186,
          "velocity": 70,
          "beat_index": 826,
          "section": "drop"
        },
        {
          "t": 85655,
          "type": "note",
          "pitch": 49,
          "duration_ms": 186,
          "velocity": 90,
          "beat_index": 828,
          "section": "drop"
        },
        {
          "t": 85862,
          "type": "note",
          "pitch": 47,
          "duration_ms": 186,
          "velocity": 70,
          "beat_index": 830,
          "section": "drop"
        },
        {
          "t": 86068,
          "type": "note",
          "pitch": 42,
          "duration_ms": 186,
          "velocity": 90,
          "beat_index": 832,
          "section": "drop"
        },
        {
          "t": 86275,
          "type": "note",
          "pitch": 45,
          "duration_ms": 186,
          "velocity": 70,
          "beat_index": 834,
          "section": "drop"
        },
        {
          "t": 86482,
          "type": "note",
          "pitch": 47,
          "duration_ms": 186,
          "velocity": 90,
          "beat_index": 836,
          "section": "drop"
        },
        {
          "t": 86689,
          "type": "note",
          "pitch": 49,
          "duration_ms": 186,
          "velocity": 70,
          "beat_index": 838,
          "section": "drop"
        },
        {
          "t": 86896,
          "type": "note",
          "pitch": 42,
          "duration_ms": 186,
          "velocity": 90,
          "beat_index": 840,
          "section": "drop"
        },
        {
          "t": 87103,
          "type": "note",
          "pitch": 45,
          "duration_ms": 186,
          "velocity": 70,
          "beat_index": 842,
          "section": "drop"
        },
        {
          "t": 87310,
          "type": "note",
          "pitch": 49,
          "duration_ms": 186,
          "velocity": 90,
          "beat_index": 844,
          "section": "drop"
        },
        {
          "t": 87517,
          "type": "note",
          "pitch": 47,
          "duration_ms": 186,
          "velocity": 70,
          "beat_index": 846,
          "section": "drop"
        },
        {
          "t": 87724,
          "type": "note",
          "pitch": 42,
          "duration_ms": 186,
          "velocity": 90,
          "beat_index": 848,
          "section": "drop"
        },
        {
          "t": 87931,
          "type": "note",
          "pitch": 45,
          "duration_ms": 186,
          "velocity": 70,
          "beat_index": 850,
          "section": "drop"
        },
        {
          "t": 88137,
          "type": "note",
          "pitch": 47,
          "duration_ms": 186,
          "velocity": 90,
          "beat_index": 852,
          "section": "drop"
        },
        {
          "t": 88344,
          "type": "note",
          "pitch": 49,
          "duration_ms": 186,
          "velocity": 70,
          "beat_index": 854,
          "section": "drop"
        },
        {
          "t": 88551,
          "type": "note",
          "pitch": 42,
          "duration_ms": 186,
          "velocity": 90,
          "beat_index": 856,
          "section": "drop"
        },
        {
          "t": 88758,
          "type": "note",
          "pitch": 45,
          "duration_ms": 186,
          "velocity": 70,
          "beat_index": 858,
          "section": "drop"
        },
        {
          "t": 88965,
          "type": "note",
          "pitch": 49,
          "duration_ms": 186,
          "velocity": 90,
          "beat_index": 860,
          "section": "drop"
        },
        {
          "t": 89172,
          "type": "note",
          "pitch": 47,
          "duration_ms": 186,
          "velocity": 70,
          "beat_index": 862,
          "section": "drop"
        },
        {
          "t": 89379,
          "type": "note",
          "pitch": 42,
          "duration_ms": 186,
          "velocity": 90,
          "beat_index": 864,
          "section": "drop"
        },
        {
          "t": 89586,
          "type": "note",
          "pitch": 45,
          "duration_ms": 186,
          "velocity": 70,
          "beat_index": 866,
          "section": "drop"
        },
        {
          "t": 89793,
          "type": "note",
          "pitch": 47,
          "duration_ms": 186,
          "velocity": 90,
          "beat_index": 868,
          "section": "drop"
        },
        {
          "t": 89999,
          "type": "note",
          "pitch": 49,
          "duration_ms": 186,
          "velocity": 70,
          "beat_index": 870,
          "section": "drop"
        },
        {
          "t": 90206,
          "type": "note",
          "pitch": 42,
          "duration_ms": 186,
          "velocity": 90,
          "beat_index": 872,
          "section": "drop"
        },
        {
          "t": 90413,
          "type": "note",
          "pitch": 45,
          "duration_ms": 186,
          "velocity": 70,
          "beat_index": 874,
          "section": "drop"
        },
        {
          "t": 90620,
          "type": "note",
          "pitch": 49,
          "duration_ms": 186,
          "velocity": 90,
          "beat_index": 876,
          "section": "drop"
        },
        {
          "t": 90827,
          "type": "note",
          "pitch": 47,
          "duration_ms": 186,
          "velocity": 70,
          "beat_index": 878,
          "section": "drop"
        },
        {
          "t": 91034,
          "type": "note",
          "pitch": 42,
          "duration_ms": 186,
          "velocity": 90,
          "beat_index": 880,
          "section": "drop"
        },
        {
          "t": 91241,
          "type": "note",
          "pitch": 45,
          "duration_ms": 186,
          "velocity": 70,
          "beat_index": 882,
          "section": "drop"
        },
        {
          "t": 91448,
          "type": "note",
          "pitch": 47,
          "duration_ms": 186,
          "velocity": 90,
          "beat_index": 884,
          "section": "drop"
        },
        {
          "t": 91655,
          "type": "note",
          "pitch": 49,
          "duration_ms": 186,
          "velocity": 70,
          "beat_index": 886,
          "section": "drop"
        },
        {
          "t": 91862,
          "type": "note",
          "pitch": 42,
          "duration_ms": 186,
          "velocity": 90,
          "beat_index": 888,
          "section": "drop"
        },
        {
          "t": 92068,
          "type": "note",
          "pitch": 45,
          "duration_ms": 186,
          "velocity": 70,
          "beat_index": 890,
          "section": "drop"
        },
        {
          "t": 92275,
          "type": "note",
          "pitch": 49,
          "duration_ms": 186,
          "velocity": 90,
          "beat_index": 892,
          "section": "drop"
        },
        {
          "t": 92482,
          "type": "note",
          "pitch": 47,
          "duration_ms": 186,
          "velocity": 70,
          "beat_index": 894,
          "section": "drop"
        },
        {
          "t": 119172,
          "type": "note",
          "pitch": 42,
          "duration_ms": 186,
          "velocity": 90,
          "beat_index": 1152,
          "section": "drop"
        },
        {
          "t": 119379,
          "type": "note",
          "pitch": 45,
          "duration_ms": 186,
          "velocity": 70,
          "beat_index": 1154,
          "section": "drop"
        },
        {
          "t": 119586,
          "type": "note",
          "pitch": 47,
          "duration_ms": 186,
          "velocity": 90,
          "beat_index": 1156,
          "section": "drop"
        },
        {
          "t": 119793,
          "type": "note",
          "pitch": 49,
          "duration_ms": 186,
          "velocity": 70,
          "beat_index": 1158,
          "section": "drop"
        },
        {
          "t": 119999,
          "type": "note",
          "pitch": 42,
          "duration_ms": 186,
          "velocity": 90,
          "beat_index": 1160,
          "section": "drop"
        },
        {
          "t": 120206,
          "type": "note",
          "pitch": 45,
          "duration_ms": 186,
          "velocity": 70,
          "beat_index": 1162,
          "section": "drop"
        },
        {
          "t": 120413,
          "type": "note",
          "pitch": 49,
          "duration_ms": 186,
          "velocity": 90,
          "beat_index": 1164,
          "section": "drop"
        },
        {
          "t": 120620,
          "type": "note",
          "pitch": 47,
          "duration_ms": 186,
          "velocity": 70,
          "beat_index": 1166,
          "section": "drop"
        },
        {
          "t": 120827,
          "type": "note",
          "pitch": 42,
          "duration_ms": 186,
          "velocity": 90,
          "beat_index": 1168,
          "section": "drop"
        },
        {
          "t": 121034,
          "type": "note",
          "pitch": 45,
          "duration_ms": 186,
          "velocity": 70,
          "beat_index": 1170,
          "section": "drop"
        },
        {
          "t": 121241,
          "type": "note",
          "pitch": 47,
          "duration_ms": 186,
          "velocity": 90,
          "beat_index": 1172,
          "section": "drop"
        },
        {
          "t": 121448,
          "type": "note",
          "pitch": 49,
          "duration_ms": 186,
          "velocity": 70,
          "beat_index": 1174,
          "section": "drop"
        },
        {
          "t": 121655,
          "type": "note",
          "pitch": 42,
          "duration_ms": 186,
          "velocity": 90,
          "beat_index": 1176,
          "section": "drop"
        },
        {
          "t": 121862,
          "type": "note",
          "pitch": 45,
          "duration_ms": 186,
          "velocity": 70,
          "beat_index": 1178,
          "section": "drop"
        },
        {
          "t": 122068,
          "type": "note",
          "pitch": 49,
          "duration_ms": 186,
          "velocity": 90,
          "beat_index": 1180,
          "section": "drop"
        },
        {
          "t": 122275,
          "type": "note",
          "pitch": 47,
          "duration_ms": 186,
          "velocity": 70,
          "beat_index": 1182,
          "section": "drop"
        },
        {
          "t": 122482,
          "type": "note",
          "pitch": 42,
          "duration_ms": 186,
          "velocity": 90,
          "beat_index": 1184,
          "section": "drop"
        },
        {
          "t": 122689,
          "type": "note",
          "pitch": 45,
          "duration_ms": 186,
          "velocity": 70,
          "beat_index": 1186,
          "section": "drop"
        },
        {
          "t": 122896,
          "type": "note",
          "pitch": 47,
          "duration_ms": 186,
          "velocity": 90,
          "beat_index": 1188,
          "section": "drop"
        },
        {
          "t": 123103,
          "type": "note",
          "pitch": 49,
          "duration_ms": 186,
          "velocity": 70,
          "beat_index": 1190,
          "section": "drop"
        },
        {
          "t": 123310,
          "type": "note",
          "pitch": 42,
          "duration_ms": 186,
          "velocity": 90,
          "beat_index": 1192,
          "section": "drop"
        },
        {
          "t": 123517,
          "type": "note",
          "pitch": 45,
          "duration_ms": 186,
          "velocity": 70,
          "beat_index": 1194,
          "section": "drop"
        },
        {
          "t": 123724,
          "type": "note",
          "pitch": 49,
          "duration_ms": 186,
          "velocity": 90,
          "beat_index": 1196,
          "section": "drop"
        },
        {
          "t": 123931,
          "type": "note",
          "pitch": 47,
          "duration_ms": 186,
          "velocity": 70,
          "beat_index": 1198,
          "section": "drop"
        },
        {
          "t": 124137,
          "type": "note",
          "pitch": 42,
          "duration_ms": 186,
          "velocity": 90,
          "beat_index": 1200,
          "section": "drop"
        },
        {
          "t": 124344,
          "type": "note",
          "pitch": 45,
          "duration_ms": 186,
          "velocity": 70,
          "beat_index": 1202,
          "section": "drop"
        },
        {
          "t": 124551,
          "type": "note",
          "pitch": 47,
          "duration_ms": 186,
          "velocity": 90,
          "beat_index": 1204,
          "section": "drop"
        },
        {
          "t": 124758,
          "type": "note",
          "pitch": 49,
          "duration_ms": 186,
          "velocity": 70,
          "beat_index": 1206,
          "section": "drop"
        },
        {
          "t": 124965,
          "type": "note",
          "pitch": 42,
          "duration_ms": 186,
          "velocity": 90,
          "beat_index": 1208,
          "section": "drop"
        },
        {
          "t": 125172,
          "type": "note",
          "pitch": 45,
          "duration_ms": 186,
          "velocity": 70,
          "beat_index": 1210,
          "section": "drop"
        },
        {
          "t": 125379,
          "type": "note",
          "pitch": 49,
          "duration_ms": 186,
          "velocity": 90,
          "beat_index": 1212,
          "section": "drop"
        },
        {
          "t": 125586,
          "type": "note",
          "pitch": 47,
          "duration_ms": 186,
          "velocity": 70,
          "beat_index": 1214,
          "section": "drop"
        },
        {
          "t": 125793,
          "type": "note",
          "pitch": 42,
          "duration_ms": 186,
          "velocity": 90,
          "beat_index": 1216,
          "section": "drop"
        },
        {
          "t": 125999,
          "type": "note",
          "pitch": 45,
          "duration_ms": 186,
          "velocity": 70,
          "beat_index": 1218,
          "section": "drop"
        },
        {
          "t": 126206,
          "type": "note",
          "pitch": 47,
          "duration_ms": 186,
          "velocity": 90,
          "beat_index": 1220,
          "section": "drop"
        },
        {
          "t": 126413,
          "type": "note",
          "pitch": 49,
          "duration_ms": 186,
          "velocity": 70,
          "beat_index": 1222,
          "section": "drop"
        },
        {
          "t": 126620,
          "type": "note",
          "pitch": 42,
          "duration_ms": 186,
          "velocity": 90,
          "beat_index": 1224,
          "section": "drop"
        },
        {
          "t": 126827,
          "type": "note",
          "pitch": 45,
          "duration_ms": 186,
          "velocity": 70,
          "beat_index": 1226,
          "section": "drop"
        },
        {
          "t": 127034,
          "type": "note",
          "pitch": 49,
          "duration_ms": 186,
          "velocity": 90,
          "beat_index": 1228,
          "section": "drop"
        },
        {
          "t": 127241,
          "type": "note",
          "pitch": 47,
          "duration_ms": 186,
          "velocity": 70,
          "beat_index": 1230,
          "section": "drop"
        },
        {
          "t": 127448,
          "type": "note",
          "pitch": 42,
          "duration_ms": 186,
          "velocity": 90,
          "beat_index": 1232,
          "section": "drop"
        },
        {
          "t": 127655,
          "type": "note",
          "pitch": 45,
          "duration_ms": 186,
          "velocity": 70,
          "beat_index": 1234,
          "section": "drop"
        },
        {
          "t": 127862,
          "type": "note",
          "pitch": 47,
          "duration_ms": 186,
          "velocity": 90,
          "beat_index": 1236,
          "section": "drop"
        },
        {
          "t": 128068,
          "type": "note",
          "pitch": 49,
          "duration_ms": 186,
          "velocity": 70,
          "beat_index": 1238,
          "section": "drop"
        },
        {
          "t": 128275,
          "type": "note",
          "pitch": 42,
          "duration_ms": 186,
          "velocity": 90,
          "beat_index": 1240,
          "section": "drop"
        },
        {
          "t": 128482,
          "type": "note",
          "pitch": 45,
          "duration_ms": 186,
          "velocity": 70,
          "beat_index": 1242,
          "section": "drop"
        },
        {
          "t": 128689,
          "type": "note",
          "pitch": 49,
          "duration_ms": 186,
          "velocity": 90,
          "beat_index": 1244,
          "section": "drop"
        },
        {
          "t": 128896,
          "type": "note",
          "pitch": 47,
          "duration_ms": 186,
          "velocity": 70,
          "beat_index": 1246,
          "section": "drop"
        },
        {
          "t": 129103,
          "type": "note",
          "pitch": 42,
          "duration_ms": 186,
          "velocity": 90,
          "beat_index": 1248,
          "section": "drop"
        },
        {
          "t": 129310,
          "type": "note",
          "pitch": 45,
          "duration_ms": 186,
          "velocity": 70,
          "beat_index": 1250,
          "section": "drop"
        },
        {
          "t": 129517,
          "type": "note",
          "pitch": 47,
          "duration_ms": 186,
          "velocity": 90,
          "beat_index": 1252,
          "section": "drop"
        },
        {
          "t": 129724,
          "type": "note",
          "pitch": 49,
          "duration_ms": 186,
          "velocity": 70,
          "beat_index": 1254,
          "section": "drop"
        },
        {
          "t": 129931,
          "type": "note",
          "pitch": 42,
          "duration_ms": 186,
          "velocity": 90,
          "beat_index": 1256,
          "section": "drop"
        },
        {
          "t": 130137,
          "type": "note",
          "pitch": 45,
          "duration_ms": 186,
          "velocity": 70,
          "beat_index": 1258,
          "section": "drop"
        },
        {
          "t": 130344,
          "type": "note",
          "pitch": 49,
          "duration_ms": 186,
          "velocity": 90,
          "beat_index": 1260,
          "section": "drop"
        },
        {
          "t": 130551,
          "type": "note",
          "pitch": 47,
          "duration_ms": 186,
          "velocity": 70,
          "beat_index": 1262,
          "section": "drop"
        },
        {
          "t": 130758,
          "type": "note",
          "pitch": 42,
          "duration_ms": 186,
          "velocity": 90,
          "beat_index": 1264,
          "section": "drop"
        },
        {
          "t": 130965,
          "type": "note",
          "pitch": 45,
          "duration_ms": 186,
          "velocity": 70,
          "beat_index": 1266,
          "section": "drop"
        },
        {
          "t": 131172,
          "type": "note",
          "pitch": 47,
          "duration_ms": 186,
          "velocity": 90,
          "beat_index": 1268,
          "section": "drop"
        },
        {
          "t": 131379,
          "type": "note",
          "pitch": 49,
          "duration_ms": 186,
          "velocity": 70,
          "beat_index": 1270,
          "section": "drop"
        },
        {
          "t": 131586,
          "type": "note",
          "pitch": 42,
          "duration_ms": 186,
          "velocity": 90,
          "beat_index": 1272,
          "section": "drop"
        },
        {
          "t": 131793,
          "type": "note",
          "pitch": 45,
          "duration_ms": 186,
          "velocity": 70,
          "beat_index": 1274,
          "section": "drop"
        },
        {
          "t": 131999,
          "type": "note",
          "pitch": 49,
          "duration_ms": 186,
          "velocity": 90,
          "beat_index": 1276,
          "section": "drop"
        },
        {
          "t": 132206,
          "type": "note",
          "pitch": 47,
          "duration_ms": 186,
          "velocity": 70,
          "beat_index": 1278,
          "section": "drop"
        },
        {
          "t": 132413,
          "type": "note",
          "pitch": 42,
          "duration_ms": 186,
          "velocity": 90,
          "beat_index": 1280,
          "section": "drop"
        },
        {
          "t": 132620,
          "type": "note",
          "pitch": 45,
          "duration_ms": 186,
          "velocity": 70,
          "beat_index": 1282,
          "section": "drop"
        },
        {
          "t": 132827,
          "type": "note",
          "pitch": 47,
          "duration_ms": 186,
          "velocity": 90,
          "beat_index": 1284,
          "section": "drop"
        },
        {
          "t": 133034,
          "type": "note",
          "pitch": 49,
          "duration_ms": 186,
          "velocity": 70,
          "beat_index": 1286,
          "section": "drop"
        },
        {
          "t": 133241,
          "type": "note",
          "pitch": 42,
          "duration_ms": 186,
          "velocity": 90,
          "beat_index": 1288,
          "section": "drop"
        },
        {
          "t": 133448,
          "type": "note",
          "pitch": 45,
          "duration_ms": 186,
          "velocity": 70,
          "beat_index": 1290,
          "section": "drop"
        },
        {
          "t": 133655,
          "type": "note",
          "pitch": 49,
          "duration_ms": 186,
          "velocity": 90,
          "beat_index": 1292,
          "section": "drop"
        },
        {
          "t": 133862,
          "type": "note",
          "pitch": 47,
          "duration_ms": 186,
          "velocity": 70,
          "beat_index": 1294,
          "section": "drop"
        },
        {
          "t": 134068,
          "type": "note",
          "pitch": 42,
          "duration_ms": 186,
          "velocity": 90,
          "beat_index": 1296,
          "section": "drop"
        },
        {
          "t": 134275,
          "type": "note",
          "pitch": 45,
          "duration_ms": 186,
          "velocity": 70,
          "beat_index": 1298,
          "section": "drop"
        },
        {
          "t": 134482,
          "type": "note",
          "pitch": 47,
          "duration_ms": 186,
          "velocity": 90,
          "beat_index": 1300,
          "section": "drop"
        },
        {
          "t": 134689,
          "type": "note",
          "pitch": 49,
          "duration_ms": 186,
          "velocity": 70,
          "beat_index": 1302,
          "section": "drop"
        },
        {
          "t": 134896,
          "type": "note",
          "pitch": 42,
          "duration_ms": 186,
          "velocity": 90,
          "beat_index": 1304,
          "section": "drop"
        },
        {
          "t": 135103,
          "type": "note",
          "pitch": 45,
          "duration_ms": 186,
          "velocity": 70,
          "beat_index": 1306,
          "section": "drop"
        },
        {
          "t": 135310,
          "type": "note",
          "pitch": 49,
          "duration_ms": 186,
          "velocity": 90,
          "beat_index": 1308,
          "section": "drop"
        },
        {
          "t": 135517,
          "type": "note",
          "pitch": 47,
          "duration_ms": 186,
          "velocity": 70,
          "beat_index": 1310,
          "section": "drop"
        },
        {
          "t": 135724,
          "type": "note",
          "pitch": 42,
          "duration_ms": 186,
          "velocity": 90,
          "beat_index": 1312,
          "section": "drop"
        },
        {
          "t": 135931,
          "type": "note",
          "pitch": 45,
          "duration_ms": 186,
          "velocity": 70,
          "beat_index": 1314,
          "section": "drop"
        },
        {
          "t": 136137,
          "type": "note",
          "pitch": 47,
          "duration_ms": 186,
          "velocity": 90,
          "beat_index": 1316,
          "section": "drop"
        },
        {
          "t": 136344,
          "type": "note",
          "pitch": 49,
          "duration_ms": 186,
          "velocity": 70,
          "beat_index": 1318,
          "section": "drop"
        },
        {
          "t": 136551,
          "type": "note",
          "pitch": 42,
          "duration_ms": 186,
          "velocity": 90,
          "beat_index": 1320,
          "section": "drop"
        },
        {
          "t": 136758,
          "type": "note",
          "pitch": 45,
          "duration_ms": 186,
          "velocity": 70,
          "beat_index": 1322,
          "section": "drop"
        },
        {
          "t": 136965,
          "type": "note",
          "pitch": 49,
          "duration_ms": 186,
          "velocity": 90,
          "beat_index": 1324,
          "section": "drop"
        },
        {
          "t": 137172,
          "type": "note",
          "pitch": 47,
          "duration_ms": 186,
          "velocity": 70,
          "beat_index": 1326,
          "section": "drop"
        },
        {
          "t": 137379,
          "type": "note",
          "pitch": 42,
          "duration_ms": 186,
          "velocity": 90,
          "beat_index": 1328,
          "section": "drop"
        },
        {
          "t": 137586,
          "type": "note",
          "pitch": 45,
          "duration_ms": 186,
          "velocity": 70,
          "beat_index": 1330,
          "section": "drop"
        },
        {
          "t": 137793,
          "type": "note",
          "pitch": 47,
          "duration_ms": 186,
          "velocity": 90,
          "beat_index": 1332,
          "section": "drop"
        },
        {
          "t": 137999,
          "type": "note",
          "pitch": 49,
          "duration_ms": 186,
          "velocity": 70,
          "beat_index": 1334,
          "section": "drop"
        },
        {
          "t": 138206,
          "type": "note",
          "pitch": 42,
          "duration_ms": 186,
          "velocity": 90,
          "beat_index": 1336,
          "section": "drop"
        },
        {
          "t": 138413,
          "type": "note",
          "pitch": 45,
          "duration_ms": 186,
          "velocity": 70,
          "beat_index": 1338,
          "section": "drop"
        },
        {
          "t": 138620,
          "type": "note",
          "pitch": 49,
          "duration_ms": 186,
          "velocity": 90,
          "beat_index": 1340,
          "section": "drop"
        },
        {
          "t": 138827,
          "type": "note",
          "pitch": 47,
          "duration_ms": 186,
          "velocity": 70,
          "beat_index": 1342,
          "section": "drop"
        },
        {
          "t": 139034,
          "type": "note",
          "pitch": 42,
          "duration_ms": 186,
          "velocity": 90,
          "beat_index": 1344,
          "section": "drop"
        },
        {
          "t": 139241,
          "type": "note",
          "pitch": 45,
          "duration_ms": 186,
          "velocity": 70,
          "beat_index": 1346,
          "section": "drop"
        },
        {
          "t": 139448,
          "type": "note",
          "pitch": 47,
          "duration_ms": 186,
          "velocity": 90,
          "beat_index": 1348,
          "section": "drop"
        },
        {
          "t": 139655,
          "type": "note",
          "pitch": 49,
          "duration_ms": 186,
          "velocity": 70,
          "beat_index": 1350,
          "section": "drop"
        },
        {
          "t": 139862,
          "type": "note",
          "pitch": 42,
          "duration_ms": 186,
          "velocity": 90,
          "beat_index": 1352,
          "section": "drop"
        },
        {
          "t": 140068,
          "type": "note",
          "pitch": 45,
          "duration_ms": 186,
          "velocity": 70,
          "beat_index": 1354,
          "section": "drop"
        },
        {
          "t": 140275,
          "type": "note",
          "pitch": 49,
          "duration_ms": 186,
          "velocity": 90,
          "beat_index": 1356,
          "section": "drop"
        },
        {
          "t": 140482,
          "type": "note",
          "pitch": 47,
          "duration_ms": 186,
          "velocity": 70,
          "beat_index": 1358,
          "section": "drop"
        },
        {
          "t": 140689,
          "type": "note",
          "pitch": 42,
          "duration_ms": 186,
          "velocity": 90,
          "beat_index": 1360,
          "section": "drop"
        },
        {
          "t": 140896,
          "type": "note",
          "pitch": 45,
          "duration_ms": 186,
          "velocity": 70,
          "beat_index": 1362,
          "section": "drop"
        },
        {
          "t": 141103,
          "type": "note",
          "pitch": 47,
          "duration_ms": 186,
          "velocity": 90,
          "beat_index": 1364,
          "section": "drop"
        },
        {
          "t": 141310,
          "type": "note",
          "pitch": 49,
          "duration_ms": 186,
          "velocity": 70,
          "beat_index": 1366,
          "section": "drop"
        },
        {
          "t": 141517,
          "type": "note",
          "pitch": 42,
          "duration_ms": 186,
          "velocity": 90,
          "beat_index": 1368,
          "section": "drop"
        },
        {
          "t": 141724,
          "type": "note",
          "pitch": 45,
          "duration_ms": 186,
          "velocity": 70,
          "beat_index": 1370,
          "section": "drop"
        },
        {
          "t": 141931,
          "type": "note",
          "pitch": 49,
          "duration_ms": 186,
          "velocity": 90,
          "beat_index": 1372,
          "section": "drop"
        },
        {
          "t": 142137,
          "type": "note",
          "pitch": 47,
          "duration_ms": 186,
          "velocity": 70,
          "beat_index": 1374,
          "section": "drop"
        },
        {
          "t": 142344,
          "type": "note",
          "pitch": 42,
          "duration_ms": 186,
          "velocity": 90,
          "beat_index": 1376,
          "section": "drop"
        },
        {
          "t": 142551,
          "type": "note",
          "pitch": 45,
          "duration_ms": 186,
          "velocity": 70,
          "beat_index": 1378,
          "section": "drop"
        },
        {
          "t": 142758,
          "type": "note",
          "pitch": 47,
          "duration_ms": 186,
          "velocity": 90,
          "beat_index": 1380,
          "section": "drop"
        },
        {
          "t": 142965,
          "type": "note",
          "pitch": 49,
          "duration_ms": 186,
          "velocity": 70,
          "beat_index": 1382,
          "section": "drop"
        },
        {
          "t": 143172,
          "type": "note",
          "pitch": 42,
          "duration_ms": 186,
          "velocity": 90,
          "beat_index": 1384,
          "section": "drop"
        },
        {
          "t": 143379,
          "type": "note",
          "pitch": 45,
          "duration_ms": 186,
          "velocity": 70,
          "beat_index": 1386,
          "section": "drop"
        },
        {
          "t": 143586,
          "type": "note",
          "pitch": 49,
          "duration_ms": 186,
          "velocity": 90,
          "beat_index": 1388,
          "section": "drop"
        },
        {
          "t": 143793,
          "type": "note",
          "pitch": 47,
          "duration_ms": 186,
          "velocity": 70,
          "beat_index": 1390,
          "section": "drop"
        },
        {
          "t": 143999,
          "type": "note",
          "pitch": 42,
          "duration_ms": 186,
          "velocity": 90,
          "beat_index": 1392,
          "section": "drop"
        },
        {
          "t": 144206,
          "type": "note",
          "pitch": 45,
          "duration_ms": 186,
          "velocity": 70,
          "beat_index": 1394,
          "section": "drop"
        },
        {
          "t": 144413,
          "type": "note",
          "pitch": 47,
          "duration_ms": 186,
          "velocity": 90,
          "beat_index": 1396,
          "section": "drop"
        },
        {
          "t": 144620,
          "type": "note",
          "pitch": 49,
          "duration_ms": 186,
          "velocity": 70,
          "beat_index": 1398,
          "section": "drop"
        },
        {
          "t": 144827,
          "type": "note",
          "pitch": 42,
          "duration_ms": 186,
          "velocity": 90,
          "beat_index": 1400,
          "section": "drop"
        },
        {
          "t": 145034,
          "type": "note",
          "pitch": 45,
          "duration_ms": 186,
          "velocity": 70,
          "beat_index": 1402,
          "section": "drop"
        },
        {
          "t": 145241,
          "type": "note",
          "pitch": 49,
          "duration_ms": 186,
          "velocity": 90,
          "beat_index": 1404,
          "section": "drop"
        },
        {
          "t": 145448,
          "type": "note",
          "pitch": 47,
          "duration_ms": 186,
          "velocity": 70,
          "beat_index": 1406,
          "section": "drop"
        },
        {
          "t": 145655,
          "type": "note",
          "pitch": 42,
          "duration_ms": 186,
          "velocity": 90,
          "beat_index": 1408,
          "section": "drop"
        },
        {
          "t": 145862,
          "type": "note",
          "pitch": 45,
          "duration_ms": 186,
          "velocity": 70,
          "beat_index": 1410,
          "section": "drop"
        },
        {
          "t": 146068,
          "type": "note",
          "pitch": 47,
          "duration_ms": 186,
          "velocity": 90,
          "beat_index": 1412,
          "section": "drop"
        },
        {
          "t": 146275,
          "type": "note",
          "pitch": 49,
          "duration_ms": 186,
          "velocity": 70,
          "beat_index": 1414,
          "section": "drop"
        },
        {
          "t": 146482,
          "type": "note",
          "pitch": 42,
          "duration_ms": 186,
          "velocity": 90,
          "beat_index": 1416,
          "section": "drop"
        },
        {
          "t": 146689,
          "type": "note",
          "pitch": 45,
          "duration_ms": 186,
          "velocity": 70,
          "beat_index": 1418,
          "section": "drop"
        },
        {
          "t": 146896,
          "type": "note",
          "pitch": 49,
          "duration_ms": 186,
          "velocity": 90,
          "beat_index": 1420,
          "section": "drop"
        },
        {
          "t": 147103,
          "type": "note",
          "pitch": 47,
          "duration_ms": 186,
          "velocity": 70,
          "beat_index": 1422,
          "section": "drop"
        },
        {
          "t": 147310,
          "type": "note",
          "pitch": 42,
          "duration_ms": 186,
          "velocity": 90,
          "beat_index": 1424,
          "section": "drop"
        },
        {
          "t": 147517,
          "type": "note",
          "pitch": 45,
          "duration_ms": 186,
          "velocity": 70,
          "beat_index": 1426,
          "section": "drop"
        },
        {
          "t": 147724,
          "type": "note",
          "pitch": 47,
          "duration_ms": 186,
          "velocity": 90,
          "beat_index": 1428,
          "section": "drop"
        },
        {
          "t": 147931,
          "type": "note",
          "pitch": 49,
          "duration_ms": 186,
          "velocity": 70,
          "beat_index": 1430,
          "section": "drop"
        },
        {
          "t": 148137,
          "type": "note",
          "pitch": 42,
          "duration_ms": 186,
          "velocity": 90,
          "beat_index": 1432,
          "section": "drop"
        },
        {
          "t": 148344,
          "type": "note",
          "pitch": 45,
          "duration_ms": 186,
          "velocity": 70,
          "beat_index": 1434,
          "section": "drop"
        },
        {
          "t": 148551,
          "type": "note",
          "pitch": 49,
          "duration_ms": 186,
          "velocity": 90,
          "beat_index": 1436,
          "section": "drop"
        },
        {
          "t": 148758,
          "type": "note",
          "pitch": 47,
          "duration_ms": 186,
          "velocity": 70,
          "beat_index": 1438,
          "section": "drop"
        },
        {
          "t": 148965,
          "type": "note",
          "pitch": 42,
          "duration_ms": 186,
          "velocity": 90,
          "beat_index": 1440,
          "section": "drop"
        },
        {
          "t": 149172,
          "type": "note",
          "pitch": 45,
          "duration_ms": 186,
          "velocity": 70,
          "beat_index": 1442,
          "section": "drop"
        },
        {
          "t": 149379,
          "type": "note",
          "pitch": 47,
          "duration_ms": 186,
          "velocity": 90,
          "beat_index": 1444,
          "section": "drop"
        },
        {
          "t": 149586,
          "type": "note",
          "pitch": 49,
          "duration_ms": 186,
          "velocity": 70,
          "beat_index": 1446,
          "section": "drop"
        },
        {
          "t": 149793,
          "type": "note",
          "pitch": 42,
          "duration_ms": 186,
          "velocity": 90,
          "beat_index": 1448,
          "section": "drop"
        },
        {
          "t": 149999,
          "type": "note",
          "pitch": 45,
          "duration_ms": 186,
          "velocity": 70,
          "beat_index": 1450,
          "section": "drop"
        },
        {
          "t": 150206,
          "type": "note",
          "pitch": 49,
          "duration_ms": 186,
          "velocity": 90,
          "beat_index": 1452,
          "section": "drop"
        },
        {
          "t": 150413,
          "type": "note",
          "pitch": 47,
          "duration_ms": 186,
          "velocity": 70,
          "beat_index": 1454,
          "section": "drop"
        },
        {
          "t": 150620,
          "type": "note",
          "pitch": 42,
          "duration_ms": 186,
          "velocity": 90,
          "beat_index": 1456,
          "section": "drop"
        },
        {
          "t": 150827,
          "type": "note",
          "pitch": 45,
          "duration_ms": 186,
          "velocity": 70,
          "beat_index": 1458,
          "section": "drop"
        },
        {
          "t": 151034,
          "type": "note",
          "pitch": 47,
          "duration_ms": 186,
          "velocity": 90,
          "beat_index": 1460,
          "section": "drop"
        },
        {
          "t": 151241,
          "type": "note",
          "pitch": 49,
          "duration_ms": 186,
          "velocity": 70,
          "beat_index": 1462,
          "section": "drop"
        },
        {
          "t": 151448,
          "type": "note",
          "pitch": 42,
          "duration_ms": 186,
          "velocity": 90,
          "beat_index": 1464,
          "section": "drop"
        },
        {
          "t": 151655,
          "type": "note",
          "pitch": 45,
          "duration_ms": 186,
          "velocity": 70,
          "beat_index": 1466,
          "section": "drop"
        },
        {
          "t": 151862,
          "type": "note",
          "pitch": 49,
          "duration_ms": 186,
          "velocity": 90,
          "beat_index": 1468,
          "section": "drop"
        },
        {
          "t": 152068,
          "type": "note",
          "pitch": 47,
          "duration_ms": 186,
          "velocity": 70,
          "beat_index": 1470,
          "section": "drop"
        },
        {
          "t": 152275,
          "type": "note",
          "pitch": 42,
          "duration_ms": 186,
          "velocity": 90,
          "beat_index": 1472,
          "section": "drop"
        },
        {
          "t": 152482,
          "type": "note",
          "pitch": 45,
          "duration_ms": 186,
          "velocity": 70,
          "beat_index": 1474,
          "section": "drop"
        },
        {
          "t": 152689,
          "type": "note",
          "pitch": 47,
          "duration_ms": 186,
          "velocity": 90,
          "beat_index": 1476,
          "section": "drop"
        },
        {
          "t": 152896,
          "type": "note",
          "pitch": 49,
          "duration_ms": 186,
          "velocity": 70,
          "beat_index": 1478,
          "section": "drop"
        },
        {
          "t": 153103,
          "type": "note",
          "pitch": 42,
          "duration_ms": 186,
          "velocity": 90,
          "beat_index": 1480,
          "section": "drop"
        },
        {
          "t": 153310,
          "type": "note",
          "pitch": 45,
          "duration_ms": 186,
          "velocity": 70,
          "beat_index": 1482,
          "section": "drop"
        },
        {
          "t": 153517,
          "type": "note",
          "pitch": 49,
          "duration_ms": 186,
          "velocity": 90,
          "beat_index": 1484,
          "section": "drop"
        },
        {
          "t": 153724,
          "type": "note",
          "pitch": 47,
          "duration_ms": 186,
          "velocity": 70,
          "beat_index": 1486,
          "section": "drop"
        },
        {
          "t": 153931,
          "type": "note",
          "pitch": 42,
          "duration_ms": 186,
          "velocity": 90,
          "beat_index": 1488,
          "section": "drop"
        },
        {
          "t": 154137,
          "type": "note",
          "pitch": 45,
          "duration_ms": 186,
          "velocity": 70,
          "beat_index": 1490,
          "section": "drop"
        },
        {
          "t": 154344,
          "type": "note",
          "pitch": 47,
          "duration_ms": 186,
          "velocity": 90,
          "beat_index": 1492,
          "section": "drop"
        },
        {
          "t": 154551,
          "type": "note",
          "pitch": 49,
          "duration_ms": 186,
          "velocity": 70,
          "beat_index": 1494,
          "section": "drop"
        },
        {
          "t": 154758,
          "type": "note",
          "pitch": 42,
          "duration_ms": 186,
          "velocity": 90,
          "beat_index": 1496,
          "section": "drop"
        },
        {
          "t": 154965,
          "type": "note",
          "pitch": 45,
          "duration_ms": 186,
          "velocity": 70,
          "beat_index": 1498,
          "section": "drop"
        },
        {
          "t": 155172,
          "type": "note",
          "pitch": 49,
          "duration_ms": 186,
          "velocity": 90,
          "beat_index": 1500,
          "section": "drop"
        },
        {
          "t": 155379,
          "type": "note",
          "pitch": 47,
          "duration_ms": 186,
          "velocity": 70,
          "beat_index": 1502,
          "section": "drop"
        },
        {
          "t": 155586,
          "type": "note",
          "pitch": 42,
          "duration_ms": 186,
          "velocity": 90,
          "beat_index": 1504,
          "section": "drop"
        },
        {
          "t": 155793,
          "type": "note",
          "pitch": 45,
          "duration_ms": 186,
          "velocity": 70,
          "beat_index": 1506,
          "section": "drop"
        },
        {
          "t": 155999,
          "type": "note",
          "pitch": 47,
          "duration_ms": 186,
          "velocity": 90,
          "beat_index": 1508,
          "section": "drop"
        },
        {
          "t": 156206,
          "type": "note",
          "pitch": 49,
          "duration_ms": 186,
          "velocity": 70,
          "beat_index": 1510,
          "section": "drop"
        },
        {
          "t": 156413,
          "type": "note",
          "pitch": 42,
          "duration_ms": 186,
          "velocity": 90,
          "beat_index": 1512,
          "section": "drop"
        },
        {
          "t": 156620,
          "type": "note",
          "pitch": 45,
          "duration_ms": 186,
          "velocity": 70,
          "beat_index": 1514,
          "section": "drop"
        },
        {
          "t": 156827,
          "type": "note",
          "pitch": 49,
          "duration_ms": 186,
          "velocity": 90,
          "beat_index": 1516,
          "section": "drop"
        },
        {
          "t": 157034,
          "type": "note",
          "pitch": 47,
          "duration_ms": 186,
          "velocity": 70,
          "beat_index": 1518,
          "section": "drop"
        },
        {
          "t": 157241,
          "type": "note",
          "pitch": 42,
          "duration_ms": 186,
          "velocity": 90,
          "beat_index": 1520,
          "section": "drop"
        },
        {
          "t": 157448,
          "type": "note",
          "pitch": 45,
          "duration_ms": 186,
          "velocity": 70,
          "beat_index": 1522,
          "section": "drop"
        },
        {
          "t": 157655,
          "type": "note",
          "pitch": 47,
          "duration_ms": 186,
          "velocity": 90,
          "beat_index": 1524,
          "section": "drop"
        },
        {
          "t": 157862,
          "type": "note",
          "pitch": 49,
          "duration_ms": 186,
          "velocity": 70,
          "beat_index": 1526,
          "section": "drop"
        },
        {
          "t": 158068,
          "type": "note",
          "pitch": 42,
          "duration_ms": 186,
          "velocity": 90,
          "beat_index": 1528,
          "section": "drop"
        },
        {
          "t": 158275,
          "type": "note",
          "pitch": 45,
          "duration_ms": 186,
          "velocity": 70,
          "beat_index": 1530,
          "section": "drop"
        },
        {
          "t": 158482,
          "type": "note",
          "pitch": 49,
          "duration_ms": 186,
          "velocity": 90,
          "beat_index": 1532,
          "section": "drop"
        },
        {
          "t": 158689,
          "type": "note",
          "pitch": 47,
          "duration_ms": 186,
          "velocity": 70,
          "beat_index": 1534,
          "section": "drop"
        },
        {
          "t": 158896,
          "type": "note",
          "pitch": 42,
          "duration_ms": 186,
          "velocity": 90,
          "beat_index": 1536,
          "section": "drop"
        },
        {
          "t": 159103,
          "type": "note",
          "pitch": 45,
          "duration_ms": 186,
          "velocity": 70,
          "beat_index": 1538,
          "section": "drop"
        },
        {
          "t": 159310,
          "type": "note",
          "pitch": 47,
          "duration_ms": 186,
          "velocity": 90,
          "beat_index": 1540,
          "section": "drop"
        },
        {
          "t": 159517,
          "type": "note",
          "pitch": 49,
          "duration_ms": 186,
          "velocity": 70,
          "beat_index": 1542,
          "section": "drop"
        },
        {
          "t": 159724,
          "type": "note",
          "pitch": 42,
          "duration_ms": 186,
          "velocity": 90,
          "beat_index": 1544,
          "section": "drop"
        },
        {
          "t": 159931,
          "type": "note",
          "pitch": 45,
          "duration_ms": 186,
          "velocity": 70,
          "beat_index": 1546,
          "section": "drop"
        },
        {
          "t": 160137,
          "type": "note",
          "pitch": 49,
          "duration_ms": 186,
          "velocity": 90,
          "beat_index": 1548,
          "section": "drop"
        },
        {
          "t": 160344,
          "type": "note",
          "pitch": 47,
          "duration_ms": 186,
          "velocity": 70,
          "beat_index": 1550,
          "section": "drop"
        },
        {
          "t": 160551,
          "type": "note",
          "pitch": 42,
          "duration_ms": 186,
          "velocity": 90,
          "beat_index": 1552,
          "section": "drop"
        },
        {
          "t": 160758,
          "type": "note",
          "pitch": 45,
          "duration_ms": 186,
          "velocity": 70,
          "beat_index": 1554,
          "section": "drop"
        },
        {
          "t": 160965,
          "type": "note",
          "pitch": 47,
          "duration_ms": 186,
          "velocity": 90,
          "beat_index": 1556,
          "section": "drop"
        },
        {
          "t": 161172,
          "type": "note",
          "pitch": 49,
          "duration_ms": 186,
          "velocity": 70,
          "beat_index": 1558,
          "section": "drop"
        },
        {
          "t": 161379,
          "type": "note",
          "pitch": 42,
          "duration_ms": 186,
          "velocity": 90,
          "beat_index": 1560,
          "section": "drop"
        },
        {
          "t": 161586,
          "type": "note",
          "pitch": 45,
          "duration_ms": 186,
          "velocity": 70,
          "beat_index": 1562,
          "section": "drop"
        },
        {
          "t": 161793,
          "type": "note",
          "pitch": 49,
          "duration_ms": 186,
          "velocity": 90,
          "beat_index": 1564,
          "section": "drop"
        },
        {
          "t": 161999,
          "type": "note",
          "pitch": 47,
          "duration_ms": 186,
          "velocity": 70,
          "beat_index": 1566,
          "section": "drop"
        },
        {
          "t": 162206,
          "type": "note",
          "pitch": 42,
          "duration_ms": 186,
          "velocity": 90,
          "beat_index": 1568,
          "section": "drop"
        },
        {
          "t": 162413,
          "type": "note",
          "pitch": 45,
          "duration_ms": 186,
          "velocity": 70,
          "beat_index": 1570,
          "section": "drop"
        },
        {
          "t": 162620,
          "type": "note",
          "pitch": 47,
          "duration_ms": 186,
          "velocity": 90,
          "beat_index": 1572,
          "section": "drop"
        },
        {
          "t": 162827,
          "type": "note",
          "pitch": 49,
          "duration_ms": 186,
          "velocity": 70,
          "beat_index": 1574,
          "section": "drop"
        },
        {
          "t": 163034,
          "type": "note",
          "pitch": 42,
          "duration_ms": 186,
          "velocity": 90,
          "beat_index": 1576,
          "section": "drop"
        },
        {
          "t": 163241,
          "type": "note",
          "pitch": 45,
          "duration_ms": 186,
          "velocity": 70,
          "beat_index": 1578,
          "section": "drop"
        },
        {
          "t": 163448,
          "type": "note",
          "pitch": 49,
          "duration_ms": 186,
          "velocity": 90,
          "beat_index": 1580,
          "section": "drop"
        },
        {
          "t": 163655,
          "type": "note",
          "pitch": 47,
          "duration_ms": 186,
          "velocity": 70,
          "beat_index": 1582,
          "section": "drop"
        },
        {
          "t": 163862,
          "type": "note",
          "pitch": 42,
          "duration_ms": 186,
          "velocity": 90,
          "beat_index": 1584,
          "section": "drop"
        },
        {
          "t": 164068,
          "type": "note",
          "pitch": 45,
          "duration_ms": 186,
          "velocity": 70,
          "beat_index": 1586,
          "section": "drop"
        },
        {
          "t": 164275,
          "type": "note",
          "pitch": 47,
          "duration_ms": 186,
          "velocity": 90,
          "beat_index": 1588,
          "section": "drop"
        },
        {
          "t": 164482,
          "type": "note",
          "pitch": 49,
          "duration_ms": 186,
          "velocity": 70,
          "beat_index": 1590,
          "section": "drop"
        },
        {
          "t": 164689,
          "type": "note",
          "pitch": 42,
          "duration_ms": 186,
          "velocity": 90,
          "beat_index": 1592,
          "section": "drop"
        },
        {
          "t": 164896,
          "type": "note",
          "pitch": 45,
          "duration_ms": 186,
          "velocity": 70,
          "beat_index": 1594,
          "section": "drop"
        },
        {
          "t": 165103,
          "type": "note",
          "pitch": 49,
          "duration_ms": 186,
          "velocity": 90,
          "beat_index": 1596,
          "section": "drop"
        },
        {
          "t": 165310,
          "type": "note",
          "pitch": 47,
          "duration_ms": 186,
          "velocity": 70,
          "beat_index": 1598,
          "section": "drop"
        },
        {
          "t": 165517,
          "type": "note",
          "pitch": 42,
          "duration_ms": 186,
          "velocity": 90,
          "beat_index": 1600,
          "section": "drop"
        },
        {
          "t": 165724,
          "type": "note",
          "pitch": 45,
          "duration_ms": 186,
          "velocity": 70,
          "beat_index": 1602,
          "section": "drop"
        },
        {
          "t": 165931,
          "type": "note",
          "pitch": 47,
          "duration_ms": 186,
          "velocity": 90,
          "beat_index": 1604,
          "section": "drop"
        },
        {
          "t": 166137,
          "type": "note",
          "pitch": 49,
          "duration_ms": 186,
          "velocity": 70,
          "beat_index": 1606,
          "section": "drop"
        },
        {
          "t": 166344,
          "type": "note",
          "pitch": 42,
          "duration_ms": 186,
          "velocity": 90,
          "beat_index": 1608,
          "section": "drop"
        },
        {
          "t": 166551,
          "type": "note",
          "pitch": 45,
          "duration_ms": 186,
          "velocity": 70,
          "beat_index": 1610,
          "section": "drop"
        },
        {
          "t": 166758,
          "type": "note",
          "pitch": 49,
          "duration_ms": 186,
          "velocity": 90,
          "beat_index": 1612,
          "section": "drop"
        },
        {
          "t": 166965,
          "type": "note",
          "pitch": 47,
          "duration_ms": 186,
          "velocity": 70,
          "beat_index": 1614,
          "section": "drop"
        },
        {
          "t": 167172,
          "type": "note",
          "pitch": 42,
          "duration_ms": 186,
          "velocity": 90,
          "beat_index": 1616,
          "section": "drop"
        },
        {
          "t": 167379,
          "type": "note",
          "pitch": 45,
          "duration_ms": 186,
          "velocity": 70,
          "beat_index": 1618,
          "section": "drop"
        },
        {
          "t": 167586,
          "type": "note",
          "pitch": 47,
          "duration_ms": 186,
          "velocity": 90,
          "beat_index": 1620,
          "section": "drop"
        },
        {
          "t": 167793,
          "type": "note",
          "pitch": 49,
          "duration_ms": 186,
          "velocity": 70,
          "beat_index": 1622,
          "section": "drop"
        },
        {
          "t": 167999,
          "type": "note",
          "pitch": 42,
          "duration_ms": 186,
          "velocity": 90,
          "beat_index": 1624,
          "section": "drop"
        },
        {
          "t": 168206,
          "type": "note",
          "pitch": 45,
          "duration_ms": 186,
          "velocity": 70,
          "beat_index": 1626,
          "section": "drop"
        },
        {
          "t": 168413,
          "type": "note",
          "pitch": 49,
          "duration_ms": 186,
          "velocity": 90,
          "beat_index": 1628,
          "section": "drop"
        },
        {
          "t": 168620,
          "type": "note",
          "pitch": 47,
          "duration_ms": 186,
          "velocity": 70,
          "beat_index": 1630,
          "section": "drop"
        },
        {
          "t": 168827,
          "type": "note",
          "pitch": 42,
          "duration_ms": 186,
          "velocity": 90,
          "beat_index": 1632,
          "section": "drop"
        },
        {
          "t": 169034,
          "type": "note",
          "pitch": 45,
          "duration_ms": 186,
          "velocity": 70,
          "beat_index": 1634,
          "section": "drop"
        },
        {
          "t": 169241,
          "type": "note",
          "pitch": 47,
          "duration_ms": 186,
          "velocity": 90,
          "beat_index": 1636,
          "section": "drop"
        },
        {
          "t": 169448,
          "type": "note",
          "pitch": 49,
          "duration_ms": 186,
          "velocity": 70,
          "beat_index": 1638,
          "section": "drop"
        },
        {
          "t": 169655,
          "type": "note",
          "pitch": 42,
          "duration_ms": 186,
          "velocity": 90,
          "beat_index": 1640,
          "section": "drop"
        },
        {
          "t": 169862,
          "type": "note",
          "pitch": 45,
          "duration_ms": 186,
          "velocity": 70,
          "beat_index": 1642,
          "section": "drop"
        },
        {
          "t": 170068,
          "type": "note",
          "pitch": 49,
          "duration_ms": 186,
          "velocity": 90,
          "beat_index": 1644,
          "section": "drop"
        },
        {
          "t": 170275,
          "type": "note",
          "pitch": 47,
          "duration_ms": 186,
          "velocity": 70,
          "beat_index": 1646,
          "section": "drop"
        },
        {
          "t": 170482,
          "type": "note",
          "pitch": 42,
          "duration_ms": 186,
          "velocity": 90,
          "beat_index": 1648,
          "section": "drop"
        },
        {
          "t": 170689,
          "type": "note",
          "pitch": 45,
          "duration_ms": 186,
          "velocity": 70,
          "beat_index": 1650,
          "section": "drop"
        },
        {
          "t": 170896,
          "type": "note",
          "pitch": 47,
          "duration_ms": 186,
          "velocity": 90,
          "beat_index": 1652,
          "section": "drop"
        },
        {
          "t": 171103,
          "type": "note",
          "pitch": 49,
          "duration_ms": 186,
          "velocity": 70,
          "beat_index": 1654,
          "section": "drop"
        },
        {
          "t": 171310,
          "type": "note",
          "pitch": 42,
          "duration_ms": 186,
          "velocity": 90,
          "beat_index": 1656,
          "section": "drop"
        },
        {
          "t": 171517,
          "type": "note",
          "pitch": 45,
          "duration_ms": 186,
          "velocity": 70,
          "beat_index": 1658,
          "section": "drop"
        },
        {
          "t": 171724,
          "type": "note",
          "pitch": 49,
          "duration_ms": 186,
          "velocity": 90,
          "beat_index": 1660,
          "section": "drop"
        },
        {
          "t": 171931,
          "type": "note",
          "pitch": 47,
          "duration_ms": 186,
          "velocity": 70,
          "beat_index": 1662,
          "section": "drop"
        },
        {
          "t": 172137,
          "type": "note",
          "pitch": 42,
          "duration_ms": 186,
          "velocity": 90,
          "beat_index": 1664,
          "section": "outro"
        },
        {
          "t": 172344,
          "type": "note",
          "pitch": 45,
          "duration_ms": 186,
          "velocity": 70,
          "beat_index": 1666,
          "section": "outro"
        },
        {
          "t": 172551,
          "type": "note",
          "pitch": 47,
          "duration_ms": 186,
          "velocity": 90,
          "beat_index": 1668,
          "section": "outro"
        },
        {
          "t": 172758,
          "type": "note",
          "pitch": 49,
          "duration_ms": 186,
          "velocity": 70,
          "beat_index": 1670,
          "section": "outro"
        },
        {
          "t": 172965,
          "type": "note",
          "pitch": 42,
          "duration_ms": 186,
          "velocity": 90,
          "beat_index": 1672,
          "section": "outro"
        },
        {
          "t": 173172,
          "type": "note",
          "pitch": 45,
          "duration_ms": 186,
          "velocity": 70,
          "beat_index": 1674,
          "section": "outro"
        },
        {
          "t": 173379,
          "type": "note",
          "pitch": 49,
          "duration_ms": 186,
          "velocity": 90,
          "beat_index": 1676,
          "section": "outro"
        },
        {
          "t": 173586,
          "type": "note",
          "pitch": 47,
          "duration_ms": 186,
          "velocity": 70,
          "beat_index": 1678,
          "section": "outro"
        },
        {
          "t": 173793,
          "type": "note",
          "pitch": 42,
          "duration_ms": 186,
          "velocity": 90,
          "beat_index": 1680,
          "section": "outro"
        },
        {
          "t": 173999,
          "type": "note",
          "pitch": 45,
          "duration_ms": 186,
          "velocity": 70,
          "beat_index": 1682,
          "section": "outro"
        },
        {
          "t": 174206,
          "type": "note",
          "pitch": 47,
          "duration_ms": 186,
          "velocity": 90,
          "beat_index": 1684,
          "section": "outro"
        },
        {
          "t": 174413,
          "type": "note",
          "pitch": 49,
          "duration_ms": 186,
          "velocity": 70,
          "beat_index": 1686,
          "section": "outro"
        },
        {
          "t": 174620,
          "type": "note",
          "pitch": 42,
          "duration_ms": 186,
          "velocity": 90,
          "beat_index": 1688,
          "section": "outro"
        },
        {
          "t": 174827,
          "type": "note",
          "pitch": 45,
          "duration_ms": 186,
          "velocity": 70,
          "beat_index": 1690,
          "section": "outro"
        },
        {
          "t": 175034,
          "type": "note",
          "pitch": 49,
          "duration_ms": 186,
          "velocity": 90,
          "beat_index": 1692,
          "section": "outro"
        },
        {
          "t": 175241,
          "type": "note",
          "pitch": 47,
          "duration_ms": 186,
          "velocity": 70,
          "beat_index": 1694,
          "section": "outro"
        },
        {
          "t": 175448,
          "type": "note",
          "pitch": 42,
          "duration_ms": 186,
          "velocity": 90,
          "beat_index": 1696,
          "section": "outro"
        },
        {
          "t": 175655,
          "type": "note",
          "pitch": 45,
          "duration_ms": 186,
          "velocity": 70,
          "beat_index": 1698,
          "section": "outro"
        },
        {
          "t": 175862,
          "type": "note",
          "pitch": 47,
          "duration_ms": 186,
          "velocity": 90,
          "beat_index": 1700,
          "section": "outro"
        },
        {
          "t": 176068,
          "type": "note",
          "pitch": 49,
          "duration_ms": 186,
          "velocity": 70,
          "beat_index": 1702,
          "section": "outro"
        },
        {
          "t": 176275,
          "type": "note",
          "pitch": 42,
          "duration_ms": 186,
          "velocity": 90,
          "beat_index": 1704,
          "section": "outro"
        },
        {
          "t": 176482,
          "type": "note",
          "pitch": 45,
          "duration_ms": 186,
          "velocity": 70,
          "beat_index": 1706,
          "section": "outro"
        },
        {
          "t": 176689,
          "type": "note",
          "pitch": 49,
          "duration_ms": 186,
          "velocity": 90,
          "beat_index": 1708,
          "section": "outro"
        },
        {
          "t": 176896,
          "type": "note",
          "pitch": 47,
          "duration_ms": 186,
          "velocity": 70,
          "beat_index": 1710,
          "section": "outro"
        },
        {
          "t": 177103,
          "type": "note",
          "pitch": 42,
          "duration_ms": 186,
          "velocity": 90,
          "beat_index": 1712,
          "section": "outro"
        },
        {
          "t": 177310,
          "type": "note",
          "pitch": 45,
          "duration_ms": 186,
          "velocity": 70,
          "beat_index": 1714,
          "section": "outro"
        },
        {
          "t": 177517,
          "type": "note",
          "pitch": 47,
          "duration_ms": 186,
          "velocity": 90,
          "beat_index": 1716,
          "section": "outro"
        },
        {
          "t": 177724,
          "type": "note",
          "pitch": 49,
          "duration_ms": 186,
          "velocity": 70,
          "beat_index": 1718,
          "section": "outro"
        },
        {
          "t": 177931,
          "type": "note",
          "pitch": 42,
          "duration_ms": 186,
          "velocity": 90,
          "beat_index": 1720,
          "section": "outro"
        },
        {
          "t": 178137,
          "type": "note",
          "pitch": 45,
          "duration_ms": 186,
          "velocity": 70,
          "beat_index": 1722,
          "section": "outro"
        },
        {
          "t": 178344,
          "type": "note",
          "pitch": 49,
          "duration_ms": 186,
          "velocity": 90,
          "beat_index": 1724,
          "section": "outro"
        },
        {
          "t": 178551,
          "type": "note",
          "pitch": 47,
          "duration_ms": 186,
          "velocity": 70,
          "beat_index": 1726,
          "section": "outro"
        },
        {
          "t": 178758,
          "type": "note",
          "pitch": 42,
          "duration_ms": 186,
          "velocity": 90,
          "beat_index": 1728,
          "section": "outro"
        },
        {
          "t": 178965,
          "type": "note",
          "pitch": 45,
          "duration_ms": 186,
          "velocity": 70,
          "beat_index": 1730,
          "section": "outro"
        },
        {
          "t": 179172,
          "type": "note",
          "pitch": 47,
          "duration_ms": 186,
          "velocity": 90,
          "beat_index": 1732,
          "section": "outro"
        },
        {
          "t": 179379,
          "type": "note",
          "pitch": 49,
          "duration_ms": 186,
          "velocity": 70,
          "beat_index": 1734,
          "section": "outro"
        },
        {
          "t": 179586,
          "type": "note",
          "pitch": 42,
          "duration_ms": 186,
          "velocity": 90,
          "beat_index": 1736,
          "section": "outro"
        },
        {
          "t": 179793,
          "type": "note",
          "pitch": 45,
          "duration_ms": 186,
          "velocity": 70,
          "beat_index": 1738,
          "section": "outro"
        },
        {
          "t": 179999,
          "type": "note",
          "pitch": 49,
          "duration_ms": 186,
          "velocity": 90,
          "beat_index": 1740,
          "section": "outro"
        },
        {
          "t": 180206,
          "type": "note",
          "pitch": 47,
          "duration_ms": 186,
          "velocity": 70,
          "beat_index": 1742,
          "section": "outro"
        },
        {
          "t": 180413,
          "type": "note",
          "pitch": 42,
          "duration_ms": 186,
          "velocity": 90,
          "beat_index": 1744,
          "section": "outro"
        },
        {
          "t": 180620,
          "type": "note",
          "pitch": 45,
          "duration_ms": 186,
          "velocity": 70,
          "beat_index": 1746,
          "section": "outro"
        },
        {
          "t": 180827,
          "type": "note",
          "pitch": 47,
          "duration_ms": 186,
          "velocity": 90,
          "beat_index": 1748,
          "section": "outro"
        },
        {
          "t": 181034,
          "type": "note",
          "pitch": 49,
          "duration_ms": 186,
          "velocity": 70,
          "beat_index": 1750,
          "section": "outro"
        },
        {
          "t": 181241,
          "type": "note",
          "pitch": 42,
          "duration_ms": 186,
          "velocity": 90,
          "beat_index": 1752,
          "section": "outro"
        },
        {
          "t": 181448,
          "type": "note",
          "pitch": 45,
          "duration_ms": 186,
          "velocity": 70,
          "beat_index": 1754,
          "section": "outro"
        },
        {
          "t": 181655,
          "type": "note",
          "pitch": 49,
          "duration_ms": 186,
          "velocity": 90,
          "beat_index": 1756,
          "section": "outro"
        },
        {
          "t": 181862,
          "type": "note",
          "pitch": 47,
          "duration_ms": 186,
          "velocity": 70,
          "beat_index": 1758,
          "section": "outro"
        },
        {
          "t": 182068,
          "type": "note",
          "pitch": 42,
          "duration_ms": 186,
          "velocity": 90,
          "beat_index": 1760,
          "section": "outro"
        },
        {
          "t": 182275,
          "type": "note",
          "pitch": 45,
          "duration_ms": 186,
          "velocity": 70,
          "beat_index": 1762,
          "section": "outro"
        },
        {
          "t": 182482,
          "type": "note",
          "pitch": 47,
          "duration_ms": 186,
          "velocity": 90,
          "beat_index": 1764,
          "section": "outro"
        },
        {
          "t": 182689,
          "type": "note",
          "pitch": 49,
          "duration_ms": 186,
          "velocity": 70,
          "beat_index": 1766,
          "section": "outro"
        },
        {
          "t": 182896,
          "type": "note",
          "pitch": 42,
          "duration_ms": 186,
          "velocity": 90,
          "beat_index": 1768,
          "section": "outro"
        },
        {
          "t": 183103,
          "type": "note",
          "pitch": 45,
          "duration_ms": 186,
          "velocity": 70,
          "beat_index": 1770,
          "section": "outro"
        },
        {
          "t": 183310,
          "type": "note",
          "pitch": 49,
          "duration_ms": 186,
          "velocity": 90,
          "beat_index": 1772,
          "section": "outro"
        },
        {
          "t": 183517,
          "type": "note",
          "pitch": 47,
          "duration_ms": 186,
          "velocity": 70,
          "beat_index": 1774,
          "section": "outro"
        },
        {
          "t": 183724,
          "type": "note",
          "pitch": 42,
          "duration_ms": 186,
          "velocity": 90,
          "beat_index": 1776,
          "section": "outro"
        },
        {
          "t": 183931,
          "type": "note",
          "pitch": 45,
          "duration_ms": 186,
          "velocity": 70,
          "beat_index": 1778,
          "section": "outro"
        },
        {
          "t": 184137,
          "type": "note",
          "pitch": 47,
          "duration_ms": 186,
          "velocity": 90,
          "beat_index": 1780,
          "section": "outro"
        },
        {
          "t": 184344,
          "type": "note",
          "pitch": 49,
          "duration_ms": 186,
          "velocity": 70,
          "beat_index": 1782,
          "section": "outro"
        },
        {
          "t": 184551,
          "type": "note",
          "pitch": 42,
          "duration_ms": 186,
          "velocity": 90,
          "beat_index": 1784,
          "section": "outro"
        },
        {
          "t": 184758,
          "type": "note",
          "pitch": 45,
          "duration_ms": 186,
          "velocity": 70,
          "beat_index": 1786,
          "section": "outro"
        },
        {
          "t": 184965,
          "type": "note",
          "pitch": 49,
          "duration_ms": 186,
          "velocity": 90,
          "beat_index": 1788,
          "section": "outro"
        },
        {
          "t": 185172,
          "type": "note",
          "pitch": 47,
          "duration_ms": 186,
          "velocity": 70,
          "beat_index": 1790,
          "section": "outro"
        }
      ]
    },
    {
      "id": "melody",
      "instrument": "Lead Synth",
      "midi_channel": 0,
      "role": "lead",
      "event_count": 1248,
      "events": [
        {
          "t": 0,
          "type": "note",
          "pitch": 54,
          "duration_ms": 380,
          "velocity": 90,
          "beat_index": 0,
          "section": "intro"
        },
        {
          "t": 413,
          "type": "note",
          "pitch": 61,
          "duration_ms": 380,
          "velocity": 90,
          "beat_index": 4,
          "section": "intro"
        },
        {
          "t": 827,
          "type": "note",
          "pitch": 66,
          "duration_ms": 380,
          "velocity": 100,
          "beat_index": 8,
          "section": "intro"
        },
        {
          "t": 1241,
          "type": "note",
          "pitch": 69,
          "duration_ms": 380,
          "velocity": 100,
          "beat_index": 12,
          "section": "intro"
        },
        {
          "t": 1655,
          "type": "note",
          "pitch": 54,
          "duration_ms": 380,
          "velocity": 90,
          "beat_index": 16,
          "section": "intro"
        },
        {
          "t": 2068,
          "type": "note",
          "pitch": 61,
          "duration_ms": 380,
          "velocity": 90,
          "beat_index": 20,
          "section": "intro"
        },
        {
          "t": 2482,
          "type": "note",
          "pitch": 66,
          "duration_ms": 380,
          "velocity": 100,
          "beat_index": 24,
          "section": "intro"
        },
        {
          "t": 2896,
          "type": "note",
          "pitch": 69,
          "duration_ms": 380,
          "velocity": 100,
          "beat_index": 28,
          "section": "intro"
        },
        {
          "t": 3310,
          "type": "note",
          "pitch": 54,
          "duration_ms": 380,
          "velocity": 90,
          "beat_index": 32,
          "section": "intro"
        },
        {
          "t": 3724,
          "type": "note",
          "pitch": 61,
          "duration_ms": 380,
          "velocity": 90,
          "beat_index": 36,
          "section": "intro"
        },
        {
          "t": 4137,
          "type": "note",
          "pitch": 66,
          "duration_ms": 380,
          "velocity": 100,
          "beat_index": 40,
          "section": "intro"
        },
        {
          "t": 4551,
          "type": "note",
          "pitch": 69,
          "duration_ms": 380,
          "velocity": 100,
          "beat_index": 44,
          "section": "intro"
        },
        {
          "t": 4965,
          "type": "note",
          "pitch": 54,
          "duration_ms": 380,
          "velocity": 90,
          "beat_index": 48,
          "section": "intro"
        },
        {
          "t": 5379,
          "type": "note",
          "pitch": 61,
          "duration_ms": 380,
          "velocity": 90,
          "beat_index": 52,
          "section": "intro"
        },
        {
          "t": 5793,
          "type": "note",
          "pitch": 66,
          "duration_ms": 380,
          "velocity": 100,
          "beat_index": 56,
          "section": "intro"
        },
        {
          "t": 6206,
          "type": "note",
          "pitch": 69,
          "duration_ms": 380,
          "velocity": 100,
          "beat_index": 60,
          "section": "intro"
        },
        {
          "t": 6620,
          "type": "note",
          "pitch": 54,
          "duration_ms": 380,
          "velocity": 90,
          "beat_index": 64,
          "section": "intro"
        },
        {
          "t": 7034,
          "type": "note",
          "pitch": 61,
          "duration_ms": 380,
          "velocity": 90,
          "beat_index": 68,
          "section": "intro"
        },
        {
          "t": 7448,
          "type": "note",
          "pitch": 66,
          "duration_ms": 380,
          "velocity": 100,
          "beat_index": 72,
          "section": "intro"
        },
        {
          "t": 7862,
          "type": "note",
          "pitch": 69,
          "duration_ms": 380,
          "velocity": 100,
          "beat_index": 76,
          "section": "intro"
        },
        {
          "t": 8275,
          "type": "note",
          "pitch": 54,
          "duration_ms": 380,
          "velocity": 90,
          "beat_index": 80,
          "section": "intro"
        },
        {
          "t": 8689,
          "type": "note",
          "pitch": 61,
          "duration_ms": 380,
          "velocity": 90,
          "beat_index": 84,
          "section": "intro"
        },
        {
          "t": 9103,
          "type": "note",
          "pitch": 66,
          "duration_ms": 380,
          "velocity": 100,
          "beat_index": 88,
          "section": "intro"
        },
        {
          "t": 9517,
          "type": "note",
          "pitch": 69,
          "duration_ms": 380,
          "velocity": 100,
          "beat_index": 92,
          "section": "intro"
        },
        {
          "t": 9931,
          "type": "note",
          "pitch": 54,
          "duration_ms": 380,
          "velocity": 90,
          "beat_index": 96,
          "section": "intro"
        },
        {
          "t": 10344,
          "type": "note",
          "pitch": 61,
          "duration_ms": 380,
          "velocity": 90,
          "beat_index": 100,
          "section": "intro"
        },
        {
          "t": 10758,
          "type": "note",
          "pitch": 66,
          "duration_ms": 380,
          "velocity": 100,
          "beat_index": 104,
          "section": "intro"
        },
        {
          "t": 11172,
          "type": "note",
          "pitch": 69,
          "duration_ms": 380,
          "velocity": 100,
          "beat_index": 108,
          "section": "intro"
        },
        {
          "t": 11586,
          "type": "note",
          "pitch": 54,
          "duration_ms": 380,
          "velocity": 90,
          "beat_index": 112,
          "section": "intro"
        },
        {
          "t": 12000,
          "type": "note",
          "pitch": 61,
          "duration_ms": 380,
          "velocity": 90,
          "beat_index": 116,
          "section": "intro"
        },
        {
          "t": 12413,
          "type": "note",
          "pitch": 66,
          "duration_ms": 380,
          "velocity": 100,
          "beat_index": 120,
          "section": "intro"
        },
        {
          "t": 12827,
          "type": "note",
          "pitch": 69,
          "duration_ms": 380,
          "velocity": 100,
          "beat_index": 124,
          "section": "intro"
        },
        {
          "t": 13241,
          "type": "note",
          "pitch": 66,
          "duration_ms": 190,
          "velocity": 110,
          "beat_index": 128,
          "section": "build-up"
        },
        {
          "t": 13448,
          "type": "note",
          "pitch": 66,
          "duration_ms": 190,
          "velocity": 110,
          "beat_index": 130,
          "section": "build-up"
        },
        {
          "t": 13655,
          "type": "note",
          "pitch": 73,
          "duration_ms": 190,
          "velocity": 115,
          "beat_index": 132,
          "section": "build-up"
        },
        {
          "t": 13862,
          "type": "note",
          "pitch": 73,
          "duration_ms": 190,
          "velocity": 115,
          "beat_index": 134,
          "section": "build-up"
        },
        {
          "t": 14068,
          "type": "note",
          "pitch": 74,
          "duration_ms": 190,
          "velocity": 120,
          "beat_index": 136,
          "section": "build-up"
        },
        {
          "t": 14275,
          "type": "note",
          "pitch": 74,
          "duration_ms": 190,
          "velocity": 120,
          "beat_index": 138,
          "section": "build-up"
        },
        {
          "t": 14482,
          "type": "note",
          "pitch": 76,
          "duration_ms": 190,
          "velocity": 125,
          "beat_index": 140,
          "section": "build-up"
        },
        {
          "t": 14689,
          "type": "note",
          "pitch": 76,
          "duration_ms": 190,
          "velocity": 125,
          "beat_index": 142,
          "section": "build-up"
        },
        {
          "t": 14896,
          "type": "note",
          "pitch": 66,
          "duration_ms": 190,
          "velocity": 110,
          "beat_index": 144,
          "section": "build-up"
        },
        {
          "t": 15103,
          "type": "note",
          "pitch": 66,
          "duration_ms": 190,
          "velocity": 110,
          "beat_index": 146,
          "section": "build-up"
        },
        {
          "t": 15310,
          "type": "note",
          "pitch": 73,
          "duration_ms": 190,
          "velocity": 115,
          "beat_index": 148,
          "section": "build-up"
        },
        {
          "t": 15517,
          "type": "note",
          "pitch": 73,
          "duration_ms": 190,
          "velocity": 115,
          "beat_index": 150,
          "section": "build-up"
        },
        {
          "t": 15724,
          "type": "note",
          "pitch": 74,
          "duration_ms": 190,
          "velocity": 120,
          "beat_index": 152,
          "section": "build-up"
        },
        {
          "t": 15931,
          "type": "note",
          "pitch": 74,
          "duration_ms": 190,
          "velocity": 120,
          "beat_index": 154,
          "section": "build-up"
        },
        {
          "t": 16137,
          "type": "note",
          "pitch": 76,
          "duration_ms": 190,
          "velocity": 125,
          "beat_index": 156,
          "section": "build-up"
        },
        {
          "t": 16344,
          "type": "note",
          "pitch": 76,
          "duration_ms": 190,
          "velocity": 125,
          "beat_index": 158,
          "section": "build-up"
        },
        {
          "t": 16551,
          "type": "note",
          "pitch": 66,
          "duration_ms": 190,
          "velocity": 110,
          "beat_index": 160,
          "section": "build-up"
        },
        {
          "t": 16758,
          "type": "note",
          "pitch": 66,
          "duration_ms": 190,
          "velocity": 110,
          "beat_index": 162,
          "section": "build-up"
        },
        {
          "t": 16965,
          "type": "note",
          "pitch": 73,
          "duration_ms": 190,
          "velocity": 115,
          "beat_index": 164,
          "section": "build-up"
        },
        {
          "t": 17172,
          "type": "note",
          "pitch": 73,
          "duration_ms": 190,
          "velocity": 115,
          "beat_index": 166,
          "section": "build-up"
        },
        {
          "t": 17379,
          "type": "note",
          "pitch": 74,
          "duration_ms": 190,
          "velocity": 120,
          "beat_index": 168,
          "section": "build-up"
        },
        {
          "t": 17586,
          "type": "note",
          "pitch": 74,
          "duration_ms": 190,
          "velocity": 120,
          "beat_index": 170,
          "section": "build-up"
        },
        {
          "t": 17793,
          "type": "note",
          "pitch": 76,
          "duration_ms": 190,
          "velocity": 125,
          "beat_index": 172,
          "section": "build-up"
        },
        {
          "t": 17999,
          "type": "note",
          "pitch": 76,
          "duration_ms": 190,
          "velocity": 125,
          "beat_index": 174,
          "section": "build-up"
        },
        {
          "t": 18206,
          "type": "note",
          "pitch": 66,
          "duration_ms": 190,
          "velocity": 110,
          "beat_index": 176,
          "section": "build-up"
        },
        {
          "t": 18413,
          "type": "note",
          "pitch": 66,
          "duration_ms": 190,
          "velocity": 110,
          "beat_index": 178,
          "section": "build-up"
        },
        {
          "t": 18620,
          "type": "note",
          "pitch": 73,
          "duration_ms": 190,
          "velocity": 115,
          "beat_index": 180,
          "section": "build-up"
        },
        {
          "t": 18827,
          "type": "note",
          "pitch": 73,
          "duration_ms": 190,
          "velocity": 115,
          "beat_index": 182,
          "section": "build-up"
        },
        {
          "t": 19034,
          "type": "note",
          "pitch": 74,
          "duration_ms": 190,
          "velocity": 120,
          "beat_index": 184,
          "section": "build-up"
        },
        {
          "t": 19241,
          "type": "note",
          "pitch": 74,
          "duration_ms": 190,
          "velocity": 120,
          "beat_index": 186,
          "section": "build-up"
        },
        {
          "t": 19448,
          "type": "note",
          "pitch": 76,
          "duration_ms": 190,
          "velocity": 125,
          "beat_index": 188,
          "section": "build-up"
        },
        {
          "t": 19655,
          "type": "note",
          "pitch": 76,
          "duration_ms": 190,
          "velocity": 125,
          "beat_index": 190,
          "section": "build-up"
        },
        {
          "t": 19862,
          "type": "note",
          "pitch": 66,
          "duration_ms": 190,
          "velocity": 110,
          "beat_index": 192,
          "section": "build-up"
        },
        {
          "t": 20068,
          "type": "note",
          "pitch": 66,
          "duration_ms": 190,
          "velocity": 110,
          "beat_index": 194,
          "section": "build-up"
        },
        {
          "t": 20275,
          "type": "note",
          "pitch": 73,
          "duration_ms": 190,
          "velocity": 115,
          "beat_index": 196,
          "section": "build-up"
        },
        {
          "t": 20482,
          "type": "note",
          "pitch": 73,
          "duration_ms": 190,
          "velocity": 115,
          "beat_index": 198,
          "section": "build-up"
        },
        {
          "t": 20689,
          "type": "note",
          "pitch": 74,
          "duration_ms": 190,
          "velocity": 120,
          "beat_index": 200,
          "section": "build-up"
        },
        {
          "t": 20896,
          "type": "note",
          "pitch": 74,
          "duration_ms": 190,
          "velocity": 120,
          "beat_index": 202,
          "section": "build-up"
        },
        {
          "t": 21103,
          "type": "note",
          "pitch": 76,
          "duration_ms": 190,
          "velocity": 125,
          "beat_index": 204,
          "section": "build-up"
        },
        {
          "t": 21310,
          "type": "note",
          "pitch": 76,
          "duration_ms": 190,
          "velocity": 125,
          "beat_index": 206,
          "section": "build-up"
        },
        {
          "t": 21517,
          "type": "note",
          "pitch": 66,
          "duration_ms": 190,
          "velocity": 110,
          "beat_index": 208,
          "section": "build-up"
        },
        {
          "t": 21724,
          "type": "note",
          "pitch": 66,
          "duration_ms": 190,
          "velocity": 110,
          "beat_index": 210,
          "section": "build-up"
        },
        {
          "t": 21931,
          "type": "note",
          "pitch": 73,
          "duration_ms": 190,
          "velocity": 115,
          "beat_index": 212,
          "section": "build-up"
        },
        {
          "t": 22137,
          "type": "note",
          "pitch": 73,
          "duration_ms": 190,
          "velocity": 115,
          "beat_index": 214,
          "section": "build-up"
        },
        {
          "t": 22344,
          "type": "note",
          "pitch": 74,
          "duration_ms": 190,
          "velocity": 120,
          "beat_index": 216,
          "section": "build-up"
        },
        {
          "t": 22551,
          "type": "note",
          "pitch": 74,
          "duration_ms": 190,
          "velocity": 120,
          "beat_index": 218,
          "section": "build-up"
        },
        {
          "t": 22758,
          "type": "note",
          "pitch": 76,
          "duration_ms": 190,
          "velocity": 125,
          "beat_index": 220,
          "section": "build-up"
        },
        {
          "t": 22965,
          "type": "note",
          "pitch": 76,
          "duration_ms": 190,
          "velocity": 125,
          "beat_index": 222,
          "section": "build-up"
        },
        {
          "t": 23172,
          "type": "note",
          "pitch": 66,
          "duration_ms": 190,
          "velocity": 110,
          "beat_index": 224,
          "section": "build-up"
        },
        {
          "t": 23379,
          "type": "note",
          "pitch": 66,
          "duration_ms": 190,
          "velocity": 110,
          "beat_index": 226,
          "section": "build-up"
        },
        {
          "t": 23586,
          "type": "note",
          "pitch": 73,
          "duration_ms": 190,
          "velocity": 115,
          "beat_index": 228,
          "section": "build-up"
        },
        {
          "t": 23793,
          "type": "note",
          "pitch": 73,
          "duration_ms": 190,
          "velocity": 115,
          "beat_index": 230,
          "section": "build-up"
        },
        {
          "t": 23999,
          "type": "note",
          "pitch": 74,
          "duration_ms": 190,
          "velocity": 120,
          "beat_index": 232,
          "section": "build-up"
        },
        {
          "t": 24206,
          "type": "note",
          "pitch": 74,
          "duration_ms": 190,
          "velocity": 120,
          "beat_index": 234,
          "section": "build-up"
        },
        {
          "t": 24413,
          "type": "note",
          "pitch": 76,
          "duration_ms": 190,
          "velocity": 125,
          "beat_index": 236,
          "section": "build-up"
        },
        {
          "t": 24620,
          "type": "note",
          "pitch": 76,
          "duration_ms": 190,
          "velocity": 125,
          "beat_index": 238,
          "section": "build-up"
        },
        {
          "t": 24827,
          "type": "note",
          "pitch": 66,
          "duration_ms": 190,
          "velocity": 110,
          "beat_index": 240,
          "section": "build-up"
        },
        {
          "t": 25034,
          "type": "note",
          "pitch": 66,
          "duration_ms": 190,
          "velocity": 110,
          "beat_index": 242,
          "section": "build-up"
        },
        {
          "t": 25241,
          "type": "note",
          "pitch": 73,
          "duration_ms": 190,
          "velocity": 115,
          "beat_index": 244,
          "section": "build-up"
        },
        {
          "t": 25448,
          "type": "note",
          "pitch": 73,
          "duration_ms": 190,
          "velocity": 115,
          "beat_index": 246,
          "section": "build-up"
        },
        {
          "t": 25655,
          "type": "note",
          "pitch": 74,
          "duration_ms": 190,
          "velocity": 120,
          "beat_index": 248,
          "section": "build-up"
        },
        {
          "t": 25862,
          "type": "note",
          "pitch": 74,
          "duration_ms": 190,
          "velocity": 120,
          "beat_index": 250,
          "section": "build-up"
        },
        {
          "t": 26068,
          "type": "note",
          "pitch": 76,
          "duration_ms": 190,
          "velocity": 125,
          "beat_index": 252,
          "section": "build-up"
        },
        {
          "t": 26275,
          "type": "note",
          "pitch": 76,
          "duration_ms": 190,
          "velocity": 125,
          "beat_index": 254,
          "section": "build-up"
        },
        {
          "t": 26482,
          "type": "note",
          "pitch": 66,
          "duration_ms": 190,
          "velocity": 110,
          "beat_index": 256,
          "section": "build-up"
        },
        {
          "t": 26689,
          "type": "note",
          "pitch": 66,
          "duration_ms": 190,
          "velocity": 110,
          "beat_index": 258,
          "section": "build-up"
        },
        {
          "t": 26896,
          "type": "note",
          "pitch": 73,
          "duration_ms": 190,
          "velocity": 115,
          "beat_index": 260,
          "section": "build-up"
        },
        {
          "t": 27103,
          "type": "note",
          "pitch": 73,
          "duration_ms": 190,
          "velocity": 115,
          "beat_index": 262,
          "section": "build-up"
        },
        {
          "t": 27310,
          "type": "note",
          "pitch": 74,
          "duration_ms": 190,
          "velocity": 120,
          "beat_index": 264,
          "section": "build-up"
        },
        {
          "t": 27517,
          "type": "note",
          "pitch": 74,
          "duration_ms": 190,
          "velocity": 120,
          "beat_index": 266,
          "section": "build-up"
        },
        {
          "t": 27724,
          "type": "note",
          "pitch": 76,
          "duration_ms": 190,
          "velocity": 125,
          "beat_index": 268,
          "section": "build-up"
        },
        {
          "t": 27931,
          "type": "note",
          "pitch": 76,
          "duration_ms": 190,
          "velocity": 125,
          "beat_index": 270,
          "section": "build-up"
        },
        {
          "t": 28137,
          "type": "note",
          "pitch": 66,
          "duration_ms": 190,
          "velocity": 110,
          "beat_index": 272,
          "section": "build-up"
        },
        {
          "t": 28344,
          "type": "note",
          "pitch": 66,
          "duration_ms": 190,
          "velocity": 110,
          "beat_index": 274,
          "section": "build-up"
        },
        {
          "t": 28551,
          "type": "note",
          "pitch": 73,
          "duration_ms": 190,
          "velocity": 115,
          "beat_index": 276,
          "section": "build-up"
        },
        {
          "t": 28758,
          "type": "note",
          "pitch": 73,
          "duration_ms": 190,
          "velocity": 115,
          "beat_index": 278,
          "section": "build-up"
        },
        {
          "t": 28965,
          "type": "note",
          "pitch": 74,
          "duration_ms": 190,
          "velocity": 120,
          "beat_index": 280,
          "section": "build-up"
        },
        {
          "t": 29172,
          "type": "note",
          "pitch": 74,
          "duration_ms": 190,
          "velocity": 120,
          "beat_index": 282,
          "section": "build-up"
        },
        {
          "t": 29379,
          "type": "note",
          "pitch": 76,
          "duration_ms": 190,
          "velocity": 125,
          "beat_index": 284,
          "section": "build-up"
        },
        {
          "t": 29586,
          "type": "note",
          "pitch": 76,
          "duration_ms": 190,
          "velocity": 125,
          "beat_index": 286,
          "section": "build-up"
        },
        {
          "t": 29793,
          "type": "note",
          "pitch": 66,
          "duration_ms": 190,
          "velocity": 110,
          "beat_index": 288,
          "section": "build-up"
        },
        {
          "t": 29999,
          "type": "note",
          "pitch": 66,
          "duration_ms": 190,
          "velocity": 110,
          "beat_index": 290,
          "section": "build-up"
        },
        {
          "t": 30206,
          "type": "note",
          "pitch": 73,
          "duration_ms": 190,
          "velocity": 115,
          "beat_index": 292,
          "section": "build-up"
        },
        {
          "t": 30413,
          "type": "note",
          "pitch": 73,
          "duration_ms": 190,
          "velocity": 115,
          "beat_index": 294,
          "section": "build-up"
        },
        {
          "t": 30620,
          "type": "note",
          "pitch": 74,
          "duration_ms": 190,
          "velocity": 120,
          "beat_index": 296,
          "section": "build-up"
        },
        {
          "t": 30827,
          "type": "note",
          "pitch": 74,
          "duration_ms": 190,
          "velocity": 120,
          "beat_index": 298,
          "section": "build-up"
        },
        {
          "t": 31034,
          "type": "note",
          "pitch": 76,
          "duration_ms": 190,
          "velocity": 125,
          "beat_index": 300,
          "section": "build-up"
        },
        {
          "t": 31241,
          "type": "note",
          "pitch": 76,
          "duration_ms": 190,
          "velocity": 125,
          "beat_index": 302,
          "section": "build-up"
        },
        {
          "t": 31448,
          "type": "note",
          "pitch": 66,
          "duration_ms": 190,
          "velocity": 110,
          "beat_index": 304,
          "section": "build-up"
        },
        {
          "t": 31655,
          "type": "note",
          "pitch": 66,
          "duration_ms": 190,
          "velocity": 110,
          "beat_index": 306,
          "section": "build-up"
        },
        {
          "t": 31862,
          "type": "note",
          "pitch": 73,
          "duration_ms": 190,
          "velocity": 115,
          "beat_index": 308,
          "section": "build-up"
        },
        {
          "t": 32068,
          "type": "note",
          "pitch": 73,
          "duration_ms": 190,
          "velocity": 115,
          "beat_index": 310,
          "section": "build-up"
        },
        {
          "t": 32275,
          "type": "note",
          "pitch": 74,
          "duration_ms": 190,
          "velocity": 120,
          "beat_index": 312,
          "section": "build-up"
        },
        {
          "t": 32482,
          "type": "note",
          "pitch": 74,
          "duration_ms": 190,
          "velocity": 120,
          "beat_index": 314,
          "section": "build-up"
        },
        {
          "t": 32689,
          "type": "note",
          "pitch": 76,
          "duration_ms": 190,
          "velocity": 125,
          "beat_index": 316,
          "section": "build-up"
        },
        {
          "t": 32896,
          "type": "note",
          "pitch": 76,
          "duration_ms": 190,
          "velocity": 125,
          "beat_index": 318,
          "section": "build-up"
        },
        {
          "t": 33103,
          "type": "note",
          "pitch": 66,
          "duration_ms": 190,
          "velocity": 110,
          "beat_index": 320,
          "section": "build-up"
        },
        {
          "t": 33310,
          "type": "note",
          "pitch": 66,
          "duration_ms": 190,
          "velocity": 110,
          "beat_index": 322,
          "section": "build-up"
        },
        {
          "t": 33517,
          "type": "note",
          "pitch": 73,
          "duration_ms": 190,
          "velocity": 115,
          "beat_index": 324,
          "section": "build-up"
        },
        {
          "t": 33724,
          "type": "note",
          "pitch": 73,
          "duration_ms": 190,
          "velocity": 115,
          "beat_index": 326,
          "section": "build-up"
        },
        {
          "t": 33931,
          "type": "note",
          "pitch": 74,
          "duration_ms": 190,
          "velocity": 120,
          "beat_index": 328,
          "section": "build-up"
        },
        {
          "t": 34137,
          "type": "note",
          "pitch": 74,
          "duration_ms": 190,
          "velocity": 120,
          "beat_index": 330,
          "section": "build-up"
        },
        {
          "t": 34344,
          "type": "note",
          "pitch": 76,
          "duration_ms": 190,
          "velocity": 125,
          "beat_index": 332,
          "section": "build-up"
        },
        {
          "t": 34551,
          "type": "note",
          "pitch": 76,
          "duration_ms": 190,
          "velocity": 125,
          "beat_index": 334,
          "section": "build-up"
        },
        {
          "t": 34758,
          "type": "note",
          "pitch": 66,
          "duration_ms": 190,
          "velocity": 110,
          "beat_index": 336,
          "section": "build-up"
        },
        {
          "t": 34965,
          "type": "note",
          "pitch": 66,
          "duration_ms": 190,
          "velocity": 110,
          "beat_index": 338,
          "section": "build-up"
        },
        {
          "t": 35172,
          "type": "note",
          "pitch": 73,
          "duration_ms": 190,
          "velocity": 115,
          "beat_index": 340,
          "section": "build-up"
        },
        {
          "t": 35379,
          "type": "note",
          "pitch": 73,
          "duration_ms": 190,
          "velocity": 115,
          "beat_index": 342,
          "section": "build-up"
        },
        {
          "t": 35586,
          "type": "note",
          "pitch": 74,
          "duration_ms": 190,
          "velocity": 120,
          "beat_index": 344,
          "section": "build-up"
        },
        {
          "t": 35793,
          "type": "note",
          "pitch": 74,
          "duration_ms": 190,
          "velocity": 120,
          "beat_index": 346,
          "section": "build-up"
        },
        {
          "t": 35999,
          "type": "note",
          "pitch": 76,
          "duration_ms": 190,
          "velocity": 125,
          "beat_index": 348,
          "section": "build-up"
        },
        {
          "t": 36206,
          "type": "note",
          "pitch": 76,
          "duration_ms": 190,
          "velocity": 125,
          "beat_index": 350,
          "section": "build-up"
        },
        {
          "t": 36413,
          "type": "note",
          "pitch": 66,
          "duration_ms": 190,
          "velocity": 110,
          "beat_index": 352,
          "section": "build-up"
        },
        {
          "t": 36620,
          "type": "note",
          "pitch": 66,
          "duration_ms": 190,
          "velocity": 110,
          "beat_index": 354,
          "section": "build-up"
        },
        {
          "t": 36827,
          "type": "note",
          "pitch": 73,
          "duration_ms": 190,
          "velocity": 115,
          "beat_index": 356,
          "section": "build-up"
        },
        {
          "t": 37034,
          "type": "note",
          "pitch": 73,
          "duration_ms": 190,
          "velocity": 115,
          "beat_index": 358,
          "section": "build-up"
        },
        {
          "t": 37241,
          "type": "note",
          "pitch": 74,
          "duration_ms": 190,
          "velocity": 120,
          "beat_index": 360,
          "section": "build-up"
        },
        {
          "t": 37448,
          "type": "note",
          "pitch": 74,
          "duration_ms": 190,
          "velocity": 120,
          "beat_index": 362,
          "section": "build-up"
        },
        {
          "t": 37655,
          "type": "note",
          "pitch": 76,
          "duration_ms": 190,
          "velocity": 125,
          "beat_index": 364,
          "section": "build-up"
        },
        {
          "t": 37862,
          "type": "note",
          "pitch": 76,
          "duration_ms": 190,
          "velocity": 125,
          "beat_index": 366,
          "section": "build-up"
        },
        {
          "t": 38068,
          "type": "note",
          "pitch": 66,
          "duration_ms": 190,
          "velocity": 110,
          "beat_index": 368,
          "section": "build-up"
        },
        {
          "t": 38275,
          "type": "note",
          "pitch": 66,
          "duration_ms": 190,
          "velocity": 110,
          "beat_index": 370,
          "section": "build-up"
        },
        {
          "t": 38482,
          "type": "note",
          "pitch": 73,
          "duration_ms": 190,
          "velocity": 115,
          "beat_index": 372,
          "section": "build-up"
        },
        {
          "t": 38689,
          "type": "note",
          "pitch": 73,
          "duration_ms": 190,
          "velocity": 115,
          "beat_index": 374,
          "section": "build-up"
        },
        {
          "t": 38896,
          "type": "note",
          "pitch": 74,
          "duration_ms": 190,
          "velocity": 120,
          "beat_index": 376,
          "section": "build-up"
        },
        {
          "t": 39103,
          "type": "note",
          "pitch": 74,
          "duration_ms": 190,
          "velocity": 120,
          "beat_index": 378,
          "section": "build-up"
        },
        {
          "t": 39310,
          "type": "note",
          "pitch": 76,
          "duration_ms": 190,
          "velocity": 125,
          "beat_index": 380,
          "section": "build-up"
        },
        {
          "t": 39517,
          "type": "note",
          "pitch": 76,
          "duration_ms": 190,
          "velocity": 125,
          "beat_index": 382,
          "section": "build-up"
        },
        {
          "t": 39724,
          "type": "note",
          "pitch": 66,
          "duration_ms": 95,
          "velocity": 127,
          "beat_index": 384,
          "section": "drop"
        },
        {
          "t": 39827,
          "type": "note",
          "pitch": 66,
          "duration_ms": 95,
          "velocity": 127,
          "beat_index": 385,
          "section": "drop"
        },
        {
          "t": 39931,
          "type": "note",
          "pitch": 71,
          "duration_ms": 95,
          "velocity": 127,
          "beat_index": 386,
          "section": "drop"
        },
        {
          "t": 40034,
          "type": "note",
          "pitch": 66,
          "duration_ms": 95,
          "velocity": 127,
          "beat_index": 387,
          "section": "drop"
        },
        {
          "t": 40137,
          "type": "note",
          "pitch": 73,
          "duration_ms": 95,
          "velocity": 127,
          "beat_index": 388,
          "section": "drop"
        },
        {
          "t": 40241,
          "type": "note",
          "pitch": 66,
          "duration_ms": 95,
          "velocity": 127,
          "beat_index": 389,
          "section": "drop"
        },
        {
          "t": 40344,
          "type": "note",
          "pitch": 69,
          "duration_ms": 95,
          "velocity": 127,
          "beat_index": 390,
          "section": "drop"
        },
        {
          "t": 40448,
          "type": "note",
          "pitch": 66,
          "duration_ms": 95,
          "velocity": 127,
          "beat_index": 391,
          "section": "drop"
        },
        {
          "t": 40551,
          "type": "note",
          "pitch": 78,
          "duration_ms": 95,
          "velocity": 127,
          "beat_index": 392,
          "section": "drop"
        },
        {
          "t": 40655,
          "type": "note",
          "pitch": 66,
          "duration_ms": 95,
          "velocity": 127,
          "beat_index": 393,
          "section": "drop"
        },
        {
          "t": 40758,
          "type": "note",
          "pitch": 71,
          "duration_ms": 95,
          "velocity": 127,
          "beat_index": 394,
          "section": "drop"
        },
        {
          "t": 40862,
          "type": "note",
          "pitch": 66,
          "duration_ms": 95,
          "velocity": 127,
          "beat_index": 395,
          "section": "drop"
        },
        {
          "t": 40965,
          "type": "note",
          "pitch": 73,
          "duration_ms": 95,
          "velocity": 127,
          "beat_index": 396,
          "section": "drop"
        },
        {
          "t": 41068,
          "type": "note",
          "pitch": 74,
          "duration_ms": 95,
          "velocity": 127,
          "beat_index": 397,
          "section": "drop"
        },
        {
          "t": 41172,
          "type": "note",
          "pitch": 76,
          "duration_ms": 95,
          "velocity": 127,
          "beat_index": 398,
          "section": "drop"
        },
        {
          "t": 41275,
          "type": "note",
          "pitch": 73,
          "duration_ms": 95,
          "velocity": 127,
          "beat_index": 399,
          "section": "drop"
        },
        {
          "t": 41379,
          "type": "note",
          "pitch": 66,
          "duration_ms": 95,
          "velocity": 127,
          "beat_index": 400,
          "section": "drop"
        },
        {
          "t": 41482,
          "type": "note",
          "pitch": 66,
          "duration_ms": 95,
          "velocity": 127,
          "beat_index": 401,
          "section": "drop"
        },
        {
          "t": 41586,
          "type": "note",
          "pitch": 71,
          "duration_ms": 95,
          "velocity": 127,
          "beat_index": 402,
          "section": "drop"
        },
        {
          "t": 41689,
          "type": "note",
          "pitch": 66,
          "duration_ms": 95,
          "velocity": 127,
          "beat_index": 403,
          "section": "drop"
        },
        {
          "t": 41793,
          "type": "note",
          "pitch": 73,
          "duration_ms": 95,
          "velocity": 127,
          "beat_index": 404,
          "section": "drop"
        },
        {
          "t": 41896,
          "type": "note",
          "pitch": 66,
          "duration_ms": 95,
          "velocity": 127,
          "beat_index": 405,
          "section": "drop"
        },
        {
          "t": 42000,
          "type": "note",
          "pitch": 69,
          "duration_ms": 95,
          "velocity": 127,
          "beat_index": 406,
          "section": "drop"
        },
        {
          "t": 42103,
          "type": "note",
          "pitch": 66,
          "duration_ms": 95,
          "velocity": 127,
          "beat_index": 407,
          "section": "drop"
        },
        {
          "t": 42206,
          "type": "note",
          "pitch": 78,
          "duration_ms": 95,
          "velocity": 127,
          "beat_index": 408,
          "section": "drop"
        },
        {
          "t": 42310,
          "type": "note",
          "pitch": 66,
          "duration_ms": 95,
          "velocity": 127,
          "beat_index": 409,
          "section": "drop"
        },
        {
          "t": 42413,
          "type": "note",
          "pitch": 71,
          "duration_ms": 95,
          "velocity": 127,
          "beat_index": 410,
          "section": "drop"
        },
        {
          "t": 42517,
          "type": "note",
          "pitch": 66,
          "duration_ms": 95,
          "velocity": 127,
          "beat_index": 411,
          "section": "drop"
        },
        {
          "t": 42620,
          "type": "note",
          "pitch": 73,
          "duration_ms": 95,
          "velocity": 127,
          "beat_index": 412,
          "section": "drop"
        },
        {
          "t": 42724,
          "type": "note",
          "pitch": 74,
          "duration_ms": 95,
          "velocity": 127,
          "beat_index": 413,
          "section": "drop"
        },
        {
          "t": 42827,
          "type": "note",
          "pitch": 76,
          "duration_ms": 95,
          "velocity": 127,
          "beat_index": 414,
          "section": "drop"
        },
        {
          "t": 42931,
          "type": "note",
          "pitch": 73,
          "duration_ms": 95,
          "velocity": 127,
          "beat_index": 415,
          "section": "drop"
        },
        {
          "t": 43034,
          "type": "note",
          "pitch": 66,
          "duration_ms": 95,
          "velocity": 127,
          "beat_index": 416,
          "section": "drop"
        },
        {
          "t": 43137,
          "type": "note",
          "pitch": 66,
          "duration_ms": 95,
          "velocity": 127,
          "beat_index": 417,
          "section": "drop"
        },
        {
          "t": 43241,
          "type": "note",
          "pitch": 71,
          "duration_ms": 95,
          "velocity": 127,
          "beat_index": 418,
          "section": "drop"
        },
        {
          "t": 43344,
          "type": "note",
          "pitch": 66,
          "duration_ms": 95,
          "velocity": 127,
          "beat_index": 419,
          "section": "drop"
        },
        {
          "t": 43448,
          "type": "note",
          "pitch": 73,
          "duration_ms": 95,
          "velocity": 127,
          "beat_index": 420,
          "section": "drop"
        },
        {
          "t": 43551,
          "type": "note",
          "pitch": 66,
          "duration_ms": 95,
          "velocity": 127,
          "beat_index": 421,
          "section": "drop"
        },
        {
          "t": 43655,
          "type": "note",
          "pitch": 69,
          "duration_ms": 95,
          "velocity": 127,
          "beat_index": 422,
          "section": "drop"
        },
        {
          "t": 43758,
          "type": "note",
          "pitch": 66,
          "duration_ms": 95,
          "velocity": 127,
          "beat_index": 423,
          "section": "drop"
        },
        {
          "t": 43862,
          "type": "note",
          "pitch": 78,
          "duration_ms": 95,
          "velocity": 127,
          "beat_index": 424,
          "section": "drop"
        },
        {
          "t": 43965,
          "type": "note",
          "pitch": 66,
          "duration_ms": 95,
          "velocity": 127,
          "beat_index": 425,
          "section": "drop"
        },
        {
          "t": 44068,
          "type": "note",
          "pitch": 71,
          "duration_ms": 95,
          "velocity": 127,
          "beat_index": 426,
          "section": "drop"
        },
        {
          "t": 44172,
          "type": "note",
          "pitch": 66,
          "duration_ms": 95,
          "velocity": 127,
          "beat_index": 427,
          "section": "drop"
        },
        {
          "t": 44275,
          "type": "note",
          "pitch": 73,
          "duration_ms": 95,
          "velocity": 127,
          "beat_index": 428,
          "section": "drop"
        },
        {
          "t": 44379,
          "type": "note",
          "pitch": 74,
          "duration_ms": 95,
          "velocity": 127,
          "beat_index": 429,
          "section": "drop"
        },
        {
          "t": 44482,
          "type": "note",
          "pitch": 76,
          "duration_ms": 95,
          "velocity": 127,
          "beat_index": 430,
          "section": "drop"
        },
        {
          "t": 44586,
          "type": "note",
          "pitch": 73,
          "duration_ms": 95,
          "velocity": 127,
          "beat_index": 431,
          "section": "drop"
        },
        {
          "t": 44689,
          "type": "note",
          "pitch": 66,
          "duration_ms": 95,
          "velocity": 127,
          "beat_index": 432,
          "section": "drop"
        },
        {
          "t": 44793,
          "type": "note",
          "pitch": 66,
          "duration_ms": 95,
          "velocity": 127,
          "beat_index": 433,
          "section": "drop"
        },
        {
          "t": 44896,
          "type": "note",
          "pitch": 71,
          "duration_ms": 95,
          "velocity": 127,
          "beat_index": 434,
          "section": "drop"
        },
        {
          "t": 45000,
          "type": "note",
          "pitch": 66,
          "duration_ms": 95,
          "velocity": 127,
          "beat_index": 435,
          "section": "drop"
        },
        {
          "t": 45103,
          "type": "note",
          "pitch": 73,
          "duration_ms": 95,
          "velocity": 127,
          "beat_index": 436,
          "section": "drop"
        },
        {
          "t": 45206,
          "type": "note",
          "pitch": 66,
          "duration_ms": 95,
          "velocity": 127,
          "beat_index": 437,
          "section": "drop"
        },
        {
          "t": 45310,
          "type": "note",
          "pitch": 69,
          "duration_ms": 95,
          "velocity": 127,
          "beat_index": 438,
          "section": "drop"
        },
        {
          "t": 45413,
          "type": "note",
          "pitch": 66,
          "duration_ms": 95,
          "velocity": 127,
          "beat_index": 439,
          "section": "drop"
        },
        {
          "t": 45517,
          "type": "note",
          "pitch": 78,
          "duration_ms": 95,
          "velocity": 127,
          "beat_index": 440,
          "section": "drop"
        },
        {
          "t": 45620,
          "type": "note",
          "pitch": 66,
          "duration_ms": 95,
          "velocity": 127,
          "beat_index": 441,
          "section": "drop"
        },
        {
          "t": 45724,
          "type": "note",
          "pitch": 71,
          "duration_ms": 95,
          "velocity": 127,
          "beat_index": 442,
          "section": "drop"
        },
        {
          "t": 45827,
          "type": "note",
          "pitch": 66,
          "duration_ms": 95,
          "velocity": 127,
          "beat_index": 443,
          "section": "drop"
        },
        {
          "t": 45931,
          "type": "note",
          "pitch": 73,
          "duration_ms": 95,
          "velocity": 127,
          "beat_index": 444,
          "section": "drop"
        },
        {
          "t": 46034,
          "type": "note",
          "pitch": 74,
          "duration_ms": 95,
          "velocity": 127,
          "beat_index": 445,
          "section": "drop"
        },
        {
          "t": 46137,
          "type": "note",
          "pitch": 76,
          "duration_ms": 95,
          "velocity": 127,
          "beat_index": 446,
          "section": "drop"
        },
        {
          "t": 46241,
          "type": "note",
          "pitch": 73,
          "duration_ms": 95,
          "velocity": 127,
          "beat_index": 447,
          "section": "drop"
        },
        {
          "t": 46344,
          "type": "note",
          "pitch": 66,
          "duration_ms": 95,
          "velocity": 127,
          "beat_index": 448,
          "section": "drop"
        },
        {
          "t": 46448,
          "type": "note",
          "pitch": 66,
          "duration_ms": 95,
          "velocity": 127,
          "beat_index": 449,
          "section": "drop"
        },
        {
          "t": 46551,
          "type": "note",
          "pitch": 71,
          "duration_ms": 95,
          "velocity": 127,
          "beat_index": 450,
          "section": "drop"
        },
        {
          "t": 46655,
          "type": "note",
          "pitch": 66,
          "duration_ms": 95,
          "velocity": 127,
          "beat_index": 451,
          "section": "drop"
        },
        {
          "t": 46758,
          "type": "note",
          "pitch": 73,
          "duration_ms": 95,
          "velocity": 127,
          "beat_index": 452,
          "section": "drop"
        },
        {
          "t": 46862,
          "type": "note",
          "pitch": 66,
          "duration_ms": 95,
          "velocity": 127,
          "beat_index": 453,
          "section": "drop"
        },
        {
          "t": 46965,
          "type": "note",
          "pitch": 69,
          "duration_ms": 95,
          "velocity": 127,
          "beat_index": 454,
          "section": "drop"
        },
        {
          "t": 47068,
          "type": "note",
          "pitch": 66,
          "duration_ms": 95,
          "velocity": 127,
          "beat_index": 455,
          "section": "drop"
        },
        {
          "t": 47172,
          "type": "note",
          "pitch": 78,
          "duration_ms": 95,
          "velocity": 127,
          "beat_index": 456,
          "section": "drop"
        },
        {
          "t": 47275,
          "type": "note",
          "pitch": 66,
          "duration_ms": 95,
          "velocity": 127,
          "beat_index": 457,
          "section": "drop"
        },
        {
          "t": 47379,
          "type": "note",
          "pitch": 71,
          "duration_ms": 95,
          "velocity": 127,
          "beat_index": 458,
          "section": "drop"
        },
        {
          "t": 47482,
          "type": "note",
          "pitch": 66,
          "duration_ms": 95,
          "velocity": 127,
          "beat_index": 459,
          "section": "drop"
        },
        {
          "t": 47586,
          "type": "note",
          "pitch": 73,
          "duration_ms": 95,
          "velocity": 127,
          "beat_index": 460,
          "section": "drop"
        },
        {
          "t": 47689,
          "type": "note",
          "pitch": 74,
          "duration_ms": 95,
          "velocity": 127,
          "beat_index": 461,
          "section": "drop"
        },
        {
          "t": 47793,
          "type": "note",
          "pitch": 76,
          "duration_ms": 95,
          "velocity": 127,
          "beat_index": 462,
          "section": "drop"
        },
        {
          "t": 47896,
          "type": "note",
          "pitch": 73,
          "duration_ms": 95,
          "velocity": 127,
          "beat_index": 463,
          "section": "drop"
        },
        {
          "t": 48000,
          "type": "note",
          "pitch": 66,
          "duration_ms": 95,
          "velocity": 127,
          "beat_index": 464,
          "section": "drop"
        },
        {
          "t": 48103,
          "type": "note",
          "pitch": 66,
          "duration_ms": 95,
          "velocity": 127,
          "beat_index": 465,
          "section": "drop"
        },
        {
          "t": 48206,
          "type": "note",
          "pitch": 71,
          "duration_ms": 95,
          "velocity": 127,
          "beat_index": 466,
          "section": "drop"
        },
        {
          "t": 48310,
          "type": "note",
          "pitch": 66,
          "duration_ms": 95,
          "velocity": 127,
          "beat_index": 467,
          "section": "drop"
        },
        {
          "t": 48413,
          "type": "note",
          "pitch": 73,
          "duration_ms": 95,
          "velocity": 127,
          "beat_index": 468,
          "section": "drop"
        },
        {
          "t": 48517,
          "type": "note",
          "pitch": 66,
          "duration_ms": 95,
          "velocity": 127,
          "beat_index": 469,
          "section": "drop"
        },
        {
          "t": 48620,
          "type": "note",
          "pitch": 69,
          "duration_ms": 95,
          "velocity": 127,
          "beat_index": 470,
          "section": "drop"
        },
        {
          "t": 48724,
          "type": "note",
          "pitch": 66,
          "duration_ms": 95,
          "velocity": 127,
          "beat_index": 471,
          "section": "drop"
        },
        {
          "t": 48827,
          "type": "note",
          "pitch": 78,
          "duration_ms": 95,
          "velocity": 127,
          "beat_index": 472,
          "section": "drop"
        },
        {
          "t": 48931,
          "type": "note",
          "pitch": 66,
          "duration_ms": 95,
          "velocity": 127,
          "beat_index": 473,
          "section": "drop"
        },
        {
          "t": 49034,
          "type": "note",
          "pitch": 71,
          "duration_ms": 95,
          "velocity": 127,
          "beat_index": 474,
          "section": "drop"
        },
        {
          "t": 49137,
          "type": "note",
          "pitch": 66,
          "duration_ms": 95,
          "velocity": 127,
          "beat_index": 475,
          "section": "drop"
        },
        {
          "t": 49241,
          "type": "note",
          "pitch": 73,
          "duration_ms": 95,
          "velocity": 127,
          "beat_index": 476,
          "section": "drop"
        },
        {
          "t": 49344,
          "type": "note",
          "pitch": 74,
          "duration_ms": 95,
          "velocity": 127,
          "beat_index": 477,
          "section": "drop"
        },
        {
          "t": 49448,
          "type": "note",
          "pitch": 76,
          "duration_ms": 95,
          "velocity": 127,
          "beat_index": 478,
          "section": "drop"
        },
        {
          "t": 49551,
          "type": "note",
          "pitch": 73,
          "duration_ms": 95,
          "velocity": 127,
          "beat_index": 479,
          "section": "drop"
        },
        {
          "t": 49655,
          "type": "note",
          "pitch": 66,
          "duration_ms": 95,
          "velocity": 127,
          "beat_index": 480,
          "section": "drop"
        },
        {
          "t": 49758,
          "type": "note",
          "pitch": 66,
          "duration_ms": 95,
          "velocity": 127,
          "beat_index": 481,
          "section": "drop"
        },
        {
          "t": 49862,
          "type": "note",
          "pitch": 71,
          "duration_ms": 95,
          "velocity": 127,
          "beat_index": 482,
          "section": "drop"
        },
        {
          "t": 49965,
          "type": "note",
          "pitch": 66,
          "duration_ms": 95,
          "velocity": 127,
          "beat_index": 483,
          "section": "drop"
        },
        {
          "t": 50068,
          "type": "note",
          "pitch": 73,
          "duration_ms": 95,
          "velocity": 127,
          "beat_index": 484,
          "section": "drop"
        },
        {
          "t": 50172,
          "type": "note",
          "pitch": 66,
          "duration_ms": 95,
          "velocity": 127,
          "beat_index": 485,
          "section": "drop"
        },
        {
          "t": 50275,
          "type": "note",
          "pitch": 69,
          "duration_ms": 95,
          "velocity": 127,
          "beat_index": 486,
          "section": "drop"
        },
        {
          "t": 50379,
          "type": "note",
          "pitch": 66,
          "duration_ms": 95,
          "velocity": 127,
          "beat_index": 487,
          "section": "drop"
        },
        {
          "t": 50482,
          "type": "note",
          "pitch": 78,
          "duration_ms": 95,
          "velocity": 127,
          "beat_index": 488,
          "section": "drop"
        },
        {
          "t": 50586,
          "type": "note",
          "pitch": 66,
          "duration_ms": 95,
          "velocity": 127,
          "beat_index": 489,
          "section": "drop"
        },
        {
          "t": 50689,
          "type": "note",
          "pitch": 71,
          "duration_ms": 95,
          "velocity": 127,
          "beat_index": 490,
          "section": "drop"
        },
        {
          "t": 50793,
          "type": "note",
          "pitch": 66,
          "duration_ms": 95,
          "velocity": 127,
          "beat_index": 491,
          "section": "drop"
        },
        {
          "t": 50896,
          "type": "note",
          "pitch": 73,
          "duration_ms": 95,
          "velocity": 127,
          "beat_index": 492,
          "section": "drop"
        },
        {
          "t": 51000,
          "type": "note",
          "pitch": 74,
          "duration_ms": 95,
          "velocity": 127,
          "beat_index": 493,
          "section": "drop"
        },
        {
          "t": 51103,
          "type": "note",
          "pitch": 76,
          "duration_ms": 95,
          "velocity": 127,
          "beat_index": 494,
          "section": "drop"
        },
        {
          "t": 51206,
          "type": "note",
          "pitch": 73,
          "duration_ms": 95,
          "velocity": 127,
          "beat_index": 495,
          "section": "drop"
        },
        {
          "t": 51310,
          "type": "note",
          "pitch": 66,
          "duration_ms": 95,
          "velocity": 127,
          "beat_index": 496,
          "section": "drop"
        },
        {
          "t": 51413,
          "type": "note",
          "pitch": 66,
          "duration_ms": 95,
          "velocity": 127,
          "beat_index": 497,
          "section": "drop"
        },
        {
          "t": 51517,
          "type": "note",
          "pitch": 71,
          "duration_ms": 95,
          "velocity": 127,
          "beat_index": 498,
          "section": "drop"
        },
        {
          "t": 51620,
          "type": "note",
          "pitch": 66,
          "duration_ms": 95,
          "velocity": 127,
          "beat_index": 499,
          "section": "drop"
        },
        {
          "t": 51724,
          "type": "note",
          "pitch": 73,
          "duration_ms": 95,
          "velocity": 127,
          "beat_index": 500,
          "section": "drop"
        },
        {
          "t": 51827,
          "type": "note",
          "pitch": 66,
          "duration_ms": 95,
          "velocity": 127,
          "beat_index": 501,
          "section": "drop"
        },
        {
          "t": 51931,
          "type": "note",
          "pitch": 69,
          "duration_ms": 95,
          "velocity": 127,
          "beat_index": 502,
          "section": "drop"
        },
        {
          "t": 52034,
          "type": "note",
          "pitch": 66,
          "duration_ms": 95,
          "velocity": 127,
          "beat_index": 503,
          "section": "drop"
        },
        {
          "t": 52137,
          "type": "note",
          "pitch": 78,
          "duration_ms": 95,
          "velocity": 127,
          "beat_index": 504,
          "section": "drop"
        },
        {
          "t": 52241,
          "type": "note",
          "pitch": 66,
          "duration_ms": 95,
          "velocity": 127,
          "beat_index": 505,
          "section": "drop"
        },
        {
          "t": 52344,
          "type": "note",
          "pitch": 71,
          "duration_ms": 95,
          "velocity": 127,
          "beat_index": 506,
          "section": "drop"
        },
        {
          "t": 52448,
          "type": "note",
          "pitch": 66,
          "duration_ms": 95,
          "velocity": 127,
          "beat_index": 507,
          "section": "drop"
        },
        {
          "t": 52551,
          "type": "note",
          "pitch": 73,
          "duration_ms": 95,
          "velocity": 127,
          "beat_index": 508,
          "section": "drop"
        },
        {
          "t": 52655,
          "type": "note",
          "pitch": 74,
          "duration_ms": 95,
          "velocity": 127,
          "beat_index": 509,
          "section": "drop"
        },
        {
          "t": 52758,
          "type": "note",
          "pitch": 76,
          "duration_ms": 95,
          "velocity": 127,
          "beat_index": 510,
          "section": "drop"
        },
        {
          "t": 52862,
          "type": "note",
          "pitch": 73,
          "duration_ms": 95,
          "velocity": 127,
          "beat_index": 511,
          "section": "drop"
        },
        {
          "t": 52965,
          "type": "note",
          "pitch": 66,
          "duration_ms": 95,
          "velocity": 127,
          "beat_index": 512,
          "section": "drop"
        },
        {
          "t": 53068,
          "type": "note",
          "pitch": 66,
          "duration_ms": 95,
          "velocity": 127,
          "beat_index": 513,
          "section": "drop"
        },
        {
          "t": 53172,
          "type": "note",
          "pitch": 71,
          "duration_ms": 95,
          "velocity": 127,
          "beat_index": 514,
          "section": "drop"
        },
        {
          "t": 53275,
          "type": "note",
          "pitch": 66,
          "duration_ms": 95,
          "velocity": 127,
          "beat_index": 515,
          "section": "drop"
        },
        {
          "t": 53379,
          "type": "note",
          "pitch": 73,
          "duration_ms": 95,
          "velocity": 127,
          "beat_index": 516,
          "section": "drop"
        },
        {
          "t": 53482,
          "type": "note",
          "pitch": 66,
          "duration_ms": 95,
          "velocity": 127,
          "beat_index": 517,
          "section": "drop"
        },
        {
          "t": 53586,
          "type": "note",
          "pitch": 69,
          "duration_ms": 95,
          "velocity": 127,
          "beat_index": 518,
          "section": "drop"
        },
        {
          "t": 53689,
          "type": "note",
          "pitch": 66,
          "duration_ms": 95,
          "velocity": 127,
          "beat_index": 519,
          "section": "drop"
        },
        {
          "t": 53793,
          "type": "note",
          "pitch": 78,
          "duration_ms": 95,
          "velocity": 127,
          "beat_index": 520,
          "section": "drop"
        },
        {
          "t": 53896,
          "type": "note",
          "pitch": 66,
          "duration_ms": 95,
          "velocity": 127,
          "beat_index": 521,
          "section": "drop"
        },
        {
          "t": 54000,
          "type": "note",
          "pitch": 71,
          "duration_ms": 95,
          "velocity": 127,
          "beat_index": 522,
          "section": "drop"
        },
        {
          "t": 54103,
          "type": "note",
          "pitch": 66,
          "duration_ms": 95,
          "velocity": 127,
          "beat_index": 523,
          "section": "drop"
        },
        {
          "t": 54206,
          "type": "note",
          "pitch": 73,
          "duration_ms": 95,
          "velocity": 127,
          "beat_index": 524,
          "section": "drop"
        },
        {
          "t": 54310,
          "type": "note",
          "pitch": 74,
          "duration_ms": 95,
          "velocity": 127,
          "beat_index": 525,
          "section": "drop"
        },
        {
          "t": 54413,
          "type": "note",
          "pitch": 76,
          "duration_ms": 95,
          "velocity": 127,
          "beat_index": 526,
          "section": "drop"
        },
        {
          "t": 54517,
          "type": "note",
          "pitch": 73,
          "duration_ms": 95,
          "velocity": 127,
          "beat_index": 527,
          "section": "drop"
        },
        {
          "t": 54620,
          "type": "note",
          "pitch": 66,
          "duration_ms": 95,
          "velocity": 127,
          "beat_index": 528,
          "section": "drop"
        },
        {
          "t": 54724,
          "type": "note",
          "pitch": 66,
          "duration_ms": 95,
          "velocity": 127,
          "beat_index": 529,
          "section": "drop"
        },
        {
          "t": 54827,
          "type": "note",
          "pitch": 71,
          "duration_ms": 95,
          "velocity": 127,
          "beat_index": 530,
          "section": "drop"
        },
        {
          "t": 54931,
          "type": "note",
          "pitch": 66,
          "duration_ms": 95,
          "velocity": 127,
          "beat_index": 531,
          "section": "drop"
        },
        {
          "t": 55034,
          "type": "note",
          "pitch": 73,
          "duration_ms": 95,
          "velocity": 127,
          "beat_index": 532,
          "section": "drop"
        },
        {
          "t": 55137,
          "type": "note",
          "pitch": 66,
          "duration_ms": 95,
          "velocity": 127,
          "beat_index": 533,
          "section": "drop"
        },
        {
          "t": 55241,
          "type": "note",
          "pitch": 69,
          "duration_ms": 95,
          "velocity": 127,
          "beat_index": 534,
          "section": "drop"
        },
        {
          "t": 55344,
          "type": "note",
          "pitch": 66,
          "duration_ms": 95,
          "velocity": 127,
          "beat_index": 535,
          "section": "drop"
        },
        {
          "t": 55448,
          "type": "note",
          "pitch": 78,
          "duration_ms": 95,
          "velocity": 127,
          "beat_index": 536,
          "section": "drop"
        },
        {
          "t": 55551,
          "type": "note",
          "pitch": 66,
          "duration_ms": 95,
          "velocity": 127,
          "beat_index": 537,
          "section": "drop"
        },
        {
          "t": 55655,
          "type": "note",
          "pitch": 71,
          "duration_ms": 95,
          "velocity": 127,
          "beat_index": 538,
          "section": "drop"
        },
        {
          "t": 55758,
          "type": "note",
          "pitch": 66,
          "duration_ms": 95,
          "velocity": 127,
          "beat_index": 539,
          "section": "drop"
        },
        {
          "t": 55862,
          "type": "note",
          "pitch": 73,
          "duration_ms": 95,
          "velocity": 127,
          "beat_index": 540,
          "section": "drop"
        },
        {
          "t": 55965,
          "type": "note",
          "pitch": 74,
          "duration_ms": 95,
          "velocity": 127,
          "beat_index": 541,
          "section": "drop"
        },
        {
          "t": 56068,
          "type": "note",
          "pitch": 76,
          "duration_ms": 95,
          "velocity": 127,
          "beat_index": 542,
          "section": "drop"
        },
        {
          "t": 56172,
          "type": "note",
          "pitch": 73,
          "duration_ms": 95,
          "velocity": 127,
          "beat_index": 543,
          "section": "drop"
        },
        {
          "t": 56275,
          "type": "note",
          "pitch": 66,
          "duration_ms": 95,
          "velocity": 127,
          "beat_index": 544,
          "section": "drop"
        },
        {
          "t": 56379,
          "type": "note",
          "pitch": 66,
          "duration_ms": 95,
          "velocity": 127,
          "beat_index": 545,
          "section": "drop"
        },
        {
          "t": 56482,
          "type": "note",
          "pitch": 71,
          "duration_ms": 95,
          "velocity": 127,
          "beat_index": 546,
          "section": "drop"
        },
        {
          "t": 56586,
          "type": "note",
          "pitch": 66,
          "duration_ms": 95,
          "velocity": 127,
          "beat_index": 547,
          "section": "drop"
        },
        {
          "t": 56689,
          "type": "note",
          "pitch": 73,
          "duration_ms": 95,
          "velocity": 127,
          "beat_index": 548,
          "section": "drop"
        },
        {
          "t": 56793,
          "type": "note",
          "pitch": 66,
          "duration_ms": 95,
          "velocity": 127,
          "beat_index": 549,
          "section": "drop"
        },
        {
          "t": 56896,
          "type": "note",
          "pitch": 69,
          "duration_ms": 95,
          "velocity": 127,
          "beat_index": 550,
          "section": "drop"
        },
        {
          "t": 57000,
          "type": "note",
          "pitch": 66,
          "duration_ms": 95,
          "velocity": 127,
          "beat_index": 551,
          "section": "drop"
        },
        {
          "t": 57103,
          "type": "note",
          "pitch": 78,
          "duration_ms": 95,
          "velocity": 127,
          "beat_index": 552,
          "section": "drop"
        },
        {
          "t": 57206,
          "type": "note",
          "pitch": 66,
          "duration_ms": 95,
          "velocity": 127,
          "beat_index": 553,
          "section": "drop"
        },
        {
          "t": 57310,
          "type": "note",
          "pitch": 71,
          "duration_ms": 95,
          "velocity": 127,
          "beat_index": 554,
          "section": "drop"
        },
        {
          "t": 57413,
          "type": "note",
          "pitch": 66,
          "duration_ms": 95,
          "velocity": 127,
          "beat_index": 555,
          "section": "drop"
        },
        {
          "t": 57517,
          "type": "note",
          "pitch": 73,
          "duration_ms": 95,
          "velocity": 127,
          "beat_index": 556,
          "section": "drop"
        },
        {
          "t": 57620,
          "type": "note",
          "pitch": 74,
          "duration_ms": 95,
          "velocity": 127,
          "beat_index": 557,
          "section": "drop"
        },
        {
          "t": 57724,
          "type": "note",
          "pitch": 76,
          "duration_ms": 95,
          "velocity": 127,
          "beat_index": 558,
          "section": "drop"
        },
        {
          "t": 57827,
          "type": "note",
          "pitch": 73,
          "duration_ms": 95,
          "velocity": 127,
          "beat_index": 559,
          "section": "drop"
        },
        {
          "t": 57931,
          "type": "note",
          "pitch": 66,
          "duration_ms": 95,
          "velocity": 127,
          "beat_index": 560,
          "section": "drop"
        },
        {
          "t": 58034,
          "type": "note",
          "pitch": 66,
          "duration_ms": 95,
          "velocity": 127,
          "beat_index": 561,
          "section": "drop"
        },
        {
          "t": 58137,
          "type": "note",
          "pitch": 71,
          "duration_ms": 95,
          "velocity": 127,
          "beat_index": 562,
          "section": "drop"
        },
        {
          "t": 58241,
          "type": "note",
          "pitch": 66,
          "duration_ms": 95,
          "velocity": 127,
          "beat_index": 563,
          "section": "drop"
        },
        {
          "t": 58344,
          "type": "note",
          "pitch": 73,
          "duration_ms": 95,
          "velocity": 127,
          "beat_index": 564,
          "section": "drop"
        },
        {
          "t": 58448,
          "type": "note",
          "pitch": 66,
          "duration_ms": 95,
          "velocity": 127,
          "beat_index": 565,
          "section": "drop"
        },
        {
          "t": 58551,
          "type": "note",
          "pitch": 69,
          "duration_ms": 95,
          "velocity": 127,
          "beat_index": 566,
          "section": "drop"
        },
        {
          "t": 58655,
          "type": "note",
          "pitch": 66,
          "duration_ms": 95,
          "velocity": 127,
          "beat_index": 567,
          "section": "drop"
        },
        {
          "t": 58758,
          "type": "note",
          "pitch": 78,
          "duration_ms": 95,
          "velocity": 127,
          "beat_index": 568,
          "section": "drop"
        },
        {
          "t": 58862,
          "type": "note",
          "pitch": 66,
          "duration_ms": 95,
          "velocity": 127,
          "beat_index": 569,
          "section": "drop"
        },
        {
          "t": 58965,
          "type": "note",
          "pitch": 71,
          "duration_ms": 95,
          "velocity": 127,
          "beat_index": 570,
          "section": "drop"
        },
        {
          "t": 59068,
          "type": "note",
          "pitch": 66,
          "duration_ms": 95,
          "velocity": 127,
          "beat_index": 571,
          "section": "drop"
        },
        {
          "t": 59172,
          "type": "note",
          "pitch": 73,
          "duration_ms": 95,
          "velocity": 127,
          "beat_index": 572,
          "section": "drop"
        },
        {
          "t": 59275,
          "type": "note",
          "pitch": 74,
          "duration_ms": 95,
          "velocity": 127,
          "beat_index": 573,
          "section": "drop"
        },
        {
          "t": 59379,
          "type": "note",
          "pitch": 76,
          "duration_ms": 95,
          "velocity": 127,
          "beat_index": 574,
          "section": "drop"
        },
        {
          "t": 59482,
          "type": "note",
          "pitch": 73,
          "duration_ms": 95,
          "velocity": 127,
          "beat_index": 575,
          "section": "drop"
        },
        {
          "t": 59586,
          "type": "note",
          "pitch": 66,
          "duration_ms": 95,
          "velocity": 127,
          "beat_index": 576,
          "section": "drop"
        },
        {
          "t": 59689,
          "type": "note",
          "pitch": 66,
          "duration_ms": 95,
          "velocity": 127,
          "beat_index": 577,
          "section": "drop"
        },
        {
          "t": 59793,
          "type": "note",
          "pitch": 71,
          "duration_ms": 95,
          "velocity": 127,
          "beat_index": 578,
          "section": "drop"
        },
        {
          "t": 59896,
          "type": "note",
          "pitch": 66,
          "duration_ms": 95,
          "velocity": 127,
          "beat_index": 579,
          "section": "drop"
        },
        {
          "t": 60000,
          "type": "note",
          "pitch": 73,
          "duration_ms": 95,
          "velocity": 127,
          "beat_index": 580,
          "section": "drop"
        },
        {
          "t": 60103,
          "type": "note",
          "pitch": 66,
          "duration_ms": 95,
          "velocity": 127,
          "beat_index": 581,
          "section": "drop"
        },
        {
          "t": 60206,
          "type": "note",
          "pitch": 69,
          "duration_ms": 95,
          "velocity": 127,
          "beat_index": 582,
          "section": "drop"
        },
        {
          "t": 60310,
          "type": "note",
          "pitch": 66,
          "duration_ms": 95,
          "velocity": 127,
          "beat_index": 583,
          "section": "drop"
        },
        {
          "t": 60413,
          "type": "note",
          "pitch": 78,
          "duration_ms": 95,
          "velocity": 127,
          "beat_index": 584,
          "section": "drop"
        },
        {
          "t": 60517,
          "type": "note",
          "pitch": 66,
          "duration_ms": 95,
          "velocity": 127,
          "beat_index": 585,
          "section": "drop"
        },
        {
          "t": 60620,
          "type": "note",
          "pitch": 71,
          "duration_ms": 95,
          "velocity": 127,
          "beat_index": 586,
          "section": "drop"
        },
        {
          "t": 60724,
          "type": "note",
          "pitch": 66,
          "duration_ms": 95,
          "velocity": 127,
          "beat_index": 587,
          "section": "drop"
        },
        {
          "t": 60827,
          "type": "note",
          "pitch": 73,
          "duration_ms": 95,
          "velocity": 127,
          "beat_index": 588,
          "section": "drop"
        },
        {
          "t": 60931,
          "type": "note",
          "pitch": 74,
          "duration_ms": 95,
          "velocity": 127,
          "beat_index": 589,
          "section": "drop"
        },
        {
          "t": 61034,
          "type": "note",
          "pitch": 76,
          "duration_ms": 95,
          "velocity": 127,
          "beat_index": 590,
          "section": "drop"
        },
        {
          "t": 61137,
          "type": "note",
          "pitch": 73,
          "duration_ms": 95,
          "velocity": 127,
          "beat_index": 591,
          "section": "drop"
        },
        {
          "t": 61241,
          "type": "note",
          "pitch": 66,
          "duration_ms": 95,
          "velocity": 127,
          "beat_index": 592,
          "section": "drop"
        },
        {
          "t": 61344,
          "type": "note",
          "pitch": 66,
          "duration_ms": 95,
          "velocity": 127,
          "beat_index": 593,
          "section": "drop"
        },
        {
          "t": 61448,
          "type": "note",
          "pitch": 71,
          "duration_ms": 95,
          "velocity": 127,
          "beat_index": 594,
          "section": "drop"
        },
        {
          "t": 61551,
          "type": "note",
          "pitch": 66,
          "duration_ms": 95,
          "velocity": 127,
          "beat_index": 595,
          "section": "drop"
        },
        {
          "t": 61655,
          "type": "note",
          "pitch": 73,
          "duration_ms": 95,
          "velocity": 127,
          "beat_index": 596,
          "section": "drop"
        },
        {
          "t": 61758,
          "type": "note",
          "pitch": 66,
          "duration_ms": 95,
          "velocity": 127,
          "beat_index": 597,
          "section": "drop"
        },
        {
          "t": 61862,
          "type": "note",
          "pitch": 69,
          "duration_ms": 95,
          "velocity": 127,
          "beat_index": 598,
          "section": "drop"
        },
        {
          "t": 61965,
          "type": "note",
          "pitch": 66,
          "duration_ms": 95,
          "velocity": 127,
          "beat_index": 599,
          "section": "drop"
        },
        {
          "t": 62068,
          "type": "note",
          "pitch": 78,
          "duration_ms": 95,
          "velocity": 127,
          "beat_index": 600,
          "section": "drop"
        },
        {
          "t": 62172,
          "type": "note",
          "pitch": 66,
          "duration_ms": 95,
          "velocity": 127,
          "beat_index": 601,
          "section": "drop"
        },
        {
          "t": 62275,
          "type": "note",
          "pitch": 71,
          "duration_ms": 95,
          "velocity": 127,
          "beat_index": 602,
          "section": "drop"
        },
        {
          "t": 62379,
          "type": "note",
          "pitch": 66,
          "duration_ms": 95,
          "velocity": 127,
          "beat_index": 603,
          "section": "drop"
        },
        {
          "t": 62482,
          "type": "note",
          "pitch": 73,
          "duration_ms": 95,
          "velocity": 127,
          "beat_index": 604,
          "section": "drop"
        },
        {
          "t": 62586,
          "type": "note",
          "pitch": 74,
          "duration_ms": 95,
          "velocity": 127,
          "beat_index": 605,
          "section": "drop"
        },
        {
          "t": 62689,
          "type": "note",
          "pitch": 76,
          "duration_ms": 95,
          "velocity": 127,
          "beat_index": 606,
          "section": "drop"
        },
        {
          "t": 62793,
          "type": "note",
          "pitch": 73,
          "duration_ms": 95,
          "velocity": 127,
          "beat_index": 607,
          "section": "drop"
        },
        {
          "t": 62896,
          "type": "note",
          "pitch": 66,
          "duration_ms": 95,
          "velocity": 127,
          "beat_index": 608,
          "section": "drop"
        },
        {
          "t": 63000,
          "type": "note",
          "pitch": 66,
          "duration_ms": 95,
          "velocity": 127,
          "beat_index": 609,
          "section": "drop"
        },
        {
          "t": 63103,
          "type": "note",
          "pitch": 71,
          "duration_ms": 95,
          "velocity": 127,
          "beat_index": 610,
          "section": "drop"
        },
        {
          "t": 63206,
          "type": "note",
          "pitch": 66,
          "duration_ms": 95,
          "velocity": 127,
          "beat_index": 611,
          "section": "drop"
        },
        {
          "t": 63310,
          "type": "note",
          "pitch": 73,
          "duration_ms": 95,
          "velocity": 127,
          "beat_index": 612,
          "section": "drop"
        },
        {
          "t": 63413,
          "type": "note",
          "pitch": 66,
          "duration_ms": 95,
          "velocity": 127,
          "beat_index": 613,
          "section": "drop"
        },
        {
          "t": 63517,
          "type": "note",
          "pitch": 69,
          "duration_ms": 95,
          "velocity": 127,
          "beat_index": 614,
          "section": "drop"
        },
        {
          "t": 63620,
          "type": "note",
          "pitch": 66,
          "duration_ms": 95,
          "velocity": 127,
          "beat_index": 615,
          "section": "drop"
        },
        {
          "t": 63724,
          "type": "note",
          "pitch": 78,
          "duration_ms": 95,
          "velocity": 127,
          "beat_index": 616,
          "section": "drop"
        },
        {
          "t": 63827,
          "type": "note",
          "pitch": 66,
          "duration_ms": 95,
          "velocity": 127,
          "beat_index": 617,
          "section": "drop"
        },
        {
          "t": 63931,
          "type": "note",
          "pitch": 71,
          "duration_ms": 95,
          "velocity": 127,
          "beat_index": 618,
          "section": "drop"
        },
        {
          "t": 64034,
          "type": "note",
          "pitch": 66,
          "duration_ms": 95,
          "velocity": 127,
          "beat_index": 619,
          "section": "drop"
        },
        {
          "t": 64137,
          "type": "note",
          "pitch": 73,
          "duration_ms": 95,
          "velocity": 127,
          "beat_index": 620,
          "section": "drop"
        },
        {
          "t": 64241,
          "type": "note",
          "pitch": 74,
          "duration_ms": 95,
          "velocity": 127,
          "beat_index": 621,
          "section": "drop"
        },
        {
          "t": 64344,
          "type": "note",
          "pitch": 76,
          "duration_ms": 95,
          "velocity": 127,
          "beat_index": 622,
          "section": "drop"
        },
        {
          "t": 64448,
          "type": "note",
          "pitch": 73,
          "duration_ms": 95,
          "velocity": 127,
          "beat_index": 623,
          "section": "drop"
        },
        {
          "t": 64551,
          "type": "note",
          "pitch": 66,
          "duration_ms": 95,
          "velocity": 127,
          "beat_index": 624,
          "section": "drop"
        },
        {
          "t": 64655,
          "type": "note",
          "pitch": 66,
          "duration_ms": 95,
          "velocity": 127,
          "beat_index": 625,
          "section": "drop"
        },
        {
          "t": 64758,
          "type": "note",
          "pitch": 71,
          "duration_ms": 95,
          "velocity": 127,
          "beat_index": 626,
          "section": "drop"
        },
        {
          "t": 64862,
          "type": "note",
          "pitch": 66,
          "duration_ms": 95,
          "velocity": 127,
          "beat_index": 627,
          "section": "drop"
        },
        {
          "t": 64965,
          "type": "note",
          "pitch": 73,
          "duration_ms": 95,
          "velocity": 127,
          "beat_index": 628,
          "section": "drop"
        },
        {
          "t": 65068,
          "type": "note",
          "pitch": 66,
          "duration_ms": 95,
          "velocity": 127,
          "beat_index": 629,
          "section": "drop"
        },
        {
          "t": 65172,
          "type": "note",
          "pitch": 69,
          "duration_ms": 95,
          "velocity": 127,
          "beat_index": 630,
          "section": "drop"
        },
        {
          "t": 65275,
          "type": "note",
          "pitch": 66,
          "duration_ms": 95,
          "velocity": 127,
          "beat_index": 631,
          "section": "drop"
        },
        {
          "t": 65379,
          "type": "note",
          "pitch": 78,
          "duration_ms": 95,
          "velocity": 127,
          "beat_index": 632,
          "section": "drop"
        },
        {
          "t": 65482,
          "type": "note",
          "pitch": 66,
          "duration_ms": 95,
          "velocity": 127,
          "beat_index": 633,
          "section": "drop"
        },
        {
          "t": 65586,
          "type": "note",
          "pitch": 71,
          "duration_ms": 95,
          "velocity": 127,
          "beat_index": 634,
          "section": "drop"
        },
        {
          "t": 65689,
          "type": "note",
          "pitch": 66,
          "duration_ms": 95,
          "velocity": 127,
          "beat_index": 635,
          "section": "drop"
        },
        {
          "t": 65793,
          "type": "note",
          "pitch": 73,
          "duration_ms": 95,
          "velocity": 127,
          "beat_index": 636,
          "section": "drop"
        },
        {
          "t": 65896,
          "type": "note",
          "pitch": 74,
          "duration_ms": 95,
          "velocity": 127,
          "beat_index": 637,
          "section": "drop"
        },
        {
          "t": 66000,
          "type": "note",
          "pitch": 76,
          "duration_ms": 95,
          "velocity": 127,
          "beat_index": 638,
          "section": "drop"
        },
        {
          "t": 66103,
          "type": "note",
          "pitch": 73,
          "duration_ms": 95,
          "velocity": 127,
          "beat_index": 639,
          "section": "drop"
        },
        {
          "t": 66206,
          "type": "note",
          "pitch": 66,
          "duration_ms": 95,
          "velocity": 127,
          "beat_index": 640,
          "section": "drop"
        },
        {
          "t": 66310,
          "type": "note",
          "pitch": 66,
          "duration_ms": 95,
          "velocity": 127,
          "beat_index": 641,
          "section": "drop"
        },
        {
          "t": 66413,
          "type": "note",
          "pitch": 71,
          "duration_ms": 95,
          "velocity": 127,
          "beat_index": 642,
          "section": "drop"
        },
        {
          "t": 66517,
          "type": "note",
          "pitch": 66,
          "duration_ms": 95,
          "velocity": 127,
          "beat_index": 643,
          "section": "drop"
        },
        {
          "t": 66620,
          "type": "note",
          "pitch": 73,
          "duration_ms": 95,
          "velocity": 127,
          "beat_index": 644,
          "section": "drop"
        },
        {
          "t": 66724,
          "type": "note",
          "pitch": 66,
          "duration_ms": 95,
          "velocity": 127,
          "beat_index": 645,
          "section": "drop"
        },
        {
          "t": 66827,
          "type": "note",
          "pitch": 69,
          "duration_ms": 95,
          "velocity": 127,
          "beat_index": 646,
          "section": "drop"
        },
        {
          "t": 66931,
          "type": "note",
          "pitch": 66,
          "duration_ms": 95,
          "velocity": 127,
          "beat_index": 647,
          "section": "drop"
        },
        {
          "t": 67034,
          "type": "note",
          "pitch": 78,
          "duration_ms": 95,
          "velocity": 127,
          "beat_index": 648,
          "section": "drop"
        },
        {
          "t": 67137,
          "type": "note",
          "pitch": 66,
          "duration_ms": 95,
          "velocity": 127,
          "beat_index": 649,
          "section": "drop"
        },
        {
          "t": 67241,
          "type": "note",
          "pitch": 71,
          "duration_ms": 95,
          "velocity": 127,
          "beat_index": 650,
          "section": "drop"
        },
        {
          "t": 67344,
          "type": "note",
          "pitch": 66,
          "duration_ms": 95,
          "velocity": 127,
          "beat_index": 651,
          "section": "drop"
        },
        {
          "t": 67448,
          "type": "note",
          "pitch": 73,
          "duration_ms": 95,
          "velocity": 127,
          "beat_index": 652,
          "section": "drop"
        },
        {
          "t": 67551,
          "type": "note",
          "pitch": 74,
          "duration_ms": 95,
          "velocity": 127,
          "beat_index": 653,
          "section": "drop"
        },
        {
          "t": 67655,
          "type": "note",
          "pitch": 76,
          "duration_ms": 95,
          "velocity": 127,
          "beat_index": 654,
          "section": "drop"
        },
        {
          "t": 67758,
          "type": "note",
          "pitch": 73,
          "duration_ms": 95,
          "velocity": 127,
          "beat_index": 655,
          "section": "drop"
        },
        {
          "t": 67862,
          "type": "note",
          "pitch": 66,
          "duration_ms": 95,
          "velocity": 127,
          "beat_index": 656,
          "section": "drop"
        },
        {
          "t": 67965,
          "type": "note",
          "pitch": 66,
          "duration_ms": 95,
          "velocity": 127,
          "beat_index": 657,
          "section": "drop"
        },
        {
          "t": 68068,
          "type": "note",
          "pitch": 71,
          "duration_ms": 95,
          "velocity": 127,
          "beat_index": 658,
          "section": "drop"
        },
        {
          "t": 68172,
          "type": "note",
          "pitch": 66,
          "duration_ms": 95,
          "velocity": 127,
          "beat_index": 659,
          "section": "drop"
        },
        {
          "t": 68275,
          "type": "note",
          "pitch": 73,
          "duration_ms": 95,
          "velocity": 127,
          "beat_index": 660,
          "section": "drop"
        },
        {
          "t": 68379,
          "type": "note",
          "pitch": 66,
          "duration_ms": 95,
          "velocity": 127,
          "beat_index": 661,
          "section": "drop"
        },
        {
          "t": 68482,
          "type": "note",
          "pitch": 69,
          "duration_ms": 95,
          "velocity": 127,
          "beat_index": 662,
          "section": "drop"
        },
        {
          "t": 68586,
          "type": "note",
          "pitch": 66,
          "duration_ms": 95,
          "velocity": 127,
          "beat_index": 663,
          "section": "drop"
        },
        {
          "t": 68689,
          "type": "note",
          "pitch": 78,
          "duration_ms": 95,
          "velocity": 127,
          "beat_index": 664,
          "section": "drop"
        },
        {
          "t": 68793,
          "type": "note",
          "pitch": 66,
          "duration_ms": 95,
          "velocity": 127,
          "beat_index": 665,
          "section": "drop"
        },
        {
          "t": 68896,
          "type": "note",
          "pitch": 71,
          "duration_ms": 95,
          "velocity": 127,
          "beat_index": 666,
          "section": "drop"
        },
        {
          "t": 69000,
          "type": "note",
          "pitch": 66,
          "duration_ms": 95,
          "velocity": 127,
          "beat_index": 667,
          "section": "drop"
        },
        {
          "t": 69103,
          "type": "note",
          "pitch": 73,
          "duration_ms": 95,
          "velocity": 127,
          "beat_index": 668,
          "section": "drop"
        },
        {
          "t": 69206,
          "type": "note",
          "pitch": 74,
          "duration_ms": 95,
          "velocity": 127,
          "beat_index": 669,
          "section": "drop"
        },
        {
          "t": 69310,
          "type": "note",
          "pitch": 76,
          "duration_ms": 95,
          "velocity": 127,
          "beat_index": 670,
          "section": "drop"
        },
        {
          "t": 69413,
          "type": "note",
          "pitch": 73,
          "duration_ms": 95,
          "velocity": 127,
          "beat_index": 671,
          "section": "drop"
        },
        {
          "t": 69517,
          "type": "note",
          "pitch": 66,
          "duration_ms": 95,
          "velocity": 127,
          "beat_index": 672,
          "section": "drop"
        },
        {
          "t": 69620,
          "type": "note",
          "pitch": 66,
          "duration_ms": 95,
          "velocity": 127,
          "beat_index": 673,
          "section": "drop"
        },
        {
          "t": 69724,
          "type": "note",
          "pitch": 71,
          "duration_ms": 95,
          "velocity": 127,
          "beat_index": 674,
          "section": "drop"
        },
        {
          "t": 69827,
          "type": "note",
          "pitch": 66,
          "duration_ms": 95,
          "velocity": 127,
          "beat_index": 675,
          "section": "drop"
        },
        {
          "t": 69931,
          "type": "note",
          "pitch": 73,
          "duration_ms": 95,
          "velocity": 127,
          "beat_index": 676,
          "section": "drop"
        },
        {
          "t": 70034,
          "type": "note",
          "pitch": 66,
          "duration_ms": 95,
          "velocity": 127,
          "beat_index": 677,
          "section": "drop"
        },
        {
          "t": 70137,
          "type": "note",
          "pitch": 69,
          "duration_ms": 95,
          "velocity": 127,
          "beat_index": 678,
          "section": "drop"
        },
        {
          "t": 70241,
          "type": "note",
          "pitch": 66,
          "duration_ms": 95,
          "velocity": 127,
          "beat_index": 679,
          "section": "drop"
        },
        {
          "t": 70344,
          "type": "note",
          "pitch": 78,
          "duration_ms": 95,
          "velocity": 127,
          "beat_index": 680,
          "section": "drop"
        },
        {
          "t": 70448,
          "type": "note",
          "pitch": 66,
          "duration_ms": 95,
          "velocity": 127,
          "beat_index": 681,
          "section": "drop"
        },
        {
          "t": 70551,
          "type": "note",
          "pitch": 71,
          "duration_ms": 95,
          "velocity": 127,
          "beat_index": 682,
          "section": "drop"
        },
        {
          "t": 70655,
          "type": "note",
          "pitch": 66,
          "duration_ms": 95,
          "velocity": 127,
          "beat_index": 683,
          "section": "drop"
        },
        {
          "t": 70758,
          "type": "note",
          "pitch": 73,
          "duration_ms": 95,
          "velocity": 127,
          "beat_index": 684,
          "section": "drop"
        },
        {
          "t": 70862,
          "type": "note",
          "pitch": 74,
          "duration_ms": 95,
          "velocity": 127,
          "beat_index": 685,
          "section": "drop"
        },
        {
          "t": 70965,
          "type": "note",
          "pitch": 76,
          "duration_ms": 95,
          "velocity": 127,
          "beat_index": 686,
          "section": "drop"
        },
        {
          "t": 71068,
          "type": "note",
          "pitch": 73,
          "duration_ms": 95,
          "velocity": 127,
          "beat_index": 687,
          "section": "drop"
        },
        {
          "t": 71172,
          "type": "note",
          "pitch": 66,
          "duration_ms": 95,
          "velocity": 127,
          "beat_index": 688,
          "section": "drop"
        },
        {
          "t": 71275,
          "type": "note",
          "pitch": 66,
          "duration_ms": 95,
          "velocity": 127,
          "beat_index": 689,
          "section": "drop"
        },
        {
          "t": 71379,
          "type": "note",
          "pitch": 71,
          "duration_ms": 95,
          "velocity": 127,
          "beat_index": 690,
          "section": "drop"
        },
        {
          "t": 71482,
          "type": "note",
          "pitch": 66,
          "duration_ms": 95,
          "velocity": 127,
          "beat_index": 691,
          "section": "drop"
        },
        {
          "t": 71586,
          "type": "note",
          "pitch": 73,
          "duration_ms": 95,
          "velocity": 127,
          "beat_index": 692,
          "section": "drop"
        },
        {
          "t": 71689,
          "type": "note",
          "pitch": 66,
          "duration_ms": 95,
          "velocity": 127,
          "beat_index": 693,
          "section": "drop"
        },
        {
          "t": 71793,
          "type": "note",
          "pitch": 69,
          "duration_ms": 95,
          "velocity": 127,
          "beat_index": 694,
          "section": "drop"
        },
        {
          "t": 71896,
          "type": "note",
          "pitch": 66,
          "duration_ms": 95,
          "velocity": 127,
          "beat_index": 695,
          "section": "drop"
        },
        {
          "t": 72000,
          "type": "note",
          "pitch": 78,
          "duration_ms": 95,
          "velocity": 127,
          "beat_index": 696,
          "section": "drop"
        },
        {
          "t": 72103,
          "type": "note",
          "pitch": 66,
          "duration_ms": 95,
          "velocity": 127,
          "beat_index": 697,
          "section": "drop"
        },
        {
          "t": 72206,
          "type": "note",
          "pitch": 71,
          "duration_ms": 95,
          "velocity": 127,
          "beat_index": 698,
          "section": "drop"
        },
        {
          "t": 72310,
          "type": "note",
          "pitch": 66,
          "duration_ms": 95,
          "velocity": 127,
          "beat_index": 699,
          "section": "drop"
        },
        {
          "t": 72413,
          "type": "note",
          "pitch": 73,
          "duration_ms": 95,
          "velocity": 127,
          "beat_index": 700,
          "section": "drop"
        },
        {
          "t": 72517,
          "type": "note",
          "pitch": 74,
          "duration_ms": 95,
          "velocity": 127,
          "beat_index": 701,
          "section": "drop"
        },
        {
          "t": 72620,
          "type": "note",
          "pitch": 76,
          "duration_ms": 95,
          "velocity": 127,
          "beat_index": 702,
          "section": "drop"
        },
        {
          "t": 72724,
          "type": "note",
          "pitch": 73,
          "duration_ms": 95,
          "velocity": 127,
          "beat_index": 703,
          "section": "drop"
        },
        {
          "t": 72827,
          "type": "note",
          "pitch": 66,
          "duration_ms": 95,
          "velocity": 127,
          "beat_index": 704,
          "section": "drop"
        },
        {
          "t": 72931,
          "type": "note",
          "pitch": 66,
          "duration_ms": 95,
          "velocity": 127,
          "beat_index": 705,
          "section": "drop"
        },
        {
          "t": 73034,
          "type": "note",
          "pitch": 71,
          "duration_ms": 95,
          "velocity": 127,
          "beat_index": 706,
          "section": "drop"
        },
        {
          "t": 73137,
          "type": "note",
          "pitch": 66,
          "duration_ms": 95,
          "velocity": 127,
          "beat_index": 707,
          "section": "drop"
        },
        {
          "t": 73241,
          "type": "note",
          "pitch": 73,
          "duration_ms": 95,
          "velocity": 127,
          "beat_index": 708,
          "section": "drop"
        },
        {
          "t": 73344,
          "type": "note",
          "pitch": 66,
          "duration_ms": 95,
          "velocity": 127,
          "beat_index": 709,
          "section": "drop"
        },
        {
          "t": 73448,
          "type": "note",
          "pitch": 69,
          "duration_ms": 95,
          "velocity": 127,
          "beat_index": 710,
          "section": "drop"
        },
        {
          "t": 73551,
          "type": "note",
          "pitch": 66,
          "duration_ms": 95,
          "velocity": 127,
          "beat_index": 711,
          "section": "drop"
        },
        {
          "t": 73655,
          "type": "note",
          "pitch": 78,
          "duration_ms": 95,
          "velocity": 127,
          "beat_index": 712,
          "section": "drop"
        },
        {
          "t": 73758,
          "type": "note",
          "pitch": 66,
          "duration_ms": 95,
          "velocity": 127,
          "beat_index": 713,
          "section": "drop"
        },
        {
          "t": 73862,
          "type": "note",
          "pitch": 71,
          "duration_ms": 95,
          "velocity": 127,
          "beat_index": 714,
          "section": "drop"
        },
        {
          "t": 73965,
          "type": "note",
          "pitch": 66,
          "duration_ms": 95,
          "velocity": 127,
          "beat_index": 715,
          "section": "drop"
        },
        {
          "t": 74068,
          "type": "note",
          "pitch": 73,
          "duration_ms": 95,
          "velocity": 127,
          "beat_index": 716,
          "section": "drop"
        },
        {
          "t": 74172,
          "type": "note",
          "pitch": 74,
          "duration_ms": 95,
          "velocity": 127,
          "beat_index": 717,
          "section": "drop"
        },
        {
          "t": 74275,
          "type": "note",
          "pitch": 76,
          "duration_ms": 95,
          "velocity": 127,
          "beat_index": 718,
          "section": "drop"
        },
        {
          "t": 74379,
          "type": "note",
          "pitch": 73,
          "duration_ms": 95,
          "velocity": 127,
          "beat_index": 719,
          "section": "drop"
        },
        {
          "t": 74482,
          "type": "note",
          "pitch": 66,
          "duration_ms": 95,
          "velocity": 127,
          "beat_index": 720,
          "section": "drop"
        },
        {
          "t": 74586,
          "type": "note",
          "pitch": 66,
          "duration_ms": 95,
          "velocity": 127,
          "beat_index": 721,
          "section": "drop"
        },
        {
          "t": 74689,
          "type": "note",
          "pitch": 71,
          "duration_ms": 95,
          "velocity": 127,
          "beat_index": 722,
          "section": "drop"
        },
        {
          "t": 74793,
          "type": "note",
          "pitch": 66,
          "duration_ms": 95,
          "velocity": 127,
          "beat_index": 723,
          "section": "drop"
        },
        {
          "t": 74896,
          "type": "note",
          "pitch": 73,
          "duration_ms": 95,
          "velocity": 127,
          "beat_index": 724,
          "section": "drop"
        },
        {
          "t": 75000,
          "type": "note",
          "pitch": 66,
          "duration_ms": 95,
          "velocity": 127,
          "beat_index": 725,
          "section": "drop"
        },
        {
          "t": 75103,
          "type": "note",
          "pitch": 69,
          "duration_ms": 95,
          "velocity": 127,
          "beat_index": 726,
          "section": "drop"
        },
        {
          "t": 75206,
          "type": "note",
          "pitch": 66,
          "duration_ms": 95,
          "velocity": 127,
          "beat_index": 727,
          "section": "drop"
        },
        {
          "t": 75310,
          "type": "note",
          "pitch": 78,
          "duration_ms": 95,
          "velocity": 127,
          "beat_index": 728,
          "section": "drop"
        },
        {
          "t": 75413,
          "type": "note",
          "pitch": 66,
          "duration_ms": 95,
          "velocity": 127,
          "beat_index": 729,
          "section": "drop"
        },
        {
          "t": 75517,
          "type": "note",
          "pitch": 71,
          "duration_ms": 95,
          "velocity": 127,
          "beat_index": 730,
          "section": "drop"
        },
        {
          "t": 75620,
          "type": "note",
          "pitch": 66,
          "duration_ms": 95,
          "velocity": 127,
          "beat_index": 731,
          "section": "drop"
        },
        {
          "t": 75724,
          "type": "note",
          "pitch": 73,
          "duration_ms": 95,
          "velocity": 127,
          "beat_index": 732,
          "section": "drop"
        },
        {
          "t": 75827,
          "type": "note",
          "pitch": 74,
          "duration_ms": 95,
          "velocity": 127,
          "beat_index": 733,
          "section": "drop"
        },
        {
          "t": 75931,
          "type": "note",
          "pitch": 76,
          "duration_ms": 95,
          "velocity": 127,
          "beat_index": 734,
          "section": "drop"
        },
        {
          "t": 76034,
          "type": "note",
          "pitch": 73,
          "duration_ms": 95,
          "velocity": 127,
          "beat_index": 735,
          "section": "drop"
        },
        {
          "t": 76137,
          "type": "note",
          "pitch": 66,
          "duration_ms": 95,
          "velocity": 127,
          "beat_index": 736,
          "section": "drop"
        },
        {
          "t": 76241,
          "type": "note",
          "pitch": 66,
          "duration_ms": 95,
          "velocity": 127,
          "beat_index": 737,
          "section": "drop"
        },
        {
          "t": 76344,
          "type": "note",
          "pitch": 71,
          "duration_ms": 95,
          "velocity": 127,
          "beat_index": 738,
          "section": "drop"
        },
        {
          "t": 76448,
          "type": "note",
          "pitch": 66,
          "duration_ms": 95,
          "velocity": 127,
          "beat_index": 739,
          "section": "drop"
        },
        {
          "t": 76551,
          "type": "note",
          "pitch": 73,
          "duration_ms": 95,
          "velocity": 127,
          "beat_index": 740,
          "section": "drop"
        },
        {
          "t": 76655,
          "type": "note",
          "pitch": 66,
          "duration_ms": 95,
          "velocity": 127,
          "beat_index": 741,
          "section": "drop"
        },
        {
          "t": 76758,
          "type": "note",
          "pitch": 69,
          "duration_ms": 95,
          "velocity": 127,
          "beat_index": 742,
          "section": "drop"
        },
        {
          "t": 76862,
          "type": "note",
          "pitch": 66,
          "duration_ms": 95,
          "velocity": 127,
          "beat_index": 743,
          "section": "drop"
        },
        {
          "t": 76965,
          "type": "note",
          "pitch": 78,
          "duration_ms": 95,
          "velocity": 127,
          "beat_index": 744,
          "section": "drop"
        },
        {
          "t": 77068,
          "type": "note",
          "pitch": 66,
          "duration_ms": 95,
          "velocity": 127,
          "beat_index": 745,
          "section": "drop"
        },
        {
          "t": 77172,
          "type": "note",
          "pitch": 71,
          "duration_ms": 95,
          "velocity": 127,
          "beat_index": 746,
          "section": "drop"
        },
        {
          "t": 77275,
          "type": "note",
          "pitch": 66,
          "duration_ms": 95,
          "velocity": 127,
          "beat_index": 747,
          "section": "drop"
        },
        {
          "t": 77379,
          "type": "note",
          "pitch": 73,
          "duration_ms": 95,
          "velocity": 127,
          "beat_index": 748,
          "section": "drop"
        },
        {
          "t": 77482,
          "type": "note",
          "pitch": 74,
          "duration_ms": 95,
          "velocity": 127,
          "beat_index": 749,
          "section": "drop"
        },
        {
          "t": 77586,
          "type": "note",
          "pitch": 76,
          "duration_ms": 95,
          "velocity": 127,
          "beat_index": 750,
          "section": "drop"
        },
        {
          "t": 77689,
          "type": "note",
          "pitch": 73,
          "duration_ms": 95,
          "velocity": 127,
          "beat_index": 751,
          "section": "drop"
        },
        {
          "t": 77793,
          "type": "note",
          "pitch": 66,
          "duration_ms": 95,
          "velocity": 127,
          "beat_index": 752,
          "section": "drop"
        },
        {
          "t": 77896,
          "type": "note",
          "pitch": 66,
          "duration_ms": 95,
          "velocity": 127,
          "beat_index": 753,
          "section": "drop"
        },
        {
          "t": 78000,
          "type": "note",
          "pitch": 71,
          "duration_ms": 95,
          "velocity": 127,
          "beat_index": 754,
          "section": "drop"
        },
        {
          "t": 78103,
          "type": "note",
          "pitch": 66,
          "duration_ms": 95,
          "velocity": 127,
          "beat_index": 755,
          "section": "drop"
        },
        {
          "t": 78206,
          "type": "note",
          "pitch": 73,
          "duration_ms": 95,
          "velocity": 127,
          "beat_index": 756,
          "section": "drop"
        },
        {
          "t": 78310,
          "type": "note",
          "pitch": 66,
          "duration_ms": 95,
          "velocity": 127,
          "beat_index": 757,
          "section": "drop"
        },
        {
          "t": 78413,
          "type": "note",
          "pitch": 69,
          "duration_ms": 95,
          "velocity": 127,
          "beat_index": 758,
          "section": "drop"
        },
        {
          "t": 78517,
          "type": "note",
          "pitch": 66,
          "duration_ms": 95,
          "velocity": 127,
          "beat_index": 759,
          "section": "drop"
        },
        {
          "t": 78620,
          "type": "note",
          "pitch": 78,
          "duration_ms": 95,
          "velocity": 127,
          "beat_index": 760,
          "section": "drop"
        },
        {
          "t": 78724,
          "type": "note",
          "pitch": 66,
          "duration_ms": 95,
          "velocity": 127,
          "beat_index": 761,
          "section": "drop"
        },
        {
          "t": 78827,
          "type": "note",
          "pitch": 71,
          "duration_ms": 95,
          "velocity": 127,
          "beat_index": 762,
          "section": "drop"
        },
        {
          "t": 78931,
          "type": "note",
          "pitch": 66,
          "duration_ms": 95,
          "velocity": 127,
          "beat_index": 763,
          "section": "drop"
        },
        {
          "t": 79034,
          "type": "note",
          "pitch": 73,
          "duration_ms": 95,
          "velocity": 127,
          "beat_index": 764,
          "section": "drop"
        },
        {
          "t": 79137,
          "type": "note",
          "pitch": 74,
          "duration_ms": 95,
          "velocity": 127,
          "beat_index": 765,
          "section": "drop"
        },
        {
          "t": 79241,
          "type": "note",
          "pitch": 76,
          "duration_ms": 95,
          "velocity": 127,
          "beat_index": 766,
          "section": "drop"
        },
        {
          "t": 79344,
          "type": "note",
          "pitch": 73,
          "duration_ms": 95,
          "velocity": 127,
          "beat_index": 767,
          "section": "drop"
        },
        {
          "t": 79448,
          "type": "note",
          "pitch": 66,
          "duration_ms": 95,
          "velocity": 127,
          "beat_index": 768,
          "section": "drop"
        },
        {
          "t": 79551,
          "type": "note",
          "pitch": 66,
          "duration_ms": 95,
          "velocity": 127,
          "beat_index": 769,
          "section": "drop"
        },
        {
          "t": 79655,
          "type": "note",
          "pitch": 71,
          "duration_ms": 95,
          "velocity": 127,
          "beat_index": 770,
          "section": "drop"
        },
        {
          "t": 79758,
          "type": "note",
          "pitch": 66,
          "duration_ms": 95,
          "velocity": 127,
          "beat_index": 771,
          "section": "drop"
        },
        {
          "t": 79862,
          "type": "note",
          "pitch": 73,
          "duration_ms": 95,
          "velocity": 127,
          "beat_index": 772,
          "section": "drop"
        },
        {
          "t": 79965,
          "type": "note",
          "pitch": 66,
          "duration_ms": 95,
          "velocity": 127,
          "beat_index": 773,
          "section": "drop"
        },
        {
          "t": 80068,
          "type": "note",
          "pitch": 69,
          "duration_ms": 95,
          "velocity": 127,
          "beat_index": 774,
          "section": "drop"
        },
        {
          "t": 80172,
          "type": "note",
          "pitch": 66,
          "duration_ms": 95,
          "velocity": 127,
          "beat_index": 775,
          "section": "drop"
        },
        {
          "t": 80275,
          "type": "note",
          "pitch": 78,
          "duration_ms": 95,
          "velocity": 127,
          "beat_index": 776,
          "section": "drop"
        },
        {
          "t": 80379,
          "type": "note",
          "pitch": 66,
          "duration_ms": 95,
          "velocity": 127,
          "beat_index": 777,
          "section": "drop"
        },
        {
          "t": 80482,
          "type": "note",
          "pitch": 71,
          "duration_ms": 95,
          "velocity": 127,
          "beat_index": 778,
          "section": "drop"
        },
        {
          "t": 80586,
          "type": "note",
          "pitch": 66,
          "duration_ms": 95,
          "velocity": 127,
          "beat_index": 779,
          "section": "drop"
        },
        {
          "t": 80689,
          "type": "note",
          "pitch": 73,
          "duration_ms": 95,
          "velocity": 127,
          "beat_index": 780,
          "section": "drop"
        },
        {
          "t": 80793,
          "type": "note",
          "pitch": 74,
          "duration_ms": 95,
          "velocity": 127,
          "beat_index": 781,
          "section": "drop"
        },
        {
          "t": 80896,
          "type": "note",
          "pitch": 76,
          "duration_ms": 95,
          "velocity": 127,
          "beat_index": 782,
          "section": "drop"
        },
        {
          "t": 81000,
          "type": "note",
          "pitch": 73,
          "duration_ms": 95,
          "velocity": 127,
          "beat_index": 783,
          "section": "drop"
        },
        {
          "t": 81103,
          "type": "note",
          "pitch": 66,
          "duration_ms": 95,
          "velocity": 127,
          "beat_index": 784,
          "section": "drop"
        },
        {
          "t": 81206,
          "type": "note",
          "pitch": 66,
          "duration_ms": 95,
          "velocity": 127,
          "beat_index": 785,
          "section": "drop"
        },
        {
          "t": 81310,
          "type": "note",
          "pitch": 71,
          "duration_ms": 95,
          "velocity": 127,
          "beat_index": 786,
          "section": "drop"
        },
        {
          "t": 81413,
          "type": "note",
          "pitch": 66,
          "duration_ms": 95,
          "velocity": 127,
          "beat_index": 787,
          "section": "drop"
        },
        {
          "t": 81517,
          "type": "note",
          "pitch": 73,
          "duration_ms": 95,
          "velocity": 127,
          "beat_index": 788,
          "section": "drop"
        },
        {
          "t": 81620,
          "type": "note",
          "pitch": 66,
          "duration_ms": 95,
          "velocity": 127,
          "beat_index": 789,
          "section": "drop"
        },
        {
          "t": 81724,
          "type": "note",
          "pitch": 69,
          "duration_ms": 95,
          "velocity": 127,
          "beat_index": 790,
          "section": "drop"
        },
        {
          "t": 81827,
          "type": "note",
          "pitch": 66,
          "duration_ms": 95,
          "velocity": 127,
          "beat_index": 791,
          "section": "drop"
        },
        {
          "t": 81931,
          "type": "note",
          "pitch": 78,
          "duration_ms": 95,
          "velocity": 127,
          "beat_index": 792,
          "section": "drop"
        },
        {
          "t": 82034,
          "type": "note",
          "pitch": 66,
          "duration_ms": 95,
          "velocity": 127,
          "beat_index": 793,
          "section": "drop"
        },
        {
          "t": 82137,
          "type": "note",
          "pitch": 71,
          "duration_ms": 95,
          "velocity": 127,
          "beat_index": 794,
          "section": "drop"
        },
        {
          "t": 82241,
          "type": "note",
          "pitch": 66,
          "duration_ms": 95,
          "velocity": 127,
          "beat_index": 795,
          "section": "drop"
        },
        {
          "t": 82344,
          "type": "note",
          "pitch": 73,
          "duration_ms": 95,
          "velocity": 127,
          "beat_index": 796,
          "section": "drop"
        },
        {
          "t": 82448,
          "type": "note",
          "pitch": 74,
          "duration_ms": 95,
          "velocity": 127,
          "beat_index": 797,
          "section": "drop"
        },
        {
          "t": 82551,
          "type": "note",
          "pitch": 76,
          "duration_ms": 95,
          "velocity": 127,
          "beat_index": 798,
          "section": "drop"
        },
        {
          "t": 82655,
          "type": "note",
          "pitch": 73,
          "duration_ms": 95,
          "velocity": 127,
          "beat_index": 799,
          "section": "drop"
        },
        {
          "t": 82758,
          "type": "note",
          "pitch": 66,
          "duration_ms": 95,
          "velocity": 127,
          "beat_index": 800,
          "section": "drop"
        },
        {
          "t": 82862,
          "type": "note",
          "pitch": 66,
          "duration_ms": 95,
          "velocity": 127,
          "beat_index": 801,
          "section": "drop"
        },
        {
          "t": 82965,
          "type": "note",
          "pitch": 71,
          "duration_ms": 95,
          "velocity": 127,
          "beat_index": 802,
          "section": "drop"
        },
        {
          "t": 83068,
          "type": "note",
          "pitch": 66,
          "duration_ms": 95,
          "velocity": 127,
          "beat_index": 803,
          "section": "drop"
        },
        {
          "t": 83172,
          "type": "note",
          "pitch": 73,
          "duration_ms": 95,
          "velocity": 127,
          "beat_index": 804,
          "section": "drop"
        },
        {
          "t": 83275,
          "type": "note",
          "pitch": 66,
          "duration_ms": 95,
          "velocity": 127,
          "beat_index": 805,
          "section": "drop"
        },
        {
          "t": 83379,
          "type": "note",
          "pitch": 69,
          "duration_ms": 95,
          "velocity": 127,
          "beat_index": 806,
          "section": "drop"
        },
        {
          "t": 83482,
          "type": "note",
          "pitch": 66,
          "duration_ms": 95,
          "velocity": 127,
          "beat_index": 807,
          "section": "drop"
        },
        {
          "t": 83586,
          "type": "note",
          "pitch": 78,
          "duration_ms": 95,
          "velocity": 127,
          "beat_index": 808,
          "section": "drop"
        },
        {
          "t": 83689,
          "type": "note",
          "pitch": 66,
          "duration_ms": 95,
          "velocity": 127,
          "beat_index": 809,
          "section": "drop"
        },
        {
          "t": 83793,
          "type": "note",
          "pitch": 71,
          "duration_ms": 95,
          "velocity": 127,
          "beat_index": 810,
          "section": "drop"
        },
        {
          "t": 83896,
          "type": "note",
          "pitch": 66,
          "duration_ms": 95,
          "velocity": 127,
          "beat_index": 811,
          "section": "drop"
        },
        {
          "t": 84000,
          "type": "note",
          "pitch": 73,
          "duration_ms": 95,
          "velocity": 127,
          "beat_index": 812,
          "section": "drop"
        },
        {
          "t": 84103,
          "type": "note",
          "pitch": 74,
          "duration_ms": 95,
          "velocity": 127,
          "beat_index": 813,
          "section": "drop"
        },
        {
          "t": 84206,
          "type": "note",
          "pitch": 76,
          "duration_ms": 95,
          "velocity": 127,
          "beat_index": 814,
          "section": "drop"
        },
        {
          "t": 84310,
          "type": "note",
          "pitch": 73,
          "duration_ms": 95,
          "velocity": 127,
          "beat_index": 815,
          "section": "drop"
        },
        {
          "t": 84413,
          "type": "note",
          "pitch": 66,
          "duration_ms": 95,
          "velocity": 127,
          "beat_index": 816,
          "section": "drop"
        },
        {
          "t": 84517,
          "type": "note",
          "pitch": 66,
          "duration_ms": 95,
          "velocity": 127,
          "beat_index": 817,
          "section": "drop"
        },
        {
          "t": 84620,
          "type": "note",
          "pitch": 71,
          "duration_ms": 95,
          "velocity": 127,
          "beat_index": 818,
          "section": "drop"
        },
        {
          "t": 84724,
          "type": "note",
          "pitch": 66,
          "duration_ms": 95,
          "velocity": 127,
          "beat_index": 819,
          "section": "drop"
        },
        {
          "t": 84827,
          "type": "note",
          "pitch": 73,
          "duration_ms": 95,
          "velocity": 127,
          "beat_index": 820,
          "section": "drop"
        },
        {
          "t": 84931,
          "type": "note",
          "pitch": 66,
          "duration_ms": 95,
          "velocity": 127,
          "beat_index": 821,
          "section": "drop"
        },
        {
          "t": 85034,
          "type": "note",
          "pitch": 69,
          "duration_ms": 95,
          "velocity": 127,
          "beat_index": 822,
          "section": "drop"
        },
        {
          "t": 85137,
          "type": "note",
          "pitch": 66,
          "duration_ms": 95,
          "velocity": 127,
          "beat_index": 823,
          "section": "drop"
        },
        {
          "t": 85241,
          "type": "note",
          "pitch": 78,
          "duration_ms": 95,
          "velocity": 127,
          "beat_index": 824,
          "section": "drop"
        },
        {
          "t": 85344,
          "type": "note",
          "pitch": 66,
          "duration_ms": 95,
          "velocity": 127,
          "beat_index": 825,
          "section": "drop"
        },
        {
          "t": 85448,
          "type": "note",
          "pitch": 71,
          "duration_ms": 95,
          "velocity": 127,
          "beat_index": 826,
          "section": "drop"
        },
        {
          "t": 85551,
          "type": "note",
          "pitch": 66,
          "duration_ms": 95,
          "velocity": 127,
          "beat_index": 827,
          "section": "drop"
        },
        {
          "t": 85655,
          "type": "note",
          "pitch": 73,
          "duration_ms": 95,
          "velocity": 127,
          "beat_index": 828,
          "section": "drop"
        },
        {
          "t": 85758,
          "type": "note",
          "pitch": 74,
          "duration_ms": 95,
          "velocity": 127,
          "beat_index": 829,
          "section": "drop"
        },
        {
          "t": 85862,
          "type": "note",
          "pitch": 76,
          "duration_ms": 95,
          "velocity": 127,
          "beat_index": 830,
          "section": "drop"
        },
        {
          "t": 85965,
          "type": "note",
          "pitch": 73,
          "duration_ms": 95,
          "velocity": 127,
          "beat_index": 831,
          "section": "drop"
        },
        {
          "t": 86068,
          "type": "note",
          "pitch": 66,
          "duration_ms": 95,
          "velocity": 127,
          "beat_index": 832,
          "section": "drop"
        },
        {
          "t": 86172,
          "type": "note",
          "pitch": 66,
          "duration_ms": 95,
          "velocity": 127,
          "beat_index": 833,
          "section": "drop"
        },
        {
          "t": 86275,
          "type": "note",
          "pitch": 71,
          "duration_ms": 95,
          "velocity": 127,
          "beat_index": 834,
          "section": "drop"
        },
        {
          "t": 86379,
          "type": "note",
          "pitch": 66,
          "duration_ms": 95,
          "velocity": 127,
          "beat_index": 835,
          "section": "drop"
        },
        {
          "t": 86482,
          "type": "note",
          "pitch": 73,
          "duration_ms": 95,
          "velocity": 127,
          "beat_index": 836,
          "section": "drop"
        },
        {
          "t": 86586,
          "type": "note",
          "pitch": 66,
          "duration_ms": 95,
          "velocity": 127,
          "beat_index": 837,
          "section": "drop"
        },
        {
          "t": 86689,
          "type": "note",
          "pitch": 69,
          "duration_ms": 95,
          "velocity": 127,
          "beat_index": 838,
          "section": "drop"
        },
        {
          "t": 86793,
          "type": "note",
          "pitch": 66,
          "duration_ms": 95,
          "velocity": 127,
          "beat_index": 839,
          "section": "drop"
        },
        {
          "t": 86896,
          "type": "note",
          "pitch": 78,
          "duration_ms": 95,
          "velocity": 127,
          "beat_index": 840,
          "section": "drop"
        },
        {
          "t": 87000,
          "type": "note",
          "pitch": 66,
          "duration_ms": 95,
          "velocity": 127,
          "beat_index": 841,
          "section": "drop"
        },
        {
          "t": 87103,
          "type": "note",
          "pitch": 71,
          "duration_ms": 95,
          "velocity": 127,
          "beat_index": 842,
          "section": "drop"
        },
        {
          "t": 87206,
          "type": "note",
          "pitch": 66,
          "duration_ms": 95,
          "velocity": 127,
          "beat_index": 843,
          "section": "drop"
        },
        {
          "t": 87310,
          "type": "note",
          "pitch": 73,
          "duration_ms": 95,
          "velocity": 127,
          "beat_index": 844,
          "section": "drop"
        },
        {
          "t": 87413,
          "type": "note",
          "pitch": 74,
          "duration_ms": 95,
          "velocity": 127,
          "beat_index": 845,
          "section": "drop"
        },
        {
          "t": 87517,
          "type": "note",
          "pitch": 76,
          "duration_ms": 95,
          "velocity": 127,
          "beat_index": 846,
          "section": "drop"
        },
        {
          "t": 87620,
          "type": "note",
          "pitch": 73,
          "duration_ms": 95,
          "velocity": 127,
          "beat_index": 847,
          "section": "drop"
        },
        {
          "t": 87724,
          "type": "note",
          "pitch": 66,
          "duration_ms": 95,
          "velocity": 127,
          "beat_index": 848,
          "section": "drop"
        },
        {
          "t": 87827,
          "type": "note",
          "pitch": 66,
          "duration_ms": 95,
          "velocity": 127,
          "beat_index": 849,
          "section": "drop"
        },
        {
          "t": 87931,
          "type": "note",
          "pitch": 71,
          "duration_ms": 95,
          "velocity": 127,
          "beat_index": 850,
          "section": "drop"
        },
        {
          "t": 88034,
          "type": "note",
          "pitch": 66,
          "duration_ms": 95,
          "velocity": 127,
          "beat_index": 851,
          "section": "drop"
        },
        {
          "t": 88137,
          "type": "note",
          "pitch": 73,
          "duration_ms": 95,
          "velocity": 127,
          "beat_index": 852,
          "section": "drop"
        },
        {
          "t": 88241,
          "type": "note",
          "pitch": 66,
          "duration_ms": 95,
          "velocity": 127,
          "beat_index": 853,
          "section": "drop"
        },
        {
          "t": 88344,
          "type": "note",
          "pitch": 69,
          "duration_ms": 95,
          "velocity": 127,
          "beat_index": 854,
          "section": "drop"
        },
        {
          "t": 88448,
          "type": "note",
          "pitch": 66,
          "duration_ms": 95,
          "velocity": 127,
          "beat_index": 855,
          "section": "drop"
        },
        {
          "t": 88551,
          "type": "note",
          "pitch": 78,
          "duration_ms": 95,
          "velocity": 127,
          "beat_index": 856,
          "section": "drop"
        },
        {
          "t": 88655,
          "type": "note",
          "pitch": 66,
          "duration_ms": 95,
          "velocity": 127,
          "beat_index": 857,
          "section": "drop"
        },
        {
          "t": 88758,
          "type": "note",
          "pitch": 71,
          "duration_ms": 95,
          "velocity": 127,
          "beat_index": 858,
          "section": "drop"
        },
        {
          "t": 88862,
          "type": "note",
          "pitch": 66,
          "duration_ms": 95,
          "velocity": 127,
          "beat_index": 859,
          "section": "drop"
        },
        {
          "t": 88965,
          "type": "note",
          "pitch": 73,
          "duration_ms": 95,
          "velocity": 127,
          "beat_index": 860,
          "section": "drop"
        },
        {
          "t": 89068,
          "type": "note",
          "pitch": 74,
          "duration_ms": 95,
          "velocity": 127,
          "beat_index": 861,
          "section": "drop"
        },
        {
          "t": 89172,
          "type": "note",
          "pitch": 76,
          "duration_ms": 95,
          "velocity": 127,
          "beat_index": 862,
          "section": "drop"
        },
        {
          "t": 89275,
          "type": "note",
          "pitch": 73,
          "duration_ms": 95,
          "velocity": 127,
          "beat_index": 863,
          "section": "drop"
        },
        {
          "t": 89379,
          "type": "note",
          "pitch": 66,
          "duration_ms": 95,
          "velocity": 127,
          "beat_index": 864,
          "section": "drop"
        },
        {
          "t": 89482,
          "type": "note",
          "pitch": 66,
          "duration_ms": 95,
          "velocity": 127,
          "beat_index": 865,
          "section": "drop"
        },
        {
          "t": 89586,
          "type": "note",
          "pitch": 71,
          "duration_ms": 95,
          "velocity": 127,
          "beat_index": 866,
          "section": "drop"
        },
        {
          "t": 89689,
          "type": "note",
          "pitch": 66,
          "duration_ms": 95,
          "velocity": 127,
          "beat_index": 867,
          "section": "drop"
        },
        {
          "t": 89793,
          "type": "note",
          "pitch": 73,
          "duration_ms": 95,
          "velocity": 127,
          "beat_index": 868,
          "section": "drop"
        },
        {
          "t": 89896,
          "type": "note",
          "pitch": 66,
          "duration_ms": 95,
          "velocity": 127,
          "beat_index": 869,
          "section": "drop"
        },
        {
          "t": 90000,
          "type": "note",
          "pitch": 69,
          "duration_ms": 95,
          "velocity": 127,
          "beat_index": 870,
          "section": "drop"
        },
        {
          "t": 90103,
          "type": "note",
          "pitch": 66,
          "duration_ms": 95,
          "velocity": 127,
          "beat_index": 871,
          "section": "drop"
        },
        {
          "t": 90206,
          "type": "note",
          "pitch": 78,
          "duration_ms": 95,
          "velocity": 127,
          "beat_index": 872,
          "section": "drop"
        },
        {
          "t": 90310,
          "type": "note",
          "pitch": 66,
          "duration_ms": 95,
          "velocity": 127,
          "beat_index": 873,
          "section": "drop"
        },
        {
          "t": 90413,
          "type": "note",
          "pitch": 71,
          "duration_ms": 95,
          "velocity": 127,
          "beat_index": 874,
          "section": "drop"
        },
        {
          "t": 90517,
          "type": "note",
          "pitch": 66,
          "duration_ms": 95,
          "velocity": 127,
          "beat_index": 875,
          "section": "drop"
        },
        {
          "t": 90620,
          "type": "note",
          "pitch": 73,
          "duration_ms": 95,
          "velocity": 127,
          "beat_index": 876,
          "section": "drop"
        },
        {
          "t": 90724,
          "type": "note",
          "pitch": 74,
          "duration_ms": 95,
          "velocity": 127,
          "beat_index": 877,
          "section": "drop"
        },
        {
          "t": 90827,
          "type": "note",
          "pitch": 76,
          "duration_ms": 95,
          "velocity": 127,
          "beat_index": 878,
          "section": "drop"
        },
        {
          "t": 90931,
          "type": "note",
          "pitch": 73,
          "duration_ms": 95,
          "velocity": 127,
          "beat_index": 879,
          "section": "drop"
        },
        {
          "t": 91034,
          "type": "note",
          "pitch": 66,
          "duration_ms": 95,
          "velocity": 127,
          "beat_index": 880,
          "section": "drop"
        },
        {
          "t": 91137,
          "type": "note",
          "pitch": 66,
          "duration_ms": 95,
          "velocity": 127,
          "beat_index": 881,
          "section": "drop"
        },
        {
          "t": 91241,
          "type": "note",
          "pitch": 71,
          "duration_ms": 95,
          "velocity": 127,
          "beat_index": 882,
          "section": "drop"
        },
        {
          "t": 91344,
          "type": "note",
          "pitch": 66,
          "duration_ms": 95,
          "velocity": 127,
          "beat_index": 883,
          "section": "drop"
        },
        {
          "t": 91448,
          "type": "note",
          "pitch": 73,
          "duration_ms": 95,
          "velocity": 127,
          "beat_index": 884,
          "section": "drop"
        },
        {
          "t": 91551,
          "type": "note",
          "pitch": 66,
          "duration_ms": 95,
          "velocity": 127,
          "beat_index": 885,
          "section": "drop"
        },
        {
          "t": 91655,
          "type": "note",
          "pitch": 69,
          "duration_ms": 95,
          "velocity": 127,
          "beat_index": 886,
          "section": "drop"
        },
        {
          "t": 91758,
          "type": "note",
          "pitch": 66,
          "duration_ms": 95,
          "velocity": 127,
          "beat_index": 887,
          "section": "drop"
        },
        {
          "t": 91862,
          "type": "note",
          "pitch": 78,
          "duration_ms": 95,
          "velocity": 127,
          "beat_index": 888,
          "section": "drop"
        },
        {
          "t": 91965,
          "type": "note",
          "pitch": 66,
          "duration_ms": 95,
          "velocity": 127,
          "beat_index": 889,
          "section": "drop"
        },
        {
          "t": 92068,
          "type": "note",
          "pitch": 71,
          "duration_ms": 95,
          "velocity": 127,
          "beat_index": 890,
          "section": "drop"
        },
        {
          "t": 92172,
          "type": "note",
          "pitch": 66,
          "duration_ms": 95,
          "velocity": 127,
          "beat_index": 891,
          "section": "drop"
        },
        {
          "t": 92275,
          "type": "note",
          "pitch": 73,
          "duration_ms": 95,
          "velocity": 127,
          "beat_index": 892,
          "section": "drop"
        },
        {
          "t": 92379,
          "type": "note",
          "pitch": 74,
          "duration_ms": 95,
          "velocity": 127,
          "beat_index": 893,
          "section": "drop"
        },
        {
          "t": 92482,
          "type": "note",
          "pitch": 76,
          "duration_ms": 95,
          "velocity": 127,
          "beat_index": 894,
          "section": "drop"
        },
        {
          "t": 92586,
          "type": "note",
          "pitch": 73,
          "duration_ms": 95,
          "velocity": 127,
          "beat_index": 895,
          "section": "drop"
        },
        {
          "t": 92689,
          "type": "note",
          "pitch": 54,
          "duration_ms": 380,
          "velocity": 60,
          "beat_index": 896,
          "section": "breakdown"
        },
        {
          "t": 93517,
          "type": "note",
          "pitch": 61,
          "duration_ms": 380,
          "velocity": 60,
          "beat_index": 904,
          "section": "breakdown"
        },
        {
          "t": 94344,
          "type": "note",
          "pitch": 54,
          "duration_ms": 380,
          "velocity": 60,
          "beat_index": 912,
          "section": "breakdown"
        },
        {
          "t": 95172,
          "type": "note",
          "pitch": 61,
          "duration_ms": 380,
          "velocity": 60,
          "beat_index": 920,
          "section": "breakdown"
        },
        {
          "t": 96000,
          "type": "note",
          "pitch": 54,
          "duration_ms": 380,
          "velocity": 60,
          "beat_index": 928,
          "section": "breakdown"
        },
        {
          "t": 96827,
          "type": "note",
          "pitch": 61,
          "duration_ms": 380,
          "velocity": 60,
          "beat_index": 936,
          "section": "breakdown"
        },
        {
          "t": 97655,
          "type": "note",
          "pitch": 54,
          "duration_ms": 380,
          "velocity": 60,
          "beat_index": 944,
          "section": "breakdown"
        },
        {
          "t": 98482,
          "type": "note",
          "pitch": 61,
          "duration_ms": 380,
          "velocity": 60,
          "beat_index": 952,
          "section": "breakdown"
        },
        {
          "t": 99310,
          "type": "note",
          "pitch": 54,
          "duration_ms": 380,
          "velocity": 60,
          "beat_index": 960,
          "section": "breakdown"
        },
        {
          "t": 100137,
          "type": "note",
          "pitch": 61,
          "duration_ms": 380,
          "velocity": 60,
          "beat_index": 968,
          "section": "breakdown"
        },
        {
          "t": 100965,
          "type": "note",
          "pitch": 54,
          "duration_ms": 380,
          "velocity": 60,
          "beat_index": 976,
          "section": "breakdown"
        },
        {
          "t": 101793,
          "type": "note",
          "pitch": 61,
          "duration_ms": 380,
          "velocity": 60,
          "beat_index": 984,
          "section": "breakdown"
        },
        {
          "t": 102620,
          "type": "note",
          "pitch": 54,
          "duration_ms": 380,
          "velocity": 60,
          "beat_index": 992,
          "section": "breakdown"
        },
        {
          "t": 103448,
          "type": "note",
          "pitch": 61,
          "duration_ms": 380,
          "velocity": 60,
          "beat_index": 1000,
          "section": "breakdown"
        },
        {
          "t": 104275,
          "type": "note",
          "pitch": 54,
          "duration_ms": 380,
          "velocity": 60,
          "beat_index": 1008,
          "section": "breakdown"
        },
        {
          "t": 105103,
          "type": "note",
          "pitch": 61,
          "duration_ms": 380,
          "velocity": 60,
          "beat_index": 1016,
          "section": "breakdown"
        },
        {
          "t": 105931,
          "type": "note",
          "pitch": 54,
          "duration_ms": 380,
          "velocity": 60,
          "beat_index": 1024,
          "section": "breakdown"
        },
        {
          "t": 106758,
          "type": "note",
          "pitch": 61,
          "duration_ms": 380,
          "velocity": 60,
          "beat_index": 1032,
          "section": "breakdown"
        },
        {
          "t": 107586,
          "type": "note",
          "pitch": 54,
          "duration_ms": 380,
          "velocity": 60,
          "beat_index": 1040,
          "section": "breakdown"
        },
        {
          "t": 108413,
          "type": "note",
          "pitch": 61,
          "duration_ms": 380,
          "velocity": 60,
          "beat_index": 1048,
          "section": "breakdown"
        },
        {
          "t": 109241,
          "type": "note",
          "pitch": 54,
          "duration_ms": 380,
          "velocity": 60,
          "beat_index": 1056,
          "section": "breakdown"
        },
        {
          "t": 110068,
          "type": "note",
          "pitch": 61,
          "duration_ms": 380,
          "velocity": 60,
          "beat_index": 1064,
          "section": "breakdown"
        },
        {
          "t": 110896,
          "type": "note",
          "pitch": 54,
          "duration_ms": 380,
          "velocity": 60,
          "beat_index": 1072,
          "section": "breakdown"
        },
        {
          "t": 111724,
          "type": "note",
          "pitch": 61,
          "duration_ms": 380,
          "velocity": 60,
          "beat_index": 1080,
          "section": "breakdown"
        },
        {
          "t": 112551,
          "type": "note",
          "pitch": 54,
          "duration_ms": 380,
          "velocity": 60,
          "beat_index": 1088,
          "section": "breakdown"
        },
        {
          "t": 113379,
          "type": "note",
          "pitch": 61,
          "duration_ms": 380,
          "velocity": 60,
          "beat_index": 1096,
          "section": "breakdown"
        },
        {
          "t": 114206,
          "type": "note",
          "pitch": 54,
          "duration_ms": 380,
          "velocity": 60,
          "beat_index": 1104,
          "section": "breakdown"
        },
        {
          "t": 115034,
          "type": "note",
          "pitch": 61,
          "duration_ms": 380,
          "velocity": 60,
          "beat_index": 1112,
          "section": "breakdown"
        },
        {
          "t": 115862,
          "type": "note",
          "pitch": 54,
          "duration_ms": 380,
          "velocity": 60,
          "beat_index": 1120,
          "section": "breakdown"
        },
        {
          "t": 116689,
          "type": "note",
          "pitch": 61,
          "duration_ms": 380,
          "velocity": 60,
          "beat_index": 1128,
          "section": "breakdown"
        },
        {
          "t": 117517,
          "type": "note",
          "pitch": 54,
          "duration_ms": 380,
          "velocity": 60,
          "beat_index": 1136,
          "section": "breakdown"
        },
        {
          "t": 118344,
          "type": "note",
          "pitch": 61,
          "duration_ms": 380,
          "velocity": 60,
          "beat_index": 1144,
          "section": "breakdown"
        },
        {
          "t": 119172,
          "type": "note",
          "pitch": 66,
          "duration_ms": 95,
          "velocity": 127,
          "beat_index": 1152,
          "section": "drop"
        },
        {
          "t": 119275,
          "type": "note",
          "pitch": 66,
          "duration_ms": 95,
          "velocity": 127,
          "beat_index": 1153,
          "section": "drop"
        },
        {
          "t": 119379,
          "type": "note",
          "pitch": 71,
          "duration_ms": 95,
          "velocity": 127,
          "beat_index": 1154,
          "section": "drop"
        },
        {
          "t": 119482,
          "type": "note",
          "pitch": 66,
          "duration_ms": 95,
          "velocity": 127,
          "beat_index": 1155,
          "section": "drop"
        },
        {
          "t": 119586,
          "type": "note",
          "pitch": 73,
          "duration_ms": 95,
          "velocity": 127,
          "beat_index": 1156,
          "section": "drop"
        },
        {
          "t": 119689,
          "type": "note",
          "pitch": 66,
          "duration_ms": 95,
          "velocity": 127,
          "beat_index": 1157,
          "section": "drop"
        },
        {
          "t": 119793,
          "type": "note",
          "pitch": 69,
          "duration_ms": 95,
          "velocity": 127,
          "beat_index": 1158,
          "section": "drop"
        },
        {
          "t": 119896,
          "type": "note",
          "pitch": 66,
          "duration_ms": 95,
          "velocity": 127,
          "beat_index": 1159,
          "section": "drop"
        },
        {
          "t": 120000,
          "type": "note",
          "pitch": 78,
          "duration_ms": 95,
          "velocity": 127,
          "beat_index": 1160,
          "section": "drop"
        },
        {
          "t": 120103,
          "type": "note",
          "pitch": 66,
          "duration_ms": 95,
          "velocity": 127,
          "beat_index": 1161,
          "section": "drop"
        },
        {
          "t": 120206,
          "type": "note",
          "pitch": 71,
          "duration_ms": 95,
          "velocity": 127,
          "beat_index": 1162,
          "section": "drop"
        },
        {
          "t": 120310,
          "type": "note",
          "pitch": 66,
          "duration_ms": 95,
          "velocity": 127,
          "beat_index": 1163,
          "section": "drop"
        },
        {
          "t": 120413,
          "type": "note",
          "pitch": 73,
          "duration_ms": 95,
          "velocity": 127,
          "beat_index": 1164,
          "section": "drop"
        },
        {
          "t": 120517,
          "type": "note",
          "pitch": 74,
          "duration_ms": 95,
          "velocity": 127,
          "beat_index": 1165,
          "section": "drop"
        },
        {
          "t": 120620,
          "type": "note",
          "pitch": 76,
          "duration_ms": 95,
          "velocity": 127,
          "beat_index": 1166,
          "section": "drop"
        },
        {
          "t": 120724,
          "type": "note",
          "pitch": 73,
          "duration_ms": 95,
          "velocity": 127,
          "beat_index": 1167,
          "section": "drop"
        },
        {
          "t": 120827,
          "type": "note",
          "pitch": 66,
          "duration_ms": 95,
          "velocity": 127,
          "beat_index": 1168,
          "section": "drop"
        },
        {
          "t": 120931,
          "type": "note",
          "pitch": 66,
          "duration_ms": 95,
          "velocity": 127,
          "beat_index": 1169,
          "section": "drop"
        },
        {
          "t": 121034,
          "type": "note",
          "pitch": 71,
          "duration_ms": 95,
          "velocity": 127,
          "beat_index": 1170,
          "section": "drop"
        },
        {
          "t": 121137,
          "type": "note",
          "pitch": 66,
          "duration_ms": 95,
          "velocity": 127,
          "beat_index": 1171,
          "section": "drop"
        },
        {
          "t": 121241,
          "type": "note",
          "pitch": 73,
          "duration_ms": 95,
          "velocity": 127,
          "beat_index": 1172,
          "section": "drop"
        },
        {
          "t": 121344,
          "type": "note",
          "pitch": 66,
          "duration_ms": 95,
          "velocity": 127,
          "beat_index": 1173,
          "section": "drop"
        },
        {
          "t": 121448,
          "type": "note",
          "pitch": 69,
          "duration_ms": 95,
          "velocity": 127,
          "beat_index": 1174,
          "section": "drop"
        },
        {
          "t": 121551,
          "type": "note",
          "pitch": 66,
          "duration_ms": 95,
          "velocity": 127,
          "beat_index": 1175,
          "section": "drop"
        },
        {
          "t": 121655,
          "type": "note",
          "pitch": 78,
          "duration_ms": 95,
          "velocity": 127,
          "beat_index": 1176,
          "section": "drop"
        },
        {
          "t": 121758,
          "type": "note",
          "pitch": 66,
          "duration_ms": 95,
          "velocity": 127,
          "beat_index": 1177,
          "section": "drop"
        },
        {
          "t": 121862,
          "type": "note",
          "pitch": 71,
          "duration_ms": 95,
          "velocity": 127,
          "beat_index": 1178,
          "section": "drop"
        },
        {
          "t": 121965,
          "type": "note",
          "pitch": 66,
          "duration_ms": 95,
          "velocity": 127,
          "beat_index": 1179,
          "section": "drop"
        },
        {
          "t": 122068,
          "type": "note",
          "pitch": 73,
          "duration_ms": 95,
          "velocity": 127,
          "beat_index": 1180,
          "section": "drop"
        },
        {
          "t": 122172,
          "type": "note",
          "pitch": 74,
          "duration_ms": 95,
          "velocity": 127,
          "beat_index": 1181,
          "section": "drop"
        },
        {
          "t": 122275,
          "type": "note",
          "pitch": 76,
          "duration_ms": 95,
          "velocity": 127,
          "beat_index": 1182,
          "section": "drop"
        },
        {
          "t": 122379,
          "type": "note",
          "pitch": 73,
          "duration_ms": 95,
          "velocity": 127,
          "beat_index": 1183,
          "section": "drop"
        },
        {
          "t": 122482,
          "type": "note",
          "pitch": 66,
          "duration_ms": 95,
          "velocity": 127,
          "beat_index": 1184,
          "section": "drop"
        },
        {
          "t": 122586,
          "type": "note",
          "pitch": 66,
          "duration_ms": 95,
          "velocity": 127,
          "beat_index": 1185,
          "section": "drop"
        },
        {
          "t": 122689,
          "type": "note",
          "pitch": 71,
          "duration_ms": 95,
          "velocity": 127,
          "beat_index": 1186,
          "section": "drop"
        },
        {
          "t": 122793,
          "type": "note",
          "pitch": 66,
          "duration_ms": 95,
          "velocity": 127,
          "beat_index": 1187,
          "section": "drop"
        },
        {
          "t": 122896,
          "type": "note",
          "pitch": 73,
          "duration_ms": 95,
          "velocity": 127,
          "beat_index": 1188,
          "section": "drop"
        },
        {
          "t": 123000,
          "type": "note",
          "pitch": 66,
          "duration_ms": 95,
          "velocity": 127,
          "beat_index": 1189,
          "section": "drop"
        },
        {
          "t": 123103,
          "type": "note",
          "pitch": 69,
          "duration_ms": 95,
          "velocity": 127,
          "beat_index": 1190,
          "section": "drop"
        },
        {
          "t": 123206,
          "type": "note",
          "pitch": 66,
          "duration_ms": 95,
          "velocity": 127,
          "beat_index": 1191,
          "section": "drop"
        },
        {
          "t": 123310,
          "type": "note",
          "pitch": 78,
          "duration_ms": 95,
          "velocity": 127,
          "beat_index": 1192,
          "section": "drop"
        },
        {
          "t": 123413,
          "type": "note",
          "pitch": 66,
          "duration_ms": 95,
          "velocity": 127,
          "beat_index": 1193,
          "section": "drop"
        },
        {
          "t": 123517,
          "type": "note",
          "pitch": 71,
          "duration_ms": 95,
          "velocity": 127,
          "beat_index": 1194,
          "section": "drop"
        },
        {
          "t": 123620,
          "type": "note",
          "pitch": 66,
          "duration_ms": 95,
          "velocity": 127,
          "beat_index": 1195,
          "section": "drop"
        },
        {
          "t": 123724,
          "type": "note",
          "pitch": 73,
          "duration_ms": 95,
          "velocity": 127,
          "beat_index": 1196,
          "section": "drop"
        },
        {
          "t": 123827,
          "type": "note",
          "pitch": 74,
          "duration_ms": 95,
          "velocity": 127,
          "beat_index": 1197,
          "section": "drop"
        },
        {
          "t": 123931,
          "type": "note",
          "pitch": 76,
          "duration_ms": 95,
          "velocity": 127,
          "beat_index": 1198,
          "section": "drop"
        },
        {
          "t": 124034,
          "type": "note",
          "pitch": 73,
          "duration_ms": 95,
          "velocity": 127,
          "beat_index": 1199,
          "section": "drop"
        },
        {
          "t": 124137,
          "type": "note",
          "pitch": 66,
          "duration_ms": 95,
          "velocity": 127,
          "beat_index": 1200,
          "section": "drop"
        },
        {
          "t": 124241,
          "type": "note",
          "pitch": 66,
          "duration_ms": 95,
          "velocity": 127,
          "beat_index": 1201,
          "section": "drop"
        },
        {
          "t": 124344,
          "type": "note",
          "pitch": 71,
          "duration_ms": 95,
          "velocity": 127,
          "beat_index": 1202,
          "section": "drop"
        },
        {
          "t": 124448,
          "type": "note",
          "pitch": 66,
          "duration_ms": 95,
          "velocity": 127,
          "beat_index": 1203,
          "section": "drop"
        },
        {
          "t": 124551,
          "type": "note",
          "pitch": 73,
          "duration_ms": 95,
          "velocity": 127,
          "beat_index": 1204,
          "section": "drop"
        },
        {
          "t": 124655,
          "type": "note",
          "pitch": 66,
          "duration_ms": 95,
          "velocity": 127,
          "beat_index": 1205,
          "section": "drop"
        },
        {
          "t": 124758,
          "type": "note",
          "pitch": 69,
          "duration_ms": 95,
          "velocity": 127,
          "beat_index": 1206,
          "section": "drop"
        },
        {
          "t": 124862,
          "type": "note",
          "pitch": 66,
          "duration_ms": 95,
          "velocity": 127,
          "beat_index": 1207,
          "section": "drop"
        },
        {
          "t": 124965,
          "type": "note",
          "pitch": 78,
          "duration_ms": 95,
          "velocity": 127,
          "beat_index": 1208,
          "section": "drop"
        },
        {
          "t": 125068,
          "type": "note",
          "pitch": 66,
          "duration_ms": 95,
          "velocity": 127,
          "beat_index": 1209,
          "section": "drop"
        },
        {
          "t": 125172,
          "type": "note",
          "pitch": 71,
          "duration_ms": 95,
          "velocity": 127,
          "beat_index": 1210,
          "section": "drop"
        },
        {
          "t": 125275,
          "type": "note",
          "pitch": 66,
          "duration_ms": 95,
          "velocity": 127,
          "beat_index": 1211,
          "section": "drop"
        },
        {
          "t": 125379,
          "type": "note",
          "pitch": 73,
          "duration_ms": 95,
          "velocity": 127,
          "beat_index": 1212,
          "section": "drop"
        },
        {
          "t": 125482,
          "type": "note",
          "pitch": 74,
          "duration_ms": 95,
          "velocity": 127,
          "beat_index": 1213,
          "section": "drop"
        },
        {
          "t": 125586,
          "type": "note",
          "pitch": 76,
          "duration_ms": 95,
          "velocity": 127,
          "beat_index": 1214,
          "section": "drop"
        },
        {
          "t": 125689,
          "type": "note",
          "pitch": 73,
          "duration_ms": 95,
          "velocity": 127,
          "beat_index": 1215,
          "section": "drop"
        },
        {
          "t": 125793,
          "type": "note",
          "pitch": 66,
          "duration_ms": 95,
          "velocity": 127,
          "beat_index": 1216,
          "section": "drop"
        },
        {
          "t": 125896,
          "type": "note",
          "pitch": 66,
          "duration_ms": 95,
          "velocity": 127,
          "beat_index": 1217,
          "section": "drop"
        },
        {
          "t": 126000,
          "type": "note",
          "pitch": 71,
          "duration_ms": 95,
          "velocity": 127,
          "beat_index": 1218,
          "section": "drop"
        },
        {
          "t": 126103,
          "type": "note",
          "pitch": 66,
          "duration_ms": 95,
          "velocity": 127,
          "beat_index": 1219,
          "section": "drop"
        },
        {
          "t": 126206,
          "type": "note",
          "pitch": 73,
          "duration_ms": 95,
          "velocity": 127,
          "beat_index": 1220,
          "section": "drop"
        },
        {
          "t": 126310,
          "type": "note",
          "pitch": 66,
          "duration_ms": 95,
          "velocity": 127,
          "beat_index": 1221,
          "section": "drop"
        },
        {
          "t": 126413,
          "type": "note",
          "pitch": 69,
          "duration_ms": 95,
          "velocity": 127,
          "beat_index": 1222,
          "section": "drop"
        },
        {
          "t": 126517,
          "type": "note",
          "pitch": 66,
          "duration_ms": 95,
          "velocity": 127,
          "beat_index": 1223,
          "section": "drop"
        },
        {
          "t": 126620,
          "type": "note",
          "pitch": 78,
          "duration_ms": 95,
          "velocity": 127,
          "beat_index": 1224,
          "section": "drop"
        },
        {
          "t": 126724,
          "type": "note",
          "pitch": 66,
          "duration_ms": 95,
          "velocity": 127,
          "beat_index": 1225,
          "section": "drop"
        },
        {
          "t": 126827,
          "type": "note",
          "pitch": 71,
          "duration_ms": 95,
          "velocity": 127,
          "beat_index": 1226,
          "section": "drop"
        },
        {
          "t": 126931,
          "type": "note",
          "pitch": 66,
          "duration_ms": 95,
          "velocity": 127,
          "beat_index": 1227,
          "section": "drop"
        },
        {
          "t": 127034,
          "type": "note",
          "pitch": 73,
          "duration_ms": 95,
          "velocity": 127,
          "beat_index": 1228,
          "section": "drop"
        },
        {
          "t": 127137,
          "type": "note",
          "pitch": 74,
          "duration_ms": 95,
          "velocity": 127,
          "beat_index": 1229,
          "section": "drop"
        },
        {
          "t": 127241,
          "type": "note",
          "pitch": 76,
          "duration_ms": 95,
          "velocity": 127,
          "beat_index": 1230,
          "section": "drop"
        },
        {
          "t": 127344,
          "type": "note",
          "pitch": 73,
          "duration_ms": 95,
          "velocity": 127,
          "beat_index": 1231,
          "section": "drop"
        },
        {
          "t": 127448,
          "type": "note",
          "pitch": 66,
          "duration_ms": 95,
          "velocity": 127,
          "beat_index": 1232,
          "section": "drop"
        },
        {
          "t": 127551,
          "type": "note",
          "pitch": 66,
          "duration_ms": 95,
          "velocity": 127,
          "beat_index": 1233,
          "section": "drop"
        },
        {
          "t": 127655,
          "type": "note",
          "pitch": 71,
          "duration_ms": 95,
          "velocity": 127,
          "beat_index": 1234,
          "section": "drop"
        },
        {
          "t": 127758,
          "type": "note",
          "pitch": 66,
          "duration_ms": 95,
          "velocity": 127,
          "beat_index": 1235,
          "section": "drop"
        },
        {
          "t": 127862,
          "type": "note",
          "pitch": 73,
          "duration_ms": 95,
          "velocity": 127,
          "beat_index": 1236,
          "section": "drop"
        },
        {
          "t": 127965,
          "type": "note",
          "pitch": 66,
          "duration_ms": 95,
          "velocity": 127,
          "beat_index": 1237,
          "section": "drop"
        },
        {
          "t": 128068,
          "type": "note",
          "pitch": 69,
          "duration_ms": 95,
          "velocity": 127,
          "beat_index": 1238,
          "section": "drop"
        },
        {
          "t": 128172,
          "type": "note",
          "pitch": 66,
          "duration_ms": 95,
          "velocity": 127,
          "beat_index": 1239,
          "section": "drop"
        },
        {
          "t": 128275,
          "type": "note",
          "pitch": 78,
          "duration_ms": 95,
          "velocity": 127,
          "beat_index": 1240,
          "section": "drop"
        },
        {
          "t": 128379,
          "type": "note",
          "pitch": 66,
          "duration_ms": 95,
          "velocity": 127,
          "beat_index": 1241,
          "section": "drop"
        },
        {
          "t": 128482,
          "type": "note",
          "pitch": 71,
          "duration_ms": 95,
          "velocity": 127,
          "beat_index": 1242,
          "section": "drop"
        },
        {
          "t": 128586,
          "type": "note",
          "pitch": 66,
          "duration_ms": 95,
          "velocity": 127,
          "beat_index": 1243,
          "section": "drop"
        },
        {
          "t": 128689,
          "type": "note",
          "pitch": 73,
          "duration_ms": 95,
          "velocity": 127,
          "beat_index": 1244,
          "section": "drop"
        },
        {
          "t": 128793,
          "type": "note",
          "pitch": 74,
          "duration_ms": 95,
          "velocity": 127,
          "beat_index": 1245,
          "section": "drop"
        },
        {
          "t": 128896,
          "type": "note",
          "pitch": 76,
          "duration_ms": 95,
          "velocity": 127,
          "beat_index": 1246,
          "section": "drop"
        },
        {
          "t": 129000,
          "type": "note",
          "pitch": 73,
          "duration_ms": 95,
          "velocity": 127,
          "beat_index": 1247,
          "section": "drop"
        },
        {
          "t": 129103,
          "type": "note",
          "pitch": 66,
          "duration_ms": 95,
          "velocity": 127,
          "beat_index": 1248,
          "section": "drop"
        },
        {
          "t": 129206,
          "type": "note",
          "pitch": 66,
          "duration_ms": 95,
          "velocity": 127,
          "beat_index": 1249,
          "section": "drop"
        },
        {
          "t": 129310,
          "type": "note",
          "pitch": 71,
          "duration_ms": 95,
          "velocity": 127,
          "beat_index": 1250,
          "section": "drop"
        },
        {
          "t": 129413,
          "type": "note",
          "pitch": 66,
          "duration_ms": 95,
          "velocity": 127,
          "beat_index": 1251,
          "section": "drop"
        },
        {
          "t": 129517,
          "type": "note",
          "pitch": 73,
          "duration_ms": 95,
          "velocity": 127,
          "beat_index": 1252,
          "section": "drop"
        },
        {
          "t": 129620,
          "type": "note",
          "pitch": 66,
          "duration_ms": 95,
          "velocity": 127,
          "beat_index": 1253,
          "section": "drop"
        },
        {
          "t": 129724,
          "type": "note",
          "pitch": 69,
          "duration_ms": 95,
          "velocity": 127,
          "beat_index": 1254,
          "section": "drop"
        },
        {
          "t": 129827,
          "type": "note",
          "pitch": 66,
          "duration_ms": 95,
          "velocity": 127,
          "beat_index": 1255,
          "section": "drop"
        },
        {
          "t": 129931,
          "type": "note",
          "pitch": 78,
          "duration_ms": 95,
          "velocity": 127,
          "beat_index": 1256,
          "section": "drop"
        },
        {
          "t": 130034,
          "type": "note",
          "pitch": 66,
          "duration_ms": 95,
          "velocity": 127,
          "beat_index": 1257,
          "section": "drop"
        },
        {
          "t": 130137,
          "type": "note",
          "pitch": 71,
          "duration_ms": 95,
          "velocity": 127,
          "beat_index": 1258,
          "section": "drop"
        },
        {
          "t": 130241,
          "type": "note",
          "pitch": 66,
          "duration_ms": 95,
          "velocity": 127,
          "beat_index": 1259,
          "section": "drop"
        },
        {
          "t": 130344,
          "type": "note",
          "pitch": 73,
          "duration_ms": 95,
          "velocity": 127,
          "beat_index": 1260,
          "section": "drop"
        },
        {
          "t": 130448,
          "type": "note",
          "pitch": 74,
          "duration_ms": 95,
          "velocity": 127,
          "beat_index": 1261,
          "section": "drop"
        },
        {
          "t": 130551,
          "type": "note",
          "pitch": 76,
          "duration_ms": 95,
          "velocity": 127,
          "beat_index": 1262,
          "section": "drop"
        },
        {
          "t": 130655,
          "type": "note",
          "pitch": 73,
          "duration_ms": 95,
          "velocity": 127,
          "beat_index": 1263,
          "section": "drop"
        },
        {
          "t": 130758,
          "type": "note",
          "pitch": 66,
          "duration_ms": 95,
          "velocity": 127,
          "beat_index": 1264,
          "section": "drop"
        },
        {
          "t": 130862,
          "type": "note",
          "pitch": 66,
          "duration_ms": 95,
          "velocity": 127,
          "beat_index": 1265,
          "section": "drop"
        },
        {
          "t": 130965,
          "type": "note",
          "pitch": 71,
          "duration_ms": 95,
          "velocity": 127,
          "beat_index": 1266,
          "section": "drop"
        },
        {
          "t": 131068,
          "type": "note",
          "pitch": 66,
          "duration_ms": 95,
          "velocity": 127,
          "beat_index": 1267,
          "section": "drop"
        },
        {
          "t": 131172,
          "type": "note",
          "pitch": 73,
          "duration_ms": 95,
          "velocity": 127,
          "beat_index": 1268,
          "section": "drop"
        },
        {
          "t": 131275,
          "type": "note",
          "pitch": 66,
          "duration_ms": 95,
          "velocity": 127,
          "beat_index": 1269,
          "section": "drop"
        },
        {
          "t": 131379,
          "type": "note",
          "pitch": 69,
          "duration_ms": 95,
          "velocity": 127,
          "beat_index": 1270,
          "section": "drop"
        },
        {
          "t": 131482,
          "type": "note",
          "pitch": 66,
          "duration_ms": 95,
          "velocity": 127,
          "beat_index": 1271,
          "section": "drop"
        },
        {
          "t": 131586,
          "type": "note",
          "pitch": 78,
          "duration_ms": 95,
          "velocity": 127,
          "beat_index": 1272,
          "section": "drop"
        },
        {
          "t": 131689,
          "type": "note",
          "pitch": 66,
          "duration_ms": 95,
          "velocity": 127,
          "beat_index": 1273,
          "section": "drop"
        },
        {
          "t": 131793,
          "type": "note",
          "pitch": 71,
          "duration_ms": 95,
          "velocity": 127,
          "beat_index": 1274,
          "section": "drop"
        },
        {
          "t": 131896,
          "type": "note",
          "pitch": 66,
          "duration_ms": 95,
          "velocity": 127,
          "beat_index": 1275,
          "section": "drop"
        },
        {
          "t": 132000,
          "type": "note",
          "pitch": 73,
          "duration_ms": 95,
          "velocity": 127,
          "beat_index": 1276,
          "section": "drop"
        },
        {
          "t": 132103,
          "type": "note",
          "pitch": 74,
          "duration_ms": 95,
          "velocity": 127,
          "beat_index": 1277,
          "section": "drop"
        },
        {
          "t": 132206,
          "type": "note",
          "pitch": 76,
          "duration_ms": 95,
          "velocity": 127,
          "beat_index": 1278,
          "section": "drop"
        },
        {
          "t": 132310,
          "type": "note",
          "pitch": 73,
          "duration_ms": 95,
          "velocity": 127,
          "beat_index": 1279,
          "section": "drop"
        },
        {
          "t": 132413,
          "type": "note",
          "pitch": 66,
          "duration_ms": 95,
          "velocity": 127,
          "beat_index": 1280,
          "section": "drop"
        },
        {
          "t": 132517,
          "type": "note",
          "pitch": 66,
          "duration_ms": 95,
          "velocity": 127,
          "beat_index": 1281,
          "section": "drop"
        },
        {
          "t": 132620,
          "type": "note",
          "pitch": 71,
          "duration_ms": 95,
          "velocity": 127,
          "beat_index": 1282,
          "section": "drop"
        },
        {
          "t": 132724,
          "type": "note",
          "pitch": 66,
          "duration_ms": 95,
          "velocity": 127,
          "beat_index": 1283,
          "section": "drop"
        },
        {
          "t": 132827,
          "type": "note",
          "pitch": 73,
          "duration_ms": 95,
          "velocity": 127,
          "beat_index": 1284,
          "section": "drop"
        },
        {
          "t": 132931,
          "type": "note",
          "pitch": 66,
          "duration_ms": 95,
          "velocity": 127,
          "beat_index": 1285,
          "section": "drop"
        },
        {
          "t": 133034,
          "type": "note",
          "pitch": 69,
          "duration_ms": 95,
          "velocity": 127,
          "beat_index": 1286,
          "section": "drop"
        },
        {
          "t": 133137,
          "type": "note",
          "pitch": 66,
          "duration_ms": 95,
          "velocity": 127,
          "beat_index": 1287,
          "section": "drop"
        },
        {
          "t": 133241,
          "type": "note",
          "pitch": 78,
          "duration_ms": 95,
          "velocity": 127,
          "beat_index": 1288,
          "section": "drop"
        },
        {
          "t": 133344,
          "type": "note",
          "pitch": 66,
          "duration_ms": 95,
          "velocity": 127,
          "beat_index": 1289,
          "section": "drop"
        },
        {
          "t": 133448,
          "type": "note",
          "pitch": 71,
          "duration_ms": 95,
          "velocity": 127,
          "beat_index": 1290,
          "section": "drop"
        },
        {
          "t": 133551,
          "type": "note",
          "pitch": 66,
          "duration_ms": 95,
          "velocity": 127,
          "beat_index": 1291,
          "section": "drop"
        },
        {
          "t": 133655,
          "type": "note",
          "pitch": 73,
          "duration_ms": 95,
          "velocity": 127,
          "beat_index": 1292,
          "section": "drop"
        },
        {
          "t": 133758,
          "type": "note",
          "pitch": 74,
          "duration_ms": 95,
          "velocity": 127,
          "beat_index": 1293,
          "section": "drop"
        },
        {
          "t": 133862,
          "type": "note",
          "pitch": 76,
          "duration_ms": 95,
          "velocity": 127,
          "beat_index": 1294,
          "section": "drop"
        },
        {
          "t": 133965,
          "type": "note",
          "pitch": 73,
          "duration_ms": 95,
          "velocity": 127,
          "beat_index": 1295,
          "section": "drop"
        },
        {
          "t": 134068,
          "type": "note",
          "pitch": 66,
          "duration_ms": 95,
          "velocity": 127,
          "beat_index": 1296,
          "section": "drop"
        },
        {
          "t": 134172,
          "type": "note",
          "pitch": 66,
          "duration_ms": 95,
          "velocity": 127,
          "beat_index": 1297,
          "section": "drop"
        },
        {
          "t": 134275,
          "type": "note",
          "pitch": 71,
          "duration_ms": 95,
          "velocity": 127,
          "beat_index": 1298,
          "section": "drop"
        },
        {
          "t": 134379,
          "type": "note",
          "pitch": 66,
          "duration_ms": 95,
          "velocity": 127,
          "beat_index": 1299,
          "section": "drop"
        },
        {
          "t": 134482,
          "type": "note",
          "pitch": 73,
          "duration_ms": 95,
          "velocity": 127,
          "beat_index": 1300,
          "section": "drop"
        },
        {
          "t": 134586,
          "type": "note",
          "pitch": 66,
          "duration_ms": 95,
          "velocity": 127,
          "beat_index": 1301,
          "section": "drop"
        },
        {
          "t": 134689,
          "type": "note",
          "pitch": 69,
          "duration_ms": 95,
          "velocity": 127,
          "beat_index": 1302,
          "section": "drop"
        },
        {
          "t": 134793,
          "type": "note",
          "pitch": 66,
          "duration_ms": 95,
          "velocity": 127,
          "beat_index": 1303,
          "section": "drop"
        },
        {
          "t": 134896,
          "type": "note",
          "pitch": 78,
          "duration_ms": 95,
          "velocity": 127,
          "beat_index": 1304,
          "section": "drop"
        },
        {
          "t": 135000,
          "type": "note",
          "pitch": 66,
          "duration_ms": 95,
          "velocity": 127,
          "beat_index": 1305,
          "section": "drop"
        },
        {
          "t": 135103,
          "type": "note",
          "pitch": 71,
          "duration_ms": 95,
          "velocity": 127,
          "beat_index": 1306,
          "section": "drop"
        },
        {
          "t": 135206,
          "type": "note",
          "pitch": 66,
          "duration_ms": 95,
          "velocity": 127,
          "beat_index": 1307,
          "section": "drop"
        },
        {
          "t": 135310,
          "type": "note",
          "pitch": 73,
          "duration_ms": 95,
          "velocity": 127,
          "beat_index": 1308,
          "section": "drop"
        },
        {
          "t": 135413,
          "type": "note",
          "pitch": 74,
          "duration_ms": 95,
          "velocity": 127,
          "beat_index": 1309,
          "section": "drop"
        },
        {
          "t": 135517,
          "type": "note",
          "pitch": 76,
          "duration_ms": 95,
          "velocity": 127,
          "beat_index": 1310,
          "section": "drop"
        },
        {
          "t": 135620,
          "type": "note",
          "pitch": 73,
          "duration_ms": 95,
          "velocity": 127,
          "beat_index": 1311,
          "section": "drop"
        },
        {
          "t": 135724,
          "type": "note",
          "pitch": 66,
          "duration_ms": 95,
          "velocity": 127,
          "beat_index": 1312,
          "section": "drop"
        },
        {
          "t": 135827,
          "type": "note",
          "pitch": 66,
          "duration_ms": 95,
          "velocity": 127,
          "beat_index": 1313,
          "section": "drop"
        },
        {
          "t": 135931,
          "type": "note",
          "pitch": 71,
          "duration_ms": 95,
          "velocity": 127,
          "beat_index": 1314,
          "section": "drop"
        },
        {
          "t": 136034,
          "type": "note",
          "pitch": 66,
          "duration_ms": 95,
          "velocity": 127,
          "beat_index": 1315,
          "section": "drop"
        },
        {
          "t": 136137,
          "type": "note",
          "pitch": 73,
          "duration_ms": 95,
          "velocity": 127,
          "beat_index": 1316,
          "section": "drop"
        },
        {
          "t": 136241,
          "type": "note",
          "pitch": 66,
          "duration_ms": 95,
          "velocity": 127,
          "beat_index": 1317,
          "section": "drop"
        },
        {
          "t": 136344,
          "type": "note",
          "pitch": 69,
          "duration_ms": 95,
          "velocity": 127,
          "beat_index": 1318,
          "section": "drop"
        },
        {
          "t": 136448,
          "type": "note",
          "pitch": 66,
          "duration_ms": 95,
          "velocity": 127,
          "beat_index": 1319,
          "section": "drop"
        },
        {
          "t": 136551,
          "type": "note",
          "pitch": 78,
          "duration_ms": 95,
          "velocity": 127,
          "beat_index": 1320,
          "section": "drop"
        },
        {
          "t": 136655,
          "type": "note",
          "pitch": 66,
          "duration_ms": 95,
          "velocity": 127,
          "beat_index": 1321,
          "section": "drop"
        },
        {
          "t": 136758,
          "type": "note",
          "pitch": 71,
          "duration_ms": 95,
          "velocity": 127,
          "beat_index": 1322,
          "section": "drop"
        },
        {
          "t": 136862,
          "type": "note",
          "pitch": 66,
          "duration_ms": 95,
          "velocity": 127,
          "beat_index": 1323,
          "section": "drop"
        },
        {
          "t": 136965,
          "type": "note",
          "pitch": 73,
          "duration_ms": 95,
          "velocity": 127,
          "beat_index": 1324,
          "section": "drop"
        },
        {
          "t": 137068,
          "type": "note",
          "pitch": 74,
          "duration_ms": 95,
          "velocity": 127,
          "beat_index": 1325,
          "section": "drop"
        },
        {
          "t": 137172,
          "type": "note",
          "pitch": 76,
          "duration_ms": 95,
          "velocity": 127,
          "beat_index": 1326,
          "section": "drop"
        },
        {
          "t": 137275,
          "type": "note",
          "pitch": 73,
          "duration_ms": 95,
          "velocity": 127,
          "beat_index": 1327,
          "section": "drop"
        },
        {
          "t": 137379,
          "type": "note",
          "pitch": 66,
          "duration_ms": 95,
          "velocity": 127,
          "beat_index": 1328,
          "section": "drop"
        },
        {
          "t": 137482,
          "type": "note",
          "pitch": 66,
          "duration_ms": 95,
          "velocity": 127,
          "beat_index": 1329,
          "section": "drop"
        },
        {
          "t": 137586,
          "type": "note",
          "pitch": 71,
          "duration_ms": 95,
          "velocity": 127,
          "beat_index": 1330,
          "section": "drop"
        },
        {
          "t": 137689,
          "type": "note",
          "pitch": 66,
          "duration_ms": 95,
          "velocity": 127,
          "beat_index": 1331,
          "section": "drop"
        },
        {
          "t": 137793,
          "type": "note",
          "pitch": 73,
          "duration_ms": 95,
          "velocity": 127,
          "beat_index": 1332,
          "section": "drop"
        },
        {
          "t": 137896,
          "type": "note",
          "pitch": 66,
          "duration_ms": 95,
          "velocity": 127,
          "beat_index": 1333,
          "section": "drop"
        },
        {
          "t": 138000,
          "type": "note",
          "pitch": 69,
          "duration_ms": 95,
          "velocity": 127,
          "beat_index": 1334,
          "section": "drop"
        },
        {
          "t": 138103,
          "type": "note",
          "pitch": 66,
          "duration_ms": 95,
          "velocity": 127,
          "beat_index": 1335,
          "section": "drop"
        },
        {
          "t": 138206,
          "type": "note",
          "pitch": 78,
          "duration_ms": 95,
          "velocity": 127,
          "beat_index": 1336,
          "section": "drop"
        },
        {
          "t": 138310,
          "type": "note",
          "pitch": 66,
          "duration_ms": 95,
          "velocity": 127,
          "beat_index": 1337,
          "section": "drop"
        },
        {
          "t": 138413,
          "type": "note",
          "pitch": 71,
          "duration_ms": 95,
          "velocity": 127,
          "beat_index": 1338,
          "section": "drop"
        },
        {
          "t": 138517,
          "type": "note",
          "pitch": 66,
          "duration_ms": 95,
          "velocity": 127,
          "beat_index": 1339,
          "section": "drop"
        },
        {
          "t": 138620,
          "type": "note",
          "pitch": 73,
          "duration_ms": 95,
          "velocity": 127,
          "beat_index": 1340,
          "section": "drop"
        },
        {
          "t": 138724,
          "type": "note",
          "pitch": 74,
          "duration_ms": 95,
          "velocity": 127,
          "beat_index": 1341,
          "section": "drop"
        },
        {
          "t": 138827,
          "type": "note",
          "pitch": 76,
          "duration_ms": 95,
          "velocity": 127,
          "beat_index": 1342,
          "section": "drop"
        },
        {
          "t": 138931,
          "type": "note",
          "pitch": 73,
          "duration_ms": 95,
          "velocity": 127,
          "beat_index": 1343,
          "section": "drop"
        },
        {
          "t": 139034,
          "type": "note",
          "pitch": 66,
          "duration_ms": 95,
          "velocity": 127,
          "beat_index": 1344,
          "section": "drop"
        },
        {
          "t": 139137,
          "type": "note",
          "pitch": 66,
          "duration_ms": 95,
          "velocity": 127,
          "beat_index": 1345,
          "section": "drop"
        },
        {
          "t": 139241,
          "type": "note",
          "pitch": 71,
          "duration_ms": 95,
          "velocity": 127,
          "beat_index": 1346,
          "section": "drop"
        },
        {
          "t": 139344,
          "type": "note",
          "pitch": 66,
          "duration_ms": 95,
          "velocity": 127,
          "beat_index": 1347,
          "section": "drop"
        },
        {
          "t": 139448,
          "type": "note",
          "pitch": 73,
          "duration_ms": 95,
          "velocity": 127,
          "beat_index": 1348,
          "section": "drop"
        },
        {
          "t": 139551,
          "type": "note",
          "pitch": 66,
          "duration_ms": 95,
          "velocity": 127,
          "beat_index": 1349,
          "section": "drop"
        },
        {
          "t": 139655,
          "type": "note",
          "pitch": 69,
          "duration_ms": 95,
          "velocity": 127,
          "beat_index": 1350,
          "section": "drop"
        },
        {
          "t": 139758,
          "type": "note",
          "pitch": 66,
          "duration_ms": 95,
          "velocity": 127,
          "beat_index": 1351,
          "section": "drop"
        },
        {
          "t": 139862,
          "type": "note",
          "pitch": 78,
          "duration_ms": 95,
          "velocity": 127,
          "beat_index": 1352,
          "section": "drop"
        },
        {
          "t": 139965,
          "type": "note",
          "pitch": 66,
          "duration_ms": 95,
          "velocity": 127,
          "beat_index": 1353,
          "section": "drop"
        },
        {
          "t": 140068,
          "type": "note",
          "pitch": 71,
          "duration_ms": 95,
          "velocity": 127,
          "beat_index": 1354,
          "section": "drop"
        },
        {
          "t": 140172,
          "type": "note",
          "pitch": 66,
          "duration_ms": 95,
          "velocity": 127,
          "beat_index": 1355,
          "section": "drop"
        },
        {
          "t": 140275,
          "type": "note",
          "pitch": 73,
          "duration_ms": 95,
          "velocity": 127,
          "beat_index": 1356,
          "section": "drop"
        },
        {
          "t": 140379,
          "type": "note",
          "pitch": 74,
          "duration_ms": 95,
          "velocity": 127,
          "beat_index": 1357,
          "section": "drop"
        },
        {
          "t": 140482,
          "type": "note",
          "pitch": 76,
          "duration_ms": 95,
          "velocity": 127,
          "beat_index": 1358,
          "section": "drop"
        },
        {
          "t": 140586,
          "type": "note",
          "pitch": 73,
          "duration_ms": 95,
          "velocity": 127,
          "beat_index": 1359,
          "section": "drop"
        },
        {
          "t": 140689,
          "type": "note",
          "pitch": 66,
          "duration_ms": 95,
          "velocity": 127,
          "beat_index": 1360,
          "section": "drop"
        },
        {
          "t": 140793,
          "type": "note",
          "pitch": 66,
          "duration_ms": 95,
          "velocity": 127,
          "beat_index": 1361,
          "section": "drop"
        },
        {
          "t": 140896,
          "type": "note",
          "pitch": 71,
          "duration_ms": 95,
          "velocity": 127,
          "beat_index": 1362,
          "section": "drop"
        },
        {
          "t": 141000,
          "type": "note",
          "pitch": 66,
          "duration_ms": 95,
          "velocity": 127,
          "beat_index": 1363,
          "section": "drop"
        },
        {
          "t": 141103,
          "type": "note",
          "pitch": 73,
          "duration_ms": 95,
          "velocity": 127,
          "beat_index": 1364,
          "section": "drop"
        },
        {
          "t": 141206,
          "type": "note",
          "pitch": 66,
          "duration_ms": 95,
          "velocity": 127,
          "beat_index": 1365,
          "section": "drop"
        },
        {
          "t": 141310,
          "type": "note",
          "pitch": 69,
          "duration_ms": 95,
          "velocity": 127,
          "beat_index": 1366,
          "section": "drop"
        },
        {
          "t": 141413,
          "type": "note",
          "pitch": 66,
          "duration_ms": 95,
          "velocity": 127,
          "beat_index": 1367,
          "section": "drop"
        },
        {
          "t": 141517,
          "type": "note",
          "pitch": 78,
          "duration_ms": 95,
          "velocity": 127,
          "beat_index": 1368,
          "section": "drop"
        },
        {
          "t": 141620,
          "type": "note",
          "pitch": 66,
          "duration_ms": 95,
          "velocity": 127,
          "beat_index": 1369,
          "section": "drop"
        },
        {
          "t": 141724,
          "type": "note",
          "pitch": 71,
          "duration_ms": 95,
          "velocity": 127,
          "beat_index": 1370,
          "section": "drop"
        },
        {
          "t": 141827,
          "type": "note",
          "pitch": 66,
          "duration_ms": 95,
          "velocity": 127,
          "beat_index": 1371,
          "section": "drop"
        },
        {
          "t": 141931,
          "type": "note",
          "pitch": 73,
          "duration_ms": 95,
          "velocity": 127,
          "beat_index": 1372,
          "section": "drop"
        },
        {
          "t": 142034,
          "type": "note",
          "pitch": 74,
          "duration_ms": 95,
          "velocity": 127,
          "beat_index": 1373,
          "section": "drop"
        },
        {
          "t": 142137,
          "type": "note",
          "pitch": 76,
          "duration_ms": 95,
          "velocity": 127,
          "beat_index": 1374,
          "section": "drop"
        },
        {
          "t": 142241,
          "type": "note",
          "pitch": 73,
          "duration_ms": 95,
          "velocity": 127,
          "beat_index": 1375,
          "section": "drop"
        },
        {
          "t": 142344,
          "type": "note",
          "pitch": 66,
          "duration_ms": 95,
          "velocity": 127,
          "beat_index": 1376,
          "section": "drop"
        },
        {
          "t": 142448,
          "type": "note",
          "pitch": 66,
          "duration_ms": 95,
          "velocity": 127,
          "beat_index": 1377,
          "section": "drop"
        },
        {
          "t": 142551,
          "type": "note",
          "pitch": 71,
          "duration_ms": 95,
          "velocity": 127,
          "beat_index": 1378,
          "section": "drop"
        },
        {
          "t": 142655,
          "type": "note",
          "pitch": 66,
          "duration_ms": 95,
          "velocity": 127,
          "beat_index": 1379,
          "section": "drop"
        },
        {
          "t": 142758,
          "type": "note",
          "pitch": 73,
          "duration_ms": 95,
          "velocity": 127,
          "beat_index": 1380,
          "section": "drop"
        },
        {
          "t": 142862,
          "type": "note",
          "pitch": 66,
          "duration_ms": 95,
          "velocity": 127,
          "beat_index": 1381,
          "section": "drop"
        },
        {
          "t": 142965,
          "type": "note",
          "pitch": 69,
          "duration_ms": 95,
          "velocity": 127,
          "beat_index": 1382,
          "section": "drop"
        },
        {
          "t": 143068,
          "type": "note",
          "pitch": 66,
          "duration_ms": 95,
          "velocity": 127,
          "beat_index": 1383,
          "section": "drop"
        },
        {
          "t": 143172,
          "type": "note",
          "pitch": 78,
          "duration_ms": 95,
          "velocity": 127,
          "beat_index": 1384,
          "section": "drop"
        },
        {
          "t": 143275,
          "type": "note",
          "pitch": 66,
          "duration_ms": 95,
          "velocity": 127,
          "beat_index": 1385,
          "section": "drop"
        },
        {
          "t": 143379,
          "type": "note",
          "pitch": 71,
          "duration_ms": 95,
          "velocity": 127,
          "beat_index": 1386,
          "section": "drop"
        },
        {
          "t": 143482,
          "type": "note",
          "pitch": 66,
          "duration_ms": 95,
          "velocity": 127,
          "beat_index": 1387,
          "section": "drop"
        },
        {
          "t": 143586,
          "type": "note",
          "pitch": 73,
          "duration_ms": 95,
          "velocity": 127,
          "beat_index": 1388,
          "section": "drop"
        },
        {
          "t": 143689,
          "type": "note",
          "pitch": 74,
          "duration_ms": 95,
          "velocity": 127,
          "beat_index": 1389,
          "section": "drop"
        },
        {
          "t": 143793,
          "type": "note",
          "pitch": 76,
          "duration_ms": 95,
          "velocity": 127,
          "beat_index": 1390,
          "section": "drop"
        },
        {
          "t": 143896,
          "type": "note",
          "pitch": 73,
          "duration_ms": 95,
          "velocity": 127,
          "beat_index": 1391,
          "section": "drop"
        },
        {
          "t": 144000,
          "type": "note",
          "pitch": 66,
          "duration_ms": 95,
          "velocity": 127,
          "beat_index": 1392,
          "section": "drop"
        },
        {
          "t": 144103,
          "type": "note",
          "pitch": 66,
          "duration_ms": 95,
          "velocity": 127,
          "beat_index": 1393,
          "section": "drop"
        },
        {
          "t": 144206,
          "type": "note",
          "pitch": 71,
          "duration_ms": 95,
          "velocity": 127,
          "beat_index": 1394,
          "section": "drop"
        },
        {
          "t": 144310,
          "type": "note",
          "pitch": 66,
          "duration_ms": 95,
          "velocity": 127,
          "beat_index": 1395,
          "section": "drop"
        },
        {
          "t": 144413,
          "type": "note",
          "pitch": 73,
          "duration_ms": 95,
          "velocity": 127,
          "beat_index": 1396,
          "section": "drop"
        },
        {
          "t": 144517,
          "type": "note",
          "pitch": 66,
          "duration_ms": 95,
          "velocity": 127,
          "beat_index": 1397,
          "section": "drop"
        },
        {
          "t": 144620,
          "type": "note",
          "pitch": 69,
          "duration_ms": 95,
          "velocity": 127,
          "beat_index": 1398,
          "section": "drop"
        },
        {
          "t": 144724,
          "type": "note",
          "pitch": 66,
          "duration_ms": 95,
          "velocity": 127,
          "beat_index": 1399,
          "section": "drop"
        },
        {
          "t": 144827,
          "type": "note",
          "pitch": 78,
          "duration_ms": 95,
          "velocity": 127,
          "beat_index": 1400,
          "section": "drop"
        },
        {
          "t": 144931,
          "type": "note",
          "pitch": 66,
          "duration_ms": 95,
          "velocity": 127,
          "beat_index": 1401,
          "section": "drop"
        },
        {
          "t": 145034,
          "type": "note",
          "pitch": 71,
          "duration_ms": 95,
          "velocity": 127,
          "beat_index": 1402,
          "section": "drop"
        },
        {
          "t": 145137,
          "type": "note",
          "pitch": 66,
          "duration_ms": 95,
          "velocity": 127,
          "beat_index": 1403,
          "section": "drop"
        },
        {
          "t": 145241,
          "type": "note",
          "pitch": 73,
          "duration_ms": 95,
          "velocity": 127,
          "beat_index": 1404,
          "section": "drop"
        },
        {
          "t": 145344,
          "type": "note",
          "pitch": 74,
          "duration_ms": 95,
          "velocity": 127,
          "beat_index": 1405,
          "section": "drop"
        },
        {
          "t": 145448,
          "type": "note",
          "pitch": 76,
          "duration_ms": 95,
          "velocity": 127,
          "beat_index": 1406,
          "section": "drop"
        },
        {
          "t": 145551,
          "type": "note",
          "pitch": 73,
          "duration_ms": 95,
          "velocity": 127,
          "beat_index": 1407,
          "section": "drop"
        },
        {
          "t": 145655,
          "type": "note",
          "pitch": 66,
          "duration_ms": 95,
          "velocity": 127,
          "beat_index": 1408,
          "section": "drop"
        },
        {
          "t": 145758,
          "type": "note",
          "pitch": 66,
          "duration_ms": 95,
          "velocity": 127,
          "beat_index": 1409,
          "section": "drop"
        },
        {
          "t": 145862,
          "type": "note",
          "pitch": 71,
          "duration_ms": 95,
          "velocity": 127,
          "beat_index": 1410,
          "section": "drop"
        },
        {
          "t": 145965,
          "type": "note",
          "pitch": 66,
          "duration_ms": 95,
          "velocity": 127,
          "beat_index": 1411,
          "section": "drop"
        },
        {
          "t": 146068,
          "type": "note",
          "pitch": 73,
          "duration_ms": 95,
          "velocity": 127,
          "beat_index": 1412,
          "section": "drop"
        },
        {
          "t": 146172,
          "type": "note",
          "pitch": 66,
          "duration_ms": 95,
          "velocity": 127,
          "beat_index": 1413,
          "section": "drop"
        },
        {
          "t": 146275,
          "type": "note",
          "pitch": 69,
          "duration_ms": 95,
          "velocity": 127,
          "beat_index": 1414,
          "section": "drop"
        },
        {
          "t": 146379,
          "type": "note",
          "pitch": 66,
          "duration_ms": 95,
          "velocity": 127,
          "beat_index": 1415,
          "section": "drop"
        },
        {
          "t": 146482,
          "type": "note",
          "pitch": 78,
          "duration_ms": 95,
          "velocity": 127,
          "beat_index": 1416,
          "section": "drop"
        },
        {
          "t": 146586,
          "type": "note",
          "pitch": 66,
          "duration_ms": 95,
          "velocity": 127,
          "beat_index": 1417,
          "section": "drop"
        },
        {
          "t": 146689,
          "type": "note",
          "pitch": 71,
          "duration_ms": 95,
          "velocity": 127,
          "beat_index": 1418,
          "section": "drop"
        },
        {
          "t": 146793,
          "type": "note",
          "pitch": 66,
          "duration_ms": 95,
          "velocity": 127,
          "beat_index": 1419,
          "section": "drop"
        },
        {
          "t": 146896,
          "type": "note",
          "pitch": 73,
          "duration_ms": 95,
          "velocity": 127,
          "beat_index": 1420,
          "section": "drop"
        },
        {
          "t": 147000,
          "type": "note",
          "pitch": 74,
          "duration_ms": 95,
          "velocity": 127,
          "beat_index": 1421,
          "section": "drop"
        },
        {
          "t": 147103,
          "type": "note",
          "pitch": 76,
          "duration_ms": 95,
          "velocity": 127,
          "beat_index": 1422,
          "section": "drop"
        },
        {
          "t": 147206,
          "type": "note",
          "pitch": 73,
          "duration_ms": 95,
          "velocity": 127,
          "beat_index": 1423,
          "section": "drop"
        },
        {
          "t": 147310,
          "type": "note",
          "pitch": 66,
          "duration_ms": 95,
          "velocity": 127,
          "beat_index": 1424,
          "section": "drop"
        },
        {
          "t": 147413,
          "type": "note",
          "pitch": 66,
          "duration_ms": 95,
          "velocity": 127,
          "beat_index": 1425,
          "section": "drop"
        },
        {
          "t": 147517,
          "type": "note",
          "pitch": 71,
          "duration_ms": 95,
          "velocity": 127,
          "beat_index": 1426,
          "section": "drop"
        },
        {
          "t": 147620,
          "type": "note",
          "pitch": 66,
          "duration_ms": 95,
          "velocity": 127,
          "beat_index": 1427,
          "section": "drop"
        },
        {
          "t": 147724,
          "type": "note",
          "pitch": 73,
          "duration_ms": 95,
          "velocity": 127,
          "beat_index": 1428,
          "section": "drop"
        },
        {
          "t": 147827,
          "type": "note",
          "pitch": 66,
          "duration_ms": 95,
          "velocity": 127,
          "beat_index": 1429,
          "section": "drop"
        },
        {
          "t": 147931,
          "type": "note",
          "pitch": 69,
          "duration_ms": 95,
          "velocity": 127,
          "beat_index": 1430,
          "section": "drop"
        },
        {
          "t": 148034,
          "type": "note",
          "pitch": 66,
          "duration_ms": 95,
          "velocity": 127,
          "beat_index": 1431,
          "section": "drop"
        },
        {
          "t": 148137,
          "type": "note",
          "pitch": 78,
          "duration_ms": 95,
          "velocity": 127,
          "beat_index": 1432,
          "section": "drop"
        },
        {
          "t": 148241,
          "type": "note",
          "pitch": 66,
          "duration_ms": 95,
          "velocity": 127,
          "beat_index": 1433,
          "section": "drop"
        },
        {
          "t": 148344,
          "type": "note",
          "pitch": 71,
          "duration_ms": 95,
          "velocity": 127,
          "beat_index": 1434,
          "section": "drop"
        },
        {
          "t": 148448,
          "type": "note",
          "pitch": 66,
          "duration_ms": 95,
          "velocity": 127,
          "beat_index": 1435,
          "section": "drop"
        },
        {
          "t": 148551,
          "type": "note",
          "pitch": 73,
          "duration_ms": 95,
          "velocity": 127,
          "beat_index": 1436,
          "section": "drop"
        },
        {
          "t": 148655,
          "type": "note",
          "pitch": 74,
          "duration_ms": 95,
          "velocity": 127,
          "beat_index": 1437,
          "section": "drop"
        },
        {
          "t": 148758,
          "type": "note",
          "pitch": 76,
          "duration_ms": 95,
          "velocity": 127,
          "beat_index": 1438,
          "section": "drop"
        },
        {
          "t": 148862,
          "type": "note",
          "pitch": 73,
          "duration_ms": 95,
          "velocity": 127,
          "beat_index": 1439,
          "section": "drop"
        },
        {
          "t": 148965,
          "type": "note",
          "pitch": 66,
          "duration_ms": 95,
          "velocity": 127,
          "beat_index": 1440,
          "section": "drop"
        },
        {
          "t": 149068,
          "type": "note",
          "pitch": 66,
          "duration_ms": 95,
          "velocity": 127,
          "beat_index": 1441,
          "section": "drop"
        },
        {
          "t": 149172,
          "type": "note",
          "pitch": 71,
          "duration_ms": 95,
          "velocity": 127,
          "beat_index": 1442,
          "section": "drop"
        },
        {
          "t": 149275,
          "type": "note",
          "pitch": 66,
          "duration_ms": 95,
          "velocity": 127,
          "beat_index": 1443,
          "section": "drop"
        },
        {
          "t": 149379,
          "type": "note",
          "pitch": 73,
          "duration_ms": 95,
          "velocity": 127,
          "beat_index": 1444,
          "section": "drop"
        },
        {
          "t": 149482,
          "type": "note",
          "pitch": 66,
          "duration_ms": 95,
          "velocity": 127,
          "beat_index": 1445,
          "section": "drop"
        },
        {
          "t": 149586,
          "type": "note",
          "pitch": 69,
          "duration_ms": 95,
          "velocity": 127,
          "beat_index": 1446,
          "section": "drop"
        },
        {
          "t": 149689,
          "type": "note",
          "pitch": 66,
          "duration_ms": 95,
          "velocity": 127,
          "beat_index": 1447,
          "section": "drop"
        },
        {
          "t": 149793,
          "type": "note",
          "pitch": 78,
          "duration_ms": 95,
          "velocity": 127,
          "beat_index": 1448,
          "section": "drop"
        },
        {
          "t": 149896,
          "type": "note",
          "pitch": 66,
          "duration_ms": 95,
          "velocity": 127,
          "beat_index": 1449,
          "section": "drop"
        },
        {
          "t": 150000,
          "type": "note",
          "pitch": 71,
          "duration_ms": 95,
          "velocity": 127,
          "beat_index": 1450,
          "section": "drop"
        },
        {
          "t": 150103,
          "type": "note",
          "pitch": 66,
          "duration_ms": 95,
          "velocity": 127,
          "beat_index": 1451,
          "section": "drop"
        },
        {
          "t": 150206,
          "type": "note",
          "pitch": 73,
          "duration_ms": 95,
          "velocity": 127,
          "beat_index": 1452,
          "section": "drop"
        },
        {
          "t": 150310,
          "type": "note",
          "pitch": 74,
          "duration_ms": 95,
          "velocity": 127,
          "beat_index": 1453,
          "section": "drop"
        },
        {
          "t": 150413,
          "type": "note",
          "pitch": 76,
          "duration_ms": 95,
          "velocity": 127,
          "beat_index": 1454,
          "section": "drop"
        },
        {
          "t": 150517,
          "type": "note",
          "pitch": 73,
          "duration_ms": 95,
          "velocity": 127,
          "beat_index": 1455,
          "section": "drop"
        },
        {
          "t": 150620,
          "type": "note",
          "pitch": 66,
          "duration_ms": 95,
          "velocity": 127,
          "beat_index": 1456,
          "section": "drop"
        },
        {
          "t": 150724,
          "type": "note",
          "pitch": 66,
          "duration_ms": 95,
          "velocity": 127,
          "beat_index": 1457,
          "section": "drop"
        },
        {
          "t": 150827,
          "type": "note",
          "pitch": 71,
          "duration_ms": 95,
          "velocity": 127,
          "beat_index": 1458,
          "section": "drop"
        },
        {
          "t": 150931,
          "type": "note",
          "pitch": 66,
          "duration_ms": 95,
          "velocity": 127,
          "beat_index": 1459,
          "section": "drop"
        },
        {
          "t": 151034,
          "type": "note",
          "pitch": 73,
          "duration_ms": 95,
          "velocity": 127,
          "beat_index": 1460,
          "section": "drop"
        },
        {
          "t": 151137,
          "type": "note",
          "pitch": 66,
          "duration_ms": 95,
          "velocity": 127,
          "beat_index": 1461,
          "section": "drop"
        },
        {
          "t": 151241,
          "type": "note",
          "pitch": 69,
          "duration_ms": 95,
          "velocity": 127,
          "beat_index": 1462,
          "section": "drop"
        },
        {
          "t": 151344,
          "type": "note",
          "pitch": 66,
          "duration_ms": 95,
          "velocity": 127,
          "beat_index": 1463,
          "section": "drop"
        },
        {
          "t": 151448,
          "type": "note",
          "pitch": 78,
          "duration_ms": 95,
          "velocity": 127,
          "beat_index": 1464,
          "section": "drop"
        },
        {
          "t": 151551,
          "type": "note",
          "pitch": 66,
          "duration_ms": 95,
          "velocity": 127,
          "beat_index": 1465,
          "section": "drop"
        },
        {
          "t": 151655,
          "type": "note",
          "pitch": 71,
          "duration_ms": 95,
          "velocity": 127,
          "beat_index": 1466,
          "section": "drop"
        },
        {
          "t": 151758,
          "type": "note",
          "pitch": 66,
          "duration_ms": 95,
          "velocity": 127,
          "beat_index": 1467,
          "section": "drop"
        },
        {
          "t": 151862,
          "type": "note",
          "pitch": 73,
          "duration_ms": 95,
          "velocity": 127,
          "beat_index": 1468,
          "section": "drop"
        },
        {
          "t": 151965,
          "type": "note",
          "pitch": 74,
          "duration_ms": 95,
          "velocity": 127,
          "beat_index": 1469,
          "section": "drop"
        },
        {
          "t": 152068,
          "type": "note",
          "pitch": 76,
          "duration_ms": 95,
          "velocity": 127,
          "beat_index": 1470,
          "section": "drop"
        },
        {
          "t": 152172,
          "type": "note",
          "pitch": 73,
          "duration_ms": 95,
          "velocity": 127,
          "beat_index": 1471,
          "section": "drop"
        },
        {
          "t": 152275,
          "type": "note",
          "pitch": 66,
          "duration_ms": 95,
          "velocity": 127,
          "beat_index": 1472,
          "section": "drop"
        },
        {
          "t": 152379,
          "type": "note",
          "pitch": 66,
          "duration_ms": 95,
          "velocity": 127,
          "beat_index": 1473,
          "section": "drop"
        },
        {
          "t": 152482,
          "type": "note",
          "pitch": 71,
          "duration_ms": 95,
          "velocity": 127,
          "beat_index": 1474,
          "section": "drop"
        },
        {
          "t": 152586,
          "type": "note",
          "pitch": 66,
          "duration_ms": 95,
          "velocity": 127,
          "beat_index": 1475,
          "section": "drop"
        },
        {
          "t": 152689,
          "type": "note",
          "pitch": 73,
          "duration_ms": 95,
          "velocity": 127,
          "beat_index": 1476,
          "section": "drop"
        },
        {
          "t": 152793,
          "type": "note",
          "pitch": 66,
          "duration_ms": 95,
          "velocity": 127,
          "beat_index": 1477,
          "section": "drop"
        },
        {
          "t": 152896,
          "type": "note",
          "pitch": 69,
          "duration_ms": 95,
          "velocity": 127,
          "beat_index": 1478,
          "section": "drop"
        },
        {
          "t": 152999,
          "type": "note",
          "pitch": 66,
          "duration_ms": 95,
          "velocity": 127,
          "beat_index": 1479,
          "section": "drop"
        },
        {
          "t": 153103,
          "type": "note",
          "pitch": 78,
          "duration_ms": 95,
          "velocity": 127,
          "beat_index": 1480,
          "section": "drop"
        },
        {
          "t": 153206,
          "type": "note",
          "pitch": 66,
          "duration_ms": 95,
          "velocity": 127,
          "beat_index": 1481,
          "section": "drop"
        },
        {
          "t": 153310,
          "type": "note",
          "pitch": 71,
          "duration_ms": 95,
          "velocity": 127,
          "beat_index": 1482,
          "section": "drop"
        },
        {
          "t": 153413,
          "type": "note",
          "pitch": 66,
          "duration_ms": 95,
          "velocity": 127,
          "beat_index": 1483,
          "section": "drop"
        },
        {
          "t": 153517,
          "type": "note",
          "pitch": 73,
          "duration_ms": 95,
          "velocity": 127,
          "beat_index": 1484,
          "section": "drop"
        },
        {
          "t": 153620,
          "type": "note",
          "pitch": 74,
          "duration_ms": 95,
          "velocity": 127,
          "beat_index": 1485,
          "section": "drop"
        },
        {
          "t": 153724,
          "type": "note",
          "pitch": 76,
          "duration_ms": 95,
          "velocity": 127,
          "beat_index": 1486,
          "section": "drop"
        },
        {
          "t": 153827,
          "type": "note",
          "pitch": 73,
          "duration_ms": 95,
          "velocity": 127,
          "beat_index": 1487,
          "section": "drop"
        },
        {
          "t": 153931,
          "type": "note",
          "pitch": 66,
          "duration_ms": 95,
          "velocity": 127,
          "beat_index": 1488,
          "section": "drop"
        },
        {
          "t": 154034,
          "type": "note",
          "pitch": 66,
          "duration_ms": 95,
          "velocity": 127,
          "beat_index": 1489,
          "section": "drop"
        },
        {
          "t": 154137,
          "type": "note",
          "pitch": 71,
          "duration_ms": 95,
          "velocity": 127,
          "beat_index": 1490,
          "section": "drop"
        },
        {
          "t": 154241,
          "type": "note",
          "pitch": 66,
          "duration_ms": 95,
          "velocity": 127,
          "beat_index": 1491,
          "section": "drop"
        },
        {
          "t": 154344,
          "type": "note",
          "pitch": 73,
          "duration_ms": 95,
          "velocity": 127,
          "beat_index": 1492,
          "section": "drop"
        },
        {
          "t": 154448,
          "type": "note",
          "pitch": 66,
          "duration_ms": 95,
          "velocity": 127,
          "beat_index": 1493,
          "section": "drop"
        },
        {
          "t": 154551,
          "type": "note",
          "pitch": 69,
          "duration_ms": 95,
          "velocity": 127,
          "beat_index": 1494,
          "section": "drop"
        },
        {
          "t": 154655,
          "type": "note",
          "pitch": 66,
          "duration_ms": 95,
          "velocity": 127,
          "beat_index": 1495,
          "section": "drop"
        },
        {
          "t": 154758,
          "type": "note",
          "pitch": 78,
          "duration_ms": 95,
          "velocity": 127,
          "beat_index": 1496,
          "section": "drop"
        },
        {
          "t": 154862,
          "type": "note",
          "pitch": 66,
          "duration_ms": 95,
          "velocity": 127,
          "beat_index": 1497,
          "section": "drop"
        },
        {
          "t": 154965,
          "type": "note",
          "pitch": 71,
          "duration_ms": 95,
          "velocity": 127,
          "beat_index": 1498,
          "section": "drop"
        },
        {
          "t": 155068,
          "type": "note",
          "pitch": 66,
          "duration_ms": 95,
          "velocity": 127,
          "beat_index": 1499,
          "section": "drop"
        },
        {
          "t": 155172,
          "type": "note",
          "pitch": 73,
          "duration_ms": 95,
          "velocity": 127,
          "beat_index": 1500,
          "section": "drop"
        },
        {
          "t": 155275,
          "type": "note",
          "pitch": 74,
          "duration_ms": 95,
          "velocity": 127,
          "beat_index": 1501,
          "section": "drop"
        },
        {
          "t": 155379,
          "type": "note",
          "pitch": 76,
          "duration_ms": 95,
          "velocity": 127,
          "beat_index": 1502,
          "section": "drop"
        },
        {
          "t": 155482,
          "type": "note",
          "pitch": 73,
          "duration_ms": 95,
          "velocity": 127,
          "beat_index": 1503,
          "section": "drop"
        },
        {
          "t": 155586,
          "type": "note",
          "pitch": 66,
          "duration_ms": 95,
          "velocity": 127,
          "beat_index": 1504,
          "section": "drop"
        },
        {
          "t": 155689,
          "type": "note",
          "pitch": 66,
          "duration_ms": 95,
          "velocity": 127,
          "beat_index": 1505,
          "section": "drop"
        },
        {
          "t": 155793,
          "type": "note",
          "pitch": 71,
          "duration_ms": 95,
          "velocity": 127,
          "beat_index": 1506,
          "section": "drop"
        },
        {
          "t": 155896,
          "type": "note",
          "pitch": 66,
          "duration_ms": 95,
          "velocity": 127,
          "beat_index": 1507,
          "section": "drop"
        },
        {
          "t": 155999,
          "type": "note",
          "pitch": 73,
          "duration_ms": 95,
          "velocity": 127,
          "beat_index": 1508,
          "section": "drop"
        },
        {
          "t": 156103,
          "type": "note",
          "pitch": 66,
          "duration_ms": 95,
          "velocity": 127,
          "beat_index": 1509,
          "section": "drop"
        },
        {
          "t": 156206,
          "type": "note",
          "pitch": 69,
          "duration_ms": 95,
          "velocity": 127,
          "beat_index": 1510,
          "section": "drop"
        },
        {
          "t": 156310,
          "type": "note",
          "pitch": 66,
          "duration_ms": 95,
          "velocity": 127,
          "beat_index": 1511,
          "section": "drop"
        },
        {
          "t": 156413,
          "type": "note",
          "pitch": 78,
          "duration_ms": 95,
          "velocity": 127,
          "beat_index": 1512,
          "section": "drop"
        },
        {
          "t": 156517,
          "type": "note",
          "pitch": 66,
          "duration_ms": 95,
          "velocity": 127,
          "beat_index": 1513,
          "section": "drop"
        },
        {
          "t": 156620,
          "type": "note",
          "pitch": 71,
          "duration_ms": 95,
          "velocity": 127,
          "beat_index": 1514,
          "section": "drop"
        },
        {
          "t": 156724,
          "type": "note",
          "pitch": 66,
          "duration_ms": 95,
          "velocity": 127,
          "beat_index": 1515,
          "section": "drop"
        },
        {
          "t": 156827,
          "type": "note",
          "pitch": 73,
          "duration_ms": 95,
          "velocity": 127,
          "beat_index": 1516,
          "section": "drop"
        },
        {
          "t": 156931,
          "type": "note",
          "pitch": 74,
          "duration_ms": 95,
          "velocity": 127,
          "beat_index": 1517,
          "section": "drop"
        },
        {
          "t": 157034,
          "type": "note",
          "pitch": 76,
          "duration_ms": 95,
          "velocity": 127,
          "beat_index": 1518,
          "section": "drop"
        },
        {
          "t": 157137,
          "type": "note",
          "pitch": 73,
          "duration_ms": 95,
          "velocity": 127,
          "beat_index": 1519,
          "section": "drop"
        },
        {
          "t": 157241,
          "type": "note",
          "pitch": 66,
          "duration_ms": 95,
          "velocity": 127,
          "beat_index": 1520,
          "section": "drop"
        },
        {
          "t": 157344,
          "type": "note",
          "pitch": 66,
          "duration_ms": 95,
          "velocity": 127,
          "beat_index": 1521,
          "section": "drop"
        },
        {
          "t": 157448,
          "type": "note",
          "pitch": 71,
          "duration_ms": 95,
          "velocity": 127,
          "beat_index": 1522,
          "section": "drop"
        },
        {
          "t": 157551,
          "type": "note",
          "pitch": 66,
          "duration_ms": 95,
          "velocity": 127,
          "beat_index": 1523,
          "section": "drop"
        },
        {
          "t": 157655,
          "type": "note",
          "pitch": 73,
          "duration_ms": 95,
          "velocity": 127,
          "beat_index": 1524,
          "section": "drop"
        },
        {
          "t": 157758,
          "type": "note",
          "pitch": 66,
          "duration_ms": 95,
          "velocity": 127,
          "beat_index": 1525,
          "section": "drop"
        },
        {
          "t": 157862,
          "type": "note",
          "pitch": 69,
          "duration_ms": 95,
          "velocity": 127,
          "beat_index": 1526,
          "section": "drop"
        },
        {
          "t": 157965,
          "type": "note",
          "pitch": 66,
          "duration_ms": 95,
          "velocity": 127,
          "beat_index": 1527,
          "section": "drop"
        },
        {
          "t": 158068,
          "type": "note",
          "pitch": 78,
          "duration_ms": 95,
          "velocity": 127,
          "beat_index": 1528,
          "section": "drop"
        },
        {
          "t": 158172,
          "type": "note",
          "pitch": 66,
          "duration_ms": 95,
          "velocity": 127,
          "beat_index": 1529,
          "section": "drop"
        },
        {
          "t": 158275,
          "type": "note",
          "pitch": 71,
          "duration_ms": 95,
          "velocity": 127,
          "beat_index": 1530,
          "section": "drop"
        },
        {
          "t": 158379,
          "type": "note",
          "pitch": 66,
          "duration_ms": 95,
          "velocity": 127,
          "beat_index": 1531,
          "section": "drop"
        },
        {
          "t": 158482,
          "type": "note",
          "pitch": 73,
          "duration_ms": 95,
          "velocity": 127,
          "beat_index": 1532,
          "section": "drop"
        },
        {
          "t": 158586,
          "type": "note",
          "pitch": 74,
          "duration_ms": 95,
          "velocity": 127,
          "beat_index": 1533,
          "section": "drop"
        },
        {
          "t": 158689,
          "type": "note",
          "pitch": 76,
          "duration_ms": 95,
          "velocity": 127,
          "beat_index": 1534,
          "section": "drop"
        },
        {
          "t": 158793,
          "type": "note",
          "pitch": 73,
          "duration_ms": 95,
          "velocity": 127,
          "beat_index": 1535,
          "section": "drop"
        },
        {
          "t": 158896,
          "type": "note",
          "pitch": 66,
          "duration_ms": 95,
          "velocity": 127,
          "beat_index": 1536,
          "section": "drop"
        },
        {
          "t": 158999,
          "type": "note",
          "pitch": 66,
          "duration_ms": 95,
          "velocity": 127,
          "beat_index": 1537,
          "section": "drop"
        },
        {
          "t": 159103,
          "type": "note",
          "pitch": 71,
          "duration_ms": 95,
          "velocity": 127,
          "beat_index": 1538,
          "section": "drop"
        },
        {
          "t": 159206,
          "type": "note",
          "pitch": 66,
          "duration_ms": 95,
          "velocity": 127,
          "beat_index": 1539,
          "section": "drop"
        },
        {
          "t": 159310,
          "type": "note",
          "pitch": 73,
          "duration_ms": 95,
          "velocity": 127,
          "beat_index": 1540,
          "section": "drop"
        },
        {
          "t": 159413,
          "type": "note",
          "pitch": 66,
          "duration_ms": 95,
          "velocity": 127,
          "beat_index": 1541,
          "section": "drop"
        },
        {
          "t": 159517,
          "type": "note",
          "pitch": 69,
          "duration_ms": 95,
          "velocity": 127,
          "beat_index": 1542,
          "section": "drop"
        },
        {
          "t": 159620,
          "type": "note",
          "pitch": 66,
          "duration_ms": 95,
          "velocity": 127,
          "beat_index": 1543,
          "section": "drop"
        },
        {
          "t": 159724,
          "type": "note",
          "pitch": 78,
          "duration_ms": 95,
          "velocity": 127,
          "beat_index": 1544,
          "section": "drop"
        },
        {
          "t": 159827,
          "type": "note",
          "pitch": 66,
          "duration_ms": 95,
          "velocity": 127,
          "beat_index": 1545,
          "section": "drop"
        },
        {
          "t": 159931,
          "type": "note",
          "pitch": 71,
          "duration_ms": 95,
          "velocity": 127,
          "beat_index": 1546,
          "section": "drop"
        },
        {
          "t": 160034,
          "type": "note",
          "pitch": 66,
          "duration_ms": 95,
          "velocity": 127,
          "beat_index": 1547,
          "section": "drop"
        },
        {
          "t": 160137,
          "type": "note",
          "pitch": 73,
          "duration_ms": 95,
          "velocity": 127,
          "beat_index": 1548,
          "section": "drop"
        },
        {
          "t": 160241,
          "type": "note",
          "pitch": 74,
          "duration_ms": 95,
          "velocity": 127,
          "beat_index": 1549,
          "section": "drop"
        },
        {
          "t": 160344,
          "type": "note",
          "pitch": 76,
          "duration_ms": 95,
          "velocity": 127,
          "beat_index": 1550,
          "section": "drop"
        },
        {
          "t": 160448,
          "type": "note",
          "pitch": 73,
          "duration_ms": 95,
          "velocity": 127,
          "beat_index": 1551,
          "section": "drop"
        },
        {
          "t": 160551,
          "type": "note",
          "pitch": 66,
          "duration_ms": 95,
          "velocity": 127,
          "beat_index": 1552,
          "section": "drop"
        },
        {
          "t": 160655,
          "type": "note",
          "pitch": 66,
          "duration_ms": 95,
          "velocity": 127,
          "beat_index": 1553,
          "section": "drop"
        },
        {
          "t": 160758,
          "type": "note",
          "pitch": 71,
          "duration_ms": 95,
          "velocity": 127,
          "beat_index": 1554,
          "section": "drop"
        },
        {
          "t": 160862,
          "type": "note",
          "pitch": 66,
          "duration_ms": 95,
          "velocity": 127,
          "beat_index": 1555,
          "section": "drop"
        },
        {
          "t": 160965,
          "type": "note",
          "pitch": 73,
          "duration_ms": 95,
          "velocity": 127,
          "beat_index": 1556,
          "section": "drop"
        },
        {
          "t": 161068,
          "type": "note",
          "pitch": 66,
          "duration_ms": 95,
          "velocity": 127,
          "beat_index": 1557,
          "section": "drop"
        },
        {
          "t": 161172,
          "type": "note",
          "pitch": 69,
          "duration_ms": 95,
          "velocity": 127,
          "beat_index": 1558,
          "section": "drop"
        },
        {
          "t": 161275,
          "type": "note",
          "pitch": 66,
          "duration_ms": 95,
          "velocity": 127,
          "beat_index": 1559,
          "section": "drop"
        },
        {
          "t": 161379,
          "type": "note",
          "pitch": 78,
          "duration_ms": 95,
          "velocity": 127,
          "beat_index": 1560,
          "section": "drop"
        },
        {
          "t": 161482,
          "type": "note",
          "pitch": 66,
          "duration_ms": 95,
          "velocity": 127,
          "beat_index": 1561,
          "section": "drop"
        },
        {
          "t": 161586,
          "type": "note",
          "pitch": 71,
          "duration_ms": 95,
          "velocity": 127,
          "beat_index": 1562,
          "section": "drop"
        },
        {
          "t": 161689,
          "type": "note",
          "pitch": 66,
          "duration_ms": 95,
          "velocity": 127,
          "beat_index": 1563,
          "section": "drop"
        },
        {
          "t": 161793,
          "type": "note",
          "pitch": 73,
          "duration_ms": 95,
          "velocity": 127,
          "beat_index": 1564,
          "section": "drop"
        },
        {
          "t": 161896,
          "type": "note",
          "pitch": 74,
          "duration_ms": 95,
          "velocity": 127,
          "beat_index": 1565,
          "section": "drop"
        },
        {
          "t": 161999,
          "type": "note",
          "pitch": 76,
          "duration_ms": 95,
          "velocity": 127,
          "beat_index": 1566,
          "section": "drop"
        },
        {
          "t": 162103,
          "type": "note",
          "pitch": 73,
          "duration_ms": 95,
          "velocity": 127,
          "beat_index": 1567,
          "section": "drop"
        },
        {
          "t": 162206,
          "type": "note",
          "pitch": 66,
          "duration_ms": 95,
          "velocity": 127,
          "beat_index": 1568,
          "section": "drop"
        },
        {
          "t": 162310,
          "type": "note",
          "pitch": 66,
          "duration_ms": 95,
          "velocity": 127,
          "beat_index": 1569,
          "section": "drop"
        },
        {
          "t": 162413,
          "type": "note",
          "pitch": 71,
          "duration_ms": 95,
          "velocity": 127,
          "beat_index": 1570,
          "section": "drop"
        },
        {
          "t": 162517,
          "type": "note",
          "pitch": 66,
          "duration_ms": 95,
          "velocity": 127,
          "beat_index": 1571,
          "section": "drop"
        },
        {
          "t": 162620,
          "type": "note",
          "pitch": 73,
          "duration_ms": 95,
          "velocity": 127,
          "beat_index": 1572,
          "section": "drop"
        },
        {
          "t": 162724,
          "type": "note",
          "pitch": 66,
          "duration_ms": 95,
          "velocity": 127,
          "beat_index": 1573,
          "section": "drop"
        },
        {
          "t": 162827,
          "type": "note",
          "pitch": 69,
          "duration_ms": 95,
          "velocity": 127,
          "beat_index": 1574,
          "section": "drop"
        },
        {
          "t": 162931,
          "type": "note",
          "pitch": 66,
          "duration_ms": 95,
          "velocity": 127,
          "beat_index": 1575,
          "section": "drop"
        },
        {
          "t": 163034,
          "type": "note",
          "pitch": 78,
          "duration_ms": 95,
          "velocity": 127,
          "beat_index": 1576,
          "section": "drop"
        },
        {
          "t": 163137,
          "type": "note",
          "pitch": 66,
          "duration_ms": 95,
          "velocity": 127,
          "beat_index": 1577,
          "section": "drop"
        },
        {
          "t": 163241,
          "type": "note",
          "pitch": 71,
          "duration_ms": 95,
          "velocity": 127,
          "beat_index": 1578,
          "section": "drop"
        },
        {
          "t": 163344,
          "type": "note",
          "pitch": 66,
          "duration_ms": 95,
          "velocity": 127,
          "beat_index": 1579,
          "section": "drop"
        },
        {
          "t": 163448,
          "type": "note",
          "pitch": 73,
          "duration_ms": 95,
          "velocity": 127,
          "beat_index": 1580,
          "section": "drop"
        },
        {
          "t": 163551,
          "type": "note",
          "pitch": 74,
          "duration_ms": 95,
          "velocity": 127,
          "beat_index": 1581,
          "section": "drop"
        },
        {
          "t": 163655,
          "type": "note",
          "pitch": 76,
          "duration_ms": 95,
          "velocity": 127,
          "beat_index": 1582,
          "section": "drop"
        },
        {
          "t": 163758,
          "type": "note",
          "pitch": 73,
          "duration_ms": 95,
          "velocity": 127,
          "beat_index": 1583,
          "section": "drop"
        },
        {
          "t": 163862,
          "type": "note",
          "pitch": 66,
          "duration_ms": 95,
          "velocity": 127,
          "beat_index": 1584,
          "section": "drop"
        },
        {
          "t": 163965,
          "type": "note",
          "pitch": 66,
          "duration_ms": 95,
          "velocity": 127,
          "beat_index": 1585,
          "section": "drop"
        },
        {
          "t": 164068,
          "type": "note",
          "pitch": 71,
          "duration_ms": 95,
          "velocity": 127,
          "beat_index": 1586,
          "section": "drop"
        },
        {
          "t": 164172,
          "type": "note",
          "pitch": 66,
          "duration_ms": 95,
          "velocity": 127,
          "beat_index": 1587,
          "section": "drop"
        },
        {
          "t": 164275,
          "type": "note",
          "pitch": 73,
          "duration_ms": 95,
          "velocity": 127,
          "beat_index": 1588,
          "section": "drop"
        },
        {
          "t": 164379,
          "type": "note",
          "pitch": 66,
          "duration_ms": 95,
          "velocity": 127,
          "beat_index": 1589,
          "section": "drop"
        },
        {
          "t": 164482,
          "type": "note",
          "pitch": 69,
          "duration_ms": 95,
          "velocity": 127,
          "beat_index": 1590,
          "section": "drop"
        },
        {
          "t": 164586,
          "type": "note",
          "pitch": 66,
          "duration_ms": 95,
          "velocity": 127,
          "beat_index": 1591,
          "section": "drop"
        },
        {
          "t": 164689,
          "type": "note",
          "pitch": 78,
          "duration_ms": 95,
          "velocity": 127,
          "beat_index": 1592,
          "section": "drop"
        },
        {
          "t": 164793,
          "type": "note",
          "pitch": 66,
          "duration_ms": 95,
          "velocity": 127,
          "beat_index": 1593,
          "section": "drop"
        },
        {
          "t": 164896,
          "type": "note",
          "pitch": 71,
          "duration_ms": 95,
          "velocity": 127,
          "beat_index": 1594,
          "section": "drop"
        },
        {
          "t": 164999,
          "type": "note",
          "pitch": 66,
          "duration_ms": 95,
          "velocity": 127,
          "beat_index": 1595,
          "section": "drop"
        },
        {
          "t": 165103,
          "type": "note",
          "pitch": 73,
          "duration_ms": 95,
          "velocity": 127,
          "beat_index": 1596,
          "section": "drop"
        },
        {
          "t": 165206,
          "type": "note",
          "pitch": 74,
          "duration_ms": 95,
          "velocity": 127,
          "beat_index": 1597,
          "section": "drop"
        },
        {
          "t": 165310,
          "type": "note",
          "pitch": 76,
          "duration_ms": 95,
          "velocity": 127,
          "beat_index": 1598,
          "section": "drop"
        },
        {
          "t": 165413,
          "type": "note",
          "pitch": 73,
          "duration_ms": 95,
          "velocity": 127,
          "beat_index": 1599,
          "section": "drop"
        },
        {
          "t": 165517,
          "type": "note",
          "pitch": 66,
          "duration_ms": 95,
          "velocity": 127,
          "beat_index": 1600,
          "section": "drop"
        },
        {
          "t": 165620,
          "type": "note",
          "pitch": 66,
          "duration_ms": 95,
          "velocity": 127,
          "beat_index": 1601,
          "section": "drop"
        },
        {
          "t": 165724,
          "type": "note",
          "pitch": 71,
          "duration_ms": 95,
          "velocity": 127,
          "beat_index": 1602,
          "section": "drop"
        },
        {
          "t": 165827,
          "type": "note",
          "pitch": 66,
          "duration_ms": 95,
          "velocity": 127,
          "beat_index": 1603,
          "section": "drop"
        },
        {
          "t": 165931,
          "type": "note",
          "pitch": 73,
          "duration_ms": 95,
          "velocity": 127,
          "beat_index": 1604,
          "section": "drop"
        },
        {
          "t": 166034,
          "type": "note",
          "pitch": 66,
          "duration_ms": 95,
          "velocity": 127,
          "beat_index": 1605,
          "section": "drop"
        },
        {
          "t": 166137,
          "type": "note",
          "pitch": 69,
          "duration_ms": 95,
          "velocity": 127,
          "beat_index": 1606,
          "section": "drop"
        },
        {
          "t": 166241,
          "type": "note",
          "pitch": 66,
          "duration_ms": 95,
          "velocity": 127,
          "beat_index": 1607,
          "section": "drop"
        },
        {
          "t": 166344,
          "type": "note",
          "pitch": 78,
          "duration_ms": 95,
          "velocity": 127,
          "beat_index": 1608,
          "section": "drop"
        },
        {
          "t": 166448,
          "type": "note",
          "pitch": 66,
          "duration_ms": 95,
          "velocity": 127,
          "beat_index": 1609,
          "section": "drop"
        },
        {
          "t": 166551,
          "type": "note",
          "pitch": 71,
          "duration_ms": 95,
          "velocity": 127,
          "beat_index": 1610,
          "section": "drop"
        },
        {
          "t": 166655,
          "type": "note",
          "pitch": 66,
          "duration_ms": 95,
          "velocity": 127,
          "beat_index": 1611,
          "section": "drop"
        },
        {
          "t": 166758,
          "type": "note",
          "pitch": 73,
          "duration_ms": 95,
          "velocity": 127,
          "beat_index": 1612,
          "section": "drop"
        },
        {
          "t": 166862,
          "type": "note",
          "pitch": 74,
          "duration_ms": 95,
          "velocity": 127,
          "beat_index": 1613,
          "section": "drop"
        },
        {
          "t": 166965,
          "type": "note",
          "pitch": 76,
          "duration_ms": 95,
          "velocity": 127,
          "beat_index": 1614,
          "section": "drop"
        },
        {
          "t": 167068,
          "type": "note",
          "pitch": 73,
          "duration_ms": 95,
          "velocity": 127,
          "beat_index": 1615,
          "section": "drop"
        },
        {
          "t": 167172,
          "type": "note",
          "pitch": 66,
          "duration_ms": 95,
          "velocity": 127,
          "beat_index": 1616,
          "section": "drop"
        },
        {
          "t": 167275,
          "type": "note",
          "pitch": 66,
          "duration_ms": 95,
          "velocity": 127,
          "beat_index": 1617,
          "section": "drop"
        },
        {
          "t": 167379,
          "type": "note",
          "pitch": 71,
          "duration_ms": 95,
          "velocity": 127,
          "beat_index": 1618,
          "section": "drop"
        },
        {
          "t": 167482,
          "type": "note",
          "pitch": 66,
          "duration_ms": 95,
          "velocity": 127,
          "beat_index": 1619,
          "section": "drop"
        },
        {
          "t": 167586,
          "type": "note",
          "pitch": 73,
          "duration_ms": 95,
          "velocity": 127,
          "beat_index": 1620,
          "section": "drop"
        },
        {
          "t": 167689,
          "type": "note",
          "pitch": 66,
          "duration_ms": 95,
          "velocity": 127,
          "beat_index": 1621,
          "section": "drop"
        },
        {
          "t": 167793,
          "type": "note",
          "pitch": 69,
          "duration_ms": 95,
          "velocity": 127,
          "beat_index": 1622,
          "section": "drop"
        },
        {
          "t": 167896,
          "type": "note",
          "pitch": 66,
          "duration_ms": 95,
          "velocity": 127,
          "beat_index": 1623,
          "section": "drop"
        },
        {
          "t": 167999,
          "type": "note",
          "pitch": 78,
          "duration_ms": 95,
          "velocity": 127,
          "beat_index": 1624,
          "section": "drop"
        },
        {
          "t": 168103,
          "type": "note",
          "pitch": 66,
          "duration_ms": 95,
          "velocity": 127,
          "beat_index": 1625,
          "section": "drop"
        },
        {
          "t": 168206,
          "type": "note",
          "pitch": 71,
          "duration_ms": 95,
          "velocity": 127,
          "beat_index": 1626,
          "section": "drop"
        },
        {
          "t": 168310,
          "type": "note",
          "pitch": 66,
          "duration_ms": 95,
          "velocity": 127,
          "beat_index": 1627,
          "section": "drop"
        },
        {
          "t": 168413,
          "type": "note",
          "pitch": 73,
          "duration_ms": 95,
          "velocity": 127,
          "beat_index": 1628,
          "section": "drop"
        },
        {
          "t": 168517,
          "type": "note",
          "pitch": 74,
          "duration_ms": 95,
          "velocity": 127,
          "beat_index": 1629,
          "section": "drop"
        },
        {
          "t": 168620,
          "type": "note",
          "pitch": 76,
          "duration_ms": 95,
          "velocity": 127,
          "beat_index": 1630,
          "section": "drop"
        },
        {
          "t": 168724,
          "type": "note",
          "pitch": 73,
          "duration_ms": 95,
          "velocity": 127,
          "beat_index": 1631,
          "section": "drop"
        },
        {
          "t": 168827,
          "type": "note",
          "pitch": 66,
          "duration_ms": 95,
          "velocity": 127,
          "beat_index": 1632,
          "section": "drop"
        },
        {
          "t": 168931,
          "type": "note",
          "pitch": 66,
          "duration_ms": 95,
          "velocity": 127,
          "beat_index": 1633,
          "section": "drop"
        },
        {
          "t": 169034,
          "type": "note",
          "pitch": 71,
          "duration_ms": 95,
          "velocity": 127,
          "beat_index": 1634,
          "section": "drop"
        },
        {
          "t": 169137,
          "type": "note",
          "pitch": 66,
          "duration_ms": 95,
          "velocity": 127,
          "beat_index": 1635,
          "section": "drop"
        },
        {
          "t": 169241,
          "type": "note",
          "pitch": 73,
          "duration_ms": 95,
          "velocity": 127,
          "beat_index": 1636,
          "section": "drop"
        },
        {
          "t": 169344,
          "type": "note",
          "pitch": 66,
          "duration_ms": 95,
          "velocity": 127,
          "beat_index": 1637,
          "section": "drop"
        },
        {
          "t": 169448,
          "type": "note",
          "pitch": 69,
          "duration_ms": 95,
          "velocity": 127,
          "beat_index": 1638,
          "section": "drop"
        },
        {
          "t": 169551,
          "type": "note",
          "pitch": 66,
          "duration_ms": 95,
          "velocity": 127,
          "beat_index": 1639,
          "section": "drop"
        },
        {
          "t": 169655,
          "type": "note",
          "pitch": 78,
          "duration_ms": 95,
          "velocity": 127,
          "beat_index": 1640,
          "section": "drop"
        },
        {
          "t": 169758,
          "type": "note",
          "pitch": 66,
          "duration_ms": 95,
          "velocity": 127,
          "beat_index": 1641,
          "section": "drop"
        },
        {
          "t": 169862,
          "type": "note",
          "pitch": 71,
          "duration_ms": 95,
          "velocity": 127,
          "beat_index": 1642,
          "section": "drop"
        },
        {
          "t": 169965,
          "type": "note",
          "pitch": 66,
          "duration_ms": 95,
          "velocity": 127,
          "beat_index": 1643,
          "section": "drop"
        },
        {
          "t": 170068,
          "type": "note",
          "pitch": 73,
          "duration_ms": 95,
          "velocity": 127,
          "beat_index": 1644,
          "section": "drop"
        },
        {
          "t": 170172,
          "type": "note",
          "pitch": 74,
          "duration_ms": 95,
          "velocity": 127,
          "beat_index": 1645,
          "section": "drop"
        },
        {
          "t": 170275,
          "type": "note",
          "pitch": 76,
          "duration_ms": 95,
          "velocity": 127,
          "beat_index": 1646,
          "section": "drop"
        },
        {
          "t": 170379,
          "type": "note",
          "pitch": 73,
          "duration_ms": 95,
          "velocity": 127,
          "beat_index": 1647,
          "section": "drop"
        },
        {
          "t": 170482,
          "type": "note",
          "pitch": 66,
          "duration_ms": 95,
          "velocity": 127,
          "beat_index": 1648,
          "section": "drop"
        },
        {
          "t": 170586,
          "type": "note",
          "pitch": 66,
          "duration_ms": 95,
          "velocity": 127,
          "beat_index": 1649,
          "section": "drop"
        },
        {
          "t": 170689,
          "type": "note",
          "pitch": 71,
          "duration_ms": 95,
          "velocity": 127,
          "beat_index": 1650,
          "section": "drop"
        },
        {
          "t": 170793,
          "type": "note",
          "pitch": 66,
          "duration_ms": 95,
          "velocity": 127,
          "beat_index": 1651,
          "section": "drop"
        },
        {
          "t": 170896,
          "type": "note",
          "pitch": 73,
          "duration_ms": 95,
          "velocity": 127,
          "beat_index": 1652,
          "section": "drop"
        },
        {
          "t": 170999,
          "type": "note",
          "pitch": 66,
          "duration_ms": 95,
          "velocity": 127,
          "beat_index": 1653,
          "section": "drop"
        },
        {
          "t": 171103,
          "type": "note",
          "pitch": 69,
          "duration_ms": 95,
          "velocity": 127,
          "beat_index": 1654,
          "section": "drop"
        },
        {
          "t": 171206,
          "type": "note",
          "pitch": 66,
          "duration_ms": 95,
          "velocity": 127,
          "beat_index": 1655,
          "section": "drop"
        },
        {
          "t": 171310,
          "type": "note",
          "pitch": 78,
          "duration_ms": 95,
          "velocity": 127,
          "beat_index": 1656,
          "section": "drop"
        },
        {
          "t": 171413,
          "type": "note",
          "pitch": 66,
          "duration_ms": 95,
          "velocity": 127,
          "beat_index": 1657,
          "section": "drop"
        },
        {
          "t": 171517,
          "type": "note",
          "pitch": 71,
          "duration_ms": 95,
          "velocity": 127,
          "beat_index": 1658,
          "section": "drop"
        },
        {
          "t": 171620,
          "type": "note",
          "pitch": 66,
          "duration_ms": 95,
          "velocity": 127,
          "beat_index": 1659,
          "section": "drop"
        },
        {
          "t": 171724,
          "type": "note",
          "pitch": 73,
          "duration_ms": 95,
          "velocity": 127,
          "beat_index": 1660,
          "section": "drop"
        },
        {
          "t": 171827,
          "type": "note",
          "pitch": 74,
          "duration_ms": 95,
          "velocity": 127,
          "beat_index": 1661,
          "section": "drop"
        },
        {
          "t": 171931,
          "type": "note",
          "pitch": 76,
          "duration_ms": 95,
          "velocity": 127,
          "beat_index": 1662,
          "section": "drop"
        },
        {
          "t": 172034,
          "type": "note",
          "pitch": 73,
          "duration_ms": 95,
          "velocity": 127,
          "beat_index": 1663,
          "section": "drop"
        },
        {
          "t": 172137,
          "type": "note",
          "pitch": 54,
          "duration_ms": 380,
          "velocity": 80,
          "beat_index": 1664,
          "section": "outro"
        },
        {
          "t": 172551,
          "type": "note",
          "pitch": 61,
          "duration_ms": 380,
          "velocity": 70,
          "beat_index": 1668,
          "section": "outro"
        },
        {
          "t": 172965,
          "type": "note",
          "pitch": 57,
          "duration_ms": 380,
          "velocity": 60,
          "beat_index": 1672,
          "section": "outro"
        },
        {
          "t": 173379,
          "type": "note",
          "pitch": 54,
          "duration_ms": 380,
          "velocity": 50,
          "beat_index": 1676,
          "section": "outro"
        },
        {
          "t": 173793,
          "type": "note",
          "pitch": 54,
          "duration_ms": 380,
          "velocity": 80,
          "beat_index": 1680,
          "section": "outro"
        },
        {
          "t": 174206,
          "type": "note",
          "pitch": 61,
          "duration_ms": 380,
          "velocity": 70,
          "beat_index": 1684,
          "section": "outro"
        },
        {
          "t": 174620,
          "type": "note",
          "pitch": 57,
          "duration_ms": 380,
          "velocity": 60,
          "beat_index": 1688,
          "section": "outro"
        },
        {
          "t": 175034,
          "type": "note",
          "pitch": 54,
          "duration_ms": 380,
          "velocity": 50,
          "beat_index": 1692,
          "section": "outro"
        },
        {
          "t": 175448,
          "type": "note",
          "pitch": 54,
          "duration_ms": 380,
          "velocity": 80,
          "beat_index": 1696,
          "section": "outro"
        },
        {
          "t": 175862,
          "type": "note",
          "pitch": 61,
          "duration_ms": 380,
          "velocity": 70,
          "beat_index": 1700,
          "section": "outro"
        },
        {
          "t": 176275,
          "type": "note",
          "pitch": 57,
          "duration_ms": 380,
          "velocity": 60,
          "beat_index": 1704,
          "section": "outro"
        },
        {
          "t": 176689,
          "type": "note",
          "pitch": 54,
          "duration_ms": 380,
          "velocity": 50,
          "beat_index": 1708,
          "section": "outro"
        },
        {
          "t": 177103,
          "type": "note",
          "pitch": 54,
          "duration_ms": 380,
          "velocity": 80,
          "beat_index": 1712,
          "section": "outro"
        },
        {
          "t": 177517,
          "type": "note",
          "pitch": 61,
          "duration_ms": 380,
          "velocity": 70,
          "beat_index": 1716,
          "section": "outro"
        },
        {
          "t": 177931,
          "type": "note",
          "pitch": 57,
          "duration_ms": 380,
          "velocity": 60,
          "beat_index": 1720,
          "section": "outro"
        },
        {
          "t": 178344,
          "type": "note",
          "pitch": 54,
          "duration_ms": 380,
          "velocity": 50,
          "beat_index": 1724,
          "section": "outro"
        },
        {
          "t": 178758,
          "type": "note",
          "pitch": 54,
          "duration_ms": 380,
          "velocity": 80,
          "beat_index": 1728,
          "section": "outro"
        },
        {
          "t": 179172,
          "type": "note",
          "pitch": 61,
          "duration_ms": 380,
          "velocity": 70,
          "beat_index": 1732,
          "section": "outro"
        },
        {
          "t": 179586,
          "type": "note",
          "pitch": 57,
          "duration_ms": 380,
          "velocity": 60,
          "beat_index": 1736,
          "section": "outro"
        },
        {
          "t": 179999,
          "type": "note",
          "pitch": 54,
          "duration_ms": 380,
          "velocity": 50,
          "beat_index": 1740,
          "section": "outro"
        },
        {
          "t": 180413,
          "type": "note",
          "pitch": 54,
          "duration_ms": 380,
          "velocity": 80,
          "beat_index": 1744,
          "section": "outro"
        },
        {
          "t": 180827,
          "type": "note",
          "pitch": 61,
          "duration_ms": 380,
          "velocity": 70,
          "beat_index": 1748,
          "section": "outro"
        },
        {
          "t": 181241,
          "type": "note",
          "pitch": 57,
          "duration_ms": 380,
          "velocity": 60,
          "beat_index": 1752,
          "section": "outro"
        },
        {
          "t": 181655,
          "type": "note",
          "pitch": 54,
          "duration_ms": 380,
          "velocity": 50,
          "beat_index": 1756,
          "section": "outro"
        },
        {
          "t": 182068,
          "type": "note",
          "pitch": 54,
          "duration_ms": 380,
          "velocity": 80,
          "beat_index": 1760,
          "section": "outro"
        },
        {
          "t": 182482,
          "type": "note",
          "pitch": 61,
          "duration_ms": 380,
          "velocity": 70,
          "beat_index": 1764,
          "section": "outro"
        },
        {
          "t": 182896,
          "type": "note",
          "pitch": 57,
          "duration_ms": 380,
          "velocity": 60,
          "beat_index": 1768,
          "section": "outro"
        },
        {
          "t": 183310,
          "type": "note",
          "pitch": 54,
          "duration_ms": 380,
          "velocity": 50,
          "beat_index": 1772,
          "section": "outro"
        },
        {
          "t": 183724,
          "type": "note",
          "pitch": 54,
          "duration_ms": 380,
          "velocity": 80,
          "beat_index": 1776,
          "section": "outro"
        },
        {
          "t": 184137,
          "type": "note",
          "pitch": 61,
          "duration_ms": 380,
          "velocity": 70,
          "beat_index": 1780,
          "section": "outro"
        },
        {
          "t": 184551,
          "type": "note",
          "pitch": 57,
          "duration_ms": 380,
          "velocity": 60,
          "beat_index": 1784,
          "section": "outro"
        },
        {
          "t": 184965,
          "type": "note",
          "pitch": 54,
          "duration_ms": 380,
          "velocity": 50,
          "beat_index": 1788,
          "section": "outro"
        }
      ]
    }
  ]
}